0
SECTION
2
ENTITIES
0
POLYLINE
5
3fd
8
0
66
1
10
0
20
0
30
0
0
VERTEX
5
40d
8
0
10
3.000000
20
0.000000
30
0.000000
0
VERTEX
5
41d
8
0
10
47.000000
20
0.000000
30
0.000000
0
VERTEX
5
42d
8
0
10
47.000000
20
0.000000
30
0.000000
0
VERTEX
5
43d
8
0
10
47.074492
20
0.000924
30
0.000000
0
VERTEX
5
44d
8
0
10
47.148761
20
0.003687
30
0.000000
0
VERTEX
5
45d
8
0
10
47.222779
20
0.008277
30
0.000000
0
VERTEX
5
46d
8
0
10
47.296513
20
0.014680
30
0.000000
0
VERTEX
5
47d
8
0
10
47.369934
20
0.022884
30
0.000000
0
VERTEX
5
48d
8
0
10
47.443009
20
0.032877
30
0.000000
0
VERTEX
5
49d
8
0
10
47.515710
20
0.044646
30
0.000000
0
VERTEX
5
4ad
8
0
10
47.588004
20
0.058177
30
0.000000
0
VERTEX
5
4bd
8
0
10
47.659861
20
0.073458
30
0.000000
0
VERTEX
5
4cd
8
0
10
47.731251
20
0.090477
30
0.000000
0
VERTEX
5
4dd
8
0
10
47.802143
20
0.109220
30
0.000000
0
VERTEX
5
4ed
8
0
10
47.872505
20
0.129676
30
0.000000
0
VERTEX
5
4fd
8
0
10
47.942308
20
0.151830
30
0.000000
0
VERTEX
5
50d
8
0
10
48.011520
20
0.175671
30
0.000000
0
VERTEX
5
51d
8
0
10
48.080111
20
0.201186
30
0.000000
0
VERTEX
5
52d
8
0
10
48.148050
20
0.228361
30
0.000000
0
VERTEX
5
53d
8
0
10
48.215307
20
0.257185
30
0.000000
0
VERTEX
5
54d
8
0
10
48.281849
20
0.287645
30
0.000000
0
VERTEX
5
55d
8
0
10
48.347648
20
0.319727
30
0.000000
0
VERTEX
5
56d
8
0
10
48.412671
20
0.353420
30
0.000000
0
VERTEX
5
57d
8
0
10
48.476889
20
0.388709
30
0.000000
0
VERTEX
5
58d
8
0
10
48.540271
20
0.425584
30
0.000000
0
VERTEX
5
59d
8
0
10
48.602785
20
0.464030
30
0.000000
0
VERTEX
5
5ad
8
0
10
48.664402
20
0.504035
30
0.000000
0
VERTEX
5
5bd
8
0
10
48.725089
20
0.545587
30
0.000000
0
VERTEX
5
5cd
8
0
10
48.784818
20
0.588672
30
0.000000
0
VERTEX
5
5dd
8
0
10
48.843556
20
0.633279
30
0.000000
0
VERTEX
5
5ed
8
0
10
48.901274
20
0.679394
30
0.000000
0
VERTEX
5
5fd
8
0
10
48.957939
20
0.727004
30
0.000000
0
VERTEX
5
60d
8
0
10
49.013523
20
0.776097
30
0.000000
0
VERTEX
5
61d
8
0
10
49.067994
20
0.826659
30
0.000000
0
VERTEX
5
62d
8
0
10
49.121320
20
0.878680
30
0.000000
0
VERTEX
5
63d
8
0
10
49.121320
20
0.878680
30
0.000000
0
VERTEX
5
64d
8
0
10
49.173341
20
0.932006
30
0.000000
0
VERTEX
5
65d
8
0
10
49.223903
20
0.986477
30
0.000000
0
VERTEX
5
66d
8
0
10
49.272996
20
1.042061
30
0.000000
0
VERTEX
5
67d
8
0
10
49.320606
20
1.098726
30
0.000000
0
VERTEX
5
68d
8
0
10
49.366721
20
1.156444
30
0.000000
0
VERTEX
5
69d
8
0
10
49.411328
20
1.215182
30
0.000000
0
VERTEX
5
6ad
8
0
10
49.454413
20
1.274911
30
0.000000
0
VERTEX
5
6bd
8
0
10
49.495965
20
1.335598
30
0.000000
0
VERTEX
5
6cd
8
0
10
49.535970
20
1.397215
30
0.000000
0
VERTEX
5
6dd
8
0
10
49.574416
20
1.459729
30
0.000000
0
VERTEX
5
6ed
8
0
10
49.611291
20
1.523111
30
0.000000
0
VERTEX
5
6fd
8
0
10
49.646580
20
1.587329
30
0.000000
0
VERTEX
5
70d
8
0
10
49.680273
20
1.652352
30
0.000000
0
VERTEX
5
71d
8
0
10
49.712355
20
1.718151
30
0.000000
0
VERTEX
5
72d
8
0
10
49.742815
20
1.784693
30
0.000000
0
VERTEX
5
73d
8
0
10
49.771639
20
1.851950
30
0.000000
0
VERTEX
5
74d
8
0
10
49.798814
20
1.919889
30
0.000000
0
VERTEX
5
75d
8
0
10
49.824329
20
1.988480
30
0.000000
0
VERTEX
5
76d
8
0
10
49.848170
20
2.057692
30
0.000000
0
VERTEX
5
77d
8
0
10
49.870324
20
2.127495
30
0.000000
0
VERTEX
5
78d
8
0
10
49.890780
20
2.197857
30
0.000000
0
VERTEX
5
79d
8
0
10
49.909523
20
2.268749
30
0.000000
0
VERTEX
5
7ad
8
0
10
49.926542
20
2.340139
30
0.000000
0
VERTEX
5
7bd
8
0
10
49.941823
20
2.411996
30
0.000000
0
VERTEX
5
7cd
8
0
10
49.955354
20
2.484290
30
0.000000
0
VERTEX
5
7dd
8
0
10
49.967123
20
2.556991
30
0.000000
0
VERTEX
5
7ed
8
0
10
49.977116
20
2.630066
30
0.000000
0
VERTEX
5
7fd
8
0
10
49.985320
20
2.703487
30
0.000000
0
VERTEX
5
80d
8
0
10
49.991723
20
2.777221
30
0.000000
0
VERTEX
5
81d
8
0
10
49.996313
20
2.851239
30
0.000000
0
VERTEX
5
82d
8
0
10
49.999076
20
2.925508
30
0.000000
0
VERTEX
5
83d
8
0
10
50.000000
20
3.000000
30
0.000000
0
VERTEX
5
84d
8
0
10
50.000000
20
47.000000
30
0.000000
0
VERTEX
5
85d
8
0
10
50.000000
20
47.000000
30
0.000000
0
VERTEX
5
86d
8
0
10
49.999076
20
47.074492
30
0.000000
0
VERTEX
5
87d
8
0
10
49.996313
20
47.148761
30
0.000000
0
VERTEX
5
88d
8
0
10
49.991723
20
47.222779
30
0.000000
0
VERTEX
5
89d
8
0
10
49.985320
20
47.296513
30
0.000000
0
VERTEX
5
8ad
8
0
10
49.977116
20
47.369934
30
0.000000
0
VERTEX
5
8bd
8
0
10
49.967123
20
47.443009
30
0.000000
0
VERTEX
5
8cd
8
0
10
49.955354
20
47.515710
30
0.000000
0
VERTEX
5
8dd
8
0
10
49.941823
20
47.588004
30
0.000000
0
VERTEX
5
8ed
8
0
10
49.926542
20
47.659861
30
0.000000
0
VERTEX
5
8fd
8
0
10
49.909523
20
47.731251
30
0.000000
0
VERTEX
5
90d
8
0
10
49.890780
20
47.802143
30
0.000000
0
VERTEX
5
91d
8
0
10
49.870324
20
47.872505
30
0.000000
0
VERTEX
5
92d
8
0
10
49.848170
20
47.942308
30
0.000000
0
VERTEX
5
93d
8
0
10
49.824329
20
48.011520
30
0.000000
0
VERTEX
5
94d
8
0
10
49.798814
20
48.080111
30
0.000000
0
VERTEX
5
95d
8
0
10
49.771639
20
48.148050
30
0.000000
0
VERTEX
5
96d
8
0
10
49.742815
20
48.215307
30
0.000000
0
VERTEX
5
97d
8
0
10
49.712355
20
48.281849
30
0.000000
0
VERTEX
5
98d
8
0
10
49.680273
20
48.347648
30
0.000000
0
VERTEX
5
99d
8
0
10
49.646580
20
48.412671
30
0.000000
0
VERTEX
5
9ad
8
0
10
49.611291
20
48.476889
30
0.000000
0
VERTEX
5
9bd
8
0
10
49.574416
20
48.540271
30
0.000000
0
VERTEX
5
9cd
8
0
10
49.535970
20
48.602785
30
0.000000
0
VERTEX
5
9dd
8
0
10
49.495965
20
48.664402
30
0.000000
0
VERTEX
5
9ed
8
0
10
49.454413
20
48.725089
30
0.000000
0
VERTEX
5
9fd
8
0
10
49.411328
20
48.784818
30
0.000000
0
VERTEX
5
a0d
8
0
10
49.366721
20
48.843556
30
0.000000
0
VERTEX
5
a1d
8
0
10
49.320606
20
48.901274
30
0.000000
0
VERTEX
5
a2d
8
0
10
49.272996
20
48.957939
30
0.000000
0
VERTEX
5
a3d
8
0
10
49.223903
20
49.013523
30
0.000000
0
VERTEX
5
a4d
8
0
10
49.173341
20
49.067994
30
0.000000
0
VERTEX
5
a5d
8
0
10
49.121320
20
49.121320
30
0.000000
0
VERTEX
5
a6d
8
0
10
49.121320
20
49.121320
30
0.000000
0
VERTEX
5
a7d
8
0
10
49.067994
20
49.173341
30
0.000000
0
VERTEX
5
a8d
8
0
10
49.013523
20
49.223903
30
0.000000
0
VERTEX
5
a9d
8
0
10
48.957939
20
49.272996
30
0.000000
0
VERTEX
5
aad
8
0
10
48.901274
20
49.320606
30
0.000000
0
VERTEX
5
abd
8
0
10
48.843556
20
49.366721
30
0.000000
0
VERTEX
5
acd
8
0
10
48.784818
20
49.411328
30
0.000000
0
VERTEX
5
add
8
0
10
48.725089
20
49.454413
30
0.000000
0
VERTEX
5
aed
8
0
10
48.664402
20
49.495965
30
0.000000
0
VERTEX
5
afd
8
0
10
48.602785
20
49.535970
30
0.000000
0
VERTEX
5
b0d
8
0
10
48.540271
20
49.574416
30
0.000000
0
VERTEX
5
b1d
8
0
10
48.476889
20
49.611291
30
0.000000
0
VERTEX
5
b2d
8
0
10
48.412671
20
49.646580
30
0.000000
0
VERTEX
5
b3d
8
0
10
48.347648
20
49.680273
30
0.000000
0
VERTEX
5
b4d
8
0
10
48.281849
20
49.712355
30
0.000000
0
VERTEX
5
b5d
8
0
10
48.215307
20
49.742815
30
0.000000
0
VERTEX
5
b6d
8
0
10
48.148050
20
49.771639
30
0.000000
0
VERTEX
5
b7d
8
0
10
48.080111
20
49.798814
30
0.000000
0
VERTEX
5
b8d
8
0
10
48.011520
20
49.824329
30
0.000000
0
VERTEX
5
b9d
8
0
10
47.942308
20
49.848170
30
0.000000
0
VERTEX
5
bad
8
0
10
47.872505
20
49.870324
30
0.000000
0
VERTEX
5
bbd
8
0
10
47.802143
20
49.890780
30
0.000000
0
VERTEX
5
bcd
8
0
10
47.731251
20
49.909523
30
0.000000
0
VERTEX
5
bdd
8
0
10
47.659861
20
49.926542
30
0.000000
0
VERTEX
5
bed
8
0
10
47.588004
20
49.941823
30
0.000000
0
VERTEX
5
bfd
8
0
10
47.515710
20
49.955354
30
0.000000
0
VERTEX
5
c0d
8
0
10
47.443009
20
49.967123
30
0.000000
0
VERTEX
5
c1d
8
0
10
47.369934
20
49.977116
30
0.000000
0
VERTEX
5
c2d
8
0
10
47.296513
20
49.985320
30
0.000000
0
VERTEX
5
c3d
8
0
10
47.222779
20
49.991723
30
0.000000
0
VERTEX
5
c4d
8
0
10
47.148761
20
49.996313
30
0.000000
0
VERTEX
5
c5d
8
0
10
47.074492
20
49.999076
30
0.000000
0
VERTEX
5
c6d
8
0
10
47.000000
20
50.000000
30
0.000000
0
VERTEX
5
c7d
8
0
10
3.000000
20
50.000000
30
0.000000
0
VERTEX
5
c8d
8
0
10
3.000000
20
50.000000
30
0.000000
0
VERTEX
5
c9d
8
0
10
2.925508
20
49.999076
30
0.000000
0
VERTEX
5
cad
8
0
10
2.851239
20
49.996313
30
0.000000
0
VERTEX
5
cbd
8
0
10
2.777221
20
49.991723
30
0.000000
0
VERTEX
5
ccd
8
0
10
2.703487
20
49.985320
30
0.000000
0
VERTEX
5
cdd
8
0
10
2.630066
20
49.977116
30
0.000000
0
VERTEX
5
ced
8
0
10
2.556991
20
49.967123
30
0.000000
0
VERTEX
5
cfd
8
0
10
2.484290
20
49.955354
30
0.000000
0
VERTEX
5
d0d
8
0
10
2.411996
20
49.941823
30
0.000000
0
VERTEX
5
d1d
8
0
10
2.340139
20
49.926542
30
0.000000
0
VERTEX
5
d2d
8
0
10
2.268749
20
49.909523
30
0.000000
0
VERTEX
5
d3d
8
0
10
2.197857
20
49.890780
30
0.000000
0
VERTEX
5
d4d
8
0
10
2.127495
20
49.870324
30
0.000000
0
VERTEX
5
d5d
8
0
10
2.057692
20
49.848170
30
0.000000
0
VERTEX
5
d6d
8
0
10
1.988480
20
49.824329
30
0.000000
0
VERTEX
5
d7d
8
0
10
1.919889
20
49.798814
30
0.000000
0
VERTEX
5
d8d
8
0
10
1.851950
20
49.771639
30
0.000000
0
VERTEX
5
d9d
8
0
10
1.784693
20
49.742815
30
0.000000
0
VERTEX
5
dad
8
0
10
1.718151
20
49.712355
30
0.000000
0
VERTEX
5
dbd
8
0
10
1.652352
20
49.680273
30
0.000000
0
VERTEX
5
dcd
8
0
10
1.587329
20
49.646580
30
0.000000
0
VERTEX
5
ddd
8
0
10
1.523111
20
49.611291
30
0.000000
0
VERTEX
5
ded
8
0
10
1.459729
20
49.574416
30
0.000000
0
VERTEX
5
dfd
8
0
10
1.397215
20
49.535970
30
0.000000
0
VERTEX
5
e0d
8
0
10
1.335598
20
49.495965
30
0.000000
0
VERTEX
5
e1d
8
0
10
1.274911
20
49.454413
30
0.000000
0
VERTEX
5
e2d
8
0
10
1.215182
20
49.411328
30
0.000000
0
VERTEX
5
e3d
8
0
10
1.156444
20
49.366721
30
0.000000
0
VERTEX
5
e4d
8
0
10
1.098726
20
49.320606
30
0.000000
0
VERTEX
5
e5d
8
0
10
1.042061
20
49.272996
30
0.000000
0
VERTEX
5
e6d
8
0
10
0.986477
20
49.223903
30
0.000000
0
VERTEX
5
e7d
8
0
10
0.932006
20
49.173341
30
0.000000
0
VERTEX
5
e8d
8
0
10
0.878680
20
49.121320
30
0.000000
0
VERTEX
5
e9d
8
0
10
0.878680
20
49.121320
30
0.000000
0
VERTEX
5
ead
8
0
10
0.826659
20
49.067994
30
0.000000
0
VERTEX
5
ebd
8
0
10
0.776097
20
49.013523
30
0.000000
0
VERTEX
5
ecd
8
0
10
0.727004
20
48.957939
30
0.000000
0
VERTEX
5
edd
8
0
10
0.679394
20
48.901274
30
0.000000
0
VERTEX
5
eed
8
0
10
0.633279
20
48.843556
30
0.000000
0
VERTEX
5
efd
8
0
10
0.588672
20
48.784818
30
0.000000
0
VERTEX
5
f0d
8
0
10
0.545587
20
48.725089
30
0.000000
0
VERTEX
5
f1d
8
0
10
0.504035
20
48.664402
30
0.000000
0
VERTEX
5
f2d
8
0
10
0.464030
20
48.602785
30
0.000000
0
VERTEX
5
f3d
8
0
10
0.425584
20
48.540271
30
0.000000
0
VERTEX
5
f4d
8
0
10
0.388709
20
48.476889
30
0.000000
0
VERTEX
5
f5d
8
0
10
0.353420
20
48.412671
30
0.000000
0
VERTEX
5
f6d
8
0
10
0.319727
20
48.347648
30
0.000000
0
VERTEX
5
f7d
8
0
10
0.287645
20
48.281849
30
0.000000
0
VERTEX
5
f8d
8
0
10
0.257185
20
48.215307
30
0.000000
0
VERTEX
5
f9d
8
0
10
0.228361
20
48.148050
30
0.000000
0
VERTEX
5
fad
8
0
10
0.201186
20
48.080111
30
0.000000
0
VERTEX
5
fbd
8
0
10
0.175671
20
48.011520
30
0.000000
0
VERTEX
5
fcd
8
0
10
0.151830
20
47.942308
30
0.000000
0
VERTEX
5
fdd
8
0
10
0.129676
20
47.872505
30
0.000000
0
VERTEX
5
fed
8
0
10
0.109220
20
47.802143
30
0.000000
0
VERTEX
5
ffd
8
0
10
0.090477
20
47.731251
30
0.000000
0
VERTEX
5
100d
8
0
10
0.073458
20
47.659861
30
0.000000
0
VERTEX
5
101d
8
0
10
0.058177
20
47.588004
30
0.000000
0
VERTEX
5
102d
8
0
10
0.044646
20
47.515710
30
0.000000
0
VERTEX
5
103d
8
0
10
0.032877
20
47.443009
30
0.000000
0
VERTEX
5
104d
8
0
10
0.022884
20
47.369934
30
0.000000
0
VERTEX
5
105d
8
0
10
0.014680
20
47.296513
30
0.000000
0
VERTEX
5
106d
8
0
10
0.008277
20
47.222779
30
0.000000
0
VERTEX
5
107d
8
0
10
0.003687
20
47.148761
30
0.000000
0
VERTEX
5
108d
8
0
10
0.000924
20
47.074492
30
0.000000
0
VERTEX
5
109d
8
0
10
0.000000
20
47.000000
30
0.000000
0
VERTEX
5
10ad
8
0
10
0.000000
20
3.000000
30
0.000000
0
VERTEX
5
10bd
8
0
10
0.000000
20
3.000000
30
0.000000
0
VERTEX
5
10cd
8
0
10
0.000924
20
2.925508
30
0.000000
0
VERTEX
5
10dd
8
0
10
0.003687
20
2.851239
30
0.000000
0
VERTEX
5
10ed
8
0
10
0.008277
20
2.777221
30
0.000000
0
VERTEX
5
10fd
8
0
10
0.014680
20
2.703487
30
0.000000
0
VERTEX
5
110d
8
0
10
0.022884
20
2.630066
30
0.000000
0
VERTEX
5
111d
8
0
10
0.032877
20
2.556991
30
0.000000
0
VERTEX
5
112d
8
0
10
0.044646
20
2.484290
30
0.000000
0
VERTEX
5
113d
8
0
10
0.058177
20
2.411996
30
0.000000
0
VERTEX
5
114d
8
0
10
0.073458
20
2.340139
30
0.000000
0
VERTEX
5
115d
8
0
10
0.090477
20
2.268749
30
0.000000
0
VERTEX
5
116d
8
0
10
0.109220
20
2.197857
30
0.000000
0
VERTEX
5
117d
8
0
10
0.129676
20
2.127495
30
0.000000
0
VERTEX
5
118d
8
0
10
0.151830
20
2.057692
30
0.000000
0
VERTEX
5
119d
8
0
10
0.175671
20
1.988480
30
0.000000
0
VERTEX
5
11ad
8
0
10
0.201186
20
1.919889
30
0.000000
0
VERTEX
5
11bd
8
0
10
0.228361
20
1.851950
30
0.000000
0
VERTEX
5
11cd
8
0
10
0.257185
20
1.784694
30
0.000000
0
VERTEX
5
11dd
8
0
10
0.287645
20
1.718151
30
0.000000
0
VERTEX
5
11ed
8
0
10
0.319727
20
1.652352
30
0.000000
0
VERTEX
5
11fd
8
0
10
0.353420
20
1.587329
30
0.000000
0
VERTEX
5
120d
8
0
10
0.388709
20
1.523111
30
0.000000
0
VERTEX
5
121d
8
0
10
0.425584
20
1.459729
30
0.000000
0
VERTEX
5
122d
8
0
10
0.464030
20
1.397215
30
0.000000
0
VERTEX
5
123d
8
0
10
0.504035
20
1.335598
30
0.000000
0
VERTEX
5
124d
8
0
10
0.545587
20
1.274911
30
0.000000
0
VERTEX
5
125d
8
0
10
0.588672
20
1.215182
30
0.000000
0
VERTEX
5
126d
8
0
10
0.633279
20
1.156444
30
0.000000
0
VERTEX
5
127d
8
0
10
0.679394
20
1.098726
30
0.000000
0
VERTEX
5
128d
8
0
10
0.727004
20
1.042061
30
0.000000
0
VERTEX
5
129d
8
0
10
0.776097
20
0.986477
30
0.000000
0
VERTEX
5
12ad
8
0
10
0.826659
20
0.932006
30
0.000000
0
VERTEX
5
12bd
8
0
10
0.878680
20
0.878680
30
0.000000
0
VERTEX
5
12cd
8
0
10
0.878680
20
0.878680
30
0.000000
0
VERTEX
5
12dd
8
0
10
0.932006
20
0.826659
30
0.000000
0
VERTEX
5
12ed
8
0
10
0.986477
20
0.776097
30
0.000000
0
VERTEX
5
12fd
8
0
10
1.042061
20
0.727004
30
0.000000
0
VERTEX
5
130d
8
0
10
1.098726
20
0.679394
30
0.000000
0
VERTEX
5
131d
8
0
10
1.156444
20
0.633279
30
0.000000
0
VERTEX
5
132d
8
0
10
1.215182
20
0.588672
30
0.000000
0
VERTEX
5
133d
8
0
10
1.274911
20
0.545587
30
0.000000
0
VERTEX
5
134d
8
0
10
1.335598
20
0.504035
30
0.000000
0
VERTEX
5
135d
8
0
10
1.397215
20
0.464030
30
0.000000
0
VERTEX
5
136d
8
0
10
1.459729
20
0.425584
30
0.000000
0
VERTEX
5
137d
8
0
10
1.523111
20
0.388709
30
0.000000
0
VERTEX
5
138d
8
0
10
1.587329
20
0.353420
30
0.000000
0
VERTEX
5
139d
8
0
10
1.652352
20
0.319727
30
0.000000
0
VERTEX
5
13ad
8
0
10
1.718151
20
0.287645
30
0.000000
0
VERTEX
5
13bd
8
0
10
1.784693
20
0.257185
30
0.000000
0
VERTEX
5
13cd
8
0
10
1.851950
20
0.228361
30
0.000000
0
VERTEX
5
13dd
8
0
10
1.919889
20
0.201186
30
0.000000
0
VERTEX
5
13ed
8
0
10
1.988480
20
0.175671
30
0.000000
0
VERTEX
5
13fd
8
0
10
2.057692
20
0.151830
30
0.000000
0
VERTEX
5
140d
8
0
10
2.127495
20
0.129676
30
0.000000
0
VERTEX
5
141d
8
0
10
2.197857
20
0.109220
30
0.000000
0
VERTEX
5
142d
8
0
10
2.268749
20
0.090477
30
0.000000
0
VERTEX
5
143d
8
0
10
2.340139
20
0.073458
30
0.000000
0
VERTEX
5
144d
8
0
10
2.411996
20
0.058177
30
0.000000
0
VERTEX
5
145d
8
0
10
2.484290
20
0.044646
30
0.000000
0
VERTEX
5
146d
8
0
10
2.556991
20
0.032877
30
0.000000
0
VERTEX
5
147d
8
0
10
2.630066
20
0.022884
30
0.000000
0
VERTEX
5
148d
8
0
10
2.703487
20
0.014680
30
0.000000
0
VERTEX
5
149d
8
0
10
2.777221
20
0.008277
30
0.000000
0
VERTEX
5
14ad
8
0
10
2.851239
20
0.003687
30
0.000000
0
VERTEX
5
14bd
8
0
10
2.925508
20
0.000924
30
0.000000
0
VERTEX
5
14cd
8
0
10
3.000000
20
0.000000
30
0.000000
0
SEQEND
5
14dd
8
0
0
POLYLINE
5
14ed
8
0
66
1
10
0
20
0
30
0
0
VERTEX
5
14fd
8
0
10
24.133482
20
49.135992
30
0.000000
0
VERTEX
5
150d
8
0
10
24.133482
20
49.135992
30
0.000000
0
VERTEX
5
151d
8
0
10
24.085966
20
49.074351
30
0.000000
0
VERTEX
5
152d
8
0
10
24.036026
20
49.014992
30
0.000000
0
VERTEX
5
153d
8
0
10
23.983763
20
48.957813
30
0.000000
0
VERTEX
5
154d
8
0
10
23.929281
20
48.902709
30
0.000000
0
VERTEX
5
155d
8
0
10
23.872681
20
48.849577
30
0.000000
0
VERTEX
5
156d
8
0
10
23.814066
20
48.798313
30
0.000000
0
VERTEX
5
157d
8
0
10
23.753537
20
48.748813
30
0.000000
0
VERTEX
5
158d
8
0
10
23.691197
20
48.700974
30
0.000000
0
VERTEX
5
159d
8
0
10
23.627149
20
48.654692
30
0.000000
0
VERTEX
5
15ad
8
0
10
23.561494
20
48.609863
30
0.000000
0
VERTEX
5
15bd
8
0
10
23.494335
20
48.566383
30
0.000000
0
VERTEX
5
15cd
8
0
10
23.425773
20
48.524149
30
0.000000
0
VERTEX
5
15dd
8
0
10
23.355913
20
48.483057
30
0.000000
0
VERTEX
5
15ed
8
0
10
23.284854
20
48.443003
30
0.000000
0
VERTEX
5
15fd
8
0
10
23.139553
20
48.365596
30
0.000000
0
VERTEX
5
160d
8
0
10
22.990689
20
48.291097
30
0.000000
0
VERTEX
5
161d
8
0
10
22.839080
20
48.218677
30
0.000000
0
VERTEX
5
162d
8
0
10
22.530897
20
48.076755
30
0.000000
0
VERTEX
5
163d
8
0
10
22.375960
20
48.005593
30
0.000000
0
VERTEX
5
164d
8
0
10
22.221548
20
47.933192
30
0.000000
0
VERTEX
5
165d
8
0
10
22.068481
20
47.858721
30
0.000000
0
VERTEX
5
166d
8
0
10
21.917576
20
47.781350
30
0.000000
0
VERTEX
5
167d
8
0
10
21.769651
20
47.700251
30
0.000000
0
VERTEX
5
168d
8
0
10
21.697062
20
47.658044
30
0.000000
0
VERTEX
5
169d
8
0
10
21.625524
20
47.614593
30
0.000000
0
VERTEX
5
16ad
8
0
10
21.555141
20
47.569795
30
0.000000
0
VERTEX
5
16bd
8
0
10
21.486014
20
47.523547
30
0.000000
0
VERTEX
5
16cd
8
0
10
21.418245
20
47.475743
30
0.000000
0
VERTEX
5
16dd
8
0
10
21.351937
20
47.426282
30
0.000000
0
VERTEX
5
16ed
8
0
10
21.287191
20
47.375058
30
0.000000
0
VERTEX
5
16fd
8
0
10
21.224111
20
47.321969
30
0.000000
0
VERTEX
5
170d
8
0
10
21.162799
20
47.266911
30
0.000000
0
VERTEX
5
171d
8
0
10
21.103356
20
47.209779
30
0.000000
0
VERTEX
5
172d
8
0
10
21.045885
20
47.150471
30
0.000000
0
VERTEX
5
173d
8
0
10
20.990488
20
47.088882
30
0.000000
0
VERTEX
5
174d
8
0
10
20.937268
20
47.024909
30
0.000000
0
VERTEX
5
175d
8
0
10
20.886326
20
46.958448
30
0.000000
0
VERTEX
5
176d
8
0
10
20.837765
20
46.889395
30
0.000000
0
VERTEX
5
177d
8
0
10
20.791687
20
46.817647
30
0.000000
0
VERTEX
5
178d
8
0
10
20.748195
20
46.743099
30
0.000000
0
VERTEX
5
179d
8
0
10
20.707390
20
46.665649
30
0.000000
0
VERTEX
5
17ad
8
0
10
20.669375
20
46.585193
30
0.000000
0
VERTEX
5
17bd
8
0
10
20.634252
20
46.501626
30
0.000000
0
VERTEX
5
17cd
8
0
10
20.602123
20
46.414845
30
0.000000
0
VERTEX
5
17dd
8
0
10
20.573091
20
46.324747
30
0.000000
0
VERTEX
5
17ed
8
0
10
20.547257
20
46.231227
30
0.000000
0
VERTEX
5
17fd
8
0
10
20.524725
20
46.134182
30
0.000000
0
VERTEX
5
180d
8
0
10
20.505596
20
46.033508
30
0.000000
0
VERTEX
5
181d
8
0
10
20.489973
20
45.929102
30
0.000000
0
VERTEX
5
182d
8
0
10
20.477957
20
45.820860
30
0.000000
0
VERTEX
5
183d
8
0
10
20.469651
20
45.708677
30
0.000000
0
VERTEX
5
184d
8
0
10
20.465157
20
45.592451
30
0.000000
0
VERTEX
5
185d
8
0
10
20.464578
20
45.472078
30
0.000000
0
VERTEX
5
186d
8
0
10
20.464578
20
45.472078
30
0.000000
0
VERTEX
5
187d
8
0
10
20.418609
20
45.517404
30
0.000000
0
VERTEX
5
188d
8
0
10
20.377510
20
45.565517
30
0.000000
0
VERTEX
5
189d
8
0
10
20.340952
20
45.616369
30
0.000000
0
VERTEX
5
18ad
8
0
10
20.308606
20
45.669915
30
0.000000
0
VERTEX
5
18bd
8
0
10
20.280145
20
45.726111
30
0.000000
0
VERTEX
5
18cd
8
0
10
20.255239
20
45.784911
30
0.000000
0
VERTEX
5
18dd
8
0
10
20.233559
20
45.846268
30
0.000000
0
VERTEX
5
18ed
8
0
10
20.214777
20
45.910138
30
0.000000
0
VERTEX
5
18fd
8
0
10
20.198565
20
45.976475
30
0.000000
0
VERTEX
5
190d
8
0
10
20.184593
20
46.045234
30
0.000000
0
VERTEX
5
191d
8
0
10
20.172533
20
46.116369
30
0.000000
0
VERTEX
5
192d
8
0
10
20.162056
20
46.189834
30
0.000000
0
VERTEX
5
193d
8
0
10
20.144537
20
46.343574
30
0.000000
0
VERTEX
5
194d
8
0
10
20.129408
20
46.506090
30
0.000000
0
VERTEX
5
195d
8
0
10
20.129408
20
46.506090
30
0.000000
0
VERTEX
5
196d
8
0
10
20.041527
20
46.484064
30
0.000000
0
VERTEX
5
197d
8
0
10
19.959280
20
46.458939
30
0.000000
0
VERTEX
5
198d
8
0
10
19.882494
20
46.430810
30
0.000000
0
VERTEX
5
199d
8
0
10
19.810999
20
46.399773
30
0.000000
0
VERTEX
5
19ad
8
0
10
19.744625
20
46.365923
30
0.000000
0
VERTEX
5
19bd
8
0
10
19.683201
20
46.329357
30
0.000000
0
VERTEX
5
19cd
8
0
10
19.626555
20
46.290170
30
0.000000
0
VERTEX
5
19dd
8
0
10
19.574517
20
46.248458
30
0.000000
0
VERTEX
5
19ed
8
0
10
19.526916
20
46.204317
30
0.000000
0
VERTEX
5
19fd
8
0
10
19.483582
20
46.157842
30
0.000000
0
VERTEX
5
1a0d
8
0
10
19.444343
20
46.109130
30
0.000000
0
VERTEX
5
1a1d
8
0
10
19.409028
20
46.058275
30
0.000000
0
VERTEX
5
1a2d
8
0
10
19.377467
20
46.005375
30
0.000000
0
VERTEX
5
1a3d
8
0
10
19.349489
20
45.950523
30
0.000000
0
VERTEX
5
1a4d
8
0
10
19.324923
20
45.893817
30
0.000000
0
VERTEX
5
1a5d
8
0
10
19.303599
20
45.835352
30
0.000000
0
VERTEX
5
1a6d
8
0
10
19.285344
20
45.775224
30
0.000000
0
VERTEX
5
1a7d
8
0
10
19.269990
20
45.713529
30
0.000000
0
VERTEX
5
1a8d
8
0
10
19.257364
20
45.650361
30
0.000000
0
VERTEX
5
1a9d
8
0
10
19.247296
20
45.585818
30
0.000000
0
VERTEX
5
1aad
8
0
10
19.239615
20
45.519994
30
0.000000
0
VERTEX
5
1abd
8
0
10
19.234150
20
45.452986
30
0.000000
0
VERTEX
5
1acd
8
0
10
19.230731
20
45.384890
30
0.000000
0
VERTEX
5
1add
8
0
10
19.229187
20
45.315800
30
0.000000
0
VERTEX
5
1aed
8
0
10
19.229346
20
45.245813
30
0.000000
0
VERTEX
5
1afd
8
0
10
19.231038
20
45.175025
30
0.000000
0
VERTEX
5
1b0d
8
0
10
19.238338
20
45.031428
30
0.000000
0
VERTEX
5
1b1d
8
0
10
19.249719
20
44.885774
30
0.000000
0
VERTEX
5
1b2d
8
0
10
19.263816
20
44.738829
30
0.000000
0
VERTEX
5
1b3d
8
0
10
18.134449
20
44.042169
30
0.000000
0
VERTEX
5
1b4d
8
0
10
19.446405
20
43.279146
30
0.000000
0
VERTEX
5
1b5d
8
0
10
18.985811
20
41.879651
30
0.000000
0
VERTEX
5
1b6d
8
0
10
20.263093
20
42.535420
30
0.000000
0
VERTEX
5
1b7d
8
0
10
19.475177
20
44.573001
30
0.000000
0
VERTEX
5
1b8d
8
0
10
21.141721
20
43.964680
30
0.000000
0
VERTEX
5
1b9d
8
0
10
20.038531
20
43.696068
30
0.000000
0
VERTEX
5
1bad
8
0
10
20.038531
20
43.696068
30
0.000000
0
VERTEX
5
1bbd
8
0
10
20.191143
20
43.599897
30
0.000000
0
VERTEX
5
1bcd
8
0
10
20.343377
20
43.510054
30
0.000000
0
VERTEX
5
1bdd
8
0
10
20.495241
20
43.426395
30
0.000000
0
VERTEX
5
1bed
8
0
10
20.646745
20
43.348776
30
0.000000
0
VERTEX
5
1bfd
8
0
10
20.797899
20
43.277055
30
0.000000
0
VERTEX
5
1c0d
8
0
10
20.948711
20
43.211087
30
0.000000
0
VERTEX
5
1c1d
8
0
10
21.099190
20
43.150730
30
0.000000
0
VERTEX
5
1c2d
8
0
10
21.249347
20
43.095839
30
0.000000
0
VERTEX
5
1c3d
8
0
10
21.399189
20
43.046273
30
0.000000
0
VERTEX
5
1c4d
8
0
10
21.548726
20
43.001886
30
0.000000
0
VERTEX
5
1c5d
8
0
10
21.697968
20
42.962536
30
0.000000
0
VERTEX
5
1c6d
8
0
10
21.846923
20
42.928079
30
0.000000
0
VERTEX
5
1c7d
8
0
10
21.995602
20
42.898372
30
0.000000
0
VERTEX
5
1c8d
8
0
10
22.144012
20
42.873272
30
0.000000
0
VERTEX
5
1c9d
8
0
10
22.292163
20
42.852634
30
0.000000
0
VERTEX
5
1cad
8
0
10
22.440064
20
42.836316
30
0.000000
0
VERTEX
5
1cbd
8
0
10
22.587725
20
42.824175
30
0.000000
0
VERTEX
5
1ccd
8
0
10
22.735155
20
42.816066
30
0.000000
0
VERTEX
5
1cdd
8
0
10
22.882362
20
42.811846
30
0.000000
0
VERTEX
5
1ced
8
0
10
23.029357
20
42.811373
30
0.000000
0
VERTEX
5
1cfd
8
0
10
23.176148
20
42.814502
30
0.000000
0
VERTEX
5
1d0d
8
0
10
23.322745
20
42.821090
30
0.000000
0
VERTEX
5
1d1d
8
0
10
23.469156
20
42.830994
30
0.000000
0
VERTEX
5
1d2d
8
0
10
23.615391
20
42.844070
30
0.000000
0
VERTEX
5
1d3d
8
0
10
23.761459
20
42.860175
30
0.000000
0
VERTEX
5
1d4d
8
0
10
23.907370
20
42.879166
30
0.000000
0
VERTEX
5
1d5d
8
0
10
24.053132
20
42.900898
30
0.000000
0
VERTEX
5
1d6d
8
0
10
24.198755
20
42.925230
30
0.000000
0
VERTEX
5
1d7d
8
0
10
24.344247
20
42.952016
30
0.000000
0
VERTEX
5
1d8d
8
0
10
24.489619
20
42.981115
30
0.000000
0
VERTEX
5
1d9d
8
0
10
24.634879
20
43.012382
30
0.000000
0
VERTEX
5
1dad
8
0
10
24.780036
20
43.045673
30
0.000000
0
VERTEX
5
1dbd
8
0
10
24.925100
20
43.080847
30
0.000000
0
VERTEX
5
1dcd
8
0
10
25.070080
20
43.117758
30
0.000000
0
VERTEX
5
1ddd
8
0
10
25.359823
20
43.196223
30
0.000000
0
VERTEX
5
1ded
8
0
10
25.649341
20
43.279918
30
0.000000
0
VERTEX
5
1dfd
8
0
10
25.938706
20
43.367699
30
0.000000
0
VERTEX
5
1e0d
8
0
10
26.227992
20
43.458416
30
0.000000
0
VERTEX
5
1e1d
8
0
10
26.517272
20
43.550923
30
0.000000
0
VERTEX
5
1e2d
8
0
10
27.096109
20
43.736718
30
0.000000
0
VERTEX
5
1e3d
8
0
10
27.385814
20
43.827711
30
0.000000
0
VERTEX
5
1e4d
8
0
10
27.675807
20
43.915904
30
0.000000
0
VERTEX
5
1e5d
8
0
10
27.966163
20
44.000151
30
0.000000
0
VERTEX
5
1e6d
8
0
10
28.256954
20
44.079304
30
0.000000
0
VERTEX
5
1e7d
8
0
10
28.402536
20
44.116611
30
0.000000
0
VERTEX
5
1e8d
8
0
10
28.548255
20
44.152215
30
0.000000
0
VERTEX
5
1e9d
8
0
10
28.694119
20
44.185972
30
0.000000
0
VERTEX
5
1ead
8
0
10
28.840138
20
44.217738
30
0.000000
0
VERTEX
5
1ebd
8
0
10
28.986321
20
44.247370
30
0.000000
0
VERTEX
5
1ecd
8
0
10
29.132678
20
44.274725
30
0.000000
0
VERTEX
5
1edd
8
0
10
29.279217
20
44.299659
30
0.000000
0
VERTEX
5
1eed
8
0
10
29.425948
20
44.322028
30
0.000000
0
VERTEX
5
1efd
8
0
10
29.425948
20
44.322028
30
0.000000
0
VERTEX
5
1f0d
8
0
10
29.051239
20
44.156836
30
0.000000
0
VERTEX
5
1f1d
8
0
10
28.675791
20
43.993170
30
0.000000
0
VERTEX
5
1f2d
8
0
10
28.300110
20
43.829692
30
0.000000
0
VERTEX
5
1f3d
8
0
10
27.924702
20
43.665065
30
0.000000
0
VERTEX
5
1f4d
8
0
10
27.550074
20
43.497950
30
0.000000
0
VERTEX
5
1f5d
8
0
10
27.176731
20
43.327009
30
0.000000
0
VERTEX
5
1f6d
8
0
10
26.990700
20
43.239686
30
0.000000
0
VERTEX
5
1f7d
8
0
10
26.805180
20
43.150905
30
0.000000
0
VERTEX
5
1f8d
8
0
10
26.620234
20
43.060498
30
0.000000
0
VERTEX
5
1f9d
8
0
10
26.435925
20
42.968298
30
0.000000
0
VERTEX
5
1fad
8
0
10
26.252317
20
42.874139
30
0.000000
0
VERTEX
5
1fbd
8
0
10
26.069474
20
42.777852
30
0.000000
0
VERTEX
5
1fcd
8
0
10
25.887457
20
42.679271
30
0.000000
0
VERTEX
5
1fdd
8
0
10
25.706331
20
42.578229
30
0.000000
0
VERTEX
5
1fed
8
0
10
25.526159
20
42.474557
30
0.000000
0
VERTEX
5
1ffd
8
0
10
25.347004
20
42.368089
30
0.000000
0
VERTEX
5
200d
8
0
10
25.168929
20
42.258658
30
0.000000
0
VERTEX
5
201d
8
0
10
24.991998
20
42.146096
30
0.000000
0
VERTEX
5
202d
8
0
10
24.816273
20
42.030236
30
0.000000
0
VERTEX
5
203d
8
0
10
24.641819
20
41.910911
30
0.000000
0
VERTEX
5
204d
8
0
10
24.468697
20
41.787954
30
0.000000
0
VERTEX
5
205d
8
0
10
24.296972
20
41.661197
30
0.000000
0
VERTEX
5
206d
8
0
10
24.126707
20
41.530473
30
0.000000
0
VERTEX
5
207d
8
0
10
23.957965
20
41.395615
30
0.000000
0
VERTEX
5
208d
8
0
10
23.790809
20
41.256455
30
0.000000
0
VERTEX
5
209d
8
0
10
23.625303
20
41.112827
30
0.000000
0
VERTEX
5
20ad
8
0
10
23.625303
20
41.112827
30
0.000000
0
VERTEX
5
20bd
8
0
10
23.796871
20
41.127017
30
0.000000
0
VERTEX
5
20cd
8
0
10
23.967933
20
41.138148
30
0.000000
0
VERTEX
5
20dd
8
0
10
24.138304
20
41.145475
30
0.000000
0
VERTEX
5
20ed
8
0
10
24.307798
20
41.148248
30
0.000000
0
VERTEX
5
20fd
8
0
10
24.476230
20
41.145721
30
0.000000
0
VERTEX
5
210d
8
0
10
24.559989
20
41.142236
30
0.000000
0
VERTEX
5
211d
8
0
10
24.643414
20
41.137146
30
0.000000
0
VERTEX
5
212d
8
0
10
24.726480
20
41.130357
30
0.000000
0
VERTEX
5
213d
8
0
10
24.809164
20
41.121777
30
0.000000
0
VERTEX
5
214d
8
0
10
24.891444
20
41.111311
30
0.000000
0
VERTEX
5
215d
8
0
10
24.973296
20
41.098865
30
0.000000
0
VERTEX
5
216d
8
0
10
25.054697
20
41.084348
30
0.000000
0
VERTEX
5
217d
8
0
10
25.135623
20
41.067665
30
0.000000
0
VERTEX
5
218d
8
0
10
25.216053
20
41.048722
30
0.000000
0
VERTEX
5
219d
8
0
10
25.295961
20
41.027427
30
0.000000
0
VERTEX
5
21ad
8
0
10
25.375326
20
41.003686
30
0.000000
0
VERTEX
5
21bd
8
0
10
25.454124
20
40.977406
30
0.000000
0
VERTEX
5
21cd
8
0
10
25.532331
20
40.948492
30
0.000000
0
VERTEX
5
21dd
8
0
10
25.609925
20
40.916853
30
0.000000
0
VERTEX
5
21ed
8
0
10
25.686883
20
40.882394
30
0.000000
0
VERTEX
5
21fd
8
0
10
25.763181
20
40.845022
30
0.000000
0
VERTEX
5
220d
8
0
10
25.838796
20
40.804643
30
0.000000
0
VERTEX
5
221d
8
0
10
25.913705
20
40.761165
30
0.000000
0
VERTEX
5
222d
8
0
10
25.987884
20
40.714493
30
0.000000
0
VERTEX
5
223d
8
0
10
26.061312
20
40.664534
30
0.000000
0
VERTEX
5
224d
8
0
10
26.133963
20
40.611196
30
0.000000
0
VERTEX
5
225d
8
0
10
26.205816
20
40.554384
30
0.000000
0
VERTEX
5
226d
8
0
10
26.205816
20
40.554384
30
0.000000
0
VERTEX
5
227d
8
0
10
26.262605
20
40.497322
30
0.000000
0
VERTEX
5
228d
8
0
10
26.317413
20
40.440011
30
0.000000
0
VERTEX
5
229d
8
0
10
26.370258
20
40.382451
30
0.000000
0
VERTEX
5
22ad
8
0
10
26.421161
20
40.324643
30
0.000000
0
VERTEX
5
22bd
8
0
10
26.470141
20
40.266586
30
0.000000
0
VERTEX
5
22cd
8
0
10
26.517217
20
40.208282
30
0.000000
0
VERTEX
5
22dd
8
0
10
26.562409
20
40.149731
30
0.000000
0
VERTEX
5
22ed
8
0
10
26.605736
20
40.090933
30
0.000000
0
VERTEX
5
22fd
8
0
10
26.647218
20
40.031889
30
0.000000
0
VERTEX
5
230d
8
0
10
26.686875
20
39.972600
30
0.000000
0
VERTEX
5
231d
8
0
10
26.724726
20
39.913066
30
0.000000
0
VERTEX
5
232d
8
0
10
26.760790
20
39.853287
30
0.000000
0
VERTEX
5
233d
8
0
10
26.795087
20
39.793263
30
0.000000
0
VERTEX
5
234d
8
0
10
26.827637
20
39.732997
30
0.000000
0
VERTEX
5
235d
8
0
10
26.858459
20
39.672487
30
0.000000
0
VERTEX
5
236d
8
0
10
26.887572
20
39.611734
30
0.000000
0
VERTEX
5
237d
8
0
10
26.914996
20
39.550740
30
0.000000
0
VERTEX
5
238d
8
0
10
26.940751
20
39.489504
30
0.000000
0
VERTEX
5
239d
8
0
10
26.964857
20
39.428026
30
0.000000
0
VERTEX
5
23ad
8
0
10
26.987332
20
39.366308
30
0.000000
0
VERTEX
5
23bd
8
0
10
27.008196
20
39.304350
30
0.000000
0
VERTEX
5
23cd
8
0
10
27.027468
20
39.242152
30
0.000000
0
VERTEX
5
23dd
8
0
10
27.045169
20
39.179715
30
0.000000
0
VERTEX
5
23ed
8
0
10
27.061318
20
39.117039
30
0.000000
0
VERTEX
5
23fd
8
0
10
27.075934
20
39.054125
30
0.000000
0
VERTEX
5
240d
8
0
10
27.089036
20
38.990973
30
0.000000
0
VERTEX
5
241d
8
0
10
27.110780
20
38.863959
30
0.000000
0
VERTEX
5
242d
8
0
10
27.126705
20
38.735999
30
0.000000
0
VERTEX
5
243d
8
0
10
27.136967
20
38.607098
30
0.000000
0
VERTEX
5
244d
8
0
10
27.141723
20
38.477260
30
0.000000
0
VERTEX
5
245d
8
0
10
27.141128
20
38.346489
30
0.000000
0
VERTEX
5
246d
8
0
10
27.135340
20
38.214789
30
0.000000
0
VERTEX
5
247d
8
0
10
27.124513
20
38.082163
30
0.000000
0
VERTEX
5
248d
8
0
10
27.108805
20
37.948616
30
0.000000
0
VERTEX
5
249d
8
0
10
27.088371
20
37.814151
30
0.000000
0
VERTEX
5
24ad
8
0
10
27.063368
20
37.678773
30
0.000000
0
VERTEX
5
24bd
8
0
10
27.033951
20
37.542485
30
0.000000
0
VERTEX
5
24cd
8
0
10
27.000277
20
37.405292
30
0.000000
0
VERTEX
5
24dd
8
0
10
26.962502
20
37.267196
30
0.000000
0
VERTEX
5
24ed
8
0
10
26.920782
20
37.128203
30
0.000000
0
VERTEX
5
24fd
8
0
10
26.875274
20
36.988316
30
0.000000
0
VERTEX
5
250d
8
0
10
26.826132
20
36.847539
30
0.000000
0
VERTEX
5
251d
8
0
10
26.773515
20
36.705875
30
0.000000
0
VERTEX
5
252d
8
0
10
26.717577
20
36.563330
30
0.000000
0
VERTEX
5
253d
8
0
10
26.658475
20
36.419906
30
0.000000
0
VERTEX
5
254d
8
0
10
26.658475
20
36.419906
30
0.000000
0
VERTEX
5
255d
8
0
10
26.508304
20
36.338419
30
0.000000
0
VERTEX
5
256d
8
0
10
26.360895
20
36.261382
30
0.000000
0
VERTEX
5
257d
8
0
10
26.216235
20
36.188776
30
0.000000
0
VERTEX
5
258d
8
0
10
26.074309
20
36.120580
30
0.000000
0
VERTEX
5
259d
8
0
10
25.935102
20
36.056776
30
0.000000
0
VERTEX
5
25ad
8
0
10
25.798599
20
35.997344
30
0.000000
0
VERTEX
5
25bd
8
0
10
25.664786
20
35.942263
30
0.000000
0
VERTEX
5
25cd
8
0
10
25.533649
20
35.891515
30
0.000000
0
VERTEX
5
25dd
8
0
10
25.405173
20
35.845080
30
0.000000
0
VERTEX
5
25ed
8
0
10
25.279342
20
35.802938
30
0.000000
0
VERTEX
5
25fd
8
0
10
25.156144
20
35.765069
30
0.000000
0
VERTEX
5
260d
8
0
10
25.035562
20
35.731454
30
0.000000
0
VERTEX
5
261d
8
0
10
24.917582
20
35.702074
30
0.000000
0
VERTEX
5
262d
8
0
10
24.802191
20
35.676908
30
0.000000
0
VERTEX
5
263d
8
0
10
24.689372
20
35.655937
30
0.000000
0
VERTEX
5
264d
8
0
10
24.579112
20
35.639141
30
0.000000
0
VERTEX
5
265d
8
0
10
24.471396
20
35.626501
30
0.000000
0
VERTEX
5
266d
8
0
10
24.366210
20
35.617998
30
0.000000
0
VERTEX
5
267d
8
0
10
24.263538
20
35.613610
30
0.000000
0
VERTEX
5
268d
8
0
10
24.163366
20
35.613320
30
0.000000
0
VERTEX
5
269d
8
0
10
24.065680
20
35.617107
30
0.000000
0
VERTEX
5
26ad
8
0
10
23.970465
20
35.624951
30
0.000000
0
VERTEX
5
26bd
8
0
10
23.877706
20
35.636834
30
0.000000
0
VERTEX
5
26cd
8
0
10
23.787389
20
35.652735
30
0.000000
0
VERTEX
5
26dd
8
0
10
23.699499
20
35.672634
30
0.000000
0
VERTEX
5
26ed
8
0
10
23.614022
20
35.696513
30
0.000000
0
VERTEX
5
26fd
8
0
10
23.530942
20
35.724351
30
0.000000
0
VERTEX
5
270d
8
0
10
23.450246
20
35.756129
30
0.000000
0
VERTEX
5
271d
8
0
10
23.371919
20
35.791827
30
0.000000
0
VERTEX
5
272d
8
0
10
23.295946
20
35.831426
30
0.000000
0
VERTEX
5
273d
8
0
10
23.222313
20
35.874906
30
0.000000
0
VERTEX
5
274d
8
0
10
23.151004
20
35.922247
30
0.000000
0
VERTEX
5
275d
8
0
10
23.082006
20
35.973430
30
0.000000
0
VERTEX
5
276d
8
0
10
23.015303
20
36.028434
30
0.000000
0
VERTEX
5
277d
8
0
10
22.950882
20
36.087242
30
0.000000
0
VERTEX
5
278d
8
0
10
22.888727
20
36.149832
30
0.000000
0
VERTEX
5
279d
8
0
10
22.828825
20
36.216185
30
0.000000
0
VERTEX
5
27ad
8
0
10
22.771159
20
36.286282
30
0.000000
0
VERTEX
5
27bd
8
0
10
22.715717
20
36.360103
30
0.000000
0
VERTEX
5
27cd
8
0
10
22.662482
20
36.437628
30
0.000000
0
VERTEX
5
27dd
8
0
10
22.611441
20
36.518838
30
0.000000
0
VERTEX
5
27ed
8
0
10
22.562579
20
36.603713
30
0.000000
0
VERTEX
5
27fd
8
0
10
22.515881
20
36.692233
30
0.000000
0
VERTEX
5
280d
8
0
10
22.471334
20
36.784379
30
0.000000
0
VERTEX
5
281d
8
0
10
22.428921
20
36.880132
30
0.000000
0
VERTEX
5
282d
8
0
10
22.388629
20
36.979471
30
0.000000
0
VERTEX
5
283d
8
0
10
22.350442
20
37.082376
30
0.000000
0
VERTEX
5
284d
8
0
10
22.314348
20
37.188829
30
0.000000
0
VERTEX
5
285d
8
0
10
22.280329
20
37.298810
30
0.000000
0
VERTEX
5
286d
8
0
10
22.248373
20
37.412299
30
0.000000
0
VERTEX
5
287d
8
0
10
22.218465
20
37.529276
30
0.000000
0
VERTEX
5
288d
8
0
10
22.190590
20
37.649722
30
0.000000
0
VERTEX
5
289d
8
0
10
22.164732
20
37.773617
30
0.000000
0
VERTEX
5
28ad
8
0
10
22.140879
20
37.900942
30
0.000000
0
VERTEX
5
28bd
8
0
10
22.119015
20
38.031677
30
0.000000
0
VERTEX
5
28cd
8
0
10
22.099125
20
38.165802
30
0.000000
0
VERTEX
5
28dd
8
0
10
22.081196
20
38.303297
30
0.000000
0
VERTEX
5
28ed
8
0
10
22.065211
20
38.444144
30
0.000000
0
VERTEX
5
28fd
8
0
10
22.051158
20
38.588322
30
0.000000
0
VERTEX
5
290d
8
0
10
22.039020
20
38.735812
30
0.000000
0
VERTEX
5
291d
8
0
10
22.028784
20
38.886593
30
0.000000
0
VERTEX
5
292d
8
0
10
22.020435
20
39.040648
30
0.000000
0
VERTEX
5
293d
8
0
10
22.013959
20
39.197955
30
0.000000
0
VERTEX
5
294d
8
0
10
22.009340
20
39.358496
30
0.000000
0
VERTEX
5
295d
8
0
10
22.009340
20
39.358496
30
0.000000
0
VERTEX
5
296d
8
0
10
21.892316
20
38.942849
30
0.000000
0
VERTEX
5
297d
8
0
10
21.778755
20
38.526176
30
0.000000
0
VERTEX
5
298d
8
0
10
21.668454
20
38.108532
30
0.000000
0
VERTEX
5
299d
8
0
10
21.561207
20
37.689970
30
0.000000
0
VERTEX
5
29ad
8
0
10
21.456809
20
37.270544
30
0.000000
0
VERTEX
5
29bd
8
0
10
21.355057
20
36.850308
30
0.000000
0
VERTEX
5
29cd
8
0
10
21.255744
20
36.429317
30
0.000000
0
VERTEX
5
29dd
8
0
10
21.158667
20
36.007624
30
0.000000
0
VERTEX
5
29ed
8
0
10
21.063621
20
35.585284
30
0.000000
0
VERTEX
5
29fd
8
0
10
20.970401
20
35.162350
30
0.000000
0
VERTEX
5
2a0d
8
0
10
20.878802
20
34.738877
30
0.000000
0
VERTEX
5
2a1d
8
0
10
20.788619
20
34.314919
30
0.000000
0
VERTEX
5
2a2d
8
0
10
20.611685
20
33.465761
30
0.000000
0
VERTEX
5
2a3d
8
0
10
20.437961
20
32.615311
30
0.000000
0
VERTEX
5
2a4d
8
0
10
20.093591
20
30.912262
30
0.000000
0
VERTEX
5
2a5d
8
0
10
19.919669
20
30.060527
30
0.000000
0
VERTEX
5
2a6d
8
0
10
19.742406
20
29.209228
30
0.000000
0
VERTEX
5
2a7d
8
0
10
19.652010
20
28.783878
30
0.000000
0
VERTEX
5
2a8d
8
0
10
19.560165
20
28.358799
30
0.000000
0
VERTEX
5
2a9d
8
0
10
19.466665
20
27.934045
30
0.000000
0
VERTEX
5
2aad
8
0
10
19.371306
20
27.509670
30
0.000000
0
VERTEX
5
2abd
8
0
10
19.273884
20
27.085729
30
0.000000
0
VERTEX
5
2acd
8
0
10
19.174193
20
26.662275
30
0.000000
0
VERTEX
5
2add
8
0
10
19.072029
20
26.239363
30
0.000000
0
VERTEX
5
2aed
8
0
10
18.967188
20
25.817047
30
0.000000
0
VERTEX
5
2afd
8
0
10
18.926552
20
25.429487
30
0.000000
0
VERTEX
5
2b0d
8
0
10
18.926552
20
25.429487
30
0.000000
0
VERTEX
5
2b1d
8
0
10
18.903271
20
25.717972
30
0.000000
0
VERTEX
5
2b2d
8
0
10
18.885771
20
26.005718
30
0.000000
0
VERTEX
5
2b3d
8
0
10
18.873896
20
26.292741
30
0.000000
0
VERTEX
5
2b4d
8
0
10
18.867488
20
26.579060
30
0.000000
0
VERTEX
5
2b5d
8
0
10
18.866391
20
26.864692
30
0.000000
0
VERTEX
5
2b6d
8
0
10
18.870446
20
27.149656
30
0.000000
0
VERTEX
5
2b7d
8
0
10
18.879498
20
27.433969
30
0.000000
0
VERTEX
5
2b8d
8
0
10
18.893389
20
27.717649
30
0.000000
0
VERTEX
5
2b9d
8
0
10
18.911962
20
28.000714
30
0.000000
0
VERTEX
5
2bad
8
0
10
18.935059
20
28.283182
30
0.000000
0
VERTEX
5
2bbd
8
0
10
18.962524
20
28.565071
30
0.000000
0
VERTEX
5
2bcd
8
0
10
18.994200
20
28.846399
30
0.000000
0
VERTEX
5
2bdd
8
0
10
19.029929
20
29.127184
30
0.000000
0
VERTEX
5
2bed
8
0
10
19.069554
20
29.407443
30
0.000000
0
VERTEX
5
2bfd
8
0
10
19.112919
20
29.687195
30
0.000000
0
VERTEX
5
2c0d
8
0
10
19.159865
20
29.966457
30
0.000000
0
VERTEX
5
2c1d
8
0
10
19.210237
20
30.245248
30
0.000000
0
VERTEX
5
2c2d
8
0
10
19.263876
20
30.523585
30
0.000000
0
VERTEX
5
2c3d
8
0
10
19.320626
20
30.801485
30
0.000000
0
VERTEX
5
2c4d
8
0
10
19.380330
20
31.078968
30
0.000000
0
VERTEX
5
2c5d
8
0
10
19.442831
20
31.356051
30
0.000000
0
VERTEX
5
2c6d
8
0
10
19.507970
20
31.632752
30
0.000000
0
VERTEX
5
2c7d
8
0
10
19.575592
20
31.909089
30
0.000000
0
VERTEX
5
2c8d
8
0
10
19.645539
20
32.185079
30
0.000000
0
VERTEX
5
2c9d
8
0
10
19.717655
20
32.460741
30
0.000000
0
VERTEX
5
2cad
8
0
10
19.791781
20
32.736092
30
0.000000
0
VERTEX
5
2cbd
8
0
10
19.867761
20
33.011151
30
0.000000
0
VERTEX
5
2ccd
8
0
10
19.945438
20
33.285935
30
0.000000
0
VERTEX
5
2cdd
8
0
10
20.105253
20
33.834750
30
0.000000
0
VERTEX
5
2ced
8
0
10
20.269970
20
34.382682
30
0.000000
0
VERTEX
5
2cfd
8
0
10
20.269970
20
34.382682
30
0.000000
0
VERTEX
5
2d0d
8
0
10
20.272041
20
34.668842
30
0.000000
0
VERTEX
5
2d1d
8
0
10
20.275848
20
34.954247
30
0.000000
0
VERTEX
5
2d2d
8
0
10
20.281883
20
35.238676
30
0.000000
0
VERTEX
5
2d3d
8
0
10
20.290637
20
35.521905
30
0.000000
0
VERTEX
5
2d4d
8
0
10
20.302601
20
35.803715
30
0.000000
0
VERTEX
5
2d5d
8
0
10
20.318265
20
36.083883
30
0.000000
0
VERTEX
5
2d6d
8
0
10
20.338122
20
36.362187
30
0.000000
0
VERTEX
5
2d7d
8
0
10
20.362661
20
36.638406
30
0.000000
0
VERTEX
5
2d8d
8
0
10
20.392374
20
36.912318
30
0.000000
0
VERTEX
5
2d9d
8
0
10
20.409324
20
37.048340
30
0.000000
0
VERTEX
5
2dad
8
0
10
20.427751
20
37.183702
30
0.000000
0
VERTEX
5
2dbd
8
0
10
20.447718
20
37.318376
30
0.000000
0
VERTEX
5
2dcd
8
0
10
20.469285
20
37.452335
30
0.000000
0
VERTEX
5
2ddd
8
0
10
20.492514
20
37.585551
30
0.000000
0
VERTEX
5
2ded
8
0
10
20.517466
20
37.717997
30
0.000000
0
VERTEX
5
2dfd
8
0
10
20.544202
20
37.849644
30
0.000000
0
VERTEX
5
2e0d
8
0
10
20.572785
20
37.980465
30
0.000000
0
VERTEX
5
2e1d
8
0
10
20.603274
20
38.110432
30
0.000000
0
VERTEX
5
2e2d
8
0
10
20.635732
20
38.239518
30
0.000000
0
VERTEX
5
2e3d
8
0
10
20.670220
20
38.367695
30
0.000000
0
VERTEX
5
2e4d
8
0
10
20.706800
20
38.494934
30
0.000000
0
VERTEX
5
2e5d
8
0
10
20.745532
20
38.621209
30
0.000000
0
VERTEX
5
2e6d
8
0
10
20.786478
20
38.746492
30
0.000000
0
VERTEX
5
2e7d
8
0
10
20.829700
20
38.870755
30
0.000000
0
VERTEX
5
2e8d
8
0
10
20.875259
20
38.993970
30
0.000000
0
VERTEX
5
2e9d
8
0
10
20.923216
20
39.116110
30
0.000000
0
VERTEX
5
2ead
8
0
10
20.973632
20
39.237146
30
0.000000
0
VERTEX
5
2ebd
8
0
10
21.026570
20
39.357052
30
0.000000
0
VERTEX
5
2ecd
8
0
10
21.082090
20
39.475799
30
0.000000
0
VERTEX
5
2edd
8
0
10
21.140254
20
39.593359
30
0.000000
0
VERTEX
5
2eed
8
0
10
21.201123
20
39.709706
30
0.000000
0
VERTEX
5
2efd
8
0
10
21.264758
20
39.824811
30
0.000000
0
VERTEX
5
2f0d
8
0
10
21.331222
20
39.938647
30
0.000000
0
VERTEX
5
2f1d
8
0
10
21.400574
20
40.051186
30
0.000000
0
VERTEX
5
2f2d
8
0
10
21.472878
20
40.162399
30
0.000000
0
VERTEX
5
2f3d
8
0
10
21.548193
20
40.272261
30
0.000000
0
VERTEX
5
2f4d
8
0
10
21.626582
20
40.380742
30
0.000000
0
VERTEX
5
2f5d
8
0
10
21.708105
20
40.487815
30
0.000000
0
VERTEX
5
2f6d
8
0
10
21.792825
20
40.593452
30
0.000000
0
VERTEX
5
2f7d
8
0
10
21.880802
20
40.697626
30
0.000000
0
VERTEX
5
2f8d
8
0
10
21.972099
20
40.800310
30
0.000000
0
VERTEX
5
2f9d
8
0
10
22.066775
20
40.901474
30
0.000000
0
VERTEX
5
2fad
8
0
10
22.164893
20
41.001092
30
0.000000
0
VERTEX
5
2fbd
8
0
10
22.266515
20
41.099135
30
0.000000
0
VERTEX
5
2fcd
8
0
10
22.371700
20
41.195577
30
0.000000
0
VERTEX
5
2fdd
8
0
10
22.480512
20
41.290390
30
0.000000
0
VERTEX
5
2fed
8
0
10
22.593010
20
41.383544
30
0.000000
0
VERTEX
5
2ffd
8
0
10
22.709258
20
41.475014
30
0.000000
0
VERTEX
5
300d
8
0
10
22.829315
20
41.564772
30
0.000000
0
VERTEX
5
301d
8
0
10
22.953243
20
41.652789
30
0.000000
0
VERTEX
5
302d
8
0
10
23.081105
20
41.739037
30
0.000000
0
VERTEX
5
303d
8
0
10
23.212960
20
41.823490
30
0.000000
0
VERTEX
5
304d
8
0
10
23.348871
20
41.906119
30
0.000000
0
VERTEX
5
305d
8
0
10
23.488898
20
41.986898
30
0.000000
0
VERTEX
5
306d
8
0
10
23.633104
20
42.065797
30
0.000000
0
VERTEX
5
307d
8
0
10
23.633104
20
42.065797
30
0.000000
0
VERTEX
5
308d
8
0
10
23.757256
20
42.179153
30
0.000000
0
VERTEX
5
309d
8
0
10
23.821382
20
42.237352
30
0.000000
0
VERTEX
5
30ad
8
0
10
23.883218
20
42.295351
30
0.000000
0
VERTEX
5
30bd
8
0
10
23.940022
20
42.352240
30
0.000000
0
VERTEX
5
30cd
8
0
10
23.989052
20
42.407108
30
0.000000
0
VERTEX
5
30dd
8
0
10
24.009795
20
42.433499
30
0.000000
0
VERTEX
5
30ed
8
0
10
24.027566
20
42.459044
30
0.000000
0
VERTEX
5
30fd
8
0
10
24.042022
20
42.483629
30
0.000000
0
VERTEX
5
310d
8
0
10
24.052821
20
42.507139
30
0.000000
0
VERTEX
5
311d
8
0
10
24.059620
20
42.529462
30
0.000000
0
VERTEX
5
312d
8
0
10
24.062076
20
42.550482
30
0.000000
0
VERTEX
5
313d
8
0
10
24.059846
20
42.570087
30
0.000000
0
VERTEX
5
314d
8
0
10
24.052587
20
42.588163
30
0.000000
0
VERTEX
5
315d
8
0
10
24.039958
20
42.604595
30
0.000000
0
VERTEX
5
316d
8
0
10
24.021614
20
42.619271
30
0.000000
0
VERTEX
5
317d
8
0
10
23.997213
20
42.632076
30
0.000000
0
VERTEX
5
318d
8
0
10
23.966413
20
42.642896
30
0.000000
0
VERTEX
5
319d
8
0
10
23.928871
20
42.651617
30
0.000000
0
VERTEX
5
31ad
8
0
10
23.884243
20
42.658127
30
0.000000
0
VERTEX
5
31bd
8
0
10
23.832187
20
42.662310
30
0.000000
0
VERTEX
5
31cd
8
0
10
23.772361
20
42.664054
30
0.000000
0
VERTEX
5
31dd
8
0
10
23.704421
20
42.663244
30
0.000000
0
VERTEX
5
31ed
8
0
10
23.628025
20
42.659767
30
0.000000
0
VERTEX
5
31fd
8
0
10
23.542830
20
42.653509
30
0.000000
0
VERTEX
5
320d
8
0
10
23.448493
20
42.644355
30
0.000000
0
VERTEX
5
321d
8
0
10
23.448493
20
42.644355
30
0.000000
0
VERTEX
5
322d
8
0
10
23.386251
20
42.616487
30
0.000000
0
VERTEX
5
323d
8
0
10
23.323268
20
42.591237
30
0.000000
0
VERTEX
5
324d
8
0
10
23.259571
20
42.568492
30
0.000000
0
VERTEX
5
325d
8
0
10
23.195189
20
42.548141
30
0.000000
0
VERTEX
5
326d
8
0
10
23.130150
20
42.530069
30
0.000000
0
VERTEX
5
327d
8
0
10
23.064483
20
42.514166
30
0.000000
0
VERTEX
5
328d
8
0
10
22.998216
20
42.500318
30
0.000000
0
VERTEX
5
329d
8
0
10
22.931377
20
42.488413
30
0.000000
0
VERTEX
5
32ad
8
0
10
22.863995
20
42.478338
30
0.000000
0
VERTEX
5
32bd
8
0
10
22.796098
20
42.469982
30
0.000000
0
VERTEX
5
32cd
8
0
10
22.727715
20
42.463231
30
0.000000
0
VERTEX
5
32dd
8
0
10
22.658872
20
42.457973
30
0.000000
0
VERTEX
5
32ed
8
0
10
22.519926
20
42.451486
30
0.000000
0
VERTEX
5
32fd
8
0
10
22.379487
20
42.449621
30
0.000000
0
VERTEX
5
330d
8
0
10
22.237781
20
42.451479
30
0.000000
0
VERTEX
5
331d
8
0
10
22.095035
20
42.456158
30
0.000000
0
VERTEX
5
332d
8
0
10
21.807329
20
42.470384
30
0.000000
0
VERTEX
5
333d
8
0
10
21.518184
20
42.485099
30
0.000000
0
VERTEX
5
334d
8
0
10
21.373638
20
42.490390
30
0.000000
0
VERTEX
5
335d
8
0
10
21.229412
20
42.493104
30
0.000000
0
VERTEX
5
336d
8
0
10
21.085733
20
42.492340
30
0.000000
0
VERTEX
5
337d
8
0
10
20.942828
20
42.487199
30
0.000000
0
VERTEX
5
338d
8
0
10
20.800922
20
42.476780
30
0.000000
0
VERTEX
5
339d
8
0
10
20.730415
20
42.469311
30
0.000000
0
VERTEX
5
33ad
8
0
10
20.660244
20
42.460185
30
0.000000
0
VERTEX
5
33bd
8
0
10
20.590435
20
42.449289
30
0.000000
0
VERTEX
5
33cd
8
0
10
20.521019
20
42.436512
30
0.000000
0
VERTEX
5
33dd
8
0
10
20.452022
20
42.421740
30
0.000000
0
VERTEX
5
33ed
8
0
10
20.383474
20
42.404862
30
0.000000
0
VERTEX
5
33fd
8
0
10
20.315403
20
42.385764
30
0.000000
0
VERTEX
5
340d
8
0
10
20.247836
20
42.364334
30
0.000000
0
VERTEX
5
341d
8
0
10
20.180803
20
42.340461
30
0.000000
0
VERTEX
5
342d
8
0
10
20.114332
20
42.314030
30
0.000000
0
VERTEX
5
343d
8
0
10
20.048451
20
42.284930
30
0.000000
0
VERTEX
5
344d
8
0
10
19.983188
20
42.253049
30
0.000000
0
VERTEX
5
345d
8
0
10
19.918572
20
42.218273
30
0.000000
0
VERTEX
5
346d
8
0
10
19.854631
20
42.180491
30
0.000000
0
VERTEX
5
347d
8
0
10
19.791393
20
42.139589
30
0.000000
0
VERTEX
5
348d
8
0
10
19.728888
20
42.095456
30
0.000000
0
VERTEX
5
349d
8
0
10
19.667142
20
42.047978
30
0.000000
0
VERTEX
5
34ad
8
0
10
19.606184
20
41.997044
30
0.000000
0
VERTEX
5
34bd
8
0
10
19.546044
20
41.942540
30
0.000000
0
VERTEX
5
34cd
8
0
10
19.486748
20
41.884355
30
0.000000
0
VERTEX
5
34dd
8
0
10
19.428326
20
41.822375
30
0.000000
0
VERTEX
5
34ed
8
0
10
19.370806
20
41.756489
30
0.000000
0
VERTEX
5
34fd
8
0
10
19.314216
20
41.686584
30
0.000000
0
VERTEX
5
350d
8
0
10
19.258584
20
41.612547
30
0.000000
0
VERTEX
5
351d
8
0
10
19.203939
20
41.534266
30
0.000000
0
VERTEX
5
352d
8
0
10
19.150310
20
41.451628
30
0.000000
0
VERTEX
5
353d
8
0
10
19.150310
20
41.451628
30
0.000000
0
VERTEX
5
354d
8
0
10
19.033948
20
41.478647
30
0.000000
0
VERTEX
5
355d
8
0
10
18.931930
20
41.507670
30
0.000000
0
VERTEX
5
356d
8
0
10
18.886079
20
41.522905
30
0.000000
0
VERTEX
5
357d
8
0
10
18.843550
20
41.538610
30
0.000000
0
VERTEX
5
358d
8
0
10
18.804256
20
41.554772
30
0.000000
0
VERTEX
5
359d
8
0
10
18.768107
20
41.571382
30
0.000000
0
VERTEX
5
35ad
8
0
10
18.735017
20
41.588429
30
0.000000
0
VERTEX
5
35bd
8
0
10
18.704897
20
41.605901
30
0.000000
0
VERTEX
5
35cd
8
0
10
18.677660
20
41.623789
30
0.000000
0
VERTEX
5
35dd
8
0
10
18.653217
20
41.642082
30
0.000000
0
VERTEX
5
35ed
8
0
10
18.631480
20
41.660769
30
0.000000
0
VERTEX
5
35fd
8
0
10
18.612363
20
41.679840
30
0.000000
0
VERTEX
5
360d
8
0
10
18.595776
20
41.699283
30
0.000000
0
VERTEX
5
361d
8
0
10
18.581632
20
41.719088
30
0.000000
0
VERTEX
5
362d
8
0
10
18.569843
20
41.739244
30
0.000000
0
VERTEX
5
363d
8
0
10
18.560321
20
41.759742
30
0.000000
0
VERTEX
5
364d
8
0
10
18.552978
20
41.780569
30
0.000000
0
VERTEX
5
365d
8
0
10
18.547726
20
41.801716
30
0.000000
0
VERTEX
5
366d
8
0
10
18.544478
20
41.823171
30
0.000000
0
VERTEX
5
367d
8
0
10
18.543145
20
41.844924
30
0.000000
0
VERTEX
5
368d
8
0
10
18.543640
20
41.866965
30
0.000000
0
VERTEX
5
369d
8
0
10
18.545874
20
41.889282
30
0.000000
0
VERTEX
5
36ad
8
0
10
18.549760
20
41.911866
30
0.000000
0
VERTEX
5
36bd
8
0
10
18.555210
20
41.934704
30
0.000000
0
VERTEX
5
36cd
8
0
10
18.570449
20
41.981105
30
0.000000
0
VERTEX
5
36dd
8
0
10
18.590888
20
42.028399
30
0.000000
0
VERTEX
5
36ed
8
0
10
18.615825
20
42.076501
30
0.000000
0
VERTEX
5
36fd
8
0
10
18.644555
20
42.125326
30
0.000000
0
VERTEX
5
370d
8
0
10
18.676375
20
42.174787
30
0.000000
0
VERTEX
5
371d
8
0
10
18.746475
20
42.275280
30
0.000000
0
VERTEX
5
372d
8
0
10
18.820497
20
42.377298
30
0.000000
0
VERTEX
5
373d
8
0
10
18.892815
20
42.480156
30
0.000000
0
VERTEX
5
374d
8
0
10
18.926578
20
42.531688
30
0.000000
0
VERTEX
5
375d
8
0
10
18.957804
20
42.583173
30
0.000000
0
VERTEX
5
376d
8
0
10
18.985792
20
42.634528
30
0.000000
0
VERTEX
5
377d
8
0
10
19.009837
20
42.685665
30
0.000000
0
VERTEX
5
378d
8
0
10
19.029237
20
42.736501
30
0.000000
0
VERTEX
5
379d
8
0
10
19.043288
20
42.786950
30
0.000000
0
VERTEX
5
37ad
8
0
10
19.048088
20
42.812002
30
0.000000
0
VERTEX
5
37bd
8
0
10
19.051287
20
42.836925
30
0.000000
0
VERTEX
5
37cd
8
0
10
19.052798
20
42.861709
30
0.000000
0
VERTEX
5
37dd
8
0
10
19.052531
20
42.886343
30
0.000000
0
VERTEX
5
37ed
8
0
10
17.606677
20
43.910207
30
0.000000
0
VERTEX
5
37fd
8
0
10
18.845627
20
44.777152
30
0.000000
0
VERTEX
5
380d
8
0
10
18.845627
20
44.777152
30
0.000000
0
VERTEX
5
381d
8
0
10
18.841991
20
44.890014
30
0.000000
0
VERTEX
5
382d
8
0
10
18.840248
20
45.001582
30
0.000000
0
VERTEX
5
383d
8
0
10
18.840580
20
45.111724
30
0.000000
0
VERTEX
5
384d
8
0
10
18.843167
20
45.220306
30
0.000000
0
VERTEX
5
385d
8
0
10
18.848192
20
45.327193
30
0.000000
0
VERTEX
5
386d
8
0
10
18.855835
20
45.432251
30
0.000000
0
VERTEX
5
387d
8
0
10
18.866276
20
45.535347
30
0.000000
0
VERTEX
5
388d
8
0
10
18.879698
20
45.636347
30
0.000000
0
VERTEX
5
389d
8
0
10
18.896282
20
45.735117
30
0.000000
0
VERTEX
5
38ad
8
0
10
18.916207
20
45.831524
30
0.000000
0
VERTEX
5
38bd
8
0
10
18.939656
20
45.925433
30
0.000000
0
VERTEX
5
38cd
8
0
10
18.966810
20
46.016710
30
0.000000
0
VERTEX
5
38dd
8
0
10
18.997850
20
46.105222
30
0.000000
0
VERTEX
5
38ed
8
0
10
19.032956
20
46.190835
30
0.000000
0
VERTEX
5
38fd
8
0
10
19.072310
20
46.273415
30
0.000000
0
VERTEX
5
390d
8
0
10
19.116093
20
46.352828
30
0.000000
0
VERTEX
5
391d
8
0
10
19.164486
20
46.428941
30
0.000000
0
VERTEX
5
392d
8
0
10
19.190468
20
46.465717
30
0.000000
0
VERTEX
5
393d
8
0
10
19.217670
20
46.501618
30
0.000000
0
VERTEX
5
394d
8
0
10
19.246116
20
46.536628
30
0.000000
0
VERTEX
5
395d
8
0
10
19.275827
20
46.570728
30
0.000000
0
VERTEX
5
396d
8
0
10
19.306826
20
46.603903
30
0.000000
0
VERTEX
5
397d
8
0
10
19.339137
20
46.636136
30
0.000000
0
VERTEX
5
398d
8
0
10
19.372781
20
46.667409
30
0.000000
0
VERTEX
5
399d
8
0
10
19.407781
20
46.697707
30
0.000000
0
VERTEX
5
39ad
8
0
10
19.444160
20
46.727012
30
0.000000
0
VERTEX
5
39bd
8
0
10
19.481941
20
46.755308
30
0.000000
0
VERTEX
5
39cd
8
0
10
19.521146
20
46.782579
30
0.000000
0
VERTEX
5
39dd
8
0
10
19.561797
20
46.808806
30
0.000000
0
VERTEX
5
39ed
8
0
10
19.603918
20
46.833974
30
0.000000
0
VERTEX
5
39fd
8
0
10
19.647532
20
46.858066
30
0.000000
0
VERTEX
5
3a0d
8
0
10
19.692659
20
46.881066
30
0.000000
0
VERTEX
5
3a1d
8
0
10
19.739325
20
46.902955
30
0.000000
0
VERTEX
5
3a2d
8
0
10
19.787550
20
46.923718
30
0.000000
0
VERTEX
5
3a3d
8
0
10
19.837358
20
46.943339
30
0.000000
0
VERTEX
5
3a4d
8
0
10
19.888771
20
46.961799
30
0.000000
0
VERTEX
5
3a5d
8
0
10
19.941811
20
46.979083
30
0.000000
0
VERTEX
5
3a6d
8
0
10
19.996503
20
46.995174
30
0.000000
0
VERTEX
5
3a7d
8
0
10
20.052867
20
47.010055
30
0.000000
0
VERTEX
5
3a8d
8
0
10
20.110928
20
47.023709
30
0.000000
0
VERTEX
5
3a9d
8
0
10
20.170707
20
47.036119
30
0.000000
0
VERTEX
5
3aad
8
0
10
20.232227
20
47.047270
30
0.000000
0
VERTEX
5
3abd
8
0
10
20.295510
20
47.057144
30
0.000000
0
VERTEX
5
3acd
8
0
10
20.360580
20
47.065724
30
0.000000
0
VERTEX
5
3add
8
0
10
20.427459
20
47.072993
30
0.000000
0
VERTEX
5
3aed
8
0
10
20.566734
20
47.083535
30
0.000000
0
VERTEX
5
3afd
8
0
10
23.683481
20
49.129114
30
0.000000
0
VERTEX
5
3b0d
8
0
10
24.133482
20
49.135992
30
0.000000
0
SEQEND
5
3b1d
8
0
0
POLYLINE
5
3b2d
8
0
66
1
10
0
20
0
30
0
0
VERTEX
5
3b3d
8
0
10
26.055439
20
36.112941
30
0.000000
0
VERTEX
5
3b4d
8
0
10
27.019941
20
38.396588
30
0.000000
0
VERTEX
5
3b5d
8
0
10
27.019941
20
38.396588
30
0.000000
0
VERTEX
5
3b6d
8
0
10
26.995858
20
38.529089
30
0.000000
0
VERTEX
5
3b7d
8
0
10
26.969223
20
38.658566
30
0.000000
0
VERTEX
5
3b8d
8
0
10
26.939962
20
38.784977
30
0.000000
0
VERTEX
5
3b9d
8
0
10
26.908001
20
38.908283
30
0.000000
0
VERTEX
5
3bad
8
0
10
26.873266
20
39.028443
30
0.000000
0
VERTEX
5
3bbd
8
0
10
26.835682
20
39.145417
30
0.000000
0
VERTEX
5
3bcd
8
0
10
26.795175
20
39.259165
30
0.000000
0
VERTEX
5
3bdd
8
0
10
26.751671
20
39.369645
30
0.000000
0
VERTEX
5
3bed
8
0
10
26.705096
20
39.476819
30
0.000000
0
VERTEX
5
3bfd
8
0
10
26.655376
20
39.580645
30
0.000000
0
VERTEX
5
3c0d
8
0
10
26.602436
20
39.681084
30
0.000000
0
VERTEX
5
3c1d
8
0
10
26.546203
20
39.778095
30
0.000000
0
VERTEX
5
3c2d
8
0
10
26.486602
20
39.871637
30
0.000000
0
VERTEX
5
3c3d
8
0
10
26.423558
20
39.961671
30
0.000000
0
VERTEX
5
3c4d
8
0
10
26.356999
20
40.048156
30
0.000000
0
VERTEX
5
3c5d
8
0
10
26.286849
20
40.131052
30
0.000000
0
VERTEX
5
3c6d
8
0
10
26.213035
20
40.210318
30
0.000000
0
VERTEX
5
3c7d
8
0
10
26.135482
20
40.285914
30
0.000000
0
VERTEX
5
3c8d
8
0
10
26.054116
20
40.357801
30
0.000000
0
VERTEX
5
3c9d
8
0
10
25.968862
20
40.425936
30
0.000000
0
VERTEX
5
3cad
8
0
10
25.879648
20
40.490281
30
0.000000
0
VERTEX
5
3cbd
8
0
10
25.786398
20
40.550795
30
0.000000
0
VERTEX
5
3ccd
8
0
10
25.689038
20
40.607437
30
0.000000
0
VERTEX
5
3cdd
8
0
10
25.587495
20
40.660168
30
0.000000
0
VERTEX
5
3ced
8
0
10
25.481693
20
40.708946
30
0.000000
0
VERTEX
5
3cfd
8
0
10
25.371560
20
40.753733
30
0.000000
0
VERTEX
5
3d0d
8
0
10
25.257019
20
40.794486
30
0.000000
0
VERTEX
5
3d1d
8
0
10
25.137999
20
40.831167
30
0.000000
0
VERTEX
5
3d2d
8
0
10
25.014423
20
40.863734
30
0.000000
0
VERTEX
5
3d3d
8
0
10
24.886219
20
40.892148
30
0.000000
0
VERTEX
5
3d4d
8
0
10
24.753311
20
40.916368
30
0.000000
0
VERTEX
5
3d5d
8
0
10
24.615627
20
40.936353
30
0.000000
0
VERTEX
5
3d6d
8
0
10
24.615627
20
40.936353
30
0.000000
0
VERTEX
5
3d7d
8
0
10
24.478729
20
40.916134
30
0.000000
0
VERTEX
5
3d8d
8
0
10
24.346553
20
40.891715
30
0.000000
0
VERTEX
5
3d9d
8
0
10
24.219041
20
40.863141
30
0.000000
0
VERTEX
5
3dad
8
0
10
24.096133
20
40.830453
30
0.000000
0
VERTEX
5
3dbd
8
0
10
23.977770
20
40.793694
30
0.000000
0
VERTEX
5
3dcd
8
0
10
23.863892
20
40.752908
30
0.000000
0
VERTEX
5
3ddd
8
0
10
23.754441
20
40.708136
30
0.000000
0
VERTEX
5
3ded
8
0
10
23.649357
20
40.659422
30
0.000000
0
VERTEX
5
3dfd
8
0
10
23.548581
20
40.606807
30
0.000000
0
VERTEX
5
3e0d
8
0
10
23.452054
20
40.550336
30
0.000000
0
VERTEX
5
3e1d
8
0
10
23.359716
20
40.490050
30
0.000000
0
VERTEX
5
3e2d
8
0
10
23.271510
20
40.425993
30
0.000000
0
VERTEX
5
3e3d
8
0
10
23.187375
20
40.358207
30
0.000000
0
VERTEX
5
3e4d
8
0
10
23.107251
20
40.286734
30
0.000000
0
VERTEX
5
3e5d
8
0
10
23.031081
20
40.211618
30
0.000000
0
VERTEX
5
3e6d
8
0
10
22.958805
20
40.132901
30
0.000000
0
VERTEX
5
3e7d
8
0
10
22.890364
20
40.050626
30
0.000000
0
VERTEX
5
3e8d
8
0
10
22.825698
20
39.964836
30
0.000000
0
VERTEX
5
3e9d
8
0
10
22.764748
20
39.875573
30
0.000000
0
VERTEX
5
3ead
8
0
10
22.707456
20
39.782880
30
0.000000
0
VERTEX
5
3ebd
8
0
10
22.653762
20
39.686800
30
0.000000
0
VERTEX
5
3ecd
8
0
10
22.603606
20
39.587375
30
0.000000
0
VERTEX
5
3edd
8
0
10
22.556930
20
39.484649
30
0.000000
0
VERTEX
5
3eed
8
0
10
22.513674
20
39.378663
30
0.000000
0
VERTEX
5
3efd
8
0
10
22.473780
20
39.269462
30
0.000000
0
VERTEX
5
3f0d
8
0
10
22.437188
20
39.157086
30
0.000000
0
VERTEX
5
3f1d
8
0
10
22.403838
20
39.041580
30
0.000000
0
VERTEX
5
3f2d
8
0
10
22.373673
20
38.922985
30
0.000000
0
VERTEX
5
3f3d
8
0
10
22.346632
20
38.801345
30
0.000000
0
VERTEX
5
3f4d
8
0
10
22.322656
20
38.676702
30
0.000000
0
VERTEX
5
3f5d
8
0
10
22.301687
20
38.549100
30
0.000000
0
VERTEX
5
3f6d
8
0
10
22.283665
20
38.418579
30
0.000000
0
VERTEX
5
3f7d
8
0
10
22.283665
20
38.418579
30
0.000000
0
VERTEX
5
3f8d
8
0
10
22.296552
20
38.283159
30
0.000000
0
VERTEX
5
3f9d
8
0
10
22.311829
20
38.150151
30
0.000000
0
VERTEX
5
3fad
8
0
10
22.329642
20
38.019680
30
0.000000
0
VERTEX
5
3fbd
8
0
10
22.350138
20
37.891869
30
0.000000
0
VERTEX
5
3fcd
8
0
10
22.373463
20
37.766840
30
0.000000
0
VERTEX
5
3fdd
8
0
10
22.399765
20
37.644719
30
0.000000
0
VERTEX
5
3fed
8
0
10
22.429189
20
37.525628
30
0.000000
0
VERTEX
5
3ffd
8
0
10
22.461884
20
37.409691
30
0.000000
0
VERTEX
5
400d
8
0
10
22.497995
20
37.297031
30
0.000000
0
VERTEX
5
401d
8
0
10
22.537669
20
37.187772
30
0.000000
0
VERTEX
5
402d
8
0
10
22.581054
20
37.082037
30
0.000000
0
VERTEX
5
403d
8
0
10
22.628295
20
36.979950
30
0.000000
0
VERTEX
5
404d
8
0
10
22.679540
20
36.881635
30
0.000000
0
VERTEX
5
405d
8
0
10
22.734935
20
36.787215
30
0.000000
0
VERTEX
5
406d
8
0
10
22.794628
20
36.696813
30
0.000000
0
VERTEX
5
407d
8
0
10
22.826131
20
36.653157
30
0.000000
0
VERTEX
5
408d
8
0
10
22.858764
20
36.610553
30
0.000000
0
VERTEX
5
409d
8
0
10
22.892545
20
36.569014
30
0.000000
0
VERTEX
5
40ad
8
0
10
22.927491
20
36.528558
30
0.000000
0
VERTEX
5
40bd
8
0
10
22.963622
20
36.489199
30
0.000000
0
VERTEX
5
40cd
8
0
10
23.000955
20
36.450952
30
0.000000
0
VERTEX
5
40dd
8
0
10
23.039510
20
36.413834
30
0.000000
0
VERTEX
5
40ed
8
0
10
23.079304
20
36.377859
30
0.000000
0
VERTEX
5
40fd
8
0
10
23.120356
20
36.343044
30
0.000000
0
VERTEX
5
410d
8
0
10
23.162684
20
36.309402
30
0.000000
0
VERTEX
5
411d
8
0
10
23.206306
20
36.276951
30
0.000000
0
VERTEX
5
412d
8
0
10
23.251241
20
36.245705
30
0.000000
0
VERTEX
5
413d
8
0
10
23.297507
20
36.215679
30
0.000000
0
VERTEX
5
414d
8
0
10
23.345123
20
36.186890
30
0.000000
0
VERTEX
5
415d
8
0
10
23.394106
20
36.159353
30
0.000000
0
VERTEX
5
416d
8
0
10
23.444476
20
36.133082
30
0.000000
0
VERTEX
5
417d
8
0
10
23.496250
20
36.108094
30
0.000000
0
VERTEX
5
418d
8
0
10
23.549446
20
36.084404
30
0.000000
0
VERTEX
5
419d
8
0
10
23.604085
20
36.062027
30
0.000000
0
VERTEX
5
41ad
8
0
10
23.660182
20
36.040980
30
0.000000
0
VERTEX
5
41bd
8
0
10
23.717758
20
36.021276
30
0.000000
0
VERTEX
5
41cd
8
0
10
23.776829
20
36.002932
30
0.000000
0
VERTEX
5
41dd
8
0
10
23.837416
20
35.985964
30
0.000000
0
VERTEX
5
41ed
8
0
10
23.899535
20
35.970386
30
0.000000
0
VERTEX
5
41fd
8
0
10
23.963205
20
35.956214
30
0.000000
0
VERTEX
5
420d
8
0
10
24.028445
20
35.943463
30
0.000000
0
VERTEX
5
421d
8
0
10
24.095273
20
35.932149
30
0.000000
0
VERTEX
5
422d
8
0
10
24.163707
20
35.922288
30
0.000000
0
VERTEX
5
423d
8
0
10
24.233766
20
35.913894
30
0.000000
0
VERTEX
5
424d
8
0
10
24.305468
20
35.906984
30
0.000000
0
VERTEX
5
425d
8
0
10
24.378831
20
35.901572
30
0.000000
0
VERTEX
5
426d
8
0
10
24.453874
20
35.897675
30
0.000000
0
VERTEX
5
427d
8
0
10
24.530615
20
35.895307
30
0.000000
0
VERTEX
5
428d
8
0
10
24.609072
20
35.894484
30
0.000000
0
VERTEX
5
429d
8
0
10
26.055439
20
36.112941
30
0.000000
0
SEQEND
5
42ad
8
0
0
POLYLINE
5
42bd
8
0
66
1
10
0
20
0
30
0
0
VERTEX
5
42cd
8
0
10
37.504609
20
31.887828
30
0.000000
0
VERTEX
5
42dd
8
0
10
37.504609
20
31.887828
30
0.000000
0
VERTEX
5
42ed
8
0
10
37.300378
20
31.873537
30
0.000000
0
VERTEX
5
42fd
8
0
10
37.097999
20
31.863567
30
0.000000
0
VERTEX
5
430d
8
0
10
36.897530
20
31.858055
30
0.000000
0
VERTEX
5
431d
8
0
10
36.699030
20
31.857137
30
0.000000
0
VERTEX
5
432d
8
0
10
36.502557
20
31.860950
30
0.000000
0
VERTEX
5
433d
8
0
10
36.308171
20
31.869629
30
0.000000
0
VERTEX
5
434d
8
0
10
36.115928
20
31.883312
30
0.000000
0
VERTEX
5
435d
8
0
10
35.925888
20
31.902134
30
0.000000
0
VERTEX
5
436d
8
0
10
35.738109
20
31.926231
30
0.000000
0
VERTEX
5
437d
8
0
10
35.552649
20
31.955741
30
0.000000
0
VERTEX
5
438d
8
0
10
35.369567
20
31.990798
30
0.000000
0
VERTEX
5
439d
8
0
10
35.278936
20
32.010451
30
0.000000
0
VERTEX
5
43ad
8
0
10
35.188922
20
32.031541
30
0.000000
0
VERTEX
5
43bd
8
0
10
35.099531
20
32.054087
30
0.000000
0
VERTEX
5
43cd
8
0
10
35.010771
20
32.078104
30
0.000000
0
VERTEX
5
43dd
8
0
10
34.922649
20
32.103612
30
0.000000
0
VERTEX
5
43ed
8
0
10
34.835173
20
32.130625
30
0.000000
0
VERTEX
5
43fd
8
0
10
34.748350
20
32.159162
30
0.000000
0
VERTEX
5
440d
8
0
10
34.662187
20
32.189240
30
0.000000
0
VERTEX
5
441d
8
0
10
34.576692
20
32.220875
30
0.000000
0
VERTEX
5
442d
8
0
10
34.491871
20
32.254084
30
0.000000
0
VERTEX
5
443d
8
0
10
34.407733
20
32.288885
30
0.000000
0
VERTEX
5
444d
8
0
10
34.324283
20
32.325295
30
0.000000
0
VERTEX
5
445d
8
0
10
34.241531
20
32.363330
30
0.000000
0
VERTEX
5
446d
8
0
10
34.159483
20
32.403008
30
0.000000
0
VERTEX
5
447d
8
0
10
34.078145
20
32.444346
30
0.000000
0
VERTEX
5
448d
8
0
10
33.997527
20
32.487360
30
0.000000
0
VERTEX
5
449d
8
0
10
33.917634
20
32.532069
30
0.000000
0
VERTEX
5
44ad
8
0
10
33.838475
20
32.578488
30
0.000000
0
VERTEX
5
44bd
8
0
10
33.760056
20
32.626635
30
0.000000
0
VERTEX
5
44cd
8
0
10
33.682385
20
32.676527
30
0.000000
0
VERTEX
5
44dd
8
0
10
33.605469
20
32.728181
30
0.000000
0
VERTEX
5
44ed
8
0
10
33.529316
20
32.781614
30
0.000000
0
VERTEX
5
44fd
8
0
10
33.453932
20
32.836843
30
0.000000
0
VERTEX
5
450d
8
0
10
33.379326
20
32.893885
30
0.000000
0
VERTEX
5
451d
8
0
10
33.305503
20
32.952757
30
0.000000
0
VERTEX
5
452d
8
0
10
33.232473
20
33.013477
30
0.000000
0
VERTEX
5
453d
8
0
10
33.160241
20
33.076060
30
0.000000
0
VERTEX
5
454d
8
0
10
33.088815
20
33.140525
30
0.000000
0
VERTEX
5
455d
8
0
10
33.018203
20
33.206889
30
0.000000
0
VERTEX
5
456d
8
0
10
32.948412
20
33.275167
30
0.000000
0
VERTEX
5
457d
8
0
10
32.879449
20
33.345378
30
0.000000
0
VERTEX
5
458d
8
0
10
32.811322
20
33.417538
30
0.000000
0
VERTEX
5
459d
8
0
10
32.744037
20
33.491665
30
0.000000
0
VERTEX
5
45ad
8
0
10
32.677603
20
33.567775
30
0.000000
0
VERTEX
5
45bd
8
0
10
32.612025
20
33.645886
30
0.000000
0
VERTEX
5
45cd
8
0
10
32.547313
20
33.726014
30
0.000000
0
VERTEX
5
45dd
8
0
10
32.483472
20
33.808177
30
0.000000
0
VERTEX
5
45ed
8
0
10
32.420511
20
33.892392
30
0.000000
0
VERTEX
5
45fd
8
0
10
32.358436
20
33.978675
30
0.000000
0
VERTEX
5
460d
8
0
10
32.297255
20
34.067044
30
0.000000
0
VERTEX
5
461d
8
0
10
32.236976
20
34.157516
30
0.000000
0
VERTEX
5
462d
8
0
10
32.177605
20
34.250108
30
0.000000
0
VERTEX
5
463d
8
0
10
32.177605
20
34.250108
30
0.000000
0
VERTEX
5
464d
8
0
10
32.318197
20
34.115907
30
0.000000
0
VERTEX
5
465d
8
0
10
32.460622
20
33.985984
30
0.000000
0
VERTEX
5
466d
8
0
10
32.604864
20
33.860301
30
0.000000
0
VERTEX
5
467d
8
0
10
32.750907
20
33.738820
30
0.000000
0
VERTEX
5
468d
8
0
10
32.898735
20
33.621501
30
0.000000
0
VERTEX
5
469d
8
0
10
33.048330
20
33.508308
30
0.000000
0
VERTEX
5
46ad
8
0
10
33.199676
20
33.399201
30
0.000000
0
VERTEX
5
46bd
8
0
10
33.352758
20
33.294143
30
0.000000
0
VERTEX
5
46cd
8
0
10
33.507558
20
33.193095
30
0.000000
0
VERTEX
5
46dd
8
0
10
33.664061
20
33.096020
30
0.000000
0
VERTEX
5
46ed
8
0
10
33.822250
20
33.002877
30
0.000000
0
VERTEX
5
46fd
8
0
10
33.982108
20
32.913631
30
0.000000
0
VERTEX
5
470d
8
0
10
34.143619
20
32.828241
30
0.000000
0
VERTEX
5
471d
8
0
10
34.306766
20
32.746671
30
0.000000
0
VERTEX
5
472d
8
0
10
34.471535
20
32.668881
30
0.000000
0
VERTEX
5
473d
8
0
10
34.637907
20
32.594833
30
0.000000
0
VERTEX
5
474d
8
0
10
34.805866
20
32.524490
30
0.000000
0
VERTEX
5
475d
8
0
10
34.975397
20
32.457813
30
0.000000
0
VERTEX
5
476d
8
0
10
35.146482
20
32.394763
30
0.000000
0
VERTEX
5
477d
8
0
10
35.319105
20
32.335303
30
0.000000
0
VERTEX
5
478d
8
0
10
35.493251
20
32.279394
30
0.000000
0
VERTEX
5
479d
8
0
10
35.668902
20
32.226998
30
0.000000
0
VERTEX
5
47ad
8
0
10
35.846042
20
32.178076
30
0.000000
0
VERTEX
5
47bd
8
0
10
36.024655
20
32.132591
30
0.000000
0
VERTEX
5
47cd
8
0
10
36.204724
20
32.090504
30
0.000000
0
VERTEX
5
47dd
8
0
10
36.386234
20
32.051777
30
0.000000
0
VERTEX
5
47ed
8
0
10
36.569166
20
32.016371
30
0.000000
0
VERTEX
5
47fd
8
0
10
36.753506
20
31.984249
30
0.000000
0
VERTEX
5
480d
8
0
10
36.939237
20
31.955372
30
0.000000
0
VERTEX
5
481d
8
0
10
37.126342
20
31.929701
30
0.000000
0
VERTEX
5
482d
8
0
10
37.314805
20
31.907199
30
0.000000
0
VERTEX
5
483d
8
0
10
37.504609
20
31.887828
30
0.000000
0
SEQEND
5
484d
8
0
0
POLYLINE
5
485d
8
0
66
1
10
0
20
0
30
0
0
VERTEX
5
486d
8
0
10
48.134405
20
34.068872
30
0.000000
0
VERTEX
5
487d
8
0
10
48.134405
20
34.068872
30
0.000000
0
VERTEX
5
488d
8
0
10
48.158647
20
34.002954
30
0.000000
0
VERTEX
5
489d
8
0
10
48.184143
20
33.940393
30
0.000000
0
VERTEX
5
48ad
8
0
10
48.210885
20
33.881158
30
0.000000
0
VERTEX
5
48bd
8
0
10
48.238866
20
33.825217
30
0.000000
0
VERTEX
5
48cd
8
0
10
48.268078
20
33.772540
30
0.000000
0
VERTEX
5
48dd
8
0
10
48.298513
20
33.723094
30
0.000000
0
VERTEX
5
48ed
8
0
10
48.330164
20
33.676849
30
0.000000
0
VERTEX
5
48fd
8
0
10
48.363025
20
33.633773
30
0.000000
0
VERTEX
5
490d
8
0
10
48.397087
20
33.593836
30
0.000000
0
VERTEX
5
491d
8
0
10
48.432342
20
33.557005
30
0.000000
0
VERTEX
5
492d
8
0
10
48.468785
20
33.523250
30
0.000000
0
VERTEX
5
493d
8
0
10
48.506407
20
33.492540
30
0.000000
0
VERTEX
5
494d
8
0
10
48.545200
20
33.464843
30
0.000000
0
VERTEX
5
495d
8
0
10
48.585158
20
33.440127
30
0.000000
0
VERTEX
5
496d
8
0
10
48.626273
20
33.418363
30
0.000000
0
VERTEX
5
497d
8
0
10
48.668537
20
33.399518
30
0.000000
0
VERTEX
5
498d
8
0
10
48.711943
20
33.383561
30
0.000000
0
VERTEX
5
499d
8
0
10
48.756485
20
33.370461
30
0.000000
0
VERTEX
5
49ad
8
0
10
48.802153
20
33.360187
30
0.000000
0
VERTEX
5
49bd
8
0
10
48.848942
20
33.352707
30
0.000000
0
VERTEX
5
49cd
8
0
10
48.896843
20
33.347991
30
0.000000
0
VERTEX
5
49dd
8
0
10
48.945849
20
33.346006
30
0.000000
0
VERTEX
5
49ed
8
0
10
48.995952
20
33.346722
30
0.000000
0
VERTEX
5
49fd
8
0
10
49.047146
20
33.350108
30
0.000000
0
VERTEX
5
4a0d
8
0
10
49.099423
20
33.356132
30
0.000000
0
VERTEX
5
4a1d
8
0
10
49.152775
20
33.364763
30
0.000000
0
VERTEX
5
4a2d
8
0
10
49.207195
20
33.375970
30
0.000000
0
VERTEX
5
4a3d
8
0
10
49.262676
20
33.389721
30
0.000000
0
VERTEX
5
4a4d
8
0
10
49.319210
20
33.405986
30
0.000000
0
VERTEX
5
4a5d
8
0
10
49.376790
20
33.424732
30
0.000000
0
VERTEX
5
4a6d
8
0
10
49.435408
20
33.445929
30
0.000000
0
VERTEX
5
4a7d
8
0
10
49.495057
20
33.469546
30
0.000000
0
VERTEX
5
4a8d
8
0
10
49.065225
20
33.271544
30
0.000000
0
VERTEX
5
4a9d
8
0
10
49.065225
20
33.271544
30
0.000000
0
VERTEX
5
4aad
8
0
10
49.089706
20
33.102398
30
0.000000
0
VERTEX
5
4abd
8
0
10
49.112102
20
32.934295
30
0.000000
0
VERTEX
5
4acd
8
0
10
49.132431
20
32.767225
30
0.000000
0
VERTEX
5
4add
8
0
10
49.150711
20
32.601180
30
0.000000
0
VERTEX
5
4aed
8
0
10
49.166961
20
32.436149
30
0.000000
0
VERTEX
5
4afd
8
0
10
49.181199
20
32.272126
30
0.000000
0
VERTEX
5
4b0d
8
0
10
49.193443
20
32.109099
30
0.000000
0
VERTEX
5
4b1d
8
0
10
49.203712
20
31.947060
30
0.000000
0
VERTEX
5
4b2d
8
0
10
49.212023
20
31.786001
30
0.000000
0
VERTEX
5
4b3d
8
0
10
49.218395
20
31.625911
30
0.000000
0
VERTEX
5
4b4d
8
0
10
49.222846
20
31.466783
30
0.000000
0
VERTEX
5
4b5d
8
0
10
49.225394
20
31.308606
30
0.000000
0
VERTEX
5
4b6d
8
0
10
49.226058
20
31.151371
30
0.000000
0
VERTEX
5
4b7d
8
0
10
49.224856
20
30.995071
30
0.000000
0
VERTEX
5
4b8d
8
0
10
49.221806
20
30.839695
30
0.000000
0
VERTEX
5
4b9d
8
0
10
49.216927
20
30.685234
30
0.000000
0
VERTEX
5
4bad
8
0
10
49.210236
20
30.531679
30
0.000000
0
VERTEX
5
4bbd
8
0
10
49.201752
20
30.379022
30
0.000000
0
VERTEX
5
4bcd
8
0
10
49.191494
20
30.227254
30
0.000000
0
VERTEX
5
4bdd
8
0
10
49.179478
20
30.076364
30
0.000000
0
VERTEX
5
4bed
8
0
10
49.165724
20
29.926344
30
0.000000
0
VERTEX
5
4bfd
8
0
10
49.150251
20
29.777185
30
0.000000
0
VERTEX
5
4c0d
8
0
10
49.133075
20
29.628878
30
0.000000
0
VERTEX
5
4c1d
8
0
10
49.114216
20
29.481414
30
0.000000
0
VERTEX
5
4c2d
8
0
10
49.093691
20
29.334784
30
0.000000
0
VERTEX
5
4c3d
8
0
10
49.071519
20
29.188978
30
0.000000
0
VERTEX
5
4c4d
8
0
10
49.047719
20
29.043988
30
0.000000
0
VERTEX
5
4c5d
8
0
10
49.022307
20
28.899804
30
0.000000
0
VERTEX
5
4c6d
8
0
10
48.995304
20
28.756417
30
0.000000
0
VERTEX
5
4c7d
8
0
10
48.966726
20
28.613819
30
0.000000
0
VERTEX
5
4c8d
8
0
10
48.936593
20
28.472000
30
0.000000
0
VERTEX
5
4c9d
8
0
10
48.904922
20
28.330951
30
0.000000
0
VERTEX
5
4cad
8
0
10
48.871731
20
28.190663
30
0.000000
0
VERTEX
5
4cbd
8
0
10
48.837040
20
28.051127
30
0.000000
0
VERTEX
5
4ccd
8
0
10
48.800865
20
27.912334
30
0.000000
0
VERTEX
5
4cdd
8
0
10
48.763226
20
27.774275
30
0.000000
0
VERTEX
5
4ced
8
0
10
48.724141
20
27.636940
30
0.000000
0
VERTEX
5
4cfd
8
0
10
48.683628
20
27.500321
30
0.000000
0
VERTEX
5
4d0d
8
0
10
48.641704
20
27.364409
30
0.000000
0
VERTEX
5
4d1d
8
0
10
48.598389
20
27.229194
30
0.000000
0
VERTEX
5
4d2d
8
0
10
48.553701
20
27.094668
30
0.000000
0
VERTEX
5
4d3d
8
0
10
48.507658
20
26.960820
30
0.000000
0
VERTEX
5
4d4d
8
0
10
48.411579
20
26.695127
30
0.000000
0
VERTEX
5
4d5d
8
0
10
48.310299
20
26.432042
30
0.000000
0
VERTEX
5
4d6d
8
0
10
48.203963
20
26.171493
30
0.000000
0
VERTEX
5
4d7d
8
0
10
48.092718
20
25.913406
30
0.000000
0
VERTEX
5
4d8d
8
0
10
47.976710
20
25.657710
30
0.000000
0
VERTEX
5
4d9d
8
0
10
47.856085
20
25.404331
30
0.000000
0
VERTEX
5
4dad
8
0
10
47.730988
20
25.153197
30
0.000000
0
VERTEX
5
4dbd
8
0
10
47.601565
20
24.904235
30
0.000000
0
VERTEX
5
4dcd
8
0
10
47.467964
20
24.657373
30
0.000000
0
VERTEX
5
4ddd
8
0
10
47.330329
20
24.412537
30
0.000000
0
VERTEX
5
4ded
8
0
10
47.188807
20
24.169656
30
0.000000
0
VERTEX
5
4dfd
8
0
10
47.043543
20
23.928656
30
0.000000
0
VERTEX
5
4e0d
8
0
10
46.894684
20
23.689466
30
0.000000
0
VERTEX
5
4e1d
8
0
10
46.742376
20
23.452011
30
0.000000
0
VERTEX
5
4e2d
8
0
10
46.586765
20
23.216220
30
0.000000
0
VERTEX
5
4e3d
8
0
10
46.427996
20
22.982020
30
0.000000
0
VERTEX
5
4e4d
8
0
10
46.266216
20
22.749338
30
0.000000
0
VERTEX
5
4e5d
8
0
10
46.101571
20
22.518101
30
0.000000
0
VERTEX
5
4e6d
8
0
10
45.934206
20
22.288238
30
0.000000
0
VERTEX
5
4e7d
8
0
10
45.764268
20
22.059674
30
0.000000
0
VERTEX
5
4e8d
8
0
10
45.591903
20
21.832339
30
0.000000
0
VERTEX
5
4e9d
8
0
10
45.417257
20
21.606158
30
0.000000
0
VERTEX
5
4ead
8
0
10
45.240475
20
21.381059
30
0.000000
0
VERTEX
5
4ebd
8
0
10
45.061704
20
21.156970
30
0.000000
0
VERTEX
5
4ecd
8
0
10
44.881090
20
20.933818
30
0.000000
0
VERTEX
5
4edd
8
0
10
44.698779
20
20.711530
30
0.000000
0
VERTEX
5
4eed
8
0
10
44.514916
20
20.490034
30
0.000000
0
VERTEX
5
4efd
8
0
10
44.143122
20
20.049126
30
0.000000
0
VERTEX
5
4f0d
8
0
10
43.766874
20
19.610512
30
0.000000
0
VERTEX
5
4f1d
8
0
10
43.387341
20
19.173611
30
0.000000
0
VERTEX
5
4f2d
8
0
10
43.005692
20
18.737842
30
0.000000
0
VERTEX
5
4f3d
8
0
10
42.240715
20
17.867375
30
0.000000
0
VERTEX
5
4f4d
8
0
10
41.859723
20
17.431513
30
0.000000
0
VERTEX
5
4f5d
8
0
10
41.481287
20
16.994459
30
0.000000
0
VERTEX
5
4f6d
8
0
10
41.481287
20
16.994459
30
0.000000
0
VERTEX
5
4f7d
8
0
10
41.737704
20
16.599708
30
0.000000
0
VERTEX
5
4f8d
8
0
10
41.998842
20
16.207455
30
0.000000
0
VERTEX
5
4f9d
8
0
10
42.264100
20
15.817370
30
0.000000
0
VERTEX
5
4fad
8
0
10
42.532878
20
15.429121
30
0.000000
0
VERTEX
5
4fbd
8
0
10
42.804574
20
15.042377
30
0.000000
0
VERTEX
5
4fcd
8
0
10
43.078587
20
14.656805
30
0.000000
0
VERTEX
5
4fdd
8
0
10
43.631162
20
13.887855
30
0.000000
0
VERTEX
5
4fed
8
0
10
44.185794
20
13.119620
30
0.000000
0
VERTEX
5
4ffd
8
0
10
44.462380
20
12.734941
30
0.000000
0
VERTEX
5
500d
8
0
10
44.737676
20
12.349447
30
0.000000
0
VERTEX
5
501d
8
0
10
45.011084
20
11.962806
30
0.000000
0
VERTEX
5
502d
8
0
10
45.282001
20
11.574686
30
0.000000
0
VERTEX
5
503d
8
0
10
45.549826
20
11.184756
30
0.000000
0
VERTEX
5
504d
8
0
10
45.813959
20
10.792684
30
0.000000
0
VERTEX
5
505d
8
0
10
46.073799
20
10.398140
30
0.000000
0
VERTEX
5
506d
8
0
10
46.201921
20
10.199836
30
0.000000
0
VERTEX
5
507d
8
0
10
46.328744
20
10.000791
30
0.000000
0
VERTEX
5
508d
8
0
10
46.454193
20
9.800961
30
0.000000
0
VERTEX
5
509d
8
0
10
46.578194
20
9.600306
30
0.000000
0
VERTEX
5
50ad
8
0
10
46.700670
20
9.398784
30
0.000000
0
VERTEX
5
50bd
8
0
10
46.821547
20
9.196353
30
0.000000
0
VERTEX
5
50cd
8
0
10
46.940750
20
8.992973
30
0.000000
0
VERTEX
5
50dd
8
0
10
47.058203
20
8.788602
30
0.000000
0
VERTEX
5
50ed
8
0
10
47.173832
20
8.583198
30
0.000000
0
VERTEX
5
50fd
8
0
10
47.287561
20
8.376721
30
0.000000
0
VERTEX
5
510d
8
0
10
47.399315
20
8.169128
30
0.000000
0
VERTEX
5
511d
8
0
10
47.509020
20
7.960378
30
0.000000
0
VERTEX
5
512d
8
0
10
47.616599
20
7.750429
30
0.000000
0
VERTEX
5
513d
8
0
10
47.721978
20
7.539241
30
0.000000
0
VERTEX
5
514d
8
0
10
47.825082
20
7.326772
30
0.000000
0
VERTEX
5
515d
8
0
10
47.925835
20
7.112980
30
0.000000
0
VERTEX
5
516d
8
0
10
48.024162
20
6.897824
30
0.000000
0
VERTEX
5
517d
8
0
10
48.119989
20
6.681263
30
0.000000
0
VERTEX
5
518d
8
0
10
48.213241
20
6.463255
30
0.000000
0
VERTEX
5
519d
8
0
10
48.303841
20
6.243758
30
0.000000
0
VERTEX
5
51ad
8
0
10
48.391715
20
6.022732
30
0.000000
0
VERTEX
5
51bd
8
0
10
48.476788
20
5.800134
30
0.000000
0
VERTEX
5
51cd
8
0
10
48.558985
20
5.575924
30
0.000000
0
VERTEX
5
51dd
8
0
10
48.638230
20
5.350060
30
0.000000
0
VERTEX
5
51ed
8
0
10
48.714449
20
5.122500
30
0.000000
0
VERTEX
5
51fd
8
0
10
48.787566
20
4.893204
30
0.000000
0
VERTEX
5
520d
8
0
10
48.857506
20
4.662129
30
0.000000
0
VERTEX
5
521d
8
0
10
48.924195
20
4.429234
30
0.000000
0
VERTEX
5
522d
8
0
10
48.987556
20
4.194478
30
0.000000
0
VERTEX
5
523d
8
0
10
49.047515
20
3.957820
30
0.000000
0
VERTEX
5
524d
8
0
10
48.527963
20
5.342498
30
0.000000
0
VERTEX
5
525d
8
0
10
48.456455
20
4.018301
30
0.000000
0
VERTEX
5
526d
8
0
10
48.456455
20
4.018301
30
0.000000
0
VERTEX
5
527d
8
0
10
48.346155
20
4.024013
30
0.000000
0
VERTEX
5
528d
8
0
10
48.242146
20
4.035007
30
0.000000
0
VERTEX
5
529d
8
0
10
48.192467
20
4.042510
30
0.000000
0
VERTEX
5
52ad
8
0
10
48.144319
20
4.051365
30
0.000000
0
VERTEX
5
52bd
8
0
10
48.097688
20
4.061581
30
0.000000
0
VERTEX
5
52cd
8
0
10
48.052561
20
4.073169
30
0.000000
0
VERTEX
5
52dd
8
0
10
48.008924
20
4.086138
30
0.000000
0
VERTEX
5
52ed
8
0
10
47.966763
20
4.100499
30
0.000000
0
VERTEX
5
52fd
8
0
10
47.926064
20
4.116263
30
0.000000
0
VERTEX
5
530d
8
0
10
47.886814
20
4.133439
30
0.000000
0
VERTEX
5
531d
8
0
10
47.848997
20
4.152037
30
0.000000
0
VERTEX
5
532d
8
0
10
47.812602
20
4.172067
30
0.000000
0
VERTEX
5
533d
8
0
10
47.777613
20
4.193541
30
0.000000
0
VERTEX
5
534d
8
0
10
47.744016
20
4.216467
30
0.000000
0
VERTEX
5
535d
8
0
10
47.711799
20
4.240857
30
0.000000
0
VERTEX
5
536d
8
0
10
47.680947
20
4.266720
30
0.000000
0
VERTEX
5
537d
8
0
10
47.651446
20
4.294066
30
0.000000
0
VERTEX
5
538d
8
0
10
47.623283
20
4.322906
30
0.000000
0
VERTEX
5
539d
8
0
10
47.596443
20
4.353250
30
0.000000
0
VERTEX
5
53ad
8
0
10
47.570913
20
4.385107
30
0.000000
0
VERTEX
5
53bd
8
0
10
47.546679
20
4.418489
30
0.000000
0
VERTEX
5
53cd
8
0
10
47.523726
20
4.453406
30
0.000000
0
VERTEX
5
53dd
8
0
10
47.502042
20
4.489867
30
0.000000
0
VERTEX
5
53ed
8
0
10
47.481612
20
4.527882
30
0.000000
0
VERTEX
5
53fd
8
0
10
47.462423
20
4.567462
30
0.000000
0
VERTEX
5
540d
8
0
10
47.444460
20
4.608618
30
0.000000
0
VERTEX
5
541d
8
0
10
47.427710
20
4.651358
30
0.000000
0
VERTEX
5
542d
8
0
10
47.412159
20
4.695694
30
0.000000
0
VERTEX
5
543d
8
0
10
47.397793
20
4.741636
30
0.000000
0
VERTEX
5
544d
8
0
10
47.384598
20
4.789193
30
0.000000
0
VERTEX
5
545d
8
0
10
47.368028
20
3.238381
30
0.000000
0
VERTEX
5
546d
8
0
10
48.342337
20
3.620025
30
0.000000
0
VERTEX
5
547d
8
0
10
48.342337
20
3.620025
30
0.000000
0
VERTEX
5
548d
8
0
10
48.318597
20
3.577213
30
0.000000
0
VERTEX
5
549d
8
0
10
48.297889
20
3.535981
30
0.000000
0
VERTEX
5
54ad
8
0
10
48.280138
20
3.496286
30
0.000000
0
VERTEX
5
54bd
8
0
10
48.265266
20
3.458087
30
0.000000
0
VERTEX
5
54cd
8
0
10
48.253196
20
3.421339
30
0.000000
0
VERTEX
5
54dd
8
0
10
48.243852
20
3.386001
30
0.000000
0
VERTEX
5
54ed
8
0
10
48.237156
20
3.352031
30
0.000000
0
VERTEX
5
54fd
8
0
10
48.233033
20
3.319384
30
0.000000
0
VERTEX
5
550d
8
0
10
48.231405
20
3.288019
30
0.000000
0
VERTEX
5
551d
8
0
10
48.232196
20
3.257893
30
0.000000
0
VERTEX
5
552d
8
0
10
48.235329
20
3.228963
30
0.000000
0
VERTEX
5
553d
8
0
10
48.240726
20
3.201187
30
0.000000
0
VERTEX
5
554d
8
0
10
48.248312
20
3.174522
30
0.000000
0
VERTEX
5
555d
8
0
10
48.258010
20
3.148925
30
0.000000
0
VERTEX
5
556d
8
0
10
48.269742
20
3.124354
30
0.000000
0
VERTEX
5
557d
8
0
10
48.283432
20
3.100766
30
0.000000
0
VERTEX
5
558d
8
0
10
48.299003
20
3.078119
30
0.000000
0
VERTEX
5
559d
8
0
10
48.316379
20
3.056369
30
0.000000
0
VERTEX
5
55ad
8
0
10
48.335483
20
3.035475
30
0.000000
0
VERTEX
5
55bd
8
0
10
48.356237
20
3.015393
30
0.000000
0
VERTEX
5
55cd
8
0
10
48.378565
20
2.996081
30
0.000000
0
VERTEX
5
55dd
8
0
10
48.402391
20
2.977496
30
0.000000
0
VERTEX
5
55ed
8
0
10
48.454227
20
2.942337
30
0.000000
0
VERTEX
5
55fd
8
0
10
48.511131
20
2.909575
30
0.000000
0
VERTEX
5
560d
8
0
10
48.572490
20
2.878869
30
0.000000
0
VERTEX
5
561d
8
0
10
48.637688
20
2.849878
30
0.000000
0
VERTEX
5
562d
8
0
10
48.706111
20
2.822261
30
0.000000
0
VERTEX
5
563d
8
0
10
49.307405
20
2.683287
30
0.000000
0
VERTEX
5
564d
8
0
10
49.015033
20
3.186905
30
0.000000
0
VERTEX
5
565d
8
0
10
49.015033
20
3.186905
30
0.000000
0
VERTEX
5
566d
8
0
10
49.069189
20
3.088667
30
0.000000
0
VERTEX
5
567d
8
0
10
49.118747
20
2.989348
30
0.000000
0
VERTEX
5
568d
8
0
10
49.163776
20
2.889005
30
0.000000
0
VERTEX
5
569d
8
0
10
49.204344
20
2.787698
30
0.000000
0
VERTEX
5
56ad
8
0
10
49.240520
20
2.685483
30
0.000000
0
VERTEX
5
56bd
8
0
10
49.272375
20
2.582419
30
0.000000
0
VERTEX
5
56cd
8
0
10
49.299976
20
2.478565
30
0.000000
0
VERTEX
5
56dd
8
0
10
49.323393
20
2.373978
30
0.000000
0
VERTEX
5
56ed
8
0
10
49.342696
20
2.268717
30
0.000000
0
VERTEX
5
56fd
8
0
10
49.357952
20
2.162839
30
0.000000
0
VERTEX
5
570d
8
0
10
49.369231
20
2.056403
30
0.000000
0
VERTEX
5
571d
8
0
10
49.376602
20
1.949467
30
0.000000
0
VERTEX
5
572d
8
0
10
49.380134
20
1.842089
30
0.000000
0
VERTEX
5
573d
8
0
10
49.379896
20
1.734328
30
0.000000
0
VERTEX
5
574d
8
0
10
49.375957
20
1.626240
30
0.000000
0
VERTEX
5
575d
8
0
10
49.368387
20
1.517885
30
0.000000
0
VERTEX
5
576d
8
0
10
49.368387
20
1.517885
30
0.000000
0
VERTEX
5
577d
8
0
10
48.882212
20
1.826832
30
0.000000
0
VERTEX
5
578d
8
0
10
48.398705
20
2.138286
30
0.000000
0
VERTEX
5
579d
8
0
10
47.918055
20
2.452463
30
0.000000
0
VERTEX
5
57ad
8
0
10
47.440452
20
2.769577
30
0.000000
0
VERTEX
5
57bd
8
0
10
46.966085
20
3.089845
30
0.000000
0
VERTEX
5
57cd
8
0
10
46.495143
20
3.413480
30
0.000000
0
VERTEX
5
57dd
8
0
10
46.027815
20
3.740699
30
0.000000
0
VERTEX
5
57ed
8
0
10
45.564291
20
4.071715
30
0.000000
0
VERTEX
5
57fd
8
0
10
45.104760
20
4.406745
30
0.000000
0
VERTEX
5
580d
8
0
10
44.876551
20
4.575833
30
0.000000
0
VERTEX
5
581d
8
0
10
44.649411
20
4.746004
30
0.000000
0
VERTEX
5
582d
8
0
10
44.423363
20
4.917286
30
0.000000
0
VERTEX
5
583d
8
0
10
44.198433
20
5.089706
30
0.000000
0
VERTEX
5
584d
8
0
10
43.974642
20
5.263290
30
0.000000
0
VERTEX
5
585d
8
0
10
43.752015
20
5.438066
30
0.000000
0
VERTEX
5
586d
8
0
10
43.530576
20
5.614061
30
0.000000
0
VERTEX
5
587d
8
0
10
43.310347
20
5.791300
30
0.000000
0
VERTEX
5
588d
8
0
10
43.091354
20
5.969812
30
0.000000
0
VERTEX
5
589d
8
0
10
42.873618
20
6.149623
30
0.000000
0
VERTEX
5
58ad
8
0
10
42.657165
20
6.330761
30
0.000000
0
VERTEX
5
58bd
8
0
10
42.442017
20
6.513250
30
0.000000
0
VERTEX
5
58cd
8
0
10
42.228199
20
6.697120
30
0.000000
0
VERTEX
5
58dd
8
0
10
42.015734
20
6.882396
30
0.000000
0
VERTEX
5
58ed
8
0
10
41.804645
20
7.069106
30
0.000000
0
VERTEX
5
58fd
8
0
10
41.594957
20
7.257276
30
0.000000
0
VERTEX
5
590d
8
0
10
41.386692
20
7.446934
30
0.000000
0
VERTEX
5
591d
8
0
10
41.179876
20
7.638106
30
0.000000
0
VERTEX
5
592d
8
0
10
40.974530
20
7.830818
30
0.000000
0
VERTEX
5
593d
8
0
10
40.770680
20
8.025099
30
0.000000
0
VERTEX
5
594d
8
0
10
40.568347
20
8.220975
30
0.000000
0
VERTEX
5
595d
8
0
10
40.367558
20
8.418472
30
0.000000
0
VERTEX
5
596d
8
0
10
40.168334
20
8.617618
30
0.000000
0
VERTEX
5
597d
8
0
10
39.970699
20
8.818440
30
0.000000
0
VERTEX
5
598d
8
0
10
39.774678
20
9.020964
30
0.000000
0
VERTEX
5
599d
8
0
10
39.580294
20
9.225217
30
0.000000
0
VERTEX
5
59ad
8
0
10
39.387570
20
9.431226
30
0.000000
0
VERTEX
5
59bd
8
0
10
39.196530
20
9.639019
30
0.000000
0
VERTEX
5
59cd
8
0
10
39.007198
20
9.848621
30
0.000000
0
VERTEX
5
59dd
8
0
10
38.819597
20
10.060060
30
0.000000
0
VERTEX
5
59ed
8
0
10
38.633752
20
10.273363
30
0.000000
0
VERTEX
5
59fd
8
0
10
38.449685
20
10.488557
30
0.000000
0
VERTEX
5
5a0d
8
0
10
38.267420
20
10.705668
30
0.000000
0
VERTEX
5
5a1d
8
0
10
38.086982
20
10.924723
30
0.000000
0
VERTEX
5
5a2d
8
0
10
37.908394
20
11.145750
30
0.000000
0
VERTEX
5
5a3d
8
0
10
37.731678
20
11.368775
30
0.000000
0
VERTEX
5
5a4d
8
0
10
37.556860
20
11.593825
30
0.000000
0
VERTEX
5
5a5d
8
0
10
37.383962
20
11.820927
30
0.000000
0
VERTEX
5
5a6d
8
0
10
37.213009
20
12.050108
30
0.000000
0
VERTEX
5
5a7d
8
0
10
37.044024
20
12.281394
30
0.000000
0
VERTEX
5
5a8d
8
0
10
36.877030
20
12.514813
30
0.000000
0
VERTEX
5
5a9d
8
0
10
36.712052
20
12.750392
30
0.000000
0
VERTEX
5
5aad
8
0
10
36.549112
20
12.988157
30
0.000000
0
VERTEX
5
5abd
8
0
10
36.388235
20
13.228135
30
0.000000
0
VERTEX
5
5acd
8
0
10
36.229445
20
13.470353
30
0.000000
0
VERTEX
5
5add
8
0
10
36.072764
20
13.714838
30
0.000000
0
VERTEX
5
5aed
8
0
10
36.072764
20
13.714838
30
0.000000
0
VERTEX
5
5afd
8
0
10
35.788229
20
13.731884
30
0.000000
0
VERTEX
5
5b0d
8
0
10
35.505005
20
13.751716
30
0.000000
0
VERTEX
5
5b1d
8
0
10
35.223098
20
13.774349
30
0.000000
0
VERTEX
5
5b2d
8
0
10
34.942515
20
13.799795
30
0.000000
0
VERTEX
5
5b3d
8
0
10
34.663263
20
13.828070
30
0.000000
0
VERTEX
5
5b4d
8
0
10
34.385349
20
13.859186
30
0.000000
0
VERTEX
5
5b5d
8
0
10
34.108778
20
13.893157
30
0.000000
0
VERTEX
5
5b6d
8
0
10
33.833559
20
13.929997
30
0.000000
0
VERTEX
5
5b7d
8
0
10
33.559697
20
13.969720
30
0.000000
0
VERTEX
5
5b8d
8
0
10
33.287199
20
14.012340
30
0.000000
0
VERTEX
5
5b9d
8
0
10
33.016072
20
14.057869
30
0.000000
0
VERTEX
5
5bad
8
0
10
32.746322
20
14.106323
30
0.000000
0
VERTEX
5
5bbd
8
0
10
32.477956
20
14.157715
30
0.000000
0
VERTEX
5
5bcd
8
0
10
32.210981
20
14.212058
30
0.000000
0
VERTEX
5
5bdd
8
0
10
31.945404
20
14.269366
30
0.000000
0
VERTEX
5
5bed
8
0
10
31.681231
20
14.329653
30
0.000000
0
VERTEX
5
5bfd
8
0
10
31.418468
20
14.392933
30
0.000000
0
VERTEX
5
5c0d
8
0
10
31.157123
20
14.459220
30
0.000000
0
VERTEX
5
5c1d
8
0
10
30.897202
20
14.528526
30
0.000000
0
VERTEX
5
5c2d
8
0
10
30.638712
20
14.600867
30
0.000000
0
VERTEX
5
5c3d
8
0
10
30.381659
20
14.676255
30
0.000000
0
VERTEX
5
5c4d
8
0
10
30.126050
20
14.754705
30
0.000000
0
VERTEX
5
5c5d
8
0
10
29.871892
20
14.836230
30
0.000000
0
VERTEX
5
5c6d
8
0
10
29.619192
20
14.920844
30
0.000000
0
VERTEX
5
5c7d
8
0
10
29.367955
20
15.008561
30
0.000000
0
VERTEX
5
5c8d
8
0
10
29.118189
20
15.099394
30
0.000000
0
VERTEX
5
5c9d
8
0
10
28.869901
20
15.193357
30
0.000000
0
VERTEX
5
5cad
8
0
10
28.623097
20
15.290464
30
0.000000
0
VERTEX
5
5cbd
8
0
10
28.377783
20
15.390729
30
0.000000
0
VERTEX
5
5ccd
8
0
10
28.133967
20
15.494166
30
0.000000
0
VERTEX
5
5cdd
8
0
10
27.891655
20
15.600787
30
0.000000
0
VERTEX
5
5ced
8
0
10
27.650854
20
15.710607
30
0.000000
0
VERTEX
5
5cfd
8
0
10
27.411570
20
15.823640
30
0.000000
0
VERTEX
5
5d0d
8
0
10
27.173810
20
15.939900
30
0.000000
0
VERTEX
5
5d1d
8
0
10
26.937581
20
16.059399
30
0.000000
0
VERTEX
5
5d2d
8
0
10
26.702889
20
16.182152
30
0.000000
0
VERTEX
5
5d3d
8
0
10
26.469742
20
16.308173
30
0.000000
0
VERTEX
5
5d4d
8
0
10
26.238145
20
16.437476
30
0.000000
0
VERTEX
5
5d5d
8
0
10
26.008105
20
16.570073
30
0.000000
0
VERTEX
5
5d6d
8
0
10
25.779630
20
16.705980
30
0.000000
0
VERTEX
5
5d7d
8
0
10
25.552725
20
16.845208
30
0.000000
0
VERTEX
5
5d8d
8
0
10
25.327398
20
16.987774
30
0.000000
0
VERTEX
5
5d9d
8
0
10
25.103654
20
17.133689
30
0.000000
0
VERTEX
5
5dad
8
0
10
24.881502
20
17.282968
30
0.000000
0
VERTEX
5
5dbd
8
0
10
24.660946
20
17.435625
30
0.000000
0
VERTEX
5
5dcd
8
0
10
24.441995
20
17.591673
30
0.000000
0
VERTEX
5
5ddd
8
0
10
24.224655
20
17.751126
30
0.000000
0
VERTEX
5
5ded
8
0
10
24.008931
20
17.913998
30
0.000000
0
VERTEX
5
5dfd
8
0
10
23.794832
20
18.080303
30
0.000000
0
VERTEX
5
5e0d
8
0
10
23.582364
20
18.250054
30
0.000000
0
VERTEX
5
5e1d
8
0
10
23.371533
20
18.423265
30
0.000000
0
VERTEX
5
5e2d
8
0
10
23.162346
20
18.599949
30
0.000000
0
VERTEX
5
5e3d
8
0
10
22.954809
20
18.780122
30
0.000000
0
VERTEX
5
5e4d
8
0
10
22.748930
20
18.963795
30
0.000000
0
VERTEX
5
5e5d
8
0
10
22.544715
20
19.150984
30
0.000000
0
VERTEX
5
5e6d
8
0
10
22.342171
20
19.341701
30
0.000000
0
VERTEX
5
5e7d
8
0
10
22.141304
20
19.535961
30
0.000000
0
VERTEX
5
5e8d
8
0
10
21.942121
20
19.733777
30
0.000000
0
VERTEX
5
5e9d
8
0
10
21.744629
20
19.935163
30
0.000000
0
VERTEX
5
5ead
8
0
10
21.548834
20
20.140133
30
0.000000
0
VERTEX
5
5ebd
8
0
10
21.354743
20
20.348700
30
0.000000
0
VERTEX
5
5ecd
8
0
10
21.162362
20
20.560879
30
0.000000
0
VERTEX
5
5edd
8
0
10
20.971699
20
20.776682
30
0.000000
0
VERTEX
5
5eed
8
0
10
20.782760
20
20.996125
30
0.000000
0
VERTEX
5
5efd
8
0
10
20.782760
20
20.996125
30
0.000000
0
VERTEX
5
5f0d
8
0
10
20.464849
20
20.970365
30
0.000000
0
VERTEX
5
5f1d
8
0
10
20.147108
20
20.946745
30
0.000000
0
VERTEX
5
5f2d
8
0
10
19.829536
20
20.925241
30
0.000000
0
VERTEX
5
5f3d
8
0
10
19.512130
20
20.905828
30
0.000000
0
VERTEX
5
5f4d
8
0
10
19.194889
20
20.888481
30
0.000000
0
VERTEX
5
5f5d
8
0
10
18.877811
20
20.873175
30
0.000000
0
VERTEX
5
5f6d
8
0
10
18.560894
20
20.859885
30
0.000000
0
VERTEX
5
5f7d
8
0
10
18.244136
20
20.848586
30
0.000000
0
VERTEX
5
5f8d
8
0
10
17.927535
20
20.839253
30
0.000000
0
VERTEX
5
5f9d
8
0
10
17.611089
20
20.831861
30
0.000000
0
VERTEX
5
5fad
8
0
10
17.294796
20
20.826386
30
0.000000
0
VERTEX
5
5fbd
8
0
10
16.978655
20
20.822801
30
0.000000
0
VERTEX
5
5fcd
8
0
10
16.662663
20
20.821083
30
0.000000
0
VERTEX
5
5fdd
8
0
10
16.346818
20
20.821207
30
0.000000
0
VERTEX
5
5fed
8
0
10
16.031119
20
20.823147
30
0.000000
0
VERTEX
5
5ffd
8
0
10
15.715563
20
20.826878
30
0.000000
0
VERTEX
5
600d
8
0
10
15.400149
20
20.832376
30
0.000000
0
VERTEX
5
601d
8
0
10
15.084874
20
20.839616
30
0.000000
0
VERTEX
5
602d
8
0
10
14.769737
20
20.848573
30
0.000000
0
VERTEX
5
603d
8
0
10
14.454736
20
20.859221
30
0.000000
0
VERTEX
5
604d
8
0
10
14.139869
20
20.871536
30
0.000000
0
VERTEX
5
605d
8
0
10
13.825134
20
20.885493
30
0.000000
0
VERTEX
5
606d
8
0
10
13.510529
20
20.901067
30
0.000000
0
VERTEX
5
607d
8
0
10
13.196051
20
20.918234
30
0.000000
0
VERTEX
5
608d
8
0
10
12.881700
20
20.936967
30
0.000000
0
VERTEX
5
609d
8
0
10
12.567474
20
20.957242
30
0.000000
0
VERTEX
5
60ad
8
0
10
12.253369
20
20.979035
30
0.000000
0
VERTEX
5
60bd
8
0
10
11.939385
20
21.002320
30
0.000000
0
VERTEX
5
60cd
8
0
10
11.311769
20
21.053267
30
0.000000
0
VERTEX
5
60dd
8
0
10
10.684612
20
21.109884
30
0.000000
0
VERTEX
5
60ed
8
0
10
10.057898
20
21.171971
30
0.000000
0
VERTEX
5
60fd
8
0
10
9.431610
20
21.239330
30
0.000000
0
VERTEX
5
610d
8
0
10
8.805735
20
21.311760
30
0.000000
0
VERTEX
5
611d
8
0
10
8.180256
20
21.389062
30
0.000000
0
VERTEX
5
612d
8
0
10
7.555157
20
21.471036
30
0.000000
0
VERTEX
5
613d
8
0
10
6.930424
20
21.557483
30
0.000000
0
VERTEX
5
614d
8
0
10
6.306041
20
21.648204
30
0.000000
0
VERTEX
5
615d
8
0
10
5.681992
20
21.742999
30
0.000000
0
VERTEX
5
616d
8
0
10
5.058263
20
21.841668
30
0.000000
0
VERTEX
5
617d
8
0
10
4.434837
20
21.944013
30
0.000000
0
VERTEX
5
618d
8
0
10
3.811699
20
22.049832
30
0.000000
0
VERTEX
5
619d
8
0
10
3.188833
20
22.158928
30
0.000000
0
VERTEX
5
61ad
8
0
10
2.566225
20
22.271100
30
0.000000
0
VERTEX
5
61bd
8
0
10
1.943858
20
22.386150
30
0.000000
0
VERTEX
5
61cd
8
0
10
1.321718
20
22.503876
30
0.000000
0
VERTEX
5
61dd
8
0
10
0.699788
20
22.624081
30
0.000000
0
VERTEX
5
61ed
8
0
10
0.781779
20
23.585811
30
0.000000
0
VERTEX
5
61fd
8
0
10
0.781779
20
23.585811
30
0.000000
0
VERTEX
5
620d
8
0
10
1.006865
20
23.718752
30
0.000000
0
VERTEX
5
621d
8
0
10
1.232645
20
23.848524
30
0.000000
0
VERTEX
5
622d
8
0
10
1.459111
20
23.975168
30
0.000000
0
VERTEX
5
623d
8
0
10
1.686255
20
24.098726
30
0.000000
0
VERTEX
5
624d
8
0
10
1.914068
20
24.219238
30
0.000000
0
VERTEX
5
625d
8
0
10
2.142543
20
24.336747
30
0.000000
0
VERTEX
5
626d
8
0
10
2.371670
20
24.451293
30
0.000000
0
VERTEX
5
627d
8
0
10
2.601442
20
24.562917
30
0.000000
0
VERTEX
5
628d
8
0
10
2.831851
20
24.671662
30
0.000000
0
VERTEX
5
629d
8
0
10
3.062887
20
24.777568
30
0.000000
0
VERTEX
5
62ad
8
0
10
3.294544
20
24.880676
30
0.000000
0
VERTEX
5
62bd
8
0
10
3.526812
20
24.981028
30
0.000000
0
VERTEX
5
62cd
8
0
10
3.759683
20
25.078666
30
0.000000
0
VERTEX
5
62dd
8
0
10
3.993149
20
25.173629
30
0.000000
0
VERTEX
5
62ed
8
0
10
4.227202
20
25.265961
30
0.000000
0
VERTEX
5
62fd
8
0
10
4.461834
20
25.355702
30
0.000000
0
VERTEX
5
630d
8
0
10
4.697035
20
25.442893
30
0.000000
0
VERTEX
5
631d
8
0
10
4.932798
20
25.527575
30
0.000000
0
VERTEX
5
632d
8
0
10
5.169115
20
25.609791
30
0.000000
0
VERTEX
5
633d
8
0
10
5.405977
20
25.689581
30
0.000000
0
VERTEX
5
634d
8
0
10
5.643377
20
25.766986
30
0.000000
0
VERTEX
5
635d
8
0
10
5.881304
20
25.842048
30
0.000000
0
VERTEX
5
636d
8
0
10
6.119753
20
25.914809
30
0.000000
0
VERTEX
5
637d
8
0
10
6.358713
20
25.985309
30
0.000000
0
VERTEX
5
638d
8
0
10
6.598178
20
26.053589
30
0.000000
0
VERTEX
5
639d
8
0
10
6.838137
20
26.119692
30
0.000000
0
VERTEX
5
63ad
8
0
10
7.078585
20
26.183657
30
0.000000
0
VERTEX
5
63bd
8
0
10
7.319511
20
26.245528
30
0.000000
0
VERTEX
5
63cd
8
0
10
7.560908
20
26.305344
30
0.000000
0
VERTEX
5
63dd
8
0
10
7.802767
20
26.363148
30
0.000000
0
VERTEX
5
63ed
8
0
10
8.045081
20
26.418980
30
0.000000
0
VERTEX
5
63fd
8
0
10
8.287841
20
26.472882
30
0.000000
0
VERTEX
5
640d
8
0
10
8.531038
20
26.524895
30
0.000000
0
VERTEX
5
641d
8
0
10
8.774664
20
26.575060
30
0.000000
0
VERTEX
5
642d
8
0
10
9.018712
20
26.623419
30
0.000000
0
VERTEX
5
643d
8
0
10
9.263172
20
26.670013
30
0.000000
0
VERTEX
5
644d
8
0
10
9.508037
20
26.714884
30
0.000000
0
VERTEX
5
645d
8
0
10
9.753298
20
26.758072
30
0.000000
0
VERTEX
5
646d
8
0
10
9.998947
20
26.799619
30
0.000000
0
VERTEX
5
647d
8
0
10
10.244976
20
26.839566
30
0.000000
0
VERTEX
5
648d
8
0
10
10.491376
20
26.877954
30
0.000000
0
VERTEX
5
649d
8
0
10
10.738139
20
26.914825
30
0.000000
0
VERTEX
5
64ad
8
0
10
11.232721
20
26.984182
30
0.000000
0
VERTEX
5
64bd
8
0
10
11.728657
20
27.047964
30
0.000000
0
VERTEX
5
64cd
8
0
10
12.225879
20
27.106504
30
0.000000
0
VERTEX
5
64dd
8
0
10
12.724321
20
27.160131
30
0.000000
0
VERTEX
5
64ed
8
0
10
13.223918
20
27.209176
30
0.000000
0
VERTEX
5
64fd
8
0
10
13.724602
20
27.253970
30
0.000000
0
VERTEX
5
650d
8
0
10
14.226308
20
27.294841
30
0.000000
0
VERTEX
5
651d
8
0
10
14.728970
20
27.332122
30
0.000000
0
VERTEX
5
652d
8
0
10
15.232521
20
27.366142
30
0.000000
0
VERTEX
5
653d
8
0
10
15.736895
20
27.397232
30
0.000000
0
VERTEX
5
654d
8
0
10
16.242025
20
27.425721
30
0.000000
0
VERTEX
5
655d
8
0
10
16.242025
20
27.425721
30
0.000000
0
VERTEX
5
656d
8
0
10
15.873142
20
27.361662
30
0.000000
0
VERTEX
5
657d
8
0
10
15.502532
20
27.301602
30
0.000000
0
VERTEX
5
658d
8
0
10
15.130588
20
27.244575
30
0.000000
0
VERTEX
5
659d
8
0
10
14.757703
20
27.189616
30
0.000000
0
VERTEX
5
65ad
8
0
10
14.010681
20
27.082045
30
0.000000
0
VERTEX
5
65bd
8
0
10
13.637329
20
27.027502
30
0.000000
0
VERTEX
5
65cd
8
0
10
13.264607
20
26.971169
30
0.000000
0
VERTEX
5
65dd
8
0
10
12.892908
20
26.912080
30
0.000000
0
VERTEX
5
65ed
8
0
10
12.522623
20
26.849271
30
0.000000
0
VERTEX
5
65fd
8
0
10
12.154147
20
26.781776
30
0.000000
0
VERTEX
5
660d
8
0
10
11.970709
20
26.745970
30
0.000000
0
VERTEX
5
661d
8
0
10
11.787871
20
26.708631
30
0.000000
0
VERTEX
5
662d
8
0
10
11.605681
20
26.669638
30
0.000000
0
VERTEX
5
663d
8
0
10
11.424188
20
26.628871
30
0.000000
0
VERTEX
5
664d
8
0
10
11.243442
20
26.586209
30
0.000000
0
VERTEX
5
665d
8
0
10
11.063491
20
26.541531
30
0.000000
0
VERTEX
5
666d
8
0
10
10.884386
20
26.494717
30
0.000000
0
VERTEX
5
667d
8
0
10
10.706174
20
26.445646
30
0.000000
0
VERTEX
5
668d
8
0
10
10.528904
20
26.394198
30
0.000000
0
VERTEX
5
669d
8
0
10
10.352627
20
26.340251
30
0.000000
0
VERTEX
5
66ad
8
0
10
10.177391
20
26.283687
30
0.000000
0
VERTEX
5
66bd
8
0
10
10.003245
20
26.224382
30
0.000000
0
VERTEX
5
66cd
8
0
10
9.830238
20
26.162218
30
0.000000
0
VERTEX
5
66dd
8
0
10
9.658420
20
26.097074
30
0.000000
0
VERTEX
5
66ed
8
0
10
9.487839
20
26.028829
30
0.000000
0
VERTEX
5
66fd
8
0
10
9.318544
20
25.957361
30
0.000000
0
VERTEX
5
670d
8
0
10
9.150585
20
25.882552
30
0.000000
0
VERTEX
5
671d
8
0
10
8.984011
20
25.804280
30
0.000000
0
VERTEX
5
672d
8
0
10
8.818870
20
25.722424
30
0.000000
0
VERTEX
5
673d
8
0
10
8.655212
20
25.636864
30
0.000000
0
VERTEX
5
674d
8
0
10
8.493087
20
25.547480
30
0.000000
0
VERTEX
5
675d
8
0
10
8.332542
20
25.454150
30
0.000000
0
VERTEX
5
676d
8
0
10
8.173627
20
25.356754
30
0.000000
0
VERTEX
5
677d
8
0
10
8.016392
20
25.255172
30
0.000000
0
VERTEX
5
678d
8
0
10
7.860885
20
25.149283
30
0.000000
0
VERTEX
5
679d
8
0
10
7.707155
20
25.038966
30
0.000000
0
VERTEX
5
67ad
8
0
10
7.555252
20
24.924100
30
0.000000
0
VERTEX
5
67bd
8
0
10
7.405224
20
24.804566
30
0.000000
0
VERTEX
5
67cd
8
0
10
7.257121
20
24.680242
30
0.000000
0
VERTEX
5
67dd
8
0
10
7.110992
20
24.551008
30
0.000000
0
VERTEX
5
67ed
8
0
10
6.966885
20
24.416744
30
0.000000
0
VERTEX
5
67fd
8
0
10
6.824850
20
24.277328
30
0.000000
0
VERTEX
5
680d
8
0
10
6.684937
20
24.132639
30
0.000000
0
VERTEX
5
681d
8
0
10
6.547194
20
23.982559
30
0.000000
0
VERTEX
5
682d
8
0
10
6.411669
20
23.826965
30
0.000000
0
VERTEX
5
683d
8
0
10
6.278413
20
23.665738
30
0.000000
0
VERTEX
5
684d
8
0
10
6.147475
20
23.498756
30
0.000000
0
VERTEX
5
685d
8
0
10
6.018903
20
23.325899
30
0.000000
0
VERTEX
5
686d
8
0
10
5.892746
20
23.147046
30
0.000000
0
VERTEX
5
687d
8
0
10
5.769054
20
22.962078
30
0.000000
0
VERTEX
5
688d
8
0
10
5.647876
20
22.770872
30
0.000000
0
VERTEX
5
689d
8
0
10
5.529260
20
22.573309
30
0.000000
0
VERTEX
5
68ad
8
0
10
5.529260
20
22.573309
30
0.000000
0
VERTEX
5
68bd
8
0
10
5.972035
20
22.453258
30
0.000000
0
VERTEX
5
68cd
8
0
10
6.415511
20
22.338560
30
0.000000
0
VERTEX
5
68dd
8
0
10
6.859682
20
22.229279
30
0.000000
0
VERTEX
5
68ed
8
0
10
7.304544
20
22.125480
30
0.000000
0
VERTEX
5
68fd
8
0
10
7.750090
20
22.027224
30
0.000000
0
VERTEX
5
690d
8
0
10
8.196315
20
21.934576
30
0.000000
0
VERTEX
5
691d
8
0
10
8.643211
20
21.847600
30
0.000000
0
VERTEX
5
692d
8
0
10
9.090775
20
21.766359
30
0.000000
0
VERTEX
5
693d
8
0
10
9.539000
20
21.690916
30
0.000000
0
VERTEX
5
694d
8
0
10
9.987880
20
21.621336
30
0.000000
0
VERTEX
5
695d
8
0
10
10.437409
20
21.557682
30
0.000000
0
VERTEX
5
696d
8
0
10
10.662415
20
21.528097
30
0.000000
0
VERTEX
5
697d
8
0
10
10.887582
20
21.500017
30
0.000000
0
VERTEX
5
698d
8
0
10
11.112907
20
21.473450
30
0.000000
0
VERTEX
5
699d
8
0
10
11.338392
20
21.448405
30
0.000000
0
VERTEX
5
69ad
8
0
10
11.564034
20
21.424888
30
0.000000
0
VERTEX
5
69bd
8
0
10
11.789834
20
21.402909
30
0.000000
0
VERTEX
5
69cd
8
0
10
12.015791
20
21.382475
30
0.000000
0
VERTEX
5
69dd
8
0
10
12.241903
20
21.363594
30
0.000000
0
VERTEX
5
69ed
8
0
10
12.468170
20
21.346274
30
0.000000
0
VERTEX
5
69fd
8
0
10
12.694591
20
21.330523
30
0.000000
0
VERTEX
5
6a0d
8
0
10
12.921167
20
21.316348
30
0.000000
0
VERTEX
5
6a1d
8
0
10
13.147895
20
21.303758
30
0.000000
0
VERTEX
5
6a2d
8
0
10
13.374775
20
21.292761
30
0.000000
0
VERTEX
5
6a3d
8
0
10
13.601806
20
21.283365
30
0.000000
0
VERTEX
5
6a4d
8
0
10
13.828989
20
21.275578
30
0.000000
0
VERTEX
5
6a5d
8
0
10
14.056321
20
21.269407
30
0.000000
0
VERTEX
5
6a6d
8
0
10
14.283803
20
21.264860
30
0.000000
0
VERTEX
5
6a7d
8
0
10
14.511433
20
21.261946
30
0.000000
0
VERTEX
5
6a8d
8
0
10
14.739211
20
21.260672
30
0.000000
0
VERTEX
5
6a9d
8
0
10
14.967136
20
21.261047
30
0.000000
0
VERTEX
5
6aad
8
0
10
15.195207
20
21.263078
30
0.000000
0
VERTEX
5
6abd
8
0
10
15.423424
20
21.266773
30
0.000000
0
VERTEX
5
6acd
8
0
10
15.651786
20
21.272141
30
0.000000
0
VERTEX
5
6add
8
0
10
15.880292
20
21.279189
30
0.000000
0
VERTEX
5
6aed
8
0
10
16.108942
20
21.287925
30
0.000000
0
VERTEX
5
6afd
8
0
10
16.337734
20
21.298356
30
0.000000
0
VERTEX
5
6b0d
8
0
10
16.566668
20
21.310492
30
0.000000
0
VERTEX
5
6b1d
8
0
10
16.795744
20
21.324340
30
0.000000
0
VERTEX
5
6b2d
8
0
10
17.024960
20
21.339908
30
0.000000
0
VERTEX
5
6b3d
8
0
10
17.254316
20
21.357204
30
0.000000
0
VERTEX
5
6b4d
8
0
10
17.483811
20
21.376235
30
0.000000
0
VERTEX
5
6b5d
8
0
10
17.713444
20
21.397010
30
0.000000
0
VERTEX
5
6b6d
8
0
10
17.943215
20
21.419537
30
0.000000
0
VERTEX
5
6b7d
8
0
10
18.173123
20
21.443823
30
0.000000
0
VERTEX
5
6b8d
8
0
10
18.403167
20
21.469878
30
0.000000
0
VERTEX
5
6b9d
8
0
10
18.633347
20
21.497707
30
0.000000
0
VERTEX
5
6bad
8
0
10
18.863661
20
21.527320
30
0.000000
0
VERTEX
5
6bbd
8
0
10
19.094110
20
21.558725
30
0.000000
0
VERTEX
5
6bcd
8
0
10
19.324691
20
21.591929
30
0.000000
0
VERTEX
5
6bdd
8
0
10
19.555405
20
21.626940
30
0.000000
0
VERTEX
5
6bed
8
0
10
19.786251
20
21.663767
30
0.000000
0
VERTEX
5
6bfd
8
0
10
20.017228
20
21.702416
30
0.000000
0
VERTEX
5
6c0d
8
0
10
20.017228
20
21.702416
30
0.000000
0
VERTEX
5
6c1d
8
0
10
20.229256
20
21.511178
30
0.000000
0
VERTEX
5
6c2d
8
0
10
20.442144
20
21.321353
30
0.000000
0
VERTEX
5
6c3d
8
0
10
20.655913
20
21.132985
30
0.000000
0
VERTEX
5
6c4d
8
0
10
20.870579
20
20.946115
30
0.000000
0
VERTEX
5
6c5d
8
0
10
21.086161
20
20.760787
30
0.000000
0
VERTEX
5
6c6d
8
0
10
21.302677
20
20.577042
30
0.000000
0
VERTEX
5
6c7d
8
0
10
21.520145
20
20.394923
30
0.000000
0
VERTEX
5
6c8d
8
0
10
21.738582
20
20.214472
30
0.000000
0
VERTEX
5
6c9d
8
0
10
21.958006
20
20.035732
30
0.000000
0
VERTEX
5
6cad
8
0
10
22.178437
20
19.858745
30
0.000000
0
VERTEX
5
6cbd
8
0
10
22.399891
20
19.683553
30
0.000000
0
VERTEX
5
6ccd
8
0
10
22.622387
20
19.510199
30
0.000000
0
VERTEX
5
6cdd
8
0
10
22.845942
20
19.338725
30
0.000000
0
VERTEX
5
6ced
8
0
10
23.070575
20
19.169173
30
0.000000
0
VERTEX
5
6cfd
8
0
10
23.296304
20
19.001586
30
0.000000
0
VERTEX
5
6d0d
8
0
10
23.523146
20
18.836006
30
0.000000
0
VERTEX
5
6d1d
8
0
10
23.751120
20
18.672476
30
0.000000
0
VERTEX
5
6d2d
8
0
10
23.980243
20
18.511037
30
0.000000
0
VERTEX
5
6d3d
8
0
10
24.210535
20
18.351733
30
0.000000
0
VERTEX
5
6d4d
8
0
10
24.442011
20
18.194606
30
0.000000
0
VERTEX
5
6d5d
8
0
10
24.674692
20
18.039697
30
0.000000
0
VERTEX
5
6d6d
8
0
10
24.908593
20
17.887049
30
0.000000
0
VERTEX
5
6d7d
8
0
10
25.143735
20
17.736706
30
0.000000
0
VERTEX
5
6d8d
8
0
10
25.380134
20
17.588708
30
0.000000
0
VERTEX
5
6d9d
8
0
10
25.617808
20
17.443099
30
0.000000
0
VERTEX
5
6dad
8
0
10
25.856776
20
17.299920
30
0.000000
0
VERTEX
5
6dbd
8
0
10
26.097056
20
17.159215
30
0.000000
0
VERTEX
5
6dcd
8
0
10
26.338665
20
17.021025
30
0.000000
0
VERTEX
5
6ddd
8
0
10
26.581622
20
16.885393
30
0.000000
0
VERTEX
5
6ded
8
0
10
26.825944
20
16.752361
30
0.000000
0
VERTEX
5
6dfd
8
0
10
27.071650
20
16.621971
30
0.000000
0
VERTEX
5
6e0d
8
0
10
27.318757
20
16.494267
30
0.000000
0
VERTEX
5
6e1d
8
0
10
27.567284
20
16.369290
30
0.000000
0
VERTEX
5
6e2d
8
0
10
27.817248
20
16.247082
30
0.000000
0
VERTEX
5
6e3d
8
0
10
28.068668
20
16.127687
30
0.000000
0
VERTEX
5
6e4d
8
0
10
28.321561
20
16.011146
30
0.000000
0
VERTEX
5
6e5d
8
0
10
28.575946
20
15.897502
30
0.000000
0
VERTEX
5
6e6d
8
0
10
28.831840
20
15.786796
30
0.000000
0
VERTEX
5
6e7d
8
0
10
29.089262
20
15.679073
30
0.000000
0
VERTEX
5
6e8d
8
0
10
29.348229
20
15.574373
30
0.000000
0
VERTEX
5
6e9d
8
0
10
29.608759
20
15.472739
30
0.000000
0
VERTEX
5
6ead
8
0
10
29.870871
20
15.374214
30
0.000000
0
VERTEX
5
6ebd
8
0
10
30.134583
20
15.278840
30
0.000000
0
VERTEX
5
6ecd
8
0
10
30.399912
20
15.186659
30
0.000000
0
VERTEX
5
6edd
8
0
10
30.666876
20
15.097713
30
0.000000
0
VERTEX
5
6eed
8
0
10
30.935494
20
15.012046
30
0.000000
0
VERTEX
5
6efd
8
0
10
31.205783
20
14.929699
30
0.000000
0
VERTEX
5
6f0d
8
0
10
31.477761
20
14.850715
30
0.000000
0
VERTEX
5
6f1d
8
0
10
31.751447
20
14.775136
30
0.000000
0
VERTEX
5
6f2d
8
0
10
32.026858
20
14.703004
30
0.000000
0
VERTEX
5
6f3d
8
0
10
32.304013
20
14.634362
30
0.000000
0
VERTEX
5
6f4d
8
0
10
32.582929
20
14.569252
30
0.000000
0
VERTEX
5
6f5d
8
0
10
32.863624
20
14.507717
30
0.000000
0
VERTEX
5
6f6d
8
0
10
33.146117
20
14.449799
30
0.000000
0
VERTEX
5
6f7d
8
0
10
33.430425
20
14.395540
30
0.000000
0
VERTEX
5
6f8d
8
0
10
33.716566
20
14.344983
30
0.000000
0
VERTEX
5
6f9d
8
0
10
34.004559
20
14.298169
30
0.000000
0
VERTEX
5
6fad
8
0
10
34.294421
20
14.255142
30
0.000000
0
VERTEX
5
6fbd
8
0
10
34.586170
20
14.215944
30
0.000000
0
VERTEX
5
6fcd
8
0
10
34.879825
20
14.180617
30
0.000000
0
VERTEX
5
6fdd
8
0
10
35.175403
20
14.149203
30
0.000000
0
VERTEX
5
6fed
8
0
10
35.472922
20
14.121745
30
0.000000
0
VERTEX
5
6ffd
8
0
10
35.772400
20
14.098285
30
0.000000
0
VERTEX
5
700d
8
0
10
36.073856
20
14.078866
30
0.000000
0
VERTEX
5
701d
8
0
10
36.073856
20
14.078866
30
0.000000
0
VERTEX
5
702d
8
0
10
36.192491
20
13.889173
30
0.000000
0
VERTEX
5
703d
8
0
10
36.312587
20
13.700843
30
0.000000
0
VERTEX
5
704d
8
0
10
36.434136
20
13.513863
30
0.000000
0
VERTEX
5
705d
8
0
10
36.557129
20
13.328222
30
0.000000
0
VERTEX
5
706d
8
0
10
36.681559
20
13.143906
30
0.000000
0
VERTEX
5
707d
8
0
10
36.807418
20
12.960902
30
0.000000
0
VERTEX
5
708d
8
0
10
36.934696
20
12.779200
30
0.000000
0
VERTEX
5
709d
8
0
10
37.063385
20
12.598785
30
0.000000
0
VERTEX
5
70ad
8
0
10
37.193478
20
12.419645
30
0.000000
0
VERTEX
5
70bd
8
0
10
37.324966
20
12.241769
30
0.000000
0
VERTEX
5
70cd
8
0
10
37.457841
20
12.065143
30
0.000000
0
VERTEX
5
70dd
8
0
10
37.592094
20
11.889755
30
0.000000
0
VERTEX
5
70ed
8
0
10
37.727717
20
11.715593
30
0.000000
0
VERTEX
5
70fd
8
0
10
37.864702
20
11.542644
30
0.000000
0
VERTEX
5
710d
8
0
10
38.003040
20
11.370895
30
0.000000
0
VERTEX
5
711d
8
0
10
38.142724
20
11.200334
30
0.000000
0
VERTEX
5
712d
8
0
10
38.283745
20
11.030949
30
0.000000
0
VERTEX
5
713d
8
0
10
38.426094
20
10.862727
30
0.000000
0
VERTEX
5
714d
8
0
10
38.569764
20
10.695656
30
0.000000
0
VERTEX
5
715d
8
0
10
38.714745
20
10.529723
30
0.000000
0
VERTEX
5
716d
8
0
10
38.861031
20
10.364915
30
0.000000
0
VERTEX
5
717d
8
0
10
39.008612
20
10.201221
30
0.000000
0
VERTEX
5
718d
8
0
10
39.157481
20
10.038627
30
0.000000
0
VERTEX
5
719d
8
0
10
39.307628
20
9.877121
30
0.000000
0
VERTEX
5
71ad
8
0
10
39.459046
20
9.716691
30
0.000000
0
VERTEX
5
71bd
8
0
10
39.611726
20
9.557325
30
0.000000
0
VERTEX
5
71cd
8
0
10
39.765661
20
9.399009
30
0.000000
0
VERTEX
5
71dd
8
0
10
39.920841
20
9.241731
30
0.000000
0
VERTEX
5
71ed
8
0
10
40.077259
20
9.085479
30
0.000000
0
VERTEX
5
71fd
8
0
10
40.234906
20
8.930240
30
0.000000
0
VERTEX
5
720d
8
0
10
40.393774
20
8.776002
30
0.000000
0
VERTEX
5
721d
8
0
10
40.553854
20
8.622752
30
0.000000
0
VERTEX
5
722d
8
0
10
40.715139
20
8.470478
30
0.000000
0
VERTEX
5
723d
8
0
10
40.877620
20
8.319167
30
0.000000
0
VERTEX
5
724d
8
0
10
41.206137
20
8.019386
30
0.000000
0
VERTEX
5
725d
8
0
10
41.539338
20
7.723308
30
0.000000
0
VERTEX
5
726d
8
0
10
41.877158
20
7.430833
30
0.000000
0
VERTEX
5
727d
8
0
10
42.219530
20
7.141863
30
0.000000
0
VERTEX
5
728d
8
0
10
42.566388
20
6.856295
30
0.000000
0
VERTEX
5
729d
8
0
10
42.917666
20
6.574032
30
0.000000
0
VERTEX
5
72ad
8
0
10
43.273297
20
6.294972
30
0.000000
0
VERTEX
5
72bd
8
0
10
43.633215
20
6.019016
30
0.000000
0
VERTEX
5
72cd
8
0
10
43.997353
20
5.746065
30
0.000000
0
VERTEX
5
72dd
8
0
10
44.365645
20
5.476018
30
0.000000
0
VERTEX
5
72ed
8
0
10
44.738026
20
5.208775
30
0.000000
0
VERTEX
5
72fd
8
0
10
45.114428
20
4.944236
30
0.000000
0
VERTEX
5
730d
8
0
10
45.494786
20
4.682302
30
0.000000
0
VERTEX
5
731d
8
0
10
45.879033
20
4.422873
30
0.000000
0
VERTEX
5
732d
8
0
10
46.267102
20
4.165848
30
0.000000
0
VERTEX
5
733d
8
0
10
46.267102
20
4.165848
30
0.000000
0
VERTEX
5
734d
8
0
10
46.317590
20
4.298233
30
0.000000
0
VERTEX
5
735d
8
0
10
46.365406
20
4.429629
30
0.000000
0
VERTEX
5
736d
8
0
10
46.410579
20
4.560047
30
0.000000
0
VERTEX
5
737d
8
0
10
46.453139
20
4.689498
30
0.000000
0
VERTEX
5
738d
8
0
10
46.493117
20
4.817993
30
0.000000
0
VERTEX
5
739d
8
0
10
46.530541
20
4.945544
30
0.000000
0
VERTEX
5
73ad
8
0
10
46.565442
20
5.072161
30
0.000000
0
VERTEX
5
73bd
8
0
10
46.597849
20
5.197855
30
0.000000
0
VERTEX
5
73cd
8
0
10
46.627793
20
5.322638
30
0.000000
0
VERTEX
5
73dd
8
0
10
46.655302
20
5.446521
30
0.000000
0
VERTEX
5
73ed
8
0
10
46.680408
20
5.569515
30
0.000000
0
VERTEX
5
73fd
8
0
10
46.703138
20
5.691630
30
0.000000
0
VERTEX
5
740d
8
0
10
46.723524
20
5.812878
30
0.000000
0
VERTEX
5
741d
8
0
10
46.741595
20
5.933271
30
0.000000
0
VERTEX
5
742d
8
0
10
46.757381
20
6.052818
30
0.000000
0
VERTEX
5
743d
8
0
10
46.770912
20
6.171532
30
0.000000
0
VERTEX
5
744d
8
0
10
46.782217
20
6.289423
30
0.000000
0
VERTEX
5
745d
8
0
10
46.791326
20
6.406502
30
0.000000
0
VERTEX
5
746d
8
0
10
46.798269
20
6.522781
30
0.000000
0
VERTEX
5
747d
8
0
10
46.803076
20
6.638271
30
0.000000
0
VERTEX
5
748d
8
0
10
46.805776
20
6.752982
30
0.000000
0
VERTEX
5
749d
8
0
10
46.806400
20
6.866926
30
0.000000
0
VERTEX
5
74ad
8
0
10
46.804977
20
6.980114
30
0.000000
0
VERTEX
5
74bd
8
0
10
46.801536
20
7.092556
30
0.000000
0
VERTEX
5
74cd
8
0
10
46.796109
20
7.204265
30
0.000000
0
VERTEX
5
74dd
8
0
10
46.788724
20
7.315251
30
0.000000
0
VERTEX
5
74ed
8
0
10
46.779411
20
7.425525
30
0.000000
0
VERTEX
5
74fd
8
0
10
46.768200
20
7.535098
30
0.000000
0
VERTEX
5
750d
8
0
10
46.755120
20
7.643982
30
0.000000
0
VERTEX
5
751d
8
0
10
46.740203
20
7.752187
30
0.000000
0
VERTEX
5
752d
8
0
10
46.723477
20
7.859725
30
0.000000
0
VERTEX
5
753d
8
0
10
46.704971
20
7.966607
30
0.000000
0
VERTEX
5
754d
8
0
10
46.684717
20
8.072843
30
0.000000
0
VERTEX
5
755d
8
0
10
46.662744
20
8.178445
30
0.000000
0
VERTEX
5
756d
8
0
10
46.639080
20
8.283424
30
0.000000
0
VERTEX
5
757d
8
0
10
46.613758
20
8.387791
30
0.000000
0
VERTEX
5
758d
8
0
10
46.586805
20
8.491557
30
0.000000
0
VERTEX
5
759d
8
0
10
46.558252
20
8.594734
30
0.000000
0
VERTEX
5
75ad
8
0
10
46.528128
20
8.697331
30
0.000000
0
VERTEX
5
75bd
8
0
10
46.496464
20
8.799361
30
0.000000
0
VERTEX
5
75cd
8
0
10
46.463289
20
8.900835
30
0.000000
0
VERTEX
5
75dd
8
0
10
46.428633
20
9.001763
30
0.000000
0
VERTEX
5
75ed
8
0
10
46.392526
20
9.102157
30
0.000000
0
VERTEX
5
75fd
8
0
10
46.354997
20
9.202027
30
0.000000
0
VERTEX
5
760d
8
0
10
46.275794
20
9.400243
30
0.000000
0
VERTEX
5
761d
8
0
10
46.191262
20
9.596498
30
0.000000
0
VERTEX
5
762d
8
0
10
46.101640
20
9.790883
30
0.000000
0
VERTEX
5
763d
8
0
10
46.007166
20
9.983485
30
0.000000
0
VERTEX
5
764d
8
0
10
45.908078
20
10.174393
30
0.000000
0
VERTEX
5
765d
8
0
10
45.804614
20
10.363696
30
0.000000
0
VERTEX
5
766d
8
0
10
45.697012
20
10.551483
30
0.000000
0
VERTEX
5
767d
8
0
10
45.585512
20
10.737843
30
0.000000
0
VERTEX
5
768d
8
0
10
45.470350
20
10.922863
30
0.000000
0
VERTEX
5
769d
8
0
10
45.351766
20
11.106633
30
0.000000
0
VERTEX
5
76ad
8
0
10
45.229997
20
11.289242
30
0.000000
0
VERTEX
5
76bd
8
0
10
45.105282
20
11.470779
30
0.000000
0
VERTEX
5
76cd
8
0
10
44.977859
20
11.651331
30
0.000000
0
VERTEX
5
76dd
8
0
10
44.847966
20
11.830988
30
0.000000
0
VERTEX
5
76ed
8
0
10
44.715842
20
12.009838
30
0.000000
0
VERTEX
5
76fd
8
0
10
44.581725
20
12.187971
30
0.000000
0
VERTEX
5
770d
8
0
10
44.445852
20
12.365475
30
0.000000
0
VERTEX
5
771d
8
0
10
44.308463
20
12.542438
30
0.000000
0
VERTEX
5
772d
8
0
10
44.030087
20
12.895098
30
0.000000
0
VERTEX
5
773d
8
0
10
43.748503
20
13.246662
30
0.000000
0
VERTEX
5
774d
8
0
10
43.183335
20
13.949338
30
0.000000
0
VERTEX
5
775d
8
0
10
42.903563
20
14.301870
30
0.000000
0
VERTEX
5
776d
8
0
10
42.628206
20
14.656145
30
0.000000
0
VERTEX
5
777d
8
0
10
42.492779
20
14.834158
30
0.000000
0
VERTEX
5
778d
8
0
10
42.359171
20
15.012872
30
0.000000
0
VERTEX
5
779d
8
0
10
42.227620
20
15.192377
30
0.000000
0
VERTEX
5
77ad
8
0
10
42.098364
20
15.372761
30
0.000000
0
VERTEX
5
77bd
8
0
10
41.971641
20
15.554113
30
0.000000
0
VERTEX
5
77cd
8
0
10
41.847690
20
15.736521
30
0.000000
0
VERTEX
5
77dd
8
0
10
41.726749
20
15.920075
30
0.000000
0
VERTEX
5
77ed
8
0
10
41.609056
20
16.104863
30
0.000000
0
VERTEX
5
77fd
8
0
10
41.494849
20
16.290974
30
0.000000
0
VERTEX
5
780d
8
0
10
41.384367
20
16.478497
30
0.000000
0
VERTEX
5
781d
8
0
10
41.277848
20
16.667519
30
0.000000
0
VERTEX
5
782d
8
0
10
41.175530
20
16.858131
30
0.000000
0
VERTEX
5
783d
8
0
10
41.175530
20
16.858131
30
0.000000
0
VERTEX
5
784d
8
0
10
41.250306
20
17.001418
30
0.000000
0
VERTEX
5
785d
8
0
10
41.326936
20
17.143581
30
0.000000
0
VERTEX
5
786d
8
0
10
41.405357
20
17.284664
30
0.000000
0
VERTEX
5
787d
8
0
10
41.485509
20
17.424711
30
0.000000
0
VERTEX
5
788d
8
0
10
41.567331
20
17.563768
30
0.000000
0
VERTEX
5
789d
8
0
10
41.650761
20
17.701879
30
0.000000
0
VERTEX
5
78ad
8
0
10
41.735738
20
17.839089
30
0.000000
0
VERTEX
5
78bd
8
0
10
41.822202
20
17.975442
30
0.000000
0
VERTEX
5
78cd
8
0
10
41.910092
20
18.110984
30
0.000000
0
VERTEX
5
78dd
8
0
10
41.999346
20
18.245758
30
0.000000
0
VERTEX
5
78ed
8
0
10
42.181702
20
18.513184
30
0.000000
0
VERTEX
5
78fd
8
0
10
42.368782
20
18.778076
30
0.000000
0
VERTEX
5
790d
8
0
10
42.560099
20
19.040794
30
0.000000
0
VERTEX
5
791d
8
0
10
42.755163
20
19.301694
30
0.000000
0
VERTEX
5
792d
8
0
10
42.953487
20
19.561134
30
0.000000
0
VERTEX
5
793d
8
0
10
43.154581
20
19.819470
30
0.000000
0
VERTEX
5
794d
8
0
10
43.357957
20
20.077061
30
0.000000
0
VERTEX
5
795d
8
0
10
43.769601
20
20.591436
30
0.000000
0
VERTEX
5
796d
8
0
10
44.184513
20
21.107118
30
0.000000
0
VERTEX
5
797d
8
0
10
44.391972
20
21.366343
30
0.000000
0
VERTEX
5
798d
8
0
10
44.598783
20
21.626966
30
0.000000
0
VERTEX
5
799d
8
0
10
44.804457
20
21.889346
30
0.000000
0
VERTEX
5
79ad
8
0
10
45.008504
20
22.153840
30
0.000000
0
VERTEX
5
79bd
8
0
10
45.210438
20
22.420805
30
0.000000
0
VERTEX
5
79cd
8
0
10
45.409769
20
22.690598
30
0.000000
0
VERTEX
5
79dd
8
0
10
45.606009
20
22.963578
30
0.000000
0
VERTEX
5
79ed
8
0
10
45.798669
20
23.240101
30
0.000000
0
VERTEX
5
79fd
8
0
10
45.987261
20
23.520525
30
0.000000
0
VERTEX
5
7a0d
8
0
10
46.079879
20
23.662312
30
0.000000
0
VERTEX
5
7a1d
8
0
10
46.171296
20
23.805207
30
0.000000
0
VERTEX
5
7a2d
8
0
10
46.261453
20
23.949257
30
0.000000
0
VERTEX
5
7a3d
8
0
10
46.350287
20
24.094505
30
0.000000
0
VERTEX
5
7a4d
8
0
10
46.437737
20
24.240997
30
0.000000
0
VERTEX
5
7a5d
8
0
10
46.523744
20
24.388777
30
0.000000
0
VERTEX
5
7a6d
8
0
10
46.608244
20
24.537889
30
0.000000
0
VERTEX
5
7a7d
8
0
10
46.691178
20
24.688378
30
0.000000
0
VERTEX
5
7a8d
8
0
10
46.772485
20
24.840290
30
0.000000
0
VERTEX
5
7a9d
8
0
10
46.852103
20
24.993668
30
0.000000
0
VERTEX
5
7aad
8
0
10
46.929971
20
25.148558
30
0.000000
0
VERTEX
5
7abd
8
0
10
47.006028
20
25.305003
30
0.000000
0
VERTEX
5
7acd
8
0
10
47.080213
20
25.463050
30
0.000000
0
VERTEX
5
7add
8
0
10
47.152466
20
25.622741
30
0.000000
0
VERTEX
5
7aed
8
0
10
47.152466
20
25.622741
30
0.000000
0
VERTEX
5
7afd
8
0
10
46.982551
20
25.539351
30
0.000000
0
VERTEX
5
7b0d
8
0
10
46.812079
20
25.459142
30
0.000000
0
VERTEX
5
7b1d
8
0
10
46.641017
20
25.382820
30
0.000000
0
VERTEX
5
7b2d
8
0
10
46.469334
20
25.311088
30
0.000000
0
VERTEX
5
7b3d
8
0
10
46.296998
20
25.244650
30
0.000000
0
VERTEX
5
7b4d
8
0
10
46.210574
20
25.213637
30
0.000000
0
VERTEX
5
7b5d
8
0
10
46.123976
20
25.184212
30
0.000000
0
VERTEX
5
7b6d
8
0
10
46.037198
20
25.156462
30
0.000000
0
VERTEX
5
7b7d
8
0
10
45.950236
20
25.130476
30
0.000000
0
VERTEX
5
7b8d
8
0
10
45.863087
20
25.106342
30
0.000000
0
VERTEX
5
7b9d
8
0
10
45.775747
20
25.084148
30
0.000000
0
VERTEX
5
7bad
8
0
10
45.688212
20
25.063982
30
0.000000
0
VERTEX
5
7bbd
8
0
10
45.600477
20
25.045931
30
0.000000
0
VERTEX
5
7bcd
8
0
10
45.512540
20
25.030085
30
0.000000
0
VERTEX
5
7bdd
8
0
10
45.424394
20
25.016531
30
0.000000
0
VERTEX
5
7bed
8
0
10
45.336038
20
25.005356
30
0.000000
0
VERTEX
5
7bfd
8
0
10
45.247466
20
24.996650
30
0.000000
0
VERTEX
5
7c0d
8
0
10
45.158675
20
24.990500
30
0.000000
0
VERTEX
5
7c1d
8
0
10
45.069661
20
24.986994
30
0.000000
0
VERTEX
5
7c2d
8
0
10
44.980419
20
24.986220
30
0.000000
0
VERTEX
5
7c3d
8
0
10
44.890946
20
24.988266
30
0.000000
0
VERTEX
5
7c4d
8
0
10
44.801238
20
24.993220
30
0.000000
0
VERTEX
5
7c5d
8
0
10
44.711291
20
25.001171
30
0.000000
0
VERTEX
5
7c6d
8
0
10
44.621100
20
25.012206
30
0.000000
0
VERTEX
5
7c7d
8
0
10
44.530663
20
25.026413
30
0.000000
0
VERTEX
5
7c8d
8
0
10
44.439974
20
25.043881
30
0.000000
0
VERTEX
5
7c9d
8
0
10
44.349030
20
25.064697
30
0.000000
0
VERTEX
5
7cad
8
0
10
44.349030
20
25.064697
30
0.000000
0
VERTEX
5
7cbd
8
0
10
44.222334
20
25.133867
30
0.000000
0
VERTEX
5
7ccd
8
0
10
44.100798
20
25.205741
30
0.000000
0
VERTEX
5
7cdd
8
0
10
43.984382
20
25.280296
30
0.000000
0
VERTEX
5
7ced
8
0
10
43.873052
20
25.357512
30
0.000000
0
VERTEX
5
7cfd
8
0
10
43.766768
20
25.437365
30
0.000000
0
VERTEX
5
7d0d
8
0
10
43.665495
20
25.519835
30
0.000000
0
VERTEX
5
7d1d
8
0
10
43.569196
20
25.604900
30
0.000000
0
VERTEX
5
7d2d
8
0
10
43.477832
20
25.692537
30
0.000000
0
VERTEX
5
7d3d
8
0
10
43.391369
20
25.782727
30
0.000000
0
VERTEX
5
7d4d
8
0
10
43.309767
20
25.875445
30
0.000000
0
VERTEX
5
7d5d
8
0
10
43.232990
20
25.970672
30
0.000000
0
VERTEX
5
7d6d
8
0
10
43.161002
20
26.068385
30
0.000000
0
VERTEX
5
7d7d
8
0
10
43.093765
20
26.168562
30
0.000000
0
VERTEX
5
7d8d
8
0
10
43.031242
20
26.271183
30
0.000000
0
VERTEX
5
7d9d
8
0
10
42.973396
20
26.376224
30
0.000000
0
VERTEX
5
7dad
8
0
10
42.920190
20
26.483665
30
0.000000
0
VERTEX
5
7dbd
8
0
10
42.871586
20
26.593484
30
0.000000
0
VERTEX
5
7dcd
8
0
10
42.827549
20
26.705658
30
0.000000
0
VERTEX
5
7ddd
8
0
10
42.788041
20
26.820167
30
0.000000
0
VERTEX
5
7ded
8
0
10
42.753025
20
26.936989
30
0.000000
0
VERTEX
5
7dfd
8
0
10
42.722463
20
27.056101
30
0.000000
0
VERTEX
5
7e0d
8
0
10
42.696320
20
27.177483
30
0.000000
0
VERTEX
5
7e1d
8
0
10
42.674557
20
27.301112
30
0.000000
0
VERTEX
5
7e2d
8
0
10
42.657137
20
27.426966
30
0.000000
0
VERTEX
5
7e3d
8
0
10
42.644025
20
27.555025
30
0.000000
0
VERTEX
5
7e4d
8
0
10
42.635182
20
27.685267
30
0.000000
0
VERTEX
5
7e5d
8
0
10
42.630571
20
27.817668
30
0.000000
0
VERTEX
5
7e6d
8
0
10
42.630157
20
27.952209
30
0.000000
0
VERTEX
5
7e7d
8
0
10
42.633900
20
28.088867
30
0.000000
0
VERTEX
5
7e8d
8
0
10
42.641766
20
28.227621
30
0.000000
0
VERTEX
5
7e9d
8
0
10
42.653715
20
28.368448
30
0.000000
0
VERTEX
5
7ead
8
0
10
42.669712
20
28.511328
30
0.000000
0
VERTEX
5
7ebd
8
0
10
42.669712
20
28.511328
30
0.000000
0
VERTEX
5
7ecd
8
0
10
42.716204
20
28.647181
30
0.000000
0
VERTEX
5
7edd
8
0
10
42.765499
20
28.778509
30
0.000000
0
VERTEX
5
7eed
8
0
10
42.817619
20
28.905305
30
0.000000
0
VERTEX
5
7efd
8
0
10
42.872587
20
29.027559
30
0.000000
0
VERTEX
5
7f0d
8
0
10
42.930424
20
29.145266
30
0.000000
0
VERTEX
5
7f1d
8
0
10
42.991152
20
29.258418
30
0.000000
0
VERTEX
5
7f2d
8
0
10
43.054793
20
29.367006
30
0.000000
0
VERTEX
5
7f3d
8
0
10
43.121369
20
29.471024
30
0.000000
0
VERTEX
5
7f4d
8
0
10
43.190902
20
29.570463
30
0.000000
0
VERTEX
5
7f5d
8
0
10
43.263414
20
29.665317
30
0.000000
0
VERTEX
5
7f6d
8
0
10
43.338927
20
29.755578
30
0.000000
0
VERTEX
5
7f7d
8
0
10
43.417462
20
29.841237
30
0.000000
0
VERTEX
5
7f8d
8
0
10
43.499041
20
29.922288
30
0.000000
0
VERTEX
5
7f9d
8
0
10
43.583688
20
29.998723
30
0.000000
0
VERTEX
5
7fad
8
0
10
43.671422
20
30.070535
30
0.000000
0
VERTEX
5
7fbd
8
0
10
43.762267
20
30.137715
30
0.000000
0
VERTEX
5
7fcd
8
0
10
43.856244
20
30.200257
30
0.000000
0
VERTEX
5
7fdd
8
0
10
43.953375
20
30.258152
30
0.000000
0
VERTEX
5
7fed
8
0
10
44.053682
20
30.311393
30
0.000000
0
VERTEX
5
7ffd
8
0
10
44.157188
20
30.359973
30
0.000000
0
VERTEX
5
800d
8
0
10
44.263913
20
30.403884
30
0.000000
0
VERTEX
5
801d
8
0
10
44.373880
20
30.443119
30
0.000000
0
VERTEX
5
802d
8
0
10
44.487110
20
30.477669
30
0.000000
0
VERTEX
5
803d
8
0
10
44.603626
20
30.507528
30
0.000000
0
VERTEX
5
804d
8
0
10
44.723450
20
30.532688
30
0.000000
0
VERTEX
5
805d
8
0
10
44.846603
20
30.553141
30
0.000000
0
VERTEX
5
806d
8
0
10
44.973108
20
30.568879
30
0.000000
0
VERTEX
5
807d
8
0
10
45.102986
20
30.579895
30
0.000000
0
VERTEX
5
808d
8
0
10
45.236259
20
30.586182
30
0.000000
0
VERTEX
5
809d
8
0
10
45.372949
20
30.587732
30
0.000000
0
VERTEX
5
80ad
8
0
10
45.513079
20
30.584538
30
0.000000
0
VERTEX
5
80bd
8
0
10
45.656669
20
30.576591
30
0.000000
0
VERTEX
5
80cd
8
0
10
45.656669
20
30.576591
30
0.000000
0
VERTEX
5
80dd
8
0
10
45.778185
20
30.527571
30
0.000000
0
VERTEX
5
80ed
8
0
10
45.896586
20
30.476270
30
0.000000
0
VERTEX
5
80fd
8
0
10
46.011845
20
30.422653
30
0.000000
0
VERTEX
5
810d
8
0
10
46.123932
20
30.366686
30
0.000000
0
VERTEX
5
811d
8
0
10
46.232818
20
30.308334
30
0.000000
0
VERTEX
5
812d
8
0
10
46.338475
20
30.247562
30
0.000000
0
VERTEX
5
813d
8
0
10
46.440874
20
30.184336
30
0.000000
0
VERTEX
5
814d
8
0
10
46.539986
20
30.118620
30
0.000000
0
VERTEX
5
815d
8
0
10
46.635782
20
30.050381
30
0.000000
0
VERTEX
5
816d
8
0
10
46.728234
20
29.979583
30
0.000000
0
VERTEX
5
817d
8
0
10
46.817312
20
29.906191
30
0.000000
0
VERTEX
5
818d
8
0
10
46.902988
20
29.830172
30
0.000000
0
VERTEX
5
819d
8
0
10
46.985232
20
29.751490
30
0.000000
0
VERTEX
5
81ad
8
0
10
47.064017
20
29.670111
30
0.000000
0
VERTEX
5
81bd
8
0
10
47.139313
20
29.585999
30
0.000000
0
VERTEX
5
81cd
8
0
10
47.211092
20
29.499121
30
0.000000
0
VERTEX
5
81dd
8
0
10
47.279324
20
29.409441
30
0.000000
0
VERTEX
5
81ed
8
0
10
47.343981
20
29.316925
30
0.000000
0
VERTEX
5
81fd
8
0
10
47.405034
20
29.221538
30
0.000000
0
VERTEX
5
820d
8
0
10
47.462454
20
29.123246
30
0.000000
0
VERTEX
5
821d
8
0
10
47.516212
20
29.022013
30
0.000000
0
VERTEX
5
822d
8
0
10
47.566280
20
28.917805
30
0.000000
0
VERTEX
5
823d
8
0
10
47.612629
20
28.810588
30
0.000000
0
VERTEX
5
824d
8
0
10
47.655229
20
28.700326
30
0.000000
0
VERTEX
5
825d
8
0
10
47.694053
20
28.586985
30
0.000000
0
VERTEX
5
826d
8
0
10
47.729071
20
28.470530
30
0.000000
0
VERTEX
5
827d
8
0
10
47.760254
20
28.350927
30
0.000000
0
VERTEX
5
828d
8
0
10
47.787574
20
28.228141
30
0.000000
0
VERTEX
5
829d
8
0
10
47.811002
20
28.102137
30
0.000000
0
VERTEX
5
82ad
8
0
10
47.830509
20
27.972880
30
0.000000
0
VERTEX
5
82bd
8
0
10
47.846065
20
27.840336
30
0.000000
0
VERTEX
5
82cd
8
0
10
47.857644
20
27.704469
30
0.000000
0
VERTEX
5
82dd
8
0
10
47.857644
20
27.704469
30
0.000000
0
VERTEX
5
82ed
8
0
10
47.917347
20
27.898472
30
0.000000
0
VERTEX
5
82fd
8
0
10
47.974146
20
28.092682
30
0.000000
0
VERTEX
5
830d
8
0
10
48.028002
20
28.287111
30
0.000000
0
VERTEX
5
831d
8
0
10
48.078877
20
28.481768
30
0.000000
0
VERTEX
5
832d
8
0
10
48.126731
20
28.676666
30
0.000000
0
VERTEX
5
833d
8
0
10
48.171525
20
28.871813
30
0.000000
0
VERTEX
5
834d
8
0
10
48.213220
20
29.067223
30
0.000000
0
VERTEX
5
835d
8
0
10
48.251777
20
29.262904
30
0.000000
0
VERTEX
5
836d
8
0
10
48.287158
20
29.458868
30
0.000000
0
VERTEX
5
837d
8
0
10
48.319323
20
29.655125
30
0.000000
0
VERTEX
5
838d
8
0
10
48.348232
20
29.851687
30
0.000000
0
VERTEX
5
839d
8
0
10
48.373849
20
30.048564
30
0.000000
0
VERTEX
5
83ad
8
0
10
48.396132
20
30.245767
30
0.000000
0
VERTEX
5
83bd
8
0
10
48.415043
20
30.443307
30
0.000000
0
VERTEX
5
83cd
8
0
10
48.430544
20
30.641194
30
0.000000
0
VERTEX
5
83dd
8
0
10
48.442595
20
30.839440
30
0.000000
0
VERTEX
5
83ed
8
0
10
48.451157
20
31.038054
30
0.000000
0
VERTEX
5
83fd
8
0
10
48.456191
20
31.237048
30
0.000000
0
VERTEX
5
840d
8
0
10
48.457658
20
31.436433
30
0.000000
0
VERTEX
5
841d
8
0
10
48.455520
20
31.636219
30
0.000000
0
VERTEX
5
842d
8
0
10
48.449736
20
31.836417
30
0.000000
0
VERTEX
5
843d
8
0
10
48.440269
20
32.037038
30
0.000000
0
VERTEX
5
844d
8
0
10
48.427079
20
32.238092
30
0.000000
0
VERTEX
5
845d
8
0
10
48.410127
20
32.439591
30
0.000000
0
VERTEX
5
846d
8
0
10
48.389374
20
32.641545
30
0.000000
0
VERTEX
5
847d
8
0
10
48.364781
20
32.843965
30
0.000000
0
VERTEX
5
848d
8
0
10
48.336310
20
33.046862
30
0.000000
0
VERTEX
5
849d
8
0
10
48.303921
20
33.250246
30
0.000000
0
VERTEX
5
84ad
8
0
10
48.267574
20
33.454128
30
0.000000
0
VERTEX
5
84bd
8
0
10
48.227232
20
33.658519
30
0.000000
0
VERTEX
5
84cd
8
0
10
48.182855
20
33.863431
30
0.000000
0
VERTEX
5
84dd
8
0
10
48.134405
20
34.068872
30
0.000000
0
SEQEND
5
84ed
8
0
0
POLYLINE
5
84fd
8
0
66
1
10
0
20
0
30
0
0
VERTEX
5
850d
8
0
10
26.330653
20
32.063405
30
0.000000
0
VERTEX
5
851d
8
0
10
26.603795
20
31.778084
30
0.000000
0
VERTEX
5
852d
8
0
10
26.962109
20
30.027256
30
0.000000
0
VERTEX
5
853d
8
0
10
26.962109
20
30.027256
30
0.000000
0
VERTEX
5
854d
8
0
10
26.901031
20
29.944198
30
0.000000
0
VERTEX
5
855d
8
0
10
26.839803
20
29.863583
30
0.000000
0
VERTEX
5
856d
8
0
10
26.778426
20
29.785413
30
0.000000
0
VERTEX
5
857d
8
0
10
26.716897
20
29.709687
30
0.000000
0
VERTEX
5
858d
8
0
10
26.655215
20
29.636405
30
0.000000
0
VERTEX
5
859d
8
0
10
26.593380
20
29.565567
30
0.000000
0
VERTEX
5
85ad
8
0
10
26.531390
20
29.497172
30
0.000000
0
VERTEX
5
85bd
8
0
10
26.469245
20
29.431222
30
0.000000
0
VERTEX
5
85cd
8
0
10
26.406942
20
29.367715
30
0.000000
0
VERTEX
5
85dd
8
0
10
26.344481
20
29.306653
30
0.000000
0
VERTEX
5
85ed
8
0
10
26.281861
20
29.248034
30
0.000000
0
VERTEX
5
85fd
8
0
10
26.219081
20
29.191858
30
0.000000
0
VERTEX
5
860d
8
0
10
26.156140
20
29.138126
30
0.000000
0
VERTEX
5
861d
8
0
10
26.093036
20
29.086838
30
0.000000
0
VERTEX
5
862d
8
0
10
26.029768
20
29.037993
30
0.000000
0
VERTEX
5
863d
8
0
10
25.966336
20
28.991592
30
0.000000
0
VERTEX
5
864d
8
0
10
25.902738
20
28.947633
30
0.000000
0
VERTEX
5
865d
8
0
10
25.838973
20
28.906119
30
0.000000
0
VERTEX
5
866d
8
0
10
25.775040
20
28.867047
30
0.000000
0
VERTEX
5
867d
8
0
10
25.710938
20
28.830419
30
0.000000
0
VERTEX
5
868d
8
0
10
25.646666
20
28.796233
30
0.000000
0
VERTEX
5
869d
8
0
10
25.582222
20
28.764491
30
0.000000
0
VERTEX
5
86ad
8
0
10
25.517606
20
28.735192
30
0.000000
0
VERTEX
5
86bd
8
0
10
25.452817
20
28.708336
30
0.000000
0
VERTEX
5
86cd
8
0
10
25.387853
20
28.683923
30
0.000000
0
VERTEX
5
86dd
8
0
10
25.322713
20
28.661952
30
0.000000
0
VERTEX
5
86ed
8
0
10
25.257396
20
28.642425
30
0.000000
0
VERTEX
5
86fd
8
0
10
25.191901
20
28.625340
30
0.000000
0
VERTEX
5
870d
8
0
10
25.126228
20
28.610697
30
0.000000
0
VERTEX
5
871d
8
0
10
25.060374
20
28.598498
30
0.000000
0
VERTEX
5
872d
8
0
10
24.994339
20
28.588741
30
0.000000
0
VERTEX
5
873d
8
0
10
24.928121
20
28.581426
30
0.000000
0
VERTEX
5
874d
8
0
10
24.861720
20
28.576554
30
0.000000
0
VERTEX
5
875d
8
0
10
24.795134
20
28.574125
30
0.000000
0
VERTEX
5
876d
8
0
10
24.728363
20
28.574137
30
0.000000
0
VERTEX
5
877d
8
0
10
24.661405
20
28.576592
30
0.000000
0
VERTEX
5
878d
8
0
10
24.594259
20
28.581489
30
0.000000
0
VERTEX
5
879d
8
0
10
24.526924
20
28.588829
30
0.000000
0
VERTEX
5
87ad
8
0
10
24.459399
20
28.598610
30
0.000000
0
VERTEX
5
87bd
8
0
10
24.391683
20
28.610834
30
0.000000
0
VERTEX
5
87cd
8
0
10
24.323774
20
28.625499
30
0.000000
0
VERTEX
5
87dd
8
0
10
24.255672
20
28.642607
30
0.000000
0
VERTEX
5
87ed
8
0
10
24.187375
20
28.662156
30
0.000000
0
VERTEX
5
87fd
8
0
10
24.118883
20
28.684147
30
0.000000
0
VERTEX
5
880d
8
0
10
24.050194
20
28.708580
30
0.000000
0
VERTEX
5
881d
8
0
10
23.981307
20
28.735455
30
0.000000
0
VERTEX
5
882d
8
0
10
23.912221
20
28.764771
30
0.000000
0
VERTEX
5
883d
8
0
10
23.842935
20
28.796529
30
0.000000
0
VERTEX
5
884d
8
0
10
23.773448
20
28.830729
30
0.000000
0
VERTEX
5
885d
8
0
10
23.703759
20
28.867370
30
0.000000
0
VERTEX
5
886d
8
0
10
23.633866
20
28.906452
30
0.000000
0
VERTEX
5
887d
8
0
10
23.563769
20
28.947976
30
0.000000
0
VERTEX
5
888d
8
0
10
23.493466
20
28.991941
30
0.000000
0
VERTEX
5
889d
8
0
10
23.422956
20
29.038348
30
0.000000
0
VERTEX
5
88ad
8
0
10
23.352239
20
29.087195
30
0.000000
0
VERTEX
5
88bd
8
0
10
23.281312
20
29.138484
30
0.000000
0
VERTEX
5
88cd
8
0
10
23.210176
20
29.192214
30
0.000000
0
VERTEX
5
88dd
8
0
10
23.138829
20
29.248385
30
0.000000
0
VERTEX
5
88ed
8
0
10
23.067269
20
29.306997
30
0.000000
0
VERTEX
5
88fd
8
0
10
22.995496
20
29.368050
30
0.000000
0
VERTEX
5
890d
8
0
10
22.923509
20
29.431544
30
0.000000
0
VERTEX
5
891d
8
0
10
22.851306
20
29.497478
30
0.000000
0
VERTEX
5
892d
8
0
10
22.778886
20
29.565853
30
0.000000
0
VERTEX
5
893d
8
0
10
22.706249
20
29.636669
30
0.000000
0
VERTEX
5
894d
8
0
10
22.500962
20
31.105075
30
0.000000
0
VERTEX
5
895d
8
0
10
22.500962
20
31.105075
30
0.000000
0
VERTEX
5
896d
8
0
10
22.546125
20
31.183001
30
0.000000
0
VERTEX
5
897d
8
0
10
22.591857
20
31.258505
30
0.000000
0
VERTEX
5
898d
8
0
10
22.638155
20
31.331607
30
0.000000
0
VERTEX
5
899d
8
0
10
22.685011
20
31.402328
30
0.000000
0
VERTEX
5
89ad
8
0
10
22.732423
20
31.470687
30
0.000000
0
VERTEX
5
89bd
8
0
10
22.780384
20
31.536706
30
0.000000
0
VERTEX
5
89cd
8
0
10
22.828890
20
31.600405
30
0.000000
0
VERTEX
5
89dd
8
0
10
22.877935
20
31.661804
30
0.000000
0
VERTEX
5
89ed
8
0
10
22.927515
20
31.720925
30
0.000000
0
VERTEX
5
89fd
8
0
10
22.977624
20
31.777787
30
0.000000
0
VERTEX
5
8a0d
8
0
10
23.028258
20
31.832411
30
0.000000
0
VERTEX
5
8a1d
8
0
10
23.079412
20
31.884818
30
0.000000
0
VERTEX
5
8a2d
8
0
10
23.131080
20
31.935028
30
0.000000
0
VERTEX
5
8a3d
8
0
10
23.183257
20
31.983061
30
0.000000
0
VERTEX
5
8a4d
8
0
10
23.235939
20
32.028939
30
0.000000
0
VERTEX
5
8a5d
8
0
10
23.289120
20
32.072681
30
0.000000
0
VERTEX
5
8a6d
8
0
10
23.342795
20
32.114309
30
0.000000
0
VERTEX
5
8a7d
8
0
10
23.396960
20
32.153842
30
0.000000
0
VERTEX
5
8a8d
8
0
10
23.451609
20
32.191302
30
0.000000
0
VERTEX
5
8a9d
8
0
10
23.506738
20
32.226708
30
0.000000
0
VERTEX
5
8aad
8
0
10
23.562341
20
32.260082
30
0.000000
0
VERTEX
5
8abd
8
0
10
23.618413
20
32.291444
30
0.000000
0
VERTEX
5
8acd
8
0
10
23.674949
20
32.320814
30
0.000000
0
VERTEX
5
8add
8
0
10
23.731945
20
32.348212
30
0.000000
0
VERTEX
5
8aed
8
0
10
23.789394
20
32.373660
30
0.000000
0
VERTEX
5
8afd
8
0
10
23.847293
20
32.397178
30
0.000000
0
VERTEX
5
8b0d
8
0
10
23.905636
20
32.418787
30
0.000000
0
VERTEX
5
8b1d
8
0
10
23.964418
20
32.438506
30
0.000000
0
VERTEX
5
8b2d
8
0
10
24.023635
20
32.456357
30
0.000000
0
VERTEX
5
8b3d
8
0
10
24.083280
20
32.472360
30
0.000000
0
VERTEX
5
8b4d
8
0
10
24.143349
20
32.486535
30
0.000000
0
VERTEX
5
8b5d
8
0
10
24.203838
20
32.498904
30
0.000000
0
VERTEX
5
8b6d
8
0
10
24.264740
20
32.509485
30
0.000000
0
VERTEX
5
8b7d
8
0
10
24.326051
20
32.518301
30
0.000000
0
VERTEX
5
8b8d
8
0
10
24.387767
20
32.525372
30
0.000000
0
VERTEX
5
8b9d
8
0
10
24.449881
20
32.530718
30
0.000000
0
VERTEX
5
8bad
8
0
10
24.512389
20
32.534359
30
0.000000
0
VERTEX
5
8bbd
8
0
10
24.575286
20
32.536316
30
0.000000
0
VERTEX
5
8bcd
8
0
10
24.638567
20
32.536611
30
0.000000
0
VERTEX
5
8bdd
8
0
10
24.702227
20
32.535262
30
0.000000
0
VERTEX
5
8bed
8
0
10
24.766260
20
32.532291
30
0.000000
0
VERTEX
5
8bfd
8
0
10
24.830663
20
32.527718
30
0.000000
0
VERTEX
5
8c0d
8
0
10
24.895429
20
32.521564
30
0.000000
0
VERTEX
5
8c1d
8
0
10
24.960554
20
32.513850
30
0.000000
0
VERTEX
5
8c2d
8
0
10
25.091860
20
32.493820
30
0.000000
0
VERTEX
5
8c3d
8
0
10
25.224540
20
32.467794
30
0.000000
0
VERTEX
5
8c4d
8
0
10
25.358556
20
32.435935
30
0.000000
0
VERTEX
5
8c5d
8
0
10
25.493865
20
32.398408
30
0.000000
0
VERTEX
5
8c6d
8
0
10
25.630429
20
32.355377
30
0.000000
0
VERTEX
5
8c7d
8
0
10
25.768206
20
32.307006
30
0.000000
0
VERTEX
5
8c8d
8
0
10
25.907158
20
32.253459
30
0.000000
0
VERTEX
5
8c9d
8
0
10
26.047243
20
32.194901
30
0.000000
0
VERTEX
5
8cad
8
0
10
26.188421
20
32.131494
30
0.000000
0
VERTEX
5
8cbd
8
0
10
26.330653
20
32.063405
30
0.000000
0
SEQEND
5
8ccd
8
0
0
POLYLINE
5
8cdd
8
0
66
1
10
0
20
0
30
0
0
VERTEX
5
8ced
8
0
10
23.891063
20
30.729068
30
0.000000
0
VERTEX
5
8cfd
8
0
10
25.232043
20
32.065942
30
0.000000
0
VERTEX
5
8d0d
8
0
10
25.232043
20
32.065942
30
0.000000
0
VERTEX
5
8d1d
8
0
10
25.175690
20
32.038612
30
0.000000
0
VERTEX
5
8d2d
8
0
10
25.120524
20
32.010095
30
0.000000
0
VERTEX
5
8d3d
8
0
10
25.066519
20
31.980417
30
0.000000
0
VERTEX
5
8d4d
8
0
10
25.013651
20
31.949603
30
0.000000
0
VERTEX
5
8d5d
8
0
10
24.961892
20
31.917678
30
0.000000
0
VERTEX
5
8d6d
8
0
10
24.911219
20
31.884668
30
0.000000
0
VERTEX
5
8d7d
8
0
10
24.813025
20
31.815496
30
0.000000
0
VERTEX
5
8d8d
8
0
10
24.718865
20
31.742290
30
0.000000
0
VERTEX
5
8d9d
8
0
10
24.628535
20
31.665254
30
0.000000
0
VERTEX
5
8dad
8
0
10
24.541832
20
31.584592
30
0.000000
0
VERTEX
5
8dbd
8
0
10
24.458551
20
31.500506
30
0.000000
0
VERTEX
5
8dcd
8
0
10
24.378490
20
31.413202
30
0.000000
0
VERTEX
5
8ddd
8
0
10
24.301443
20
31.322883
30
0.000000
0
VERTEX
5
8ded
8
0
10
24.227207
20
31.229753
30
0.000000
0
VERTEX
5
8dfd
8
0
10
24.155579
20
31.134016
30
0.000000
0
VERTEX
5
8e0d
8
0
10
24.086354
20
31.035874
30
0.000000
0
VERTEX
5
8e1d
8
0
10
24.019329
20
30.935534
30
0.000000
0
VERTEX
5
8e2d
8
0
10
23.954300
20
30.833197
30
0.000000
0
VERTEX
5
8e3d
8
0
10
23.891063
20
30.729068
30
0.000000
0
SEQEND
5
8e4d
8
0
0
POLYLINE
5
8e5d
8
0
66
1
10
0
20
0
30
0
0
VERTEX
5
8e6d
8
0
10
25.242213
20
31.098888
30
0.000000
0
VERTEX
5
8e7d
8
0
10
25.242213
20
31.098888
30
0.000000
0
VERTEX
5
8e8d
8
0
10
25.246289
20
31.070948
30
0.000000
0
VERTEX
5
8e9d
8
0
10
25.248352
20
31.045014
30
0.000000
0
VERTEX
5
8ead
8
0
10
25.248488
20
31.020997
30
0.000000
0
VERTEX
5
8ebd
8
0
10
25.246782
20
30.998806
30
0.000000
0
VERTEX
5
8ecd
8
0
10
25.243321
20
30.978351
30
0.000000
0
VERTEX
5
8edd
8
0
10
25.238191
20
30.959543
30
0.000000
0
VERTEX
5
8eed
8
0
10
25.231478
20
30.942291
30
0.000000
0
VERTEX
5
8efd
8
0
10
25.223266
20
30.926507
30
0.000000
0
VERTEX
5
8f0d
8
0
10
25.213644
20
30.912100
30
0.000000
0
VERTEX
5
8f1d
8
0
10
25.202695
20
30.898979
30
0.000000
0
VERTEX
5
8f2d
8
0
10
25.190507
20
30.887056
30
0.000000
0
VERTEX
5
8f3d
8
0
10
25.177164
20
30.876241
30
0.000000
0
VERTEX
5
8f4d
8
0
10
25.147361
20
30.857572
30
0.000000
0
VERTEX
5
8f5d
8
0
10
25.113974
20
30.842255
30
0.000000
0
VERTEX
5
8f6d
8
0
10
25.077689
20
30.829571
30
0.000000
0
VERTEX
5
8f7d
8
0
10
25.039193
20
30.818800
30
0.000000
0
VERTEX
5
8f8d
8
0
10
24.958321
20
30.800122
30
0.000000
0
VERTEX
5
8f9d
8
0
10
24.876855
20
30.780470
30
0.000000
0
VERTEX
5
8fad
8
0
10
24.837617
20
30.768482
30
0.000000
0
VERTEX
5
8fbd
8
0
10
24.800293
20
30.754094
30
0.000000
0
VERTEX
5
8fcd
8
0
10
24.800293
20
30.754094
30
0.000000
0
VERTEX
5
8fdd
8
0
10
24.819449
20
30.725567
30
0.000000
0
VERTEX
5
8fed
8
0
10
24.841356
20
30.698657
30
0.000000
0
VERTEX
5
8ffd
8
0
10
24.865732
20
30.673200
30
0.000000
0
VERTEX
5
900d
8
0
10
24.892294
20
30.649035
30
0.000000
0
VERTEX
5
901d
8
0
10
24.920759
20
30.625996
30
0.000000
0
VERTEX
5
902d
8
0
10
24.950843
20
30.603922
30
0.000000
0
VERTEX
5
903d
8
0
10
25.014742
20
30.562012
30
0.000000
0
VERTEX
5
904d
8
0
10
25.081726
20
30.522000
30
0.000000
0
VERTEX
5
905d
8
0
10
25.149535
20
30.482581
30
0.000000
0
VERTEX
5
906d
8
0
10
25.215905
20
30.442448
30
0.000000
0
VERTEX
5
907d
8
0
10
25.278574
20
30.400295
30
0.000000
0
VERTEX
5
908d
8
0
10
25.307813
20
30.378053
30
0.000000
0
VERTEX
5
909d
8
0
10
25.335279
20
30.354817
30
0.000000
0
VERTEX
5
90ad
8
0
10
25.360688
20
30.330422
30
0.000000
0
VERTEX
5
90bd
8
0
10
25.383758
20
30.304707
30
0.000000
0
VERTEX
5
90cd
8
0
10
25.404206
20
30.277508
30
0.000000
0
VERTEX
5
90dd
8
0
10
25.421749
20
30.248661
30
0.000000
0
VERTEX
5
90ed
8
0
10
25.436104
20
30.218004
30
0.000000
0
VERTEX
5
90fd
8
0
10
25.446988
20
30.185372
30
0.000000
0
VERTEX
5
910d
8
0
10
25.454119
20
30.150604
30
0.000000
0
VERTEX
5
911d
8
0
10
25.457214
20
30.113535
30
0.000000
0
VERTEX
5
912d
8
0
10
25.455989
20
30.074003
30
0.000000
0
VERTEX
5
913d
8
0
10
25.450163
20
30.031844
30
0.000000
0
VERTEX
5
914d
8
0
10
25.439452
20
29.986895
30
0.000000
0
VERTEX
5
915d
8
0
10
25.423573
20
29.938993
30
0.000000
0
VERTEX
5
916d
8
0
10
25.402245
20
29.887974
30
0.000000
0
VERTEX
5
917d
8
0
10
25.375183
20
29.833676
30
0.000000
0
VERTEX
5
918d
8
0
10
26.341305
20
30.023174
30
0.000000
0
VERTEX
5
919d
8
0
10
26.341305
20
30.023174
30
0.000000
0
VERTEX
5
91ad
8
0
10
26.295739
20
30.045122
30
0.000000
0
VERTEX
5
91bd
8
0
10
26.256286
20
30.067196
30
0.000000
0
VERTEX
5
91cd
8
0
10
26.222632
20
30.089396
30
0.000000
0
VERTEX
5
91dd
8
0
10
26.194460
20
30.111721
30
0.000000
0
VERTEX
5
91ed
8
0
10
26.171457
20
30.134169
30
0.000000
0
VERTEX
5
91fd
8
0
10
26.153305
20
30.156742
30
0.000000
0
VERTEX
5
920d
8
0
10
26.139691
20
30.179437
30
0.000000
0
VERTEX
5
921d
8
0
10
26.130299
20
30.202255
30
0.000000
0
VERTEX
5
922d
8
0
10
26.124813
20
30.225195
30
0.000000
0
VERTEX
5
923d
8
0
10
26.122918
20
30.248256
30
0.000000
0
VERTEX
5
924d
8
0
10
26.124299
20
30.271439
30
0.000000
0
VERTEX
5
925d
8
0
10
26.128640
20
30.294741
30
0.000000
0
VERTEX
5
926d
8
0
10
26.135627
20
30.318163
30
0.000000
0
VERTEX
5
927d
8
0
10
26.144943
20
30.341704
30
0.000000
0
VERTEX
5
928d
8
0
10
26.156274
20
30.365364
30
0.000000
0
VERTEX
5
929d
8
0
10
26.169305
20
30.389142
30
0.000000
0
VERTEX
5
92ad
8
0
10
26.199202
20
30.437049
30
0.000000
0
VERTEX
5
92bd
8
0
10
26.232113
20
30.485421
30
0.000000
0
VERTEX
5
92cd
8
0
10
26.265514
20
30.534254
30
0.000000
0
VERTEX
5
92dd
8
0
10
26.296885
20
30.583542
30
0.000000
0
VERTEX
5
92ed
8
0
10
26.323701
20
30.633282
30
0.000000
0
VERTEX
5
92fd
8
0
10
26.334613
20
30.658320
30
0.000000
0
VERTEX
5
930d
8
0
10
26.343440
20
30.683469
30
0.000000
0
VERTEX
5
931d
8
0
10
26.349868
20
30.708728
30
0.000000
0
VERTEX
5
932d
8
0
10
26.353581
20
30.734098
30
0.000000
0
VERTEX
5
933d
8
0
10
26.354263
20
30.759577
30
0.000000
0
VERTEX
5
934d
8
0
10
26.351600
20
30.785165
30
0.000000
0
VERTEX
5
935d
8
0
10
26.351600
20
30.785165
30
0.000000
0
VERTEX
5
936d
8
0
10
26.296208
20
30.740004
30
0.000000
0
VERTEX
5
937d
8
0
10
26.243869
20
30.703875
30
0.000000
0
VERTEX
5
938d
8
0
10
26.194412
20
30.676230
30
0.000000
0
VERTEX
5
939d
8
0
10
26.170711
20
30.665417
30
0.000000
0
VERTEX
5
93ad
8
0
10
26.147666
20
30.656520
30
0.000000
0
VERTEX
5
93bd
8
0
10
26.125255
20
30.649469
30
0.000000
0
VERTEX
5
93cd
8
0
10
26.103458
20
30.644196
30
0.000000
0
VERTEX
5
93dd
8
0
10
26.082252
20
30.640632
30
0.000000
0
VERTEX
5
93ed
8
0
10
26.061617
20
30.638710
30
0.000000
0
VERTEX
5
93fd
8
0
10
26.041531
20
30.638359
30
0.000000
0
VERTEX
5
940d
8
0
10
26.021972
20
30.639513
30
0.000000
0
VERTEX
5
941d
8
0
10
25.984350
20
30.646056
30
0.000000
0
VERTEX
5
942d
8
0
10
25.948580
20
30.657792
30
0.000000
0
VERTEX
5
943d
8
0
10
25.914491
20
30.674171
30
0.000000
0
VERTEX
5
944d
8
0
10
25.881910
20
30.694645
30
0.000000
0
VERTEX
5
945d
8
0
10
25.850667
20
30.718664
30
0.000000
0
VERTEX
5
946d
8
0
10
25.820588
20
30.745682
30
0.000000
0
VERTEX
5
947d
8
0
10
25.791504
20
30.775148
30
0.000000
0
VERTEX
5
948d
8
0
10
25.763241
20
30.806514
30
0.000000
0
VERTEX
5
949d
8
0
10
25.735629
20
30.839233
30
0.000000
0
VERTEX
5
94ad
8
0
10
25.681670
20
30.906530
30
0.000000
0
VERTEX
5
94bd
8
0
10
25.628252
20
30.972650
30
0.000000
0
VERTEX
5
94cd
8
0
10
25.601317
20
31.003897
30
0.000000
0
VERTEX
5
94dd
8
0
10
25.574002
20
31.033205
30
0.000000
0
VERTEX
5
94ed
8
0
10
25.546136
20
31.060024
30
0.000000
0
VERTEX
5
94fd
8
0
10
25.517547
20
31.083806
30
0.000000
0
VERTEX
5
950d
8
0
10
25.488064
20
31.104001
30
0.000000
0
VERTEX
5
951d
8
0
10
25.457515
20
31.120063
30
0.000000
0
VERTEX
5
952d
8
0
10
25.425727
20
31.131442
30
0.000000
0
VERTEX
5
953d
8
0
10
25.392530
20
31.137588
30
0.000000
0
VERTEX
5
954d
8
0
10
25.375349
20
31.138529
30
0.000000
0
VERTEX
5
955d
8
0
10
25.357752
20
31.137955
30
0.000000
0
VERTEX
5
956d
8
0
10
25.339716
20
31.135799
30
0.000000
0
VERTEX
5
957d
8
0
10
25.321221
20
31.131993
30
0.000000
0
VERTEX
5
958d
8
0
10
25.302244
20
31.126467
30
0.000000
0
VERTEX
5
959d
8
0
10
25.282765
20
31.119153
30
0.000000
0
VERTEX
5
95ad
8
0
10
25.242213
20
31.098888
30
0.000000
0
SEQEND
5
95bd
8
0
0
POLYLINE
5
95cd
8
0
66
1
10
0
20
0
30
0
0
VERTEX
5
95dd
8
0
10
23.779602
20
30.389581
30
0.000000
0
VERTEX
5
95ed
8
0
10
23.779602
20
30.389581
30
0.000000
0
VERTEX
5
95fd
8
0
10
23.714931
20
30.324778
30
0.000000
0
VERTEX
5
960d
8
0
10
23.656078
20
30.261291
30
0.000000
0
VERTEX
5
961d
8
0
10
23.602942
20
30.199098
30
0.000000
0
VERTEX
5
962d
8
0
10
23.555428
20
30.138176
30
0.000000
0
VERTEX
5
963d
8
0
10
23.513435
20
30.078505
30
0.000000
0
VERTEX
5
964d
8
0
10
23.476868
20
30.020060
30
0.000000
0
VERTEX
5
965d
8
0
10
23.445627
20
29.962821
30
0.000000
0
VERTEX
5
966d
8
0
10
23.419615
20
29.906764
30
0.000000
0
VERTEX
5
967d
8
0
10
23.398734
20
29.851868
30
0.000000
0
VERTEX
5
968d
8
0
10
23.382885
20
29.798110
30
0.000000
0
VERTEX
5
969d
8
0
10
23.371972
20
29.745469
30
0.000000
0
VERTEX
5
96ad
8
0
10
23.365896
20
29.693921
30
0.000000
0
VERTEX
5
96bd
8
0
10
23.364558
20
29.643444
30
0.000000
0
VERTEX
5
96cd
8
0
10
23.367862
20
29.594017
30
0.000000
0
VERTEX
5
96dd
8
0
10
23.375709
20
29.545617
30
0.000000
0
VERTEX
5
96ed
8
0
10
23.388001
20
29.498222
30
0.000000
0
VERTEX
5
96fd
8
0
10
23.404641
20
29.451809
30
0.000000
0
VERTEX
5
970d
8
0
10
23.425529
20
29.406357
30
0.000000
0
VERTEX
5
971d
8
0
10
23.450570
20
29.361843
30
0.000000
0
VERTEX
5
972d
8
0
10
23.479663
20
29.318244
30
0.000000
0
VERTEX
5
973d
8
0
10
23.512713
20
29.275539
30
0.000000
0
VERTEX
5
974d
8
0
10
23.549620
20
29.233706
30
0.000000
0
VERTEX
5
975d
8
0
10
23.590286
20
29.192722
30
0.000000
0
VERTEX
5
976d
8
0
10
23.634615
20
29.152564
30
0.000000
0
VERTEX
5
977d
8
0
10
23.682507
20
29.113211
30
0.000000
0
VERTEX
5
978d
8
0
10
23.733864
20
29.074641
30
0.000000
0
VERTEX
5
979d
8
0
10
23.788590
20
29.036830
30
0.000000
0
VERTEX
5
97ad
8
0
10
23.846586
20
28.999758
30
0.000000
0
VERTEX
5
97bd
8
0
10
23.907754
20
28.963401
30
0.000000
0
VERTEX
5
97cd
8
0
10
23.971996
20
28.927737
30
0.000000
0
VERTEX
5
97dd
8
0
10
24.039214
20
28.892745
30
0.000000
0
VERTEX
5
97ed
8
0
10
24.109310
20
28.858402
30
0.000000
0
VERTEX
5
97fd
8
0
10
24.109310
20
28.858402
30
0.000000
0
VERTEX
5
980d
8
0
10
24.174012
20
28.891161
30
0.000000
0
VERTEX
5
981d
8
0
10
24.235974
20
28.924721
30
0.000000
0
VERTEX
5
982d
8
0
10
24.295114
20
28.959101
30
0.000000
0
VERTEX
5
983d
8
0
10
24.351352
20
28.994316
30
0.000000
0
VERTEX
5
984d
8
0
10
24.404605
20
29.030382
30
0.000000
0
VERTEX
5
985d
8
0
10
24.454792
20
29.067317
30
0.000000
0
VERTEX
5
986d
8
0
10
24.501832
20
29.105137
30
0.000000
0
VERTEX
5
987d
8
0
10
24.545643
20
29.143858
30
0.000000
0
VERTEX
5
988d
8
0
10
24.586144
20
29.183498
30
0.000000
0
VERTEX
5
989d
8
0
10
24.623253
20
29.224073
30
0.000000
0
VERTEX
5
98ad
8
0
10
24.656889
20
29.265598
30
0.000000
0
VERTEX
5
98bd
8
0
10
24.686969
20
29.308092
30
0.000000
0
VERTEX
5
98cd
8
0
10
24.713414
20
29.351571
30
0.000000
0
VERTEX
5
98dd
8
0
10
24.736141
20
29.396050
30
0.000000
0
VERTEX
5
98ed
8
0
10
24.755069
20
29.441548
30
0.000000
0
VERTEX
5
98fd
8
0
10
24.770116
20
29.488079
30
0.000000
0
VERTEX
5
990d
8
0
10
24.781201
20
29.535662
30
0.000000
0
VERTEX
5
991d
8
0
10
24.788243
20
29.584312
30
0.000000
0
VERTEX
5
992d
8
0
10
24.791159
20
29.634046
30
0.000000
0
VERTEX
5
993d
8
0
10
24.789869
20
29.684881
30
0.000000
0
VERTEX
5
994d
8
0
10
24.784291
20
29.736833
30
0.000000
0
VERTEX
5
995d
8
0
10
24.774344
20
29.789919
30
0.000000
0
VERTEX
5
996d
8
0
10
24.759945
20
29.844156
30
0.000000
0
VERTEX
5
997d
8
0
10
24.741014
20
29.899560
30
0.000000
0
VERTEX
5
998d
8
0
10
24.717469
20
29.956147
30
0.000000
0
VERTEX
5
999d
8
0
10
24.689229
20
30.013935
30
0.000000
0
VERTEX
5
99ad
8
0
10
24.656212
20
30.072939
30
0.000000
0
VERTEX
5
99bd
8
0
10
24.618337
20
30.133177
30
0.000000
0
VERTEX
5
99cd
8
0
10
24.575522
20
30.194665
30
0.000000
0
VERTEX
5
99dd
8
0
10
24.527686
20
30.257420
30
0.000000
0
VERTEX
5
99ed
8
0
10
24.474747
20
30.321457
30
0.000000
0
VERTEX
5
99fd
8
0
10
24.416623
20
30.386795
30
0.000000
0
VERTEX
5
9a0d
8
0
10
23.779602
20
30.389581
30
0.000000
0
SEQEND
5
9a1d
8
0
0
POLYLINE
5
9a2d
8
0
66
1
10
0
20
0
30
0
0
VERTEX
5
9a3d
8
0
10
43.534515
20
29.760874
30
0.000000
0
VERTEX
5
9a4d
8
0
10
42.782066
20
27.911463
30
0.000000
0
VERTEX
5
9a5d
8
0
10
42.782066
20
27.911463
30
0.000000
0
VERTEX
5
9a6d
8
0
10
42.801305
20
27.771582
30
0.000000
0
VERTEX
5
9a7d
8
0
10
42.823274
20
27.634353
30
0.000000
0
VERTEX
5
9a8d
8
0
10
42.848083
20
27.499875
30
0.000000
0
VERTEX
5
9a9d
8
0
10
42.875840
20
27.368242
30
0.000000
0
VERTEX
5
9aad
8
0
10
42.906654
20
27.239550
30
0.000000
0
VERTEX
5
9abd
8
0
10
42.940632
20
27.113895
30
0.000000
0
VERTEX
5
9acd
8
0
10
42.977885
20
26.991373
30
0.000000
0
VERTEX
5
9add
8
0
10
43.018521
20
26.872080
30
0.000000
0
VERTEX
5
9aed
8
0
10
43.062648
20
26.756112
30
0.000000
0
VERTEX
5
9afd
8
0
10
43.110376
20
26.643565
30
0.000000
0
VERTEX
5
9b0d
8
0
10
43.161812
20
26.534534
30
0.000000
0
VERTEX
5
9b1d
8
0
10
43.217065
20
26.429116
30
0.000000
0
VERTEX
5
9b2d
8
0
10
43.276245
20
26.327406
30
0.000000
0
VERTEX
5
9b3d
8
0
10
43.339460
20
26.229501
30
0.000000
0
VERTEX
5
9b4d
8
0
10
43.406818
20
26.135495
30
0.000000
0
VERTEX
5
9b5d
8
0
10
43.478428
20
26.045486
30
0.000000
0
VERTEX
5
9b6d
8
0
10
43.515862
20
26.002010
30
0.000000
0
VERTEX
5
9b7d
8
0
10
43.554400
20
25.959568
30
0.000000
0
VERTEX
5
9b8d
8
0
10
43.594055
20
25.918174
30
0.000000
0
VERTEX
5
9b9d
8
0
10
43.634841
20
25.877839
30
0.000000
0
VERTEX
5
9bad
8
0
10
43.676771
20
25.838574
30
0.000000
0
VERTEX
5
9bbd
8
0
10
43.719860
20
25.800393
30
0.000000
0
VERTEX
5
9bcd
8
0
10
43.764121
20
25.763306
30
0.000000
0
VERTEX
5
9bdd
8
0
10
43.809566
20
25.727326
30
0.000000
0
VERTEX
5
9bed
8
0
10
43.856211
20
25.692465
30
0.000000
0
VERTEX
5
9bfd
8
0
10
43.904068
20
25.658735
30
0.000000
0
VERTEX
5
9c0d
8
0
10
43.953152
20
25.626148
30
0.000000
0
VERTEX
5
9c1d
8
0
10
44.003475
20
25.594715
30
0.000000
0
VERTEX
5
9c2d
8
0
10
44.055051
20
25.564450
30
0.000000
0
VERTEX
5
9c3d
8
0
10
44.107894
20
25.535363
30
0.000000
0
VERTEX
5
9c4d
8
0
10
44.162017
20
25.507467
30
0.000000
0
VERTEX
5
9c5d
8
0
10
44.217435
20
25.480774
30
0.000000
0
VERTEX
5
9c6d
8
0
10
44.274160
20
25.455295
30
0.000000
0
VERTEX
5
9c7d
8
0
10
44.332206
20
25.431043
30
0.000000
0
VERTEX
5
9c8d
8
0
10
44.391588
20
25.408030
30
0.000000
0
VERTEX
5
9c9d
8
0
10
44.452317
20
25.386268
30
0.000000
0
VERTEX
5
9cad
8
0
10
44.514408
20
25.365768
30
0.000000
0
VERTEX
5
9cbd
8
0
10
44.577875
20
25.346543
30
0.000000
0
VERTEX
5
9ccd
8
0
10
44.642731
20
25.328605
30
0.000000
0
VERTEX
5
9cdd
8
0
10
44.708990
20
25.311965
30
0.000000
0
VERTEX
5
9ced
8
0
10
44.776665
20
25.296636
30
0.000000
0
VERTEX
5
9cfd
8
0
10
44.845770
20
25.282629
30
0.000000
0
VERTEX
5
9d0d
8
0
10
44.916318
20
25.269957
30
0.000000
0
VERTEX
5
9d1d
8
0
10
44.988324
20
25.258632
30
0.000000
0
VERTEX
5
9d2d
8
0
10
45.061800
20
25.248665
30
0.000000
0
VERTEX
5
9d3d
8
0
10
45.136760
20
25.240069
30
0.000000
0
VERTEX
5
9d4d
8
0
10
45.213218
20
25.232856
30
0.000000
0
VERTEX
5
9d5d
8
0
10
45.291188
20
25.227037
30
0.000000
0
VERTEX
5
9d6d
8
0
10
45.291188
20
25.227037
30
0.000000
0
VERTEX
5
9d7d
8
0
10
45.430439
20
25.251015
30
0.000000
0
VERTEX
5
9d8d
8
0
10
45.564281
20
25.279735
30
0.000000
0
VERTEX
5
9d9d
8
0
10
45.692810
20
25.313109
30
0.000000
0
VERTEX
5
9dad
8
0
10
45.816117
20
25.351044
30
0.000000
0
VERTEX
5
9dbd
8
0
10
45.934295
20
25.393451
30
0.000000
0
VERTEX
5
9dcd
8
0
10
46.047439
20
25.440239
30
0.000000
0
VERTEX
5
9ddd
8
0
10
46.155641
20
25.491319
30
0.000000
0
VERTEX
5
9ded
8
0
10
46.258994
20
25.546600
30
0.000000
0
VERTEX
5
9dfd
8
0
10
46.357591
20
25.605991
30
0.000000
0
VERTEX
5
9e0d
8
0
10
46.451526
20
25.669402
30
0.000000
0
VERTEX
5
9e1d
8
0
10
46.540892
20
25.736743
30
0.000000
0
VERTEX
5
9e2d
8
0
10
46.625782
20
25.807924
30
0.000000
0
VERTEX
5
9e3d
8
0
10
46.706290
20
25.882855
30
0.000000
0
VERTEX
5
9e4d
8
0
10
46.782507
20
25.961444
30
0.000000
0
VERTEX
5
9e5d
8
0
10
46.854529
20
26.043602
30
0.000000
0
VERTEX
5
9e6d
8
0
10
46.922447
20
26.129239
30
0.000000
0
VERTEX
5
9e7d
8
0
10
46.986355
20
26.218263
30
0.000000
0
VERTEX
5
9e8d
8
0
10
47.046346
20
26.310586
30
0.000000
0
VERTEX
5
9e9d
8
0
10
47.102514
20
26.406116
30
0.000000
0
VERTEX
5
9ead
8
0
10
47.154951
20
26.504763
30
0.000000
0
VERTEX
5
9ebd
8
0
10
47.203751
20
26.606437
30
0.000000
0
VERTEX
5
9ecd
8
0
10
47.249007
20
26.711048
30
0.000000
0
VERTEX
5
9edd
8
0
10
47.290813
20
26.818505
30
0.000000
0
VERTEX
5
9eed
8
0
10
47.329260
20
26.928718
30
0.000000
0
VERTEX
5
9efd
8
0
10
47.364443
20
27.041597
30
0.000000
0
VERTEX
5
9f0d
8
0
10
47.396455
20
27.157051
30
0.000000
0
VERTEX
5
9f1d
8
0
10
47.425388
20
27.274990
30
0.000000
0
VERTEX
5
9f2d
8
0
10
47.451337
20
27.395324
30
0.000000
0
VERTEX
5
9f3d
8
0
10
47.474393
20
27.517962
30
0.000000
0
VERTEX
5
9f4d
8
0
10
47.494652
20
27.642815
30
0.000000
0
VERTEX
5
9f5d
8
0
10
47.512205
20
27.769791
30
0.000000
0
VERTEX
5
9f6d
8
0
10
47.527145
20
27.898801
30
0.000000
0
VERTEX
5
9f7d
8
0
10
47.527145
20
27.898801
30
0.000000
0
VERTEX
5
9f8d
8
0
10
47.508892
20
28.031808
30
0.000000
0
VERTEX
5
9f9d
8
0
10
47.486807
20
28.161243
30
0.000000
0
VERTEX
5
9fad
8
0
10
47.460896
20
28.287101
30
0.000000
0
VERTEX
5
9fbd
8
0
10
47.431163
20
28.409380
30
0.000000
0
VERTEX
5
9fcd
8
0
10
47.397613
20
28.528075
30
0.000000
0
VERTEX
5
9fdd
8
0
10
47.360251
20
28.643181
30
0.000000
0
VERTEX
5
9fed
8
0
10
47.319080
20
28.754695
30
0.000000
0
VERTEX
5
9ffd
8
0
10
47.274106
20
28.862613
30
0.000000
0
VERTEX
5
a00d
8
0
10
47.225333
20
28.966930
30
0.000000
0
VERTEX
5
a01d
8
0
10
47.172766
20
29.067643
30
0.000000
0
VERTEX
5
a02d
8
0
10
47.116409
20
29.164747
30
0.000000
0
VERTEX
5
a03d
8
0
10
47.056267
20
29.258239
30
0.000000
0
VERTEX
5
a04d
8
0
10
46.992345
20
29.348114
30
0.000000
0
VERTEX
5
a05d
8
0
10
46.924646
20
29.434368
30
0.000000
0
VERTEX
5
a06d
8
0
10
46.853176
20
29.516997
30
0.000000
0
VERTEX
5
a07d
8
0
10
46.777940
20
29.595998
30
0.000000
0
VERTEX
5
a08d
8
0
10
46.698941
20
29.671365
30
0.000000
0
VERTEX
5
a09d
8
0
10
46.616185
20
29.743096
30
0.000000
0
VERTEX
5
a0ad
8
0
10
46.529676
20
29.811185
30
0.000000
0
VERTEX
5
a0bd
8
0
10
46.439419
20
29.875629
30
0.000000
0
VERTEX
5
a0cd
8
0
10
46.345417
20
29.936424
30
0.000000
0
VERTEX
5
a0dd
8
0
10
46.247677
20
29.993565
30
0.000000
0
VERTEX
5
a0ed
8
0
10
46.146202
20
30.047049
30
0.000000
0
VERTEX
5
a0fd
8
0
10
46.040997
20
30.096872
30
0.000000
0
VERTEX
5
a10d
8
0
10
45.932066
20
30.143029
30
0.000000
0
VERTEX
5
a11d
8
0
10
45.819415
20
30.185516
30
0.000000
0
VERTEX
5
a12d
8
0
10
45.703047
20
30.224330
30
0.000000
0
VERTEX
5
a13d
8
0
10
45.582967
20
30.259466
30
0.000000
0
VERTEX
5
a14d
8
0
10
45.459181
20
30.290920
30
0.000000
0
VERTEX
5
a15d
8
0
10
45.331692
20
30.318689
30
0.000000
0
VERTEX
5
a16d
8
0
10
45.200505
20
30.342767
30
0.000000
0
VERTEX
5
a17d
8
0
10
45.065625
20
30.363151
30
0.000000
0
VERTEX
5
a18d
8
0
10
43.534515
20
29.760874
30
0.000000
0
SEQEND
5
a19d
8
0
0
POLYLINE
5
a1ad
8
0
66
1
10
0
20
0
30
0
0
VERTEX
5
a1bd
8
0
10
32.935722
20
30.433366
30
0.000000
0
VERTEX
5
a1cd
8
0
10
33.779506
20
29.158386
30
0.000000
0
VERTEX
5
a1dd
8
0
10
33.569856
20
28.954505
30
0.000000
0
VERTEX
5
a1ed
8
0
10
32.127528
20
29.568840
30
0.000000
0
VERTEX
5
a1fd
8
0
10
31.869272
20
29.999266
30
0.000000
0
VERTEX
5
a20d
8
0
10
32.935722
20
30.433366
30
0.000000
0
SEQEND
5
a21d
8
0
0
POLYLINE
5
a22d
8
0
66
1
10
0
20
0
30
0
0
VERTEX
5
a23d
8
0
10
6.426024
20
25.560638
30
0.000000
0
VERTEX
5
a24d
8
0
10
5.746051
20
25.383253
30
0.000000
0
VERTEX
5
a25d
8
0
10
5.746051
20
24.860048
30
0.000000
0
VERTEX
5
a26d
8
0
10
6.825719
20
24.939882
30
0.000000
0
VERTEX
5
a27d
8
0
10
6.426024
20
25.560638
30
0.000000
0
SEQEND
5
a28d
8
0
0
POLYLINE
5
a29d
8
0
66
1
10
0
20
0
30
0
0
VERTEX
5
a2ad
8
0
10
41.062604
20
24.268851
30
0.000000
0
VERTEX
5
a2bd
8
0
10
41.062604
20
24.268851
30
0.000000
0
VERTEX
5
a2cd
8
0
10
41.073651
20
24.154733
30
0.000000
0
VERTEX
5
a2dd
8
0
10
41.081265
20
24.042745
30
0.000000
0
VERTEX
5
a2ed
8
0
10
41.085412
20
23.932911
30
0.000000
0
VERTEX
5
a2fd
8
0
10
41.086057
20
23.825257
30
0.000000
0
VERTEX
5
a30d
8
0
10
41.083167
20
23.719809
30
0.000000
0
VERTEX
5
a31d
8
0
10
41.076707
20
23.616592
30
0.000000
0
VERTEX
5
a32d
8
0
10
41.066642
20
23.515631
30
0.000000
0
VERTEX
5
a33d
8
0
10
41.052940
20
23.416953
30
0.000000
0
VERTEX
5
a34d
8
0
10
41.035566
20
23.320583
30
0.000000
0
VERTEX
5
a35d
8
0
10
41.014485
20
23.226545
30
0.000000
0
VERTEX
5
a36d
8
0
10
40.989663
20
23.134866
30
0.000000
0
VERTEX
5
a37d
8
0
10
40.961067
20
23.045571
30
0.000000
0
VERTEX
5
a38d
8
0
10
40.928662
20
22.958686
30
0.000000
0
VERTEX
5
a39d
8
0
10
40.892413
20
22.874235
30
0.000000
0
VERTEX
5
a3ad
8
0
10
40.852288
20
22.792245
30
0.000000
0
VERTEX
5
a3bd
8
0
10
40.808250
20
22.712741
30
0.000000
0
VERTEX
5
a3cd
8
0
10
40.760268
20
22.635748
30
0.000000
0
VERTEX
5
a3dd
8
0
10
40.708305
20
22.561292
30
0.000000
0
VERTEX
5
a3ed
8
0
10
40.652328
20
22.489399
30
0.000000
0
VERTEX
5
a3fd
8
0
10
40.592304
20
22.420093
30
0.000000
0
VERTEX
5
a40d
8
0
10
40.528197
20
22.353401
30
0.000000
0
VERTEX
5
a41d
8
0
10
40.459973
20
22.289347
30
0.000000
0
VERTEX
5
a42d
8
0
10
40.387599
20
22.227958
30
0.000000
0
VERTEX
5
a43d
8
0
10
40.311040
20
22.169258
30
0.000000
0
VERTEX
5
a44d
8
0
10
40.230262
20
22.113273
30
0.000000
0
VERTEX
5
a45d
8
0
10
40.145231
20
22.060029
30
0.000000
0
VERTEX
5
a46d
8
0
10
40.055913
20
22.009552
30
0.000000
0
VERTEX
5
a47d
8
0
10
39.962273
20
21.961866
30
0.000000
0
VERTEX
5
a48d
8
0
10
39.864278
20
21.916997
30
0.000000
0
VERTEX
5
a49d
8
0
10
39.761893
20
21.874970
30
0.000000
0
VERTEX
5
a4ad
8
0
10
39.655084
20
21.835812
30
0.000000
0
VERTEX
5
a4bd
8
0
10
39.543817
20
21.799547
30
0.000000
0
VERTEX
5
a4cd
8
0
10
39.543817
20
21.799547
30
0.000000
0
VERTEX
5
a4dd
8
0
10
39.424643
20
21.777203
30
0.000000
0
VERTEX
5
a4ed
8
0
10
39.307398
20
21.759050
30
0.000000
0
VERTEX
5
a4fd
8
0
10
39.192081
20
21.745084
30
0.000000
0
VERTEX
5
a50d
8
0
10
39.078692
20
21.735305
30
0.000000
0
VERTEX
5
a51d
8
0
10
38.967230
20
21.729709
30
0.000000
0
VERTEX
5
a52d
8
0
10
38.857695
20
21.728295
30
0.000000
0
VERTEX
5
a53d
8
0
10
38.750087
20
21.731058
30
0.000000
0
VERTEX
5
a54d
8
0
10
38.644406
20
21.737998
30
0.000000
0
VERTEX
5
a55d
8
0
10
38.540651
20
21.749111
30
0.000000
0
VERTEX
5
a56d
8
0
10
38.438822
20
21.764395
30
0.000000
0
VERTEX
5
a57d
8
0
10
38.338919
20
21.783849
30
0.000000
0
VERTEX
5
a58d
8
0
10
38.240941
20
21.807468
30
0.000000
0
VERTEX
5
a59d
8
0
10
38.144889
20
21.835251
30
0.000000
0
VERTEX
5
a5ad
8
0
10
38.050762
20
21.867195
30
0.000000
0
VERTEX
5
a5bd
8
0
10
37.958560
20
21.903299
30
0.000000
0
VERTEX
5
a5cd
8
0
10
37.868283
20
21.943558
30
0.000000
0
VERTEX
5
a5dd
8
0
10
37.779929
20
21.987972
30
0.000000
0
VERTEX
5
a5ed
8
0
10
37.693500
20
22.036537
30
0.000000
0
VERTEX
5
a5fd
8
0
10
37.608995
20
22.089252
30
0.000000
0
VERTEX
5
a60d
8
0
10
37.526413
20
22.146113
30
0.000000
0
VERTEX
5
a61d
8
0
10
37.445754
20
22.207118
30
0.000000
0
VERTEX
5
a62d
8
0
10
37.367019
20
22.272264
30
0.000000
0
VERTEX
5
a63d
8
0
10
37.290206
20
22.341550
30
0.000000
0
VERTEX
5
a64d
8
0
10
37.215316
20
22.414973
30
0.000000
0
VERTEX
5
a65d
8
0
10
37.142348
20
22.492530
30
0.000000
0
VERTEX
5
a66d
8
0
10
37.071302
20
22.574220
30
0.000000
0
VERTEX
5
a67d
8
0
10
37.002178
20
22.660038
30
0.000000
0
VERTEX
5
a68d
8
0
10
36.934975
20
22.749984
30
0.000000
0
VERTEX
5
a69d
8
0
10
36.869694
20
22.844054
30
0.000000
0
VERTEX
5
a6ad
8
0
10
36.806333
20
22.942246
30
0.000000
0
VERTEX
5
a6bd
8
0
10
36.744893
20
23.044558
30
0.000000
0
VERTEX
5
a6cd
8
0
10
36.685374
20
23.150987
30
0.000000
0
VERTEX
5
a6dd
8
0
10
36.764531
20
24.382135
30
0.000000
0
VERTEX
5
a6ed
8
0
10
36.764531
20
24.382135
30
0.000000
0
VERTEX
5
a6fd
8
0
10
36.834695
20
24.466764
30
0.000000
0
VERTEX
5
a70d
8
0
10
36.904721
20
24.548518
30
0.000000
0
VERTEX
5
a71d
8
0
10
36.974611
20
24.627401
30
0.000000
0
VERTEX
5
a72d
8
0
10
37.044368
20
24.703420
30
0.000000
0
VERTEX
5
a73d
8
0
10
37.113992
20
24.776582
30
0.000000
0
VERTEX
5
a74d
8
0
10
37.183487
20
24.846894
30
0.000000
0
VERTEX
5
a75d
8
0
10
37.252854
20
24.914361
30
0.000000
0
VERTEX
5
a76d
8
0
10
37.322095
20
24.978991
30
0.000000
0
VERTEX
5
a77d
8
0
10
37.391213
20
25.040789
30
0.000000
0
VERTEX
5
a78d
8
0
10
37.460209
20
25.099762
30
0.000000
0
VERTEX
5
a79d
8
0
10
37.529085
20
25.155918
30
0.000000
0
VERTEX
5
a7ad
8
0
10
37.597844
20
25.209261
30
0.000000
0
VERTEX
5
a7bd
8
0
10
37.666488
20
25.259799
30
0.000000
0
VERTEX
5
a7cd
8
0
10
37.735019
20
25.307538
30
0.000000
0
VERTEX
5
a7dd
8
0
10
37.803438
20
25.352484
30
0.000000
0
VERTEX
5
a7ed
8
0
10
37.871748
20
25.394645
30
0.000000
0
VERTEX
5
a7fd
8
0
10
37.939951
20
25.434026
30
0.000000
0
VERTEX
5
a80d
8
0
10
38.008049
20
25.470633
30
0.000000
0
VERTEX
5
a81d
8
0
10
38.076043
20
25.504475
30
0.000000
0
VERTEX
5
a82d
8
0
10
38.143937
20
25.535556
30
0.000000
0
VERTEX
5
a83d
8
0
10
38.211732
20
25.563884
30
0.000000
0
VERTEX
5
a84d
8
0
10
38.279430
20
25.589464
30
0.000000
0
VERTEX
5
a85d
8
0
10
38.347034
20
25.612304
30
0.000000
0
VERTEX
5
a86d
8
0
10
38.414544
20
25.632409
30
0.000000
0
VERTEX
5
a87d
8
0
10
38.481964
20
25.649787
30
0.000000
0
VERTEX
5
a88d
8
0
10
38.549296
20
25.664444
30
0.000000
0
VERTEX
5
a89d
8
0
10
38.616541
20
25.676385
30
0.000000
0
VERTEX
5
a8ad
8
0
10
38.683701
20
25.685619
30
0.000000
0
VERTEX
5
a8bd
8
0
10
38.750779
20
25.692150
30
0.000000
0
VERTEX
5
a8cd
8
0
10
38.817777
20
25.695986
30
0.000000
0
VERTEX
5
a8dd
8
0
10
38.884696
20
25.697134
30
0.000000
0
VERTEX
5
a8ed
8
0
10
38.951540
20
25.695598
30
0.000000
0
VERTEX
5
a8fd
8
0
10
39.018309
20
25.691387
30
0.000000
0
VERTEX
5
a90d
8
0
10
39.085006
20
25.684506
30
0.000000
0
VERTEX
5
a91d
8
0
10
39.151632
20
25.674962
30
0.000000
0
VERTEX
5
a92d
8
0
10
39.218191
20
25.662762
30
0.000000
0
VERTEX
5
a93d
8
0
10
39.284684
20
25.647911
30
0.000000
0
VERTEX
5
a94d
8
0
10
39.351113
20
25.630417
30
0.000000
0
VERTEX
5
a95d
8
0
10
39.417481
20
25.610286
30
0.000000
0
VERTEX
5
a96d
8
0
10
39.483788
20
25.587524
30
0.000000
0
VERTEX
5
a97d
8
0
10
39.550038
20
25.562138
30
0.000000
0
VERTEX
5
a98d
8
0
10
39.616232
20
25.534134
30
0.000000
0
VERTEX
5
a99d
8
0
10
39.682373
20
25.503518
30
0.000000
0
VERTEX
5
a9ad
8
0
10
39.748462
20
25.470298
30
0.000000
0
VERTEX
5
a9bd
8
0
10
39.814502
20
25.434480
30
0.000000
0
VERTEX
5
a9cd
8
0
10
39.880494
20
25.396070
30
0.000000
0
VERTEX
5
a9dd
8
0
10
39.946441
20
25.355074
30
0.000000
0
VERTEX
5
a9ed
8
0
10
40.012345
20
25.311499
30
0.000000
0
VERTEX
5
a9fd
8
0
10
40.078208
20
25.265352
30
0.000000
0
VERTEX
5
aa0d
8
0
10
40.144031
20
25.216639
30
0.000000
0
VERTEX
5
aa1d
8
0
10
40.209818
20
25.165367
30
0.000000
0
VERTEX
5
aa2d
8
0
10
40.275569
20
25.111541
30
0.000000
0
VERTEX
5
aa3d
8
0
10
40.341287
20
25.055169
30
0.000000
0
VERTEX
5
aa4d
8
0
10
40.406975
20
24.996257
30
0.000000
0
VERTEX
5
aa5d
8
0
10
40.472634
20
24.934811
30
0.000000
0
VERTEX
5
aa6d
8
0
10
40.538265
20
24.870838
30
0.000000
0
VERTEX
5
aa7d
8
0
10
40.603873
20
24.804344
30
0.000000
0
VERTEX
5
aa8d
8
0
10
40.669457
20
24.735336
30
0.000000
0
VERTEX
5
aa9d
8
0
10
40.735021
20
24.663820
30
0.000000
0
VERTEX
5
aaad
8
0
10
40.800566
20
24.589803
30
0.000000
0
VERTEX
5
aabd
8
0
10
40.866095
20
24.513291
30
0.000000
0
VERTEX
5
aacd
8
0
10
40.931610
20
24.434291
30
0.000000
0
VERTEX
5
aadd
8
0
10
40.997112
20
24.352809
30
0.000000
0
VERTEX
5
aaed
8
0
10
41.062604
20
24.268851
30
0.000000
0
SEQEND
5
aafd
8
0
0
POLYLINE
5
ab0d
8
0
66
1
10
0
20
0
30
0
0
VERTEX
5
ab1d
8
0
10
38.175502
20
24.861860
30
0.000000
0
VERTEX
5
ab2d
8
0
10
38.175502
20
24.861860
30
0.000000
0
VERTEX
5
ab3d
8
0
10
38.225872
20
24.862800
30
0.000000
0
VERTEX
5
ab4d
8
0
10
38.274276
20
24.860463
30
0.000000
0
VERTEX
5
ab5d
8
0
10
38.320787
20
24.854975
30
0.000000
0
VERTEX
5
ab6d
8
0
10
38.365479
20
24.846461
30
0.000000
0
VERTEX
5
ab7d
8
0
10
38.408427
20
24.835047
30
0.000000
0
VERTEX
5
ab8d
8
0
10
38.449703
20
24.820858
30
0.000000
0
VERTEX
5
ab9d
8
0
10
38.489382
20
24.804019
30
0.000000
0
VERTEX
5
abad
8
0
10
38.527538
20
24.784657
30
0.000000
0
VERTEX
5
abbd
8
0
10
38.564244
20
24.762895
30
0.000000
0
VERTEX
5
abcd
8
0
10
38.599574
20
24.738860
30
0.000000
0
VERTEX
5
abdd
8
0
10
38.633602
20
24.712677
30
0.000000
0
VERTEX
5
abed
8
0
10
38.666402
20
24.684472
30
0.000000
0
VERTEX
5
abfd
8
0
10
38.698047
20
24.654369
30
0.000000
0
VERTEX
5
ac0d
8
0
10
38.728612
20
24.622495
30
0.000000
0
VERTEX
5
ac1d
8
0
10
38.758170
20
24.588974
30
0.000000
0
VERTEX
5
ac2d
8
0
10
38.786796
20
24.553932
30
0.000000
0
VERTEX
5
ac3d
8
0
10
38.841542
20
24.479787
30
0.000000
0
VERTEX
5
ac4d
8
0
10
38.893442
20
24.401063
30
0.000000
0
VERTEX
5
ac5d
8
0
10
38.943087
20
24.318764
30
0.000000
0
VERTEX
5
ac6d
8
0
10
38.991067
20
24.233891
30
0.000000
0
VERTEX
5
ac7d
8
0
10
39.084392
20
24.060441
30
0.000000
0
VERTEX
5
ac8d
8
0
10
39.130919
20
23.973869
30
0.000000
0
VERTEX
5
ac9d
8
0
10
39.178143
20
23.888738
30
0.000000
0
VERTEX
5
acad
8
0
10
39.226654
20
23.806049
30
0.000000
0
VERTEX
5
acbd
8
0
10
39.277043
20
23.726808
30
0.000000
0
VERTEX
5
accd
8
0
10
39.329900
20
23.652016
30
0.000000
0
VERTEX
5
acdd
8
0
10
39.357438
20
23.616602
30
0.000000
0
VERTEX
5
aced
8
0
10
39.385815
20
23.582676
30
0.000000
0
VERTEX
5
acfd
8
0
10
39.415105
20
23.550365
30
0.000000
0
VERTEX
5
ad0d
8
0
10
39.445380
20
23.519793
30
0.000000
0
VERTEX
5
ad1d
8
0
10
39.476716
20
23.491086
30
0.000000
0
VERTEX
5
ad2d
8
0
10
39.509185
20
23.464369
30
0.000000
0
VERTEX
5
ad3d
8
0
10
39.542862
20
23.439767
30
0.000000
0
VERTEX
5
ad4d
8
0
10
39.577820
20
23.417407
30
0.000000
0
VERTEX
5
ad5d
8
0
10
39.614134
20
23.397413
30
0.000000
0
VERTEX
5
ad6d
8
0
10
39.651876
20
23.379911
30
0.000000
0
VERTEX
5
ad7d
8
0
10
39.691121
20
23.365026
30
0.000000
0
VERTEX
5
ad8d
8
0
10
39.731943
20
23.352883
30
0.000000
0
VERTEX
5
ad9d
8
0
10
39.774415
20
23.343609
30
0.000000
0
VERTEX
5
adad
8
0
10
39.818612
20
23.337328
30
0.000000
0
VERTEX
5
adbd
8
0
10
39.864606
20
23.334166
30
0.000000
0
VERTEX
5
adcd
8
0
10
39.912473
20
23.334248
30
0.000000
0
VERTEX
5
addd
8
0
10
39.962285
20
23.337699
30
0.000000
0
VERTEX
5
aded
8
0
10
40.014116
20
23.344646
30
0.000000
0
VERTEX
5
adfd
8
0
10
40.068041
20
23.355213
30
0.000000
0
VERTEX
5
ae0d
8
0
10
40.124133
20
23.369525
30
0.000000
0
VERTEX
5
ae1d
8
0
10
40.182466
20
23.387709
30
0.000000
0
VERTEX
5
ae2d
8
0
10
40.243114
20
23.409890
30
0.000000
0
VERTEX
5
ae3d
8
0
10
40.306150
20
23.436192
30
0.000000
0
VERTEX
5
ae4d
8
0
10
40.371648
20
23.466742
30
0.000000
0
VERTEX
5
ae5d
8
0
10
40.439683
20
23.501665
30
0.000000
0
VERTEX
5
ae6d
8
0
10
40.510328
20
23.541085
30
0.000000
0
VERTEX
5
ae7d
8
0
10
40.101374
20
23.734059
30
0.000000
0
VERTEX
5
ae8d
8
0
10
40.385097
20
24.637769
30
0.000000
0
VERTEX
5
ae9d
8
0
10
38.175502
20
24.861860
30
0.000000
0
SEQEND
5
aead
8
0
0
POLYLINE
5
aebd
8
0
66
1
10
0
20
0
30
0
0
VERTEX
5
aecd
8
0
10
3.552207
20
24.595861
30
0.000000
0
VERTEX
5
aedd
8
0
10
3.552207
20
24.595861
30
0.000000
0
VERTEX
5
aeed
8
0
10
3.595599
20
24.559649
30
0.000000
0
VERTEX
5
aefd
8
0
10
3.636082
20
24.518751
30
0.000000
0
VERTEX
5
af0d
8
0
10
3.673969
20
24.473684
30
0.000000
0
VERTEX
5
af1d
8
0
10
3.709572
20
24.424963
30
0.000000
0
VERTEX
5
af2d
8
0
10
3.743204
20
24.373105
30
0.000000
0
VERTEX
5
af3d
8
0
10
3.775177
20
24.318625
30
0.000000
0
VERTEX
5
af4d
8
0
10
3.805803
20
24.262040
30
0.000000
0
VERTEX
5
af5d
8
0
10
3.835394
20
24.203865
30
0.000000
0
VERTEX
5
af6d
8
0
10
3.892722
20
24.084811
30
0.000000
0
VERTEX
5
af7d
8
0
10
3.949659
20
23.965591
30
0.000000
0
VERTEX
5
af8d
8
0
10
3.978761
20
23.907209
30
0.000000
0
VERTEX
5
af9d
8
0
10
4.008701
20
23.850333
30
0.000000
0
VERTEX
5
afad
8
0
10
4.039794
20
23.795480
30
0.000000
0
VERTEX
5
afbd
8
0
10
4.072349
20
23.743166
30
0.000000
0
VERTEX
5
afcd
8
0
10
4.106680
20
23.693906
30
0.000000
0
VERTEX
5
afdd
8
0
10
4.143100
20
23.648217
30
0.000000
0
VERTEX
5
afed
8
0
10
4.181919
20
23.606614
30
0.000000
0
VERTEX
5
affd
8
0
10
4.223451
20
23.569614
30
0.000000
0
VERTEX
5
b00d
8
0
10
4.245332
20
23.553001
30
0.000000
0
VERTEX
5
b01d
8
0
10
4.268008
20
23.537732
30
0.000000
0
VERTEX
5
b02d
8
0
10
4.291518
20
23.523872
30
0.000000
0
VERTEX
5
b03d
8
0
10
4.315902
20
23.511485
30
0.000000
0
VERTEX
5
b04d
8
0
10
4.341197
20
23.500636
30
0.000000
0
VERTEX
5
b05d
8
0
10
4.367445
20
23.491389
30
0.000000
0
VERTEX
5
b06d
8
0
10
4.394682
20
23.483808
30
0.000000
0
VERTEX
5
b07d
8
0
10
4.422949
20
23.477959
30
0.000000
0
VERTEX
5
b08d
8
0
10
4.452285
20
23.473906
30
0.000000
0
VERTEX
5
b09d
8
0
10
4.482728
20
23.471712
30
0.000000
0
VERTEX
5
b0ad
8
0
10
4.514317
20
23.471443
30
0.000000
0
VERTEX
5
b0bd
8
0
10
4.547092
20
23.473163
30
0.000000
0
VERTEX
5
b0cd
8
0
10
4.581092
20
23.476937
30
0.000000
0
VERTEX
5
b0dd
8
0
10
4.616355
20
23.482829
30
0.000000
0
VERTEX
5
b0ed
8
0
10
4.652921
20
23.490904
30
0.000000
0
VERTEX
5
b0fd
8
0
10
4.690828
20
23.501226
30
0.000000
0
VERTEX
5
b10d
8
0
10
4.730116
20
23.513860
30
0.000000
0
VERTEX
5
b11d
8
0
10
4.770824
20
23.528869
30
0.000000
0
VERTEX
5
b12d
8
0
10
4.812991
20
23.546320
30
0.000000
0
VERTEX
5
b13d
8
0
10
4.856656
20
23.566275
30
0.000000
0
VERTEX
5
b14d
8
0
10
4.901857
20
23.588801
30
0.000000
0
VERTEX
5
b15d
8
0
10
4.948634
20
23.613960
30
0.000000
0
VERTEX
5
b16d
8
0
10
4.997027
20
23.641818
30
0.000000
0
VERTEX
5
b17d
8
0
10
5.047073
20
23.672439
30
0.000000
0
VERTEX
5
b18d
8
0
10
5.077433
20
24.919247
30
0.000000
0
VERTEX
5
b19d
8
0
10
3.552207
20
24.595861
30
0.000000
0
SEQEND
5
b1ad
8
0
0
POLYLINE
5
b1bd
8
0
66
1
10
0
20
0
30
0
0
VERTEX
5
b1cd
8
0
10
2.066508
20
23.885017
30
0.000000
0
VERTEX
5
b1dd
8
0
10
2.066508
20
23.885017
30
0.000000
0
VERTEX
5
b1ed
8
0
10
2.068827
20
23.800931
30
0.000000
0
VERTEX
5
b1fd
8
0
10
2.066389
20
23.724149
30
0.000000
0
VERTEX
5
b20d
8
0
10
2.059423
20
23.654311
30
0.000000
0
VERTEX
5
b21d
8
0
10
2.048156
20
23.591055
30
0.000000
0
VERTEX
5
b22d
8
0
10
2.032817
20
23.534021
30
0.000000
0
VERTEX
5
b23d
8
0
10
2.013632
20
23.482850
30
0.000000
0
VERTEX
5
b24d
8
0
10
1.990832
20
23.437181
30
0.000000
0
VERTEX
5
b25d
8
0
10
1.964642
20
23.396653
30
0.000000
0
VERTEX
5
b26d
8
0
10
1.935292
20
23.360906
30
0.000000
0
VERTEX
5
b27d
8
0
10
1.903009
20
23.329580
30
0.000000
0
VERTEX
5
b28d
8
0
10
1.868022
20
23.302315
30
0.000000
0
VERTEX
5
b29d
8
0
10
1.830557
20
23.278750
30
0.000000
0
VERTEX
5
b2ad
8
0
10
1.790844
20
23.258525
30
0.000000
0
VERTEX
5
b2bd
8
0
10
1.749111
20
23.241279
30
0.000000
0
VERTEX
5
b2cd
8
0
10
1.705584
20
23.226653
30
0.000000
0
VERTEX
5
b2dd
8
0
10
1.660492
20
23.214286
30
0.000000
0
VERTEX
5
b2ed
8
0
10
1.614064
20
23.203818
30
0.000000
0
VERTEX
5
b2fd
8
0
10
1.566527
20
23.194887
30
0.000000
0
VERTEX
5
b30d
8
0
10
1.469038
20
23.180201
30
0.000000
0
VERTEX
5
b31d
8
0
10
1.369849
20
23.167344
30
0.000000
0
VERTEX
5
b32d
8
0
10
1.270784
20
23.153433
30
0.000000
0
VERTEX
5
b33d
8
0
10
1.221868
20
23.145183
30
0.000000
0
VERTEX
5
b34d
8
0
10
1.173667
20
23.135588
30
0.000000
0
VERTEX
5
b35d
8
0
10
1.126408
20
23.124288
30
0.000000
0
VERTEX
5
b36d
8
0
10
1.080321
20
23.110924
30
0.000000
0
VERTEX
5
b37d
8
0
10
1.035633
20
23.095134
30
0.000000
0
VERTEX
5
b38d
8
0
10
0.992571
20
23.076559
30
0.000000
0
VERTEX
5
b39d
8
0
10
0.951365
20
23.054838
30
0.000000
0
VERTEX
5
b3ad
8
0
10
0.912241
20
23.029611
30
0.000000
0
VERTEX
5
b3bd
8
0
10
1.893983
20
22.963709
30
0.000000
0
VERTEX
5
b3cd
8
0
10
1.972019
20
22.885673
30
0.000000
0
VERTEX
5
b3dd
8
0
10
3.245663
20
22.646535
30
0.000000
0
VERTEX
5
b3ed
8
0
10
3.726323
20
22.828855
30
0.000000
0
VERTEX
5
b3fd
8
0
10
2.765999
20
22.959808
30
0.000000
0
VERTEX
5
b40d
8
0
10
4.054070
20
23.481476
30
0.000000
0
VERTEX
5
b41d
8
0
10
3.730107
20
23.805439
30
0.000000
0
VERTEX
5
b42d
8
0
10
2.967811
20
23.650156
30
0.000000
0
VERTEX
5
b43d
8
0
10
3.452425
20
23.327080
30
0.000000
0
VERTEX
5
b44d
8
0
10
2.355630
20
23.467097
30
0.000000
0
VERTEX
5
b45d
8
0
10
2.405141
20
23.698147
30
0.000000
0
VERTEX
5
b46d
8
0
10
2.066508
20
23.885017
30
0.000000
0
SEQEND
5
b47d
8
0
0
POLYLINE
5
b48d
8
0
66
1
10
0
20
0
30
0
0
VERTEX
5
b49d
8
0
10
37.465874
20
23.498221
30
0.000000
0
VERTEX
5
b4ad
8
0
10
37.465874
20
22.159294
30
0.000000
0
VERTEX
5
b4bd
8
0
10
38.658157
20
22.159294
30
0.000000
0
VERTEX
5
b4cd
8
0
10
38.658157
20
23.498221
30
0.000000
0
VERTEX
5
b4dd
8
0
10
37.465874
20
23.498221
30
0.000000
0
SEQEND
5
b4ed
8
0
0
POLYLINE
5
b4fd
8
0
66
1
10
0
20
0
30
0
0
VERTEX
5
b50d
8
0
10
47.407844
20
5.345199
30
0.000000
0
VERTEX
5
b51d
8
0
10
48.138258
20
4.179181
30
0.000000
0
VERTEX
5
b52d
8
0
10
48.138258
20
4.179181
30
0.000000
0
VERTEX
5
b53d
8
0
10
48.160595
20
4.245464
30
0.000000
0
VERTEX
5
b54d
8
0
10
48.179105
20
4.309222
30
0.000000
0
VERTEX
5
b55d
8
0
10
48.193879
20
4.370513
30
0.000000
0
VERTEX
5
b56d
8
0
10
48.205008
20
4.429398
30
0.000000
0
VERTEX
5
b57d
8
0
10
48.212584
20
4.485938
30
0.000000
0
VERTEX
5
b58d
8
0
10
48.216697
20
4.540192
30
0.000000
0
VERTEX
5
b59d
8
0
10
48.217440
20
4.592220
30
0.000000
0
VERTEX
5
b5ad
8
0
10
48.214904
20
4.642082
30
0.000000
0
VERTEX
5
b5bd
8
0
10
48.209180
20
4.689839
30
0.000000
0
VERTEX
5
b5cd
8
0
10
48.200359
20
4.735550
30
0.000000
0
VERTEX
5
b5dd
8
0
10
48.188533
20
4.779276
30
0.000000
0
VERTEX
5
b5ed
8
0
10
48.173793
20
4.821076
30
0.000000
0
VERTEX
5
b5fd
8
0
10
48.156231
20
4.861010
30
0.000000
0
VERTEX
5
b60d
8
0
10
48.135938
20
4.899140
30
0.000000
0
VERTEX
5
b61d
8
0
10
48.113006
20
4.935523
30
0.000000
0
VERTEX
5
b62d
8
0
10
48.087525
20
4.970222
30
0.000000
0
VERTEX
5
b63d
8
0
10
48.059587
20
5.003295
30
0.000000
0
VERTEX
5
b64d
8
0
10
48.029284
20
5.034803
30
0.000000
0
VERTEX
5
b65d
8
0
10
47.996707
20
5.064806
30
0.000000
0
VERTEX
5
b66d
8
0
10
47.961947
20
5.093364
30
0.000000
0
VERTEX
5
b67d
8
0
10
47.925096
20
5.120537
30
0.000000
0
VERTEX
5
b68d
8
0
10
47.886245
20
5.146385
30
0.000000
0
VERTEX
5
b69d
8
0
10
47.845486
20
5.170967
30
0.000000
0
VERTEX
5
b6ad
8
0
10
47.802909
20
5.194345
30
0.000000
0
VERTEX
5
b6bd
8
0
10
47.758606
20
5.216578
30
0.000000
0
VERTEX
5
b6cd
8
0
10
47.712669
20
5.237727
30
0.000000
0
VERTEX
5
b6dd
8
0
10
47.616258
20
5.277009
30
0.000000
0
VERTEX
5
b6ed
8
0
10
47.514406
20
5.312673
30
0.000000
0
VERTEX
5
b6fd
8
0
10
47.407844
20
5.345199
30
0.000000
0
SEQEND
5
b70d
8
0
0
ENDSEC
0
EOF
