0
SECTION
2
ENTITIES
0
POLYLINE
5
3fd
8
0
66
1
10
0
20
0
30
0
0
VERTEX
5
40d
8
0
10
3.000000
20
0.000000
30
0.000000
0
VERTEX
5
41d
8
0
10
47.000000
20
0.000000
30
0.000000
0
VERTEX
5
42d
8
0
10
47.000000
20
0.000000
30
0.000000
0
VERTEX
5
43d
8
0
10
47.074492
20
0.000924
30
0.000000
0
VERTEX
5
44d
8
0
10
47.148761
20
0.003687
30
0.000000
0
VERTEX
5
45d
8
0
10
47.222779
20
0.008277
30
0.000000
0
VERTEX
5
46d
8
0
10
47.296513
20
0.014680
30
0.000000
0
VERTEX
5
47d
8
0
10
47.369934
20
0.022884
30
0.000000
0
VERTEX
5
48d
8
0
10
47.443009
20
0.032877
30
0.000000
0
VERTEX
5
49d
8
0
10
47.515710
20
0.044646
30
0.000000
0
VERTEX
5
4ad
8
0
10
47.588004
20
0.058177
30
0.000000
0
VERTEX
5
4bd
8
0
10
47.659861
20
0.073458
30
0.000000
0
VERTEX
5
4cd
8
0
10
47.731251
20
0.090477
30
0.000000
0
VERTEX
5
4dd
8
0
10
47.802143
20
0.109220
30
0.000000
0
VERTEX
5
4ed
8
0
10
47.872505
20
0.129676
30
0.000000
0
VERTEX
5
4fd
8
0
10
47.942308
20
0.151830
30
0.000000
0
VERTEX
5
50d
8
0
10
48.011520
20
0.175671
30
0.000000
0
VERTEX
5
51d
8
0
10
48.080111
20
0.201186
30
0.000000
0
VERTEX
5
52d
8
0
10
48.148050
20
0.228361
30
0.000000
0
VERTEX
5
53d
8
0
10
48.215307
20
0.257185
30
0.000000
0
VERTEX
5
54d
8
0
10
48.281849
20
0.287645
30
0.000000
0
VERTEX
5
55d
8
0
10
48.347648
20
0.319727
30
0.000000
0
VERTEX
5
56d
8
0
10
48.412671
20
0.353420
30
0.000000
0
VERTEX
5
57d
8
0
10
48.476889
20
0.388709
30
0.000000
0
VERTEX
5
58d
8
0
10
48.540271
20
0.425584
30
0.000000
0
VERTEX
5
59d
8
0
10
48.602785
20
0.464030
30
0.000000
0
VERTEX
5
5ad
8
0
10
48.664402
20
0.504035
30
0.000000
0
VERTEX
5
5bd
8
0
10
48.725089
20
0.545587
30
0.000000
0
VERTEX
5
5cd
8
0
10
48.784818
20
0.588672
30
0.000000
0
VERTEX
5
5dd
8
0
10
48.843556
20
0.633279
30
0.000000
0
VERTEX
5
5ed
8
0
10
48.901274
20
0.679394
30
0.000000
0
VERTEX
5
5fd
8
0
10
48.957939
20
0.727004
30
0.000000
0
VERTEX
5
60d
8
0
10
49.013523
20
0.776097
30
0.000000
0
VERTEX
5
61d
8
0
10
49.067994
20
0.826659
30
0.000000
0
VERTEX
5
62d
8
0
10
49.121320
20
0.878680
30
0.000000
0
VERTEX
5
63d
8
0
10
49.121320
20
0.878680
30
0.000000
0
VERTEX
5
64d
8
0
10
49.173341
20
0.932006
30
0.000000
0
VERTEX
5
65d
8
0
10
49.223903
20
0.986477
30
0.000000
0
VERTEX
5
66d
8
0
10
49.272996
20
1.042061
30
0.000000
0
VERTEX
5
67d
8
0
10
49.320606
20
1.098726
30
0.000000
0
VERTEX
5
68d
8
0
10
49.366721
20
1.156444
30
0.000000
0
VERTEX
5
69d
8
0
10
49.411328
20
1.215182
30
0.000000
0
VERTEX
5
6ad
8
0
10
49.454413
20
1.274911
30
0.000000
0
VERTEX
5
6bd
8
0
10
49.495965
20
1.335598
30
0.000000
0
VERTEX
5
6cd
8
0
10
49.535970
20
1.397215
30
0.000000
0
VERTEX
5
6dd
8
0
10
49.574416
20
1.459729
30
0.000000
0
VERTEX
5
6ed
8
0
10
49.611291
20
1.523111
30
0.000000
0
VERTEX
5
6fd
8
0
10
49.646580
20
1.587329
30
0.000000
0
VERTEX
5
70d
8
0
10
49.680273
20
1.652352
30
0.000000
0
VERTEX
5
71d
8
0
10
49.712355
20
1.718151
30
0.000000
0
VERTEX
5
72d
8
0
10
49.742815
20
1.784693
30
0.000000
0
VERTEX
5
73d
8
0
10
49.771639
20
1.851950
30
0.000000
0
VERTEX
5
74d
8
0
10
49.798814
20
1.919889
30
0.000000
0
VERTEX
5
75d
8
0
10
49.824329
20
1.988480
30
0.000000
0
VERTEX
5
76d
8
0
10
49.848170
20
2.057692
30
0.000000
0
VERTEX
5
77d
8
0
10
49.870324
20
2.127495
30
0.000000
0
VERTEX
5
78d
8
0
10
49.890780
20
2.197857
30
0.000000
0
VERTEX
5
79d
8
0
10
49.909523
20
2.268749
30
0.000000
0
VERTEX
5
7ad
8
0
10
49.926542
20
2.340139
30
0.000000
0
VERTEX
5
7bd
8
0
10
49.941823
20
2.411996
30
0.000000
0
VERTEX
5
7cd
8
0
10
49.955354
20
2.484290
30
0.000000
0
VERTEX
5
7dd
8
0
10
49.967123
20
2.556991
30
0.000000
0
VERTEX
5
7ed
8
0
10
49.977116
20
2.630066
30
0.000000
0
VERTEX
5
7fd
8
0
10
49.985320
20
2.703487
30
0.000000
0
VERTEX
5
80d
8
0
10
49.991723
20
2.777221
30
0.000000
0
VERTEX
5
81d
8
0
10
49.996313
20
2.851239
30
0.000000
0
VERTEX
5
82d
8
0
10
49.999076
20
2.925508
30
0.000000
0
VERTEX
5
83d
8
0
10
50.000000
20
3.000000
30
0.000000
0
VERTEX
5
84d
8
0
10
50.000000
20
47.000000
30
0.000000
0
VERTEX
5
85d
8
0
10
50.000000
20
47.000000
30
0.000000
0
VERTEX
5
86d
8
0
10
49.999076
20
47.074492
30
0.000000
0
VERTEX
5
87d
8
0
10
49.996313
20
47.148761
30
0.000000
0
VERTEX
5
88d
8
0
10
49.991723
20
47.222779
30
0.000000
0
VERTEX
5
89d
8
0
10
49.985320
20
47.296513
30
0.000000
0
VERTEX
5
8ad
8
0
10
49.977116
20
47.369934
30
0.000000
0
VERTEX
5
8bd
8
0
10
49.967123
20
47.443009
30
0.000000
0
VERTEX
5
8cd
8
0
10
49.955354
20
47.515710
30
0.000000
0
VERTEX
5
8dd
8
0
10
49.941823
20
47.588004
30
0.000000
0
VERTEX
5
8ed
8
0
10
49.926542
20
47.659861
30
0.000000
0
VERTEX
5
8fd
8
0
10
49.909523
20
47.731251
30
0.000000
0
VERTEX
5
90d
8
0
10
49.890780
20
47.802143
30
0.000000
0
VERTEX
5
91d
8
0
10
49.870324
20
47.872505
30
0.000000
0
VERTEX
5
92d
8
0
10
49.848170
20
47.942308
30
0.000000
0
VERTEX
5
93d
8
0
10
49.824329
20
48.011520
30
0.000000
0
VERTEX
5
94d
8
0
10
49.798814
20
48.080111
30
0.000000
0
VERTEX
5
95d
8
0
10
49.771639
20
48.148050
30
0.000000
0
VERTEX
5
96d
8
0
10
49.742815
20
48.215307
30
0.000000
0
VERTEX
5
97d
8
0
10
49.712355
20
48.281849
30
0.000000
0
VERTEX
5
98d
8
0
10
49.680273
20
48.347648
30
0.000000
0
VERTEX
5
99d
8
0
10
49.646580
20
48.412671
30
0.000000
0
VERTEX
5
9ad
8
0
10
49.611291
20
48.476889
30
0.000000
0
VERTEX
5
9bd
8
0
10
49.574416
20
48.540271
30
0.000000
0
VERTEX
5
9cd
8
0
10
49.535970
20
48.602785
30
0.000000
0
VERTEX
5
9dd
8
0
10
49.495965
20
48.664402
30
0.000000
0
VERTEX
5
9ed
8
0
10
49.454413
20
48.725089
30
0.000000
0
VERTEX
5
9fd
8
0
10
49.411328
20
48.784818
30
0.000000
0
VERTEX
5
a0d
8
0
10
49.366721
20
48.843556
30
0.000000
0
VERTEX
5
a1d
8
0
10
49.320606
20
48.901274
30
0.000000
0
VERTEX
5
a2d
8
0
10
49.272996
20
48.957939
30
0.000000
0
VERTEX
5
a3d
8
0
10
49.223903
20
49.013523
30
0.000000
0
VERTEX
5
a4d
8
0
10
49.173341
20
49.067994
30
0.000000
0
VERTEX
5
a5d
8
0
10
49.121320
20
49.121320
30
0.000000
0
VERTEX
5
a6d
8
0
10
49.121320
20
49.121320
30
0.000000
0
VERTEX
5
a7d
8
0
10
49.067994
20
49.173341
30
0.000000
0
VERTEX
5
a8d
8
0
10
49.013523
20
49.223903
30
0.000000
0
VERTEX
5
a9d
8
0
10
48.957939
20
49.272996
30
0.000000
0
VERTEX
5
aad
8
0
10
48.901274
20
49.320606
30
0.000000
0
VERTEX
5
abd
8
0
10
48.843556
20
49.366721
30
0.000000
0
VERTEX
5
acd
8
0
10
48.784818
20
49.411328
30
0.000000
0
VERTEX
5
add
8
0
10
48.725089
20
49.454413
30
0.000000
0
VERTEX
5
aed
8
0
10
48.664402
20
49.495965
30
0.000000
0
VERTEX
5
afd
8
0
10
48.602785
20
49.535970
30
0.000000
0
VERTEX
5
b0d
8
0
10
48.540271
20
49.574416
30
0.000000
0
VERTEX
5
b1d
8
0
10
48.476889
20
49.611291
30
0.000000
0
VERTEX
5
b2d
8
0
10
48.412671
20
49.646580
30
0.000000
0
VERTEX
5
b3d
8
0
10
48.347648
20
49.680273
30
0.000000
0
VERTEX
5
b4d
8
0
10
48.281849
20
49.712355
30
0.000000
0
VERTEX
5
b5d
8
0
10
48.215307
20
49.742815
30
0.000000
0
VERTEX
5
b6d
8
0
10
48.148050
20
49.771639
30
0.000000
0
VERTEX
5
b7d
8
0
10
48.080111
20
49.798814
30
0.000000
0
VERTEX
5
b8d
8
0
10
48.011520
20
49.824329
30
0.000000
0
VERTEX
5
b9d
8
0
10
47.942308
20
49.848170
30
0.000000
0
VERTEX
5
bad
8
0
10
47.872505
20
49.870324
30
0.000000
0
VERTEX
5
bbd
8
0
10
47.802143
20
49.890780
30
0.000000
0
VERTEX
5
bcd
8
0
10
47.731251
20
49.909523
30
0.000000
0
VERTEX
5
bdd
8
0
10
47.659861
20
49.926542
30
0.000000
0
VERTEX
5
bed
8
0
10
47.588004
20
49.941823
30
0.000000
0
VERTEX
5
bfd
8
0
10
47.515710
20
49.955354
30
0.000000
0
VERTEX
5
c0d
8
0
10
47.443009
20
49.967123
30
0.000000
0
VERTEX
5
c1d
8
0
10
47.369934
20
49.977116
30
0.000000
0
VERTEX
5
c2d
8
0
10
47.296513
20
49.985320
30
0.000000
0
VERTEX
5
c3d
8
0
10
47.222779
20
49.991723
30
0.000000
0
VERTEX
5
c4d
8
0
10
47.148761
20
49.996313
30
0.000000
0
VERTEX
5
c5d
8
0
10
47.074492
20
49.999076
30
0.000000
0
VERTEX
5
c6d
8
0
10
47.000000
20
50.000000
30
0.000000
0
VERTEX
5
c7d
8
0
10
3.000000
20
50.000000
30
0.000000
0
VERTEX
5
c8d
8
0
10
3.000000
20
50.000000
30
0.000000
0
VERTEX
5
c9d
8
0
10
2.925508
20
49.999076
30
0.000000
0
VERTEX
5
cad
8
0
10
2.851239
20
49.996313
30
0.000000
0
VERTEX
5
cbd
8
0
10
2.777221
20
49.991723
30
0.000000
0
VERTEX
5
ccd
8
0
10
2.703487
20
49.985320
30
0.000000
0
VERTEX
5
cdd
8
0
10
2.630066
20
49.977116
30
0.000000
0
VERTEX
5
ced
8
0
10
2.556991
20
49.967123
30
0.000000
0
VERTEX
5
cfd
8
0
10
2.484290
20
49.955354
30
0.000000
0
VERTEX
5
d0d
8
0
10
2.411996
20
49.941823
30
0.000000
0
VERTEX
5
d1d
8
0
10
2.340139
20
49.926542
30
0.000000
0
VERTEX
5
d2d
8
0
10
2.268749
20
49.909523
30
0.000000
0
VERTEX
5
d3d
8
0
10
2.197857
20
49.890780
30
0.000000
0
VERTEX
5
d4d
8
0
10
2.127495
20
49.870324
30
0.000000
0
VERTEX
5
d5d
8
0
10
2.057692
20
49.848170
30
0.000000
0
VERTEX
5
d6d
8
0
10
1.988480
20
49.824329
30
0.000000
0
VERTEX
5
d7d
8
0
10
1.919889
20
49.798814
30
0.000000
0
VERTEX
5
d8d
8
0
10
1.851950
20
49.771639
30
0.000000
0
VERTEX
5
d9d
8
0
10
1.784693
20
49.742815
30
0.000000
0
VERTEX
5
dad
8
0
10
1.718151
20
49.712355
30
0.000000
0
VERTEX
5
dbd
8
0
10
1.652352
20
49.680273
30
0.000000
0
VERTEX
5
dcd
8
0
10
1.587329
20
49.646580
30
0.000000
0
VERTEX
5
ddd
8
0
10
1.523111
20
49.611291
30
0.000000
0
VERTEX
5
ded
8
0
10
1.459729
20
49.574416
30
0.000000
0
VERTEX
5
dfd
8
0
10
1.397215
20
49.535970
30
0.000000
0
VERTEX
5
e0d
8
0
10
1.335598
20
49.495965
30
0.000000
0
VERTEX
5
e1d
8
0
10
1.274911
20
49.454413
30
0.000000
0
VERTEX
5
e2d
8
0
10
1.215182
20
49.411328
30
0.000000
0
VERTEX
5
e3d
8
0
10
1.156444
20
49.366721
30
0.000000
0
VERTEX
5
e4d
8
0
10
1.098726
20
49.320606
30
0.000000
0
VERTEX
5
e5d
8
0
10
1.042061
20
49.272996
30
0.000000
0
VERTEX
5
e6d
8
0
10
0.986477
20
49.223903
30
0.000000
0
VERTEX
5
e7d
8
0
10
0.932006
20
49.173341
30
0.000000
0
VERTEX
5
e8d
8
0
10
0.878680
20
49.121320
30
0.000000
0
VERTEX
5
e9d
8
0
10
0.878680
20
49.121320
30
0.000000
0
VERTEX
5
ead
8
0
10
0.826659
20
49.067994
30
0.000000
0
VERTEX
5
ebd
8
0
10
0.776097
20
49.013523
30
0.000000
0
VERTEX
5
ecd
8
0
10
0.727004
20
48.957939
30
0.000000
0
VERTEX
5
edd
8
0
10
0.679394
20
48.901274
30
0.000000
0
VERTEX
5
eed
8
0
10
0.633279
20
48.843556
30
0.000000
0
VERTEX
5
efd
8
0
10
0.588672
20
48.784818
30
0.000000
0
VERTEX
5
f0d
8
0
10
0.545587
20
48.725089
30
0.000000
0
VERTEX
5
f1d
8
0
10
0.504035
20
48.664402
30
0.000000
0
VERTEX
5
f2d
8
0
10
0.464030
20
48.602785
30
0.000000
0
VERTEX
5
f3d
8
0
10
0.425584
20
48.540271
30
0.000000
0
VERTEX
5
f4d
8
0
10
0.388709
20
48.476889
30
0.000000
0
VERTEX
5
f5d
8
0
10
0.353420
20
48.412671
30
0.000000
0
VERTEX
5
f6d
8
0
10
0.319727
20
48.347648
30
0.000000
0
VERTEX
5
f7d
8
0
10
0.287645
20
48.281849
30
0.000000
0
VERTEX
5
f8d
8
0
10
0.257185
20
48.215307
30
0.000000
0
VERTEX
5
f9d
8
0
10
0.228361
20
48.148050
30
0.000000
0
VERTEX
5
fad
8
0
10
0.201186
20
48.080111
30
0.000000
0
VERTEX
5
fbd
8
0
10
0.175671
20
48.011520
30
0.000000
0
VERTEX
5
fcd
8
0
10
0.151830
20
47.942308
30
0.000000
0
VERTEX
5
fdd
8
0
10
0.129676
20
47.872505
30
0.000000
0
VERTEX
5
fed
8
0
10
0.109220
20
47.802143
30
0.000000
0
VERTEX
5
ffd
8
0
10
0.090477
20
47.731251
30
0.000000
0
VERTEX
5
100d
8
0
10
0.073458
20
47.659861
30
0.000000
0
VERTEX
5
101d
8
0
10
0.058177
20
47.588004
30
0.000000
0
VERTEX
5
102d
8
0
10
0.044646
20
47.515710
30
0.000000
0
VERTEX
5
103d
8
0
10
0.032877
20
47.443009
30
0.000000
0
VERTEX
5
104d
8
0
10
0.022884
20
47.369934
30
0.000000
0
VERTEX
5
105d
8
0
10
0.014680
20
47.296513
30
0.000000
0
VERTEX
5
106d
8
0
10
0.008277
20
47.222779
30
0.000000
0
VERTEX
5
107d
8
0
10
0.003687
20
47.148761
30
0.000000
0
VERTEX
5
108d
8
0
10
0.000924
20
47.074492
30
0.000000
0
VERTEX
5
109d
8
0
10
0.000000
20
47.000000
30
0.000000
0
VERTEX
5
10ad
8
0
10
0.000000
20
3.000000
30
0.000000
0
VERTEX
5
10bd
8
0
10
0.000000
20
3.000000
30
0.000000
0
VERTEX
5
10cd
8
0
10
0.000924
20
2.925508
30
0.000000
0
VERTEX
5
10dd
8
0
10
0.003687
20
2.851239
30
0.000000
0
VERTEX
5
10ed
8
0
10
0.008277
20
2.777221
30
0.000000
0
VERTEX
5
10fd
8
0
10
0.014680
20
2.703487
30
0.000000
0
VERTEX
5
110d
8
0
10
0.022884
20
2.630066
30
0.000000
0
VERTEX
5
111d
8
0
10
0.032877
20
2.556991
30
0.000000
0
VERTEX
5
112d
8
0
10
0.044646
20
2.484290
30
0.000000
0
VERTEX
5
113d
8
0
10
0.058177
20
2.411996
30
0.000000
0
VERTEX
5
114d
8
0
10
0.073458
20
2.340139
30
0.000000
0
VERTEX
5
115d
8
0
10
0.090477
20
2.268749
30
0.000000
0
VERTEX
5
116d
8
0
10
0.109220
20
2.197857
30
0.000000
0
VERTEX
5
117d
8
0
10
0.129676
20
2.127495
30
0.000000
0
VERTEX
5
118d
8
0
10
0.151830
20
2.057692
30
0.000000
0
VERTEX
5
119d
8
0
10
0.175671
20
1.988480
30
0.000000
0
VERTEX
5
11ad
8
0
10
0.201186
20
1.919889
30
0.000000
0
VERTEX
5
11bd
8
0
10
0.228361
20
1.851950
30
0.000000
0
VERTEX
5
11cd
8
0
10
0.257185
20
1.784694
30
0.000000
0
VERTEX
5
11dd
8
0
10
0.287645
20
1.718151
30
0.000000
0
VERTEX
5
11ed
8
0
10
0.319727
20
1.652352
30
0.000000
0
VERTEX
5
11fd
8
0
10
0.353420
20
1.587329
30
0.000000
0
VERTEX
5
120d
8
0
10
0.388709
20
1.523111
30
0.000000
0
VERTEX
5
121d
8
0
10
0.425584
20
1.459729
30
0.000000
0
VERTEX
5
122d
8
0
10
0.464030
20
1.397215
30
0.000000
0
VERTEX
5
123d
8
0
10
0.504035
20
1.335598
30
0.000000
0
VERTEX
5
124d
8
0
10
0.545587
20
1.274911
30
0.000000
0
VERTEX
5
125d
8
0
10
0.588672
20
1.215182
30
0.000000
0
VERTEX
5
126d
8
0
10
0.633279
20
1.156444
30
0.000000
0
VERTEX
5
127d
8
0
10
0.679394
20
1.098726
30
0.000000
0
VERTEX
5
128d
8
0
10
0.727004
20
1.042061
30
0.000000
0
VERTEX
5
129d
8
0
10
0.776097
20
0.986477
30
0.000000
0
VERTEX
5
12ad
8
0
10
0.826659
20
0.932006
30
0.000000
0
VERTEX
5
12bd
8
0
10
0.878680
20
0.878680
30
0.000000
0
VERTEX
5
12cd
8
0
10
0.878680
20
0.878680
30
0.000000
0
VERTEX
5
12dd
8
0
10
0.932006
20
0.826659
30
0.000000
0
VERTEX
5
12ed
8
0
10
0.986477
20
0.776097
30
0.000000
0
VERTEX
5
12fd
8
0
10
1.042061
20
0.727004
30
0.000000
0
VERTEX
5
130d
8
0
10
1.098726
20
0.679394
30
0.000000
0
VERTEX
5
131d
8
0
10
1.156444
20
0.633279
30
0.000000
0
VERTEX
5
132d
8
0
10
1.215182
20
0.588672
30
0.000000
0
VERTEX
5
133d
8
0
10
1.274911
20
0.545587
30
0.000000
0
VERTEX
5
134d
8
0
10
1.335598
20
0.504035
30
0.000000
0
VERTEX
5
135d
8
0
10
1.397215
20
0.464030
30
0.000000
0
VERTEX
5
136d
8
0
10
1.459729
20
0.425584
30
0.000000
0
VERTEX
5
137d
8
0
10
1.523111
20
0.388709
30
0.000000
0
VERTEX
5
138d
8
0
10
1.587329
20
0.353420
30
0.000000
0
VERTEX
5
139d
8
0
10
1.652352
20
0.319727
30
0.000000
0
VERTEX
5
13ad
8
0
10
1.718151
20
0.287645
30
0.000000
0
VERTEX
5
13bd
8
0
10
1.784693
20
0.257185
30
0.000000
0
VERTEX
5
13cd
8
0
10
1.851950
20
0.228361
30
0.000000
0
VERTEX
5
13dd
8
0
10
1.919889
20
0.201186
30
0.000000
0
VERTEX
5
13ed
8
0
10
1.988480
20
0.175671
30
0.000000
0
VERTEX
5
13fd
8
0
10
2.057692
20
0.151830
30
0.000000
0
VERTEX
5
140d
8
0
10
2.127495
20
0.129676
30
0.000000
0
VERTEX
5
141d
8
0
10
2.197857
20
0.109220
30
0.000000
0
VERTEX
5
142d
8
0
10
2.268749
20
0.090477
30
0.000000
0
VERTEX
5
143d
8
0
10
2.340139
20
0.073458
30
0.000000
0
VERTEX
5
144d
8
0
10
2.411996
20
0.058177
30
0.000000
0
VERTEX
5
145d
8
0
10
2.484290
20
0.044646
30
0.000000
0
VERTEX
5
146d
8
0
10
2.556991
20
0.032877
30
0.000000
0
VERTEX
5
147d
8
0
10
2.630066
20
0.022884
30
0.000000
0
VERTEX
5
148d
8
0
10
2.703487
20
0.014680
30
0.000000
0
VERTEX
5
149d
8
0
10
2.777221
20
0.008277
30
0.000000
0
VERTEX
5
14ad
8
0
10
2.851239
20
0.003687
30
0.000000
0
VERTEX
5
14bd
8
0
10
2.925508
20
0.000924
30
0.000000
0
VERTEX
5
14cd
8
0
10
3.000000
20
0.000000
30
0.000000
0
SEQEND
5
14dd
8
0
0
POLYLINE
5
14ed
8
0
66
1
10
0
20
0
30
0
0
VERTEX
5
14fd
8
0
10
7.705753
20
46.995775
30
0.000000
0
VERTEX
5
150d
8
0
10
8.587312
20
46.912788
30
0.000000
0
VERTEX
5
151d
8
0
10
8.587312
20
46.912788
30
0.000000
0
VERTEX
5
152d
8
0
10
8.643058
20
46.655907
30
0.000000
0
VERTEX
5
153d
8
0
10
8.695250
20
46.399891
30
0.000000
0
VERTEX
5
154d
8
0
10
8.795522
20
45.892606
30
0.000000
0
VERTEX
5
155d
8
0
10
8.846878
20
45.642410
30
0.000000
0
VERTEX
5
156d
8
0
10
8.901233
20
45.395228
30
0.000000
0
VERTEX
5
157d
8
0
10
8.930046
20
45.272935
30
0.000000
0
VERTEX
5
158d
8
0
10
8.960223
20
45.151598
30
0.000000
0
VERTEX
5
159d
8
0
10
8.991969
20
45.031282
30
0.000000
0
VERTEX
5
15ad
8
0
10
9.025489
20
44.912056
30
0.000000
0
VERTEX
5
15bd
8
0
10
9.060986
20
44.793986
30
0.000000
0
VERTEX
5
15cd
8
0
10
9.098667
20
44.677139
30
0.000000
0
VERTEX
5
15dd
8
0
10
9.138735
20
44.561583
30
0.000000
0
VERTEX
5
15ed
8
0
10
9.181395
20
44.447386
30
0.000000
0
VERTEX
5
15fd
8
0
10
9.226853
20
44.334613
30
0.000000
0
VERTEX
5
160d
8
0
10
9.275313
20
44.223332
30
0.000000
0
VERTEX
5
161d
8
0
10
9.326980
20
44.113610
30
0.000000
0
VERTEX
5
162d
8
0
10
9.382058
20
44.005515
30
0.000000
0
VERTEX
5
163d
8
0
10
9.440753
20
43.899114
30
0.000000
0
VERTEX
5
164d
8
0
10
9.503268
20
43.794473
30
0.000000
0
VERTEX
5
165d
8
0
10
9.569810
20
43.691660
30
0.000000
0
VERTEX
5
166d
8
0
10
9.640582
20
43.590742
30
0.000000
0
VERTEX
5
167d
8
0
10
9.715790
20
43.491786
30
0.000000
0
VERTEX
5
168d
8
0
10
9.795638
20
43.394859
30
0.000000
0
VERTEX
5
169d
8
0
10
9.880331
20
43.300029
30
0.000000
0
VERTEX
5
16ad
8
0
10
9.970074
20
43.207362
30
0.000000
0
VERTEX
5
16bd
8
0
10
9.970074
20
43.207362
30
0.000000
0
VERTEX
5
16cd
8
0
10
10.061290
20
43.250566
30
0.000000
0
VERTEX
5
16dd
8
0
10
10.152573
20
43.291789
30
0.000000
0
VERTEX
5
16ed
8
0
10
10.243921
20
43.331066
30
0.000000
0
VERTEX
5
16fd
8
0
10
10.335333
20
43.368433
30
0.000000
0
VERTEX
5
170d
8
0
10
10.426808
20
43.403924
30
0.000000
0
VERTEX
5
171d
8
0
10
10.518344
20
43.437574
30
0.000000
0
VERTEX
5
172d
8
0
10
10.609939
20
43.469418
30
0.000000
0
VERTEX
5
173d
8
0
10
10.701593
20
43.499491
30
0.000000
0
VERTEX
5
174d
8
0
10
10.793304
20
43.527828
30
0.000000
0
VERTEX
5
175d
8
0
10
10.885071
20
43.554463
30
0.000000
0
VERTEX
5
176d
8
0
10
10.976891
20
43.579433
30
0.000000
0
VERTEX
5
177d
8
0
10
11.068764
20
43.602771
30
0.000000
0
VERTEX
5
178d
8
0
10
11.160689
20
43.624512
30
0.000000
0
VERTEX
5
179d
8
0
10
11.252663
20
43.644692
30
0.000000
0
VERTEX
5
17ad
8
0
10
11.436754
20
43.680507
30
0.000000
0
VERTEX
5
17bd
8
0
10
11.621028
20
43.710494
30
0.000000
0
VERTEX
5
17cd
8
0
10
11.805473
20
43.734934
30
0.000000
0
VERTEX
5
17dd
8
0
10
11.990077
20
43.754105
30
0.000000
0
VERTEX
5
17ed
8
0
10
12.174828
20
43.768286
30
0.000000
0
VERTEX
5
17fd
8
0
10
12.359716
20
43.777758
30
0.000000
0
VERTEX
5
180d
8
0
10
12.544730
20
43.782799
30
0.000000
0
VERTEX
5
181d
8
0
10
12.729857
20
43.783689
30
0.000000
0
VERTEX
5
182d
8
0
10
12.915086
20
43.780707
30
0.000000
0
VERTEX
5
183d
8
0
10
12.453381
20
43.289265
30
0.000000
0
VERTEX
5
184d
8
0
10
12.453381
20
43.289265
30
0.000000
0
VERTEX
5
185d
8
0
10
12.227382
20
43.246540
30
0.000000
0
VERTEX
5
186d
8
0
10
12.005372
20
43.199929
30
0.000000
0
VERTEX
5
187d
8
0
10
11.787303
20
43.149477
30
0.000000
0
VERTEX
5
188d
8
0
10
11.573131
20
43.095230
30
0.000000
0
VERTEX
5
189d
8
0
10
11.362808
20
43.037231
30
0.000000
0
VERTEX
5
18ad
8
0
10
11.156289
20
42.975527
30
0.000000
0
VERTEX
5
18bd
8
0
10
10.953527
20
42.910161
30
0.000000
0
VERTEX
5
18cd
8
0
10
10.754477
20
42.841180
30
0.000000
0
VERTEX
5
18dd
8
0
10
10.559092
20
42.768627
30
0.000000
0
VERTEX
5
18ed
8
0
10
10.367326
20
42.692548
30
0.000000
0
VERTEX
5
18fd
8
0
10
10.179133
20
42.612988
30
0.000000
0
VERTEX
5
190d
8
0
10
9.994467
20
42.529991
30
0.000000
0
VERTEX
5
191d
8
0
10
9.813282
20
42.443602
30
0.000000
0
VERTEX
5
192d
8
0
10
9.635531
20
42.353867
30
0.000000
0
VERTEX
5
193d
8
0
10
9.461169
20
42.260830
30
0.000000
0
VERTEX
5
194d
8
0
10
9.290149
20
42.164537
30
0.000000
0
VERTEX
5
195d
8
0
10
9.122425
20
42.065031
30
0.000000
0
VERTEX
5
196d
8
0
10
8.957952
20
41.962358
30
0.000000
0
VERTEX
5
197d
8
0
10
8.796682
20
41.856564
30
0.000000
0
VERTEX
5
198d
8
0
10
8.638571
20
41.747692
30
0.000000
0
VERTEX
5
199d
8
0
10
8.483571
20
41.635788
30
0.000000
0
VERTEX
5
19ad
8
0
10
8.331636
20
41.520897
30
0.000000
0
VERTEX
5
19bd
8
0
10
8.182721
20
41.403063
30
0.000000
0
VERTEX
5
19cd
8
0
10
8.036780
20
41.282332
30
0.000000
0
VERTEX
5
19dd
8
0
10
7.893765
20
41.158748
30
0.000000
0
VERTEX
5
19ed
8
0
10
7.753632
20
41.032356
30
0.000000
0
VERTEX
5
19fd
8
0
10
7.616333
20
40.903202
30
0.000000
0
VERTEX
5
1a0d
8
0
10
7.481824
20
40.771330
30
0.000000
0
VERTEX
5
1a1d
8
0
10
7.350057
20
40.636785
30
0.000000
0
VERTEX
5
1a2d
8
0
10
7.220986
20
40.499612
30
0.000000
0
VERTEX
5
1a3d
8
0
10
7.094567
20
40.359855
30
0.000000
0
VERTEX
5
1a4d
8
0
10
6.970751
20
40.217561
30
0.000000
0
VERTEX
5
1a5d
8
0
10
6.849493
20
40.072773
30
0.000000
0
VERTEX
5
1a6d
8
0
10
6.730748
20
39.925537
30
0.000000
0
VERTEX
5
1a7d
8
0
10
6.614468
20
39.775898
30
0.000000
0
VERTEX
5
1a8d
8
0
10
6.500609
20
39.623900
30
0.000000
0
VERTEX
5
1a9d
8
0
10
6.389123
20
39.469588
30
0.000000
0
VERTEX
5
1aad
8
0
10
6.279964
20
39.313008
30
0.000000
0
VERTEX
5
1abd
8
0
10
6.173087
20
39.154204
30
0.000000
0
VERTEX
5
1acd
8
0
10
6.068445
20
38.993221
30
0.000000
0
VERTEX
5
1add
8
0
10
5.965992
20
38.830104
30
0.000000
0
VERTEX
5
1aed
8
0
10
5.865683
20
38.664898
30
0.000000
0
VERTEX
5
1afd
8
0
10
5.767470
20
38.497648
30
0.000000
0
VERTEX
5
1b0d
8
0
10
5.671308
20
38.328399
30
0.000000
0
VERTEX
5
1b1d
8
0
10
5.577150
20
38.157195
30
0.000000
0
VERTEX
5
1b2d
8
0
10
5.484951
20
37.984082
30
0.000000
0
VERTEX
5
1b3d
8
0
10
5.394665
20
37.809105
30
0.000000
0
VERTEX
5
1b4d
8
0
10
5.306245
20
37.632308
30
0.000000
0
VERTEX
5
1b5d
8
0
10
5.219644
20
37.453736
30
0.000000
0
VERTEX
5
1b6d
8
0
10
5.134818
20
37.273435
30
0.000000
0
VERTEX
5
1b7d
8
0
10
5.051720
20
37.091448
30
0.000000
0
VERTEX
5
1b8d
8
0
10
4.970303
20
36.907822
30
0.000000
0
VERTEX
5
1b9d
8
0
10
4.890522
20
36.722601
30
0.000000
0
VERTEX
5
1bad
8
0
10
4.812331
20
36.535830
30
0.000000
0
VERTEX
5
1bbd
8
0
10
4.735683
20
36.347554
30
0.000000
0
VERTEX
5
1bcd
8
0
10
4.660532
20
36.157817
30
0.000000
0
VERTEX
5
1bdd
8
0
10
4.586832
20
35.966665
30
0.000000
0
VERTEX
5
1bed
8
0
10
4.514537
20
35.774143
30
0.000000
0
VERTEX
5
1bfd
8
0
10
4.443601
20
35.580295
30
0.000000
0
VERTEX
5
1c0d
8
0
10
4.373977
20
35.385167
30
0.000000
0
VERTEX
5
1c1d
8
0
10
4.305621
20
35.188803
30
0.000000
0
VERTEX
5
1c2d
8
0
10
4.238484
20
34.991248
30
0.000000
0
VERTEX
5
1c3d
8
0
10
4.107689
20
34.592746
30
0.000000
0
VERTEX
5
1c4d
8
0
10
4.107689
20
34.592746
30
0.000000
0
VERTEX
5
1c5d
8
0
10
4.069135
20
34.355369
30
0.000000
0
VERTEX
5
1c6d
8
0
10
4.032724
20
34.118376
30
0.000000
0
VERTEX
5
1c7d
8
0
10
3.998472
20
33.881770
30
0.000000
0
VERTEX
5
1c8d
8
0
10
3.966392
20
33.645553
30
0.000000
0
VERTEX
5
1c9d
8
0
10
3.936502
20
33.409728
30
0.000000
0
VERTEX
5
1cad
8
0
10
3.908815
20
33.174297
30
0.000000
0
VERTEX
5
1cbd
8
0
10
3.883347
20
32.939263
30
0.000000
0
VERTEX
5
1ccd
8
0
10
3.860114
20
32.704628
30
0.000000
0
VERTEX
5
1cdd
8
0
10
3.839130
20
32.470396
30
0.000000
0
VERTEX
5
1ced
8
0
10
3.820411
20
32.236568
30
0.000000
0
VERTEX
5
1cfd
8
0
10
3.803972
20
32.003147
30
0.000000
0
VERTEX
5
1d0d
8
0
10
3.789828
20
31.770137
30
0.000000
0
VERTEX
5
1d1d
8
0
10
3.777995
20
31.537538
30
0.000000
0
VERTEX
5
1d2d
8
0
10
3.768487
20
31.305355
30
0.000000
0
VERTEX
5
1d3d
8
0
10
3.761320
20
31.073589
30
0.000000
0
VERTEX
5
1d4d
8
0
10
3.756510
20
30.842244
30
0.000000
0
VERTEX
5
1d5d
8
0
10
3.754070
20
30.611321
30
0.000000
0
VERTEX
5
1d6d
8
0
10
3.754018
20
30.380823
30
0.000000
0
VERTEX
5
1d7d
8
0
10
3.756367
20
30.150754
30
0.000000
0
VERTEX
5
1d8d
8
0
10
3.761134
20
29.921115
30
0.000000
0
VERTEX
5
1d9d
8
0
10
3.768332
20
29.691909
30
0.000000
0
VERTEX
5
1dad
8
0
10
3.777978
20
29.463139
30
0.000000
0
VERTEX
5
1dbd
8
0
10
3.790087
20
29.234807
30
0.000000
0
VERTEX
5
1dcd
8
0
10
3.804674
20
29.006916
30
0.000000
0
VERTEX
5
1ddd
8
0
10
3.821755
20
28.779468
30
0.000000
0
VERTEX
5
1ded
8
0
10
3.841344
20
28.552467
30
0.000000
0
VERTEX
5
1dfd
8
0
10
3.863456
20
28.325914
30
0.000000
0
VERTEX
5
1e0d
8
0
10
3.888107
20
28.099812
30
0.000000
0
VERTEX
5
1e1d
8
0
10
3.915313
20
27.874164
30
0.000000
0
VERTEX
5
1e2d
8
0
10
3.945088
20
27.648973
30
0.000000
0
VERTEX
5
1e3d
8
0
10
3.977448
20
27.424240
30
0.000000
0
VERTEX
5
1e4d
8
0
10
4.012407
20
27.199969
30
0.000000
0
VERTEX
5
1e5d
8
0
10
4.049982
20
26.976162
30
0.000000
0
VERTEX
5
1e6d
8
0
10
4.090187
20
26.752822
30
0.000000
0
VERTEX
5
1e7d
8
0
10
4.133038
20
26.529951
30
0.000000
0
VERTEX
5
1e8d
8
0
10
4.178549
20
26.307552
30
0.000000
0
VERTEX
5
1e9d
8
0
10
4.226736
20
26.085627
30
0.000000
0
VERTEX
5
1ead
8
0
10
4.277615
20
25.864180
30
0.000000
0
VERTEX
5
1ebd
8
0
10
4.331200
20
25.643212
30
0.000000
0
VERTEX
5
1ecd
8
0
10
4.387507
20
25.422726
30
0.000000
0
VERTEX
5
1edd
8
0
10
4.446551
20
25.202725
30
0.000000
0
VERTEX
5
1eed
8
0
10
4.508347
20
24.983212
30
0.000000
0
VERTEX
5
1efd
8
0
10
4.572910
20
24.764189
30
0.000000
0
VERTEX
5
1f0d
8
0
10
4.640257
20
24.545658
30
0.000000
0
VERTEX
5
1f1d
8
0
10
4.710401
20
24.327622
30
0.000000
0
VERTEX
5
1f2d
8
0
10
4.783358
20
24.110084
30
0.000000
0
VERTEX
5
1f3d
8
0
10
4.859143
20
23.893046
30
0.000000
0
VERTEX
5
1f4d
8
0
10
4.937772
20
23.676512
30
0.000000
0
VERTEX
5
1f5d
8
0
10
5.019260
20
23.460483
30
0.000000
0
VERTEX
5
1f6d
8
0
10
5.103622
20
23.244961
30
0.000000
0
VERTEX
5
1f7d
8
0
10
5.190874
20
23.029951
30
0.000000
0
VERTEX
5
1f8d
8
0
10
5.281029
20
22.815454
30
0.000000
0
VERTEX
5
1f9d
8
0
10
5.374105
20
22.601472
30
0.000000
0
VERTEX
5
1fad
8
0
10
5.470116
20
22.388009
30
0.000000
0
VERTEX
5
1fbd
8
0
10
5.569076
20
22.175067
30
0.000000
0
VERTEX
5
1fcd
8
0
10
5.671003
20
21.962649
30
0.000000
0
VERTEX
5
1fdd
8
0
10
5.775909
20
21.750757
30
0.000000
0
VERTEX
5
1fed
8
0
10
5.883812
20
21.539394
30
0.000000
0
VERTEX
5
1ffd
8
0
10
5.994726
20
21.328562
30
0.000000
0
VERTEX
5
200d
8
0
10
6.108666
20
21.118264
30
0.000000
0
VERTEX
5
201d
8
0
10
6.225648
20
20.908502
30
0.000000
0
VERTEX
5
202d
8
0
10
6.345687
20
20.699279
30
0.000000
0
VERTEX
5
203d
8
0
10
6.468798
20
20.490599
30
0.000000
0
VERTEX
5
204d
8
0
10
6.594996
20
20.282462
30
0.000000
0
VERTEX
5
205d
8
0
10
7.269638
20
20.184678
30
0.000000
0
VERTEX
5
206d
8
0
10
7.269638
20
20.184678
30
0.000000
0
VERTEX
5
207d
8
0
10
7.307308
20
19.958482
30
0.000000
0
VERTEX
5
208d
8
0
10
7.347034
20
19.733981
30
0.000000
0
VERTEX
5
209d
8
0
10
7.389013
20
19.511257
30
0.000000
0
VERTEX
5
20ad
8
0
10
7.433441
20
19.290394
30
0.000000
0
VERTEX
5
20bd
8
0
10
7.480513
20
19.071475
30
0.000000
0
VERTEX
5
20cd
8
0
10
7.530426
20
18.854582
30
0.000000
0
VERTEX
5
20dd
8
0
10
7.583376
20
18.639798
30
0.000000
0
VERTEX
5
20ed
8
0
10
7.639558
20
18.427207
30
0.000000
0
VERTEX
5
20fd
8
0
10
7.699169
20
18.216892
30
0.000000
0
VERTEX
5
210d
8
0
10
7.762405
20
18.008935
30
0.000000
0
VERTEX
5
211d
8
0
10
7.829461
20
17.803419
30
0.000000
0
VERTEX
5
212d
8
0
10
7.900534
20
17.600428
30
0.000000
0
VERTEX
5
213d
8
0
10
7.975819
20
17.400045
30
0.000000
0
VERTEX
5
214d
8
0
10
8.055514
20
17.202351
30
0.000000
0
VERTEX
5
215d
8
0
10
8.139812
20
17.007431
30
0.000000
0
VERTEX
5
216d
8
0
10
8.228912
20
16.815367
30
0.000000
0
VERTEX
5
217d
8
0
10
8.323007
20
16.626243
30
0.000000
0
VERTEX
5
218d
8
0
10
8.371990
20
16.532809
30
0.000000
0
VERTEX
5
219d
8
0
10
8.422296
20
16.440141
30
0.000000
0
VERTEX
5
21ad
8
0
10
8.473949
20
16.348249
30
0.000000
0
VERTEX
5
21bd
8
0
10
8.526973
20
16.257144
30
0.000000
0
VERTEX
5
21cd
8
0
10
8.581393
20
16.166836
30
0.000000
0
VERTEX
5
21dd
8
0
10
8.637234
20
16.077335
30
0.000000
0
VERTEX
5
21ed
8
0
10
8.694521
20
15.988652
30
0.000000
0
VERTEX
5
21fd
8
0
10
8.753276
20
15.900797
30
0.000000
0
VERTEX
5
220d
8
0
10
8.813526
20
15.813781
30
0.000000
0
VERTEX
5
221d
8
0
10
8.875295
20
15.727614
30
0.000000
0
VERTEX
5
222d
8
0
10
8.938607
20
15.642306
30
0.000000
0
VERTEX
5
223d
8
0
10
9.003486
20
15.557867
30
0.000000
0
VERTEX
5
224d
8
0
10
9.069958
20
15.474309
30
0.000000
0
VERTEX
5
225d
8
0
10
9.138046
20
15.391641
30
0.000000
0
VERTEX
5
226d
8
0
10
9.207775
20
15.309874
30
0.000000
0
VERTEX
5
227d
8
0
10
9.279170
20
15.229018
30
0.000000
0
VERTEX
5
228d
8
0
10
9.352255
20
15.149083
30
0.000000
0
VERTEX
5
229d
8
0
10
9.427055
20
15.070080
30
0.000000
0
VERTEX
5
22ad
8
0
10
9.503593
20
14.992020
30
0.000000
0
VERTEX
5
22bd
8
0
10
9.581896
20
14.914912
30
0.000000
0
VERTEX
5
22cd
8
0
10
9.661986
20
14.838767
30
0.000000
0
VERTEX
5
22dd
8
0
10
9.743889
20
14.763596
30
0.000000
0
VERTEX
5
22ed
8
0
10
9.827629
20
14.689408
30
0.000000
0
VERTEX
5
22fd
8
0
10
9.913231
20
14.616214
30
0.000000
0
VERTEX
5
230d
8
0
10
10.000719
20
14.544025
30
0.000000
0
VERTEX
5
231d
8
0
10
10.090118
20
14.472851
30
0.000000
0
VERTEX
5
232d
8
0
10
10.181451
20
14.402702
30
0.000000
0
VERTEX
5
233d
8
0
10
10.274745
20
14.333588
30
0.000000
0
VERTEX
5
234d
8
0
10
10.370022
20
14.265521
30
0.000000
0
VERTEX
5
235d
8
0
10
10.467308
20
14.198509
30
0.000000
0
VERTEX
5
236d
8
0
10
10.467308
20
14.198509
30
0.000000
0
VERTEX
5
237d
8
0
10
10.595555
20
14.193753
30
0.000000
0
VERTEX
5
238d
8
0
10
10.719946
20
14.184315
30
0.000000
0
VERTEX
5
239d
8
0
10
10.840588
20
14.170325
30
0.000000
0
VERTEX
5
23ad
8
0
10
10.957590
20
14.151914
30
0.000000
0
VERTEX
5
23bd
8
0
10
11.071059
20
14.129211
30
0.000000
0
VERTEX
5
23cd
8
0
10
11.181104
20
14.102346
30
0.000000
0
VERTEX
5
23dd
8
0
10
11.287833
20
14.071450
30
0.000000
0
VERTEX
5
23ed
8
0
10
11.391354
20
14.036651
30
0.000000
0
VERTEX
5
23fd
8
0
10
11.491776
20
13.998081
30
0.000000
0
VERTEX
5
240d
8
0
10
11.589205
20
13.955870
30
0.000000
0
VERTEX
5
241d
8
0
10
11.683752
20
13.910146
30
0.000000
0
VERTEX
5
242d
8
0
10
11.775523
20
13.861040
30
0.000000
0
VERTEX
5
243d
8
0
10
11.864627
20
13.808683
30
0.000000
0
VERTEX
5
244d
8
0
10
11.951172
20
13.753203
30
0.000000
0
VERTEX
5
245d
8
0
10
12.035265
20
13.694731
30
0.000000
0
VERTEX
5
246d
8
0
10
12.117017
20
13.633398
30
0.000000
0
VERTEX
5
247d
8
0
10
12.196533
20
13.569332
30
0.000000
0
VERTEX
5
248d
8
0
10
12.273923
20
13.502664
30
0.000000
0
VERTEX
5
249d
8
0
10
12.349295
20
13.433524
30
0.000000
0
VERTEX
5
24ad
8
0
10
12.422757
20
13.362042
30
0.000000
0
VERTEX
5
24bd
8
0
10
12.494417
20
13.288348
30
0.000000
0
VERTEX
5
24cd
8
0
10
12.564383
20
13.212571
30
0.000000
0
VERTEX
5
24dd
8
0
10
12.632763
20
13.134842
30
0.000000
0
VERTEX
5
24ed
8
0
10
12.699665
20
13.055291
30
0.000000
0
VERTEX
5
24fd
8
0
10
12.765198
20
12.974048
30
0.000000
0
VERTEX
5
250d
8
0
10
12.829470
20
12.891242
30
0.000000
0
VERTEX
5
251d
8
0
10
12.892589
20
12.807003
30
0.000000
0
VERTEX
5
252d
8
0
10
12.954662
20
12.721462
30
0.000000
0
VERTEX
5
253d
8
0
10
13.076107
20
12.546993
30
0.000000
0
VERTEX
5
254d
8
0
10
13.194669
20
12.368874
30
0.000000
0
VERTEX
5
255d
8
0
10
13.311215
20
12.188144
30
0.000000
0
VERTEX
5
256d
8
0
10
13.426608
20
12.005843
30
0.000000
0
VERTEX
5
257d
8
0
10
13.657399
20
11.640688
30
0.000000
0
VERTEX
5
258d
8
0
10
13.774527
20
11.459913
30
0.000000
0
VERTEX
5
259d
8
0
10
13.893964
20
11.281726
30
0.000000
0
VERTEX
5
25ad
8
0
10
14.016574
20
11.107167
30
0.000000
0
VERTEX
5
25bd
8
0
10
14.079340
20
11.021573
30
0.000000
0
VERTEX
5
25cd
8
0
10
14.143224
20
10.937276
30
0.000000
0
VERTEX
5
25dd
8
0
10
14.208333
20
10.854406
30
0.000000
0
VERTEX
5
25ed
8
0
10
14.274777
20
10.773092
30
0.000000
0
VERTEX
5
25fd
8
0
10
14.342663
20
10.693465
30
0.000000
0
VERTEX
5
260d
8
0
10
14.412100
20
10.615655
30
0.000000
0
VERTEX
5
261d
8
0
10
14.483195
20
10.539791
30
0.000000
0
VERTEX
5
262d
8
0
10
14.556057
20
10.466004
30
0.000000
0
VERTEX
5
263d
8
0
10
14.630794
20
10.394424
30
0.000000
0
VERTEX
5
264d
8
0
10
14.707514
20
10.325180
30
0.000000
0
VERTEX
5
265d
8
0
10
14.786325
20
10.258403
30
0.000000
0
VERTEX
5
266d
8
0
10
14.867335
20
10.194223
30
0.000000
0
VERTEX
5
267d
8
0
10
14.950653
20
10.132769
30
0.000000
0
VERTEX
5
268d
8
0
10
15.036386
20
10.074171
30
0.000000
0
VERTEX
5
269d
8
0
10
15.124643
20
10.018559
30
0.000000
0
VERTEX
5
26ad
8
0
10
15.215532
20
9.966065
30
0.000000
0
VERTEX
5
26bd
8
0
10
15.309161
20
9.916816
30
0.000000
0
VERTEX
5
26cd
8
0
10
15.405638
20
9.870944
30
0.000000
0
VERTEX
5
26dd
8
0
10
15.899833
20
9.720194
30
0.000000
0
VERTEX
5
26ed
8
0
10
15.899833
20
9.720194
30
0.000000
0
VERTEX
5
26fd
8
0
10
15.856154
20
9.648648
30
0.000000
0
VERTEX
5
270d
8
0
10
15.833873
20
9.616230
30
0.000000
0
VERTEX
5
271d
8
0
10
15.811309
20
9.585972
30
0.000000
0
VERTEX
5
272d
8
0
10
15.788467
20
9.557818
30
0.000000
0
VERTEX
5
273d
8
0
10
15.765354
20
9.531711
30
0.000000
0
VERTEX
5
274d
8
0
10
15.741978
20
9.507594
30
0.000000
0
VERTEX
5
275d
8
0
10
15.718344
20
9.485409
30
0.000000
0
VERTEX
5
276d
8
0
10
15.694461
20
9.465100
30
0.000000
0
VERTEX
5
277d
8
0
10
15.670335
20
9.446610
30
0.000000
0
VERTEX
5
278d
8
0
10
15.645972
20
9.429882
30
0.000000
0
VERTEX
5
279d
8
0
10
15.621380
20
9.414858
30
0.000000
0
VERTEX
5
27ad
8
0
10
15.596566
20
9.401481
30
0.000000
0
VERTEX
5
27bd
8
0
10
15.571536
20
9.389696
30
0.000000
0
VERTEX
5
27cd
8
0
10
15.520857
20
9.370669
30
0.000000
0
VERTEX
5
27dd
8
0
10
15.469398
20
9.357321
30
0.000000
0
VERTEX
5
27ed
8
0
10
15.417215
20
9.349195
30
0.000000
0
VERTEX
5
27fd
8
0
10
15.364362
20
9.345836
30
0.000000
0
VERTEX
5
280d
8
0
10
15.310895
20
9.346788
30
0.000000
0
VERTEX
5
281d
8
0
10
15.256869
20
9.351595
30
0.000000
0
VERTEX
5
282d
8
0
10
15.202338
20
9.359800
30
0.000000
0
VERTEX
5
283d
8
0
10
15.147358
20
9.370947
30
0.000000
0
VERTEX
5
284d
8
0
10
15.091983
20
9.384582
30
0.000000
0
VERTEX
5
285d
8
0
10
15.036270
20
9.400247
30
0.000000
0
VERTEX
5
286d
8
0
10
14.980272
20
9.417486
30
0.000000
0
VERTEX
5
287d
8
0
10
14.867645
20
9.454865
30
0.000000
0
VERTEX
5
288d
8
0
10
14.754543
20
9.493071
30
0.000000
0
VERTEX
5
289d
8
0
10
14.641406
20
9.528454
30
0.000000
0
VERTEX
5
28ad
8
0
10
14.584962
20
9.543947
30
0.000000
0
VERTEX
5
28bd
8
0
10
14.528674
20
9.557367
30
0.000000
0
VERTEX
5
28cd
8
0
10
14.472598
20
9.568258
30
0.000000
0
VERTEX
5
28dd
8
0
10
14.416789
20
9.576162
30
0.000000
0
VERTEX
5
28ed
8
0
10
14.361301
20
9.580626
30
0.000000
0
VERTEX
5
28fd
8
0
10
14.306190
20
9.581191
30
0.000000
0
VERTEX
5
290d
8
0
10
14.251511
20
9.577403
30
0.000000
0
VERTEX
5
291d
8
0
10
14.197319
20
9.568806
30
0.000000
0
VERTEX
5
292d
8
0
10
14.197319
20
9.568806
30
0.000000
0
VERTEX
5
293d
8
0
10
14.177617
20
9.384731
30
0.000000
0
VERTEX
5
294d
8
0
10
14.153937
20
9.201047
30
0.000000
0
VERTEX
5
295d
8
0
10
14.126719
20
9.017665
30
0.000000
0
VERTEX
5
296d
8
0
10
14.096402
20
8.834501
30
0.000000
0
VERTEX
5
297d
8
0
10
14.063428
20
8.651465
30
0.000000
0
VERTEX
5
298d
8
0
10
14.028235
20
8.468472
30
0.000000
0
VERTEX
5
299d
8
0
10
13.952953
20
8.102266
30
0.000000
0
VERTEX
5
29ad
8
0
10
13.795128
20
7.366536
30
0.000000
0
VERTEX
5
29bd
8
0
10
13.756725
20
7.181405
30
0.000000
0
VERTEX
5
29cd
8
0
10
13.719623
20
6.995621
30
0.000000
0
VERTEX
5
29dd
8
0
10
13.684262
20
6.809097
30
0.000000
0
VERTEX
5
29ed
8
0
10
13.651082
20
6.621745
30
0.000000
0
VERTEX
5
29fd
8
0
10
13.620523
20
6.433480
30
0.000000
0
VERTEX
5
2a0d
8
0
10
13.593026
20
6.244213
30
0.000000
0
VERTEX
5
2a1d
8
0
10
13.569028
20
6.053858
30
0.000000
0
VERTEX
5
2a2d
8
0
10
13.548972
20
5.862328
30
0.000000
0
VERTEX
5
2a3d
8
0
10
13.533296
20
5.669536
30
0.000000
0
VERTEX
5
2a4d
8
0
10
13.522441
20
5.475395
30
0.000000
0
VERTEX
5
2a5d
8
0
10
13.516847
20
5.279818
30
0.000000
0
VERTEX
5
2a6d
8
0
10
13.516953
20
5.082718
30
0.000000
0
VERTEX
5
2a7d
8
0
10
13.519281
20
4.983570
30
0.000000
0
VERTEX
5
2a8d
8
0
10
13.523200
20
4.884008
30
0.000000
0
VERTEX
5
2a9d
8
0
10
13.528763
20
4.784022
30
0.000000
0
VERTEX
5
2aad
8
0
10
13.536027
20
4.683602
30
0.000000
0
VERTEX
5
2abd
8
0
10
13.545045
20
4.582735
30
0.000000
0
VERTEX
5
2acd
8
0
10
13.555874
20
4.481411
30
0.000000
0
VERTEX
5
2add
8
0
10
13.568568
20
4.379620
30
0.000000
0
VERTEX
5
2aed
8
0
10
13.583181
20
4.277350
30
0.000000
0
VERTEX
5
2afd
8
0
10
13.599770
20
4.174591
30
0.000000
0
VERTEX
5
2b0d
8
0
10
13.618389
20
4.071331
30
0.000000
0
VERTEX
5
2b1d
8
0
10
13.639093
20
3.967560
30
0.000000
0
VERTEX
5
2b2d
8
0
10
13.661937
20
3.863267
30
0.000000
0
VERTEX
5
2b3d
8
0
10
13.686976
20
3.758442
30
0.000000
0
VERTEX
5
2b4d
8
0
10
13.714265
20
3.653072
30
0.000000
0
VERTEX
5
2b5d
8
0
10
13.743859
20
3.547148
30
0.000000
0
VERTEX
5
2b6d
8
0
10
13.775813
20
3.440658
30
0.000000
0
VERTEX
5
2b7d
8
0
10
13.775813
20
3.440658
30
0.000000
0
VERTEX
5
2b8d
8
0
10
13.905485
20
3.429941
30
0.000000
0
VERTEX
5
2b9d
8
0
10
14.031263
20
3.423743
30
0.000000
0
VERTEX
5
2bad
8
0
10
14.153240
20
3.421958
30
0.000000
0
VERTEX
5
2bbd
8
0
10
14.271512
20
3.424481
30
0.000000
0
VERTEX
5
2bcd
8
0
10
14.386172
20
3.431205
30
0.000000
0
VERTEX
5
2bdd
8
0
10
14.497315
20
3.442026
30
0.000000
0
VERTEX
5
2bed
8
0
10
14.605035
20
3.456838
30
0.000000
0
VERTEX
5
2bfd
8
0
10
14.709427
20
3.475535
30
0.000000
0
VERTEX
5
2c0d
8
0
10
14.810584
20
3.498013
30
0.000000
0
VERTEX
5
2c1d
8
0
10
14.908602
20
3.524164
30
0.000000
0
VERTEX
5
2c2d
8
0
10
15.003573
20
3.553884
30
0.000000
0
VERTEX
5
2c3d
8
0
10
15.095593
20
3.587068
30
0.000000
0
VERTEX
5
2c4d
8
0
10
15.184756
20
3.623609
30
0.000000
0
VERTEX
5
2c5d
8
0
10
15.271157
20
3.663402
30
0.000000
0
VERTEX
5
2c6d
8
0
10
15.354888
20
3.706342
30
0.000000
0
VERTEX
5
2c7d
8
0
10
15.436046
20
3.752323
30
0.000000
0
VERTEX
5
2c8d
8
0
10
15.514723
20
3.801239
30
0.000000
0
VERTEX
5
2c9d
8
0
10
15.591015
20
3.852985
30
0.000000
0
VERTEX
5
2cad
8
0
10
15.665015
20
3.907456
30
0.000000
0
VERTEX
5
2cbd
8
0
10
15.736819
20
3.964545
30
0.000000
0
VERTEX
5
2ccd
8
0
10
15.806519
20
4.024148
30
0.000000
0
VERTEX
5
2cdd
8
0
10
15.874211
20
4.086159
30
0.000000
0
VERTEX
5
2ced
8
0
10
15.939989
20
4.150472
30
0.000000
0
VERTEX
5
2cfd
8
0
10
16.003947
20
4.216982
30
0.000000
0
VERTEX
5
2d0d
8
0
10
16.066180
20
4.285582
30
0.000000
0
VERTEX
5
2d1d
8
0
10
16.126781
20
4.356169
30
0.000000
0
VERTEX
5
2d2d
8
0
10
16.185845
20
4.428635
30
0.000000
0
VERTEX
5
2d3d
8
0
10
16.243467
20
4.502876
30
0.000000
0
VERTEX
5
2d4d
8
0
10
16.299740
20
4.578786
30
0.000000
0
VERTEX
5
2d5d
8
0
10
16.354759
20
4.656260
30
0.000000
0
VERTEX
5
2d6d
8
0
10
16.408618
20
4.735191
30
0.000000
0
VERTEX
5
2d7d
8
0
10
16.461412
20
4.815475
30
0.000000
0
VERTEX
5
2d8d
8
0
10
16.564180
20
4.979677
30
0.000000
0
VERTEX
5
2d9d
8
0
10
16.663817
20
5.148022
30
0.000000
0
VERTEX
5
2dad
8
0
10
16.761078
20
5.319666
30
0.000000
0
VERTEX
5
2dbd
8
0
10
16.856717
20
5.493764
30
0.000000
0
VERTEX
5
2dcd
8
0
10
17.046148
20
5.845946
30
0.000000
0
VERTEX
5
2ddd
8
0
10
17.141448
20
6.022340
30
0.000000
0
VERTEX
5
2ded
8
0
10
17.238143
20
6.197812
30
0.000000
0
VERTEX
5
2dfd
8
0
10
17.336989
20
6.371516
30
0.000000
0
VERTEX
5
2e0d
8
0
10
17.438738
20
6.542608
30
0.000000
0
VERTEX
5
2e1d
8
0
10
17.544147
20
6.710244
30
0.000000
0
VERTEX
5
2e2d
8
0
10
17.598459
20
6.792503
30
0.000000
0
VERTEX
5
2e3d
8
0
10
17.653968
20
6.873580
30
0.000000
0
VERTEX
5
2e4d
8
0
10
17.710770
20
6.953371
30
0.000000
0
VERTEX
5
2e5d
8
0
10
17.768957
20
7.031771
30
0.000000
0
VERTEX
5
2e6d
8
0
10
17.828625
20
7.108673
30
0.000000
0
VERTEX
5
2e7d
8
0
10
17.889868
20
7.183972
30
0.000000
0
VERTEX
5
2e8d
8
0
10
17.952779
20
7.257563
30
0.000000
0
VERTEX
5
2e9d
8
0
10
18.017454
20
7.329341
30
0.000000
0
VERTEX
5
2ead
8
0
10
18.083987
20
7.399198
30
0.000000
0
VERTEX
5
2ebd
8
0
10
18.152472
20
7.467031
30
0.000000
0
VERTEX
5
2ecd
8
0
10
18.152472
20
7.467031
30
0.000000
0
VERTEX
5
2edd
8
0
10
18.218836
20
7.566652
30
0.000000
0
VERTEX
5
2eed
8
0
10
18.285868
20
7.663711
30
0.000000
0
VERTEX
5
2efd
8
0
10
18.353560
20
7.758240
30
0.000000
0
VERTEX
5
2f0d
8
0
10
18.421902
20
7.850272
30
0.000000
0
VERTEX
5
2f1d
8
0
10
18.490888
20
7.939839
30
0.000000
0
VERTEX
5
2f2d
8
0
10
18.560508
20
8.026975
30
0.000000
0
VERTEX
5
2f3d
8
0
10
18.630754
20
8.111712
30
0.000000
0
VERTEX
5
2f4d
8
0
10
18.701619
20
8.194081
30
0.000000
0
VERTEX
5
2f5d
8
0
10
18.773093
20
8.274117
30
0.000000
0
VERTEX
5
2f6d
8
0
10
18.845169
20
8.351852
30
0.000000
0
VERTEX
5
2f7d
8
0
10
18.917838
20
8.427318
30
0.000000
0
VERTEX
5
2f8d
8
0
10
18.991092
20
8.500547
30
0.000000
0
VERTEX
5
2f9d
8
0
10
19.064922
20
8.571574
30
0.000000
0
VERTEX
5
2fad
8
0
10
19.139321
20
8.640429
30
0.000000
0
VERTEX
5
2fbd
8
0
10
19.214280
20
8.707146
30
0.000000
0
VERTEX
5
2fcd
8
0
10
19.289791
20
8.771758
30
0.000000
0
VERTEX
5
2fdd
8
0
10
19.365845
20
8.834297
30
0.000000
0
VERTEX
5
2fed
8
0
10
19.442435
20
8.894795
30
0.000000
0
VERTEX
5
2ffd
8
0
10
19.519551
20
8.953286
30
0.000000
0
VERTEX
5
300d
8
0
10
19.597187
20
9.009802
30
0.000000
0
VERTEX
5
301d
8
0
10
19.675332
20
9.064375
30
0.000000
0
VERTEX
5
302d
8
0
10
19.753980
20
9.117039
30
0.000000
0
VERTEX
5
303d
8
0
10
19.833122
20
9.167825
30
0.000000
0
VERTEX
5
304d
8
0
10
19.912749
20
9.216767
30
0.000000
0
VERTEX
5
305d
8
0
10
19.992854
20
9.263897
30
0.000000
0
VERTEX
5
306d
8
0
10
20.073427
20
9.309248
30
0.000000
0
VERTEX
5
307d
8
0
10
20.154462
20
9.352852
30
0.000000
0
VERTEX
5
308d
8
0
10
20.235948
20
9.394742
30
0.000000
0
VERTEX
5
309d
8
0
10
20.317879
20
9.434951
30
0.000000
0
VERTEX
5
30ad
8
0
10
20.400246
20
9.473511
30
0.000000
0
VERTEX
5
30bd
8
0
10
20.483041
20
9.510455
30
0.000000
0
VERTEX
5
30cd
8
0
10
20.566255
20
9.545815
30
0.000000
0
VERTEX
5
30dd
8
0
10
20.649880
20
9.579625
30
0.000000
0
VERTEX
5
30ed
8
0
10
20.733907
20
9.611916
30
0.000000
0
VERTEX
5
30fd
8
0
10
20.818330
20
9.642721
30
0.000000
0
VERTEX
5
310d
8
0
10
20.903138
20
9.672074
30
0.000000
0
VERTEX
5
311d
8
0
10
21.073881
20
9.726551
30
0.000000
0
VERTEX
5
312d
8
0
10
21.246069
20
9.775608
30
0.000000
0
VERTEX
5
313d
8
0
10
21.419637
20
9.819505
30
0.000000
0
VERTEX
5
314d
8
0
10
21.594518
20
9.858504
30
0.000000
0
VERTEX
5
315d
8
0
10
21.770645
20
9.892866
30
0.000000
0
VERTEX
5
316d
8
0
10
21.947954
20
9.922852
30
0.000000
0
VERTEX
5
317d
8
0
10
22.126377
20
9.948723
30
0.000000
0
VERTEX
5
318d
8
0
10
22.305848
20
9.970739
30
0.000000
0
VERTEX
5
319d
8
0
10
22.486301
20
9.989163
30
0.000000
0
VERTEX
5
31ad
8
0
10
22.667670
20
10.004254
30
0.000000
0
VERTEX
5
31bd
8
0
10
22.849889
20
10.016275
30
0.000000
0
VERTEX
5
31cd
8
0
10
23.032891
20
10.025485
30
0.000000
0
VERTEX
5
31dd
8
0
10
23.216610
20
10.032147
30
0.000000
0
VERTEX
5
31ed
8
0
10
23.400979
20
10.036520
30
0.000000
0
VERTEX
5
31fd
8
0
10
23.585934
20
10.038867
30
0.000000
0
VERTEX
5
320d
8
0
10
23.771407
20
10.039448
30
0.000000
0
VERTEX
5
321d
8
0
10
24.143643
20
10.036357
30
0.000000
0
VERTEX
5
322d
8
0
10
24.517158
20
10.029335
30
0.000000
0
VERTEX
5
323d
8
0
10
24.891422
20
10.020470
30
0.000000
0
VERTEX
5
324d
8
0
10
25.265905
20
10.011852
30
0.000000
0
VERTEX
5
325d
8
0
10
25.640078
20
10.005567
30
0.000000
0
VERTEX
5
326d
8
0
10
26.013410
20
10.003705
30
0.000000
0
VERTEX
5
327d
8
0
10
26.199595
20
10.005085
30
0.000000
0
VERTEX
5
328d
8
0
10
26.385372
20
10.008353
30
0.000000
0
VERTEX
5
329d
8
0
10
26.570673
20
10.013771
30
0.000000
0
VERTEX
5
32ad
8
0
10
26.755434
20
10.021601
30
0.000000
0
VERTEX
5
32bd
8
0
10
26.939586
20
10.032101
30
0.000000
0
VERTEX
5
32cd
8
0
10
27.123065
20
10.045535
30
0.000000
0
VERTEX
5
32dd
8
0
10
27.305805
20
10.062163
30
0.000000
0
VERTEX
5
32ed
8
0
10
27.487738
20
10.082245
30
0.000000
0
VERTEX
5
32fd
8
0
10
27.668798
20
10.106044
30
0.000000
0
VERTEX
5
330d
8
0
10
27.848920
20
10.133819
30
0.000000
0
VERTEX
5
331d
8
0
10
28.028037
20
10.165833
30
0.000000
0
VERTEX
5
332d
8
0
10
28.206083
20
10.202346
30
0.000000
0
VERTEX
5
333d
8
0
10
28.382992
20
10.243618
30
0.000000
0
VERTEX
5
334d
8
0
10
28.558697
20
10.289912
30
0.000000
0
VERTEX
5
335d
8
0
10
28.733133
20
10.341488
30
0.000000
0
VERTEX
5
336d
8
0
10
28.906232
20
10.398608
30
0.000000
0
VERTEX
5
337d
8
0
10
28.992260
20
10.429328
30
0.000000
0
VERTEX
5
338d
8
0
10
29.077929
20
10.461531
30
0.000000
0
VERTEX
5
339d
8
0
10
29.163231
20
10.495251
30
0.000000
0
VERTEX
5
33ad
8
0
10
29.248158
20
10.530520
30
0.000000
0
VERTEX
5
33bd
8
0
10
29.248158
20
10.530520
30
0.000000
0
VERTEX
5
33cd
8
0
10
29.448080
20
10.554367
30
0.000000
0
VERTEX
5
33dd
8
0
10
29.644039
20
10.572430
30
0.000000
0
VERTEX
5
33ed
8
0
10
29.836112
20
10.584820
30
0.000000
0
VERTEX
5
33fd
8
0
10
30.024373
20
10.591647
30
0.000000
0
VERTEX
5
340d
8
0
10
30.208900
20
10.593019
30
0.000000
0
VERTEX
5
341d
8
0
10
30.389768
20
10.589047
30
0.000000
0
VERTEX
5
342d
8
0
10
30.567053
20
10.579840
30
0.000000
0
VERTEX
5
343d
8
0
10
30.740831
20
10.565508
30
0.000000
0
VERTEX
5
344d
8
0
10
30.911178
20
10.546160
30
0.000000
0
VERTEX
5
345d
8
0
10
31.078170
20
10.521906
30
0.000000
0
VERTEX
5
346d
8
0
10
31.241883
20
10.492856
30
0.000000
0
VERTEX
5
347d
8
0
10
31.402393
20
10.459119
30
0.000000
0
VERTEX
5
348d
8
0
10
31.559776
20
10.420805
30
0.000000
0
VERTEX
5
349d
8
0
10
31.714107
20
10.378024
30
0.000000
0
VERTEX
5
34ad
8
0
10
31.865464
20
10.330885
30
0.000000
0
VERTEX
5
34bd
8
0
10
32.013921
20
10.279497
30
0.000000
0
VERTEX
5
34cd
8
0
10
32.159554
20
10.223971
30
0.000000
0
VERTEX
5
34dd
8
0
10
32.302441
20
10.164416
30
0.000000
0
VERTEX
5
34ed
8
0
10
32.442656
20
10.100942
30
0.000000
0
VERTEX
5
34fd
8
0
10
32.580275
20
10.033658
30
0.000000
0
VERTEX
5
350d
8
0
10
32.715375
20
9.962675
30
0.000000
0
VERTEX
5
351d
8
0
10
32.848032
20
9.888100
30
0.000000
0
VERTEX
5
352d
8
0
10
32.978321
20
9.810045
30
0.000000
0
VERTEX
5
353d
8
0
10
33.106319
20
9.728619
30
0.000000
0
VERTEX
5
354d
8
0
10
33.232100
20
9.643931
30
0.000000
0
VERTEX
5
355d
8
0
10
33.355743
20
9.556091
30
0.000000
0
VERTEX
5
356d
8
0
10
33.477321
20
9.465210
30
0.000000
0
VERTEX
5
357d
8
0
10
33.596912
20
9.371395
30
0.000000
0
VERTEX
5
358d
8
0
10
33.714591
20
9.274757
30
0.000000
0
VERTEX
5
359d
8
0
10
33.830435
20
9.175406
30
0.000000
0
VERTEX
5
35ad
8
0
10
33.944518
20
9.073452
30
0.000000
0
VERTEX
5
35bd
8
0
10
34.056918
20
8.969003
30
0.000000
0
VERTEX
5
35cd
8
0
10
34.167709
20
8.862170
30
0.000000
0
VERTEX
5
35dd
8
0
10
34.276969
20
8.753062
30
0.000000
0
VERTEX
5
35ed
8
0
10
34.384773
20
8.641788
30
0.000000
0
VERTEX
5
35fd
8
0
10
34.491197
20
8.528459
30
0.000000
0
VERTEX
5
360d
8
0
10
34.596317
20
8.413184
30
0.000000
0
VERTEX
5
361d
8
0
10
34.700208
20
8.296073
30
0.000000
0
VERTEX
5
362d
8
0
10
34.802948
20
8.177235
30
0.000000
0
VERTEX
5
363d
8
0
10
34.904611
20
8.056780
30
0.000000
0
VERTEX
5
364d
8
0
10
35.005274
20
7.934817
30
0.000000
0
VERTEX
5
365d
8
0
10
35.105013
20
7.811457
30
0.000000
0
VERTEX
5
366d
8
0
10
35.302022
20
7.560982
30
0.000000
0
VERTEX
5
367d
8
0
10
35.496245
20
7.306230
30
0.000000
0
VERTEX
5
368d
8
0
10
35.688291
20
7.048080
30
0.000000
0
VERTEX
5
369d
8
0
10
35.878767
20
6.787409
30
0.000000
0
VERTEX
5
36ad
8
0
10
36.068280
20
6.525093
30
0.000000
0
VERTEX
5
36bd
8
0
10
36.446851
20
5.999034
30
0.000000
0
VERTEX
5
36cd
8
0
10
36.637123
20
5.737047
30
0.000000
0
VERTEX
5
36dd
8
0
10
36.828864
20
5.476922
30
0.000000
0
VERTEX
5
36ed
8
0
10
37.022682
20
5.219539
30
0.000000
0
VERTEX
5
36fd
8
0
10
37.219183
20
4.965773
30
0.000000
0
VERTEX
5
370d
8
0
10
37.219183
20
4.965773
30
0.000000
0
VERTEX
5
371d
8
0
10
37.356732
20
4.946097
30
0.000000
0
VERTEX
5
372d
8
0
10
37.489511
20
4.930765
30
0.000000
0
VERTEX
5
373d
8
0
10
37.617616
20
4.919687
30
0.000000
0
VERTEX
5
374d
8
0
10
37.741146
20
4.912773
30
0.000000
0
VERTEX
5
375d
8
0
10
37.860200
20
4.909935
30
0.000000
0
VERTEX
5
376d
8
0
10
37.974875
20
4.911084
30
0.000000
0
VERTEX
5
377d
8
0
10
38.085270
20
4.916130
30
0.000000
0
VERTEX
5
378d
8
0
10
38.191482
20
4.924984
30
0.000000
0
VERTEX
5
379d
8
0
10
38.293611
20
4.937558
30
0.000000
0
VERTEX
5
37ad
8
0
10
38.391755
20
4.953762
30
0.000000
0
VERTEX
5
37bd
8
0
10
38.486011
20
4.973506
30
0.000000
0
VERTEX
5
37cd
8
0
10
38.576478
20
4.996703
30
0.000000
0
VERTEX
5
37dd
8
0
10
38.663254
20
5.023262
30
0.000000
0
VERTEX
5
37ed
8
0
10
38.746438
20
5.053095
30
0.000000
0
VERTEX
5
37fd
8
0
10
38.826127
20
5.086112
30
0.000000
0
VERTEX
5
380d
8
0
10
38.902421
20
5.122224
30
0.000000
0
VERTEX
5
381d
8
0
10
38.975416
20
5.161343
30
0.000000
0
VERTEX
5
382d
8
0
10
39.045212
20
5.203379
30
0.000000
0
VERTEX
5
383d
8
0
10
39.111906
20
5.248242
30
0.000000
0
VERTEX
5
384d
8
0
10
39.175597
20
5.295845
30
0.000000
0
VERTEX
5
385d
8
0
10
39.236383
20
5.346097
30
0.000000
0
VERTEX
5
386d
8
0
10
39.294363
20
5.398910
30
0.000000
0
VERTEX
5
387d
8
0
10
39.349634
20
5.454194
30
0.000000
0
VERTEX
5
388d
8
0
10
39.402294
20
5.511861
30
0.000000
0
VERTEX
5
389d
8
0
10
39.452443
20
5.571821
30
0.000000
0
VERTEX
5
38ad
8
0
10
39.500178
20
5.633985
30
0.000000
0
VERTEX
5
38bd
8
0
10
39.545598
20
5.698264
30
0.000000
0
VERTEX
5
38cd
8
0
10
39.588800
20
5.764569
30
0.000000
0
VERTEX
5
38dd
8
0
10
39.629883
20
5.832811
30
0.000000
0
VERTEX
5
38ed
8
0
10
39.668946
20
5.902900
30
0.000000
0
VERTEX
5
38fd
8
0
10
39.706086
20
5.974748
30
0.000000
0
VERTEX
5
390d
8
0
10
39.741401
20
6.048265
30
0.000000
0
VERTEX
5
391d
8
0
10
39.774991
20
6.123362
30
0.000000
0
VERTEX
5
392d
8
0
10
39.806952
20
6.199951
30
0.000000
0
VERTEX
5
393d
8
0
10
39.837384
20
6.277941
30
0.000000
0
VERTEX
5
394d
8
0
10
39.866385
20
6.357245
30
0.000000
0
VERTEX
5
395d
8
0
10
39.894052
20
6.437772
30
0.000000
0
VERTEX
5
396d
8
0
10
39.920485
20
6.519434
30
0.000000
0
VERTEX
5
397d
8
0
10
39.970038
20
6.685805
30
0.000000
0
VERTEX
5
398d
8
0
10
40.015831
20
6.855645
30
0.000000
0
VERTEX
5
399d
8
0
10
40.058649
20
7.028242
30
0.000000
0
VERTEX
5
39ad
8
0
10
40.099277
20
7.202881
30
0.000000
0
VERTEX
5
39bd
8
0
10
40.138503
20
7.378851
30
0.000000
0
VERTEX
5
39cd
8
0
10
40.215888
20
7.731929
30
0.000000
0
VERTEX
5
39dd
8
0
10
40.255620
20
7.907612
30
0.000000
0
VERTEX
5
39ed
8
0
10
40.297092
20
8.081772
30
0.000000
0
VERTEX
5
39fd
8
0
10
40.341091
20
8.253698
30
0.000000
0
VERTEX
5
3a0d
8
0
10
40.388402
20
8.422677
30
0.000000
0
VERTEX
5
3a1d
8
0
10
40.439811
20
8.587994
30
0.000000
0
VERTEX
5
3a2d
8
0
10
40.467298
20
8.669058
30
0.000000
0
VERTEX
5
3a3d
8
0
10
40.496104
20
8.748938
30
0.000000
0
VERTEX
5
3a4d
8
0
10
40.496104
20
8.748938
30
0.000000
0
VERTEX
5
3a5d
8
0
10
40.514268
20
9.196026
30
0.000000
0
VERTEX
5
3a6d
8
0
10
40.528092
20
9.643330
30
0.000000
0
VERTEX
5
3a7d
8
0
10
40.537033
20
10.090759
30
0.000000
0
VERTEX
5
3a8d
8
0
10
40.540546
20
10.538219
30
0.000000
0
VERTEX
5
3a9d
8
0
10
40.540097
20
10.761933
30
0.000000
0
VERTEX
5
3aad
8
0
10
40.538087
20
10.985620
30
0.000000
0
VERTEX
5
3abd
8
0
10
40.534448
20
11.209268
30
0.000000
0
VERTEX
5
3acd
8
0
10
40.529112
20
11.432866
30
0.000000
0
VERTEX
5
3add
8
0
10
40.522011
20
11.656404
30
0.000000
0
VERTEX
5
3aed
8
0
10
40.513076
20
11.879868
30
0.000000
0
VERTEX
5
3afd
8
0
10
40.502240
20
12.103247
30
0.000000
0
VERTEX
5
3b0d
8
0
10
40.489435
20
12.326531
30
0.000000
0
VERTEX
5
3b1d
8
0
10
40.474593
20
12.549706
30
0.000000
0
VERTEX
5
3b2d
8
0
10
40.457645
20
12.772763
30
0.000000
0
VERTEX
5
3b3d
8
0
10
40.438524
20
12.995688
30
0.000000
0
VERTEX
5
3b4d
8
0
10
40.417162
20
13.218471
30
0.000000
0
VERTEX
5
3b5d
8
0
10
40.393490
20
13.441100
30
0.000000
0
VERTEX
5
3b6d
8
0
10
40.367440
20
13.663564
30
0.000000
0
VERTEX
5
3b7d
8
0
10
40.338946
20
13.885850
30
0.000000
0
VERTEX
5
3b8d
8
0
10
40.307937
20
14.107948
30
0.000000
0
VERTEX
5
3b9d
8
0
10
40.274347
20
14.329845
30
0.000000
0
VERTEX
5
3bad
8
0
10
40.238108
20
14.551531
30
0.000000
0
VERTEX
5
3bbd
8
0
10
40.199151
20
14.772993
30
0.000000
0
VERTEX
5
3bcd
8
0
10
40.157408
20
14.994220
30
0.000000
0
VERTEX
5
3bdd
8
0
10
40.112811
20
15.215200
30
0.000000
0
VERTEX
5
3bed
8
0
10
40.065293
20
15.435923
30
0.000000
0
VERTEX
5
3bfd
8
0
10
40.014785
20
15.656375
30
0.000000
0
VERTEX
5
3c0d
8
0
10
39.961219
20
15.876547
30
0.000000
0
VERTEX
5
3c1d
8
0
10
40.136360
20
16.492989
30
0.000000
0
VERTEX
5
3c2d
8
0
10
40.136360
20
16.492989
30
0.000000
0
VERTEX
5
3c3d
8
0
10
40.225604
20
16.462446
30
0.000000
0
VERTEX
5
3c4d
8
0
10
40.311551
20
16.435212
30
0.000000
0
VERTEX
5
3c5d
8
0
10
40.394270
20
16.411220
30
0.000000
0
VERTEX
5
3c6d
8
0
10
40.473828
20
16.390400
30
0.000000
0
VERTEX
5
3c7d
8
0
10
40.550294
20
16.372686
30
0.000000
0
VERTEX
5
3c8d
8
0
10
40.623734
20
16.358008
30
0.000000
0
VERTEX
5
3c9d
8
0
10
40.694217
20
16.346299
30
0.000000
0
VERTEX
5
3cad
8
0
10
40.761810
20
16.337490
30
0.000000
0
VERTEX
5
3cbd
8
0
10
40.826582
20
16.331514
30
0.000000
0
VERTEX
5
3ccd
8
0
10
40.888599
20
16.328301
30
0.000000
0
VERTEX
5
3cdd
8
0
10
40.947931
20
16.327784
30
0.000000
0
VERTEX
5
3ced
8
0
10
41.004645
20
16.329895
30
0.000000
0
VERTEX
5
3cfd
8
0
10
41.058808
20
16.334566
30
0.000000
0
VERTEX
5
3d0d
8
0
10
41.110489
20
16.341728
30
0.000000
0
VERTEX
5
3d1d
8
0
10
41.159755
20
16.351313
30
0.000000
0
VERTEX
5
3d2d
8
0
10
41.206673
20
16.363253
30
0.000000
0
VERTEX
5
3d3d
8
0
10
41.251313
20
16.377480
30
0.000000
0
VERTEX
5
3d4d
8
0
10
41.293742
20
16.393926
30
0.000000
0
VERTEX
5
3d5d
8
0
10
41.334027
20
16.412522
30
0.000000
0
VERTEX
5
3d6d
8
0
10
41.372236
20
16.433201
30
0.000000
0
VERTEX
5
3d7d
8
0
10
41.408437
20
16.455893
30
0.000000
0
VERTEX
5
3d8d
8
0
10
41.442698
20
16.480532
30
0.000000
0
VERTEX
5
3d9d
8
0
10
41.475088
20
16.507049
30
0.000000
0
VERTEX
5
3dad
8
0
10
41.505672
20
16.535375
30
0.000000
0
VERTEX
5
3dbd
8
0
10
41.534520
20
16.565443
30
0.000000
0
VERTEX
5
3dcd
8
0
10
41.561699
20
16.597184
30
0.000000
0
VERTEX
5
3ddd
8
0
10
41.587278
20
16.630530
30
0.000000
0
VERTEX
5
3ded
8
0
10
41.611323
20
16.665414
30
0.000000
0
VERTEX
5
3dfd
8
0
10
41.633902
20
16.701766
30
0.000000
0
VERTEX
5
3e0d
8
0
10
41.655085
20
16.739519
30
0.000000
0
VERTEX
5
3e1d
8
0
10
41.674937
20
16.778604
30
0.000000
0
VERTEX
5
3e2d
8
0
10
41.693528
20
16.818954
30
0.000000
0
VERTEX
5
3e3d
8
0
10
41.727195
20
16.903174
30
0.000000
0
VERTEX
5
3e4d
8
0
10
41.756627
20
16.991633
30
0.000000
0
VERTEX
5
3e5d
8
0
10
41.782369
20
17.083786
30
0.000000
0
VERTEX
5
3e6d
8
0
10
41.804962
20
17.179088
30
0.000000
0
VERTEX
5
3e7d
8
0
10
41.824949
20
17.276993
30
0.000000
0
VERTEX
5
3e8d
8
0
10
41.842872
20
17.376956
30
0.000000
0
VERTEX
5
3e9d
8
0
10
41.874697
20
17.580874
30
0.000000
0
VERTEX
5
3ead
8
0
10
41.904777
20
17.786480
30
0.000000
0
VERTEX
5
3ebd
8
0
10
41.920520
20
17.888553
30
0.000000
0
VERTEX
5
3ecd
8
0
10
41.937454
20
17.989411
30
0.000000
0
VERTEX
5
3edd
8
0
10
41.956121
20
18.088510
30
0.000000
0
VERTEX
5
3eed
8
0
10
41.977066
20
18.185305
30
0.000000
0
VERTEX
5
3efd
8
0
10
42.000829
20
18.279249
30
0.000000
0
VERTEX
5
3f0d
8
0
10
42.027954
20
18.369797
30
0.000000
0
VERTEX
5
3f1d
8
0
10
42.027954
20
18.369797
30
0.000000
0
VERTEX
5
3f2d
8
0
10
42.093246
20
18.706541
30
0.000000
0
VERTEX
5
3f3d
8
0
10
42.161184
20
19.042915
30
0.000000
0
VERTEX
5
3f4d
8
0
10
42.231603
20
19.378940
30
0.000000
0
VERTEX
5
3f5d
8
0
10
42.304338
20
19.714638
30
0.000000
0
VERTEX
5
3f6d
8
0
10
42.379223
20
20.050031
30
0.000000
0
VERTEX
5
3f7d
8
0
10
42.456094
20
20.385139
30
0.000000
0
VERTEX
5
3f8d
8
0
10
42.534784
20
20.719984
30
0.000000
0
VERTEX
5
3f9d
8
0
10
42.615128
20
21.054588
30
0.000000
0
VERTEX
5
3fad
8
0
10
42.780118
20
21.723157
30
0.000000
0
VERTEX
5
3fbd
8
0
10
42.949739
20
22.391018
30
0.000000
0
VERTEX
5
3fcd
8
0
10
43.122670
20
23.058341
30
0.000000
0
VERTEX
5
3fdd
8
0
10
43.297586
20
23.725299
30
0.000000
0
VERTEX
5
3fed
8
0
10
43.648082
20
25.058805
30
0.000000
0
VERTEX
5
3ffd
8
0
10
43.821016
20
25.725695
30
0.000000
0
VERTEX
5
400d
8
0
10
43.990643
20
26.392905
30
0.000000
0
VERTEX
5
401d
8
0
10
44.155639
20
27.060607
30
0.000000
0
VERTEX
5
402d
8
0
10
44.235988
20
27.394696
30
0.000000
0
VERTEX
5
403d
8
0
10
44.314682
20
27.728973
30
0.000000
0
VERTEX
5
404d
8
0
10
44.391557
20
28.063458
30
0.000000
0
VERTEX
5
405d
8
0
10
44.466448
20
28.398173
30
0.000000
0
VERTEX
5
406d
8
0
10
44.539189
20
28.733139
30
0.000000
0
VERTEX
5
407d
8
0
10
44.609614
20
29.068379
30
0.000000
0
VERTEX
5
408d
8
0
10
44.677559
20
29.403913
30
0.000000
0
VERTEX
5
409d
8
0
10
44.742857
20
29.739763
30
0.000000
0
VERTEX
5
40ad
8
0
10
44.805344
20
30.075950
30
0.000000
0
VERTEX
5
40bd
8
0
10
44.864854
20
30.412495
30
0.000000
0
VERTEX
5
40cd
8
0
10
44.921221
20
30.749421
30
0.000000
0
VERTEX
5
40dd
8
0
10
44.974280
20
31.086749
30
0.000000
0
VERTEX
5
40ed
8
0
10
45.023867
20
31.424499
30
0.000000
0
VERTEX
5
40fd
8
0
10
45.069815
20
31.762694
30
0.000000
0
VERTEX
5
410d
8
0
10
45.111958
20
32.101354
30
0.000000
0
VERTEX
5
411d
8
0
10
45.150133
20
32.440502
30
0.000000
0
VERTEX
5
412d
8
0
10
45.184172
20
32.780159
30
0.000000
0
VERTEX
5
413d
8
0
10
45.213912
20
33.120346
30
0.000000
0
VERTEX
5
414d
8
0
10
45.239186
20
33.461084
30
0.000000
0
VERTEX
5
415d
8
0
10
45.259828
20
33.802396
30
0.000000
0
VERTEX
5
416d
8
0
10
45.275675
20
34.144302
30
0.000000
0
VERTEX
5
417d
8
0
10
45.286560
20
34.486823
30
0.000000
0
VERTEX
5
418d
8
0
10
45.292317
20
34.829982
30
0.000000
0
VERTEX
5
419d
8
0
10
45.292782
20
35.173800
30
0.000000
0
VERTEX
5
41ad
8
0
10
45.287789
20
35.518298
30
0.000000
0
VERTEX
5
41bd
8
0
10
45.277172
20
35.863498
30
0.000000
0
VERTEX
5
41cd
8
0
10
45.260767
20
36.209421
30
0.000000
0
VERTEX
5
41dd
8
0
10
45.250342
20
36.382660
30
0.000000
0
VERTEX
5
41ed
8
0
10
45.238407
20
36.556088
30
0.000000
0
VERTEX
5
41fd
8
0
10
45.224943
20
36.729707
30
0.000000
0
VERTEX
5
420d
8
0
10
45.209928
20
36.903521
30
0.000000
0
VERTEX
5
421d
8
0
10
45.193342
20
37.077531
30
0.000000
0
VERTEX
5
422d
8
0
10
45.175164
20
37.251741
30
0.000000
0
VERTEX
5
423d
8
0
10
45.155373
20
37.426153
30
0.000000
0
VERTEX
5
424d
8
0
10
45.133949
20
37.600770
30
0.000000
0
VERTEX
5
425d
8
0
10
45.110872
20
37.775595
30
0.000000
0
VERTEX
5
426d
8
0
10
45.086119
20
37.950630
30
0.000000
0
VERTEX
5
427d
8
0
10
45.059671
20
38.125877
30
0.000000
0
VERTEX
5
428d
8
0
10
45.031508
20
38.301341
30
0.000000
0
VERTEX
5
429d
8
0
10
45.001607
20
38.477022
30
0.000000
0
VERTEX
5
42ad
8
0
10
44.969950
20
38.652925
30
0.000000
0
VERTEX
5
42bd
8
0
10
44.936514
20
38.829051
30
0.000000
0
VERTEX
5
42cd
8
0
10
44.901279
20
39.005403
30
0.000000
0
VERTEX
5
42dd
8
0
10
44.864226
20
39.181985
30
0.000000
0
VERTEX
5
42ed
8
0
10
44.825332
20
39.358798
30
0.000000
0
VERTEX
5
42fd
8
0
10
44.784577
20
39.535845
30
0.000000
0
VERTEX
5
430d
8
0
10
44.741942
20
39.713130
30
0.000000
0
VERTEX
5
431d
8
0
10
44.697404
20
39.890654
30
0.000000
0
VERTEX
5
432d
8
0
10
44.650943
20
40.068421
30
0.000000
0
VERTEX
5
433d
8
0
10
44.650943
20
40.068421
30
0.000000
0
VERTEX
5
434d
8
0
10
44.722904
20
40.166839
30
0.000000
0
VERTEX
5
435d
8
0
10
44.792374
20
40.265774
30
0.000000
0
VERTEX
5
436d
8
0
10
44.859397
20
40.365216
30
0.000000
0
VERTEX
5
437d
8
0
10
44.924021
20
40.465156
30
0.000000
0
VERTEX
5
438d
8
0
10
44.986289
20
40.565584
30
0.000000
0
VERTEX
5
439d
8
0
10
45.046248
20
40.666491
30
0.000000
0
VERTEX
5
43ad
8
0
10
45.103942
20
40.767867
30
0.000000
0
VERTEX
5
43bd
8
0
10
45.159417
20
40.869703
30
0.000000
0
VERTEX
5
43cd
8
0
10
45.212719
20
40.971990
30
0.000000
0
VERTEX
5
43dd
8
0
10
45.263892
20
41.074718
30
0.000000
0
VERTEX
5
43ed
8
0
10
45.312983
20
41.177877
30
0.000000
0
VERTEX
5
43fd
8
0
10
45.360037
20
41.281459
30
0.000000
0
VERTEX
5
440d
8
0
10
45.405098
20
41.385453
30
0.000000
0
VERTEX
5
441d
8
0
10
45.448213
20
41.489851
30
0.000000
0
VERTEX
5
442d
8
0
10
45.489426
20
41.594642
30
0.000000
0
VERTEX
5
443d
8
0
10
45.528784
20
41.699818
30
0.000000
0
VERTEX
5
444d
8
0
10
45.566331
20
41.805369
30
0.000000
0
VERTEX
5
445d
8
0
10
45.602113
20
41.911286
30
0.000000
0
VERTEX
5
446d
8
0
10
45.636176
20
42.017558
30
0.000000
0
VERTEX
5
447d
8
0
10
45.668564
20
42.124178
30
0.000000
0
VERTEX
5
448d
8
0
10
45.699323
20
42.231134
30
0.000000
0
VERTEX
5
449d
8
0
10
45.728499
20
42.338419
30
0.000000
0
VERTEX
5
44ad
8
0
10
45.756136
20
42.446022
30
0.000000
0
VERTEX
5
44bd
8
0
10
45.782281
20
42.553934
30
0.000000
0
VERTEX
5
44cd
8
0
10
45.830273
20
42.770646
30
0.000000
0
VERTEX
5
44dd
8
0
10
45.872839
20
42.988482
30
0.000000
0
VERTEX
5
44ed
8
0
10
45.910341
20
43.207364
30
0.000000
0
VERTEX
5
44fd
8
0
10
45.943142
20
43.427218
30
0.000000
0
VERTEX
5
450d
8
0
10
45.971607
20
43.647968
30
0.000000
0
VERTEX
5
451d
8
0
10
45.996097
20
43.869539
30
0.000000
0
VERTEX
5
452d
8
0
10
46.016975
20
44.091854
30
0.000000
0
VERTEX
5
453d
8
0
10
46.034606
20
44.314840
30
0.000000
0
VERTEX
5
454d
8
0
10
46.049351
20
44.538419
30
0.000000
0
VERTEX
5
455d
8
0
10
46.061575
20
44.762517
30
0.000000
0
VERTEX
5
456d
8
0
10
46.071639
20
44.987059
30
0.000000
0
VERTEX
5
457d
8
0
10
46.079907
20
45.211967
30
0.000000
0
VERTEX
5
458d
8
0
10
46.092508
20
45.662586
30
0.000000
0
VERTEX
5
459d
8
0
10
46.102283
20
46.113769
30
0.000000
0
VERTEX
5
45ad
8
0
10
46.112134
20
46.564913
30
0.000000
0
VERTEX
5
45bd
8
0
10
46.124968
20
47.015414
30
0.000000
0
VERTEX
5
45cd
8
0
10
46.886905
20
46.883581
30
0.000000
0
VERTEX
5
45dd
8
0
10
46.886905
20
46.883581
30
0.000000
0
VERTEX
5
45ed
8
0
10
46.925706
20
46.649089
30
0.000000
0
VERTEX
5
45fd
8
0
10
46.960278
20
46.415987
30
0.000000
0
VERTEX
5
460d
8
0
10
46.990541
20
46.184271
30
0.000000
0
VERTEX
5
461d
8
0
10
47.016418
20
45.953938
30
0.000000
0
VERTEX
5
462d
8
0
10
47.037829
20
45.724984
30
0.000000
0
VERTEX
5
463d
8
0
10
47.054696
20
45.497404
30
0.000000
0
VERTEX
5
464d
8
0
10
47.066940
20
45.271197
30
0.000000
0
VERTEX
5
465d
8
0
10
47.074483
20
45.046357
30
0.000000
0
VERTEX
5
466d
8
0
10
47.077246
20
44.822881
30
0.000000
0
VERTEX
5
467d
8
0
10
47.075151
20
44.600766
30
0.000000
0
VERTEX
5
468d
8
0
10
47.068118
20
44.380007
30
0.000000
0
VERTEX
5
469d
8
0
10
47.056070
20
44.160602
30
0.000000
0
VERTEX
5
46ad
8
0
10
47.038928
20
43.942546
30
0.000000
0
VERTEX
5
46bd
8
0
10
47.016613
20
43.725836
30
0.000000
0
VERTEX
5
46cd
8
0
10
46.989047
20
43.510468
30
0.000000
0
VERTEX
5
46dd
8
0
10
46.956151
20
43.296439
30
0.000000
0
VERTEX
5
46ed
8
0
10
46.917846
20
43.083745
30
0.000000
0
VERTEX
5
46fd
8
0
10
46.874055
20
42.872381
30
0.000000
0
VERTEX
5
470d
8
0
10
46.824697
20
42.662346
30
0.000000
0
VERTEX
5
471d
8
0
10
46.769696
20
42.453634
30
0.000000
0
VERTEX
5
472d
8
0
10
46.708972
20
42.246242
30
0.000000
0
VERTEX
5
473d
8
0
10
46.642446
20
42.040167
30
0.000000
0
VERTEX
5
474d
8
0
10
46.606983
20
41.937622
30
0.000000
0
VERTEX
5
475d
8
0
10
46.570040
20
41.835404
30
0.000000
0
VERTEX
5
476d
8
0
10
46.531608
20
41.733514
30
0.000000
0
VERTEX
5
477d
8
0
10
46.491676
20
41.631951
30
0.000000
0
VERTEX
5
478d
8
0
10
46.450235
20
41.530714
30
0.000000
0
VERTEX
5
479d
8
0
10
46.407274
20
41.429804
30
0.000000
0
VERTEX
5
47ad
8
0
10
46.362785
20
41.329218
30
0.000000
0
VERTEX
5
47bd
8
0
10
46.316757
20
41.228958
30
0.000000
0
VERTEX
5
47cd
8
0
10
46.269181
20
41.129022
30
0.000000
0
VERTEX
5
47dd
8
0
10
46.220046
20
41.029410
30
0.000000
0
VERTEX
5
47ed
8
0
10
46.169343
20
40.930122
30
0.000000
0
VERTEX
5
47fd
8
0
10
46.117061
20
40.831157
30
0.000000
0
VERTEX
5
480d
8
0
10
46.063192
20
40.732515
30
0.000000
0
VERTEX
5
481d
8
0
10
46.007726
20
40.634194
30
0.000000
0
VERTEX
5
482d
8
0
10
45.950651
20
40.536196
30
0.000000
0
VERTEX
5
483d
8
0
10
45.891960
20
40.438519
30
0.000000
0
VERTEX
5
484d
8
0
10
45.831641
20
40.341163
30
0.000000
0
VERTEX
5
485d
8
0
10
45.769685
20
40.244128
30
0.000000
0
VERTEX
5
486d
8
0
10
45.706083
20
40.147412
30
0.000000
0
VERTEX
5
487d
8
0
10
45.640823
20
40.051016
30
0.000000
0
VERTEX
5
488d
8
0
10
45.640823
20
40.051016
30
0.000000
0
VERTEX
5
489d
8
0
10
45.707631
20
39.763861
30
0.000000
0
VERTEX
5
48ad
8
0
10
45.769927
20
39.476565
30
0.000000
0
VERTEX
5
48bd
8
0
10
45.827773
20
39.189131
30
0.000000
0
VERTEX
5
48cd
8
0
10
45.881233
20
38.901562
30
0.000000
0
VERTEX
5
48dd
8
0
10
45.930368
20
38.613860
30
0.000000
0
VERTEX
5
48ed
8
0
10
45.975242
20
38.326028
30
0.000000
0
VERTEX
5
48fd
8
0
10
46.015916
20
38.038068
30
0.000000
0
VERTEX
5
490d
8
0
10
46.052454
20
37.749984
30
0.000000
0
VERTEX
5
491d
8
0
10
46.084918
20
37.461777
30
0.000000
0
VERTEX
5
492d
8
0
10
46.113370
20
37.173451
30
0.000000
0
VERTEX
5
493d
8
0
10
46.137873
20
36.885008
30
0.000000
0
VERTEX
5
494d
8
0
10
46.158490
20
36.596451
30
0.000000
0
VERTEX
5
495d
8
0
10
46.175282
20
36.307782
30
0.000000
0
VERTEX
5
496d
8
0
10
46.188314
20
36.019005
30
0.000000
0
VERTEX
5
497d
8
0
10
46.197646
20
35.730121
30
0.000000
0
VERTEX
5
498d
8
0
10
46.203343
20
35.441134
30
0.000000
0
VERTEX
5
499d
8
0
10
46.205465
20
35.152046
30
0.000000
0
VERTEX
5
49ad
8
0
10
46.204076
20
34.862859
30
0.000000
0
VERTEX
5
49bd
8
0
10
46.199239
20
34.573577
30
0.000000
0
VERTEX
5
49cd
8
0
10
46.191016
20
34.284202
30
0.000000
0
VERTEX
5
49dd
8
0
10
46.179468
20
33.994737
30
0.000000
0
VERTEX
5
49ed
8
0
10
46.164660
20
33.705184
30
0.000000
0
VERTEX
5
49fd
8
0
10
46.146654
20
33.415546
30
0.000000
0
VERTEX
5
4a0d
8
0
10
46.125511
20
33.125826
30
0.000000
0
VERTEX
5
4a1d
8
0
10
46.101295
20
32.836026
30
0.000000
0
VERTEX
5
4a2d
8
0
10
46.074068
20
32.546150
30
0.000000
0
VERTEX
5
4a3d
8
0
10
46.043893
20
32.256199
30
0.000000
0
VERTEX
5
4a4d
8
0
10
46.010832
20
31.966176
30
0.000000
0
VERTEX
5
4a5d
8
0
10
45.974948
20
31.676084
30
0.000000
0
VERTEX
5
4a6d
8
0
10
45.936303
20
31.385926
30
0.000000
0
VERTEX
5
4a7d
8
0
10
45.894960
20
31.095704
30
0.000000
0
VERTEX
5
4a8d
8
0
10
45.850981
20
30.805421
30
0.000000
0
VERTEX
5
4a9d
8
0
10
45.796606
20
29.542504
30
0.000000
0
VERTEX
5
4aad
8
0
10
45.586080
20
29.542504
30
0.000000
0
VERTEX
5
4abd
8
0
10
45.586080
20
28.701383
30
0.000000
0
VERTEX
5
4acd
8
0
10
45.375554
20
28.701383
30
0.000000
0
VERTEX
5
4add
8
0
10
45.375554
20
27.860261
30
0.000000
0
VERTEX
5
4aed
8
0
10
45.165028
20
27.860261
30
0.000000
0
VERTEX
5
4afd
8
0
10
45.186510
20
26.767427
30
0.000000
0
VERTEX
5
4b0d
8
0
10
45.186510
20
26.767427
30
0.000000
0
VERTEX
5
4b1d
8
0
10
45.085855
20
26.598678
30
0.000000
0
VERTEX
5
4b2d
8
0
10
44.989503
20
26.428571
30
0.000000
0
VERTEX
5
4b3d
8
0
10
44.897307
20
26.257155
30
0.000000
0
VERTEX
5
4b4d
8
0
10
44.809121
20
26.084476
30
0.000000
0
VERTEX
5
4b5d
8
0
10
44.724799
20
25.910582
30
0.000000
0
VERTEX
5
4b6d
8
0
10
44.644194
20
25.735521
30
0.000000
0
VERTEX
5
4b7d
8
0
10
44.567158
20
25.559338
30
0.000000
0
VERTEX
5
4b8d
8
0
10
44.493546
20
25.382082
30
0.000000
0
VERTEX
5
4b9d
8
0
10
44.423212
20
25.203800
30
0.000000
0
VERTEX
5
4bad
8
0
10
44.356007
20
25.024539
30
0.000000
0
VERTEX
5
4bbd
8
0
10
44.291786
20
24.844347
30
0.000000
0
VERTEX
5
4bcd
8
0
10
44.230402
20
24.663270
30
0.000000
0
VERTEX
5
4bdd
8
0
10
44.171709
20
24.481356
30
0.000000
0
VERTEX
5
4bed
8
0
10
44.115559
20
24.298652
30
0.000000
0
VERTEX
5
4bfd
8
0
10
44.061806
20
24.115206
30
0.000000
0
VERTEX
5
4c0d
8
0
10
44.010305
20
23.931064
30
0.000000
0
VERTEX
5
4c1d
8
0
10
43.960907
20
23.746274
30
0.000000
0
VERTEX
5
4c2d
8
0
10
43.913466
20
23.560884
30
0.000000
0
VERTEX
5
4c3d
8
0
10
43.867836
20
23.374939
30
0.000000
0
VERTEX
5
4c4d
8
0
10
43.823870
20
23.188489
30
0.000000
0
VERTEX
5
4c5d
8
0
10
43.740344
20
22.814258
30
0.000000
0
VERTEX
5
4c6d
8
0
10
43.661715
20
22.438569
30
0.000000
0
VERTEX
5
4c7d
8
0
10
43.586811
20
22.061800
30
0.000000
0
VERTEX
5
4c8d
8
0
10
43.514457
20
21.684329
30
0.000000
0
VERTEX
5
4c9d
8
0
10
43.372710
20
20.928793
30
0.000000
0
VERTEX
5
4cad
8
0
10
43.300972
20
20.551484
30
0.000000
0
VERTEX
5
4cbd
8
0
10
43.227093
20
20.174986
30
0.000000
0
VERTEX
5
4ccd
8
0
10
43.149900
20
19.799676
30
0.000000
0
VERTEX
5
4cdd
8
0
10
43.068220
20
19.425932
30
0.000000
0
VERTEX
5
4ced
8
0
10
43.025331
20
19.239766
30
0.000000
0
VERTEX
5
4cfd
8
0
10
42.980881
20
19.054133
30
0.000000
0
VERTEX
5
4d0d
8
0
10
42.934722
20
18.869081
30
0.000000
0
VERTEX
5
4d1d
8
0
10
42.886709
20
18.684656
30
0.000000
0
VERTEX
5
4d2d
8
0
10
42.836695
20
18.500907
30
0.000000
0
VERTEX
5
4d3d
8
0
10
42.784532
20
18.317880
30
0.000000
0
VERTEX
5
4d4d
8
0
10
42.730075
20
18.135623
30
0.000000
0
VERTEX
5
4d5d
8
0
10
42.673176
20
17.954183
30
0.000000
0
VERTEX
5
4d6d
8
0
10
42.613690
20
17.773607
30
0.000000
0
VERTEX
5
4d7d
8
0
10
42.551469
20
17.593942
30
0.000000
0
VERTEX
5
4d8d
8
0
10
42.486367
20
17.415237
30
0.000000
0
VERTEX
5
4d9d
8
0
10
42.418237
20
17.237537
30
0.000000
0
VERTEX
5
4dad
8
0
10
42.346934
20
17.060890
30
0.000000
0
VERTEX
5
4dbd
8
0
10
42.272309
20
16.885344
30
0.000000
0
VERTEX
5
4dcd
8
0
10
42.194216
20
16.710945
30
0.000000
0
VERTEX
5
4ddd
8
0
10
42.112509
20
16.537742
30
0.000000
0
VERTEX
5
4ded
8
0
10
42.027042
20
16.365781
30
0.000000
0
VERTEX
5
4dfd
8
0
10
41.937667
20
16.195109
30
0.000000
0
VERTEX
5
4e0d
8
0
10
41.844238
20
16.025774
30
0.000000
0
VERTEX
5
4e1d
8
0
10
41.746608
20
15.857823
30
0.000000
0
VERTEX
5
4e2d
8
0
10
41.644632
20
15.691303
30
0.000000
0
VERTEX
5
4e3d
8
0
10
41.538161
20
15.526262
30
0.000000
0
VERTEX
5
4e4d
8
0
10
41.427049
20
15.362747
30
0.000000
0
VERTEX
5
4e5d
8
0
10
41.311151
20
15.200805
30
0.000000
0
VERTEX
5
4e6d
8
0
10
41.311151
20
15.200805
30
0.000000
0
VERTEX
5
4e7d
8
0
10
41.337051
20
14.759553
30
0.000000
0
VERTEX
5
4e8d
8
0
10
41.361715
20
14.317450
30
0.000000
0
VERTEX
5
4e9d
8
0
10
41.384147
20
13.874538
30
0.000000
0
VERTEX
5
4ead
8
0
10
41.403354
20
13.430855
30
0.000000
0
VERTEX
5
4ebd
8
0
10
41.418341
20
12.986444
30
0.000000
0
VERTEX
5
4ecd
8
0
10
41.428115
20
12.541344
30
0.000000
0
VERTEX
5
4edd
8
0
10
41.430736
20
12.318549
30
0.000000
0
VERTEX
5
4eed
8
0
10
41.431681
20
12.095597
30
0.000000
0
VERTEX
5
4efd
8
0
10
41.430826
20
11.872493
30
0.000000
0
VERTEX
5
4f0d
8
0
10
41.428046
20
11.649242
30
0.000000
0
VERTEX
5
4f1d
8
0
10
41.423216
20
11.425850
30
0.000000
0
VERTEX
5
4f2d
8
0
10
41.416214
20
11.202321
30
0.000000
0
VERTEX
5
4f3d
8
0
10
41.406914
20
10.978660
30
0.000000
0
VERTEX
5
4f4d
8
0
10
41.395192
20
10.754873
30
0.000000
0
VERTEX
5
4f5d
8
0
10
41.380924
20
10.530965
30
0.000000
0
VERTEX
5
4f6d
8
0
10
41.363986
20
10.306941
30
0.000000
0
VERTEX
5
4f7d
8
0
10
41.344253
20
10.082805
30
0.000000
0
VERTEX
5
4f8d
8
0
10
41.321601
20
9.858564
30
0.000000
0
VERTEX
5
4f9d
8
0
10
41.295907
20
9.634221
30
0.000000
0
VERTEX
5
4fad
8
0
10
41.267044
20
9.409783
30
0.000000
0
VERTEX
5
4fbd
8
0
10
41.234890
20
9.185253
30
0.000000
0
VERTEX
5
4fcd
8
0
10
41.199321
20
8.960638
30
0.000000
0
VERTEX
5
4fdd
8
0
10
41.160211
20
8.735942
30
0.000000
0
VERTEX
5
4fed
8
0
10
41.117436
20
8.511170
30
0.000000
0
VERTEX
5
4ffd
8
0
10
41.070873
20
8.286328
30
0.000000
0
VERTEX
5
500d
8
0
10
41.020397
20
8.061421
30
0.000000
0
VERTEX
5
501d
8
0
10
41.020397
20
8.061421
30
0.000000
0
VERTEX
5
502d
8
0
10
40.991913
20
7.848749
30
0.000000
0
VERTEX
5
503d
8
0
10
40.961060
20
7.638491
30
0.000000
0
VERTEX
5
504d
8
0
10
40.927482
20
7.430978
30
0.000000
0
VERTEX
5
505d
8
0
10
40.890824
20
7.226541
30
0.000000
0
VERTEX
5
506d
8
0
10
40.850733
20
7.025513
30
0.000000
0
VERTEX
5
507d
8
0
10
40.806854
20
6.828224
30
0.000000
0
VERTEX
5
508d
8
0
10
40.758831
20
6.635007
30
0.000000
0
VERTEX
5
509d
8
0
10
40.706310
20
6.446193
30
0.000000
0
VERTEX
5
50ad
8
0
10
40.678252
20
6.353541
30
0.000000
0
VERTEX
5
50bd
8
0
10
40.648937
20
6.262114
30
0.000000
0
VERTEX
5
50cd
8
0
10
40.618320
20
6.171953
30
0.000000
0
VERTEX
5
50dd
8
0
10
40.586356
20
6.083100
30
0.000000
0
VERTEX
5
50ed
8
0
10
40.553002
20
5.995597
30
0.000000
0
VERTEX
5
50fd
8
0
10
40.518214
20
5.909485
30
0.000000
0
VERTEX
5
510d
8
0
10
40.481946
20
5.824804
30
0.000000
0
VERTEX
5
511d
8
0
10
40.444155
20
5.741598
30
0.000000
0
VERTEX
5
512d
8
0
10
40.404796
20
5.659907
30
0.000000
0
VERTEX
5
513d
8
0
10
40.363825
20
5.579772
30
0.000000
0
VERTEX
5
514d
8
0
10
40.321197
20
5.501236
30
0.000000
0
VERTEX
5
515d
8
0
10
40.276869
20
5.424339
30
0.000000
0
VERTEX
5
516d
8
0
10
40.230795
20
5.349123
30
0.000000
0
VERTEX
5
517d
8
0
10
40.182932
20
5.275630
30
0.000000
0
VERTEX
5
518d
8
0
10
40.133235
20
5.203900
30
0.000000
0
VERTEX
5
519d
8
0
10
40.081661
20
5.133976
30
0.000000
0
VERTEX
5
51ad
8
0
10
40.028163
20
5.065899
30
0.000000
0
VERTEX
5
51bd
8
0
10
39.972699
20
4.999709
30
0.000000
0
VERTEX
5
51cd
8
0
10
39.915224
20
4.935450
30
0.000000
0
VERTEX
5
51dd
8
0
10
39.855693
20
4.873162
30
0.000000
0
VERTEX
5
51ed
8
0
10
39.794062
20
4.812886
30
0.000000
0
VERTEX
5
51fd
8
0
10
39.730287
20
4.754664
30
0.000000
0
VERTEX
5
520d
8
0
10
39.664324
20
4.698538
30
0.000000
0
VERTEX
5
521d
8
0
10
39.596128
20
4.644548
30
0.000000
0
VERTEX
5
522d
8
0
10
39.525655
20
4.592737
30
0.000000
0
VERTEX
5
523d
8
0
10
39.452861
20
4.543146
30
0.000000
0
VERTEX
5
524d
8
0
10
39.377700
20
4.495816
30
0.000000
0
VERTEX
5
525d
8
0
10
39.300130
20
4.450788
30
0.000000
0
VERTEX
5
526d
8
0
10
39.220105
20
4.408105
30
0.000000
0
VERTEX
5
527d
8
0
10
39.137581
20
4.367808
30
0.000000
0
VERTEX
5
528d
8
0
10
39.052514
20
4.329937
30
0.000000
0
VERTEX
5
529d
8
0
10
38.964860
20
4.294535
30
0.000000
0
VERTEX
5
52ad
8
0
10
38.874573
20
4.261643
30
0.000000
0
VERTEX
5
52bd
8
0
10
38.781611
20
4.231302
30
0.000000
0
VERTEX
5
52cd
8
0
10
38.685928
20
4.203554
30
0.000000
0
VERTEX
5
52dd
8
0
10
38.587481
20
4.178440
30
0.000000
0
VERTEX
5
52ed
8
0
10
38.486224
20
4.156002
30
0.000000
0
VERTEX
5
52fd
8
0
10
38.382114
20
4.136282
30
0.000000
0
VERTEX
5
530d
8
0
10
38.275106
20
4.119319
30
0.000000
0
VERTEX
5
531d
8
0
10
38.165156
20
4.105157
30
0.000000
0
VERTEX
5
532d
8
0
10
38.052219
20
4.093837
30
0.000000
0
VERTEX
5
533d
8
0
10
37.936252
20
4.085399
30
0.000000
0
VERTEX
5
534d
8
0
10
37.817210
20
4.079886
30
0.000000
0
VERTEX
5
535d
8
0
10
37.695048
20
4.077338
30
0.000000
0
VERTEX
5
536d
8
0
10
37.569722
20
4.077798
30
0.000000
0
VERTEX
5
537d
8
0
10
37.441188
20
4.081307
30
0.000000
0
VERTEX
5
538d
8
0
10
37.309402
20
4.087905
30
0.000000
0
VERTEX
5
539d
8
0
10
37.174319
20
4.097636
30
0.000000
0
VERTEX
5
53ad
8
0
10
37.174319
20
4.097636
30
0.000000
0
VERTEX
5
53bd
8
0
10
37.002105
20
4.328486
30
0.000000
0
VERTEX
5
53cd
8
0
10
36.828573
20
4.557926
30
0.000000
0
VERTEX
5
53dd
8
0
10
36.653639
20
4.785884
30
0.000000
0
VERTEX
5
53ed
8
0
10
36.477220
20
5.012286
30
0.000000
0
VERTEX
5
53fd
8
0
10
36.299231
20
5.237058
30
0.000000
0
VERTEX
5
540d
8
0
10
36.119590
20
5.460128
30
0.000000
0
VERTEX
5
541d
8
0
10
35.938213
20
5.681423
30
0.000000
0
VERTEX
5
542d
8
0
10
35.755016
20
5.900868
30
0.000000
0
VERTEX
5
543d
8
0
10
35.569915
20
6.118391
30
0.000000
0
VERTEX
5
544d
8
0
10
35.382828
20
6.333919
30
0.000000
0
VERTEX
5
545d
8
0
10
35.193670
20
6.547377
30
0.000000
0
VERTEX
5
546d
8
0
10
35.002357
20
6.758694
30
0.000000
0
VERTEX
5
547d
8
0
10
34.808807
20
6.967795
30
0.000000
0
VERTEX
5
548d
8
0
10
34.612936
20
7.174608
30
0.000000
0
VERTEX
5
549d
8
0
10
34.414660
20
7.379058
30
0.000000
0
VERTEX
5
54ad
8
0
10
34.213895
20
7.581074
30
0.000000
0
VERTEX
5
54bd
8
0
10
34.010558
20
7.780581
30
0.000000
0
VERTEX
5
54cd
8
0
10
33.804566
20
7.977506
30
0.000000
0
VERTEX
5
54dd
8
0
10
33.595834
20
8.171777
30
0.000000
0
VERTEX
5
54ed
8
0
10
33.384280
20
8.363319
30
0.000000
0
VERTEX
5
54fd
8
0
10
33.169819
20
8.552059
30
0.000000
0
VERTEX
5
550d
8
0
10
32.952368
20
8.737925
30
0.000000
0
VERTEX
5
551d
8
0
10
32.731844
20
8.920843
30
0.000000
0
VERTEX
5
552d
8
0
10
32.508163
20
9.100739
30
0.000000
0
VERTEX
5
553d
8
0
10
32.281240
20
9.277541
30
0.000000
0
VERTEX
5
554d
8
0
10
32.050994
20
9.451175
30
0.000000
0
VERTEX
5
555d
8
0
10
31.817340
20
9.621568
30
0.000000
0
VERTEX
5
556d
8
0
10
31.580194
20
9.788646
30
0.000000
0
VERTEX
5
557d
8
0
10
31.339473
20
9.952337
30
0.000000
0
VERTEX
5
558d
8
0
10
31.095094
20
10.112566
30
0.000000
0
VERTEX
5
559d
8
0
10
30.846972
20
10.269262
30
0.000000
0
VERTEX
5
55ad
8
0
10
30.595025
20
10.422350
30
0.000000
0
VERTEX
5
55bd
8
0
10
30.595025
20
10.422350
30
0.000000
0
VERTEX
5
55cd
8
0
10
30.509494
20
10.353640
30
0.000000
0
VERTEX
5
55dd
8
0
10
30.422962
20
10.288466
30
0.000000
0
VERTEX
5
55ed
8
0
10
30.335457
20
10.226723
30
0.000000
0
VERTEX
5
55fd
8
0
10
30.247010
20
10.168307
30
0.000000
0
VERTEX
5
560d
8
0
10
30.157648
20
10.113111
30
0.000000
0
VERTEX
5
561d
8
0
10
30.067401
20
10.061032
30
0.000000
0
VERTEX
5
562d
8
0
10
29.976297
20
10.011964
30
0.000000
0
VERTEX
5
563d
8
0
10
29.884366
20
9.965801
30
0.000000
0
VERTEX
5
564d
8
0
10
29.791636
20
9.922440
30
0.000000
0
VERTEX
5
565d
8
0
10
29.698137
20
9.881775
30
0.000000
0
VERTEX
5
566d
8
0
10
29.603897
20
9.843701
30
0.000000
0
VERTEX
5
567d
8
0
10
29.508945
20
9.808112
30
0.000000
0
VERTEX
5
568d
8
0
10
29.413310
20
9.774905
30
0.000000
0
VERTEX
5
569d
8
0
10
29.317022
20
9.743974
30
0.000000
0
VERTEX
5
56ad
8
0
10
29.220109
20
9.715213
30
0.000000
0
VERTEX
5
56bd
8
0
10
29.122600
20
9.688518
30
0.000000
0
VERTEX
5
56cd
8
0
10
29.024524
20
9.663785
30
0.000000
0
VERTEX
5
56dd
8
0
10
28.925909
20
9.640907
30
0.000000
0
VERTEX
5
56ed
8
0
10
28.826786
20
9.619780
30
0.000000
0
VERTEX
5
56fd
8
0
10
28.727182
20
9.600298
30
0.000000
0
VERTEX
5
570d
8
0
10
28.627128
20
9.582358
30
0.000000
0
VERTEX
5
571d
8
0
10
28.526651
20
9.565853
30
0.000000
0
VERTEX
5
572d
8
0
10
28.324546
20
9.536730
30
0.000000
0
VERTEX
5
573d
8
0
10
28.121099
20
9.512091
30
0.000000
0
VERTEX
5
574d
8
0
10
27.916542
20
9.491094
30
0.000000
0
VERTEX
5
575d
8
0
10
27.711106
20
9.472899
30
0.000000
0
VERTEX
5
576d
8
0
10
27.505023
20
9.456667
30
0.000000
0
VERTEX
5
577d
8
0
10
27.091843
20
9.426728
30
0.000000
0
VERTEX
5
578d
8
0
10
26.885208
20
9.411342
30
0.000000
0
VERTEX
5
579d
8
0
10
26.678852
20
9.394557
30
0.000000
0
VERTEX
5
57ad
8
0
10
26.473007
20
9.375533
30
0.000000
0
VERTEX
5
57bd
8
0
10
26.267904
20
9.353431
30
0.000000
0
VERTEX
5
57cd
8
0
10
26.063775
20
9.327410
30
0.000000
0
VERTEX
5
57dd
8
0
10
25.860851
20
9.296630
30
0.000000
0
VERTEX
5
57ed
8
0
10
25.759914
20
9.279193
30
0.000000
0
VERTEX
5
57fd
8
0
10
25.659365
20
9.260251
30
0.000000
0
VERTEX
5
580d
8
0
10
25.559232
20
9.239699
30
0.000000
0
VERTEX
5
581d
8
0
10
25.459546
20
9.217432
30
0.000000
0
VERTEX
5
582d
8
0
10
25.360335
20
9.193345
30
0.000000
0
VERTEX
5
583d
8
0
10
25.261628
20
9.167333
30
0.000000
0
VERTEX
5
584d
8
0
10
25.163453
20
9.139292
30
0.000000
0
VERTEX
5
585d
8
0
10
25.065841
20
9.109115
30
0.000000
0
VERTEX
5
586d
8
0
10
24.968819
20
9.076699
30
0.000000
0
VERTEX
5
587d
8
0
10
24.872417
20
9.041937
30
0.000000
0
VERTEX
5
588d
8
0
10
24.776664
20
9.004726
30
0.000000
0
VERTEX
5
589d
8
0
10
24.681588
20
8.964959
30
0.000000
0
VERTEX
5
58ad
8
0
10
24.587219
20
8.922533
30
0.000000
0
VERTEX
5
58bd
8
0
10
24.493585
20
8.877341
30
0.000000
0
VERTEX
5
58cd
8
0
10
24.400716
20
8.829280
30
0.000000
0
VERTEX
5
58dd
8
0
10
24.308640
20
8.778243
30
0.000000
0
VERTEX
5
58ed
8
0
10
24.213545
20
9.365177
30
0.000000
0
VERTEX
5
58fd
8
0
10
24.213545
20
9.365177
30
0.000000
0
VERTEX
5
590d
8
0
10
24.115863
20
9.327426
30
0.000000
0
VERTEX
5
591d
8
0
10
24.017009
20
9.292760
30
0.000000
0
VERTEX
5
592d
8
0
10
23.917050
20
9.261024
30
0.000000
0
VERTEX
5
593d
8
0
10
23.816049
20
9.232061
30
0.000000
0
VERTEX
5
594d
8
0
10
23.714073
20
9.205715
30
0.000000
0
VERTEX
5
595d
8
0
10
23.611187
20
9.181829
30
0.000000
0
VERTEX
5
596d
8
0
10
23.507456
20
9.160247
30
0.000000
0
VERTEX
5
597d
8
0
10
23.402945
20
9.140812
30
0.000000
0
VERTEX
5
598d
8
0
10
23.297721
20
9.123368
30
0.000000
0
VERTEX
5
599d
8
0
10
23.191848
20
9.107759
30
0.000000
0
VERTEX
5
59ad
8
0
10
23.085392
20
9.093829
30
0.000000
0
VERTEX
5
59bd
8
0
10
22.978418
20
9.081420
30
0.000000
0
VERTEX
5
59cd
8
0
10
22.763177
20
9.060542
30
0.000000
0
VERTEX
5
59dd
8
0
10
22.546649
20
9.043875
30
0.000000
0
VERTEX
5
59ed
8
0
10
22.329357
20
9.030168
30
0.000000
0
VERTEX
5
59fd
8
0
10
22.111823
20
9.018168
30
0.000000
0
VERTEX
5
5a0d
8
0
10
21.678124
20
8.994291
30
0.000000
0
VERTEX
5
5a1d
8
0
10
21.463003
20
8.979910
30
0.000000
0
VERTEX
5
5a2d
8
0
10
21.249734
20
8.962233
30
0.000000
0
VERTEX
5
5a3d
8
0
10
21.038837
20
8.940008
30
0.000000
0
VERTEX
5
5a4d
8
0
10
20.934443
20
8.926799
30
0.000000
0
VERTEX
5
5a5d
8
0
10
20.830837
20
8.911984
30
0.000000
0
VERTEX
5
5a6d
8
0
10
20.728087
20
8.895407
30
0.000000
0
VERTEX
5
5a7d
8
0
10
20.626257
20
8.876911
30
0.000000
0
VERTEX
5
5a8d
8
0
10
20.525412
20
8.856340
30
0.000000
0
VERTEX
5
5a9d
8
0
10
20.425618
20
8.833537
30
0.000000
0
VERTEX
5
5aad
8
0
10
20.326940
20
8.808346
30
0.000000
0
VERTEX
5
5abd
8
0
10
20.229444
20
8.780610
30
0.000000
0
VERTEX
5
5acd
8
0
10
20.133195
20
8.750174
30
0.000000
0
VERTEX
5
5add
8
0
10
20.038259
20
8.716881
30
0.000000
0
VERTEX
5
5aed
8
0
10
19.944700
20
8.680573
30
0.000000
0
VERTEX
5
5afd
8
0
10
19.852584
20
8.641096
30
0.000000
0
VERTEX
5
5b0d
8
0
10
19.761977
20
8.598293
30
0.000000
0
VERTEX
5
5b1d
8
0
10
19.672944
20
8.552006
30
0.000000
0
VERTEX
5
5b2d
8
0
10
19.585549
20
8.502081
30
0.000000
0
VERTEX
5
5b3d
8
0
10
19.499860
20
8.448359
30
0.000000
0
VERTEX
5
5b4d
8
0
10
19.415940
20
8.390686
30
0.000000
0
VERTEX
5
5b5d
8
0
10
19.333856
20
8.328905
30
0.000000
0
VERTEX
5
5b6d
8
0
10
19.253672
20
8.262858
30
0.000000
0
VERTEX
5
5b7d
8
0
10
19.175455
20
8.192390
30
0.000000
0
VERTEX
5
5b8d
8
0
10
19.099269
20
8.117345
30
0.000000
0
VERTEX
5
5b9d
8
0
10
19.025179
20
8.037566
30
0.000000
0
VERTEX
5
5bad
8
0
10
18.953252
20
7.952896
30
0.000000
0
VERTEX
5
5bbd
8
0
10
18.883552
20
7.863180
30
0.000000
0
VERTEX
5
5bcd
8
0
10
18.816146
20
7.768260
30
0.000000
0
VERTEX
5
5bdd
8
0
10
18.751097
20
7.667981
30
0.000000
0
VERTEX
5
5bed
8
0
10
18.688472
20
7.562186
30
0.000000
0
VERTEX
5
5bfd
8
0
10
18.628336
20
7.450718
30
0.000000
0
VERTEX
5
5c0d
8
0
10
18.570755
20
7.333422
30
0.000000
0
VERTEX
5
5c1d
8
0
10
18.515793
20
7.210140
30
0.000000
0
VERTEX
5
5c2d
8
0
10
18.463517
20
7.080717
30
0.000000
0
VERTEX
5
5c3d
8
0
10
18.413990
20
6.944996
30
0.000000
0
VERTEX
5
5c4d
8
0
10
18.367280
20
6.802821
30
0.000000
0
VERTEX
5
5c5d
8
0
10
18.323451
20
6.654035
30
0.000000
0
VERTEX
5
5c6d
8
0
10
18.323451
20
6.654035
30
0.000000
0
VERTEX
5
5c7d
8
0
10
18.218007
20
6.500488
30
0.000000
0
VERTEX
5
5c8d
8
0
10
18.113742
20
6.345392
30
0.000000
0
VERTEX
5
5c9d
8
0
10
17.907483
20
6.031544
30
0.000000
0
VERTEX
5
5cad
8
0
10
17.702148
20
5.714477
30
0.000000
0
VERTEX
5
5cbd
8
0
10
17.495212
20
5.396177
30
0.000000
0
VERTEX
5
5ccd
8
0
10
17.284150
20
5.078632
30
0.000000
0
VERTEX
5
5cdd
8
0
10
17.176283
20
4.920763
30
0.000000
0
VERTEX
5
5ced
8
0
10
17.066436
20
4.763828
30
0.000000
0
VERTEX
5
5cfd
8
0
10
16.954295
20
4.608074
30
0.000000
0
VERTEX
5
5d0d
8
0
10
16.839545
20
4.453751
30
0.000000
0
VERTEX
5
5d1d
8
0
10
16.721868
20
4.301106
30
0.000000
0
VERTEX
5
5d2d
8
0
10
16.600950
20
4.150388
30
0.000000
0
VERTEX
5
5d3d
8
0
10
16.476475
20
4.001846
30
0.000000
0
VERTEX
5
5d4d
8
0
10
16.348127
20
3.855726
30
0.000000
0
VERTEX
5
5d5d
8
0
10
16.215591
20
3.712279
30
0.000000
0
VERTEX
5
5d6d
8
0
10
16.078550
20
3.571751
30
0.000000
0
VERTEX
5
5d7d
8
0
10
15.936690
20
3.434393
30
0.000000
0
VERTEX
5
5d8d
8
0
10
15.863854
20
3.366979
30
0.000000
0
VERTEX
5
5d9d
8
0
10
15.789694
20
3.300450
30
0.000000
0
VERTEX
5
5dad
8
0
10
15.714172
20
3.234838
30
0.000000
0
VERTEX
5
5dbd
8
0
10
15.637247
20
3.170173
30
0.000000
0
VERTEX
5
5dcd
8
0
10
15.558880
20
3.106487
30
0.000000
0
VERTEX
5
5ddd
8
0
10
15.479033
20
3.043810
30
0.000000
0
VERTEX
5
5ded
8
0
10
15.397665
20
2.982173
30
0.000000
0
VERTEX
5
5dfd
8
0
10
15.314736
20
2.921608
30
0.000000
0
VERTEX
5
5e0d
8
0
10
15.230208
20
2.862145
30
0.000000
0
VERTEX
5
5e1d
8
0
10
15.144041
20
2.803816
30
0.000000
0
VERTEX
5
5e2d
8
0
10
15.056196
20
2.746652
30
0.000000
0
VERTEX
5
5e3d
8
0
10
14.966632
20
2.690683
30
0.000000
0
VERTEX
5
5e4d
8
0
10
14.875312
20
2.635940
30
0.000000
0
VERTEX
5
5e5d
8
0
10
14.782194
20
2.582456
30
0.000000
0
VERTEX
5
5e6d
8
0
10
14.687240
20
2.530260
30
0.000000
0
VERTEX
5
5e7d
8
0
10
14.590410
20
2.479384
30
0.000000
0
VERTEX
5
5e8d
8
0
10
14.491665
20
2.429859
30
0.000000
0
VERTEX
5
5e9d
8
0
10
14.390965
20
2.381716
30
0.000000
0
VERTEX
5
5ead
8
0
10
14.288271
20
2.334986
30
0.000000
0
VERTEX
5
5ebd
8
0
10
14.183544
20
2.289699
30
0.000000
0
VERTEX
5
5ecd
8
0
10
14.076743
20
2.245888
30
0.000000
0
VERTEX
5
5edd
8
0
10
13.967830
20
2.203583
30
0.000000
0
VERTEX
5
5eed
8
0
10
13.967830
20
2.203583
30
0.000000
0
VERTEX
5
5efd
8
0
10
13.836062
20
2.322123
30
0.000000
0
VERTEX
5
5f0d
8
0
10
13.712136
20
2.441478
30
0.000000
0
VERTEX
5
5f1d
8
0
10
13.595859
20
2.561628
30
0.000000
0
VERTEX
5
5f2d
8
0
10
13.540529
20
2.621994
30
0.000000
0
VERTEX
5
5f3d
8
0
10
13.487038
20
2.682551
30
0.000000
0
VERTEX
5
5f4d
8
0
10
13.435362
20
2.743296
30
0.000000
0
VERTEX
5
5f5d
8
0
10
13.385478
20
2.804226
30
0.000000
0
VERTEX
5
5f6d
8
0
10
13.290986
20
2.926634
30
0.000000
0
VERTEX
5
5f7d
8
0
10
13.203369
20
3.049753
30
0.000000
0
VERTEX
5
5f8d
8
0
10
13.122433
20
3.173562
30
0.000000
0
VERTEX
5
5f9d
8
0
10
13.047985
20
3.298041
30
0.000000
0
VERTEX
5
5fad
8
0
10
12.979831
20
3.423169
30
0.000000
0
VERTEX
5
5fbd
8
0
10
12.917778
20
3.548925
30
0.000000
0
VERTEX
5
5fcd
8
0
10
12.861632
20
3.675289
30
0.000000
0
VERTEX
5
5fdd
8
0
10
12.811199
20
3.802240
30
0.000000
0
VERTEX
5
5fed
8
0
10
12.766286
20
3.929757
30
0.000000
0
VERTEX
5
5ffd
8
0
10
12.726700
20
4.057819
30
0.000000
0
VERTEX
5
600d
8
0
10
12.692247
20
4.186407
30
0.000000
0
VERTEX
5
601d
8
0
10
12.662734
20
4.315498
30
0.000000
0
VERTEX
5
602d
8
0
10
12.637966
20
4.445072
30
0.000000
0
VERTEX
5
603d
8
0
10
12.617751
20
4.575109
30
0.000000
0
VERTEX
5
604d
8
0
10
12.601895
20
4.705587
30
0.000000
0
VERTEX
5
605d
8
0
10
12.590205
20
4.836487
30
0.000000
0
VERTEX
5
606d
8
0
10
12.582486
20
4.967787
30
0.000000
0
VERTEX
5
607d
8
0
10
12.578546
20
5.099467
30
0.000000
0
VERTEX
5
608d
8
0
10
12.578191
20
5.231505
30
0.000000
0
VERTEX
5
609d
8
0
10
12.581227
20
5.363882
30
0.000000
0
VERTEX
5
60ad
8
0
10
12.587461
20
5.496576
30
0.000000
0
VERTEX
5
60bd
8
0
10
12.596699
20
5.629567
30
0.000000
0
VERTEX
5
60cd
8
0
10
12.608748
20
5.762833
30
0.000000
0
VERTEX
5
60dd
8
0
10
12.623415
20
5.896356
30
0.000000
0
VERTEX
5
60ed
8
0
10
12.640505
20
6.030112
30
0.000000
0
VERTEX
5
60fd
8
0
10
12.659825
20
6.164083
30
0.000000
0
VERTEX
5
610d
8
0
10
12.681183
20
6.298246
30
0.000000
0
VERTEX
5
611d
8
0
10
12.704383
20
6.432582
30
0.000000
0
VERTEX
5
612d
8
0
10
12.729233
20
6.567069
30
0.000000
0
VERTEX
5
613d
8
0
10
12.783109
20
6.836416
30
0.000000
0
VERTEX
5
614d
8
0
10
12.841261
20
7.106121
30
0.000000
0
VERTEX
5
615d
8
0
10
12.902142
20
7.376018
30
0.000000
0
VERTEX
5
616d
8
0
10
13.025896
20
7.915725
30
0.000000
0
VERTEX
5
617d
8
0
10
13.085674
20
8.185203
30
0.000000
0
VERTEX
5
618d
8
0
10
13.141987
20
8.454210
30
0.000000
0
VERTEX
5
619d
8
0
10
13.193289
20
8.722580
30
0.000000
0
VERTEX
5
61ad
8
0
10
13.216576
20
8.856474
30
0.000000
0
VERTEX
5
61bd
8
0
10
13.238030
20
8.990147
30
0.000000
0
VERTEX
5
61cd
8
0
10
13.257456
20
9.123578
30
0.000000
0
VERTEX
5
61dd
8
0
10
13.274662
20
9.256746
30
0.000000
0
VERTEX
5
61ed
8
0
10
13.289454
20
9.389630
30
0.000000
0
VERTEX
5
61fd
8
0
10
13.301638
20
9.522210
30
0.000000
0
VERTEX
5
620d
8
0
10
13.311021
20
9.654465
30
0.000000
0
VERTEX
5
621d
8
0
10
13.317410
20
9.786374
30
0.000000
0
VERTEX
5
622d
8
0
10
13.320610
20
9.917917
30
0.000000
0
VERTEX
5
623d
8
0
10
13.320428
20
10.049072
30
0.000000
0
VERTEX
5
624d
8
0
10
13.316671
20
10.179820
30
0.000000
0
VERTEX
5
625d
8
0
10
13.309145
20
10.310139
30
0.000000
0
VERTEX
5
626d
8
0
10
13.297657
20
10.440008
30
0.000000
0
VERTEX
5
627d
8
0
10
13.282014
20
10.569407
30
0.000000
0
VERTEX
5
628d
8
0
10
11.611502
20
13.085515
30
0.000000
0
VERTEX
5
629d
8
0
10
11.611502
20
13.085515
30
0.000000
0
VERTEX
5
62ad
8
0
10
11.449536
20
13.105826
30
0.000000
0
VERTEX
5
62bd
8
0
10
11.291901
20
13.129864
30
0.000000
0
VERTEX
5
62cd
8
0
10
11.138514
20
13.157560
30
0.000000
0
VERTEX
5
62dd
8
0
10
10.989294
20
13.188844
30
0.000000
0
VERTEX
5
62ed
8
0
10
10.844160
20
13.223645
30
0.000000
0
VERTEX
5
62fd
8
0
10
10.703028
20
13.261894
30
0.000000
0
VERTEX
5
630d
8
0
10
10.565818
20
13.303521
30
0.000000
0
VERTEX
5
631d
8
0
10
10.432447
20
13.348457
30
0.000000
0
VERTEX
5
632d
8
0
10
10.302834
20
13.396630
30
0.000000
0
VERTEX
5
633d
8
0
10
10.176896
20
13.447972
30
0.000000
0
VERTEX
5
634d
8
0
10
10.054551
20
13.502412
30
0.000000
0
VERTEX
5
635d
8
0
10
9.935719
20
13.559880
30
0.000000
0
VERTEX
5
636d
8
0
10
9.820316
20
13.620307
30
0.000000
0
VERTEX
5
637d
8
0
10
9.708261
20
13.683623
30
0.000000
0
VERTEX
5
638d
8
0
10
9.599472
20
13.749758
30
0.000000
0
VERTEX
5
639d
8
0
10
9.493867
20
13.818642
30
0.000000
0
VERTEX
5
63ad
8
0
10
9.391364
20
13.890205
30
0.000000
0
VERTEX
5
63bd
8
0
10
9.291881
20
13.964377
30
0.000000
0
VERTEX
5
63cd
8
0
10
9.195337
20
14.041088
30
0.000000
0
VERTEX
5
63dd
8
0
10
9.101649
20
14.120269
30
0.000000
0
VERTEX
5
63ed
8
0
10
9.010735
20
14.201849
30
0.000000
0
VERTEX
5
63fd
8
0
10
8.922514
20
14.285759
30
0.000000
0
VERTEX
5
640d
8
0
10
8.836904
20
14.371928
30
0.000000
0
VERTEX
5
641d
8
0
10
8.753823
20
14.460288
30
0.000000
0
VERTEX
5
642d
8
0
10
8.673188
20
14.550767
30
0.000000
0
VERTEX
5
643d
8
0
10
8.594918
20
14.643297
30
0.000000
0
VERTEX
5
644d
8
0
10
8.518931
20
14.737806
30
0.000000
0
VERTEX
5
645d
8
0
10
8.445146
20
14.834226
30
0.000000
0
VERTEX
5
646d
8
0
10
8.373479
20
14.932486
30
0.000000
0
VERTEX
5
647d
8
0
10
8.303850
20
15.032517
30
0.000000
0
VERTEX
5
648d
8
0
10
8.236176
20
15.134249
30
0.000000
0
VERTEX
5
649d
8
0
10
8.170376
20
15.237611
30
0.000000
0
VERTEX
5
64ad
8
0
10
8.106367
20
15.342534
30
0.000000
0
VERTEX
5
64bd
8
0
10
8.044068
20
15.448948
30
0.000000
0
VERTEX
5
64cd
8
0
10
7.983397
20
15.556783
30
0.000000
0
VERTEX
5
64dd
8
0
10
7.924271
20
15.665969
30
0.000000
0
VERTEX
5
64ed
8
0
10
7.866609
20
15.776437
30
0.000000
0
VERTEX
5
64fd
8
0
10
7.810329
20
15.888116
30
0.000000
0
VERTEX
5
650d
8
0
10
7.755350
20
16.000936
30
0.000000
0
VERTEX
5
651d
8
0
10
7.701588
20
16.114828
30
0.000000
0
VERTEX
5
652d
8
0
10
7.597392
20
16.345548
30
0.000000
0
VERTEX
5
653d
8
0
10
7.497086
20
16.579715
30
0.000000
0
VERTEX
5
654d
8
0
10
7.400014
20
16.816772
30
0.000000
0
VERTEX
5
655d
8
0
10
7.305521
20
17.056157
30
0.000000
0
VERTEX
5
656d
8
0
10
7.212952
20
17.297314
30
0.000000
0
VERTEX
5
657d
8
0
10
7.121652
20
17.539681
30
0.000000
0
VERTEX
5
658d
8
0
10
6.940236
20
18.025814
30
0.000000
0
VERTEX
5
659d
8
0
10
6.848810
20
18.268461
30
0.000000
0
VERTEX
5
65ad
8
0
10
6.756031
20
18.510084
30
0.000000
0
VERTEX
5
65bd
8
0
10
6.661244
20
18.750122
30
0.000000
0
VERTEX
5
65cd
8
0
10
6.563794
20
18.988016
30
0.000000
0
VERTEX
5
65dd
8
0
10
6.563794
20
18.988016
30
0.000000
0
VERTEX
5
65ed
8
0
10
6.351200
20
19.388756
30
0.000000
0
VERTEX
5
65fd
8
0
10
6.144386
20
19.788869
30
0.000000
0
VERTEX
5
660d
8
0
10
5.943456
20
20.188348
30
0.000000
0
VERTEX
5
661d
8
0
10
5.748513
20
20.587182
30
0.000000
0
VERTEX
5
662d
8
0
10
5.559659
20
20.985363
30
0.000000
0
VERTEX
5
663d
8
0
10
5.376997
20
21.382882
30
0.000000
0
VERTEX
5
664d
8
0
10
5.200630
20
21.779731
30
0.000000
0
VERTEX
5
665d
8
0
10
5.030661
20
22.175899
30
0.000000
0
VERTEX
5
666d
8
0
10
4.867193
20
22.571378
30
0.000000
0
VERTEX
5
667d
8
0
10
4.710329
20
22.966159
30
0.000000
0
VERTEX
5
668d
8
0
10
4.634405
20
23.163285
30
0.000000
0
VERTEX
5
669d
8
0
10
4.560171
20
23.360233
30
0.000000
0
VERTEX
5
66ad
8
0
10
4.487639
20
23.557002
30
0.000000
0
VERTEX
5
66bd
8
0
10
4.416823
20
23.753591
30
0.000000
0
VERTEX
5
66cd
8
0
10
4.347735
20
23.949999
30
0.000000
0
VERTEX
5
66dd
8
0
10
4.280387
20
24.146225
30
0.000000
0
VERTEX
5
66ed
8
0
10
4.214794
20
24.342267
30
0.000000
0
VERTEX
5
66fd
8
0
10
4.150967
20
24.538124
30
0.000000
0
VERTEX
5
670d
8
0
10
4.088920
20
24.733795
30
0.000000
0
VERTEX
5
671d
8
0
10
4.028665
20
24.929280
30
0.000000
0
VERTEX
5
672d
8
0
10
3.970216
20
25.124577
30
0.000000
0
VERTEX
5
673d
8
0
10
3.913584
20
25.319684
30
0.000000
0
VERTEX
5
674d
8
0
10
3.858784
20
25.514602
30
0.000000
0
VERTEX
5
675d
8
0
10
3.805827
20
25.709328
30
0.000000
0
VERTEX
5
676d
8
0
10
3.754727
20
25.903861
30
0.000000
0
VERTEX
5
677d
8
0
10
3.705497
20
26.098201
30
0.000000
0
VERTEX
5
678d
8
0
10
3.658149
20
26.292346
30
0.000000
0
VERTEX
5
679d
8
0
10
3.612697
20
26.486296
30
0.000000
0
VERTEX
5
67ad
8
0
10
3.569152
20
26.680048
30
0.000000
0
VERTEX
5
67bd
8
0
10
3.527529
20
26.873602
30
0.000000
0
VERTEX
5
67cd
8
0
10
3.487839
20
27.066957
30
0.000000
0
VERTEX
5
67dd
8
0
10
3.450097
20
27.260112
30
0.000000
0
VERTEX
5
67ed
8
0
10
3.414313
20
27.453065
30
0.000000
0
VERTEX
5
67fd
8
0
10
3.380503
20
27.645815
30
0.000000
0
VERTEX
5
680d
8
0
10
3.348677
20
27.838362
30
0.000000
0
VERTEX
5
681d
8
0
10
3.318850
20
28.030704
30
0.000000
0
VERTEX
5
682d
8
0
10
3.291034
20
28.222840
30
0.000000
0
VERTEX
5
683d
8
0
10
3.265242
20
28.414769
30
0.000000
0
VERTEX
5
684d
8
0
10
3.241487
20
28.606490
30
0.000000
0
VERTEX
5
685d
8
0
10
3.219781
20
28.798001
30
0.000000
0
VERTEX
5
686d
8
0
10
3.200137
20
28.989302
30
0.000000
0
VERTEX
5
687d
8
0
10
3.182570
20
29.180391
30
0.000000
0
VERTEX
5
688d
8
0
10
3.167090
20
29.371268
30
0.000000
0
VERTEX
5
689d
8
0
10
3.153711
20
29.561931
30
0.000000
0
VERTEX
5
68ad
8
0
10
3.142446
20
29.752378
30
0.000000
0
VERTEX
5
68bd
8
0
10
3.133308
20
29.942610
30
0.000000
0
VERTEX
5
68cd
8
0
10
3.126310
20
30.132624
30
0.000000
0
VERTEX
5
68dd
8
0
10
3.121464
20
30.322420
30
0.000000
0
VERTEX
5
68ed
8
0
10
3.118784
20
30.511997
30
0.000000
0
VERTEX
5
68fd
8
0
10
3.118282
20
30.701353
30
0.000000
0
VERTEX
5
690d
8
0
10
3.119971
20
30.890487
30
0.000000
0
VERTEX
5
691d
8
0
10
3.123864
20
31.079399
30
0.000000
0
VERTEX
5
692d
8
0
10
3.129974
20
31.268087
30
0.000000
0
VERTEX
5
693d
8
0
10
3.138313
20
31.456549
30
0.000000
0
VERTEX
5
694d
8
0
10
3.148895
20
31.644785
30
0.000000
0
VERTEX
5
695d
8
0
10
3.161732
20
31.832794
30
0.000000
0
VERTEX
5
696d
8
0
10
3.176838
20
32.020575
30
0.000000
0
VERTEX
5
697d
8
0
10
3.194225
20
32.208126
30
0.000000
0
VERTEX
5
698d
8
0
10
3.213906
20
32.395446
30
0.000000
0
VERTEX
5
699d
8
0
10
3.235893
20
32.582534
30
0.000000
0
VERTEX
5
69ad
8
0
10
3.260201
20
32.769389
30
0.000000
0
VERTEX
5
69bd
8
0
10
3.286840
20
32.956011
30
0.000000
0
VERTEX
5
69cd
8
0
10
3.315826
20
33.142397
30
0.000000
0
VERTEX
5
69dd
8
0
10
3.347169
20
33.328547
30
0.000000
0
VERTEX
5
69ed
8
0
10
3.380884
20
33.514459
30
0.000000
0
VERTEX
5
69fd
8
0
10
3.416983
20
33.700133
30
0.000000
0
VERTEX
5
6a0d
8
0
10
3.455479
20
33.885567
30
0.000000
0
VERTEX
5
6a1d
8
0
10
3.496384
20
34.070760
30
0.000000
0
VERTEX
5
6a2d
8
0
10
3.539712
20
34.255712
30
0.000000
0
VERTEX
5
6a3d
8
0
10
3.585476
20
34.440420
30
0.000000
0
VERTEX
5
6a4d
8
0
10
3.633687
20
34.624884
30
0.000000
0
VERTEX
5
6a5d
8
0
10
3.684360
20
34.809103
30
0.000000
0
VERTEX
5
6a6d
8
0
10
3.737507
20
34.993075
30
0.000000
0
VERTEX
5
6a7d
8
0
10
3.793141
20
35.176800
30
0.000000
0
VERTEX
5
6a8d
8
0
10
3.851275
20
35.360276
30
0.000000
0
VERTEX
5
6a9d
8
0
10
3.911921
20
35.543502
30
0.000000
0
VERTEX
5
6aad
8
0
10
3.975093
20
35.726477
30
0.000000
0
VERTEX
5
6abd
8
0
10
4.040803
20
35.909201
30
0.000000
0
VERTEX
5
6acd
8
0
10
4.109065
20
36.091671
30
0.000000
0
VERTEX
5
6add
8
0
10
4.179890
20
36.273886
30
0.000000
0
VERTEX
5
6aed
8
0
10
4.253292
20
36.455847
30
0.000000
0
VERTEX
5
6afd
8
0
10
4.329284
20
36.637550
30
0.000000
0
VERTEX
5
6b0d
8
0
10
4.407879
20
36.818997
30
0.000000
0
VERTEX
5
6b1d
8
0
10
4.489089
20
37.000184
30
0.000000
0
VERTEX
5
6b2d
8
0
10
4.572928
20
37.181111
30
0.000000
0
VERTEX
5
6b3d
8
0
10
4.659408
20
37.361777
30
0.000000
0
VERTEX
5
6b4d
8
0
10
4.748542
20
37.542182
30
0.000000
0
VERTEX
5
6b5d
8
0
10
4.840343
20
37.722322
30
0.000000
0
VERTEX
5
6b6d
8
0
10
4.934824
20
37.902199
30
0.000000
0
VERTEX
5
6b7d
8
0
10
5.031997
20
38.081810
30
0.000000
0
VERTEX
5
6b8d
8
0
10
5.131876
20
38.261154
30
0.000000
0
VERTEX
5
6b9d
8
0
10
5.234474
20
38.440230
30
0.000000
0
VERTEX
5
6bad
8
0
10
5.339802
20
38.619038
30
0.000000
0
VERTEX
5
6bbd
8
0
10
5.447875
20
38.797575
30
0.000000
0
VERTEX
5
6bcd
8
0
10
5.558705
20
38.975841
30
0.000000
0
VERTEX
5
6bdd
8
0
10
5.672304
20
39.153835
30
0.000000
0
VERTEX
5
6bed
8
0
10
5.788687
20
39.331556
30
0.000000
0
VERTEX
5
6bfd
8
0
10
5.907865
20
39.509002
30
0.000000
0
VERTEX
5
6c0d
8
0
10
6.029851
20
39.686172
30
0.000000
0
VERTEX
5
6c1d
8
0
10
6.154659
20
39.863066
30
0.000000
0
VERTEX
5
6c2d
8
0
10
6.282300
20
40.039681
30
0.000000
0
VERTEX
5
6c3d
8
0
10
6.412789
20
40.216018
30
0.000000
0
VERTEX
5
6c4d
8
0
10
6.546138
20
40.392074
30
0.000000
0
VERTEX
5
6c5d
8
0
10
6.682359
20
40.567850
30
0.000000
0
VERTEX
5
6c6d
8
0
10
6.821466
20
40.743342
30
0.000000
0
VERTEX
5
6c7d
8
0
10
6.963471
20
40.918552
30
0.000000
0
VERTEX
5
6c8d
8
0
10
7.108388
20
41.093476
30
0.000000
0
VERTEX
5
6c9d
8
0
10
7.256229
20
41.268115
30
0.000000
0
VERTEX
5
6cad
8
0
10
7.407007
20
41.442467
30
0.000000
0
VERTEX
5
6cbd
8
0
10
7.560735
20
41.616531
30
0.000000
0
VERTEX
5
6ccd
8
0
10
7.717425
20
41.790305
30
0.000000
0
VERTEX
5
6cdd
8
0
10
7.877091
20
41.963790
30
0.000000
0
VERTEX
5
6ced
8
0
10
8.039746
20
42.136983
30
0.000000
0
VERTEX
5
6cfd
8
0
10
8.205402
20
42.309883
30
0.000000
0
VERTEX
5
6d0d
8
0
10
8.374072
20
42.482490
30
0.000000
0
VERTEX
5
6d1d
8
0
10
8.545770
20
42.654802
30
0.000000
0
VERTEX
5
6d2d
8
0
10
8.720507
20
42.826818
30
0.000000
0
VERTEX
5
6d3d
8
0
10
8.898297
20
42.998537
30
0.000000
0
VERTEX
5
6d4d
8
0
10
7.705753
20
46.995775
30
0.000000
0
SEQEND
5
6d5d
8
0
0
POLYLINE
5
6d6d
8
0
66
1
10
0
20
0
30
0
0
VERTEX
5
6d7d
8
0
10
32.956640
20
46.818456
30
0.000000
0
VERTEX
5
6d8d
8
0
10
28.954685
20
46.770296
30
0.000000
0
VERTEX
5
6d9d
8
0
10
28.954501
20
46.995775
30
0.000000
0
VERTEX
5
6dad
8
0
10
32.743975
20
46.995775
30
0.000000
0
VERTEX
5
6dbd
8
0
10
32.956640
20
46.818456
30
0.000000
0
SEQEND
5
6dcd
8
0
0
POLYLINE
5
6ddd
8
0
66
1
10
0
20
0
30
0
0
VERTEX
5
6ded
8
0
10
36.227329
20
46.937824
30
0.000000
0
VERTEX
5
6dfd
8
0
10
36.227329
20
46.937824
30
0.000000
0
VERTEX
5
6e0d
8
0
10
36.212262
20
46.842298
30
0.000000
0
VERTEX
5
6e1d
8
0
10
36.194786
20
46.757633
30
0.000000
0
VERTEX
5
6e2d
8
0
10
36.175004
20
46.683327
30
0.000000
0
VERTEX
5
6e3d
8
0
10
36.153021
20
46.618881
30
0.000000
0
VERTEX
5
6e4d
8
0
10
36.128939
20
46.563793
30
0.000000
0
VERTEX
5
6e5d
8
0
10
36.102862
20
46.517563
30
0.000000
0
VERTEX
5
6e6d
8
0
10
36.089108
20
46.497613
30
0.000000
0
VERTEX
5
6e7d
8
0
10
36.074895
20
46.479690
30
0.000000
0
VERTEX
5
6e8d
8
0
10
36.060234
20
46.463731
30
0.000000
0
VERTEX
5
6e9d
8
0
10
36.045139
20
46.449674
30
0.000000
0
VERTEX
5
6ead
8
0
10
36.029624
20
46.437455
30
0.000000
0
VERTEX
5
6ebd
8
0
10
36.013700
20
46.427013
30
0.000000
0
VERTEX
5
6ecd
8
0
10
35.997381
20
46.418285
30
0.000000
0
VERTEX
5
6edd
8
0
10
35.980680
20
46.411208
30
0.000000
0
VERTEX
5
6eed
8
0
10
35.963610
20
46.405720
30
0.000000
0
VERTEX
5
6efd
8
0
10
35.946183
20
46.401758
30
0.000000
0
VERTEX
5
6f0d
8
0
10
35.910313
20
46.398161
30
0.000000
0
VERTEX
5
6f1d
8
0
10
35.873173
20
46.399918
30
0.000000
0
VERTEX
5
6f2d
8
0
10
35.834866
20
46.406528
30
0.000000
0
VERTEX
5
6f3d
8
0
10
35.795497
20
46.417490
30
0.000000
0
VERTEX
5
6f4d
8
0
10
35.755168
20
46.432303
30
0.000000
0
VERTEX
5
6f5d
8
0
10
35.713984
20
46.450467
30
0.000000
0
VERTEX
5
6f6d
8
0
10
35.672047
20
46.471481
30
0.000000
0
VERTEX
5
6f7d
8
0
10
35.586332
20
46.520058
30
0.000000
0
VERTEX
5
6f8d
8
0
10
35.498851
20
46.574028
30
0.000000
0
VERTEX
5
6f9d
8
0
10
35.410433
20
46.629386
30
0.000000
0
VERTEX
5
6fad
8
0
10
35.321905
20
46.682127
30
0.000000
0
VERTEX
5
6fbd
8
0
10
35.277859
20
46.706265
30
0.000000
0
VERTEX
5
6fcd
8
0
10
35.234096
20
46.728246
30
0.000000
0
VERTEX
5
6fdd
8
0
10
35.190721
20
46.747571
30
0.000000
0
VERTEX
5
6fed
8
0
10
35.147836
20
46.763738
30
0.000000
0
VERTEX
5
6ffd
8
0
10
35.105544
20
46.776248
30
0.000000
0
VERTEX
5
700d
8
0
10
35.063951
20
46.784598
30
0.000000
0
VERTEX
5
701d
8
0
10
35.063951
20
46.784598
30
0.000000
0
VERTEX
5
702d
8
0
10
35.015400
20
46.739129
30
0.000000
0
VERTEX
5
703d
8
0
10
34.967525
20
46.697568
30
0.000000
0
VERTEX
5
704d
8
0
10
34.920316
20
46.659853
30
0.000000
0
VERTEX
5
705d
8
0
10
34.873762
20
46.625920
30
0.000000
0
VERTEX
5
706d
8
0
10
34.827850
20
46.595708
30
0.000000
0
VERTEX
5
707d
8
0
10
34.782570
20
46.569155
30
0.000000
0
VERTEX
5
708d
8
0
10
34.737911
20
46.546199
30
0.000000
0
VERTEX
5
709d
8
0
10
34.693862
20
46.526776
30
0.000000
0
VERTEX
5
70ad
8
0
10
34.650411
20
46.510825
30
0.000000
0
VERTEX
5
70bd
8
0
10
34.607547
20
46.498283
30
0.000000
0
VERTEX
5
70cd
8
0
10
34.565259
20
46.489088
30
0.000000
0
VERTEX
5
70dd
8
0
10
34.523536
20
46.483179
30
0.000000
0
VERTEX
5
70ed
8
0
10
34.482366
20
46.480492
30
0.000000
0
VERTEX
5
70fd
8
0
10
34.441739
20
46.480965
30
0.000000
0
VERTEX
5
710d
8
0
10
34.401643
20
46.484536
30
0.000000
0
VERTEX
5
711d
8
0
10
34.362067
20
46.491142
30
0.000000
0
VERTEX
5
712d
8
0
10
34.323000
20
46.500723
30
0.000000
0
VERTEX
5
713d
8
0
10
34.284431
20
46.513214
30
0.000000
0
VERTEX
5
714d
8
0
10
34.246348
20
46.528554
30
0.000000
0
VERTEX
5
715d
8
0
10
34.208741
20
46.546680
30
0.000000
0
VERTEX
5
716d
8
0
10
34.171597
20
46.567531
30
0.000000
0
VERTEX
5
717d
8
0
10
34.134906
20
46.591044
30
0.000000
0
VERTEX
5
718d
8
0
10
34.098658
20
46.617156
30
0.000000
0
VERTEX
5
719d
8
0
10
34.062839
20
46.645806
30
0.000000
0
VERTEX
5
71ad
8
0
10
34.027440
20
46.676931
30
0.000000
0
VERTEX
5
71bd
8
0
10
33.992449
20
46.710469
30
0.000000
0
VERTEX
5
71cd
8
0
10
33.957856
20
46.746357
30
0.000000
0
VERTEX
5
71dd
8
0
10
33.923647
20
46.784533
30
0.000000
0
VERTEX
5
71ed
8
0
10
33.889814
20
46.824935
30
0.000000
0
VERTEX
5
71fd
8
0
10
33.856344
20
46.867501
30
0.000000
0
VERTEX
5
720d
8
0
10
33.790449
20
46.958875
30
0.000000
0
VERTEX
5
721d
8
0
10
36.227329
20
46.937824
30
0.000000
0
SEQEND
5
722d
8
0
0
POLYLINE
5
723d
8
0
66
1
10
0
20
0
30
0
0
VERTEX
5
724d
8
0
10
42.438884
20
46.996261
30
0.000000
0
VERTEX
5
725d
8
0
10
43.485700
20
46.995775
30
0.000000
0
VERTEX
5
726d
8
0
10
43.655130
20
42.838109
30
0.000000
0
VERTEX
5
727d
8
0
10
42.966885
20
42.150668
30
0.000000
0
VERTEX
5
728d
8
0
10
42.693364
20
42.328142
30
0.000000
0
VERTEX
5
729d
8
0
10
42.693364
20
42.328142
30
0.000000
0
VERTEX
5
72ad
8
0
10
42.732688
20
42.627396
30
0.000000
0
VERTEX
5
72bd
8
0
10
42.767307
20
42.925471
30
0.000000
0
VERTEX
5
72cd
8
0
10
42.796652
20
43.222405
30
0.000000
0
VERTEX
5
72dd
8
0
10
42.809168
20
43.370456
30
0.000000
0
VERTEX
5
72ed
8
0
10
42.820152
20
43.518237
30
0.000000
0
VERTEX
5
72fd
8
0
10
42.829532
20
43.665751
30
0.000000
0
VERTEX
5
730d
8
0
10
42.837238
20
43.813005
30
0.000000
0
VERTEX
5
731d
8
0
10
42.843197
20
43.960002
30
0.000000
0
VERTEX
5
732d
8
0
10
42.847340
20
44.106747
30
0.000000
0
VERTEX
5
733d
8
0
10
42.849594
20
44.253246
30
0.000000
0
VERTEX
5
734d
8
0
10
42.849888
20
44.399504
30
0.000000
0
VERTEX
5
735d
8
0
10
42.848151
20
44.545524
30
0.000000
0
VERTEX
5
736d
8
0
10
42.844312
20
44.691312
30
0.000000
0
VERTEX
5
737d
8
0
10
42.838300
20
44.836872
30
0.000000
0
VERTEX
5
738d
8
0
10
42.830043
20
44.982210
30
0.000000
0
VERTEX
5
739d
8
0
10
42.819471
20
45.127330
30
0.000000
0
VERTEX
5
73ad
8
0
10
42.806511
20
45.272237
30
0.000000
0
VERTEX
5
73bd
8
0
10
42.791093
20
45.416936
30
0.000000
0
VERTEX
5
73cd
8
0
10
42.773146
20
45.561431
30
0.000000
0
VERTEX
5
73dd
8
0
10
42.752598
20
45.705728
30
0.000000
0
VERTEX
5
73ed
8
0
10
42.729378
20
45.849832
30
0.000000
0
VERTEX
5
73fd
8
0
10
42.703415
20
45.993746
30
0.000000
0
VERTEX
5
740d
8
0
10
42.674638
20
46.137476
30
0.000000
0
VERTEX
5
741d
8
0
10
42.642975
20
46.281027
30
0.000000
0
VERTEX
5
742d
8
0
10
42.608355
20
46.424404
30
0.000000
0
VERTEX
5
743d
8
0
10
42.570708
20
46.567610
30
0.000000
0
VERTEX
5
744d
8
0
10
42.529961
20
46.710652
30
0.000000
0
VERTEX
5
745d
8
0
10
42.486043
20
46.853534
30
0.000000
0
VERTEX
5
746d
8
0
10
42.438884
20
46.996261
30
0.000000
0
SEQEND
5
747d
8
0
0
POLYLINE
5
748d
8
0
66
1
10
0
20
0
30
0
0
VERTEX
5
749d
8
0
10
23.510029
20
33.301043
30
0.000000
0
VERTEX
5
74ad
8
0
10
25.397536
20
34.554343
30
0.000000
0
VERTEX
5
74bd
8
0
10
25.397536
20
34.554343
30
0.000000
0
VERTEX
5
74cd
8
0
10
25.291355
20
34.433052
30
0.000000
0
VERTEX
5
74dd
8
0
10
25.183452
20
34.314624
30
0.000000
0
VERTEX
5
74ed
8
0
10
25.073823
20
34.199058
30
0.000000
0
VERTEX
5
74fd
8
0
10
24.962459
20
34.086356
30
0.000000
0
VERTEX
5
750d
8
0
10
24.849354
20
33.976517
30
0.000000
0
VERTEX
5
751d
8
0
10
24.734501
20
33.869542
30
0.000000
0
VERTEX
5
752d
8
0
10
24.617893
20
33.765431
30
0.000000
0
VERTEX
5
753d
8
0
10
24.499523
20
33.664184
30
0.000000
0
VERTEX
5
754d
8
0
10
24.379384
20
33.565802
30
0.000000
0
VERTEX
5
755d
8
0
10
24.257469
20
33.470284
30
0.000000
0
VERTEX
5
756d
8
0
10
24.133772
20
33.377631
30
0.000000
0
VERTEX
5
757d
8
0
10
24.008285
20
33.287843
30
0.000000
0
VERTEX
5
758d
8
0
10
23.881001
20
33.200920
30
0.000000
0
VERTEX
5
759d
8
0
10
23.751914
20
33.116864
30
0.000000
0
VERTEX
5
75ad
8
0
10
23.621016
20
33.035673
30
0.000000
0
VERTEX
5
75bd
8
0
10
23.488301
20
32.957348
30
0.000000
0
VERTEX
5
75cd
8
0
10
23.353762
20
32.881889
30
0.000000
0
VERTEX
5
75dd
8
0
10
23.217392
20
32.809297
30
0.000000
0
VERTEX
5
75ed
8
0
10
23.079183
20
32.739572
30
0.000000
0
VERTEX
5
75fd
8
0
10
22.939130
20
32.672714
30
0.000000
0
VERTEX
5
760d
8
0
10
22.797224
20
32.608723
30
0.000000
0
VERTEX
5
761d
8
0
10
22.653460
20
32.547600
30
0.000000
0
VERTEX
5
762d
8
0
10
22.507830
20
32.489345
30
0.000000
0
VERTEX
5
763d
8
0
10
22.360327
20
32.433957
30
0.000000
0
VERTEX
5
764d
8
0
10
22.210944
20
32.381438
30
0.000000
0
VERTEX
5
765d
8
0
10
22.059675
20
32.331788
30
0.000000
0
VERTEX
5
766d
8
0
10
21.906513
20
32.285006
30
0.000000
0
VERTEX
5
767d
8
0
10
21.751450
20
32.241093
30
0.000000
0
VERTEX
5
768d
8
0
10
21.594480
20
32.200049
30
0.000000
0
VERTEX
5
769d
8
0
10
21.435595
20
32.161875
30
0.000000
0
VERTEX
5
76ad
8
0
10
21.274789
20
32.126570
30
0.000000
0
VERTEX
5
76bd
8
0
10
21.112056
20
32.094136
30
0.000000
0
VERTEX
5
76cd
8
0
10
21.112056
20
32.094136
30
0.000000
0
VERTEX
5
76dd
8
0
10
21.136649
20
32.117310
30
0.000000
0
VERTEX
5
76ed
8
0
10
21.162475
20
32.139542
30
0.000000
0
VERTEX
5
76fd
8
0
10
21.217573
20
32.181373
30
0.000000
0
VERTEX
5
770d
8
0
10
21.276839
20
32.220009
30
0.000000
0
VERTEX
5
771d
8
0
10
21.339760
20
32.255828
30
0.000000
0
VERTEX
5
772d
8
0
10
21.405828
20
32.289209
30
0.000000
0
VERTEX
5
773d
8
0
10
21.474529
20
32.320533
30
0.000000
0
VERTEX
5
774d
8
0
10
21.545354
20
32.350178
30
0.000000
0
VERTEX
5
775d
8
0
10
21.617792
20
32.378523
30
0.000000
0
VERTEX
5
776d
8
0
10
21.765461
20
32.432832
30
0.000000
0
VERTEX
5
777d
8
0
10
21.913449
20
32.486493
30
0.000000
0
VERTEX
5
778d
8
0
10
21.986285
20
32.514029
30
0.000000
0
VERTEX
5
779d
8
0
10
22.057667
20
32.542541
30
0.000000
0
VERTEX
5
77ad
8
0
10
22.127086
20
32.572408
30
0.000000
0
VERTEX
5
77bd
8
0
10
22.194029
20
32.604009
30
0.000000
0
VERTEX
5
77cd
8
0
10
22.257987
20
32.637724
30
0.000000
0
VERTEX
5
77dd
8
0
10
22.318447
20
32.673932
30
0.000000
0
VERTEX
5
77ed
8
0
10
22.374899
20
32.713012
30
0.000000
0
VERTEX
5
77fd
8
0
10
22.426833
20
32.755343
30
0.000000
0
VERTEX
5
780d
8
0
10
22.450945
20
32.777846
30
0.000000
0
VERTEX
5
781d
8
0
10
22.473736
20
32.801305
30
0.000000
0
VERTEX
5
782d
8
0
10
22.495142
20
32.825766
30
0.000000
0
VERTEX
5
783d
8
0
10
22.515099
20
32.851276
30
0.000000
0
VERTEX
5
784d
8
0
10
22.533542
20
32.877884
30
0.000000
0
VERTEX
5
785d
8
0
10
22.550409
20
32.905637
30
0.000000
0
VERTEX
5
786d
8
0
10
22.565636
20
32.934582
30
0.000000
0
VERTEX
5
787d
8
0
10
22.579157
20
32.964766
30
0.000000
0
VERTEX
5
788d
8
0
10
22.590911
20
32.996237
30
0.000000
0
VERTEX
5
789d
8
0
10
22.600832
20
33.029043
30
0.000000
0
VERTEX
5
78ad
8
0
10
22.608856
20
33.063230
30
0.000000
0
VERTEX
5
78bd
8
0
10
22.614921
20
33.098846
30
0.000000
0
VERTEX
5
78cd
8
0
10
22.618962
20
33.135939
30
0.000000
0
VERTEX
5
78dd
8
0
10
22.620915
20
33.174556
30
0.000000
0
VERTEX
5
78ed
8
0
10
22.620716
20
33.214744
30
0.000000
0
VERTEX
5
78fd
8
0
10
22.618302
20
33.256550
30
0.000000
0
VERTEX
5
790d
8
0
10
22.613608
20
33.300023
30
0.000000
0
VERTEX
5
791d
8
0
10
22.606572
20
33.345210
30
0.000000
0
VERTEX
5
792d
8
0
10
22.597128
20
33.392157
30
0.000000
0
VERTEX
5
793d
8
0
10
22.585213
20
33.440913
30
0.000000
0
VERTEX
5
794d
8
0
10
22.570763
20
33.491524
30
0.000000
0
VERTEX
5
795d
8
0
10
22.553714
20
33.544039
30
0.000000
0
VERTEX
5
796d
8
0
10
22.534003
20
33.598504
30
0.000000
0
VERTEX
5
797d
8
0
10
22.511565
20
33.654967
30
0.000000
0
VERTEX
5
798d
8
0
10
22.511565
20
33.654967
30
0.000000
0
VERTEX
5
799d
8
0
10
22.122552
20
33.802610
30
0.000000
0
VERTEX
5
79ad
8
0
10
21.735658
20
33.952722
30
0.000000
0
VERTEX
5
79bd
8
0
10
21.350444
20
34.101209
30
0.000000
0
VERTEX
5
79cd
8
0
10
21.158330
20
34.173564
30
0.000000
0
VERTEX
5
79dd
8
0
10
20.966470
20
34.243979
30
0.000000
0
VERTEX
5
79ed
8
0
10
20.774812
20
34.311941
30
0.000000
0
VERTEX
5
79fd
8
0
10
20.583298
20
34.376940
30
0.000000
0
VERTEX
5
7a0d
8
0
10
20.391876
20
34.438463
30
0.000000
0
VERTEX
5
7a1d
8
0
10
20.200489
20
34.495999
30
0.000000
0
VERTEX
5
7a2d
8
0
10
20.009082
20
34.549037
30
0.000000
0
VERTEX
5
7a3d
8
0
10
19.817602
20
34.597064
30
0.000000
0
VERTEX
5
7a4d
8
0
10
19.625993
20
34.639570
30
0.000000
0
VERTEX
5
7a5d
8
0
10
19.530123
20
34.658593
30
0.000000
0
VERTEX
5
7a6d
8
0
10
19.434200
20
34.676043
30
0.000000
0
VERTEX
5
7a7d
8
0
10
19.338217
20
34.691857
30
0.000000
0
VERTEX
5
7a8d
8
0
10
19.242168
20
34.705971
30
0.000000
0
VERTEX
5
7a9d
8
0
10
19.146045
20
34.718321
30
0.000000
0
VERTEX
5
7aad
8
0
10
19.049843
20
34.728843
30
0.000000
0
VERTEX
5
7abd
8
0
10
18.953553
20
34.737472
30
0.000000
0
VERTEX
5
7acd
8
0
10
18.857169
20
34.744146
30
0.000000
0
VERTEX
5
7add
8
0
10
18.760684
20
34.748801
30
0.000000
0
VERTEX
5
7aed
8
0
10
18.664091
20
34.751371
30
0.000000
0
VERTEX
5
7afd
8
0
10
18.567384
20
34.751793
30
0.000000
0
VERTEX
5
7b0d
8
0
10
18.470556
20
34.750004
30
0.000000
0
VERTEX
5
7b1d
8
0
10
18.373599
20
34.745939
30
0.000000
0
VERTEX
5
7b2d
8
0
10
18.276507
20
34.739535
30
0.000000
0
VERTEX
5
7b3d
8
0
10
18.179273
20
34.730727
30
0.000000
0
VERTEX
5
7b4d
8
0
10
18.081890
20
34.719452
30
0.000000
0
VERTEX
5
7b5d
8
0
10
17.984352
20
34.705645
30
0.000000
0
VERTEX
5
7b6d
8
0
10
17.886651
20
34.689243
30
0.000000
0
VERTEX
5
7b7d
8
0
10
17.788780
20
34.670182
30
0.000000
0
VERTEX
5
7b8d
8
0
10
17.690733
20
34.648397
30
0.000000
0
VERTEX
5
7b9d
8
0
10
17.592503
20
34.623825
30
0.000000
0
VERTEX
5
7bad
8
0
10
17.494083
20
34.596402
30
0.000000
0
VERTEX
5
7bbd
8
0
10
17.395466
20
34.566064
30
0.000000
0
VERTEX
5
7bcd
8
0
10
17.296645
20
34.532747
30
0.000000
0
VERTEX
5
7bdd
8
0
10
17.197613
20
34.496387
30
0.000000
0
VERTEX
5
7bed
8
0
10
17.098365
20
34.456920
30
0.000000
0
VERTEX
5
7bfd
8
0
10
16.998891
20
34.414282
30
0.000000
0
VERTEX
5
7c0d
8
0
10
16.899187
20
34.368410
30
0.000000
0
VERTEX
5
7c1d
8
0
10
16.799244
20
34.319239
30
0.000000
0
VERTEX
5
7c2d
8
0
10
16.699057
20
34.266705
30
0.000000
0
VERTEX
5
7c3d
8
0
10
16.598617
20
34.210744
30
0.000000
0
VERTEX
5
7c4d
8
0
10
16.497919
20
34.151293
30
0.000000
0
VERTEX
5
7c5d
8
0
10
16.396956
20
34.088287
30
0.000000
0
VERTEX
5
7c6d
8
0
10
16.295720
20
34.021663
30
0.000000
0
VERTEX
5
7c7d
8
0
10
15.909809
20
32.549596
30
0.000000
0
VERTEX
5
7c8d
8
0
10
16.553394
20
32.913881
30
0.000000
0
VERTEX
5
7c9d
8
0
10
16.553394
20
32.913881
30
0.000000
0
VERTEX
5
7cad
8
0
10
16.694400
20
32.735831
30
0.000000
0
VERTEX
5
7cbd
8
0
10
16.833471
20
32.557823
30
0.000000
0
VERTEX
5
7ccd
8
0
10
16.969907
20
32.379858
30
0.000000
0
VERTEX
5
7cdd
8
0
10
17.103009
20
32.201937
30
0.000000
0
VERTEX
5
7ced
8
0
10
17.232078
20
32.024061
30
0.000000
0
VERTEX
5
7cfd
8
0
10
17.356413
20
31.846232
30
0.000000
0
VERTEX
5
7d0d
8
0
10
17.475316
20
31.668450
30
0.000000
0
VERTEX
5
7d1d
8
0
10
17.588088
20
31.490718
30
0.000000
0
VERTEX
5
7d2d
8
0
10
17.641956
20
31.401870
30
0.000000
0
VERTEX
5
7d3d
8
0
10
17.694030
20
31.313036
30
0.000000
0
VERTEX
5
7d4d
8
0
10
17.744220
20
31.224214
30
0.000000
0
VERTEX
5
7d5d
8
0
10
17.792441
20
31.135405
30
0.000000
0
VERTEX
5
7d6d
8
0
10
17.838604
20
31.046609
30
0.000000
0
VERTEX
5
7d7d
8
0
10
17.882623
20
30.957827
30
0.000000
0
VERTEX
5
7d8d
8
0
10
17.924409
20
30.869058
30
0.000000
0
VERTEX
5
7d9d
8
0
10
17.963876
20
30.780303
30
0.000000
0
VERTEX
5
7dad
8
0
10
18.000936
20
30.691561
30
0.000000
0
VERTEX
5
7dbd
8
0
10
18.035502
20
30.602834
30
0.000000
0
VERTEX
5
7dcd
8
0
10
18.067486
20
30.514121
30
0.000000
0
VERTEX
5
7ddd
8
0
10
18.096800
20
30.425422
30
0.000000
0
VERTEX
5
7ded
8
0
10
18.123359
20
30.336737
30
0.000000
0
VERTEX
5
7dfd
8
0
10
18.147073
20
30.248067
30
0.000000
0
VERTEX
5
7e0d
8
0
10
18.167855
20
30.159411
30
0.000000
0
VERTEX
5
7e1d
8
0
10
18.185619
20
30.070771
30
0.000000
0
VERTEX
5
7e2d
8
0
10
18.200277
20
29.982145
30
0.000000
0
VERTEX
5
7e3d
8
0
10
18.211740
20
29.893535
30
0.000000
0
VERTEX
5
7e4d
8
0
10
18.219923
20
29.804940
30
0.000000
0
VERTEX
5
7e5d
8
0
10
18.224738
20
29.716361
30
0.000000
0
VERTEX
5
7e6d
8
0
10
18.226096
20
29.627797
30
0.000000
0
VERTEX
5
7e7d
8
0
10
18.223911
20
29.539249
30
0.000000
0
VERTEX
5
7e8d
8
0
10
18.218096
20
29.450717
30
0.000000
0
VERTEX
5
7e9d
8
0
10
18.208562
20
29.362201
30
0.000000
0
VERTEX
5
7ead
8
0
10
18.195223
20
29.273702
30
0.000000
0
VERTEX
5
7ebd
8
0
10
18.177991
20
29.185218
30
0.000000
0
VERTEX
5
7ecd
8
0
10
18.156778
20
29.096752
30
0.000000
0
VERTEX
5
7edd
8
0
10
18.131498
20
29.008302
30
0.000000
0
VERTEX
5
7eed
8
0
10
18.102063
20
28.919869
30
0.000000
0
VERTEX
5
7efd
8
0
10
18.068385
20
28.831453
30
0.000000
0
VERTEX
5
7f0d
8
0
10
18.030377
20
28.743054
30
0.000000
0
VERTEX
5
7f1d
8
0
10
17.987951
20
28.654673
30
0.000000
0
VERTEX
5
7f2d
8
0
10
17.941021
20
28.566309
30
0.000000
0
VERTEX
5
7f3d
8
0
10
17.889499
20
28.477963
30
0.000000
0
VERTEX
5
7f4d
8
0
10
17.833297
20
28.389634
30
0.000000
0
VERTEX
5
7f5d
8
0
10
17.772327
20
28.301324
30
0.000000
0
VERTEX
5
7f6d
8
0
10
17.706504
20
28.213031
30
0.000000
0
VERTEX
5
7f7d
8
0
10
17.635738
20
28.124757
30
0.000000
0
VERTEX
5
7f8d
8
0
10
17.559944
20
28.036502
30
0.000000
0
VERTEX
5
7f9d
8
0
10
17.479032
20
27.948265
30
0.000000
0
VERTEX
5
7fad
8
0
10
17.392917
20
27.860046
30
0.000000
0
VERTEX
5
7fbd
8
0
10
17.301510
20
27.771847
30
0.000000
0
VERTEX
5
7fcd
8
0
10
17.204724
20
27.683667
30
0.000000
0
VERTEX
5
7fdd
8
0
10
17.102472
20
27.595505
30
0.000000
0
VERTEX
5
7fed
8
0
10
16.994666
20
27.507364
30
0.000000
0
VERTEX
5
7ffd
8
0
10
16.881218
20
27.419241
30
0.000000
0
VERTEX
5
800d
8
0
10
16.762043
20
27.331139
30
0.000000
0
VERTEX
5
801d
8
0
10
16.637051
20
27.243056
30
0.000000
0
VERTEX
5
802d
8
0
10
16.637051
20
27.243056
30
0.000000
0
VERTEX
5
803d
8
0
10
16.353229
20
27.143554
30
0.000000
0
VERTEX
5
804d
8
0
10
16.210407
20
27.095542
30
0.000000
0
VERTEX
5
805d
8
0
10
16.066990
20
27.048975
30
0.000000
0
VERTEX
5
806d
8
0
10
15.922992
20
27.004067
30
0.000000
0
VERTEX
5
807d
8
0
10
15.778423
20
26.961033
30
0.000000
0
VERTEX
5
808d
8
0
10
15.633293
20
26.920087
30
0.000000
0
VERTEX
5
809d
8
0
10
15.487614
20
26.881444
30
0.000000
0
VERTEX
5
80ad
8
0
10
15.341398
20
26.845316
30
0.000000
0
VERTEX
5
80bd
8
0
10
15.194655
20
26.811920
30
0.000000
0
VERTEX
5
80cd
8
0
10
15.047396
20
26.781468
30
0.000000
0
VERTEX
5
80dd
8
0
10
14.899632
20
26.754176
30
0.000000
0
VERTEX
5
80ed
8
0
10
14.751375
20
26.730257
30
0.000000
0
VERTEX
5
80fd
8
0
10
14.602635
20
26.709927
30
0.000000
0
VERTEX
5
810d
8
0
10
14.453424
20
26.693398
30
0.000000
0
VERTEX
5
811d
8
0
10
14.303752
20
26.680885
30
0.000000
0
VERTEX
5
812d
8
0
10
14.153631
20
26.672604
30
0.000000
0
VERTEX
5
813d
8
0
10
14.003072
20
26.668767
30
0.000000
0
VERTEX
5
814d
8
0
10
13.852085
20
26.669589
30
0.000000
0
VERTEX
5
815d
8
0
10
13.700683
20
26.675285
30
0.000000
0
VERTEX
5
816d
8
0
10
13.548875
20
26.686068
30
0.000000
0
VERTEX
5
817d
8
0
10
13.396674
20
26.702153
30
0.000000
0
VERTEX
5
818d
8
0
10
13.244090
20
26.723755
30
0.000000
0
VERTEX
5
819d
8
0
10
13.091134
20
26.751087
30
0.000000
0
VERTEX
5
81ad
8
0
10
12.937817
20
26.784364
30
0.000000
0
VERTEX
5
81bd
8
0
10
12.861027
20
26.803299
30
0.000000
0
VERTEX
5
81cd
8
0
10
12.784150
20
26.823800
30
0.000000
0
VERTEX
5
81dd
8
0
10
12.707190
20
26.845894
30
0.000000
0
VERTEX
5
81ed
8
0
10
12.630145
20
26.869609
30
0.000000
0
VERTEX
5
81fd
8
0
10
12.553019
20
26.894971
30
0.000000
0
VERTEX
5
820d
8
0
10
12.475813
20
26.922006
30
0.000000
0
VERTEX
5
821d
8
0
10
12.398527
20
26.950742
30
0.000000
0
VERTEX
5
822d
8
0
10
12.321164
20
26.981205
30
0.000000
0
VERTEX
5
823d
8
0
10
12.243725
20
27.013422
30
0.000000
0
VERTEX
5
824d
8
0
10
12.166210
20
27.047420
30
0.000000
0
VERTEX
5
825d
8
0
10
12.088622
20
27.083225
30
0.000000
0
VERTEX
5
826d
8
0
10
12.010962
20
27.120865
30
0.000000
0
VERTEX
5
827d
8
0
10
11.933231
20
27.160366
30
0.000000
0
VERTEX
5
828d
8
0
10
11.855430
20
27.201755
30
0.000000
0
VERTEX
5
829d
8
0
10
10.676720
20
29.057063
30
0.000000
0
VERTEX
5
82ad
8
0
10
10.814561
20
30.133291
30
0.000000
0
VERTEX
5
82bd
8
0
10
10.814561
20
30.133291
30
0.000000
0
VERTEX
5
82cd
8
0
10
10.891088
20
30.082399
30
0.000000
0
VERTEX
5
82dd
8
0
10
10.966820
20
30.030762
30
0.000000
0
VERTEX
5
82ed
8
0
10
11.041321
20
29.980382
30
0.000000
0
VERTEX
5
82fd
8
0
10
11.114153
20
29.933266
30
0.000000
0
VERTEX
5
830d
8
0
10
11.184882
20
29.891417
30
0.000000
0
VERTEX
5
831d
8
0
10
11.219320
20
29.873094
30
0.000000
0
VERTEX
5
832d
8
0
10
11.253070
20
29.856840
30
0.000000
0
VERTEX
5
833d
8
0
10
11.286075
20
29.842904
30
0.000000
0
VERTEX
5
834d
8
0
10
11.318281
20
29.831539
30
0.000000
0
VERTEX
5
835d
8
0
10
11.349634
20
29.822994
30
0.000000
0
VERTEX
5
836d
8
0
10
11.380079
20
29.817519
30
0.000000
0
VERTEX
5
837d
8
0
10
11.409562
20
29.815366
30
0.000000
0
VERTEX
5
838d
8
0
10
11.438029
20
29.816784
30
0.000000
0
VERTEX
5
839d
8
0
10
11.465424
20
29.822025
30
0.000000
0
VERTEX
5
83ad
8
0
10
11.491693
20
29.831340
30
0.000000
0
VERTEX
5
83bd
8
0
10
11.516781
20
29.844977
30
0.000000
0
VERTEX
5
83cd
8
0
10
11.540635
20
29.863189
30
0.000000
0
VERTEX
5
83dd
8
0
10
11.563200
20
29.886225
30
0.000000
0
VERTEX
5
83ed
8
0
10
11.584420
20
29.914337
30
0.000000
0
VERTEX
5
83fd
8
0
10
11.604242
20
29.947775
30
0.000000
0
VERTEX
5
840d
8
0
10
11.622611
20
29.986789
30
0.000000
0
VERTEX
5
841d
8
0
10
11.639472
20
30.031629
30
0.000000
0
VERTEX
5
842d
8
0
10
11.654771
20
30.082548
30
0.000000
0
VERTEX
5
843d
8
0
10
11.668454
20
30.139794
30
0.000000
0
VERTEX
5
844d
8
0
10
11.680466
20
30.203619
30
0.000000
0
VERTEX
5
845d
8
0
10
11.690751
20
30.274273
30
0.000000
0
VERTEX
5
846d
8
0
10
11.699257
20
30.352007
30
0.000000
0
VERTEX
5
847d
8
0
10
11.039770
20
30.473788
30
0.000000
0
VERTEX
5
848d
8
0
10
11.039770
20
30.473788
30
0.000000
0
VERTEX
5
849d
8
0
10
11.028017
20
30.490371
30
0.000000
0
VERTEX
5
84ad
8
0
10
11.017624
20
30.507822
30
0.000000
0
VERTEX
5
84bd
8
0
10
11.000659
20
30.545153
30
0.000000
0
VERTEX
5
84cd
8
0
10
10.988371
20
30.585433
30
0.000000
0
VERTEX
5
84dd
8
0
10
10.980254
20
30.628315
30
0.000000
0
VERTEX
5
84ed
8
0
10
10.975803
20
30.673452
30
0.000000
0
VERTEX
5
84fd
8
0
10
10.974512
20
30.720495
30
0.000000
0
VERTEX
5
850d
8
0
10
10.975875
20
30.769097
30
0.000000
0
VERTEX
5
851d
8
0
10
10.979387
20
30.818911
30
0.000000
0
VERTEX
5
852d
8
0
10
10.990837
20
30.920782
30
0.000000
0
VERTEX
5
853d
8
0
10
11.004817
20
31.023329
30
0.000000
0
VERTEX
5
854d
8
0
10
11.017283
20
31.123769
30
0.000000
0
VERTEX
5
855d
8
0
10
11.021685
20
31.172330
30
0.000000
0
VERTEX
5
856d
8
0
10
11.024191
20
31.219323
30
0.000000
0
VERTEX
5
857d
8
0
10
11.024298
20
31.264398
30
0.000000
0
VERTEX
5
858d
8
0
10
11.021498
20
31.307209
30
0.000000
0
VERTEX
5
859d
8
0
10
11.015287
20
31.347408
30
0.000000
0
VERTEX
5
85ad
8
0
10
11.005159
20
31.384647
30
0.000000
0
VERTEX
5
85bd
8
0
10
10.990609
20
31.418580
30
0.000000
0
VERTEX
5
85cd
8
0
10
10.981517
20
31.434197
30
0.000000
0
VERTEX
5
85dd
8
0
10
10.971130
20
31.448857
30
0.000000
0
VERTEX
5
85ed
8
0
10
10.959385
20
31.462517
30
0.000000
0
VERTEX
5
85fd
8
0
10
10.946219
20
31.475132
30
0.000000
0
VERTEX
5
860d
8
0
10
10.931567
20
31.486660
30
0.000000
0
VERTEX
5
861d
8
0
10
10.915368
20
31.497057
30
0.000000
0
VERTEX
5
862d
8
0
10
10.897558
20
31.506280
30
0.000000
0
VERTEX
5
863d
8
0
10
10.878073
20
31.514285
30
0.000000
0
VERTEX
5
864d
8
0
10
10.856851
20
31.521028
30
0.000000
0
VERTEX
5
865d
8
0
10
10.833828
20
31.526467
30
0.000000
0
VERTEX
5
866d
8
0
10
10.808942
20
31.530558
30
0.000000
0
VERTEX
5
867d
8
0
10
10.782128
20
31.533257
30
0.000000
0
VERTEX
5
868d
8
0
10
10.753324
20
31.534520
30
0.000000
0
VERTEX
5
869d
8
0
10
10.722467
20
31.534306
30
0.000000
0
VERTEX
5
86ad
8
0
10
10.654339
20
31.529267
30
0.000000
0
VERTEX
5
86bd
8
0
10
10.577240
20
31.517793
30
0.000000
0
VERTEX
5
86cd
8
0
10
10.490663
20
31.499536
30
0.000000
0
VERTEX
5
86dd
8
0
10
10.394103
20
31.474148
30
0.000000
0
VERTEX
5
86ed
8
0
10
11.203654
20
31.725825
30
0.000000
0
VERTEX
5
86fd
8
0
10
10.475579
20
32.525779
30
0.000000
0
VERTEX
5
870d
8
0
10
10.475579
20
32.525779
30
0.000000
0
VERTEX
5
871d
8
0
10
10.551926
20
32.611178
30
0.000000
0
VERTEX
5
872d
8
0
10
10.585440
20
32.651926
30
0.000000
0
VERTEX
5
873d
8
0
10
10.615949
20
32.691417
30
0.000000
0
VERTEX
5
874d
8
0
10
10.643531
20
32.729685
30
0.000000
0
VERTEX
5
875d
8
0
10
10.668264
20
32.766764
30
0.000000
0
VERTEX
5
876d
8
0
10
10.690225
20
32.802688
30
0.000000
0
VERTEX
5
877d
8
0
10
10.709491
20
32.837489
30
0.000000
0
VERTEX
5
878d
8
0
10
10.726140
20
32.871202
30
0.000000
0
VERTEX
5
879d
8
0
10
10.740249
20
32.903859
30
0.000000
0
VERTEX
5
87ad
8
0
10
10.751895
20
32.935496
30
0.000000
0
VERTEX
5
87bd
8
0
10
10.761156
20
32.966145
30
0.000000
0
VERTEX
5
87cd
8
0
10
10.768109
20
32.995840
30
0.000000
0
VERTEX
5
87dd
8
0
10
10.772831
20
33.024615
30
0.000000
0
VERTEX
5
87ed
8
0
10
10.775400
20
33.052503
30
0.000000
0
VERTEX
5
87fd
8
0
10
10.775893
20
33.079537
30
0.000000
0
VERTEX
5
880d
8
0
10
10.774387
20
33.105752
30
0.000000
0
VERTEX
5
881d
8
0
10
10.770960
20
33.131181
30
0.000000
0
VERTEX
5
882d
8
0
10
10.765690
20
33.155858
30
0.000000
0
VERTEX
5
883d
8
0
10
10.758652
20
33.179816
30
0.000000
0
VERTEX
5
884d
8
0
10
10.749925
20
33.203089
30
0.000000
0
VERTEX
5
885d
8
0
10
10.739586
20
33.225710
30
0.000000
0
VERTEX
5
886d
8
0
10
10.727713
20
33.247713
30
0.000000
0
VERTEX
5
887d
8
0
10
10.714382
20
33.269133
30
0.000000
0
VERTEX
5
888d
8
0
10
10.683659
20
33.310352
30
0.000000
0
VERTEX
5
889d
8
0
10
10.648035
20
33.349638
30
0.000000
0
VERTEX
5
88ad
8
0
10
10.608128
20
33.387259
30
0.000000
0
VERTEX
5
88bd
8
0
10
10.564558
20
33.423484
30
0.000000
0
VERTEX
5
88cd
8
0
10
10.517943
20
33.458582
30
0.000000
0
VERTEX
5
88dd
8
0
10
10.468903
20
33.492821
30
0.000000
0
VERTEX
5
88ed
8
0
10
10.366018
20
33.559800
30
0.000000
0
VERTEX
5
88fd
8
0
10
10.260854
20
33.626573
30
0.000000
0
VERTEX
5
890d
8
0
10
10.208965
20
33.660554
30
0.000000
0
VERTEX
5
891d
8
0
10
10.158362
20
33.695290
30
0.000000
0
VERTEX
5
892d
8
0
10
10.109663
20
33.731050
30
0.000000
0
VERTEX
5
893d
8
0
10
10.063489
20
33.768103
30
0.000000
0
VERTEX
5
894d
8
0
10
10.020457
20
33.806718
30
0.000000
0
VERTEX
5
895d
8
0
10
9.981187
20
33.847163
30
0.000000
0
VERTEX
5
896d
8
0
10
9.946296
20
33.889707
30
0.000000
0
VERTEX
5
897d
8
0
10
9.916405
20
33.934620
30
0.000000
0
VERTEX
5
898d
8
0
10
9.903527
20
33.958049
30
0.000000
0
VERTEX
5
899d
8
0
10
9.892130
20
33.982170
30
0.000000
0
VERTEX
5
89ad
8
0
10
9.882293
20
34.007018
30
0.000000
0
VERTEX
5
89bd
8
0
10
9.874092
20
34.032627
30
0.000000
0
VERTEX
5
89cd
8
0
10
10.751231
20
33.648475
30
0.000000
0
VERTEX
5
89dd
8
0
10
10.751231
20
33.648475
30
0.000000
0
VERTEX
5
89ed
8
0
10
10.796353
20
33.792259
30
0.000000
0
VERTEX
5
89fd
8
0
10
10.843773
20
33.931325
30
0.000000
0
VERTEX
5
8a0d
8
0
10
10.893452
20
34.065745
30
0.000000
0
VERTEX
5
8a1d
8
0
10
10.945355
20
34.195589
30
0.000000
0
VERTEX
5
8a2d
8
0
10
10.999443
20
34.320929
30
0.000000
0
VERTEX
5
8a3d
8
0
10
11.055680
20
34.441837
30
0.000000
0
VERTEX
5
8a4d
8
0
10
11.114027
20
34.558382
30
0.000000
0
VERTEX
5
8a5d
8
0
10
11.174449
20
34.670638
30
0.000000
0
VERTEX
5
8a6d
8
0
10
11.236907
20
34.778674
30
0.000000
0
VERTEX
5
8a7d
8
0
10
11.301364
20
34.882562
30
0.000000
0
VERTEX
5
8a8d
8
0
10
11.367782
20
34.982374
30
0.000000
0
VERTEX
5
8a9d
8
0
10
11.436126
20
35.078180
30
0.000000
0
VERTEX
5
8aad
8
0
10
11.506356
20
35.170052
30
0.000000
0
VERTEX
5
8abd
8
0
10
11.578436
20
35.258061
30
0.000000
0
VERTEX
5
8acd
8
0
10
11.652329
20
35.342279
30
0.000000
0
VERTEX
5
8add
8
0
10
11.727997
20
35.422775
30
0.000000
0
VERTEX
5
8aed
8
0
10
11.805403
20
35.499623
30
0.000000
0
VERTEX
5
8afd
8
0
10
11.884510
20
35.572893
30
0.000000
0
VERTEX
5
8b0d
8
0
10
11.965280
20
35.642656
30
0.000000
0
VERTEX
5
8b1d
8
0
10
12.047676
20
35.708983
30
0.000000
0
VERTEX
5
8b2d
8
0
10
12.131661
20
35.771946
30
0.000000
0
VERTEX
5
8b3d
8
0
10
12.217197
20
35.831616
30
0.000000
0
VERTEX
5
8b4d
8
0
10
12.304247
20
35.888064
30
0.000000
0
VERTEX
5
8b5d
8
0
10
12.392774
20
35.941362
30
0.000000
0
VERTEX
5
8b6d
8
0
10
12.482740
20
35.991580
30
0.000000
0
VERTEX
5
8b7d
8
0
10
12.574109
20
36.038791
30
0.000000
0
VERTEX
5
8b8d
8
0
10
12.666842
20
36.083064
30
0.000000
0
VERTEX
5
8b9d
8
0
10
12.760903
20
36.124472
30
0.000000
0
VERTEX
5
8bad
8
0
10
12.856254
20
36.163086
30
0.000000
0
VERTEX
5
8bbd
8
0
10
12.952859
20
36.198976
30
0.000000
0
VERTEX
5
8bcd
8
0
10
13.050678
20
36.232215
30
0.000000
0
VERTEX
5
8bdd
8
0
10
13.149676
20
36.262873
30
0.000000
0
VERTEX
5
8bed
8
0
10
13.249815
20
36.291021
30
0.000000
0
VERTEX
5
8bfd
8
0
10
13.351058
20
36.316731
30
0.000000
0
VERTEX
5
8c0d
8
0
10
13.453367
20
36.340075
30
0.000000
0
VERTEX
5
8c1d
8
0
10
13.556705
20
36.361123
30
0.000000
0
VERTEX
5
8c2d
8
0
10
13.661035
20
36.379946
30
0.000000
0
VERTEX
5
8c3d
8
0
10
13.766319
20
36.396616
30
0.000000
0
VERTEX
5
8c4d
8
0
10
13.872520
20
36.411204
30
0.000000
0
VERTEX
5
8c5d
8
0
10
13.979601
20
36.423782
30
0.000000
0
VERTEX
5
8c6d
8
0
10
14.087525
20
36.434419
30
0.000000
0
VERTEX
5
8c7d
8
0
10
14.196254
20
36.443189
30
0.000000
0
VERTEX
5
8c8d
8
0
10
14.305751
20
36.450162
30
0.000000
0
VERTEX
5
8c9d
8
0
10
14.415978
20
36.455409
30
0.000000
0
VERTEX
5
8cad
8
0
10
14.526899
20
36.459001
30
0.000000
0
VERTEX
5
8cbd
8
0
10
14.638475
20
36.461010
30
0.000000
0
VERTEX
5
8ccd
8
0
10
14.863447
20
36.460564
30
0.000000
0
VERTEX
5
8cdd
8
0
10
15.090594
20
36.454639
30
0.000000
0
VERTEX
5
8ced
8
0
10
15.319620
20
36.443806
30
0.000000
0
VERTEX
5
8cfd
8
0
10
15.550224
20
36.428634
30
0.000000
0
VERTEX
5
8d0d
8
0
10
15.782110
20
36.409694
30
0.000000
0
VERTEX
5
8d1d
8
0
10
16.014977
20
36.387555
30
0.000000
0
VERTEX
5
8d2d
8
0
10
16.248528
20
36.362788
30
0.000000
0
VERTEX
5
8d3d
8
0
10
16.482464
20
36.335962
30
0.000000
0
VERTEX
5
8d4d
8
0
10
16.716487
20
36.307647
30
0.000000
0
VERTEX
5
8d5d
8
0
10
16.716487
20
36.307647
30
0.000000
0
VERTEX
5
8d6d
8
0
10
16.850318
20
36.324568
30
0.000000
0
VERTEX
5
8d7d
8
0
10
16.982834
20
36.338516
30
0.000000
0
VERTEX
5
8d8d
8
0
10
17.114054
20
36.349537
30
0.000000
0
VERTEX
5
8d9d
8
0
10
17.244001
20
36.357676
30
0.000000
0
VERTEX
5
8dad
8
0
10
17.372695
20
36.362979
30
0.000000
0
VERTEX
5
8dbd
8
0
10
17.500157
20
36.365492
30
0.000000
0
VERTEX
5
8dcd
8
0
10
17.626409
20
36.365261
30
0.000000
0
VERTEX
5
8ddd
8
0
10
17.751472
20
36.362331
30
0.000000
0
VERTEX
5
8ded
8
0
10
17.875367
20
36.356747
30
0.000000
0
VERTEX
5
8dfd
8
0
10
17.998116
20
36.348556
30
0.000000
0
VERTEX
5
8e0d
8
0
10
18.119738
20
36.337804
30
0.000000
0
VERTEX
5
8e1d
8
0
10
18.240256
20
36.324535
30
0.000000
0
VERTEX
5
8e2d
8
0
10
18.359691
20
36.308797
30
0.000000
0
VERTEX
5
8e3d
8
0
10
18.478064
20
36.290633
30
0.000000
0
VERTEX
5
8e4d
8
0
10
18.595395
20
36.270091
30
0.000000
0
VERTEX
5
8e5d
8
0
10
18.711707
20
36.247215
30
0.000000
0
VERTEX
5
8e6d
8
0
10
18.827020
20
36.222052
30
0.000000
0
VERTEX
5
8e7d
8
0
10
18.941355
20
36.194647
30
0.000000
0
VERTEX
5
8e8d
8
0
10
19.054734
20
36.165046
30
0.000000
0
VERTEX
5
8e9d
8
0
10
19.167178
20
36.133294
30
0.000000
0
VERTEX
5
8ead
8
0
10
19.278708
20
36.099438
30
0.000000
0
VERTEX
5
8ebd
8
0
10
19.389345
20
36.063523
30
0.000000
0
VERTEX
5
8ecd
8
0
10
19.499110
20
36.025594
30
0.000000
0
VERTEX
5
8edd
8
0
10
19.608024
20
35.985698
30
0.000000
0
VERTEX
5
8eed
8
0
10
19.716109
20
35.943880
30
0.000000
0
VERTEX
5
8efd
8
0
10
19.823386
20
35.900186
30
0.000000
0
VERTEX
5
8f0d
8
0
10
19.929876
20
35.854661
30
0.000000
0
VERTEX
5
8f1d
8
0
10
20.035599
20
35.807351
30
0.000000
0
VERTEX
5
8f2d
8
0
10
20.140578
20
35.758302
30
0.000000
0
VERTEX
5
8f3d
8
0
10
20.244834
20
35.707560
30
0.000000
0
VERTEX
5
8f4d
8
0
10
20.348386
20
35.655170
30
0.000000
0
VERTEX
5
8f5d
8
0
10
20.451258
20
35.601178
30
0.000000
0
VERTEX
5
8f6d
8
0
10
20.553469
20
35.545630
30
0.000000
0
VERTEX
5
8f7d
8
0
10
20.655042
20
35.488571
30
0.000000
0
VERTEX
5
8f8d
8
0
10
20.755996
20
35.430048
30
0.000000
0
VERTEX
5
8f9d
8
0
10
20.856354
20
35.370105
30
0.000000
0
VERTEX
5
8fad
8
0
10
21.055364
20
35.246144
30
0.000000
0
VERTEX
5
8fbd
8
0
10
21.252242
20
35.117055
30
0.000000
0
VERTEX
5
8fcd
8
0
10
21.447156
20
34.983203
30
0.000000
0
VERTEX
5
8fdd
8
0
10
21.640275
20
34.844953
30
0.000000
0
VERTEX
5
8fed
8
0
10
21.831770
20
34.702672
30
0.000000
0
VERTEX
5
8ffd
8
0
10
22.021809
20
34.556725
30
0.000000
0
VERTEX
5
900d
8
0
10
22.210562
20
34.407478
30
0.000000
0
VERTEX
5
901d
8
0
10
22.398197
20
34.255295
30
0.000000
0
VERTEX
5
902d
8
0
10
22.584885
20
34.100544
30
0.000000
0
VERTEX
5
903d
8
0
10
22.770794
20
33.943589
30
0.000000
0
VERTEX
5
904d
8
0
10
22.956093
20
33.784795
30
0.000000
0
VERTEX
5
905d
8
0
10
23.140953
20
33.624530
30
0.000000
0
VERTEX
5
906d
8
0
10
23.510029
20
33.301043
30
0.000000
0
SEQEND
5
907d
8
0
0
POLYLINE
5
908d
8
0
66
1
10
0
20
0
30
0
0
VERTEX
5
909d
8
0
10
28.113745
20
30.336448
30
0.000000
0
VERTEX
5
90ad
8
0
10
28.113745
20
30.336448
30
0.000000
0
VERTEX
5
90bd
8
0
10
27.656573
20
30.206057
30
0.000000
0
VERTEX
5
90cd
8
0
10
27.427922
20
30.143123
30
0.000000
0
VERTEX
5
90dd
8
0
10
27.199217
20
30.082076
30
0.000000
0
VERTEX
5
90ed
8
0
10
26.970450
20
30.023200
30
0.000000
0
VERTEX
5
90fd
8
0
10
26.741613
20
29.966779
30
0.000000
0
VERTEX
5
910d
8
0
10
26.512697
20
29.913098
30
0.000000
0
VERTEX
5
911d
8
0
10
26.283695
20
29.862440
30
0.000000
0
VERTEX
5
912d
8
0
10
26.054599
20
29.815090
30
0.000000
0
VERTEX
5
913d
8
0
10
25.825399
20
29.771332
30
0.000000
0
VERTEX
5
914d
8
0
10
25.596089
20
29.731450
30
0.000000
0
VERTEX
5
915d
8
0
10
25.366660
20
29.695728
30
0.000000
0
VERTEX
5
916d
8
0
10
25.137103
20
29.664451
30
0.000000
0
VERTEX
5
917d
8
0
10
24.907411
20
29.637902
30
0.000000
0
VERTEX
5
918d
8
0
10
24.677576
20
29.616367
30
0.000000
0
VERTEX
5
919d
8
0
10
24.447590
20
29.600128
30
0.000000
0
VERTEX
5
91ad
8
0
10
24.217443
20
29.589471
30
0.000000
0
VERTEX
5
91bd
8
0
10
24.102308
20
29.586324
30
0.000000
0
VERTEX
5
91cd
8
0
10
23.987129
20
29.584679
30
0.000000
0
VERTEX
5
91dd
8
0
10
23.871907
20
29.584572
30
0.000000
0
VERTEX
5
91ed
8
0
10
23.756639
20
29.586037
30
0.000000
0
VERTEX
5
91fd
8
0
10
23.641326
20
29.589111
30
0.000000
0
VERTEX
5
920d
8
0
10
23.525965
20
29.593829
30
0.000000
0
VERTEX
5
921d
8
0
10
23.410557
20
29.600226
30
0.000000
0
VERTEX
5
922d
8
0
10
23.295099
20
29.608338
30
0.000000
0
VERTEX
5
923d
8
0
10
23.179592
20
29.618201
30
0.000000
0
VERTEX
5
924d
8
0
10
23.064033
20
29.629851
30
0.000000
0
VERTEX
5
925d
8
0
10
22.948422
20
29.643321
30
0.000000
0
VERTEX
5
926d
8
0
10
22.832758
20
29.658649
30
0.000000
0
VERTEX
5
927d
8
0
10
22.717040
20
29.675869
30
0.000000
0
VERTEX
5
928d
8
0
10
22.601266
20
29.695018
30
0.000000
0
VERTEX
5
929d
8
0
10
22.485437
20
29.716130
30
0.000000
0
VERTEX
5
92ad
8
0
10
22.369550
20
29.739242
30
0.000000
0
VERTEX
5
92bd
8
0
10
22.253605
20
29.764388
30
0.000000
0
VERTEX
5
92cd
8
0
10
22.137601
20
29.791605
30
0.000000
0
VERTEX
5
92dd
8
0
10
22.021537
20
29.820927
30
0.000000
0
VERTEX
5
92ed
8
0
10
21.905411
20
29.852391
30
0.000000
0
VERTEX
5
92fd
8
0
10
21.789224
20
29.886032
30
0.000000
0
VERTEX
5
930d
8
0
10
21.672972
20
29.921885
30
0.000000
0
VERTEX
5
931d
8
0
10
21.556657
20
29.959986
30
0.000000
0
VERTEX
5
932d
8
0
10
21.440276
20
30.000370
30
0.000000
0
VERTEX
5
933d
8
0
10
21.323829
20
30.043073
30
0.000000
0
VERTEX
5
934d
8
0
10
21.207315
20
30.088131
30
0.000000
0
VERTEX
5
935d
8
0
10
21.090732
20
30.135579
30
0.000000
0
VERTEX
5
936d
8
0
10
20.974080
20
30.185452
30
0.000000
0
VERTEX
5
937d
8
0
10
20.857357
20
30.237786
30
0.000000
0
VERTEX
5
938d
8
0
10
20.740563
20
30.292617
30
0.000000
0
VERTEX
5
939d
8
0
10
20.740563
20
30.292617
30
0.000000
0
VERTEX
5
93ad
8
0
10
20.972401
20
30.244124
30
0.000000
0
VERTEX
5
93bd
8
0
10
21.204140
20
30.199117
30
0.000000
0
VERTEX
5
93cd
8
0
10
21.435780
20
30.157566
30
0.000000
0
VERTEX
5
93dd
8
0
10
21.667321
20
30.119447
30
0.000000
0
VERTEX
5
93ed
8
0
10
21.898765
20
30.084731
30
0.000000
0
VERTEX
5
93fd
8
0
10
22.130113
20
30.053394
30
0.000000
0
VERTEX
5
940d
8
0
10
22.361365
20
30.025406
30
0.000000
0
VERTEX
5
941d
8
0
10
22.592521
20
30.000743
30
0.000000
0
VERTEX
5
942d
8
0
10
22.823583
20
29.979377
30
0.000000
0
VERTEX
5
943d
8
0
10
23.054552
20
29.961281
30
0.000000
0
VERTEX
5
944d
8
0
10
23.285428
20
29.946429
30
0.000000
0
VERTEX
5
945d
8
0
10
23.516212
20
29.934793
30
0.000000
0
VERTEX
5
946d
8
0
10
23.746905
20
29.926348
30
0.000000
0
VERTEX
5
947d
8
0
10
23.977507
20
29.921067
30
0.000000
0
VERTEX
5
948d
8
0
10
24.208020
20
29.918922
30
0.000000
0
VERTEX
5
949d
8
0
10
24.438443
20
29.919887
30
0.000000
0
VERTEX
5
94ad
8
0
10
24.668778
20
29.923935
30
0.000000
0
VERTEX
5
94bd
8
0
10
24.899026
20
29.931039
30
0.000000
0
VERTEX
5
94cd
8
0
10
25.129188
20
29.941173
30
0.000000
0
VERTEX
5
94dd
8
0
10
25.359263
20
29.954310
30
0.000000
0
VERTEX
5
94ed
8
0
10
25.589253
20
29.970424
30
0.000000
0
VERTEX
5
94fd
8
0
10
25.819159
20
29.989486
30
0.000000
0
VERTEX
5
950d
8
0
10
26.048981
20
30.011472
30
0.000000
0
VERTEX
5
951d
8
0
10
26.278721
20
30.036353
30
0.000000
0
VERTEX
5
952d
8
0
10
26.508378
20
30.064104
30
0.000000
0
VERTEX
5
953d
8
0
10
26.737954
20
30.094697
30
0.000000
0
VERTEX
5
954d
8
0
10
26.967449
20
30.128105
30
0.000000
0
VERTEX
5
955d
8
0
10
27.196865
20
30.164303
30
0.000000
0
VERTEX
5
956d
8
0
10
27.426202
20
30.203263
30
0.000000
0
VERTEX
5
957d
8
0
10
27.655460
20
30.244958
30
0.000000
0
VERTEX
5
958d
8
0
10
27.884641
20
30.289362
30
0.000000
0
VERTEX
5
959d
8
0
10
28.113745
20
30.336448
30
0.000000
0
SEQEND
5
95ad
8
0
0
POLYLINE
5
95bd
8
0
66
1
10
0
20
0
30
0
0
VERTEX
5
95cd
8
0
10
12.329051
20
27.344437
30
0.000000
0
VERTEX
5
95dd
8
0
10
12.329051
20
27.344437
30
0.000000
0
VERTEX
5
95ed
8
0
10
12.431182
20
27.299682
30
0.000000
0
VERTEX
5
95fd
8
0
10
12.533125
20
27.257730
30
0.000000
0
VERTEX
5
960d
8
0
10
12.634876
20
27.218622
30
0.000000
0
VERTEX
5
961d
8
0
10
12.736433
20
27.182397
30
0.000000
0
VERTEX
5
962d
8
0
10
12.837794
20
27.149095
30
0.000000
0
VERTEX
5
963d
8
0
10
12.938955
20
27.118755
30
0.000000
0
VERTEX
5
964d
8
0
10
13.039915
20
27.091418
30
0.000000
0
VERTEX
5
965d
8
0
10
13.140670
20
27.067122
30
0.000000
0
VERTEX
5
966d
8
0
10
13.241218
20
27.045909
30
0.000000
0
VERTEX
5
967d
8
0
10
13.341556
20
27.027816
30
0.000000
0
VERTEX
5
968d
8
0
10
13.441682
20
27.012884
30
0.000000
0
VERTEX
5
969d
8
0
10
13.541592
20
27.001153
30
0.000000
0
VERTEX
5
96ad
8
0
10
13.641285
20
26.992662
30
0.000000
0
VERTEX
5
96bd
8
0
10
13.740757
20
26.987451
30
0.000000
0
VERTEX
5
96cd
8
0
10
13.840006
20
26.985560
30
0.000000
0
VERTEX
5
96dd
8
0
10
13.939029
20
26.987027
30
0.000000
0
VERTEX
5
96ed
8
0
10
14.037823
20
26.991894
30
0.000000
0
VERTEX
5
96fd
8
0
10
14.136386
20
27.000199
30
0.000000
0
VERTEX
5
970d
8
0
10
14.234715
20
27.011982
30
0.000000
0
VERTEX
5
971d
8
0
10
14.332808
20
27.027283
30
0.000000
0
VERTEX
5
972d
8
0
10
14.430662
20
27.046141
30
0.000000
0
VERTEX
5
973d
8
0
10
14.528273
20
27.068597
30
0.000000
0
VERTEX
5
974d
8
0
10
14.625640
20
27.094689
30
0.000000
0
VERTEX
5
975d
8
0
10
14.722760
20
27.124458
30
0.000000
0
VERTEX
5
976d
8
0
10
14.819630
20
27.157943
30
0.000000
0
VERTEX
5
977d
8
0
10
14.916247
20
27.195184
30
0.000000
0
VERTEX
5
978d
8
0
10
15.012609
20
27.236220
30
0.000000
0
VERTEX
5
979d
8
0
10
15.108714
20
27.281091
30
0.000000
0
VERTEX
5
97ad
8
0
10
15.204557
20
27.329837
30
0.000000
0
VERTEX
5
97bd
8
0
10
15.300138
20
27.382498
30
0.000000
0
VERTEX
5
97cd
8
0
10
15.395452
20
27.439112
30
0.000000
0
VERTEX
5
97dd
8
0
10
15.490498
20
27.499720
30
0.000000
0
VERTEX
5
97ed
8
0
10
12.329051
20
27.344437
30
0.000000
0
SEQEND
5
97fd
8
0
0
POLYLINE
5
980d
8
0
66
1
10
0
20
0
30
0
0
VERTEX
5
981d
8
0
10
32.716568
20
23.338999
30
0.000000
0
VERTEX
5
982d
8
0
10
32.716568
20
23.338999
30
0.000000
0
VERTEX
5
983d
8
0
10
32.582827
20
23.133165
30
0.000000
0
VERTEX
5
984d
8
0
10
32.448690
20
22.934684
30
0.000000
0
VERTEX
5
985d
8
0
10
32.314159
20
22.743515
30
0.000000
0
VERTEX
5
986d
8
0
10
32.179236
20
22.559620
30
0.000000
0
VERTEX
5
987d
8
0
10
32.043924
20
22.382961
30
0.000000
0
VERTEX
5
988d
8
0
10
31.908224
20
22.213498
30
0.000000
0
VERTEX
5
989d
8
0
10
31.772137
20
22.051193
30
0.000000
0
VERTEX
5
98ad
8
0
10
31.635667
20
21.896008
30
0.000000
0
VERTEX
5
98bd
8
0
10
31.498814
20
21.747902
30
0.000000
0
VERTEX
5
98cd
8
0
10
31.361580
20
21.606839
30
0.000000
0
VERTEX
5
98dd
8
0
10
31.223969
20
21.472778
30
0.000000
0
VERTEX
5
98ed
8
0
10
31.085980
20
21.345682
30
0.000000
0
VERTEX
5
98fd
8
0
10
30.947617
20
21.225511
30
0.000000
0
VERTEX
5
990d
8
0
10
30.808882
20
21.112228
30
0.000000
0
VERTEX
5
991d
8
0
10
30.669775
20
21.005792
30
0.000000
0
VERTEX
5
992d
8
0
10
30.530299
20
20.906165
30
0.000000
0
VERTEX
5
993d
8
0
10
30.390457
20
20.813309
30
0.000000
0
VERTEX
5
994d
8
0
10
30.250249
20
20.727185
30
0.000000
0
VERTEX
5
995d
8
0
10
30.109678
20
20.647754
30
0.000000
0
VERTEX
5
996d
8
0
10
30.039257
20
20.610537
30
0.000000
0
VERTEX
5
997d
8
0
10
29.968746
20
20.574978
30
0.000000
0
VERTEX
5
998d
8
0
10
29.898145
20
20.541073
30
0.000000
0
VERTEX
5
999d
8
0
10
29.827454
20
20.508817
30
0.000000
0
VERTEX
5
99ad
8
0
10
29.756674
20
20.478206
30
0.000000
0
VERTEX
5
99bd
8
0
10
29.685805
20
20.449233
30
0.000000
0
VERTEX
5
99cd
8
0
10
29.614847
20
20.421896
30
0.000000
0
VERTEX
5
99dd
8
0
10
29.543800
20
20.396188
30
0.000000
0
VERTEX
5
99ed
8
0
10
29.472665
20
20.372105
30
0.000000
0
VERTEX
5
99fd
8
0
10
29.401441
20
20.349642
30
0.000000
0
VERTEX
5
9a0d
8
0
10
29.330130
20
20.328794
30
0.000000
0
VERTEX
5
9a1d
8
0
10
29.258731
20
20.309556
30
0.000000
0
VERTEX
5
9a2d
8
0
10
29.187244
20
20.291924
30
0.000000
0
VERTEX
5
9a3d
8
0
10
29.115670
20
20.275893
30
0.000000
0
VERTEX
5
9a4d
8
0
10
29.044010
20
20.261458
30
0.000000
0
VERTEX
5
9a5d
8
0
10
28.972262
20
20.248613
30
0.000000
0
VERTEX
5
9a6d
8
0
10
28.900428
20
20.237355
30
0.000000
0
VERTEX
5
9a7d
8
0
10
28.828507
20
20.227678
30
0.000000
0
VERTEX
5
9a8d
8
0
10
28.756501
20
20.219577
30
0.000000
0
VERTEX
5
9a9d
8
0
10
28.684409
20
20.213048
30
0.000000
0
VERTEX
5
9aad
8
0
10
28.612231
20
20.208086
30
0.000000
0
VERTEX
5
9abd
8
0
10
28.539968
20
20.204686
30
0.000000
0
VERTEX
5
9acd
8
0
10
28.467620
20
20.202842
30
0.000000
0
VERTEX
5
9add
8
0
10
28.395186
20
20.202552
30
0.000000
0
VERTEX
5
9aed
8
0
10
28.322669
20
20.203808
30
0.000000
0
VERTEX
5
9afd
8
0
10
28.250067
20
20.206607
30
0.000000
0
VERTEX
5
9b0d
8
0
10
28.177380
20
20.210944
30
0.000000
0
VERTEX
5
9b1d
8
0
10
28.104610
20
20.216814
30
0.000000
0
VERTEX
5
9b2d
8
0
10
28.031756
20
20.224211
30
0.000000
0
VERTEX
5
9b3d
8
0
10
27.958819
20
20.233132
30
0.000000
0
VERTEX
5
9b4d
8
0
10
27.812695
20
20.255525
30
0.000000
0
VERTEX
5
9b5d
8
0
10
27.666240
20
20.283951
30
0.000000
0
VERTEX
5
9b6d
8
0
10
27.519456
20
20.318374
30
0.000000
0
VERTEX
5
9b7d
8
0
10
27.372345
20
20.358755
30
0.000000
0
VERTEX
5
9b8d
8
0
10
27.224909
20
20.405053
30
0.000000
0
VERTEX
5
9b9d
8
0
10
27.077150
20
20.457232
30
0.000000
0
VERTEX
5
9bad
8
0
10
26.929069
20
20.515252
30
0.000000
0
VERTEX
5
9bbd
8
0
10
26.780669
20
20.579073
30
0.000000
0
VERTEX
5
9bcd
8
0
10
26.631952
20
20.648659
30
0.000000
0
VERTEX
5
9bdd
8
0
10
26.482918
20
20.723970
30
0.000000
0
VERTEX
5
9bed
8
0
10
26.333571
20
20.804966
30
0.000000
0
VERTEX
5
9bfd
8
0
10
26.183912
20
20.891610
30
0.000000
0
VERTEX
5
9c0d
8
0
10
26.033943
20
20.983863
30
0.000000
0
VERTEX
5
9c1d
8
0
10
25.883667
20
21.081686
30
0.000000
0
VERTEX
5
9c2d
8
0
10
25.733084
20
21.185040
30
0.000000
0
VERTEX
5
9c3d
8
0
10
25.582196
20
21.293887
30
0.000000
0
VERTEX
5
9c4d
8
0
10
25.431007
20
21.408187
30
0.000000
0
VERTEX
5
9c5d
8
0
10
25.279517
20
21.527902
30
0.000000
0
VERTEX
5
9c6d
8
0
10
25.127728
20
21.652994
30
0.000000
0
VERTEX
5
9c7d
8
0
10
24.975643
20
21.783423
30
0.000000
0
VERTEX
5
9c8d
8
0
10
24.823263
20
21.919151
30
0.000000
0
VERTEX
5
9c9d
8
0
10
24.670590
20
22.060140
30
0.000000
0
VERTEX
5
9cad
8
0
10
24.517627
20
22.206349
30
0.000000
0
VERTEX
5
9cbd
8
0
10
24.364374
20
22.357742
30
0.000000
0
VERTEX
5
9ccd
8
0
10
24.210835
20
22.514278
30
0.000000
0
VERTEX
5
9cdd
8
0
10
24.057010
20
22.675919
30
0.000000
0
VERTEX
5
9ced
8
0
10
23.902901
20
22.842627
30
0.000000
0
VERTEX
5
9cfd
8
0
10
23.748512
20
23.014363
30
0.000000
0
VERTEX
5
9d0d
8
0
10
23.593843
20
23.191088
30
0.000000
0
VERTEX
5
9d1d
8
0
10
23.438896
20
23.372763
30
0.000000
0
VERTEX
5
9d2d
8
0
10
23.438896
20
23.372763
30
0.000000
0
VERTEX
5
9d3d
8
0
10
23.497407
20
23.478246
30
0.000000
0
VERTEX
5
9d4d
8
0
10
23.557022
20
23.581311
30
0.000000
0
VERTEX
5
9d5d
8
0
10
23.617734
20
23.681973
30
0.000000
0
VERTEX
5
9d6d
8
0
10
23.679538
20
23.780245
30
0.000000
0
VERTEX
5
9d7d
8
0
10
23.742425
20
23.876141
30
0.000000
0
VERTEX
5
9d8d
8
0
10
23.806391
20
23.969675
30
0.000000
0
VERTEX
5
9d9d
8
0
10
23.871428
20
24.060861
30
0.000000
0
VERTEX
5
9dad
8
0
10
23.937529
20
24.149712
30
0.000000
0
VERTEX
5
9dbd
8
0
10
24.004689
20
24.236242
30
0.000000
0
VERTEX
5
9dcd
8
0
10
24.072899
20
24.320466
30
0.000000
0
VERTEX
5
9ddd
8
0
10
24.142155
20
24.402396
30
0.000000
0
VERTEX
5
9ded
8
0
10
24.212448
20
24.482048
30
0.000000
0
VERTEX
5
9dfd
8
0
10
24.283773
20
24.559434
30
0.000000
0
VERTEX
5
9e0d
8
0
10
24.356123
20
24.634569
30
0.000000
0
VERTEX
5
9e1d
8
0
10
24.429492
20
24.707466
30
0.000000
0
VERTEX
5
9e2d
8
0
10
24.503872
20
24.778139
30
0.000000
0
VERTEX
5
9e3d
8
0
10
24.579257
20
24.846603
30
0.000000
0
VERTEX
5
9e4d
8
0
10
24.655640
20
24.912870
30
0.000000
0
VERTEX
5
9e5d
8
0
10
24.733016
20
24.976955
30
0.000000
0
VERTEX
5
9e6d
8
0
10
24.811376
20
25.038872
30
0.000000
0
VERTEX
5
9e7d
8
0
10
24.890715
20
25.098634
30
0.000000
0
VERTEX
5
9e8d
8
0
10
24.971027
20
25.156256
30
0.000000
0
VERTEX
5
9e9d
8
0
10
25.052303
20
25.211750
30
0.000000
0
VERTEX
5
9ead
8
0
10
25.134539
20
25.265132
30
0.000000
0
VERTEX
5
9ebd
8
0
10
25.217726
20
25.316414
30
0.000000
0
VERTEX
5
9ecd
8
0
10
25.301859
20
25.365611
30
0.000000
0
VERTEX
5
9edd
8
0
10
25.386932
20
25.412736
30
0.000000
0
VERTEX
5
9eed
8
0
10
25.472936
20
25.457804
30
0.000000
0
VERTEX
5
9efd
8
0
10
25.559866
20
25.500828
30
0.000000
0
VERTEX
5
9f0d
8
0
10
25.647716
20
25.541822
30
0.000000
0
VERTEX
5
9f1d
8
0
10
25.736478
20
25.580799
30
0.000000
0
VERTEX
5
9f2d
8
0
10
25.826145
20
25.617775
30
0.000000
0
VERTEX
5
9f3d
8
0
10
25.916712
20
25.652762
30
0.000000
0
VERTEX
5
9f4d
8
0
10
26.008172
20
25.685774
30
0.000000
0
VERTEX
5
9f5d
8
0
10
26.100518
20
25.716825
30
0.000000
0
VERTEX
5
9f6d
8
0
10
26.193743
20
25.745930
30
0.000000
0
VERTEX
5
9f7d
8
0
10
26.287842
20
25.773101
30
0.000000
0
VERTEX
5
9f8d
8
0
10
26.382806
20
25.798353
30
0.000000
0
VERTEX
5
9f9d
8
0
10
26.478630
20
25.821699
30
0.000000
0
VERTEX
5
9fad
8
0
10
26.575307
20
25.843154
30
0.000000
0
VERTEX
5
9fbd
8
0
10
26.672831
20
25.862732
30
0.000000
0
VERTEX
5
9fcd
8
0
10
26.771194
20
25.880445
30
0.000000
0
VERTEX
5
9fdd
8
0
10
26.870390
20
25.896308
30
0.000000
0
VERTEX
5
9fed
8
0
10
26.970413
20
25.910335
30
0.000000
0
VERTEX
5
9ffd
8
0
10
27.071256
20
25.922539
30
0.000000
0
VERTEX
5
a00d
8
0
10
27.172913
20
25.932935
30
0.000000
0
VERTEX
5
a01d
8
0
10
27.275376
20
25.941536
30
0.000000
0
VERTEX
5
a02d
8
0
10
27.378639
20
25.948356
30
0.000000
0
VERTEX
5
a03d
8
0
10
27.482696
20
25.953410
30
0.000000
0
VERTEX
5
a04d
8
0
10
27.587539
20
25.956710
30
0.000000
0
VERTEX
5
a05d
8
0
10
27.693163
20
25.958270
30
0.000000
0
VERTEX
5
a06d
8
0
10
27.799561
20
25.958105
30
0.000000
0
VERTEX
5
a07d
8
0
10
27.906726
20
25.956229
30
0.000000
0
VERTEX
5
a08d
8
0
10
28.014651
20
25.952654
30
0.000000
0
VERTEX
5
a09d
8
0
10
28.123330
20
25.947395
30
0.000000
0
VERTEX
5
a0ad
8
0
10
28.232756
20
25.940467
30
0.000000
0
VERTEX
5
a0bd
8
0
10
28.342923
20
25.931882
30
0.000000
0
VERTEX
5
a0cd
8
0
10
28.453824
20
25.921654
30
0.000000
0
VERTEX
5
a0dd
8
0
10
28.565453
20
25.909798
30
0.000000
0
VERTEX
5
a0ed
8
0
10
28.677802
20
25.896327
30
0.000000
0
VERTEX
5
a0fd
8
0
10
28.904636
20
25.864596
30
0.000000
0
VERTEX
5
a10d
8
0
10
29.134274
20
25.826571
30
0.000000
0
VERTEX
5
a11d
8
0
10
30.214888
20
25.648626
30
0.000000
0
VERTEX
5
a12d
8
0
10
30.214888
20
25.648626
30
0.000000
0
VERTEX
5
a13d
8
0
10
30.274348
20
25.640821
30
0.000000
0
VERTEX
5
a14d
8
0
10
30.332295
20
25.631145
30
0.000000
0
VERTEX
5
a15d
8
0
10
30.388771
20
25.619645
30
0.000000
0
VERTEX
5
a16d
8
0
10
30.443816
20
25.606369
30
0.000000
0
VERTEX
5
a17d
8
0
10
30.497473
20
25.591362
30
0.000000
0
VERTEX
5
a18d
8
0
10
30.549784
20
25.574673
30
0.000000
0
VERTEX
5
a19d
8
0
10
30.600791
20
25.556349
30
0.000000
0
VERTEX
5
a1ad
8
0
10
30.650536
20
25.536437
30
0.000000
0
VERTEX
5
a1bd
8
0
10
30.699061
20
25.514983
30
0.000000
0
VERTEX
5
a1cd
8
0
10
30.746408
20
25.492034
30
0.000000
0
VERTEX
5
a1dd
8
0
10
30.792618
20
25.467639
30
0.000000
0
VERTEX
5
a1ed
8
0
10
30.837734
20
25.441844
30
0.000000
0
VERTEX
5
a1fd
8
0
10
30.881798
20
25.414695
30
0.000000
0
VERTEX
5
a20d
8
0
10
30.924852
20
25.386241
30
0.000000
0
VERTEX
5
a21d
8
0
10
30.966937
20
25.356528
30
0.000000
0
VERTEX
5
a22d
8
0
10
31.008096
20
25.325603
30
0.000000
0
VERTEX
5
a23d
8
0
10
31.087801
20
25.260306
30
0.000000
0
VERTEX
5
a24d
8
0
10
31.164305
20
25.190728
30
0.000000
0
VERTEX
5
a25d
8
0
10
31.237942
20
25.117244
30
0.000000
0
VERTEX
5
a26d
8
0
10
31.309048
20
25.040231
30
0.000000
0
VERTEX
5
a27d
8
0
10
31.377958
20
24.960067
30
0.000000
0
VERTEX
5
a28d
8
0
10
31.445009
20
24.877127
30
0.000000
0
VERTEX
5
a29d
8
0
10
31.510536
20
24.791788
30
0.000000
0
VERTEX
5
a2ad
8
0
10
31.574875
20
24.704427
30
0.000000
0
VERTEX
5
a2bd
8
0
10
31.701329
20
24.525146
30
0.000000
0
VERTEX
5
a2cd
8
0
10
31.827058
20
24.342296
30
0.000000
0
VERTEX
5
a2dd
8
0
10
31.954747
20
24.158891
30
0.000000
0
VERTEX
5
a2ed
8
0
10
32.020165
20
24.067922
30
0.000000
0
VERTEX
5
a2fd
8
0
10
32.087081
20
23.977944
30
0.000000
0
VERTEX
5
a30d
8
0
10
32.155828
20
23.889334
30
0.000000
0
VERTEX
5
a31d
8
0
10
32.226744
20
23.802468
30
0.000000
0
VERTEX
5
a32d
8
0
10
32.300164
20
23.717724
30
0.000000
0
VERTEX
5
a33d
8
0
10
32.376423
20
23.635476
30
0.000000
0
VERTEX
5
a34d
8
0
10
32.455858
20
23.556104
30
0.000000
0
VERTEX
5
a35d
8
0
10
32.538803
20
23.479982
30
0.000000
0
VERTEX
5
a36d
8
0
10
32.625594
20
23.407488
30
0.000000
0
VERTEX
5
a37d
8
0
10
32.670538
20
23.372719
30
0.000000
0
VERTEX
5
a38d
8
0
10
32.716568
20
23.338999
30
0.000000
0
SEQEND
5
a39d
8
0
0
POLYLINE
5
a3ad
8
0
66
1
10
0
20
0
30
0
0
VERTEX
5
a3bd
8
0
10
27.752929
20
25.508164
30
0.000000
0
VERTEX
5
a3cd
8
0
10
27.752929
20
25.508164
30
0.000000
0
VERTEX
5
a3dd
8
0
10
27.619203
20
25.493704
30
0.000000
0
VERTEX
5
a3ed
8
0
10
27.486537
20
25.477471
30
0.000000
0
VERTEX
5
a3fd
8
0
10
27.354941
20
25.459380
30
0.000000
0
VERTEX
5
a40d
8
0
10
27.224427
20
25.439346
30
0.000000
0
VERTEX
5
a41d
8
0
10
27.095005
20
25.417286
30
0.000000
0
VERTEX
5
a42d
8
0
10
26.966686
20
25.393114
30
0.000000
0
VERTEX
5
a43d
8
0
10
26.839482
20
25.366746
30
0.000000
0
VERTEX
5
a44d
8
0
10
26.713402
20
25.338098
30
0.000000
0
VERTEX
5
a45d
8
0
10
26.588458
20
25.307085
30
0.000000
0
VERTEX
5
a46d
8
0
10
26.464662
20
25.273622
30
0.000000
0
VERTEX
5
a47d
8
0
10
26.342022
20
25.237625
30
0.000000
0
VERTEX
5
a48d
8
0
10
26.220552
20
25.199010
30
0.000000
0
VERTEX
5
a49d
8
0
10
26.100260
20
25.157691
30
0.000000
0
VERTEX
5
a4ad
8
0
10
25.981159
20
25.113585
30
0.000000
0
VERTEX
5
a4bd
8
0
10
25.863260
20
25.066607
30
0.000000
0
VERTEX
5
a4cd
8
0
10
25.746572
20
25.016672
30
0.000000
0
VERTEX
5
a4dd
8
0
10
25.631107
20
24.963696
30
0.000000
0
VERTEX
5
a4ed
8
0
10
25.516876
20
24.907594
30
0.000000
0
VERTEX
5
a4fd
8
0
10
25.403890
20
24.848282
30
0.000000
0
VERTEX
5
a50d
8
0
10
25.292159
20
24.785676
30
0.000000
0
VERTEX
5
a51d
8
0
10
25.181695
20
24.719690
30
0.000000
0
VERTEX
5
a52d
8
0
10
25.072508
20
24.650241
30
0.000000
0
VERTEX
5
a53d
8
0
10
24.964609
20
24.577243
30
0.000000
0
VERTEX
5
a54d
8
0
10
24.858009
20
24.500613
30
0.000000
0
VERTEX
5
a55d
8
0
10
24.752719
20
24.420265
30
0.000000
0
VERTEX
5
a56d
8
0
10
24.648750
20
24.336116
30
0.000000
0
VERTEX
5
a57d
8
0
10
24.546113
20
24.248080
30
0.000000
0
VERTEX
5
a58d
8
0
10
24.444819
20
24.156073
30
0.000000
0
VERTEX
5
a59d
8
0
10
24.344878
20
24.060011
30
0.000000
0
VERTEX
5
a5ad
8
0
10
24.246301
20
23.959809
30
0.000000
0
VERTEX
5
a5bd
8
0
10
24.149099
20
23.855383
30
0.000000
0
VERTEX
5
a5cd
8
0
10
24.053284
20
23.746648
30
0.000000
0
VERTEX
5
a5dd
8
0
10
26.546907
20
21.341570
30
0.000000
0
VERTEX
5
a5ed
8
0
10
28.954501
20
21.341570
30
0.000000
0
VERTEX
5
a5fd
8
0
10
28.954501
20
21.762130
30
0.000000
0
VERTEX
5
a60d
8
0
10
27.278708
20
21.761196
30
0.000000
0
VERTEX
5
a61d
8
0
10
27.278708
20
21.761196
30
0.000000
0
VERTEX
5
a62d
8
0
10
27.215180
20
21.887989
30
0.000000
0
VERTEX
5
a63d
8
0
10
27.157026
20
22.014179
30
0.000000
0
VERTEX
5
a64d
8
0
10
27.104216
20
22.139764
30
0.000000
0
VERTEX
5
a65d
8
0
10
27.056717
20
22.264742
30
0.000000
0
VERTEX
5
a66d
8
0
10
27.014498
20
22.389111
30
0.000000
0
VERTEX
5
a67d
8
0
10
26.977526
20
22.512868
30
0.000000
0
VERTEX
5
a68d
8
0
10
26.945769
20
22.636010
30
0.000000
0
VERTEX
5
a69d
8
0
10
26.919194
20
22.758537
30
0.000000
0
VERTEX
5
a6ad
8
0
10
26.897771
20
22.880444
30
0.000000
0
VERTEX
5
a6bd
8
0
10
26.881467
20
23.001730
30
0.000000
0
VERTEX
5
a6cd
8
0
10
26.870250
20
23.122393
30
0.000000
0
VERTEX
5
a6dd
8
0
10
26.864087
20
23.242430
30
0.000000
0
VERTEX
5
a6ed
8
0
10
26.862947
20
23.361839
30
0.000000
0
VERTEX
5
a6fd
8
0
10
26.866797
20
23.480618
30
0.000000
0
VERTEX
5
a70d
8
0
10
26.875606
20
23.598764
30
0.000000
0
VERTEX
5
a71d
8
0
10
26.889342
20
23.716274
30
0.000000
0
VERTEX
5
a72d
8
0
10
26.907972
20
23.833147
30
0.000000
0
VERTEX
5
a73d
8
0
10
26.931464
20
23.949381
30
0.000000
0
VERTEX
5
a74d
8
0
10
26.959786
20
24.064972
30
0.000000
0
VERTEX
5
a75d
8
0
10
26.992907
20
24.179919
30
0.000000
0
VERTEX
5
a76d
8
0
10
27.030793
20
24.294219
30
0.000000
0
VERTEX
5
a77d
8
0
10
27.073413
20
24.407869
30
0.000000
0
VERTEX
5
a78d
8
0
10
27.120736
20
24.520869
30
0.000000
0
VERTEX
5
a79d
8
0
10
27.172728
20
24.633215
30
0.000000
0
VERTEX
5
a7ad
8
0
10
27.229358
20
24.744904
30
0.000000
0
VERTEX
5
a7bd
8
0
10
27.290593
20
24.855935
30
0.000000
0
VERTEX
5
a7cd
8
0
10
27.356402
20
24.966305
30
0.000000
0
VERTEX
5
a7dd
8
0
10
27.426753
20
25.076013
30
0.000000
0
VERTEX
5
a7ed
8
0
10
27.501613
20
25.185054
30
0.000000
0
VERTEX
5
a7fd
8
0
10
27.580951
20
25.293428
30
0.000000
0
VERTEX
5
a80d
8
0
10
27.664733
20
25.401132
30
0.000000
0
VERTEX
5
a81d
8
0
10
27.752929
20
25.508164
30
0.000000
0
SEQEND
5
a82d
8
0
0
POLYLINE
5
a83d
8
0
66
1
10
0
20
0
30
0
0
VERTEX
5
a84d
8
0
10
15.035906
20
24.865977
30
0.000000
0
VERTEX
5
a85d
8
0
10
15.758736
20
24.348538
30
0.000000
0
VERTEX
5
a86d
8
0
10
15.922922
20
24.075214
30
0.000000
0
VERTEX
5
a87d
8
0
10
15.432047
20
24.177513
30
0.000000
0
VERTEX
5
a88d
8
0
10
15.432047
20
24.177513
30
0.000000
0
VERTEX
5
a89d
8
0
10
15.226292
20
24.253584
30
0.000000
0
VERTEX
5
a8ad
8
0
10
15.024052
20
24.322264
30
0.000000
0
VERTEX
5
a8bd
8
0
10
14.924268
20
24.353787
30
0.000000
0
VERTEX
5
a8cd
8
0
10
14.825384
20
24.383409
30
0.000000
0
VERTEX
5
a8dd
8
0
10
14.727408
20
24.411112
30
0.000000
0
VERTEX
5
a8ed
8
0
10
14.630346
20
24.436879
30
0.000000
0
VERTEX
5
a8fd
8
0
10
14.534206
20
24.460692
30
0.000000
0
VERTEX
5
a90d
8
0
10
14.438996
20
24.482533
30
0.000000
0
VERTEX
5
a91d
8
0
10
14.344722
20
24.502385
30
0.000000
0
VERTEX
5
a92d
8
0
10
14.251391
20
24.520230
30
0.000000
0
VERTEX
5
a93d
8
0
10
14.159011
20
24.536050
30
0.000000
0
VERTEX
5
a94d
8
0
10
14.067589
20
24.549827
30
0.000000
0
VERTEX
5
a95d
8
0
10
13.977132
20
24.561545
30
0.000000
0
VERTEX
5
a96d
8
0
10
13.887648
20
24.571185
30
0.000000
0
VERTEX
5
a97d
8
0
10
13.799143
20
24.578729
30
0.000000
0
VERTEX
5
a98d
8
0
10
13.711624
20
24.584161
30
0.000000
0
VERTEX
5
a99d
8
0
10
13.625100
20
24.587462
30
0.000000
0
VERTEX
5
a9ad
8
0
10
13.539577
20
24.588615
30
0.000000
0
VERTEX
5
a9bd
8
0
10
13.455063
20
24.587601
30
0.000000
0
VERTEX
5
a9cd
8
0
10
13.371564
20
24.584404
30
0.000000
0
VERTEX
5
a9dd
8
0
10
13.289087
20
24.579006
30
0.000000
0
VERTEX
5
a9ed
8
0
10
13.207641
20
24.571389
30
0.000000
0
VERTEX
5
a9fd
8
0
10
13.127232
20
24.561535
30
0.000000
0
VERTEX
5
aa0d
8
0
10
13.047868
20
24.549427
30
0.000000
0
VERTEX
5
aa1d
8
0
10
12.969555
20
24.535047
30
0.000000
0
VERTEX
5
aa2d
8
0
10
12.892301
20
24.518377
30
0.000000
0
VERTEX
5
aa3d
8
0
10
12.816113
20
24.499401
30
0.000000
0
VERTEX
5
aa4d
8
0
10
12.740998
20
24.478099
30
0.000000
0
VERTEX
5
aa5d
8
0
10
12.666963
20
24.454455
30
0.000000
0
VERTEX
5
aa6d
8
0
10
12.594017
20
24.428450
30
0.000000
0
VERTEX
5
aa7d
8
0
10
12.522165
20
24.400068
30
0.000000
0
VERTEX
5
aa8d
8
0
10
12.451415
20
24.369290
30
0.000000
0
VERTEX
5
aa9d
8
0
10
12.381775
20
24.336100
30
0.000000
0
VERTEX
5
aaad
8
0
10
12.313251
20
24.300478
30
0.000000
0
VERTEX
5
aabd
8
0
10
12.245850
20
24.262408
30
0.000000
0
VERTEX
5
aacd
8
0
10
12.179581
20
24.221871
30
0.000000
0
VERTEX
5
aadd
8
0
10
12.114450
20
24.178851
30
0.000000
0
VERTEX
5
aaed
8
0
10
12.050464
20
24.133329
30
0.000000
0
VERTEX
5
aafd
8
0
10
11.987630
20
24.085289
30
0.000000
0
VERTEX
5
ab0d
8
0
10
11.925956
20
24.034711
30
0.000000
0
VERTEX
5
ab1d
8
0
10
11.865450
20
23.981579
30
0.000000
0
VERTEX
5
ab2d
8
0
10
11.806117
20
23.925875
30
0.000000
0
VERTEX
5
ab3d
8
0
10
11.747966
20
23.867581
30
0.000000
0
VERTEX
5
ab4d
8
0
10
11.691003
20
23.806680
30
0.000000
0
VERTEX
5
ab5d
8
0
10
11.635236
20
23.743154
30
0.000000
0
VERTEX
5
ab6d
8
0
10
11.580672
20
23.676985
30
0.000000
0
VERTEX
5
ab7d
8
0
10
11.527318
20
23.608155
30
0.000000
0
VERTEX
5
ab8d
8
0
10
11.475182
20
23.536648
30
0.000000
0
VERTEX
5
ab9d
8
0
10
11.424270
20
23.462445
30
0.000000
0
VERTEX
5
abad
8
0
10
11.374590
20
23.385529
30
0.000000
0
VERTEX
5
abbd
8
0
10
11.326148
20
23.305881
30
0.000000
0
VERTEX
5
abcd
8
0
10
11.278954
20
23.223485
30
0.000000
0
VERTEX
5
abdd
8
0
10
11.233012
20
23.138323
30
0.000000
0
VERTEX
5
abed
8
0
10
11.188331
20
23.050376
30
0.000000
0
VERTEX
5
abfd
8
0
10
11.144918
20
22.959628
30
0.000000
0
VERTEX
5
ac0d
8
0
10
11.102780
20
22.866061
30
0.000000
0
VERTEX
5
ac1d
8
0
10
11.061924
20
22.769657
30
0.000000
0
VERTEX
5
ac2d
8
0
10
11.022358
20
22.670398
30
0.000000
0
VERTEX
5
ac3d
8
0
10
10.984089
20
22.568267
30
0.000000
0
VERTEX
5
ac4d
8
0
10
10.947123
20
22.463246
30
0.000000
0
VERTEX
5
ac5d
8
0
10
10.911468
20
22.355317
30
0.000000
0
VERTEX
5
ac6d
8
0
10
10.877132
20
22.244463
30
0.000000
0
VERTEX
5
ac7d
8
0
10
10.877132
20
22.244463
30
0.000000
0
VERTEX
5
ac8d
8
0
10
10.890135
20
22.356427
30
0.000000
0
VERTEX
5
ac9d
8
0
10
10.904855
20
22.466097
30
0.000000
0
VERTEX
5
acad
8
0
10
10.921289
20
22.573476
30
0.000000
0
VERTEX
5
acbd
8
0
10
10.939433
20
22.678565
30
0.000000
0
VERTEX
5
accd
8
0
10
10.959283
20
22.781367
30
0.000000
0
VERTEX
5
acdd
8
0
10
10.980838
20
22.881882
30
0.000000
0
VERTEX
5
aced
8
0
10
11.004093
20
22.980113
30
0.000000
0
VERTEX
5
acfd
8
0
10
11.029045
20
23.076062
30
0.000000
0
VERTEX
5
ad0d
8
0
10
11.055691
20
23.169731
30
0.000000
0
VERTEX
5
ad1d
8
0
10
11.084028
20
23.261122
30
0.000000
0
VERTEX
5
ad2d
8
0
10
11.114053
20
23.350237
30
0.000000
0
VERTEX
5
ad3d
8
0
10
11.145762
20
23.437077
30
0.000000
0
VERTEX
5
ad4d
8
0
10
11.179153
20
23.521644
30
0.000000
0
VERTEX
5
ad5d
8
0
10
11.214221
20
23.603941
30
0.000000
0
VERTEX
5
ad6d
8
0
10
11.250964
20
23.683969
30
0.000000
0
VERTEX
5
ad7d
8
0
10
11.289379
20
23.761730
30
0.000000
0
VERTEX
5
ad8d
8
0
10
11.329462
20
23.837227
30
0.000000
0
VERTEX
5
ad9d
8
0
10
11.371210
20
23.910460
30
0.000000
0
VERTEX
5
adad
8
0
10
11.414620
20
23.981433
30
0.000000
0
VERTEX
5
adbd
8
0
10
11.459689
20
24.050146
30
0.000000
0
VERTEX
5
adcd
8
0
10
11.506413
20
24.116602
30
0.000000
0
VERTEX
5
addd
8
0
10
11.554789
20
24.180803
30
0.000000
0
VERTEX
5
aded
8
0
10
11.604814
20
24.242750
30
0.000000
0
VERTEX
5
adfd
8
0
10
11.656485
20
24.302446
30
0.000000
0
VERTEX
5
ae0d
8
0
10
11.709799
20
24.359892
30
0.000000
0
VERTEX
5
ae1d
8
0
10
11.764752
20
24.415090
30
0.000000
0
VERTEX
5
ae2d
8
0
10
11.821341
20
24.468043
30
0.000000
0
VERTEX
5
ae3d
8
0
10
11.879563
20
24.518752
30
0.000000
0
VERTEX
5
ae4d
8
0
10
11.939415
20
24.567218
30
0.000000
0
VERTEX
5
ae5d
8
0
10
12.000893
20
24.613445
30
0.000000
0
VERTEX
5
ae6d
8
0
10
12.063994
20
24.657434
30
0.000000
0
VERTEX
5
ae7d
8
0
10
12.128715
20
24.699186
30
0.000000
0
VERTEX
5
ae8d
8
0
10
12.195054
20
24.738705
30
0.000000
0
VERTEX
5
ae9d
8
0
10
12.263005
20
24.775990
30
0.000000
0
VERTEX
5
aead
8
0
10
12.332567
20
24.811046
30
0.000000
0
VERTEX
5
aebd
8
0
10
12.403737
20
24.843872
30
0.000000
0
VERTEX
5
aecd
8
0
10
12.476510
20
24.874472
30
0.000000
0
VERTEX
5
aedd
8
0
10
12.550884
20
24.902848
30
0.000000
0
VERTEX
5
aeed
8
0
10
12.626855
20
24.929000
30
0.000000
0
VERTEX
5
aefd
8
0
10
12.704421
20
24.952932
30
0.000000
0
VERTEX
5
af0d
8
0
10
12.783578
20
24.974644
30
0.000000
0
VERTEX
5
af1d
8
0
10
12.864322
20
24.994139
30
0.000000
0
VERTEX
5
af2d
8
0
10
12.946651
20
25.011420
30
0.000000
0
VERTEX
5
af3d
8
0
10
13.030562
20
25.026486
30
0.000000
0
VERTEX
5
af4d
8
0
10
13.116051
20
25.039342
30
0.000000
0
VERTEX
5
af5d
8
0
10
13.203114
20
25.049988
30
0.000000
0
VERTEX
5
af6d
8
0
10
13.291750
20
25.058426
30
0.000000
0
VERTEX
5
af7d
8
0
10
13.381954
20
25.064659
30
0.000000
0
VERTEX
5
af8d
8
0
10
13.473723
20
25.068688
30
0.000000
0
VERTEX
5
af9d
8
0
10
13.567054
20
25.070516
30
0.000000
0
VERTEX
5
afad
8
0
10
13.661944
20
25.070143
30
0.000000
0
VERTEX
5
afbd
8
0
10
13.758390
20
25.067572
30
0.000000
0
VERTEX
5
afcd
8
0
10
13.856388
20
25.062806
30
0.000000
0
VERTEX
5
afdd
8
0
10
13.955935
20
25.055845
30
0.000000
0
VERTEX
5
afed
8
0
10
14.057029
20
25.046692
30
0.000000
0
VERTEX
5
affd
8
0
10
14.159665
20
25.035348
30
0.000000
0
VERTEX
5
b00d
8
0
10
14.263840
20
25.021816
30
0.000000
0
VERTEX
5
b01d
8
0
10
14.369552
20
25.006098
30
0.000000
0
VERTEX
5
b02d
8
0
10
14.476797
20
24.988195
30
0.000000
0
VERTEX
5
b03d
8
0
10
14.585572
20
24.968109
30
0.000000
0
VERTEX
5
b04d
8
0
10
14.695873
20
24.945842
30
0.000000
0
VERTEX
5
b05d
8
0
10
14.807698
20
24.921397
30
0.000000
0
VERTEX
5
b06d
8
0
10
14.921044
20
24.894774
30
0.000000
0
VERTEX
5
b07d
8
0
10
15.035906
20
24.865977
30
0.000000
0
SEQEND
5
b08d
8
0
0
POLYLINE
5
b09d
8
0
66
1
10
0
20
0
30
0
0
VERTEX
5
b0ad
8
0
10
16.550074
20
22.609698
30
0.000000
0
VERTEX
5
b0bd
8
0
10
16.550074
20
22.609698
30
0.000000
0
VERTEX
5
b0cd
8
0
10
16.449336
20
22.297300
30
0.000000
0
VERTEX
5
b0dd
8
0
10
16.345777
20
21.992290
30
0.000000
0
VERTEX
5
b0ed
8
0
10
16.292851
20
21.842850
30
0.000000
0
VERTEX
5
b0fd
8
0
10
16.239115
20
21.695610
30
0.000000
0
VERTEX
5
b10d
8
0
10
16.184532
20
21.550690
30
0.000000
0
VERTEX
5
b11d
8
0
10
16.129067
20
21.408205
30
0.000000
0
VERTEX
5
b12d
8
0
10
16.072686
20
21.268276
30
0.000000
0
VERTEX
5
b13d
8
0
10
16.015353
20
21.131018
30
0.000000
0
VERTEX
5
b14d
8
0
10
15.957033
20
20.996551
30
0.000000
0
VERTEX
5
b15d
8
0
10
15.897690
20
20.864992
30
0.000000
0
VERTEX
5
b16d
8
0
10
15.837290
20
20.736459
30
0.000000
0
VERTEX
5
b17d
8
0
10
15.775796
20
20.611070
30
0.000000
0
VERTEX
5
b18d
8
0
10
15.713175
20
20.488943
30
0.000000
0
VERTEX
5
b19d
8
0
10
15.649391
20
20.370196
30
0.000000
0
VERTEX
5
b1ad
8
0
10
15.584408
20
20.254947
30
0.000000
0
VERTEX
5
b1bd
8
0
10
15.518191
20
20.143313
30
0.000000
0
VERTEX
5
b1cd
8
0
10
15.450706
20
20.035413
30
0.000000
0
VERTEX
5
b1dd
8
0
10
15.381916
20
19.931364
30
0.000000
0
VERTEX
5
b1ed
8
0
10
15.311787
20
19.831285
30
0.000000
0
VERTEX
5
b1fd
8
0
10
15.240283
20
19.735293
30
0.000000
0
VERTEX
5
b20d
8
0
10
15.167369
20
19.643507
30
0.000000
0
VERTEX
5
b21d
8
0
10
15.093010
20
19.556044
30
0.000000
0
VERTEX
5
b22d
8
0
10
15.017171
20
19.473021
30
0.000000
0
VERTEX
5
b23d
8
0
10
14.939817
20
19.394558
30
0.000000
0
VERTEX
5
b24d
8
0
10
14.860912
20
19.320772
30
0.000000
0
VERTEX
5
b25d
8
0
10
14.780420
20
19.251781
30
0.000000
0
VERTEX
5
b26d
8
0
10
14.698308
20
19.187702
30
0.000000
0
VERTEX
5
b27d
8
0
10
14.614539
20
19.128654
30
0.000000
0
VERTEX
5
b28d
8
0
10
14.529079
20
19.074755
30
0.000000
0
VERTEX
5
b29d
8
0
10
14.441891
20
19.026122
30
0.000000
0
VERTEX
5
b2ad
8
0
10
14.352942
20
18.982874
30
0.000000
0
VERTEX
5
b2bd
8
0
10
14.262195
20
18.945128
30
0.000000
0
VERTEX
5
b2cd
8
0
10
14.169616
20
18.913002
30
0.000000
0
VERTEX
5
b2dd
8
0
10
14.122628
20
18.899084
30
0.000000
0
VERTEX
5
b2ed
8
0
10
14.075169
20
18.886615
30
0.000000
0
VERTEX
5
b2fd
8
0
10
14.027234
20
18.875609
30
0.000000
0
VERTEX
5
b30d
8
0
10
13.978819
20
18.866083
30
0.000000
0
VERTEX
5
b31d
8
0
10
13.929919
20
18.858050
30
0.000000
0
VERTEX
5
b32d
8
0
10
13.880531
20
18.851526
30
0.000000
0
VERTEX
5
b33d
8
0
10
13.830649
20
18.846524
30
0.000000
0
VERTEX
5
b34d
8
0
10
13.780269
20
18.843060
30
0.000000
0
VERTEX
5
b35d
8
0
10
13.729387
20
18.841149
30
0.000000
0
VERTEX
5
b36d
8
0
10
13.677999
20
18.840805
30
0.000000
0
VERTEX
5
b37d
8
0
10
13.626100
20
18.842043
30
0.000000
0
VERTEX
5
b38d
8
0
10
13.573685
20
18.844877
30
0.000000
0
VERTEX
5
b39d
8
0
10
13.520750
20
18.849323
30
0.000000
0
VERTEX
5
b3ad
8
0
10
13.467292
20
18.855395
30
0.000000
0
VERTEX
5
b3bd
8
0
10
13.413304
20
18.863108
30
0.000000
0
VERTEX
5
b3cd
8
0
10
13.358784
20
18.872477
30
0.000000
0
VERTEX
5
b3dd
8
0
10
13.303727
20
18.883516
30
0.000000
0
VERTEX
5
b3ed
8
0
10
13.248127
20
18.896240
30
0.000000
0
VERTEX
5
b3fd
8
0
10
13.191982
20
18.910664
30
0.000000
0
VERTEX
5
b40d
8
0
10
13.135285
20
18.926802
30
0.000000
0
VERTEX
5
b41d
8
0
10
13.020224
20
18.964282
30
0.000000
0
VERTEX
5
b42d
8
0
10
12.902907
20
19.008797
30
0.000000
0
VERTEX
5
b43d
8
0
10
12.783299
20
19.060466
30
0.000000
0
VERTEX
5
b44d
8
0
10
12.661366
20
19.119405
30
0.000000
0
VERTEX
5
b45d
8
0
10
12.537072
20
19.185734
30
0.000000
0
VERTEX
5
b46d
8
0
10
12.410382
20
19.259569
30
0.000000
0
VERTEX
5
b47d
8
0
10
12.281260
20
19.341030
30
0.000000
0
VERTEX
5
b48d
8
0
10
12.149672
20
19.430233
30
0.000000
0
VERTEX
5
b49d
8
0
10
12.015583
20
19.527297
30
0.000000
0
VERTEX
5
b4ad
8
0
10
11.878956
20
19.632340
30
0.000000
0
VERTEX
5
b4bd
8
0
10
11.739757
20
19.745479
30
0.000000
0
VERTEX
5
b4cd
8
0
10
11.597950
20
19.866832
30
0.000000
0
VERTEX
5
b4dd
8
0
10
11.453501
20
19.996518
30
0.000000
0
VERTEX
5
b4ed
8
0
10
11.306374
20
20.134654
30
0.000000
0
VERTEX
5
b4fd
8
0
10
11.156534
20
20.281359
30
0.000000
0
VERTEX
5
b50d
8
0
10
11.003946
20
20.436749
30
0.000000
0
VERTEX
5
b51d
8
0
10
10.848574
20
20.600944
30
0.000000
0
VERTEX
5
b52d
8
0
10
10.690383
20
20.774060
30
0.000000
0
VERTEX
5
b53d
8
0
10
10.529338
20
20.956217
30
0.000000
0
VERTEX
5
b54d
8
0
10
10.529338
20
20.956217
30
0.000000
0
VERTEX
5
b55d
8
0
10
10.618045
20
20.941221
30
0.000000
0
VERTEX
5
b56d
8
0
10
10.704101
20
20.921636
30
0.000000
0
VERTEX
5
b57d
8
0
10
10.787691
20
20.897714
30
0.000000
0
VERTEX
5
b58d
8
0
10
10.869003
20
20.869708
30
0.000000
0
VERTEX
5
b59d
8
0
10
10.948222
20
20.837872
30
0.000000
0
VERTEX
5
b5ad
8
0
10
11.025533
20
20.802459
30
0.000000
0
VERTEX
5
b5bd
8
0
10
11.101125
20
20.763721
30
0.000000
0
VERTEX
5
b5cd
8
0
10
11.175182
20
20.721913
30
0.000000
0
VERTEX
5
b5dd
8
0
10
11.247890
20
20.677287
30
0.000000
0
VERTEX
5
b5ed
8
0
10
11.319436
20
20.630096
30
0.000000
0
VERTEX
5
b5fd
8
0
10
11.390007
20
20.580593
30
0.000000
0
VERTEX
5
b60d
8
0
10
11.459787
20
20.529032
30
0.000000
0
VERTEX
5
b61d
8
0
10
11.528964
20
20.475665
30
0.000000
0
VERTEX
5
b62d
8
0
10
11.597723
20
20.420746
30
0.000000
0
VERTEX
5
b63d
8
0
10
11.734734
20
20.307264
30
0.000000
0
VERTEX
5
b64d
8
0
10
12.011934
20
20.072809
30
0.000000
0
VERTEX
5
b65d
8
0
10
12.155102
20
19.955887
30
0.000000
0
VERTEX
5
b66d
8
0
10
12.228479
20
19.898388
30
0.000000
0
VERTEX
5
b67d
8
0
10
12.303301
20
19.841868
30
0.000000
0
VERTEX
5
b68d
8
0
10
12.379752
20
19.786580
30
0.000000
0
VERTEX
5
b69d
8
0
10
12.458020
20
19.732777
30
0.000000
0
VERTEX
5
b6ad
8
0
10
12.538290
20
19.680713
30
0.000000
0
VERTEX
5
b6bd
8
0
10
12.620748
20
19.630640
30
0.000000
0
VERTEX
5
b6cd
8
0
10
12.705581
20
19.582811
30
0.000000
0
VERTEX
5
b6dd
8
0
10
12.792975
20
19.537480
30
0.000000
0
VERTEX
5
b6ed
8
0
10
12.883116
20
19.494900
30
0.000000
0
VERTEX
5
b6fd
8
0
10
12.976190
20
19.455324
30
0.000000
0
VERTEX
5
b70d
8
0
10
12.976190
20
19.455324
30
0.000000
0
VERTEX
5
b71d
8
0
10
12.864824
20
19.770823
30
0.000000
0
VERTEX
5
b72d
8
0
10
12.750395
20
20.087525
30
0.000000
0
VERTEX
5
b73d
8
0
10
12.637531
20
20.404771
30
0.000000
0
VERTEX
5
b74d
8
0
10
12.583134
20
20.563393
30
0.000000
0
VERTEX
5
b75d
8
0
10
12.530864
20
20.721906
30
0.000000
0
VERTEX
5
b76d
8
0
10
12.481302
20
20.880226
30
0.000000
0
VERTEX
5
b77d
8
0
10
12.435025
20
21.038272
30
0.000000
0
VERTEX
5
b78d
8
0
10
12.392612
20
21.195961
30
0.000000
0
VERTEX
5
b79d
8
0
10
12.354643
20
21.353213
30
0.000000
0
VERTEX
5
b7ad
8
0
10
12.321696
20
21.509944
30
0.000000
0
VERTEX
5
b7bd
8
0
10
12.294350
20
21.666072
30
0.000000
0
VERTEX
5
b7cd
8
0
10
12.282958
20
21.743884
30
0.000000
0
VERTEX
5
b7dd
8
0
10
12.273183
20
21.821515
30
0.000000
0
VERTEX
5
b7ed
8
0
10
12.265098
20
21.898954
30
0.000000
0
VERTEX
5
b7fd
8
0
10
12.258775
20
21.976192
30
0.000000
0
VERTEX
5
b80d
8
0
10
12.254286
20
22.053217
30
0.000000
0
VERTEX
5
b81d
8
0
10
12.251704
20
22.130020
30
0.000000
0
VERTEX
5
b82d
8
0
10
12.251101
20
22.206589
30
0.000000
0
VERTEX
5
b83d
8
0
10
12.252550
20
22.282916
30
0.000000
0
VERTEX
5
b84d
8
0
10
12.256122
20
22.358990
30
0.000000
0
VERTEX
5
b85d
8
0
10
12.261890
20
22.434800
30
0.000000
0
VERTEX
5
b86d
8
0
10
12.269927
20
22.510336
30
0.000000
0
VERTEX
5
b87d
8
0
10
12.280305
20
22.585588
30
0.000000
0
VERTEX
5
b88d
8
0
10
12.293095
20
22.660546
30
0.000000
0
VERTEX
5
b89d
8
0
10
12.308371
20
22.735200
30
0.000000
0
VERTEX
5
b8ad
8
0
10
12.326205
20
22.809538
30
0.000000
0
VERTEX
5
b8bd
8
0
10
12.346670
20
22.883551
30
0.000000
0
VERTEX
5
b8cd
8
0
10
12.369837
20
22.957229
30
0.000000
0
VERTEX
5
b8dd
8
0
10
12.395778
20
23.030562
30
0.000000
0
VERTEX
5
b8ed
8
0
10
12.424567
20
23.103538
30
0.000000
0
VERTEX
5
b8fd
8
0
10
12.456276
20
23.176148
30
0.000000
0
VERTEX
5
b90d
8
0
10
12.490976
20
23.248382
30
0.000000
0
VERTEX
5
b91d
8
0
10
12.528741
20
23.320229
30
0.000000
0
VERTEX
5
b92d
8
0
10
12.569643
20
23.391680
30
0.000000
0
VERTEX
5
b93d
8
0
10
12.613754
20
23.462723
30
0.000000
0
VERTEX
5
b94d
8
0
10
12.661146
20
23.533348
30
0.000000
0
VERTEX
5
b95d
8
0
10
12.711891
20
23.603546
30
0.000000
0
VERTEX
5
b96d
8
0
10
12.766063
20
23.673306
30
0.000000
0
VERTEX
5
b97d
8
0
10
12.823733
20
23.742617
30
0.000000
0
VERTEX
5
b98d
8
0
10
12.884974
20
23.811470
30
0.000000
0
VERTEX
5
b99d
8
0
10
12.949858
20
23.879854
30
0.000000
0
VERTEX
5
b9ad
8
0
10
13.018458
20
23.947760
30
0.000000
0
VERTEX
5
b9bd
8
0
10
13.090846
20
24.015175
30
0.000000
0
VERTEX
5
b9cd
8
0
10
13.167093
20
24.082092
30
0.000000
0
VERTEX
5
b9dd
8
0
10
13.247274
20
24.148498
30
0.000000
0
VERTEX
5
b9ed
8
0
10
13.331459
20
24.214385
30
0.000000
0
VERTEX
5
b9fd
8
0
10
13.419721
20
24.279741
30
0.000000
0
VERTEX
5
ba0d
8
0
10
14.792868
20
24.285268
30
0.000000
0
VERTEX
5
ba1d
8
0
10
16.550074
20
22.609698
30
0.000000
0
SEQEND
5
ba2d
8
0
0
POLYLINE
5
ba3d
8
0
66
1
10
0
20
0
30
0
0
VERTEX
5
ba4d
8
0
10
37.989355
20
9.139981
30
0.000000
0
VERTEX
5
ba5d
8
0
10
36.659764
20
9.145308
30
0.000000
0
VERTEX
5
ba6d
8
0
10
36.071586
20
9.732799
30
0.000000
0
VERTEX
5
ba7d
8
0
10
36.795532
20
9.941795
30
0.000000
0
VERTEX
5
ba8d
8
0
10
36.795532
20
9.941795
30
0.000000
0
VERTEX
5
ba9d
8
0
10
36.692411
20
10.022314
30
0.000000
0
VERTEX
5
baad
8
0
10
36.595747
20
10.103334
30
0.000000
0
VERTEX
5
babd
8
0
10
36.506261
20
10.185109
30
0.000000
0
VERTEX
5
bacd
8
0
10
36.464434
20
10.226359
30
0.000000
0
VERTEX
5
badd
8
0
10
36.424671
20
10.267892
30
0.000000
0
VERTEX
5
baed
8
0
10
36.387061
20
10.309742
30
0.000000
0
VERTEX
5
bafd
8
0
10
36.351695
20
10.351938
30
0.000000
0
VERTEX
5
bb0d
8
0
10
36.318662
20
10.394514
30
0.000000
0
VERTEX
5
bb1d
8
0
10
36.288052
20
10.437501
30
0.000000
0
VERTEX
5
bb2d
8
0
10
36.259956
20
10.480930
30
0.000000
0
VERTEX
5
bb3d
8
0
10
36.234463
20
10.524834
30
0.000000
0
VERTEX
5
bb4d
8
0
10
36.211662
20
10.569244
30
0.000000
0
VERTEX
5
bb5d
8
0
10
36.191644
20
10.614191
30
0.000000
0
VERTEX
5
bb6d
8
0
10
36.174499
20
10.659709
30
0.000000
0
VERTEX
5
bb7d
8
0
10
36.160316
20
10.705827
30
0.000000
0
VERTEX
5
bb8d
8
0
10
36.149186
20
10.752579
30
0.000000
0
VERTEX
5
bb9d
8
0
10
36.141197
20
10.799995
30
0.000000
0
VERTEX
5
bbad
8
0
10
36.136441
20
10.848108
30
0.000000
0
VERTEX
5
bbbd
8
0
10
36.135007
20
10.896949
30
0.000000
0
VERTEX
5
bbcd
8
0
10
36.136984
20
10.946551
30
0.000000
0
VERTEX
5
bbdd
8
0
10
36.142463
20
10.996944
30
0.000000
0
VERTEX
5
bbed
8
0
10
36.151533
20
11.048160
30
0.000000
0
VERTEX
5
bbfd
8
0
10
36.164285
20
11.100232
30
0.000000
0
VERTEX
5
bc0d
8
0
10
36.180808
20
11.153191
30
0.000000
0
VERTEX
5
bc1d
8
0
10
36.201192
20
11.207068
30
0.000000
0
VERTEX
5
bc2d
8
0
10
36.225527
20
11.261896
30
0.000000
0
VERTEX
5
bc3d
8
0
10
36.253903
20
11.317707
30
0.000000
0
VERTEX
5
bc4d
8
0
10
36.286410
20
11.374531
30
0.000000
0
VERTEX
5
bc5d
8
0
10
36.323137
20
11.432401
30
0.000000
0
VERTEX
5
bc6d
8
0
10
35.234646
20
12.187644
30
0.000000
0
VERTEX
5
bc7d
8
0
10
35.234646
20
12.187644
30
0.000000
0
VERTEX
5
bc8d
8
0
10
35.205579
20
12.126855
30
0.000000
0
VERTEX
5
bc9d
8
0
10
35.179505
20
12.066740
30
0.000000
0
VERTEX
5
bcad
8
0
10
35.156347
20
12.007279
30
0.000000
0
VERTEX
5
bcbd
8
0
10
35.136025
20
11.948452
30
0.000000
0
VERTEX
5
bccd
8
0
10
35.118463
20
11.890239
30
0.000000
0
VERTEX
5
bcdd
8
0
10
35.103582
20
11.832622
30
0.000000
0
VERTEX
5
bced
8
0
10
35.091303
20
11.775579
30
0.000000
0
VERTEX
5
bcfd
8
0
10
35.081548
20
11.719092
30
0.000000
0
VERTEX
5
bd0d
8
0
10
35.074239
20
11.663141
30
0.000000
0
VERTEX
5
bd1d
8
0
10
35.069298
20
11.607705
30
0.000000
0
VERTEX
5
bd2d
8
0
10
35.066647
20
11.552767
30
0.000000
0
VERTEX
5
bd3d
8
0
10
35.066207
20
11.498304
30
0.000000
0
VERTEX
5
bd4d
8
0
10
35.067900
20
11.444299
30
0.000000
0
VERTEX
5
bd5d
8
0
10
35.071647
20
11.390731
30
0.000000
0
VERTEX
5
bd6d
8
0
10
35.077372
20
11.337580
30
0.000000
0
VERTEX
5
bd7d
8
0
10
35.084994
20
11.284828
30
0.000000
0
VERTEX
5
bd8d
8
0
10
35.094437
20
11.232454
30
0.000000
0
VERTEX
5
bd9d
8
0
10
35.105622
20
11.180438
30
0.000000
0
VERTEX
5
bdad
8
0
10
35.118470
20
11.128761
30
0.000000
0
VERTEX
5
bdbd
8
0
10
35.132904
20
11.077403
30
0.000000
0
VERTEX
5
bdcd
8
0
10
35.166215
20
10.975567
30
0.000000
0
VERTEX
5
bddd
8
0
10
35.204928
20
10.874770
30
0.000000
0
VERTEX
5
bded
8
0
10
35.248419
20
10.774857
30
0.000000
0
VERTEX
5
bdfd
8
0
10
35.296060
20
10.675668
30
0.000000
0
VERTEX
5
be0d
8
0
10
35.347226
20
10.577048
30
0.000000
0
VERTEX
5
be1d
8
0
10
35.401291
20
10.478838
30
0.000000
0
VERTEX
5
be2d
8
0
10
35.457630
20
10.380880
30
0.000000
0
VERTEX
5
be3d
8
0
10
35.515616
20
10.283018
30
0.000000
0
VERTEX
5
be4d
8
0
10
35.634026
20
10.086949
30
0.000000
0
VERTEX
5
be5d
8
0
10
35.751514
20
9.889371
30
0.000000
0
VERTEX
5
be6d
8
0
10
35.808348
20
9.789623
30
0.000000
0
VERTEX
5
be7d
8
0
10
35.863074
20
9.689024
30
0.000000
0
VERTEX
5
be8d
8
0
10
35.915065
20
9.587418
30
0.000000
0
VERTEX
5
be9d
8
0
10
35.963697
20
9.484647
30
0.000000
0
VERTEX
5
bead
8
0
10
36.008343
20
9.380554
30
0.000000
0
VERTEX
5
bebd
8
0
10
36.048377
20
9.274981
30
0.000000
0
VERTEX
5
becd
8
0
10
36.083174
20
9.167770
30
0.000000
0
VERTEX
5
bedd
8
0
10
36.098412
20
9.113502
30
0.000000
0
VERTEX
5
beed
8
0
10
36.112106
20
9.058765
30
0.000000
0
VERTEX
5
befd
8
0
10
36.124179
20
9.003540
30
0.000000
0
VERTEX
5
bf0d
8
0
10
36.134550
20
8.947807
30
0.000000
0
VERTEX
5
bf1d
8
0
10
36.143143
20
8.891547
30
0.000000
0
VERTEX
5
bf2d
8
0
10
36.149878
20
8.834739
30
0.000000
0
VERTEX
5
bf3d
8
0
10
36.149878
20
8.834739
30
0.000000
0
VERTEX
5
bf4d
8
0
10
36.061062
20
8.933560
30
0.000000
0
VERTEX
5
bf5d
8
0
10
35.969989
20
9.030768
30
0.000000
0
VERTEX
5
bf6d
8
0
10
35.876939
20
9.126571
30
0.000000
0
VERTEX
5
bf7d
8
0
10
35.782190
20
9.221179
30
0.000000
0
VERTEX
5
bf8d
8
0
10
35.588715
20
9.407646
30
0.000000
0
VERTEX
5
bf9d
8
0
10
35.391796
20
9.591839
30
0.000000
0
VERTEX
5
bfad
8
0
10
35.193666
20
9.775432
30
0.000000
0
VERTEX
5
bfbd
8
0
10
34.996557
20
9.960096
30
0.000000
0
VERTEX
5
bfcd
8
0
10
34.899083
20
10.053353
30
0.000000
0
VERTEX
5
bfdd
8
0
10
34.802702
20
10.147505
30
0.000000
0
VERTEX
5
bfed
8
0
10
34.707693
20
10.242761
30
0.000000
0
VERTEX
5
bffd
8
0
10
34.614334
20
10.339330
30
0.000000
0
VERTEX
5
c00d
8
0
10
34.522905
20
10.437421
30
0.000000
0
VERTEX
5
c01d
8
0
10
34.433685
20
10.537243
30
0.000000
0
VERTEX
5
c02d
8
0
10
34.346953
20
10.639005
30
0.000000
0
VERTEX
5
c03d
8
0
10
34.262988
20
10.742917
30
0.000000
0
VERTEX
5
c04d
8
0
10
34.182069
20
10.849187
30
0.000000
0
VERTEX
5
c05d
8
0
10
34.104475
20
10.958024
30
0.000000
0
VERTEX
5
c06d
8
0
10
34.030486
20
11.069638
30
0.000000
0
VERTEX
5
c07d
8
0
10
33.960380
20
11.184237
30
0.000000
0
VERTEX
5
c08d
8
0
10
33.894437
20
11.302030
30
0.000000
0
VERTEX
5
c09d
8
0
10
33.832935
20
11.423227
30
0.000000
0
VERTEX
5
c0ad
8
0
10
33.803937
20
11.485167
30
0.000000
0
VERTEX
5
c0bd
8
0
10
33.776154
20
11.548037
30
0.000000
0
VERTEX
5
c0cd
8
0
10
33.749621
20
11.611861
30
0.000000
0
VERTEX
5
c0dd
8
0
10
33.724372
20
11.676667
30
0.000000
0
VERTEX
5
c0ed
8
0
10
33.700444
20
11.742481
30
0.000000
0
VERTEX
5
c0fd
8
0
10
33.677870
20
11.809329
30
0.000000
0
VERTEX
5
c10d
8
0
10
33.656685
20
11.877237
30
0.000000
0
VERTEX
5
c11d
8
0
10
33.636925
20
11.946230
30
0.000000
0
VERTEX
5
c12d
8
0
10
33.618624
20
12.016336
30
0.000000
0
VERTEX
5
c13d
8
0
10
33.601817
20
12.087580
30
0.000000
0
VERTEX
5
c14d
8
0
10
33.586539
20
12.159988
30
0.000000
0
VERTEX
5
c15d
8
0
10
33.572825
20
12.233587
30
0.000000
0
VERTEX
5
c16d
8
0
10
33.572825
20
12.233587
30
0.000000
0
VERTEX
5
c17d
8
0
10
33.645320
20
12.320912
30
0.000000
0
VERTEX
5
c18d
8
0
10
33.718845
20
12.403094
30
0.000000
0
VERTEX
5
c19d
8
0
10
33.793392
20
12.480220
30
0.000000
0
VERTEX
5
c1ad
8
0
10
33.868949
20
12.552376
30
0.000000
0
VERTEX
5
c1bd
8
0
10
33.945507
20
12.619648
30
0.000000
0
VERTEX
5
c1cd
8
0
10
34.023056
20
12.682123
30
0.000000
0
VERTEX
5
c1dd
8
0
10
34.101586
20
12.739887
30
0.000000
0
VERTEX
5
c1ed
8
0
10
34.181087
20
12.793026
30
0.000000
0
VERTEX
5
c1fd
8
0
10
34.261549
20
12.841626
30
0.000000
0
VERTEX
5
c20d
8
0
10
34.342961
20
12.885774
30
0.000000
0
VERTEX
5
c21d
8
0
10
34.425314
20
12.925556
30
0.000000
0
VERTEX
5
c22d
8
0
10
34.508597
20
12.961058
30
0.000000
0
VERTEX
5
c23d
8
0
10
34.592801
20
12.992366
30
0.000000
0
VERTEX
5
c24d
8
0
10
34.677915
20
13.019567
30
0.000000
0
VERTEX
5
c25d
8
0
10
34.763929
20
13.042747
30
0.000000
0
VERTEX
5
c26d
8
0
10
34.850834
20
13.061992
30
0.000000
0
VERTEX
5
c27d
8
0
10
34.938620
20
13.077389
30
0.000000
0
VERTEX
5
c28d
8
0
10
35.027275
20
13.089023
30
0.000000
0
VERTEX
5
c29d
8
0
10
35.116791
20
13.096981
30
0.000000
0
VERTEX
5
c2ad
8
0
10
35.207157
20
13.101349
30
0.000000
0
VERTEX
5
c2bd
8
0
10
35.298363
20
13.102214
30
0.000000
0
VERTEX
5
c2cd
8
0
10
35.390399
20
13.099662
30
0.000000
0
VERTEX
5
c2dd
8
0
10
35.483255
20
13.093778
30
0.000000
0
VERTEX
5
c2ed
8
0
10
35.576920
20
13.084649
30
0.000000
0
VERTEX
5
c2fd
8
0
10
35.671386
20
13.072362
30
0.000000
0
VERTEX
5
c30d
8
0
10
35.766642
20
13.057003
30
0.000000
0
VERTEX
5
c31d
8
0
10
35.862677
20
13.038658
30
0.000000
0
VERTEX
5
c32d
8
0
10
35.959482
20
13.017413
30
0.000000
0
VERTEX
5
c33d
8
0
10
36.057047
20
12.993354
30
0.000000
0
VERTEX
5
c34d
8
0
10
36.155362
20
12.966568
30
0.000000
0
VERTEX
5
c35d
8
0
10
36.254416
20
12.937141
30
0.000000
0
VERTEX
5
c36d
8
0
10
36.354199
20
12.905160
30
0.000000
0
VERTEX
5
c37d
8
0
10
36.354199
20
12.905160
30
0.000000
0
VERTEX
5
c38d
8
0
10
36.354596
20
12.836365
30
0.000000
0
VERTEX
5
c39d
8
0
10
36.357098
20
12.768628
30
0.000000
0
VERTEX
5
c3ad
8
0
10
36.361699
20
12.701954
30
0.000000
0
VERTEX
5
c3bd
8
0
10
36.368397
20
12.636347
30
0.000000
0
VERTEX
5
c3cd
8
0
10
36.377186
20
12.571810
30
0.000000
0
VERTEX
5
c3dd
8
0
10
36.388063
20
12.508348
30
0.000000
0
VERTEX
5
c3ed
8
0
10
36.401024
20
12.445964
30
0.000000
0
VERTEX
5
c3fd
8
0
10
36.416064
20
12.384664
30
0.000000
0
VERTEX
5
c40d
8
0
10
36.433180
20
12.324451
30
0.000000
0
VERTEX
5
c41d
8
0
10
36.452367
20
12.265329
30
0.000000
0
VERTEX
5
c42d
8
0
10
36.473621
20
12.207302
30
0.000000
0
VERTEX
5
c43d
8
0
10
36.496938
20
12.150374
30
0.000000
0
VERTEX
5
c44d
8
0
10
36.522314
20
12.094551
30
0.000000
0
VERTEX
5
c45d
8
0
10
36.549744
20
12.039834
30
0.000000
0
VERTEX
5
c46d
8
0
10
36.579225
20
11.986230
30
0.000000
0
VERTEX
5
c47d
8
0
10
36.610753
20
11.933741
30
0.000000
0
VERTEX
5
c48d
8
0
10
36.644322
20
11.882373
30
0.000000
0
VERTEX
5
c49d
8
0
10
36.679930
20
11.832128
30
0.000000
0
VERTEX
5
c4ad
8
0
10
36.717572
20
11.783012
30
0.000000
0
VERTEX
5
c4bd
8
0
10
36.757244
20
11.735028
30
0.000000
0
VERTEX
5
c4cd
8
0
10
36.798942
20
11.688180
30
0.000000
0
VERTEX
5
c4dd
8
0
10
36.842661
20
11.642473
30
0.000000
0
VERTEX
5
c4ed
8
0
10
36.888398
20
11.597910
30
0.000000
0
VERTEX
5
c4fd
8
0
10
36.936148
20
11.554496
30
0.000000
0
VERTEX
5
c50d
8
0
10
36.985907
20
11.512235
30
0.000000
0
VERTEX
5
c51d
8
0
10
37.037671
20
11.471131
30
0.000000
0
VERTEX
5
c52d
8
0
10
37.091437
20
11.431188
30
0.000000
0
VERTEX
5
c53d
8
0
10
37.147199
20
11.392410
30
0.000000
0
VERTEX
5
c54d
8
0
10
37.204954
20
11.354801
30
0.000000
0
VERTEX
5
c55d
8
0
10
37.264697
20
11.318366
30
0.000000
0
VERTEX
5
c56d
8
0
10
37.326425
20
11.283108
30
0.000000
0
VERTEX
5
c57d
8
0
10
37.390133
20
11.249032
30
0.000000
0
VERTEX
5
c58d
8
0
10
37.390133
20
11.249032
30
0.000000
0
VERTEX
5
c59d
8
0
10
37.342464
20
11.199094
30
0.000000
0
VERTEX
5
c5ad
8
0
10
37.299441
20
11.150543
30
0.000000
0
VERTEX
5
c5bd
8
0
10
37.260926
20
11.103338
30
0.000000
0
VERTEX
5
c5cd
8
0
10
37.226781
20
11.057438
30
0.000000
0
VERTEX
5
c5dd
8
0
10
37.196871
20
11.012801
30
0.000000
0
VERTEX
5
c5ed
8
0
10
37.171057
20
10.969388
30
0.000000
0
VERTEX
5
c5fd
8
0
10
37.149203
20
10.927156
30
0.000000
0
VERTEX
5
c60d
8
0
10
37.131172
20
10.886066
30
0.000000
0
VERTEX
5
c61d
8
0
10
37.116825
20
10.846075
30
0.000000
0
VERTEX
5
c62d
8
0
10
37.106026
20
10.807143
30
0.000000
0
VERTEX
5
c63d
8
0
10
37.098639
20
10.769229
30
0.000000
0
VERTEX
5
c64d
8
0
10
37.094525
20
10.732292
30
0.000000
0
VERTEX
5
c65d
8
0
10
37.093547
20
10.696290
30
0.000000
0
VERTEX
5
c66d
8
0
10
37.095569
20
10.661183
30
0.000000
0
VERTEX
5
c67d
8
0
10
37.100453
20
10.626930
30
0.000000
0
VERTEX
5
c68d
8
0
10
37.108062
20
10.593489
30
0.000000
0
VERTEX
5
c69d
8
0
10
37.118258
20
10.560820
30
0.000000
0
VERTEX
5
c6ad
8
0
10
37.130906
20
10.528882
30
0.000000
0
VERTEX
5
c6bd
8
0
10
37.145867
20
10.497633
30
0.000000
0
VERTEX
5
c6cd
8
0
10
37.163004
20
10.467033
30
0.000000
0
VERTEX
5
c6dd
8
0
10
37.182180
20
10.437041
30
0.000000
0
VERTEX
5
c6ed
8
0
10
37.203258
20
10.407615
30
0.000000
0
VERTEX
5
c6fd
8
0
10
37.226101
20
10.378714
30
0.000000
0
VERTEX
5
c70d
8
0
10
37.250572
20
10.350298
30
0.000000
0
VERTEX
5
c71d
8
0
10
37.303848
20
10.294755
30
0.000000
0
VERTEX
5
c72d
8
0
10
37.361988
20
10.240658
30
0.000000
0
VERTEX
5
c73d
8
0
10
37.423895
20
10.187679
30
0.000000
0
VERTEX
5
c74d
8
0
10
37.488472
20
10.135489
30
0.000000
0
VERTEX
5
c75d
8
0
10
37.621246
20
10.032163
30
0.000000
0
VERTEX
5
c76d
8
0
10
37.687249
20
9.980371
30
0.000000
0
VERTEX
5
c77d
8
0
10
37.751531
20
9.928056
30
0.000000
0
VERTEX
5
c78d
8
0
10
37.812997
20
9.874889
30
0.000000
0
VERTEX
5
c79d
8
0
10
37.870548
20
9.820543
30
0.000000
0
VERTEX
5
c7ad
8
0
10
37.923088
20
9.764688
30
0.000000
0
VERTEX
5
c7bd
8
0
10
37.947136
20
9.736093
30
0.000000
0
VERTEX
5
c7cd
8
0
10
37.969519
20
9.706997
30
0.000000
0
VERTEX
5
c7dd
8
0
10
37.990100
20
9.677360
30
0.000000
0
VERTEX
5
c7ed
8
0
10
38.008743
20
9.647142
30
0.000000
0
VERTEX
5
c7fd
8
0
10
38.025310
20
9.616300
30
0.000000
0
VERTEX
5
c80d
8
0
10
38.039663
20
9.584793
30
0.000000
0
VERTEX
5
c81d
8
0
10
38.051667
20
9.552582
30
0.000000
0
VERTEX
5
c82d
8
0
10
38.061183
20
9.519625
30
0.000000
0
VERTEX
5
c83d
8
0
10
38.068074
20
9.485880
30
0.000000
0
VERTEX
5
c84d
8
0
10
38.072203
20
9.451307
30
0.000000
0
VERTEX
5
c85d
8
0
10
38.073434
20
9.415864
30
0.000000
0
VERTEX
5
c86d
8
0
10
38.071628
20
9.379511
30
0.000000
0
VERTEX
5
c87d
8
0
10
38.066649
20
9.342207
30
0.000000
0
VERTEX
5
c88d
8
0
10
38.058360
20
9.303911
30
0.000000
0
VERTEX
5
c89d
8
0
10
38.046623
20
9.264581
30
0.000000
0
VERTEX
5
c8ad
8
0
10
38.031301
20
9.224177
30
0.000000
0
VERTEX
5
c8bd
8
0
10
38.012258
20
9.182657
30
0.000000
0
VERTEX
5
c8cd
8
0
10
37.989355
20
9.139981
30
0.000000
0
SEQEND
5
c8dd
8
0
0
ENDSEC
0
EOF
