0
SECTION
2
ENTITIES
0
POLYLINE
5
3fd
8
0
66
1
10
0
20
0
30
0
0
VERTEX
5
40d
8
0
10
2.094081
20
47.672741
30
0.000000
0
VERTEX
5
41d
8
0
10
48.910994
20
47.672741
30
0.000000
0
VERTEX
5
42d
8
0
10
48.910994
20
2.285495
30
0.000000
0
VERTEX
5
43d
8
0
10
2.094081
20
2.285495
30
0.000000
0
VERTEX
5
44d
8
0
10
2.094081
20
47.672741
30
0.000000
0
SEQEND
5
45d
8
0
0
POLYLINE
5
46d
8
0
66
1
10
0
20
0
30
0
0
VERTEX
5
47d
8
0
10
8.681638
20
43.208421
30
0.000000
0
VERTEX
5
48d
8
0
10
22.999587
20
13.734823
30
0.000000
0
VERTEX
5
49d
8
0
10
22.999587
20
13.734823
30
0.000000
0
VERTEX
5
4ad
8
0
10
22.816071
20
13.750630
30
0.000000
0
VERTEX
5
4bd
8
0
10
22.634383
20
13.769486
30
0.000000
0
VERTEX
5
4cd
8
0
10
22.454503
20
13.791355
30
0.000000
0
VERTEX
5
4dd
8
0
10
22.276409
20
13.816201
30
0.000000
0
VERTEX
5
4ed
8
0
10
22.100080
20
13.843989
30
0.000000
0
VERTEX
5
4fd
8
0
10
21.925493
20
13.874680
30
0.000000
0
VERTEX
5
50d
8
0
10
21.752629
20
13.908241
30
0.000000
0
VERTEX
5
51d
8
0
10
21.581465
20
13.944633
30
0.000000
0
VERTEX
5
52d
8
0
10
21.411979
20
13.983821
30
0.000000
0
VERTEX
5
53d
8
0
10
21.244151
20
14.025769
30
0.000000
0
VERTEX
5
54d
8
0
10
21.077959
20
14.070440
30
0.000000
0
VERTEX
5
55d
8
0
10
20.913382
20
14.117799
30
0.000000
0
VERTEX
5
56d
8
0
10
20.750397
20
14.167808
30
0.000000
0
VERTEX
5
57d
8
0
10
20.588984
20
14.220433
30
0.000000
0
VERTEX
5
58d
8
0
10
20.429121
20
14.275635
30
0.000000
0
VERTEX
5
59d
8
0
10
20.270787
20
14.333380
30
0.000000
0
VERTEX
5
5ad
8
0
10
20.113959
20
14.393631
30
0.000000
0
VERTEX
5
5bd
8
0
10
19.958618
20
14.456352
30
0.000000
0
VERTEX
5
5cd
8
0
10
19.804741
20
14.521507
30
0.000000
0
VERTEX
5
5dd
8
0
10
19.652306
20
14.589058
30
0.000000
0
VERTEX
5
5ed
8
0
10
19.501293
20
14.658971
30
0.000000
0
VERTEX
5
5fd
8
0
10
19.351680
20
14.731209
30
0.000000
0
VERTEX
5
60d
8
0
10
19.203446
20
14.805735
30
0.000000
0
VERTEX
5
61d
8
0
10
19.056568
20
14.882514
30
0.000000
0
VERTEX
5
62d
8
0
10
18.911026
20
14.961509
30
0.000000
0
VERTEX
5
63d
8
0
10
18.766798
20
15.042684
30
0.000000
0
VERTEX
5
64d
8
0
10
18.623863
20
15.126002
30
0.000000
0
VERTEX
5
65d
8
0
10
18.482199
20
15.211428
30
0.000000
0
VERTEX
5
66d
8
0
10
18.341784
20
15.298926
30
0.000000
0
VERTEX
5
67d
8
0
10
18.202598
20
15.388458
30
0.000000
0
VERTEX
5
68d
8
0
10
18.064619
20
15.479989
30
0.000000
0
VERTEX
5
69d
8
0
10
17.927825
20
15.573483
30
0.000000
0
VERTEX
5
6ad
8
0
10
17.792195
20
15.668903
30
0.000000
0
VERTEX
5
6bd
8
0
10
17.657707
20
15.766213
30
0.000000
0
VERTEX
5
6cd
8
0
10
17.524341
20
15.865376
30
0.000000
0
VERTEX
5
6dd
8
0
10
17.392074
20
15.966358
30
0.000000
0
VERTEX
5
6ed
8
0
10
17.260885
20
16.069121
30
0.000000
0
VERTEX
5
6fd
8
0
10
17.130753
20
16.173629
30
0.000000
0
VERTEX
5
70d
8
0
10
17.001656
20
16.279846
30
0.000000
0
VERTEX
5
71d
8
0
10
16.873573
20
16.387735
30
0.000000
0
VERTEX
5
72d
8
0
10
16.746482
20
16.497261
30
0.000000
0
VERTEX
5
73d
8
0
10
16.620361
20
16.608388
30
0.000000
0
VERTEX
5
74d
8
0
10
16.495191
20
16.721078
30
0.000000
0
VERTEX
5
75d
8
0
10
16.370948
20
16.835296
30
0.000000
0
VERTEX
5
76d
8
0
10
16.247611
20
16.951005
30
0.000000
0
VERTEX
5
77d
8
0
10
16.125160
20
17.068170
30
0.000000
0
VERTEX
5
78d
8
0
10
16.003572
20
17.186754
30
0.000000
0
VERTEX
5
79d
8
0
10
15.882827
20
17.306721
30
0.000000
0
VERTEX
5
7ad
8
0
10
15.762901
20
17.428034
30
0.000000
0
VERTEX
5
7bd
8
0
10
15.643776
20
17.550658
30
0.000000
0
VERTEX
5
7cd
8
0
10
15.407836
20
17.799691
30
0.000000
0
VERTEX
5
7dd
8
0
10
15.174835
20
18.053531
30
0.000000
0
VERTEX
5
7ed
8
0
10
14.944602
20
18.311888
30
0.000000
0
VERTEX
5
7fd
8
0
10
14.716966
20
18.574471
30
0.000000
0
VERTEX
5
80d
8
0
10
14.491753
20
18.840992
30
0.000000
0
VERTEX
5
81d
8
0
10
14.268794
20
19.111160
30
0.000000
0
VERTEX
5
82d
8
0
10
14.047916
20
19.384685
30
0.000000
0
VERTEX
5
83d
8
0
10
14.047916
20
19.384685
30
0.000000
0
VERTEX
5
84d
8
0
10
13.940106
20
19.577090
30
0.000000
0
VERTEX
5
85d
8
0
10
13.835513
20
19.769601
30
0.000000
0
VERTEX
5
86d
8
0
10
13.734133
20
19.962220
30
0.000000
0
VERTEX
5
87d
8
0
10
13.635962
20
20.154946
30
0.000000
0
VERTEX
5
88d
8
0
10
13.540999
20
20.347780
30
0.000000
0
VERTEX
5
89d
8
0
10
13.449238
20
20.540722
30
0.000000
0
VERTEX
5
8ad
8
0
10
13.360677
20
20.733772
30
0.000000
0
VERTEX
5
8bd
8
0
10
13.275313
20
20.926932
30
0.000000
0
VERTEX
5
8cd
8
0
10
13.193142
20
21.120200
30
0.000000
0
VERTEX
5
8dd
8
0
10
13.114161
20
21.313578
30
0.000000
0
VERTEX
5
8ed
8
0
10
13.038367
20
21.507066
30
0.000000
0
VERTEX
5
8fd
8
0
10
12.965757
20
21.700664
30
0.000000
0
VERTEX
5
90d
8
0
10
12.896327
20
21.894373
30
0.000000
0
VERTEX
5
91d
8
0
10
12.830073
20
22.088193
30
0.000000
0
VERTEX
5
92d
8
0
10
12.766994
20
22.282124
30
0.000000
0
VERTEX
5
93d
8
0
10
12.707085
20
22.476166
30
0.000000
0
VERTEX
5
94d
8
0
10
12.650344
20
22.670321
30
0.000000
0
VERTEX
5
95d
8
0
10
12.596766
20
22.864588
30
0.000000
0
VERTEX
5
96d
8
0
10
12.546349
20
23.058968
30
0.000000
0
VERTEX
5
97d
8
0
10
12.499089
20
23.253460
30
0.000000
0
VERTEX
5
98d
8
0
10
12.454983
20
23.448066
30
0.000000
0
VERTEX
5
99d
8
0
10
12.414029
20
23.642786
30
0.000000
0
VERTEX
5
9ad
8
0
10
12.376221
20
23.837620
30
0.000000
0
VERTEX
5
9bd
8
0
10
12.341559
20
24.032568
30
0.000000
0
VERTEX
5
9cd
8
0
10
12.310037
20
24.227631
30
0.000000
0
VERTEX
5
9dd
8
0
10
12.281653
20
24.422810
30
0.000000
0
VERTEX
5
9ed
8
0
10
12.256403
20
24.618103
30
0.000000
0
VERTEX
5
9fd
8
0
10
12.234285
20
24.813513
30
0.000000
0
VERTEX
5
a0d
8
0
10
12.215294
20
25.009038
30
0.000000
0
VERTEX
5
a1d
8
0
10
12.199429
20
25.204681
30
0.000000
0
VERTEX
5
a2d
8
0
10
12.186684
20
25.400440
30
0.000000
0
VERTEX
5
a3d
8
0
10
12.177058
20
25.596316
30
0.000000
0
VERTEX
5
a4d
8
0
10
12.170547
20
25.792310
30
0.000000
0
VERTEX
5
a5d
8
0
10
12.167147
20
25.988422
30
0.000000
0
VERTEX
5
a6d
8
0
10
12.166856
20
26.184652
30
0.000000
0
VERTEX
5
a7d
8
0
10
12.169669
20
26.381000
30
0.000000
0
VERTEX
5
a8d
8
0
10
12.175585
20
26.577468
30
0.000000
0
VERTEX
5
a9d
8
0
10
12.184599
20
26.774055
30
0.000000
0
VERTEX
5
aad
8
0
10
12.196708
20
26.970762
30
0.000000
0
VERTEX
5
abd
8
0
10
12.211909
20
27.167588
30
0.000000
0
VERTEX
5
acd
8
0
10
12.230199
20
27.364535
30
0.000000
0
VERTEX
5
add
8
0
10
12.251574
20
27.561603
30
0.000000
0
VERTEX
5
aed
8
0
10
12.276032
20
27.758792
30
0.000000
0
VERTEX
5
afd
8
0
10
12.303568
20
27.956102
30
0.000000
0
VERTEX
5
b0d
8
0
10
12.334180
20
28.153534
30
0.000000
0
VERTEX
5
b1d
8
0
10
12.367864
20
28.351088
30
0.000000
0
VERTEX
5
b2d
8
0
10
12.404618
20
28.548765
30
0.000000
0
VERTEX
5
b3d
8
0
10
12.444437
20
28.746564
30
0.000000
0
VERTEX
5
b4d
8
0
10
12.487319
20
28.944486
30
0.000000
0
VERTEX
5
b5d
8
0
10
12.533260
20
29.142532
30
0.000000
0
VERTEX
5
b6d
8
0
10
12.582257
20
29.340702
30
0.000000
0
VERTEX
5
b7d
8
0
10
12.634306
20
29.538996
30
0.000000
0
VERTEX
5
b8d
8
0
10
12.689406
20
29.737415
30
0.000000
0
VERTEX
5
b9d
8
0
10
12.747551
20
29.935959
30
0.000000
0
VERTEX
5
bad
8
0
10
12.808739
20
30.134627
30
0.000000
0
VERTEX
5
bbd
8
0
10
12.872967
20
30.333422
30
0.000000
0
VERTEX
5
bcd
8
0
10
12.940231
20
30.532342
30
0.000000
0
VERTEX
5
bdd
8
0
10
13.010529
20
30.731389
30
0.000000
0
VERTEX
5
bed
8
0
10
13.083856
20
30.930562
30
0.000000
0
VERTEX
5
bfd
8
0
10
13.160209
20
31.129862
30
0.000000
0
VERTEX
5
c0d
8
0
10
13.239586
20
31.329290
30
0.000000
0
VERTEX
5
c1d
8
0
10
13.321983
20
31.528845
30
0.000000
0
VERTEX
5
c2d
8
0
10
13.407397
20
31.728529
30
0.000000
0
VERTEX
5
c3d
8
0
10
13.495824
20
31.928340
30
0.000000
0
VERTEX
5
c4d
8
0
10
11.835455
20
35.510796
30
0.000000
0
VERTEX
5
c5d
8
0
10
11.835455
20
35.510796
30
0.000000
0
VERTEX
5
c6d
8
0
10
11.641750
20
35.214756
30
0.000000
0
VERTEX
5
c7d
8
0
10
11.454645
20
34.918702
30
0.000000
0
VERTEX
5
c8d
8
0
10
11.274121
20
34.622632
30
0.000000
0
VERTEX
5
c9d
8
0
10
11.100159
20
34.326547
30
0.000000
0
VERTEX
5
cad
8
0
10
10.932742
20
34.030446
30
0.000000
0
VERTEX
5
cbd
8
0
10
10.771850
20
33.734326
30
0.000000
0
VERTEX
5
ccd
8
0
10
10.617465
20
33.438189
30
0.000000
0
VERTEX
5
cdd
8
0
10
10.469570
20
33.142032
30
0.000000
0
VERTEX
5
ced
8
0
10
10.328144
20
32.845855
30
0.000000
0
VERTEX
5
cfd
8
0
10
10.193170
20
32.549657
30
0.000000
0
VERTEX
5
d0d
8
0
10
10.064629
20
32.253437
30
0.000000
0
VERTEX
5
d1d
8
0
10
9.942503
20
31.957194
30
0.000000
0
VERTEX
5
d2d
8
0
10
9.826773
20
31.660928
30
0.000000
0
VERTEX
5
d3d
8
0
10
9.717421
20
31.364638
30
0.000000
0
VERTEX
5
d4d
8
0
10
9.665131
20
31.216484
30
0.000000
0
VERTEX
5
d5d
8
0
10
9.614428
20
31.068323
30
0.000000
0
VERTEX
5
d6d
8
0
10
9.565311
20
30.920155
30
0.000000
0
VERTEX
5
d7d
8
0
10
9.517776
20
30.771981
30
0.000000
0
VERTEX
5
d8d
8
0
10
9.471822
20
30.623800
30
0.000000
0
VERTEX
5
d9d
8
0
10
9.427447
20
30.475613
30
0.000000
0
VERTEX
5
dad
8
0
10
9.384647
20
30.327418
30
0.000000
0
VERTEX
5
dbd
8
0
10
9.343421
20
30.179216
30
0.000000
0
VERTEX
5
dcd
8
0
10
9.303766
20
30.031008
30
0.000000
0
VERTEX
5
ddd
8
0
10
9.265680
20
29.882791
30
0.000000
0
VERTEX
5
ded
8
0
10
9.229161
20
29.734568
30
0.000000
0
VERTEX
5
dfd
8
0
10
9.194206
20
29.586337
30
0.000000
0
VERTEX
5
e0d
8
0
10
9.160813
20
29.438099
30
0.000000
0
VERTEX
5
e1d
8
0
10
9.128980
20
29.289853
30
0.000000
0
VERTEX
5
e2d
8
0
10
9.098705
20
29.141599
30
0.000000
0
VERTEX
5
e3d
8
0
10
9.069985
20
28.993337
30
0.000000
0
VERTEX
5
e4d
8
0
10
9.042817
20
28.845067
30
0.000000
0
VERTEX
5
e5d
8
0
10
9.017200
20
28.696789
30
0.000000
0
VERTEX
5
e6d
8
0
10
8.993131
20
28.548503
30
0.000000
0
VERTEX
5
e7d
8
0
10
8.970608
20
28.400208
30
0.000000
0
VERTEX
5
e8d
8
0
10
8.949629
20
28.251905
30
0.000000
0
VERTEX
5
e9d
8
0
10
8.930191
20
28.103594
30
0.000000
0
VERTEX
5
ead
8
0
10
8.912292
20
27.955274
30
0.000000
0
VERTEX
5
ebd
8
0
10
8.895930
20
27.806945
30
0.000000
0
VERTEX
5
ecd
8
0
10
8.881102
20
27.658607
30
0.000000
0
VERTEX
5
edd
8
0
10
8.867806
20
27.510261
30
0.000000
0
VERTEX
5
eed
8
0
10
8.856039
20
27.361905
30
0.000000
0
VERTEX
5
efd
8
0
10
8.845800
20
27.213540
30
0.000000
0
VERTEX
5
f0d
8
0
10
8.837087
20
27.065166
30
0.000000
0
VERTEX
5
f1d
8
0
10
8.829896
20
26.916782
30
0.000000
0
VERTEX
5
f2d
8
0
10
8.824225
20
26.768389
30
0.000000
0
VERTEX
5
f3d
8
0
10
8.820073
20
26.619987
30
0.000000
0
VERTEX
5
f4d
8
0
10
8.817436
20
26.471574
30
0.000000
0
VERTEX
5
f5d
8
0
10
8.816313
20
26.323152
30
0.000000
0
VERTEX
5
f6d
8
0
10
8.816701
20
26.174720
30
0.000000
0
VERTEX
5
f7d
8
0
10
8.818598
20
26.026278
30
0.000000
0
VERTEX
5
f8d
8
0
10
8.822002
20
25.877826
30
0.000000
0
VERTEX
5
f9d
8
0
10
8.826910
20
25.729363
30
0.000000
0
VERTEX
5
fad
8
0
10
8.841230
20
25.432407
30
0.000000
0
VERTEX
5
fbd
8
0
10
8.861539
20
25.135409
30
0.000000
0
VERTEX
5
fcd
8
0
10
8.887819
20
24.838368
30
0.000000
0
VERTEX
5
fdd
8
0
10
8.920051
20
24.541282
30
0.000000
0
VERTEX
5
fed
8
0
10
8.958218
20
24.244152
30
0.000000
0
VERTEX
5
ffd
8
0
10
9.002300
20
23.946977
30
0.000000
0
VERTEX
5
100d
8
0
10
9.052279
20
23.649755
30
0.000000
0
VERTEX
5
101d
8
0
10
9.108136
20
23.352485
30
0.000000
0
VERTEX
5
102d
8
0
10
9.169853
20
23.055167
30
0.000000
0
VERTEX
5
103d
8
0
10
9.237412
20
22.757801
30
0.000000
0
VERTEX
5
104d
8
0
10
9.310794
20
22.460384
30
0.000000
0
VERTEX
5
105d
8
0
10
9.389980
20
22.162917
30
0.000000
0
VERTEX
5
106d
8
0
10
9.474953
20
21.865398
30
0.000000
0
VERTEX
5
107d
8
0
10
9.565693
20
21.567827
30
0.000000
0
VERTEX
5
108d
8
0
10
9.662181
20
21.270202
30
0.000000
0
VERTEX
5
109d
8
0
10
9.764401
20
20.972524
30
0.000000
0
VERTEX
5
10ad
8
0
10
9.872333
20
20.674790
30
0.000000
0
VERTEX
5
10bd
8
0
10
9.985958
20
20.377000
30
0.000000
0
VERTEX
5
10cd
8
0
10
10.105258
20
20.079154
30
0.000000
0
VERTEX
5
10dd
8
0
10
10.230215
20
19.781250
30
0.000000
0
VERTEX
5
10ed
8
0
10
10.360810
20
19.483288
30
0.000000
0
VERTEX
5
10fd
8
0
10
10.497024
20
19.185267
30
0.000000
0
VERTEX
5
110d
8
0
10
10.638840
20
18.887185
30
0.000000
0
VERTEX
5
111d
8
0
10
10.786238
20
18.589043
30
0.000000
0
VERTEX
5
112d
8
0
10
10.939200
20
18.290839
30
0.000000
0
VERTEX
5
113d
8
0
10
11.097708
20
17.992572
30
0.000000
0
VERTEX
5
114d
8
0
10
11.261744
20
17.694242
30
0.000000
0
VERTEX
5
115d
8
0
10
11.431287
20
17.395847
30
0.000000
0
VERTEX
5
116d
8
0
10
11.606321
20
17.097387
30
0.000000
0
VERTEX
5
117d
8
0
10
11.786827
20
16.798862
30
0.000000
0
VERTEX
5
118d
8
0
10
11.972786
20
16.500269
30
0.000000
0
VERTEX
5
119d
8
0
10
11.972786
20
16.500269
30
0.000000
0
VERTEX
5
11ad
8
0
10
12.129760
20
16.303635
30
0.000000
0
VERTEX
5
11bd
8
0
10
12.288257
20
16.110142
30
0.000000
0
VERTEX
5
11cd
8
0
10
12.448275
20
15.919783
30
0.000000
0
VERTEX
5
11dd
8
0
10
12.609814
20
15.732553
30
0.000000
0
VERTEX
5
11ed
8
0
10
12.772872
20
15.548446
30
0.000000
0
VERTEX
5
11fd
8
0
10
12.937448
20
15.367456
30
0.000000
0
VERTEX
5
120d
8
0
10
13.103540
20
15.189576
30
0.000000
0
VERTEX
5
121d
8
0
10
13.271147
20
15.014801
30
0.000000
0
VERTEX
5
122d
8
0
10
13.440268
20
14.843125
30
0.000000
0
VERTEX
5
123d
8
0
10
13.610902
20
14.674542
30
0.000000
0
VERTEX
5
124d
8
0
10
13.783047
20
14.509046
30
0.000000
0
VERTEX
5
125d
8
0
10
13.956703
20
14.346630
30
0.000000
0
VERTEX
5
126d
8
0
10
14.131867
20
14.187290
30
0.000000
0
VERTEX
5
127d
8
0
10
14.308538
20
14.031018
30
0.000000
0
VERTEX
5
128d
8
0
10
14.486716
20
13.877809
30
0.000000
0
VERTEX
5
129d
8
0
10
14.666399
20
13.727657
30
0.000000
0
VERTEX
5
12ad
8
0
10
14.847585
20
13.580557
30
0.000000
0
VERTEX
5
12bd
8
0
10
15.030274
20
13.436501
30
0.000000
0
VERTEX
5
12cd
8
0
10
15.214464
20
13.295484
30
0.000000
0
VERTEX
5
12dd
8
0
10
15.400154
20
13.157500
30
0.000000
0
VERTEX
5
12ed
8
0
10
15.587342
20
13.022543
30
0.000000
0
VERTEX
5
12fd
8
0
10
15.776028
20
12.890608
30
0.000000
0
VERTEX
5
130d
8
0
10
15.966209
20
12.761687
30
0.000000
0
VERTEX
5
131d
8
0
10
16.157885
20
12.635776
30
0.000000
0
VERTEX
5
132d
8
0
10
16.351055
20
12.512867
30
0.000000
0
VERTEX
5
133d
8
0
10
16.545717
20
12.392956
30
0.000000
0
VERTEX
5
134d
8
0
10
16.741870
20
12.276036
30
0.000000
0
VERTEX
5
135d
8
0
10
16.939512
20
12.162101
30
0.000000
0
VERTEX
5
136d
8
0
10
17.138643
20
12.051146
30
0.000000
0
VERTEX
5
137d
8
0
10
17.339261
20
11.943164
30
0.000000
0
VERTEX
5
138d
8
0
10
17.541364
20
11.838149
30
0.000000
0
VERTEX
5
139d
8
0
10
17.744952
20
11.736095
30
0.000000
0
VERTEX
5
13ad
8
0
10
17.950024
20
11.636996
30
0.000000
0
VERTEX
5
13bd
8
0
10
18.156577
20
11.540847
30
0.000000
0
VERTEX
5
13cd
8
0
10
18.364611
20
11.447641
30
0.000000
0
VERTEX
5
13dd
8
0
10
18.574124
20
11.357373
30
0.000000
0
VERTEX
5
13ed
8
0
10
18.785115
20
11.270036
30
0.000000
0
VERTEX
5
13fd
8
0
10
18.997583
20
11.185624
30
0.000000
0
VERTEX
5
140d
8
0
10
19.211527
20
11.104132
30
0.000000
0
VERTEX
5
141d
8
0
10
19.426945
20
11.025554
30
0.000000
0
VERTEX
5
142d
8
0
10
19.643836
20
10.949882
30
0.000000
0
VERTEX
5
143d
8
0
10
19.862198
20
10.877113
30
0.000000
0
VERTEX
5
144d
8
0
10
20.082031
20
10.807238
30
0.000000
0
VERTEX
5
145d
8
0
10
20.303333
20
10.740254
30
0.000000
0
VERTEX
5
146d
8
0
10
20.526103
20
10.676153
30
0.000000
0
VERTEX
5
147d
8
0
10
20.750340
20
10.614929
30
0.000000
0
VERTEX
5
148d
8
0
10
20.976042
20
10.556577
30
0.000000
0
VERTEX
5
149d
8
0
10
21.203208
20
10.501091
30
0.000000
0
VERTEX
5
14ad
8
0
10
21.431836
20
10.448464
30
0.000000
0
VERTEX
5
14bd
8
0
10
21.661926
20
10.398691
30
0.000000
0
VERTEX
5
14cd
8
0
10
21.893477
20
10.351766
30
0.000000
0
VERTEX
5
14dd
8
0
10
22.126486
20
10.307682
30
0.000000
0
VERTEX
5
14ed
8
0
10
22.360953
20
10.266434
30
0.000000
0
VERTEX
5
14fd
8
0
10
22.596876
20
10.228016
30
0.000000
0
VERTEX
5
150d
8
0
10
22.834254
20
10.192422
30
0.000000
0
VERTEX
5
151d
8
0
10
23.073086
20
10.159645
30
0.000000
0
VERTEX
5
152d
8
0
10
23.313370
20
10.129680
30
0.000000
0
VERTEX
5
153d
8
0
10
23.555106
20
10.102521
30
0.000000
0
VERTEX
5
154d
8
0
10
23.798292
20
10.078162
30
0.000000
0
VERTEX
5
155d
8
0
10
24.042926
20
10.056597
30
0.000000
0
VERTEX
5
156d
8
0
10
24.289008
20
10.037819
30
0.000000
0
VERTEX
5
157d
8
0
10
24.536536
20
10.021824
30
0.000000
0
VERTEX
5
158d
8
0
10
24.785508
20
10.008605
30
0.000000
0
VERTEX
5
159d
8
0
10
25.035925
20
9.998155
30
0.000000
0
VERTEX
5
15ad
8
0
10
27.196352
20
5.633735
30
0.000000
0
VERTEX
5
15bd
8
0
10
32.569520
20
5.633735
30
0.000000
0
VERTEX
5
15cd
8
0
10
32.728934
20
11.949615
30
0.000000
0
VERTEX
5
15dd
8
0
10
32.728934
20
11.949615
30
0.000000
0
VERTEX
5
15ed
8
0
10
32.914326
20
12.076834
30
0.000000
0
VERTEX
5
15fd
8
0
10
33.097840
20
12.204642
30
0.000000
0
VERTEX
5
160d
8
0
10
33.279469
20
12.333042
30
0.000000
0
VERTEX
5
161d
8
0
10
33.459211
20
12.462034
30
0.000000
0
VERTEX
5
162d
8
0
10
33.637059
20
12.591622
30
0.000000
0
VERTEX
5
163d
8
0
10
33.813011
20
12.721805
30
0.000000
0
VERTEX
5
164d
8
0
10
33.987060
20
12.852587
30
0.000000
0
VERTEX
5
165d
8
0
10
34.159203
20
12.983969
30
0.000000
0
VERTEX
5
166d
8
0
10
34.329435
20
13.115952
30
0.000000
0
VERTEX
5
167d
8
0
10
34.497751
20
13.248539
30
0.000000
0
VERTEX
5
168d
8
0
10
34.664148
20
13.381731
30
0.000000
0
VERTEX
5
169d
8
0
10
34.828620
20
13.515530
30
0.000000
0
VERTEX
5
16ad
8
0
10
34.991163
20
13.649938
30
0.000000
0
VERTEX
5
16bd
8
0
10
35.151773
20
13.784957
30
0.000000
0
VERTEX
5
16cd
8
0
10
35.310444
20
13.920588
30
0.000000
0
VERTEX
5
16dd
8
0
10
35.467173
20
14.056832
30
0.000000
0
VERTEX
5
16ed
8
0
10
35.621955
20
14.193693
30
0.000000
0
VERTEX
5
16fd
8
0
10
35.774786
20
14.331172
30
0.000000
0
VERTEX
5
170d
8
0
10
35.925660
20
14.469269
30
0.000000
0
VERTEX
5
171d
8
0
10
36.074574
20
14.607988
30
0.000000
0
VERTEX
5
172d
8
0
10
36.221523
20
14.747330
30
0.000000
0
VERTEX
5
173d
8
0
10
36.366502
20
14.887296
30
0.000000
0
VERTEX
5
174d
8
0
10
36.509506
20
15.027889
30
0.000000
0
VERTEX
5
175d
8
0
10
36.650533
20
15.169110
30
0.000000
0
VERTEX
5
176d
8
0
10
36.789575
20
15.310961
30
0.000000
0
VERTEX
5
177d
8
0
10
36.926631
20
15.453444
30
0.000000
0
VERTEX
5
178d
8
0
10
37.061694
20
15.596560
30
0.000000
0
VERTEX
5
179d
8
0
10
37.194760
20
15.740312
30
0.000000
0
VERTEX
5
17ad
8
0
10
37.325825
20
15.884701
30
0.000000
0
VERTEX
5
17bd
8
0
10
37.454884
20
16.029728
30
0.000000
0
VERTEX
5
17cd
8
0
10
37.581933
20
16.175396
30
0.000000
0
VERTEX
5
17dd
8
0
10
37.706967
20
16.321706
30
0.000000
0
VERTEX
5
17ed
8
0
10
37.829981
20
16.468660
30
0.000000
0
VERTEX
5
17fd
8
0
10
37.950972
20
16.616261
30
0.000000
0
VERTEX
5
180d
8
0
10
38.069934
20
16.764509
30
0.000000
0
VERTEX
5
181d
8
0
10
38.186864
20
16.913406
30
0.000000
0
VERTEX
5
182d
8
0
10
38.301756
20
17.062954
30
0.000000
0
VERTEX
5
183d
8
0
10
38.414606
20
17.213155
30
0.000000
0
VERTEX
5
184d
8
0
10
38.525409
20
17.364011
30
0.000000
0
VERTEX
5
185d
8
0
10
38.634162
20
17.515524
30
0.000000
0
VERTEX
5
186d
8
0
10
38.740859
20
17.667695
30
0.000000
0
VERTEX
5
187d
8
0
10
38.845496
20
17.820525
30
0.000000
0
VERTEX
5
188d
8
0
10
38.948069
20
17.974018
30
0.000000
0
VERTEX
5
189d
8
0
10
39.048572
20
18.128174
30
0.000000
0
VERTEX
5
18ad
8
0
10
39.147002
20
18.282995
30
0.000000
0
VERTEX
5
18bd
8
0
10
39.243354
20
18.438483
30
0.000000
0
VERTEX
5
18cd
8
0
10
39.337624
20
18.594640
30
0.000000
0
VERTEX
5
18dd
8
0
10
39.429806
20
18.751468
30
0.000000
0
VERTEX
5
18ed
8
0
10
39.519896
20
18.908968
30
0.000000
0
VERTEX
5
18fd
8
0
10
39.607891
20
19.067142
30
0.000000
0
VERTEX
5
190d
8
0
10
39.693784
20
19.225992
30
0.000000
0
VERTEX
5
191d
8
0
10
39.777573
20
19.385519
30
0.000000
0
VERTEX
5
192d
8
0
10
39.859252
20
19.545726
30
0.000000
0
VERTEX
5
193d
8
0
10
39.938816
20
19.706614
30
0.000000
0
VERTEX
5
194d
8
0
10
40.016262
20
19.868186
30
0.000000
0
VERTEX
5
195d
8
0
10
40.091584
20
20.030441
30
0.000000
0
VERTEX
5
196d
8
0
10
40.164779
20
20.193384
30
0.000000
0
VERTEX
5
197d
8
0
10
40.235841
20
20.357014
30
0.000000
0
VERTEX
5
198d
8
0
10
40.304767
20
20.521335
30
0.000000
0
VERTEX
5
199d
8
0
10
40.371551
20
20.686347
30
0.000000
0
VERTEX
5
19ad
8
0
10
40.436190
20
20.852053
30
0.000000
0
VERTEX
5
19bd
8
0
10
40.498678
20
21.018454
30
0.000000
0
VERTEX
5
19cd
8
0
10
40.559011
20
21.185552
30
0.000000
0
VERTEX
5
19dd
8
0
10
40.617184
20
21.353349
30
0.000000
0
VERTEX
5
19ed
8
0
10
40.673194
20
21.521847
30
0.000000
0
VERTEX
5
19fd
8
0
10
40.727035
20
21.691047
30
0.000000
0
VERTEX
5
1a0d
8
0
10
40.778704
20
21.860951
30
0.000000
0
VERTEX
5
1a1d
8
0
10
40.828194
20
22.031561
30
0.000000
0
VERTEX
5
1a2d
8
0
10
40.875503
20
22.202878
30
0.000000
0
VERTEX
5
1a3d
8
0
10
40.920625
20
22.374905
30
0.000000
0
VERTEX
5
1a4d
8
0
10
40.963557
20
22.547644
30
0.000000
0
VERTEX
5
1a5d
8
0
10
41.004292
20
22.721095
30
0.000000
0
VERTEX
5
1a6d
8
0
10
41.042828
20
22.895261
30
0.000000
0
VERTEX
5
1a7d
8
0
10
41.079159
20
23.070143
30
0.000000
0
VERTEX
5
1a8d
8
0
10
41.113281
20
23.245744
30
0.000000
0
VERTEX
5
1a9d
8
0
10
41.145189
20
23.422064
30
0.000000
0
VERTEX
5
1aad
8
0
10
41.174879
20
23.599107
30
0.000000
0
VERTEX
5
1abd
8
0
10
41.202346
20
23.776873
30
0.000000
0
VERTEX
5
1acd
8
0
10
41.227586
20
23.955364
30
0.000000
0
VERTEX
5
1add
8
0
10
41.250595
20
24.134582
30
0.000000
0
VERTEX
5
1aed
8
0
10
41.271367
20
24.314529
30
0.000000
0
VERTEX
5
1afd
8
0
10
41.289899
20
24.495207
30
0.000000
0
VERTEX
5
1b0d
8
0
10
41.306185
20
24.676617
30
0.000000
0
VERTEX
5
1b1d
8
0
10
41.320221
20
24.858762
30
0.000000
0
VERTEX
5
1b2d
8
0
10
41.332003
20
25.041642
30
0.000000
0
VERTEX
5
1b3d
8
0
10
41.341527
20
25.225260
30
0.000000
0
VERTEX
5
1b4d
8
0
10
41.348787
20
25.409617
30
0.000000
0
VERTEX
5
1b5d
8
0
10
41.353779
20
25.594716
30
0.000000
0
VERTEX
5
1b6d
8
0
10
41.356499
20
25.780557
30
0.000000
0
VERTEX
5
1b7d
8
0
10
41.356941
20
25.967143
30
0.000000
0
VERTEX
5
1b8d
8
0
10
41.355103
20
26.154476
30
0.000000
0
VERTEX
5
1b9d
8
0
10
41.350978
20
26.342557
30
0.000000
0
VERTEX
5
1bad
8
0
10
41.344563
20
26.531388
30
0.000000
0
VERTEX
5
1bbd
8
0
10
41.335854
20
26.720971
30
0.000000
0
VERTEX
5
1bcd
8
0
10
41.324844
20
26.911307
30
0.000000
0
VERTEX
5
1bdd
8
0
10
41.311531
20
27.102399
30
0.000000
0
VERTEX
5
1bed
8
0
10
41.295909
20
27.294248
30
0.000000
0
VERTEX
5
1bfd
8
0
10
41.277974
20
27.486856
30
0.000000
0
VERTEX
5
1c0d
8
0
10
41.257721
20
27.680224
30
0.000000
0
VERTEX
5
1c1d
8
0
10
41.235147
20
27.874355
30
0.000000
0
VERTEX
5
1c2d
8
0
10
41.210245
20
28.069249
30
0.000000
0
VERTEX
5
1c3d
8
0
10
41.183013
20
28.264910
30
0.000000
0
VERTEX
5
1c4d
8
0
10
41.153445
20
28.461339
30
0.000000
0
VERTEX
5
1c5d
8
0
10
41.121537
20
28.658536
30
0.000000
0
VERTEX
5
1c6d
8
0
10
41.087284
20
28.856506
30
0.000000
0
VERTEX
5
1c7d
8
0
10
41.050682
20
29.055248
30
0.000000
0
VERTEX
5
1c8d
8
0
10
41.011727
20
29.254764
30
0.000000
0
VERTEX
5
1c9d
8
0
10
40.970413
20
29.455058
30
0.000000
0
VERTEX
5
1cad
8
0
10
40.926736
20
29.656129
30
0.000000
0
VERTEX
5
1cbd
8
0
10
40.880692
20
29.857981
30
0.000000
0
VERTEX
5
1ccd
8
0
10
40.832277
20
30.060615
30
0.000000
0
VERTEX
5
1cdd
8
0
10
40.781485
20
30.264032
30
0.000000
0
VERTEX
5
1ced
8
0
10
40.728312
20
30.468234
30
0.000000
0
VERTEX
5
1cfd
8
0
10
40.672754
20
30.673224
30
0.000000
0
VERTEX
5
1d0d
8
0
10
40.614806
20
30.879002
30
0.000000
0
VERTEX
5
1d1d
8
0
10
40.554463
20
31.085571
30
0.000000
0
VERTEX
5
1d2d
8
0
10
40.491722
20
31.292932
30
0.000000
0
VERTEX
5
1d3d
8
0
10
40.426578
20
31.501088
30
0.000000
0
VERTEX
5
1d4d
8
0
10
40.359025
20
31.710039
30
0.000000
0
VERTEX
5
1d5d
8
0
10
40.289060
20
31.919789
30
0.000000
0
VERTEX
5
1d6d
8
0
10
40.216678
20
32.130337
30
0.000000
0
VERTEX
5
1d7d
8
0
10
40.141875
20
32.341687
30
0.000000
0
VERTEX
5
1d8d
8
0
10
40.064645
20
32.553840
30
0.000000
0
VERTEX
5
1d9d
8
0
10
39.984985
20
32.766798
30
0.000000
0
VERTEX
5
1dad
8
0
10
39.902890
20
32.980562
30
0.000000
0
VERTEX
5
1dbd
8
0
10
39.818356
20
33.195135
30
0.000000
0
VERTEX
5
1dcd
8
0
10
39.731377
20
33.410517
30
0.000000
0
VERTEX
5
1ddd
8
0
10
39.641950
20
33.626712
30
0.000000
0
VERTEX
5
1ded
8
0
10
39.641950
20
33.626712
30
0.000000
0
VERTEX
5
1dfd
8
0
10
39.518011
20
33.821894
30
0.000000
0
VERTEX
5
1e0d
8
0
10
39.393306
20
34.014810
30
0.000000
0
VERTEX
5
1e1d
8
0
10
39.267835
20
34.205461
30
0.000000
0
VERTEX
5
1e2d
8
0
10
39.141598
20
34.393851
30
0.000000
0
VERTEX
5
1e3d
8
0
10
39.014596
20
34.579980
30
0.000000
0
VERTEX
5
1e4d
8
0
10
38.886830
20
34.763853
30
0.000000
0
VERTEX
5
1e5d
8
0
10
38.758299
20
34.945470
30
0.000000
0
VERTEX
5
1e6d
8
0
10
38.629004
20
35.124835
30
0.000000
0
VERTEX
5
1e7d
8
0
10
38.498947
20
35.301949
30
0.000000
0
VERTEX
5
1e8d
8
0
10
38.368126
20
35.476815
30
0.000000
0
VERTEX
5
1e9d
8
0
10
38.236544
20
35.649435
30
0.000000
0
VERTEX
5
1ead
8
0
10
38.104199
20
35.819812
30
0.000000
0
VERTEX
5
1ebd
8
0
10
37.971093
20
35.987947
30
0.000000
0
VERTEX
5
1ecd
8
0
10
37.837227
20
36.153844
30
0.000000
0
VERTEX
5
1edd
8
0
10
37.702600
20
36.317504
30
0.000000
0
VERTEX
5
1eed
8
0
10
37.567213
20
36.478929
30
0.000000
0
VERTEX
5
1efd
8
0
10
37.431067
20
36.638122
30
0.000000
0
VERTEX
5
1f0d
8
0
10
37.294162
20
36.795086
30
0.000000
0
VERTEX
5
1f1d
8
0
10
37.156499
20
36.949822
30
0.000000
0
VERTEX
5
1f2d
8
0
10
37.018078
20
37.102333
30
0.000000
0
VERTEX
5
1f3d
8
0
10
36.878900
20
37.252621
30
0.000000
0
VERTEX
5
1f4d
8
0
10
36.738964
20
37.400688
30
0.000000
0
VERTEX
5
1f5d
8
0
10
36.598273
20
37.546537
30
0.000000
0
VERTEX
5
1f6d
8
0
10
36.456825
20
37.690170
30
0.000000
0
VERTEX
5
1f7d
8
0
10
36.314622
20
37.831590
30
0.000000
0
VERTEX
5
1f8d
8
0
10
36.171663
20
37.970798
30
0.000000
0
VERTEX
5
1f9d
8
0
10
36.027951
20
38.107797
30
0.000000
0
VERTEX
5
1fad
8
0
10
35.883484
20
38.242589
30
0.000000
0
VERTEX
5
1fbd
8
0
10
35.738264
20
38.375177
30
0.000000
0
VERTEX
5
1fcd
8
0
10
35.592291
20
38.505563
30
0.000000
0
VERTEX
5
1fdd
8
0
10
35.445565
20
38.633749
30
0.000000
0
VERTEX
5
1fed
8
0
10
35.298087
20
38.759737
30
0.000000
0
VERTEX
5
1ffd
8
0
10
35.149858
20
38.883530
30
0.000000
0
VERTEX
5
200d
8
0
10
35.000877
20
39.005130
30
0.000000
0
VERTEX
5
201d
8
0
10
34.851146
20
39.124539
30
0.000000
0
VERTEX
5
202d
8
0
10
34.700665
20
39.241760
30
0.000000
0
VERTEX
5
203d
8
0
10
34.549434
20
39.356794
30
0.000000
0
VERTEX
5
204d
8
0
10
34.397455
20
39.469645
30
0.000000
0
VERTEX
5
205d
8
0
10
34.244726
20
39.580315
30
0.000000
0
VERTEX
5
206d
8
0
10
34.091249
20
39.688805
30
0.000000
0
VERTEX
5
207d
8
0
10
33.937025
20
39.795118
30
0.000000
0
VERTEX
5
208d
8
0
10
33.782053
20
39.899257
30
0.000000
0
VERTEX
5
209d
8
0
10
33.626335
20
40.001223
30
0.000000
0
VERTEX
5
20ad
8
0
10
33.469870
20
40.101020
30
0.000000
0
VERTEX
5
20bd
8
0
10
33.312660
20
40.198649
30
0.000000
0
VERTEX
5
20cd
8
0
10
33.154704
20
40.294112
30
0.000000
0
VERTEX
5
20dd
8
0
10
32.996004
20
40.387412
30
0.000000
0
VERTEX
5
20ed
8
0
10
32.836559
20
40.478552
30
0.000000
0
VERTEX
5
20fd
8
0
10
32.676370
20
40.567533
30
0.000000
0
VERTEX
5
210d
8
0
10
32.515438
20
40.654358
30
0.000000
0
VERTEX
5
211d
8
0
10
32.353764
20
40.739028
30
0.000000
0
VERTEX
5
212d
8
0
10
32.191347
20
40.821548
30
0.000000
0
VERTEX
5
213d
8
0
10
32.028188
20
40.901918
30
0.000000
0
VERTEX
5
214d
8
0
10
31.864287
20
40.980141
30
0.000000
0
VERTEX
5
215d
8
0
10
31.699646
20
41.056219
30
0.000000
0
VERTEX
5
216d
8
0
10
31.534265
20
41.130155
30
0.000000
0
VERTEX
5
217d
8
0
10
31.368143
20
41.201950
30
0.000000
0
VERTEX
5
218d
8
0
10
31.201282
20
41.271608
30
0.000000
0
VERTEX
5
219d
8
0
10
31.033682
20
41.339131
30
0.000000
0
VERTEX
5
21ad
8
0
10
30.865344
20
41.404520
30
0.000000
0
VERTEX
5
21bd
8
0
10
30.696267
20
41.467778
30
0.000000
0
VERTEX
5
21cd
8
0
10
30.526453
20
41.528908
30
0.000000
0
VERTEX
5
21dd
8
0
10
30.355903
20
41.587911
30
0.000000
0
VERTEX
5
21ed
8
0
10
30.184615
20
41.644790
30
0.000000
0
VERTEX
5
21fd
8
0
10
30.012592
20
41.699548
30
0.000000
0
VERTEX
5
220d
8
0
10
29.839832
20
41.752186
30
0.000000
0
VERTEX
5
221d
8
0
10
29.666338
20
41.802707
30
0.000000
0
VERTEX
5
222d
8
0
10
29.492110
20
41.851113
30
0.000000
0
VERTEX
5
223d
8
0
10
29.317147
20
41.897407
30
0.000000
0
VERTEX
5
224d
8
0
10
29.141450
20
41.941591
30
0.000000
0
VERTEX
5
225d
8
0
10
28.965021
20
41.983666
30
0.000000
0
VERTEX
5
226d
8
0
10
28.787858
20
42.023636
30
0.000000
0
VERTEX
5
227d
8
0
10
28.609964
20
42.061503
30
0.000000
0
VERTEX
5
228d
8
0
10
28.431338
20
42.097268
30
0.000000
0
VERTEX
5
229d
8
0
10
28.251981
20
42.130935
30
0.000000
0
VERTEX
5
22ad
8
0
10
28.071892
20
42.162506
30
0.000000
0
VERTEX
5
22bd
8
0
10
27.891074
20
42.191982
30
0.000000
0
VERTEX
5
22cd
8
0
10
27.709526
20
42.219366
30
0.000000
0
VERTEX
5
22dd
8
0
10
27.527249
20
42.244661
30
0.000000
0
VERTEX
5
22ed
8
0
10
27.344243
20
42.267869
30
0.000000
0
VERTEX
5
22fd
8
0
10
27.160509
20
42.288992
30
0.000000
0
VERTEX
5
230d
8
0
10
26.976047
20
42.308032
30
0.000000
0
VERTEX
5
231d
8
0
10
26.790857
20
42.324992
30
0.000000
0
VERTEX
5
232d
8
0
10
26.604941
20
42.339873
30
0.000000
0
VERTEX
5
233d
8
0
10
26.418298
20
42.352679
30
0.000000
0
VERTEX
5
234d
8
0
10
26.230930
20
42.363412
30
0.000000
0
VERTEX
5
235d
8
0
10
26.042836
20
42.372073
30
0.000000
0
VERTEX
5
236d
8
0
10
25.854017
20
42.378666
30
0.000000
0
VERTEX
5
237d
8
0
10
25.664474
20
42.383192
30
0.000000
0
VERTEX
5
238d
8
0
10
25.474207
20
42.385654
30
0.000000
0
VERTEX
5
239d
8
0
10
25.283217
20
42.386054
30
0.000000
0
VERTEX
5
23ad
8
0
10
25.091503
20
42.384394
30
0.000000
0
VERTEX
5
23bd
8
0
10
24.899067
20
42.380677
30
0.000000
0
VERTEX
5
23cd
8
0
10
24.705909
20
42.374905
30
0.000000
0
VERTEX
5
23dd
8
0
10
24.512030
20
42.367080
30
0.000000
0
VERTEX
5
23ed
8
0
10
24.317430
20
42.357204
30
0.000000
0
VERTEX
5
23fd
8
0
10
24.122109
20
42.345281
30
0.000000
0
VERTEX
5
240d
8
0
10
23.926068
20
42.331311
30
0.000000
0
VERTEX
5
241d
8
0
10
23.729307
20
42.315298
30
0.000000
0
VERTEX
5
242d
8
0
10
23.531828
20
42.297244
30
0.000000
0
VERTEX
5
243d
8
0
10
23.333630
20
42.277151
30
0.000000
0
VERTEX
5
244d
8
0
10
23.134713
20
42.255021
30
0.000000
0
VERTEX
5
245d
8
0
10
22.935080
20
42.230857
30
0.000000
0
VERTEX
5
246d
8
0
10
22.734729
20
42.204661
30
0.000000
0
VERTEX
5
247d
8
0
10
22.533661
20
42.176435
30
0.000000
0
VERTEX
5
248d
8
0
10
22.331877
20
42.146181
30
0.000000
0
VERTEX
5
249d
8
0
10
22.129378
20
42.113903
30
0.000000
0
VERTEX
5
24ad
8
0
10
21.926163
20
42.079601
30
0.000000
0
VERTEX
5
24bd
8
0
10
21.722234
20
42.043279
30
0.000000
0
VERTEX
5
24cd
8
0
10
21.517590
20
42.004939
30
0.000000
0
VERTEX
5
24dd
8
0
10
21.312233
20
41.964582
30
0.000000
0
VERTEX
5
24ed
8
0
10
21.106162
20
41.922212
30
0.000000
0
VERTEX
5
24fd
8
0
10
20.899379
20
41.877831
30
0.000000
0
VERTEX
5
250d
8
0
10
20.691884
20
41.831441
30
0.000000
0
VERTEX
5
251d
8
0
10
20.483676
20
41.783044
30
0.000000
0
VERTEX
5
252d
8
0
10
20.274757
20
41.732642
30
0.000000
0
VERTEX
5
253d
8
0
10
20.065128
20
41.680238
30
0.000000
0
VERTEX
5
254d
8
0
10
19.854788
20
41.625834
30
0.000000
0
VERTEX
5
255d
8
0
10
19.643738
20
41.569433
30
0.000000
0
VERTEX
5
256d
8
0
10
19.431979
20
41.511037
30
0.000000
0
VERTEX
5
257d
8
0
10
19.219511
20
41.450647
30
0.000000
0
VERTEX
5
258d
8
0
10
19.006335
20
41.388267
30
0.000000
0
VERTEX
5
259d
8
0
10
18.792451
20
41.323898
30
0.000000
0
VERTEX
5
25ad
8
0
10
18.577859
20
41.257544
30
0.000000
0
VERTEX
5
25bd
8
0
10
18.362561
20
41.189205
30
0.000000
0
VERTEX
5
25cd
8
0
10
18.146556
20
41.118885
30
0.000000
0
VERTEX
5
25dd
8
0
10
17.929845
20
41.046586
30
0.000000
0
VERTEX
5
25ed
8
0
10
17.712428
20
40.972310
30
0.000000
0
VERTEX
5
25fd
8
0
10
17.712428
20
40.972310
30
0.000000
0
VERTEX
5
260d
8
0
10
17.708147
20
40.872044
30
0.000000
0
VERTEX
5
261d
8
0
10
17.708906
20
40.773380
30
0.000000
0
VERTEX
5
262d
8
0
10
17.714410
20
40.676201
30
0.000000
0
VERTEX
5
263d
8
0
10
17.724363
20
40.580391
30
0.000000
0
VERTEX
5
264d
8
0
10
17.738471
20
40.485831
30
0.000000
0
VERTEX
5
265d
8
0
10
17.756438
20
40.392407
30
0.000000
0
VERTEX
5
266d
8
0
10
17.777968
20
40.299999
30
0.000000
0
VERTEX
5
267d
8
0
10
17.802768
20
40.208493
30
0.000000
0
VERTEX
5
268d
8
0
10
17.830540
20
40.117770
30
0.000000
0
VERTEX
5
269d
8
0
10
17.860991
20
40.027714
30
0.000000
0
VERTEX
5
26ad
8
0
10
17.893824
20
39.938208
30
0.000000
0
VERTEX
5
26bd
8
0
10
17.928745
20
39.849134
30
0.000000
0
VERTEX
5
26cd
8
0
10
17.965459
20
39.760378
30
0.000000
0
VERTEX
5
26dd
8
0
10
18.003669
20
39.671820
30
0.000000
0
VERTEX
5
26ed
8
0
10
18.083401
20
39.494835
30
0.000000
0
VERTEX
5
26fd
8
0
10
18.247838
20
39.138113
30
0.000000
0
VERTEX
5
270d
8
0
10
18.327820
20
38.956506
30
0.000000
0
VERTEX
5
271d
8
0
10
18.366218
20
38.864482
30
0.000000
0
VERTEX
5
272d
8
0
10
18.403161
20
38.771487
30
0.000000
0
VERTEX
5
273d
8
0
10
18.438354
20
38.677407
30
0.000000
0
VERTEX
5
274d
8
0
10
18.471501
20
38.582123
30
0.000000
0
VERTEX
5
275d
8
0
10
18.502306
20
38.485518
30
0.000000
0
VERTEX
5
276d
8
0
10
18.530476
20
38.387477
30
0.000000
0
VERTEX
5
277d
8
0
10
18.555713
20
38.287881
30
0.000000
0
VERTEX
5
278d
8
0
10
18.577724
20
38.186614
30
0.000000
0
VERTEX
5
279d
8
0
10
18.596213
20
38.083559
30
0.000000
0
VERTEX
5
27ad
8
0
10
18.610885
20
37.978599
30
0.000000
0
VERTEX
5
27bd
8
0
10
18.610885
20
37.978599
30
0.000000
0
VERTEX
5
27cd
8
0
10
18.923112
20
38.087247
30
0.000000
0
VERTEX
5
27dd
8
0
10
19.234202
20
38.191632
30
0.000000
0
VERTEX
5
27ed
8
0
10
19.544140
20
38.291691
30
0.000000
0
VERTEX
5
27fd
8
0
10
19.852913
20
38.387360
30
0.000000
0
VERTEX
5
280d
8
0
10
20.160506
20
38.478576
30
0.000000
0
VERTEX
5
281d
8
0
10
20.466904
20
38.565275
30
0.000000
0
VERTEX
5
282d
8
0
10
20.772094
20
38.647392
30
0.000000
0
VERTEX
5
283d
8
0
10
21.076060
20
38.724865
30
0.000000
0
VERTEX
5
284d
8
0
10
21.378789
20
38.797629
30
0.000000
0
VERTEX
5
285d
8
0
10
21.680267
20
38.865621
30
0.000000
0
VERTEX
5
286d
8
0
10
21.980479
20
38.928777
30
0.000000
0
VERTEX
5
287d
8
0
10
22.279411
20
38.987033
30
0.000000
0
VERTEX
5
288d
8
0
10
22.577048
20
39.040326
30
0.000000
0
VERTEX
5
289d
8
0
10
22.873376
20
39.088591
30
0.000000
0
VERTEX
5
28ad
8
0
10
23.168382
20
39.131765
30
0.000000
0
VERTEX
5
28bd
8
0
10
23.462050
20
39.169785
30
0.000000
0
VERTEX
5
28cd
8
0
10
23.754366
20
39.202587
30
0.000000
0
VERTEX
5
28dd
8
0
10
24.045317
20
39.230106
30
0.000000
0
VERTEX
5
28ed
8
0
10
24.334887
20
39.252279
30
0.000000
0
VERTEX
5
28fd
8
0
10
24.623062
20
39.269042
30
0.000000
0
VERTEX
5
290d
8
0
10
24.909829
20
39.280333
30
0.000000
0
VERTEX
5
291d
8
0
10
25.195173
20
39.286086
30
0.000000
0
VERTEX
5
292d
8
0
10
25.479079
20
39.286238
30
0.000000
0
VERTEX
5
293d
8
0
10
25.761534
20
39.280725
30
0.000000
0
VERTEX
5
294d
8
0
10
26.042523
20
39.269484
30
0.000000
0
VERTEX
5
295d
8
0
10
26.322031
20
39.252452
30
0.000000
0
VERTEX
5
296d
8
0
10
26.461225
20
39.241743
30
0.000000
0
VERTEX
5
297d
8
0
10
26.600044
20
39.229563
30
0.000000
0
VERTEX
5
298d
8
0
10
26.738486
20
39.215902
30
0.000000
0
VERTEX
5
299d
8
0
10
26.876549
20
39.200754
30
0.000000
0
VERTEX
5
29ad
8
0
10
27.014231
20
39.184110
30
0.000000
0
VERTEX
5
29bd
8
0
10
27.151531
20
39.165963
30
0.000000
0
VERTEX
5
29cd
8
0
10
27.288446
20
39.146303
30
0.000000
0
VERTEX
5
29dd
8
0
10
27.424975
20
39.125124
30
0.000000
0
VERTEX
5
29ed
8
0
10
27.561116
20
39.102417
30
0.000000
0
VERTEX
5
29fd
8
0
10
27.696867
20
39.078174
30
0.000000
0
VERTEX
5
2a0d
8
0
10
27.832227
20
39.052388
30
0.000000
0
VERTEX
5
2a1d
8
0
10
27.967193
20
39.025050
30
0.000000
0
VERTEX
5
2a2d
8
0
10
28.101765
20
38.996153
30
0.000000
0
VERTEX
5
2a3d
8
0
10
28.235939
20
38.965688
30
0.000000
0
VERTEX
5
2a4d
8
0
10
28.369715
20
38.933647
30
0.000000
0
VERTEX
5
2a5d
8
0
10
28.503090
20
38.900023
30
0.000000
0
VERTEX
5
2a6d
8
0
10
28.636063
20
38.864808
30
0.000000
0
VERTEX
5
2a7d
8
0
10
28.768632
20
38.827993
30
0.000000
0
VERTEX
5
2a8d
8
0
10
28.900796
20
38.789571
30
0.000000
0
VERTEX
5
2a9d
8
0
10
29.032551
20
38.749533
30
0.000000
0
VERTEX
5
2aad
8
0
10
29.163897
20
38.707873
30
0.000000
0
VERTEX
5
2abd
8
0
10
29.294832
20
38.664580
30
0.000000
0
VERTEX
5
2acd
8
0
10
29.425355
20
38.619649
30
0.000000
0
VERTEX
5
2add
8
0
10
29.555462
20
38.573070
30
0.000000
0
VERTEX
5
2aed
8
0
10
29.685153
20
38.524837
30
0.000000
0
VERTEX
5
2afd
8
0
10
29.814425
20
38.474940
30
0.000000
0
VERTEX
5
2b0d
8
0
10
29.943277
20
38.423372
30
0.000000
0
VERTEX
5
2b1d
8
0
10
30.071708
20
38.370125
30
0.000000
0
VERTEX
5
2b2d
8
0
10
30.199715
20
38.315190
30
0.000000
0
VERTEX
5
2b3d
8
0
10
30.327296
20
38.258561
30
0.000000
0
VERTEX
5
2b4d
8
0
10
30.454450
20
38.200229
30
0.000000
0
VERTEX
5
2b5d
8
0
10
30.581175
20
38.140186
30
0.000000
0
VERTEX
5
2b6d
8
0
10
30.707469
20
38.078424
30
0.000000
0
VERTEX
5
2b7d
8
0
10
30.833331
20
38.014935
30
0.000000
0
VERTEX
5
2b8d
8
0
10
30.958758
20
37.949711
30
0.000000
0
VERTEX
5
2b9d
8
0
10
31.083749
20
37.882745
30
0.000000
0
VERTEX
5
2bad
8
0
10
31.208301
20
37.814027
30
0.000000
0
VERTEX
5
2bbd
8
0
10
31.332415
20
37.743551
30
0.000000
0
VERTEX
5
2bcd
8
0
10
31.456086
20
37.671308
30
0.000000
0
VERTEX
5
2bdd
8
0
10
31.579314
20
37.597291
30
0.000000
0
VERTEX
5
2bed
8
0
10
31.702097
20
37.521490
30
0.000000
0
VERTEX
5
2bfd
8
0
10
31.824434
20
37.443899
30
0.000000
0
VERTEX
5
2c0d
8
0
10
31.946321
20
37.364510
30
0.000000
0
VERTEX
5
2c1d
8
0
10
32.067758
20
37.283314
30
0.000000
0
VERTEX
5
2c2d
8
0
10
32.188743
20
37.200303
30
0.000000
0
VERTEX
5
2c3d
8
0
10
32.309273
20
37.115470
30
0.000000
0
VERTEX
5
2c4d
8
0
10
32.429348
20
37.028807
30
0.000000
0
VERTEX
5
2c5d
8
0
10
32.548965
20
36.940305
30
0.000000
0
VERTEX
5
2c6d
8
0
10
32.668123
20
36.849956
30
0.000000
0
VERTEX
5
2c7d
8
0
10
32.786819
20
36.757753
30
0.000000
0
VERTEX
5
2c8d
8
0
10
32.905053
20
36.663688
30
0.000000
0
VERTEX
5
2c9d
8
0
10
33.022822
20
36.567753
30
0.000000
0
VERTEX
5
2cad
8
0
10
33.140124
20
36.469939
30
0.000000
0
VERTEX
5
2cbd
8
0
10
33.256957
20
36.370239
30
0.000000
0
VERTEX
5
2ccd
8
0
10
33.373321
20
36.268645
30
0.000000
0
VERTEX
5
2cdd
8
0
10
33.489213
20
36.165149
30
0.000000
0
VERTEX
5
2ced
8
0
10
33.604631
20
36.059743
30
0.000000
0
VERTEX
5
2cfd
8
0
10
33.719573
20
35.952418
30
0.000000
0
VERTEX
5
2d0d
8
0
10
33.834038
20
35.843167
30
0.000000
0
VERTEX
5
2d1d
8
0
10
33.948024
20
35.731983
30
0.000000
0
VERTEX
5
2d2d
8
0
10
34.061529
20
35.618856
30
0.000000
0
VERTEX
5
2d3d
8
0
10
34.174552
20
35.503779
30
0.000000
0
VERTEX
5
2d4d
8
0
10
34.287090
20
35.386745
30
0.000000
0
VERTEX
5
2d5d
8
0
10
34.399142
20
35.267744
30
0.000000
0
VERTEX
5
2d6d
8
0
10
34.510705
20
35.146770
30
0.000000
0
VERTEX
5
2d7d
8
0
10
34.621779
20
35.023813
30
0.000000
0
VERTEX
5
2d8d
8
0
10
34.732362
20
34.898867
30
0.000000
0
VERTEX
5
2d9d
8
0
10
34.842451
20
34.771924
30
0.000000
0
VERTEX
5
2dad
8
0
10
34.952045
20
34.642974
30
0.000000
0
VERTEX
5
2dbd
8
0
10
35.061141
20
34.512011
30
0.000000
0
VERTEX
5
2dcd
8
0
10
35.169740
20
34.379026
30
0.000000
0
VERTEX
5
2ddd
8
0
10
35.277837
20
34.244011
30
0.000000
0
VERTEX
5
2ded
8
0
10
35.385432
20
34.106959
30
0.000000
0
VERTEX
5
2dfd
8
0
10
35.492524
20
33.967861
30
0.000000
0
VERTEX
5
2e0d
8
0
10
35.599109
20
33.826709
30
0.000000
0
VERTEX
5
2e1d
8
0
10
35.705186
20
33.683496
30
0.000000
0
VERTEX
5
2e2d
8
0
10
35.705186
20
33.683496
30
0.000000
0
VERTEX
5
2e3d
8
0
10
35.859808
20
33.386250
30
0.000000
0
VERTEX
5
2e4d
8
0
10
36.009499
20
33.089732
30
0.000000
0
VERTEX
5
2e5d
8
0
10
36.154198
20
32.793949
30
0.000000
0
VERTEX
5
2e6d
8
0
10
36.293843
20
32.498907
30
0.000000
0
VERTEX
5
2e7d
8
0
10
36.428373
20
32.204613
30
0.000000
0
VERTEX
5
2e8d
8
0
10
36.557727
20
31.911074
30
0.000000
0
VERTEX
5
2e9d
8
0
10
36.681843
20
31.618297
30
0.000000
0
VERTEX
5
2ead
8
0
10
36.800662
20
31.326288
30
0.000000
0
VERTEX
5
2ebd
8
0
10
36.914120
20
31.035055
30
0.000000
0
VERTEX
5
2ecd
8
0
10
37.022158
20
30.744603
30
0.000000
0
VERTEX
5
2edd
8
0
10
37.124713
20
30.454940
30
0.000000
0
VERTEX
5
2eed
8
0
10
37.221725
20
30.166073
30
0.000000
0
VERTEX
5
2efd
8
0
10
37.313132
20
29.878008
30
0.000000
0
VERTEX
5
2f0d
8
0
10
37.398874
20
29.590751
30
0.000000
0
VERTEX
5
2f1d
8
0
10
37.478888
20
29.304311
30
0.000000
0
VERTEX
5
2f2d
8
0
10
37.553115
20
29.018693
30
0.000000
0
VERTEX
5
2f3d
8
0
10
37.621491
20
28.733904
30
0.000000
0
VERTEX
5
2f4d
8
0
10
37.683957
20
28.449951
30
0.000000
0
VERTEX
5
2f5d
8
0
10
37.740452
20
28.166841
30
0.000000
0
VERTEX
5
2f6d
8
0
10
37.790913
20
27.884580
30
0.000000
0
VERTEX
5
2f7d
8
0
10
37.835279
20
27.603176
30
0.000000
0
VERTEX
5
2f8d
8
0
10
37.855158
20
27.462797
30
0.000000
0
VERTEX
5
2f9d
8
0
10
37.873490
20
27.322635
30
0.000000
0
VERTEX
5
2fad
8
0
10
37.890268
20
27.182690
30
0.000000
0
VERTEX
5
2fbd
8
0
10
37.905484
20
27.042963
30
0.000000
0
VERTEX
5
2fcd
8
0
10
37.919131
20
26.903456
30
0.000000
0
VERTEX
5
2fdd
8
0
10
37.931200
20
26.764168
30
0.000000
0
VERTEX
5
2fed
8
0
10
37.941685
20
26.625102
30
0.000000
0
VERTEX
5
2ffd
8
0
10
37.950577
20
26.486257
30
0.000000
0
VERTEX
5
300d
8
0
10
37.957869
20
26.347634
30
0.000000
0
VERTEX
5
301d
8
0
10
37.963553
20
26.209235
30
0.000000
0
VERTEX
5
302d
8
0
10
37.967622
20
26.071060
30
0.000000
0
VERTEX
5
303d
8
0
10
37.970068
20
25.933110
30
0.000000
0
VERTEX
5
304d
8
0
10
37.970883
20
25.795386
30
0.000000
0
VERTEX
5
305d
8
0
10
37.970060
20
25.657889
30
0.000000
0
VERTEX
5
306d
8
0
10
37.967590
20
25.520619
30
0.000000
0
VERTEX
5
307d
8
0
10
37.963467
20
25.383578
30
0.000000
0
VERTEX
5
308d
8
0
10
37.957683
20
25.246766
30
0.000000
0
VERTEX
5
309d
8
0
10
37.950229
20
25.110184
30
0.000000
0
VERTEX
5
30ad
8
0
10
37.941099
20
24.973833
30
0.000000
0
VERTEX
5
30bd
8
0
10
37.930285
20
24.837714
30
0.000000
0
VERTEX
5
30cd
8
0
10
37.917779
20
24.701828
30
0.000000
0
VERTEX
5
30dd
8
0
10
37.903573
20
24.566175
30
0.000000
0
VERTEX
5
30ed
8
0
10
37.887660
20
24.430756
30
0.000000
0
VERTEX
5
30fd
8
0
10
37.870031
20
24.295573
30
0.000000
0
VERTEX
5
310d
8
0
10
37.850681
20
24.160626
30
0.000000
0
VERTEX
5
311d
8
0
10
37.829600
20
24.025915
30
0.000000
0
VERTEX
5
312d
8
0
10
37.806781
20
23.891442
30
0.000000
0
VERTEX
5
313d
8
0
10
37.782217
20
23.757208
30
0.000000
0
VERTEX
5
314d
8
0
10
37.755899
20
23.623213
30
0.000000
0
VERTEX
5
315d
8
0
10
37.727821
20
23.489458
30
0.000000
0
VERTEX
5
316d
8
0
10
37.697974
20
23.355945
30
0.000000
0
VERTEX
5
317d
8
0
10
37.666352
20
23.222673
30
0.000000
0
VERTEX
5
318d
8
0
10
37.632945
20
23.089645
30
0.000000
0
VERTEX
5
319d
8
0
10
37.597747
20
22.956859
30
0.000000
0
VERTEX
5
31ad
8
0
10
37.560749
20
22.824319
30
0.000000
0
VERTEX
5
31bd
8
0
10
37.521946
20
22.692023
30
0.000000
0
VERTEX
5
31cd
8
0
10
37.481327
20
22.559974
30
0.000000
0
VERTEX
5
31dd
8
0
10
37.438887
20
22.428172
30
0.000000
0
VERTEX
5
31ed
8
0
10
37.394617
20
22.296618
30
0.000000
0
VERTEX
5
31fd
8
0
10
37.348509
20
22.165312
30
0.000000
0
VERTEX
5
320d
8
0
10
37.300557
20
22.034256
30
0.000000
0
VERTEX
5
321d
8
0
10
37.250752
20
21.903450
30
0.000000
0
VERTEX
5
322d
8
0
10
37.199086
20
21.772896
30
0.000000
0
VERTEX
5
323d
8
0
10
37.145553
20
21.642593
30
0.000000
0
VERTEX
5
324d
8
0
10
37.090144
20
21.512544
30
0.000000
0
VERTEX
5
325d
8
0
10
37.032851
20
21.382748
30
0.000000
0
VERTEX
5
326d
8
0
10
36.973668
20
21.253207
30
0.000000
0
VERTEX
5
327d
8
0
10
36.912586
20
21.123921
30
0.000000
0
VERTEX
5
328d
8
0
10
36.849598
20
20.994892
30
0.000000
0
VERTEX
5
329d
8
0
10
36.784696
20
20.866120
30
0.000000
0
VERTEX
5
32ad
8
0
10
36.717873
20
20.737605
30
0.000000
0
VERTEX
5
32bd
8
0
10
36.649120
20
20.609350
30
0.000000
0
VERTEX
5
32cd
8
0
10
36.578431
20
20.481354
30
0.000000
0
VERTEX
5
32dd
8
0
10
36.505797
20
20.353619
30
0.000000
0
VERTEX
5
32ed
8
0
10
36.431211
20
20.226145
30
0.000000
0
VERTEX
5
32fd
8
0
10
36.354665
20
20.098934
30
0.000000
0
VERTEX
5
330d
8
0
10
36.276151
20
19.971985
30
0.000000
0
VERTEX
5
331d
8
0
10
36.195663
20
19.845300
30
0.000000
0
VERTEX
5
332d
8
0
10
36.113192
20
19.718880
30
0.000000
0
VERTEX
5
333d
8
0
10
36.028730
20
19.592726
30
0.000000
0
VERTEX
5
334d
8
0
10
35.942270
20
19.466838
30
0.000000
0
VERTEX
5
335d
8
0
10
35.853805
20
19.341217
30
0.000000
0
VERTEX
5
336d
8
0
10
35.763326
20
19.215865
30
0.000000
0
VERTEX
5
337d
8
0
10
35.670826
20
19.090781
30
0.000000
0
VERTEX
5
338d
8
0
10
35.576298
20
18.965967
30
0.000000
0
VERTEX
5
339d
8
0
10
35.479733
20
18.841424
30
0.000000
0
VERTEX
5
33ad
8
0
10
35.381124
20
18.717153
30
0.000000
0
VERTEX
5
33bd
8
0
10
35.280464
20
18.593154
30
0.000000
0
VERTEX
5
33cd
8
0
10
35.177744
20
18.469427
30
0.000000
0
VERTEX
5
33dd
8
0
10
35.072957
20
18.345975
30
0.000000
0
VERTEX
5
33ed
8
0
10
34.966096
20
18.222798
30
0.000000
0
VERTEX
5
33fd
8
0
10
34.857153
20
18.099897
30
0.000000
0
VERTEX
5
340d
8
0
10
34.746119
20
17.977272
30
0.000000
0
VERTEX
5
341d
8
0
10
34.632988
20
17.854925
30
0.000000
0
VERTEX
5
342d
8
0
10
34.517752
20
17.732855
30
0.000000
0
VERTEX
5
343d
8
0
10
34.400403
20
17.611065
30
0.000000
0
VERTEX
5
344d
8
0
10
34.280934
20
17.489555
30
0.000000
0
VERTEX
5
345d
8
0
10
34.159336
20
17.368326
30
0.000000
0
VERTEX
5
346d
8
0
10
34.035603
20
17.247378
30
0.000000
0
VERTEX
5
347d
8
0
10
33.909726
20
17.126713
30
0.000000
0
VERTEX
5
348d
8
0
10
33.781698
20
17.006331
30
0.000000
0
VERTEX
5
349d
8
0
10
33.651511
20
16.886233
30
0.000000
0
VERTEX
5
34ad
8
0
10
33.519158
20
16.766420
30
0.000000
0
VERTEX
5
34bd
8
0
10
33.384630
20
16.646894
30
0.000000
0
VERTEX
5
34cd
8
0
10
33.247921
20
16.527653
30
0.000000
0
VERTEX
5
34dd
8
0
10
33.109023
20
16.408701
30
0.000000
0
VERTEX
5
34ed
8
0
10
33.109023
20
16.408701
30
0.000000
0
VERTEX
5
34fd
8
0
10
33.057369
20
16.792094
30
0.000000
0
VERTEX
5
350d
8
0
10
33.010494
20
17.175597
30
0.000000
0
VERTEX
5
351d
8
0
10
32.968169
20
17.559227
30
0.000000
0
VERTEX
5
352d
8
0
10
32.930164
20
17.943004
30
0.000000
0
VERTEX
5
353d
8
0
10
32.896247
20
18.326947
30
0.000000
0
VERTEX
5
354d
8
0
10
32.866188
20
18.711075
30
0.000000
0
VERTEX
5
355d
8
0
10
32.839757
20
19.095406
30
0.000000
0
VERTEX
5
356d
8
0
10
32.816723
20
19.479959
30
0.000000
0
VERTEX
5
357d
8
0
10
32.796857
20
19.864753
30
0.000000
0
VERTEX
5
358d
8
0
10
32.779927
20
20.249807
30
0.000000
0
VERTEX
5
359d
8
0
10
32.765704
20
20.635140
30
0.000000
0
VERTEX
5
35ad
8
0
10
32.753956
20
21.020770
30
0.000000
0
VERTEX
5
35bd
8
0
10
32.744455
20
21.406717
30
0.000000
0
VERTEX
5
35cd
8
0
10
32.736968
20
21.792998
30
0.000000
0
VERTEX
5
35dd
8
0
10
32.731266
20
22.179634
30
0.000000
0
VERTEX
5
35ed
8
0
10
32.727118
20
22.566643
30
0.000000
0
VERTEX
5
35fd
8
0
10
32.722565
20
23.341854
30
0.000000
0
VERTEX
5
360d
8
0
10
32.721464
20
24.118783
30
0.000000
0
VERTEX
5
361d
8
0
10
32.722250
20
25.678395
30
0.000000
0
VERTEX
5
362d
8
0
10
32.720449
20
26.461380
30
0.000000
0
VERTEX
5
363d
8
0
10
32.714729
20
27.246684
30
0.000000
0
VERTEX
5
364d
8
0
10
32.709823
20
27.640254
30
0.000000
0
VERTEX
5
365d
8
0
10
32.703246
20
28.034460
30
0.000000
0
VERTEX
5
366d
8
0
10
32.694768
20
28.429322
30
0.000000
0
VERTEX
5
367d
8
0
10
32.684158
20
28.824857
30
0.000000
0
VERTEX
5
368d
8
0
10
32.684158
20
28.824857
30
0.000000
0
VERTEX
5
369d
8
0
10
32.496398
20
28.694065
30
0.000000
0
VERTEX
5
36ad
8
0
10
32.310644
20
28.560604
30
0.000000
0
VERTEX
5
36bd
8
0
10
32.126807
20
28.424592
30
0.000000
0
VERTEX
5
36cd
8
0
10
31.944796
20
28.286142
30
0.000000
0
VERTEX
5
36dd
8
0
10
31.764522
20
28.145370
30
0.000000
0
VERTEX
5
36ed
8
0
10
31.585895
20
28.002391
30
0.000000
0
VERTEX
5
36fd
8
0
10
31.408823
20
27.857319
30
0.000000
0
VERTEX
5
370d
8
0
10
31.233219
20
27.710270
30
0.000000
0
VERTEX
5
371d
8
0
10
31.058991
20
27.561359
30
0.000000
0
VERTEX
5
372d
8
0
10
30.886050
20
27.410701
30
0.000000
0
VERTEX
5
373d
8
0
10
30.714306
20
27.258411
30
0.000000
0
VERTEX
5
374d
8
0
10
30.543669
20
27.104603
30
0.000000
0
VERTEX
5
375d
8
0
10
30.374048
20
26.949394
30
0.000000
0
VERTEX
5
376d
8
0
10
30.205355
20
26.792897
30
0.000000
0
VERTEX
5
377d
8
0
10
29.870389
20
26.476504
30
0.000000
0
VERTEX
5
378d
8
0
10
29.538052
20
26.156342
30
0.000000
0
VERTEX
5
379d
8
0
10
29.207624
20
25.833334
30
0.000000
0
VERTEX
5
37ad
8
0
10
28.549617
20
25.182455
30
0.000000
0
VERTEX
5
37bd
8
0
10
28.220599
20
24.856426
30
0.000000
0
VERTEX
5
37cd
8
0
10
27.890611
20
24.531230
30
0.000000
0
VERTEX
5
37dd
8
0
10
27.558935
20
24.207788
30
0.000000
0
VERTEX
5
37ed
8
0
10
27.224851
20
23.887021
30
0.000000
0
VERTEX
5
37fd
8
0
10
27.246499
20
17.301682
30
0.000000
0
VERTEX
5
380d
8
0
10
23.154013
20
26.479155
30
0.000000
0
VERTEX
5
381d
8
0
10
23.154013
20
26.479155
30
0.000000
0
VERTEX
5
382d
8
0
10
23.207590
20
26.510467
30
0.000000
0
VERTEX
5
383d
8
0
10
23.261450
20
26.540052
30
0.000000
0
VERTEX
5
384d
8
0
10
23.315588
20
26.567955
30
0.000000
0
VERTEX
5
385d
8
0
10
23.369998
20
26.594220
30
0.000000
0
VERTEX
5
386d
8
0
10
23.424676
20
26.618893
30
0.000000
0
VERTEX
5
387d
8
0
10
23.479614
20
26.642018
30
0.000000
0
VERTEX
5
388d
8
0
10
23.590251
20
26.683807
30
0.000000
0
VERTEX
5
389d
8
0
10
23.701865
20
26.719947
30
0.000000
0
VERTEX
5
38ad
8
0
10
23.814411
20
26.750798
30
0.000000
0
VERTEX
5
38bd
8
0
10
23.927844
20
26.776720
30
0.000000
0
VERTEX
5
38cd
8
0
10
24.042118
20
26.798074
30
0.000000
0
VERTEX
5
38dd
8
0
10
24.157189
20
26.815218
30
0.000000
0
VERTEX
5
38ed
8
0
10
24.273013
20
26.828515
30
0.000000
0
VERTEX
5
38fd
8
0
10
24.389543
20
26.838323
30
0.000000
0
VERTEX
5
390d
8
0
10
24.506735
20
26.845003
30
0.000000
0
VERTEX
5
391d
8
0
10
24.624544
20
26.848915
30
0.000000
0
VERTEX
5
392d
8
0
10
24.742925
20
26.850419
30
0.000000
0
VERTEX
5
393d
8
0
10
24.861833
20
26.849876
30
0.000000
0
VERTEX
5
394d
8
0
10
24.981223
20
26.847645
30
0.000000
0
VERTEX
5
395d
8
0
10
25.221269
20
26.839561
30
0.000000
0
VERTEX
5
396d
8
0
10
25.462704
20
26.829050
30
0.000000
0
VERTEX
5
397d
8
0
10
25.705167
20
26.818991
30
0.000000
0
VERTEX
5
398d
8
0
10
25.948299
20
26.812267
30
0.000000
0
VERTEX
5
399d
8
0
10
26.070003
20
26.811056
30
0.000000
0
VERTEX
5
39ad
8
0
10
26.191740
20
26.811759
30
0.000000
0
VERTEX
5
39bd
8
0
10
26.313463
20
26.814736
30
0.000000
0
VERTEX
5
39cd
8
0
10
26.435129
20
26.820348
30
0.000000
0
VERTEX
5
39dd
8
0
10
26.556692
20
26.828954
30
0.000000
0
VERTEX
5
39ed
8
0
10
26.678108
20
26.840914
30
0.000000
0
VERTEX
5
39fd
8
0
10
26.799331
20
26.856590
30
0.000000
0
VERTEX
5
3a0d
8
0
10
26.920316
20
26.876340
30
0.000000
0
VERTEX
5
3a1d
8
0
10
26.920316
20
26.876340
30
0.000000
0
VERTEX
5
3a2d
8
0
10
26.962687
20
26.823901
30
0.000000
0
VERTEX
5
3a3d
8
0
10
26.999269
20
26.769661
30
0.000000
0
VERTEX
5
3a4d
8
0
10
27.030462
20
26.713749
30
0.000000
0
VERTEX
5
3a5d
8
0
10
27.056666
20
26.656295
30
0.000000
0
VERTEX
5
3a6d
8
0
10
27.078282
20
26.597430
30
0.000000
0
VERTEX
5
3a7d
8
0
10
27.095710
20
26.537283
30
0.000000
0
VERTEX
5
3a8d
8
0
10
27.109352
20
26.475984
30
0.000000
0
VERTEX
5
3a9d
8
0
10
27.119607
20
26.413663
30
0.000000
0
VERTEX
5
3aad
8
0
10
27.126876
20
26.350450
30
0.000000
0
VERTEX
5
3abd
8
0
10
27.131560
20
26.286475
30
0.000000
0
VERTEX
5
3acd
8
0
10
27.134059
20
26.221867
30
0.000000
0
VERTEX
5
3add
8
0
10
27.134774
20
26.156757
30
0.000000
0
VERTEX
5
3aed
8
0
10
27.132452
20
26.025550
30
0.000000
0
VERTEX
5
3afd
8
0
10
27.127799
20
25.893892
30
0.000000
0
VERTEX
5
3b0d
8
0
10
27.124020
20
25.762823
30
0.000000
0
VERTEX
5
3b1d
8
0
10
27.123459
20
25.697834
30
0.000000
0
VERTEX
5
3b2d
8
0
10
27.124317
20
25.633382
30
0.000000
0
VERTEX
5
3b3d
8
0
10
27.126997
20
25.569597
30
0.000000
0
VERTEX
5
3b4d
8
0
10
27.131897
20
25.506608
30
0.000000
0
VERTEX
5
3b5d
8
0
10
27.139418
20
25.444546
30
0.000000
0
VERTEX
5
3b6d
8
0
10
27.149961
20
25.383541
30
0.000000
0
VERTEX
5
3b7d
8
0
10
27.163927
20
25.323722
30
0.000000
0
VERTEX
5
3b8d
8
0
10
27.181716
20
25.265219
30
0.000000
0
VERTEX
5
3b9d
8
0
10
27.203728
20
25.208162
30
0.000000
0
VERTEX
5
3bad
8
0
10
27.230364
20
25.152682
30
0.000000
0
VERTEX
5
3bbd
8
0
10
27.262025
20
25.098907
30
0.000000
0
VERTEX
5
3bcd
8
0
10
27.299111
20
25.046969
30
0.000000
0
VERTEX
5
3bdd
8
0
10
27.342022
20
24.996996
30
0.000000
0
VERTEX
5
3bed
8
0
10
27.365788
20
24.972788
30
0.000000
0
VERTEX
5
3bfd
8
0
10
27.391160
20
24.949120
30
0.000000
0
VERTEX
5
3c0d
8
0
10
32.655179
20
29.789425
30
0.000000
0
VERTEX
5
3c1d
8
0
10
32.655179
20
29.789425
30
0.000000
0
VERTEX
5
3c2d
8
0
10
32.514334
20
29.945267
30
0.000000
0
VERTEX
5
3c3d
8
0
10
32.371077
20
30.098770
30
0.000000
0
VERTEX
5
3c4d
8
0
10
32.225507
20
30.250075
30
0.000000
0
VERTEX
5
3c5d
8
0
10
32.077723
20
30.399325
30
0.000000
0
VERTEX
5
3c6d
8
0
10
31.927826
20
30.546659
30
0.000000
0
VERTEX
5
3c7d
8
0
10
31.775914
20
30.692219
30
0.000000
0
VERTEX
5
3c8d
8
0
10
31.622087
20
30.836147
30
0.000000
0
VERTEX
5
3c9d
8
0
10
31.466444
20
30.978582
30
0.000000
0
VERTEX
5
3cad
8
0
10
31.309084
20
31.119668
30
0.000000
0
VERTEX
5
3cbd
8
0
10
31.150108
20
31.259543
30
0.000000
0
VERTEX
5
3ccd
8
0
10
30.989614
20
31.398351
30
0.000000
0
VERTEX
5
3cdd
8
0
10
30.827702
20
31.536231
30
0.000000
0
VERTEX
5
3ced
8
0
10
30.500020
20
31.809775
30
0.000000
0
VERTEX
5
3cfd
8
0
10
30.167858
20
32.081304
30
0.000000
0
VERTEX
5
3d0d
8
0
10
29.832011
20
32.351946
30
0.000000
0
VERTEX
5
3d1d
8
0
10
29.493274
20
32.622832
30
0.000000
0
VERTEX
5
3d2d
8
0
10
29.152442
20
32.895089
30
0.000000
0
VERTEX
5
3d3d
8
0
10
28.810309
20
33.169848
30
0.000000
0
VERTEX
5
3d4d
8
0
10
28.467673
20
33.448237
30
0.000000
0
VERTEX
5
3d5d
8
0
10
28.125326
20
33.731385
30
0.000000
0
VERTEX
5
3d6d
8
0
10
27.954510
20
33.875096
30
0.000000
0
VERTEX
5
3d7d
8
0
10
27.784065
20
34.020421
30
0.000000
0
VERTEX
5
3d8d
8
0
10
27.614090
20
34.167500
30
0.000000
0
VERTEX
5
3d9d
8
0
10
27.444685
20
34.316474
30
0.000000
0
VERTEX
5
3dad
8
0
10
27.444685
20
34.316474
30
0.000000
0
VERTEX
5
3dbd
8
0
10
27.416593
20
34.290445
30
0.000000
0
VERTEX
5
3dcd
8
0
10
27.390223
20
34.263774
30
0.000000
0
VERTEX
5
3ddd
8
0
10
27.365522
20
34.236481
30
0.000000
0
VERTEX
5
3ded
8
0
10
27.342437
20
34.208586
30
0.000000
0
VERTEX
5
3dfd
8
0
10
27.320915
20
34.180108
30
0.000000
0
VERTEX
5
3e0d
8
0
10
27.300903
20
34.151066
30
0.000000
0
VERTEX
5
3e1d
8
0
10
27.265194
20
34.091367
30
0.000000
0
VERTEX
5
3e2d
8
0
10
27.234888
20
34.029642
30
0.000000
0
VERTEX
5
3e3d
8
0
10
27.209558
20
33.966046
30
0.000000
0
VERTEX
5
3e4d
8
0
10
27.188780
20
33.900733
30
0.000000
0
VERTEX
5
3e5d
8
0
10
27.172130
20
33.833856
30
0.000000
0
VERTEX
5
3e6d
8
0
10
27.159183
20
33.765568
30
0.000000
0
VERTEX
5
3e7d
8
0
10
27.149513
20
33.696025
30
0.000000
0
VERTEX
5
3e8d
8
0
10
27.142697
20
33.625379
30
0.000000
0
VERTEX
5
3e9d
8
0
10
27.138309
20
33.553785
30
0.000000
0
VERTEX
5
3ead
8
0
10
27.135924
20
33.481396
30
0.000000
0
VERTEX
5
3ebd
8
0
10
27.135119
20
33.408366
30
0.000000
0
VERTEX
5
3ecd
8
0
10
27.136545
20
33.261000
30
0.000000
0
VERTEX
5
3edd
8
0
10
27.139190
20
33.112916
30
0.000000
0
VERTEX
5
3eed
8
0
10
27.139655
20
32.965345
30
0.000000
0
VERTEX
5
3efd
8
0
10
27.138008
20
32.892137
30
0.000000
0
VERTEX
5
3f0d
8
0
10
27.134542
20
32.819518
30
0.000000
0
VERTEX
5
3f1d
8
0
10
27.128833
20
32.747643
30
0.000000
0
VERTEX
5
3f2d
8
0
10
27.120454
20
32.676665
30
0.000000
0
VERTEX
5
3f3d
8
0
10
27.108982
20
32.606739
30
0.000000
0
VERTEX
5
3f4d
8
0
10
27.093992
20
32.538017
30
0.000000
0
VERTEX
5
3f5d
8
0
10
27.075059
20
32.470655
30
0.000000
0
VERTEX
5
3f6d
8
0
10
27.051758
20
32.404805
30
0.000000
0
VERTEX
5
3f7d
8
0
10
27.023665
20
32.340622
30
0.000000
0
VERTEX
5
3f8d
8
0
10
26.990355
20
32.278259
30
0.000000
0
VERTEX
5
3f9d
8
0
10
26.971610
20
32.247808
30
0.000000
0
VERTEX
5
3fad
8
0
10
26.951403
20
32.217870
30
0.000000
0
VERTEX
5
3fbd
8
0
10
26.929678
20
32.188464
30
0.000000
0
VERTEX
5
3fcd
8
0
10
26.906383
20
32.159610
30
0.000000
0
VERTEX
5
3fdd
8
0
10
20.619517
20
32.171684
30
0.000000
0
VERTEX
5
3fed
8
0
10
15.703639
20
43.208421
30
0.000000
0
VERTEX
5
3ffd
8
0
10
8.942299
20
43.208421
30
0.000000
0
VERTEX
5
400d
8
0
10
8.817786
20
43.208421
30
0.000000
0
VERTEX
5
401d
8
0
10
8.681638
20
43.208421
30
0.000000
0
SEQEND
5
402d
8
0
0
POLYLINE
5
403d
8
0
66
1
10
0
20
0
30
0
0
VERTEX
5
404d
8
0
10
27.245720
20
35.676742
30
0.000000
0
VERTEX
5
405d
8
0
10
27.245720
20
35.079510
30
0.000000
0
VERTEX
5
406d
8
0
10
32.638140
20
30.704040
30
0.000000
0
VERTEX
5
407d
8
0
10
32.638140
20
30.704040
30
0.000000
0
VERTEX
5
408d
8
0
10
32.668094
20
30.854281
30
0.000000
0
VERTEX
5
409d
8
0
10
32.695021
20
31.005034
30
0.000000
0
VERTEX
5
40ad
8
0
10
32.719101
20
31.156278
30
0.000000
0
VERTEX
5
40bd
8
0
10
32.740518
20
31.307989
30
0.000000
0
VERTEX
5
40cd
8
0
10
32.759454
20
31.460146
30
0.000000
0
VERTEX
5
40dd
8
0
10
32.776090
20
31.612725
30
0.000000
0
VERTEX
5
40ed
8
0
10
32.790609
20
31.765705
30
0.000000
0
VERTEX
5
40fd
8
0
10
32.803193
20
31.919063
30
0.000000
0
VERTEX
5
410d
8
0
10
32.814024
20
32.072777
30
0.000000
0
VERTEX
5
411d
8
0
10
32.823285
20
32.226824
30
0.000000
0
VERTEX
5
412d
8
0
10
32.837821
20
32.535828
30
0.000000
0
VERTEX
5
413d
8
0
10
32.848259
20
32.845896
30
0.000000
0
VERTEX
5
414d
8
0
10
32.856056
20
33.156850
30
0.000000
0
VERTEX
5
415d
8
0
10
32.869555
20
33.780694
30
0.000000
0
VERTEX
5
416d
8
0
10
32.878171
20
34.093227
30
0.000000
0
VERTEX
5
417d
8
0
10
32.889973
20
34.405928
30
0.000000
0
VERTEX
5
418d
8
0
10
32.906418
20
34.718617
30
0.000000
0
VERTEX
5
419d
8
0
10
32.916837
20
34.874901
30
0.000000
0
VERTEX
5
41ad
8
0
10
32.928964
20
35.031115
30
0.000000
0
VERTEX
5
41bd
8
0
10
32.942979
20
35.187237
30
0.000000
0
VERTEX
5
41cd
8
0
10
32.959067
20
35.343244
30
0.000000
0
VERTEX
5
41dd
8
0
10
32.977407
20
35.499114
30
0.000000
0
VERTEX
5
41ed
8
0
10
32.998184
20
35.654824
30
0.000000
0
VERTEX
5
41fd
8
0
10
27.245720
20
35.676742
30
0.000000
0
SEQEND
5
420d
8
0
0
POLYLINE
5
421d
8
0
66
1
10
0
20
0
30
0
0
VERTEX
5
422d
8
0
10
3.000000
20
0.000000
30
0.000000
0
VERTEX
5
423d
8
0
10
47.000000
20
0.000000
30
0.000000
0
VERTEX
5
424d
8
0
10
47.000000
20
0.000000
30
0.000000
0
VERTEX
5
425d
8
0
10
47.074492
20
0.000924
30
0.000000
0
VERTEX
5
426d
8
0
10
47.148761
20
0.003687
30
0.000000
0
VERTEX
5
427d
8
0
10
47.222779
20
0.008277
30
0.000000
0
VERTEX
5
428d
8
0
10
47.296513
20
0.014680
30
0.000000
0
VERTEX
5
429d
8
0
10
47.369934
20
0.022884
30
0.000000
0
VERTEX
5
42ad
8
0
10
47.443009
20
0.032877
30
0.000000
0
VERTEX
5
42bd
8
0
10
47.515710
20
0.044646
30
0.000000
0
VERTEX
5
42cd
8
0
10
47.588004
20
0.058177
30
0.000000
0
VERTEX
5
42dd
8
0
10
47.659861
20
0.073458
30
0.000000
0
VERTEX
5
42ed
8
0
10
47.731251
20
0.090477
30
0.000000
0
VERTEX
5
42fd
8
0
10
47.802143
20
0.109220
30
0.000000
0
VERTEX
5
430d
8
0
10
47.872505
20
0.129676
30
0.000000
0
VERTEX
5
431d
8
0
10
47.942308
20
0.151830
30
0.000000
0
VERTEX
5
432d
8
0
10
48.011520
20
0.175671
30
0.000000
0
VERTEX
5
433d
8
0
10
48.080111
20
0.201186
30
0.000000
0
VERTEX
5
434d
8
0
10
48.148050
20
0.228361
30
0.000000
0
VERTEX
5
435d
8
0
10
48.215307
20
0.257185
30
0.000000
0
VERTEX
5
436d
8
0
10
48.281849
20
0.287645
30
0.000000
0
VERTEX
5
437d
8
0
10
48.347648
20
0.319727
30
0.000000
0
VERTEX
5
438d
8
0
10
48.412671
20
0.353420
30
0.000000
0
VERTEX
5
439d
8
0
10
48.476889
20
0.388709
30
0.000000
0
VERTEX
5
43ad
8
0
10
48.540271
20
0.425584
30
0.000000
0
VERTEX
5
43bd
8
0
10
48.602785
20
0.464030
30
0.000000
0
VERTEX
5
43cd
8
0
10
48.664402
20
0.504035
30
0.000000
0
VERTEX
5
43dd
8
0
10
48.725089
20
0.545587
30
0.000000
0
VERTEX
5
43ed
8
0
10
48.784818
20
0.588672
30
0.000000
0
VERTEX
5
43fd
8
0
10
48.843556
20
0.633279
30
0.000000
0
VERTEX
5
440d
8
0
10
48.901274
20
0.679394
30
0.000000
0
VERTEX
5
441d
8
0
10
48.957939
20
0.727004
30
0.000000
0
VERTEX
5
442d
8
0
10
49.013523
20
0.776097
30
0.000000
0
VERTEX
5
443d
8
0
10
49.067994
20
0.826659
30
0.000000
0
VERTEX
5
444d
8
0
10
49.121320
20
0.878680
30
0.000000
0
VERTEX
5
445d
8
0
10
49.121320
20
0.878680
30
0.000000
0
VERTEX
5
446d
8
0
10
49.173341
20
0.932006
30
0.000000
0
VERTEX
5
447d
8
0
10
49.223903
20
0.986477
30
0.000000
0
VERTEX
5
448d
8
0
10
49.272996
20
1.042061
30
0.000000
0
VERTEX
5
449d
8
0
10
49.320606
20
1.098726
30
0.000000
0
VERTEX
5
44ad
8
0
10
49.366721
20
1.156444
30
0.000000
0
VERTEX
5
44bd
8
0
10
49.411328
20
1.215182
30
0.000000
0
VERTEX
5
44cd
8
0
10
49.454413
20
1.274911
30
0.000000
0
VERTEX
5
44dd
8
0
10
49.495965
20
1.335598
30
0.000000
0
VERTEX
5
44ed
8
0
10
49.535970
20
1.397215
30
0.000000
0
VERTEX
5
44fd
8
0
10
49.574416
20
1.459729
30
0.000000
0
VERTEX
5
450d
8
0
10
49.611291
20
1.523111
30
0.000000
0
VERTEX
5
451d
8
0
10
49.646580
20
1.587329
30
0.000000
0
VERTEX
5
452d
8
0
10
49.680273
20
1.652352
30
0.000000
0
VERTEX
5
453d
8
0
10
49.712355
20
1.718151
30
0.000000
0
VERTEX
5
454d
8
0
10
49.742815
20
1.784693
30
0.000000
0
VERTEX
5
455d
8
0
10
49.771639
20
1.851950
30
0.000000
0
VERTEX
5
456d
8
0
10
49.798814
20
1.919889
30
0.000000
0
VERTEX
5
457d
8
0
10
49.824329
20
1.988480
30
0.000000
0
VERTEX
5
458d
8
0
10
49.848170
20
2.057692
30
0.000000
0
VERTEX
5
459d
8
0
10
49.870324
20
2.127495
30
0.000000
0
VERTEX
5
45ad
8
0
10
49.890780
20
2.197857
30
0.000000
0
VERTEX
5
45bd
8
0
10
49.909523
20
2.268749
30
0.000000
0
VERTEX
5
45cd
8
0
10
49.926542
20
2.340139
30
0.000000
0
VERTEX
5
45dd
8
0
10
49.941823
20
2.411996
30
0.000000
0
VERTEX
5
45ed
8
0
10
49.955354
20
2.484290
30
0.000000
0
VERTEX
5
45fd
8
0
10
49.967123
20
2.556991
30
0.000000
0
VERTEX
5
460d
8
0
10
49.977116
20
2.630066
30
0.000000
0
VERTEX
5
461d
8
0
10
49.985320
20
2.703487
30
0.000000
0
VERTEX
5
462d
8
0
10
49.991723
20
2.777221
30
0.000000
0
VERTEX
5
463d
8
0
10
49.996313
20
2.851239
30
0.000000
0
VERTEX
5
464d
8
0
10
49.999076
20
2.925508
30
0.000000
0
VERTEX
5
465d
8
0
10
50.000000
20
3.000000
30
0.000000
0
VERTEX
5
466d
8
0
10
50.000000
20
47.000000
30
0.000000
0
VERTEX
5
467d
8
0
10
50.000000
20
47.000000
30
0.000000
0
VERTEX
5
468d
8
0
10
49.999076
20
47.074492
30
0.000000
0
VERTEX
5
469d
8
0
10
49.996313
20
47.148761
30
0.000000
0
VERTEX
5
46ad
8
0
10
49.991723
20
47.222779
30
0.000000
0
VERTEX
5
46bd
8
0
10
49.985320
20
47.296513
30
0.000000
0
VERTEX
5
46cd
8
0
10
49.977116
20
47.369934
30
0.000000
0
VERTEX
5
46dd
8
0
10
49.967123
20
47.443009
30
0.000000
0
VERTEX
5
46ed
8
0
10
49.955354
20
47.515710
30
0.000000
0
VERTEX
5
46fd
8
0
10
49.941823
20
47.588004
30
0.000000
0
VERTEX
5
470d
8
0
10
49.926542
20
47.659861
30
0.000000
0
VERTEX
5
471d
8
0
10
49.909523
20
47.731251
30
0.000000
0
VERTEX
5
472d
8
0
10
49.890780
20
47.802143
30
0.000000
0
VERTEX
5
473d
8
0
10
49.870324
20
47.872505
30
0.000000
0
VERTEX
5
474d
8
0
10
49.848170
20
47.942308
30
0.000000
0
VERTEX
5
475d
8
0
10
49.824329
20
48.011520
30
0.000000
0
VERTEX
5
476d
8
0
10
49.798814
20
48.080111
30
0.000000
0
VERTEX
5
477d
8
0
10
49.771639
20
48.148050
30
0.000000
0
VERTEX
5
478d
8
0
10
49.742815
20
48.215307
30
0.000000
0
VERTEX
5
479d
8
0
10
49.712355
20
48.281849
30
0.000000
0
VERTEX
5
47ad
8
0
10
49.680273
20
48.347648
30
0.000000
0
VERTEX
5
47bd
8
0
10
49.646580
20
48.412671
30
0.000000
0
VERTEX
5
47cd
8
0
10
49.611291
20
48.476889
30
0.000000
0
VERTEX
5
47dd
8
0
10
49.574416
20
48.540271
30
0.000000
0
VERTEX
5
47ed
8
0
10
49.535970
20
48.602785
30
0.000000
0
VERTEX
5
47fd
8
0
10
49.495965
20
48.664402
30
0.000000
0
VERTEX
5
480d
8
0
10
49.454413
20
48.725089
30
0.000000
0
VERTEX
5
481d
8
0
10
49.411328
20
48.784818
30
0.000000
0
VERTEX
5
482d
8
0
10
49.366721
20
48.843556
30
0.000000
0
VERTEX
5
483d
8
0
10
49.320606
20
48.901274
30
0.000000
0
VERTEX
5
484d
8
0
10
49.272996
20
48.957939
30
0.000000
0
VERTEX
5
485d
8
0
10
49.223903
20
49.013523
30
0.000000
0
VERTEX
5
486d
8
0
10
49.173341
20
49.067994
30
0.000000
0
VERTEX
5
487d
8
0
10
49.121320
20
49.121320
30
0.000000
0
VERTEX
5
488d
8
0
10
49.121320
20
49.121320
30
0.000000
0
VERTEX
5
489d
8
0
10
49.067994
20
49.173341
30
0.000000
0
VERTEX
5
48ad
8
0
10
49.013523
20
49.223903
30
0.000000
0
VERTEX
5
48bd
8
0
10
48.957939
20
49.272996
30
0.000000
0
VERTEX
5
48cd
8
0
10
48.901274
20
49.320606
30
0.000000
0
VERTEX
5
48dd
8
0
10
48.843556
20
49.366721
30
0.000000
0
VERTEX
5
48ed
8
0
10
48.784818
20
49.411328
30
0.000000
0
VERTEX
5
48fd
8
0
10
48.725089
20
49.454413
30
0.000000
0
VERTEX
5
490d
8
0
10
48.664402
20
49.495965
30
0.000000
0
VERTEX
5
491d
8
0
10
48.602785
20
49.535970
30
0.000000
0
VERTEX
5
492d
8
0
10
48.540271
20
49.574416
30
0.000000
0
VERTEX
5
493d
8
0
10
48.476889
20
49.611291
30
0.000000
0
VERTEX
5
494d
8
0
10
48.412671
20
49.646580
30
0.000000
0
VERTEX
5
495d
8
0
10
48.347648
20
49.680273
30
0.000000
0
VERTEX
5
496d
8
0
10
48.281849
20
49.712355
30
0.000000
0
VERTEX
5
497d
8
0
10
48.215307
20
49.742815
30
0.000000
0
VERTEX
5
498d
8
0
10
48.148050
20
49.771639
30
0.000000
0
VERTEX
5
499d
8
0
10
48.080111
20
49.798814
30
0.000000
0
VERTEX
5
49ad
8
0
10
48.011520
20
49.824329
30
0.000000
0
VERTEX
5
49bd
8
0
10
47.942308
20
49.848170
30
0.000000
0
VERTEX
5
49cd
8
0
10
47.872505
20
49.870324
30
0.000000
0
VERTEX
5
49dd
8
0
10
47.802143
20
49.890780
30
0.000000
0
VERTEX
5
49ed
8
0
10
47.731251
20
49.909523
30
0.000000
0
VERTEX
5
49fd
8
0
10
47.659861
20
49.926542
30
0.000000
0
VERTEX
5
4a0d
8
0
10
47.588004
20
49.941823
30
0.000000
0
VERTEX
5
4a1d
8
0
10
47.515710
20
49.955354
30
0.000000
0
VERTEX
5
4a2d
8
0
10
47.443009
20
49.967123
30
0.000000
0
VERTEX
5
4a3d
8
0
10
47.369934
20
49.977116
30
0.000000
0
VERTEX
5
4a4d
8
0
10
47.296513
20
49.985320
30
0.000000
0
VERTEX
5
4a5d
8
0
10
47.222779
20
49.991723
30
0.000000
0
VERTEX
5
4a6d
8
0
10
47.148761
20
49.996313
30
0.000000
0
VERTEX
5
4a7d
8
0
10
47.074492
20
49.999076
30
0.000000
0
VERTEX
5
4a8d
8
0
10
47.000000
20
50.000000
30
0.000000
0
VERTEX
5
4a9d
8
0
10
3.000000
20
50.000000
30
0.000000
0
VERTEX
5
4aad
8
0
10
3.000000
20
50.000000
30
0.000000
0
VERTEX
5
4abd
8
0
10
2.925508
20
49.999076
30
0.000000
0
VERTEX
5
4acd
8
0
10
2.851239
20
49.996313
30
0.000000
0
VERTEX
5
4add
8
0
10
2.777221
20
49.991723
30
0.000000
0
VERTEX
5
4aed
8
0
10
2.703487
20
49.985320
30
0.000000
0
VERTEX
5
4afd
8
0
10
2.630066
20
49.977116
30
0.000000
0
VERTEX
5
4b0d
8
0
10
2.556991
20
49.967123
30
0.000000
0
VERTEX
5
4b1d
8
0
10
2.484290
20
49.955354
30
0.000000
0
VERTEX
5
4b2d
8
0
10
2.411996
20
49.941823
30
0.000000
0
VERTEX
5
4b3d
8
0
10
2.340139
20
49.926542
30
0.000000
0
VERTEX
5
4b4d
8
0
10
2.268749
20
49.909523
30
0.000000
0
VERTEX
5
4b5d
8
0
10
2.197857
20
49.890780
30
0.000000
0
VERTEX
5
4b6d
8
0
10
2.127495
20
49.870324
30
0.000000
0
VERTEX
5
4b7d
8
0
10
2.057692
20
49.848170
30
0.000000
0
VERTEX
5
4b8d
8
0
10
1.988480
20
49.824329
30
0.000000
0
VERTEX
5
4b9d
8
0
10
1.919889
20
49.798814
30
0.000000
0
VERTEX
5
4bad
8
0
10
1.851950
20
49.771639
30
0.000000
0
VERTEX
5
4bbd
8
0
10
1.784693
20
49.742815
30
0.000000
0
VERTEX
5
4bcd
8
0
10
1.718151
20
49.712355
30
0.000000
0
VERTEX
5
4bdd
8
0
10
1.652352
20
49.680273
30
0.000000
0
VERTEX
5
4bed
8
0
10
1.587329
20
49.646580
30
0.000000
0
VERTEX
5
4bfd
8
0
10
1.523111
20
49.611291
30
0.000000
0
VERTEX
5
4c0d
8
0
10
1.459729
20
49.574416
30
0.000000
0
VERTEX
5
4c1d
8
0
10
1.397215
20
49.535970
30
0.000000
0
VERTEX
5
4c2d
8
0
10
1.335598
20
49.495965
30
0.000000
0
VERTEX
5
4c3d
8
0
10
1.274911
20
49.454413
30
0.000000
0
VERTEX
5
4c4d
8
0
10
1.215182
20
49.411328
30
0.000000
0
VERTEX
5
4c5d
8
0
10
1.156444
20
49.366721
30
0.000000
0
VERTEX
5
4c6d
8
0
10
1.098726
20
49.320606
30
0.000000
0
VERTEX
5
4c7d
8
0
10
1.042061
20
49.272996
30
0.000000
0
VERTEX
5
4c8d
8
0
10
0.986477
20
49.223903
30
0.000000
0
VERTEX
5
4c9d
8
0
10
0.932006
20
49.173341
30
0.000000
0
VERTEX
5
4cad
8
0
10
0.878680
20
49.121320
30
0.000000
0
VERTEX
5
4cbd
8
0
10
0.878680
20
49.121320
30
0.000000
0
VERTEX
5
4ccd
8
0
10
0.826659
20
49.067994
30
0.000000
0
VERTEX
5
4cdd
8
0
10
0.776097
20
49.013523
30
0.000000
0
VERTEX
5
4ced
8
0
10
0.727004
20
48.957939
30
0.000000
0
VERTEX
5
4cfd
8
0
10
0.679394
20
48.901274
30
0.000000
0
VERTEX
5
4d0d
8
0
10
0.633279
20
48.843556
30
0.000000
0
VERTEX
5
4d1d
8
0
10
0.588672
20
48.784818
30
0.000000
0
VERTEX
5
4d2d
8
0
10
0.545587
20
48.725089
30
0.000000
0
VERTEX
5
4d3d
8
0
10
0.504035
20
48.664402
30
0.000000
0
VERTEX
5
4d4d
8
0
10
0.464030
20
48.602785
30
0.000000
0
VERTEX
5
4d5d
8
0
10
0.425584
20
48.540271
30
0.000000
0
VERTEX
5
4d6d
8
0
10
0.388709
20
48.476889
30
0.000000
0
VERTEX
5
4d7d
8
0
10
0.353420
20
48.412671
30
0.000000
0
VERTEX
5
4d8d
8
0
10
0.319727
20
48.347648
30
0.000000
0
VERTEX
5
4d9d
8
0
10
0.287645
20
48.281849
30
0.000000
0
VERTEX
5
4dad
8
0
10
0.257185
20
48.215307
30
0.000000
0
VERTEX
5
4dbd
8
0
10
0.228361
20
48.148050
30
0.000000
0
VERTEX
5
4dcd
8
0
10
0.201186
20
48.080111
30
0.000000
0
VERTEX
5
4ddd
8
0
10
0.175671
20
48.011520
30
0.000000
0
VERTEX
5
4ded
8
0
10
0.151830
20
47.942308
30
0.000000
0
VERTEX
5
4dfd
8
0
10
0.129676
20
47.872505
30
0.000000
0
VERTEX
5
4e0d
8
0
10
0.109220
20
47.802143
30
0.000000
0
VERTEX
5
4e1d
8
0
10
0.090477
20
47.731251
30
0.000000
0
VERTEX
5
4e2d
8
0
10
0.073458
20
47.659861
30
0.000000
0
VERTEX
5
4e3d
8
0
10
0.058177
20
47.588004
30
0.000000
0
VERTEX
5
4e4d
8
0
10
0.044646
20
47.515710
30
0.000000
0
VERTEX
5
4e5d
8
0
10
0.032877
20
47.443009
30
0.000000
0
VERTEX
5
4e6d
8
0
10
0.022884
20
47.369934
30
0.000000
0
VERTEX
5
4e7d
8
0
10
0.014680
20
47.296513
30
0.000000
0
VERTEX
5
4e8d
8
0
10
0.008277
20
47.222779
30
0.000000
0
VERTEX
5
4e9d
8
0
10
0.003687
20
47.148761
30
0.000000
0
VERTEX
5
4ead
8
0
10
0.000924
20
47.074492
30
0.000000
0
VERTEX
5
4ebd
8
0
10
0.000000
20
47.000000
30
0.000000
0
VERTEX
5
4ecd
8
0
10
0.000000
20
3.000000
30
0.000000
0
VERTEX
5
4edd
8
0
10
0.000000
20
3.000000
30
0.000000
0
VERTEX
5
4eed
8
0
10
0.000924
20
2.925508
30
0.000000
0
VERTEX
5
4efd
8
0
10
0.003687
20
2.851239
30
0.000000
0
VERTEX
5
4f0d
8
0
10
0.008277
20
2.777221
30
0.000000
0
VERTEX
5
4f1d
8
0
10
0.014680
20
2.703487
30
0.000000
0
VERTEX
5
4f2d
8
0
10
0.022884
20
2.630066
30
0.000000
0
VERTEX
5
4f3d
8
0
10
0.032877
20
2.556991
30
0.000000
0
VERTEX
5
4f4d
8
0
10
0.044646
20
2.484290
30
0.000000
0
VERTEX
5
4f5d
8
0
10
0.058177
20
2.411996
30
0.000000
0
VERTEX
5
4f6d
8
0
10
0.073458
20
2.340139
30
0.000000
0
VERTEX
5
4f7d
8
0
10
0.090477
20
2.268749
30
0.000000
0
VERTEX
5
4f8d
8
0
10
0.109220
20
2.197857
30
0.000000
0
VERTEX
5
4f9d
8
0
10
0.129676
20
2.127495
30
0.000000
0
VERTEX
5
4fad
8
0
10
0.151830
20
2.057692
30
0.000000
0
VERTEX
5
4fbd
8
0
10
0.175671
20
1.988480
30
0.000000
0
VERTEX
5
4fcd
8
0
10
0.201186
20
1.919889
30
0.000000
0
VERTEX
5
4fdd
8
0
10
0.228361
20
1.851950
30
0.000000
0
VERTEX
5
4fed
8
0
10
0.257185
20
1.784694
30
0.000000
0
VERTEX
5
4ffd
8
0
10
0.287645
20
1.718151
30
0.000000
0
VERTEX
5
500d
8
0
10
0.319727
20
1.652352
30
0.000000
0
VERTEX
5
501d
8
0
10
0.353420
20
1.587329
30
0.000000
0
VERTEX
5
502d
8
0
10
0.388709
20
1.523111
30
0.000000
0
VERTEX
5
503d
8
0
10
0.425584
20
1.459729
30
0.000000
0
VERTEX
5
504d
8
0
10
0.464030
20
1.397215
30
0.000000
0
VERTEX
5
505d
8
0
10
0.504035
20
1.335598
30
0.000000
0
VERTEX
5
506d
8
0
10
0.545587
20
1.274911
30
0.000000
0
VERTEX
5
507d
8
0
10
0.588672
20
1.215182
30
0.000000
0
VERTEX
5
508d
8
0
10
0.633279
20
1.156444
30
0.000000
0
VERTEX
5
509d
8
0
10
0.679394
20
1.098726
30
0.000000
0
VERTEX
5
50ad
8
0
10
0.727004
20
1.042061
30
0.000000
0
VERTEX
5
50bd
8
0
10
0.776097
20
0.986477
30
0.000000
0
VERTEX
5
50cd
8
0
10
0.826659
20
0.932006
30
0.000000
0
VERTEX
5
50dd
8
0
10
0.878680
20
0.878680
30
0.000000
0
VERTEX
5
50ed
8
0
10
0.878680
20
0.878680
30
0.000000
0
VERTEX
5
50fd
8
0
10
0.932006
20
0.826659
30
0.000000
0
VERTEX
5
510d
8
0
10
0.986477
20
0.776097
30
0.000000
0
VERTEX
5
511d
8
0
10
1.042061
20
0.727004
30
0.000000
0
VERTEX
5
512d
8
0
10
1.098726
20
0.679394
30
0.000000
0
VERTEX
5
513d
8
0
10
1.156444
20
0.633279
30
0.000000
0
VERTEX
5
514d
8
0
10
1.215182
20
0.588672
30
0.000000
0
VERTEX
5
515d
8
0
10
1.274911
20
0.545587
30
0.000000
0
VERTEX
5
516d
8
0
10
1.335598
20
0.504035
30
0.000000
0
VERTEX
5
517d
8
0
10
1.397215
20
0.464030
30
0.000000
0
VERTEX
5
518d
8
0
10
1.459729
20
0.425584
30
0.000000
0
VERTEX
5
519d
8
0
10
1.523111
20
0.388709
30
0.000000
0
VERTEX
5
51ad
8
0
10
1.587329
20
0.353420
30
0.000000
0
VERTEX
5
51bd
8
0
10
1.652352
20
0.319727
30
0.000000
0
VERTEX
5
51cd
8
0
10
1.718151
20
0.287645
30
0.000000
0
VERTEX
5
51dd
8
0
10
1.784693
20
0.257185
30
0.000000
0
VERTEX
5
51ed
8
0
10
1.851950
20
0.228361
30
0.000000
0
VERTEX
5
51fd
8
0
10
1.919889
20
0.201186
30
0.000000
0
VERTEX
5
520d
8
0
10
1.988480
20
0.175671
30
0.000000
0
VERTEX
5
521d
8
0
10
2.057692
20
0.151830
30
0.000000
0
VERTEX
5
522d
8
0
10
2.127495
20
0.129676
30
0.000000
0
VERTEX
5
523d
8
0
10
2.197857
20
0.109220
30
0.000000
0
VERTEX
5
524d
8
0
10
2.268749
20
0.090477
30
0.000000
0
VERTEX
5
525d
8
0
10
2.340139
20
0.073458
30
0.000000
0
VERTEX
5
526d
8
0
10
2.411996
20
0.058177
30
0.000000
0
VERTEX
5
527d
8
0
10
2.484290
20
0.044646
30
0.000000
0
VERTEX
5
528d
8
0
10
2.556991
20
0.032877
30
0.000000
0
VERTEX
5
529d
8
0
10
2.630066
20
0.022884
30
0.000000
0
VERTEX
5
52ad
8
0
10
2.703487
20
0.014680
30
0.000000
0
VERTEX
5
52bd
8
0
10
2.777221
20
0.008277
30
0.000000
0
VERTEX
5
52cd
8
0
10
2.851239
20
0.003687
30
0.000000
0
VERTEX
5
52dd
8
0
10
2.925508
20
0.000924
30
0.000000
0
VERTEX
5
52ed
8
0
10
3.000000
20
0.000000
30
0.000000
0
SEQEND
5
52fd
8
0
0
ENDSEC
0
EOF
