0
SECTION
2
ENTITIES
0
POLYLINE
5
3fd
8
0
66
1
10
0
20
0
30
0
0
VERTEX
5
40d
8
0
10
3.000000
20
0.000000
30
0.000000
0
VERTEX
5
41d
8
0
10
47.000000
20
0.000000
30
0.000000
0
VERTEX
5
42d
8
0
10
47.000000
20
0.000000
30
0.000000
0
VERTEX
5
43d
8
0
10
47.074492
20
0.000924
30
0.000000
0
VERTEX
5
44d
8
0
10
47.148761
20
0.003687
30
0.000000
0
VERTEX
5
45d
8
0
10
47.222779
20
0.008277
30
0.000000
0
VERTEX
5
46d
8
0
10
47.296513
20
0.014680
30
0.000000
0
VERTEX
5
47d
8
0
10
47.369934
20
0.022884
30
0.000000
0
VERTEX
5
48d
8
0
10
47.443009
20
0.032877
30
0.000000
0
VERTEX
5
49d
8
0
10
47.515710
20
0.044646
30
0.000000
0
VERTEX
5
4ad
8
0
10
47.588004
20
0.058177
30
0.000000
0
VERTEX
5
4bd
8
0
10
47.659861
20
0.073458
30
0.000000
0
VERTEX
5
4cd
8
0
10
47.731251
20
0.090477
30
0.000000
0
VERTEX
5
4dd
8
0
10
47.802143
20
0.109220
30
0.000000
0
VERTEX
5
4ed
8
0
10
47.872505
20
0.129676
30
0.000000
0
VERTEX
5
4fd
8
0
10
47.942308
20
0.151830
30
0.000000
0
VERTEX
5
50d
8
0
10
48.011520
20
0.175671
30
0.000000
0
VERTEX
5
51d
8
0
10
48.080111
20
0.201186
30
0.000000
0
VERTEX
5
52d
8
0
10
48.148050
20
0.228361
30
0.000000
0
VERTEX
5
53d
8
0
10
48.215307
20
0.257185
30
0.000000
0
VERTEX
5
54d
8
0
10
48.281849
20
0.287645
30
0.000000
0
VERTEX
5
55d
8
0
10
48.347648
20
0.319727
30
0.000000
0
VERTEX
5
56d
8
0
10
48.412671
20
0.353420
30
0.000000
0
VERTEX
5
57d
8
0
10
48.476889
20
0.388709
30
0.000000
0
VERTEX
5
58d
8
0
10
48.540271
20
0.425584
30
0.000000
0
VERTEX
5
59d
8
0
10
48.602785
20
0.464030
30
0.000000
0
VERTEX
5
5ad
8
0
10
48.664402
20
0.504035
30
0.000000
0
VERTEX
5
5bd
8
0
10
48.725089
20
0.545587
30
0.000000
0
VERTEX
5
5cd
8
0
10
48.784818
20
0.588672
30
0.000000
0
VERTEX
5
5dd
8
0
10
48.843556
20
0.633279
30
0.000000
0
VERTEX
5
5ed
8
0
10
48.901274
20
0.679394
30
0.000000
0
VERTEX
5
5fd
8
0
10
48.957939
20
0.727004
30
0.000000
0
VERTEX
5
60d
8
0
10
49.013523
20
0.776097
30
0.000000
0
VERTEX
5
61d
8
0
10
49.067994
20
0.826659
30
0.000000
0
VERTEX
5
62d
8
0
10
49.121320
20
0.878680
30
0.000000
0
VERTEX
5
63d
8
0
10
49.121320
20
0.878680
30
0.000000
0
VERTEX
5
64d
8
0
10
49.173341
20
0.932006
30
0.000000
0
VERTEX
5
65d
8
0
10
49.223903
20
0.986477
30
0.000000
0
VERTEX
5
66d
8
0
10
49.272996
20
1.042061
30
0.000000
0
VERTEX
5
67d
8
0
10
49.320606
20
1.098726
30
0.000000
0
VERTEX
5
68d
8
0
10
49.366721
20
1.156444
30
0.000000
0
VERTEX
5
69d
8
0
10
49.411328
20
1.215182
30
0.000000
0
VERTEX
5
6ad
8
0
10
49.454413
20
1.274911
30
0.000000
0
VERTEX
5
6bd
8
0
10
49.495965
20
1.335598
30
0.000000
0
VERTEX
5
6cd
8
0
10
49.535970
20
1.397215
30
0.000000
0
VERTEX
5
6dd
8
0
10
49.574416
20
1.459729
30
0.000000
0
VERTEX
5
6ed
8
0
10
49.611291
20
1.523111
30
0.000000
0
VERTEX
5
6fd
8
0
10
49.646580
20
1.587329
30
0.000000
0
VERTEX
5
70d
8
0
10
49.680273
20
1.652352
30
0.000000
0
VERTEX
5
71d
8
0
10
49.712355
20
1.718151
30
0.000000
0
VERTEX
5
72d
8
0
10
49.742815
20
1.784693
30
0.000000
0
VERTEX
5
73d
8
0
10
49.771639
20
1.851950
30
0.000000
0
VERTEX
5
74d
8
0
10
49.798814
20
1.919889
30
0.000000
0
VERTEX
5
75d
8
0
10
49.824329
20
1.988480
30
0.000000
0
VERTEX
5
76d
8
0
10
49.848170
20
2.057692
30
0.000000
0
VERTEX
5
77d
8
0
10
49.870324
20
2.127495
30
0.000000
0
VERTEX
5
78d
8
0
10
49.890780
20
2.197857
30
0.000000
0
VERTEX
5
79d
8
0
10
49.909523
20
2.268749
30
0.000000
0
VERTEX
5
7ad
8
0
10
49.926542
20
2.340139
30
0.000000
0
VERTEX
5
7bd
8
0
10
49.941823
20
2.411996
30
0.000000
0
VERTEX
5
7cd
8
0
10
49.955354
20
2.484290
30
0.000000
0
VERTEX
5
7dd
8
0
10
49.967123
20
2.556991
30
0.000000
0
VERTEX
5
7ed
8
0
10
49.977116
20
2.630066
30
0.000000
0
VERTEX
5
7fd
8
0
10
49.985320
20
2.703487
30
0.000000
0
VERTEX
5
80d
8
0
10
49.991723
20
2.777221
30
0.000000
0
VERTEX
5
81d
8
0
10
49.996313
20
2.851239
30
0.000000
0
VERTEX
5
82d
8
0
10
49.999076
20
2.925508
30
0.000000
0
VERTEX
5
83d
8
0
10
50.000000
20
3.000000
30
0.000000
0
VERTEX
5
84d
8
0
10
50.000000
20
47.000000
30
0.000000
0
VERTEX
5
85d
8
0
10
50.000000
20
47.000000
30
0.000000
0
VERTEX
5
86d
8
0
10
49.999076
20
47.074492
30
0.000000
0
VERTEX
5
87d
8
0
10
49.996313
20
47.148761
30
0.000000
0
VERTEX
5
88d
8
0
10
49.991723
20
47.222779
30
0.000000
0
VERTEX
5
89d
8
0
10
49.985320
20
47.296513
30
0.000000
0
VERTEX
5
8ad
8
0
10
49.977116
20
47.369934
30
0.000000
0
VERTEX
5
8bd
8
0
10
49.967123
20
47.443009
30
0.000000
0
VERTEX
5
8cd
8
0
10
49.955354
20
47.515710
30
0.000000
0
VERTEX
5
8dd
8
0
10
49.941823
20
47.588004
30
0.000000
0
VERTEX
5
8ed
8
0
10
49.926542
20
47.659861
30
0.000000
0
VERTEX
5
8fd
8
0
10
49.909523
20
47.731251
30
0.000000
0
VERTEX
5
90d
8
0
10
49.890780
20
47.802143
30
0.000000
0
VERTEX
5
91d
8
0
10
49.870324
20
47.872505
30
0.000000
0
VERTEX
5
92d
8
0
10
49.848170
20
47.942308
30
0.000000
0
VERTEX
5
93d
8
0
10
49.824329
20
48.011520
30
0.000000
0
VERTEX
5
94d
8
0
10
49.798814
20
48.080111
30
0.000000
0
VERTEX
5
95d
8
0
10
49.771639
20
48.148050
30
0.000000
0
VERTEX
5
96d
8
0
10
49.742815
20
48.215307
30
0.000000
0
VERTEX
5
97d
8
0
10
49.712355
20
48.281849
30
0.000000
0
VERTEX
5
98d
8
0
10
49.680273
20
48.347648
30
0.000000
0
VERTEX
5
99d
8
0
10
49.646580
20
48.412671
30
0.000000
0
VERTEX
5
9ad
8
0
10
49.611291
20
48.476889
30
0.000000
0
VERTEX
5
9bd
8
0
10
49.574416
20
48.540271
30
0.000000
0
VERTEX
5
9cd
8
0
10
49.535970
20
48.602785
30
0.000000
0
VERTEX
5
9dd
8
0
10
49.495965
20
48.664402
30
0.000000
0
VERTEX
5
9ed
8
0
10
49.454413
20
48.725089
30
0.000000
0
VERTEX
5
9fd
8
0
10
49.411328
20
48.784818
30
0.000000
0
VERTEX
5
a0d
8
0
10
49.366721
20
48.843556
30
0.000000
0
VERTEX
5
a1d
8
0
10
49.320606
20
48.901274
30
0.000000
0
VERTEX
5
a2d
8
0
10
49.272996
20
48.957939
30
0.000000
0
VERTEX
5
a3d
8
0
10
49.223903
20
49.013523
30
0.000000
0
VERTEX
5
a4d
8
0
10
49.173341
20
49.067994
30
0.000000
0
VERTEX
5
a5d
8
0
10
49.121320
20
49.121320
30
0.000000
0
VERTEX
5
a6d
8
0
10
49.121320
20
49.121320
30
0.000000
0
VERTEX
5
a7d
8
0
10
49.067994
20
49.173341
30
0.000000
0
VERTEX
5
a8d
8
0
10
49.013523
20
49.223903
30
0.000000
0
VERTEX
5
a9d
8
0
10
48.957939
20
49.272996
30
0.000000
0
VERTEX
5
aad
8
0
10
48.901274
20
49.320606
30
0.000000
0
VERTEX
5
abd
8
0
10
48.843556
20
49.366721
30
0.000000
0
VERTEX
5
acd
8
0
10
48.784818
20
49.411328
30
0.000000
0
VERTEX
5
add
8
0
10
48.725089
20
49.454413
30
0.000000
0
VERTEX
5
aed
8
0
10
48.664402
20
49.495965
30
0.000000
0
VERTEX
5
afd
8
0
10
48.602785
20
49.535970
30
0.000000
0
VERTEX
5
b0d
8
0
10
48.540271
20
49.574416
30
0.000000
0
VERTEX
5
b1d
8
0
10
48.476889
20
49.611291
30
0.000000
0
VERTEX
5
b2d
8
0
10
48.412671
20
49.646580
30
0.000000
0
VERTEX
5
b3d
8
0
10
48.347648
20
49.680273
30
0.000000
0
VERTEX
5
b4d
8
0
10
48.281849
20
49.712355
30
0.000000
0
VERTEX
5
b5d
8
0
10
48.215307
20
49.742815
30
0.000000
0
VERTEX
5
b6d
8
0
10
48.148050
20
49.771639
30
0.000000
0
VERTEX
5
b7d
8
0
10
48.080111
20
49.798814
30
0.000000
0
VERTEX
5
b8d
8
0
10
48.011520
20
49.824329
30
0.000000
0
VERTEX
5
b9d
8
0
10
47.942308
20
49.848170
30
0.000000
0
VERTEX
5
bad
8
0
10
47.872505
20
49.870324
30
0.000000
0
VERTEX
5
bbd
8
0
10
47.802143
20
49.890780
30
0.000000
0
VERTEX
5
bcd
8
0
10
47.731251
20
49.909523
30
0.000000
0
VERTEX
5
bdd
8
0
10
47.659861
20
49.926542
30
0.000000
0
VERTEX
5
bed
8
0
10
47.588004
20
49.941823
30
0.000000
0
VERTEX
5
bfd
8
0
10
47.515710
20
49.955354
30
0.000000
0
VERTEX
5
c0d
8
0
10
47.443009
20
49.967123
30
0.000000
0
VERTEX
5
c1d
8
0
10
47.369934
20
49.977116
30
0.000000
0
VERTEX
5
c2d
8
0
10
47.296513
20
49.985320
30
0.000000
0
VERTEX
5
c3d
8
0
10
47.222779
20
49.991723
30
0.000000
0
VERTEX
5
c4d
8
0
10
47.148761
20
49.996313
30
0.000000
0
VERTEX
5
c5d
8
0
10
47.074492
20
49.999076
30
0.000000
0
VERTEX
5
c6d
8
0
10
47.000000
20
50.000000
30
0.000000
0
VERTEX
5
c7d
8
0
10
3.000000
20
50.000000
30
0.000000
0
VERTEX
5
c8d
8
0
10
3.000000
20
50.000000
30
0.000000
0
VERTEX
5
c9d
8
0
10
2.925508
20
49.999076
30
0.000000
0
VERTEX
5
cad
8
0
10
2.851239
20
49.996313
30
0.000000
0
VERTEX
5
cbd
8
0
10
2.777221
20
49.991723
30
0.000000
0
VERTEX
5
ccd
8
0
10
2.703487
20
49.985320
30
0.000000
0
VERTEX
5
cdd
8
0
10
2.630066
20
49.977116
30
0.000000
0
VERTEX
5
ced
8
0
10
2.556991
20
49.967123
30
0.000000
0
VERTEX
5
cfd
8
0
10
2.484290
20
49.955354
30
0.000000
0
VERTEX
5
d0d
8
0
10
2.411996
20
49.941823
30
0.000000
0
VERTEX
5
d1d
8
0
10
2.340139
20
49.926542
30
0.000000
0
VERTEX
5
d2d
8
0
10
2.268749
20
49.909523
30
0.000000
0
VERTEX
5
d3d
8
0
10
2.197857
20
49.890780
30
0.000000
0
VERTEX
5
d4d
8
0
10
2.127495
20
49.870324
30
0.000000
0
VERTEX
5
d5d
8
0
10
2.057692
20
49.848170
30
0.000000
0
VERTEX
5
d6d
8
0
10
1.988480
20
49.824329
30
0.000000
0
VERTEX
5
d7d
8
0
10
1.919889
20
49.798814
30
0.000000
0
VERTEX
5
d8d
8
0
10
1.851950
20
49.771639
30
0.000000
0
VERTEX
5
d9d
8
0
10
1.784693
20
49.742815
30
0.000000
0
VERTEX
5
dad
8
0
10
1.718151
20
49.712355
30
0.000000
0
VERTEX
5
dbd
8
0
10
1.652352
20
49.680273
30
0.000000
0
VERTEX
5
dcd
8
0
10
1.587329
20
49.646580
30
0.000000
0
VERTEX
5
ddd
8
0
10
1.523111
20
49.611291
30
0.000000
0
VERTEX
5
ded
8
0
10
1.459729
20
49.574416
30
0.000000
0
VERTEX
5
dfd
8
0
10
1.397215
20
49.535970
30
0.000000
0
VERTEX
5
e0d
8
0
10
1.335598
20
49.495965
30
0.000000
0
VERTEX
5
e1d
8
0
10
1.274911
20
49.454413
30
0.000000
0
VERTEX
5
e2d
8
0
10
1.215182
20
49.411328
30
0.000000
0
VERTEX
5
e3d
8
0
10
1.156444
20
49.366721
30
0.000000
0
VERTEX
5
e4d
8
0
10
1.098726
20
49.320606
30
0.000000
0
VERTEX
5
e5d
8
0
10
1.042061
20
49.272996
30
0.000000
0
VERTEX
5
e6d
8
0
10
0.986477
20
49.223903
30
0.000000
0
VERTEX
5
e7d
8
0
10
0.932006
20
49.173341
30
0.000000
0
VERTEX
5
e8d
8
0
10
0.878680
20
49.121320
30
0.000000
0
VERTEX
5
e9d
8
0
10
0.878680
20
49.121320
30
0.000000
0
VERTEX
5
ead
8
0
10
0.826659
20
49.067994
30
0.000000
0
VERTEX
5
ebd
8
0
10
0.776097
20
49.013523
30
0.000000
0
VERTEX
5
ecd
8
0
10
0.727004
20
48.957939
30
0.000000
0
VERTEX
5
edd
8
0
10
0.679394
20
48.901274
30
0.000000
0
VERTEX
5
eed
8
0
10
0.633279
20
48.843556
30
0.000000
0
VERTEX
5
efd
8
0
10
0.588672
20
48.784818
30
0.000000
0
VERTEX
5
f0d
8
0
10
0.545587
20
48.725089
30
0.000000
0
VERTEX
5
f1d
8
0
10
0.504035
20
48.664402
30
0.000000
0
VERTEX
5
f2d
8
0
10
0.464030
20
48.602785
30
0.000000
0
VERTEX
5
f3d
8
0
10
0.425584
20
48.540271
30
0.000000
0
VERTEX
5
f4d
8
0
10
0.388709
20
48.476889
30
0.000000
0
VERTEX
5
f5d
8
0
10
0.353420
20
48.412671
30
0.000000
0
VERTEX
5
f6d
8
0
10
0.319727
20
48.347648
30
0.000000
0
VERTEX
5
f7d
8
0
10
0.287645
20
48.281849
30
0.000000
0
VERTEX
5
f8d
8
0
10
0.257185
20
48.215307
30
0.000000
0
VERTEX
5
f9d
8
0
10
0.228361
20
48.148050
30
0.000000
0
VERTEX
5
fad
8
0
10
0.201186
20
48.080111
30
0.000000
0
VERTEX
5
fbd
8
0
10
0.175671
20
48.011520
30
0.000000
0
VERTEX
5
fcd
8
0
10
0.151830
20
47.942308
30
0.000000
0
VERTEX
5
fdd
8
0
10
0.129676
20
47.872505
30
0.000000
0
VERTEX
5
fed
8
0
10
0.109220
20
47.802143
30
0.000000
0
VERTEX
5
ffd
8
0
10
0.090477
20
47.731251
30
0.000000
0
VERTEX
5
100d
8
0
10
0.073458
20
47.659861
30
0.000000
0
VERTEX
5
101d
8
0
10
0.058177
20
47.588004
30
0.000000
0
VERTEX
5
102d
8
0
10
0.044646
20
47.515710
30
0.000000
0
VERTEX
5
103d
8
0
10
0.032877
20
47.443009
30
0.000000
0
VERTEX
5
104d
8
0
10
0.022884
20
47.369934
30
0.000000
0
VERTEX
5
105d
8
0
10
0.014680
20
47.296513
30
0.000000
0
VERTEX
5
106d
8
0
10
0.008277
20
47.222779
30
0.000000
0
VERTEX
5
107d
8
0
10
0.003687
20
47.148761
30
0.000000
0
VERTEX
5
108d
8
0
10
0.000924
20
47.074492
30
0.000000
0
VERTEX
5
109d
8
0
10
0.000000
20
47.000000
30
0.000000
0
VERTEX
5
10ad
8
0
10
0.000000
20
3.000000
30
0.000000
0
VERTEX
5
10bd
8
0
10
0.000000
20
3.000000
30
0.000000
0
VERTEX
5
10cd
8
0
10
0.000924
20
2.925508
30
0.000000
0
VERTEX
5
10dd
8
0
10
0.003687
20
2.851239
30
0.000000
0
VERTEX
5
10ed
8
0
10
0.008277
20
2.777221
30
0.000000
0
VERTEX
5
10fd
8
0
10
0.014680
20
2.703487
30
0.000000
0
VERTEX
5
110d
8
0
10
0.022884
20
2.630066
30
0.000000
0
VERTEX
5
111d
8
0
10
0.032877
20
2.556991
30
0.000000
0
VERTEX
5
112d
8
0
10
0.044646
20
2.484290
30
0.000000
0
VERTEX
5
113d
8
0
10
0.058177
20
2.411996
30
0.000000
0
VERTEX
5
114d
8
0
10
0.073458
20
2.340139
30
0.000000
0
VERTEX
5
115d
8
0
10
0.090477
20
2.268749
30
0.000000
0
VERTEX
5
116d
8
0
10
0.109220
20
2.197857
30
0.000000
0
VERTEX
5
117d
8
0
10
0.129676
20
2.127495
30
0.000000
0
VERTEX
5
118d
8
0
10
0.151830
20
2.057692
30
0.000000
0
VERTEX
5
119d
8
0
10
0.175671
20
1.988480
30
0.000000
0
VERTEX
5
11ad
8
0
10
0.201186
20
1.919889
30
0.000000
0
VERTEX
5
11bd
8
0
10
0.228361
20
1.851950
30
0.000000
0
VERTEX
5
11cd
8
0
10
0.257185
20
1.784694
30
0.000000
0
VERTEX
5
11dd
8
0
10
0.287645
20
1.718151
30
0.000000
0
VERTEX
5
11ed
8
0
10
0.319727
20
1.652352
30
0.000000
0
VERTEX
5
11fd
8
0
10
0.353420
20
1.587329
30
0.000000
0
VERTEX
5
120d
8
0
10
0.388709
20
1.523111
30
0.000000
0
VERTEX
5
121d
8
0
10
0.425584
20
1.459729
30
0.000000
0
VERTEX
5
122d
8
0
10
0.464030
20
1.397215
30
0.000000
0
VERTEX
5
123d
8
0
10
0.504035
20
1.335598
30
0.000000
0
VERTEX
5
124d
8
0
10
0.545587
20
1.274911
30
0.000000
0
VERTEX
5
125d
8
0
10
0.588672
20
1.215182
30
0.000000
0
VERTEX
5
126d
8
0
10
0.633279
20
1.156444
30
0.000000
0
VERTEX
5
127d
8
0
10
0.679394
20
1.098726
30
0.000000
0
VERTEX
5
128d
8
0
10
0.727004
20
1.042061
30
0.000000
0
VERTEX
5
129d
8
0
10
0.776097
20
0.986477
30
0.000000
0
VERTEX
5
12ad
8
0
10
0.826659
20
0.932006
30
0.000000
0
VERTEX
5
12bd
8
0
10
0.878680
20
0.878680
30
0.000000
0
VERTEX
5
12cd
8
0
10
0.878680
20
0.878680
30
0.000000
0
VERTEX
5
12dd
8
0
10
0.932006
20
0.826659
30
0.000000
0
VERTEX
5
12ed
8
0
10
0.986477
20
0.776097
30
0.000000
0
VERTEX
5
12fd
8
0
10
1.042061
20
0.727004
30
0.000000
0
VERTEX
5
130d
8
0
10
1.098726
20
0.679394
30
0.000000
0
VERTEX
5
131d
8
0
10
1.156444
20
0.633279
30
0.000000
0
VERTEX
5
132d
8
0
10
1.215182
20
0.588672
30
0.000000
0
VERTEX
5
133d
8
0
10
1.274911
20
0.545587
30
0.000000
0
VERTEX
5
134d
8
0
10
1.335598
20
0.504035
30
0.000000
0
VERTEX
5
135d
8
0
10
1.397215
20
0.464030
30
0.000000
0
VERTEX
5
136d
8
0
10
1.459729
20
0.425584
30
0.000000
0
VERTEX
5
137d
8
0
10
1.523111
20
0.388709
30
0.000000
0
VERTEX
5
138d
8
0
10
1.587329
20
0.353420
30
0.000000
0
VERTEX
5
139d
8
0
10
1.652352
20
0.319727
30
0.000000
0
VERTEX
5
13ad
8
0
10
1.718151
20
0.287645
30
0.000000
0
VERTEX
5
13bd
8
0
10
1.784693
20
0.257185
30
0.000000
0
VERTEX
5
13cd
8
0
10
1.851950
20
0.228361
30
0.000000
0
VERTEX
5
13dd
8
0
10
1.919889
20
0.201186
30
0.000000
0
VERTEX
5
13ed
8
0
10
1.988480
20
0.175671
30
0.000000
0
VERTEX
5
13fd
8
0
10
2.057692
20
0.151830
30
0.000000
0
VERTEX
5
140d
8
0
10
2.127495
20
0.129676
30
0.000000
0
VERTEX
5
141d
8
0
10
2.197857
20
0.109220
30
0.000000
0
VERTEX
5
142d
8
0
10
2.268749
20
0.090477
30
0.000000
0
VERTEX
5
143d
8
0
10
2.340139
20
0.073458
30
0.000000
0
VERTEX
5
144d
8
0
10
2.411996
20
0.058177
30
0.000000
0
VERTEX
5
145d
8
0
10
2.484290
20
0.044646
30
0.000000
0
VERTEX
5
146d
8
0
10
2.556991
20
0.032877
30
0.000000
0
VERTEX
5
147d
8
0
10
2.630066
20
0.022884
30
0.000000
0
VERTEX
5
148d
8
0
10
2.703487
20
0.014680
30
0.000000
0
VERTEX
5
149d
8
0
10
2.777221
20
0.008277
30
0.000000
0
VERTEX
5
14ad
8
0
10
2.851239
20
0.003687
30
0.000000
0
VERTEX
5
14bd
8
0
10
2.925508
20
0.000924
30
0.000000
0
VERTEX
5
14cd
8
0
10
3.000000
20
0.000000
30
0.000000
0
SEQEND
5
14dd
8
0
0
POLYLINE
5
14ed
8
0
66
1
10
0
20
0
30
0
0
VERTEX
5
14fd
8
0
10
14.437426
20
44.445166
30
0.000000
0
VERTEX
5
150d
8
0
10
14.320734
20
43.657373
30
0.000000
0
VERTEX
5
151d
8
0
10
14.320734
20
43.657373
30
0.000000
0
VERTEX
5
152d
8
0
10
14.394664
20
43.725554
30
0.000000
0
VERTEX
5
153d
8
0
10
14.423727
20
43.749340
30
0.000000
0
VERTEX
5
154d
8
0
10
14.447950
20
43.766592
30
0.000000
0
VERTEX
5
155d
8
0
10
14.467653
20
43.777565
30
0.000000
0
VERTEX
5
156d
8
0
10
14.483158
20
43.782511
30
0.000000
0
VERTEX
5
157d
8
0
10
14.494785
20
43.781683
30
0.000000
0
VERTEX
5
158d
8
0
10
14.499244
20
43.779182
30
0.000000
0
VERTEX
5
159d
8
0
10
14.502855
20
43.775333
30
0.000000
0
VERTEX
5
15ad
8
0
10
14.507688
20
43.763715
30
0.000000
0
VERTEX
5
15bd
8
0
10
14.509606
20
43.747082
30
0.000000
0
VERTEX
5
15cd
8
0
10
14.508928
20
43.725686
30
0.000000
0
VERTEX
5
15dd
8
0
10
14.505977
20
43.699781
30
0.000000
0
VERTEX
5
15ed
8
0
10
14.494534
20
43.635453
30
0.000000
0
VERTEX
5
15fd
8
0
10
14.477844
20
43.556121
30
0.000000
0
VERTEX
5
160d
8
0
10
14.458472
20
43.463809
30
0.000000
0
VERTEX
5
161d
8
0
10
14.438984
20
43.360540
30
0.000000
0
VERTEX
5
162d
8
0
10
14.421945
20
43.248338
30
0.000000
0
VERTEX
5
163d
8
0
10
14.415147
20
43.189518
30
0.000000
0
VERTEX
5
164d
8
0
10
14.409923
20
43.129224
30
0.000000
0
VERTEX
5
165d
8
0
10
14.406595
20
43.067708
30
0.000000
0
VERTEX
5
166d
8
0
10
14.405483
20
43.005224
30
0.000000
0
VERTEX
5
167d
8
0
10
14.406908
20
42.942023
30
0.000000
0
VERTEX
5
168d
8
0
10
14.411190
20
42.878359
30
0.000000
0
VERTEX
5
169d
8
0
10
14.418651
20
42.814485
30
0.000000
0
VERTEX
5
16ad
8
0
10
14.429612
20
42.750653
30
0.000000
0
VERTEX
5
16bd
8
0
10
14.444392
20
42.687117
30
0.000000
0
VERTEX
5
16cd
8
0
10
14.463313
20
42.624130
30
0.000000
0
VERTEX
5
16dd
8
0
10
15.017829
20
43.064131
30
0.000000
0
VERTEX
5
16ed
8
0
10
15.129036
20
42.968128
30
0.000000
0
VERTEX
5
16fd
8
0
10
14.517785
20
42.174886
30
0.000000
0
VERTEX
5
170d
8
0
10
15.069406
20
41.046475
30
0.000000
0
VERTEX
5
171d
8
0
10
14.181170
20
40.249212
30
0.000000
0
VERTEX
5
172d
8
0
10
14.181170
20
40.249212
30
0.000000
0
VERTEX
5
173d
8
0
10
14.158259
20
40.261692
30
0.000000
0
VERTEX
5
174d
8
0
10
14.137818
20
40.278061
30
0.000000
0
VERTEX
5
175d
8
0
10
14.119589
20
40.297972
30
0.000000
0
VERTEX
5
176d
8
0
10
14.103318
20
40.321073
30
0.000000
0
VERTEX
5
177d
8
0
10
14.088749
20
40.347018
30
0.000000
0
VERTEX
5
178d
8
0
10
14.075627
20
40.375457
30
0.000000
0
VERTEX
5
179d
8
0
10
14.063696
20
40.406040
30
0.000000
0
VERTEX
5
17ad
8
0
10
14.052701
20
40.438420
30
0.000000
0
VERTEX
5
17bd
8
0
10
14.032496
20
40.507172
30
0.000000
0
VERTEX
5
17cd
8
0
10
14.012969
20
40.578922
30
0.000000
0
VERTEX
5
17dd
8
0
10
13.992076
20
40.650877
30
0.000000
0
VERTEX
5
17ed
8
0
10
13.967773
20
40.720248
30
0.000000
0
VERTEX
5
17fd
8
0
10
13.953705
20
40.753091
30
0.000000
0
VERTEX
5
180d
8
0
10
13.938017
20
40.784242
30
0.000000
0
VERTEX
5
181d
8
0
10
13.920456
20
40.813350
30
0.000000
0
VERTEX
5
182d
8
0
10
13.900765
20
40.840068
30
0.000000
0
VERTEX
5
183d
8
0
10
13.878688
20
40.864046
30
0.000000
0
VERTEX
5
184d
8
0
10
13.853972
20
40.884936
30
0.000000
0
VERTEX
5
185d
8
0
10
13.826359
20
40.902388
30
0.000000
0
VERTEX
5
186d
8
0
10
13.795594
20
40.916053
30
0.000000
0
VERTEX
5
187d
8
0
10
13.761423
20
40.925583
30
0.000000
0
VERTEX
5
188d
8
0
10
13.723589
20
40.930629
30
0.000000
0
VERTEX
5
189d
8
0
10
13.681838
20
40.930842
30
0.000000
0
VERTEX
5
18ad
8
0
10
13.635913
20
40.925873
30
0.000000
0
VERTEX
5
18bd
8
0
10
13.585559
20
40.915373
30
0.000000
0
VERTEX
5
18cd
8
0
10
13.530522
20
40.898992
30
0.000000
0
VERTEX
5
18dd
8
0
10
13.470544
20
40.876383
30
0.000000
0
VERTEX
5
18ed
8
0
10
13.405371
20
40.847197
30
0.000000
0
VERTEX
5
18fd
8
0
10
13.405371
20
40.847197
30
0.000000
0
VERTEX
5
190d
8
0
10
13.424588
20
40.920717
30
0.000000
0
VERTEX
5
191d
8
0
10
13.446539
20
40.985700
30
0.000000
0
VERTEX
5
192d
8
0
10
13.471082
20
41.042609
30
0.000000
0
VERTEX
5
193d
8
0
10
13.498075
20
41.091911
30
0.000000
0
VERTEX
5
194d
8
0
10
13.527375
20
41.134070
30
0.000000
0
VERTEX
5
195d
8
0
10
13.558841
20
41.169551
30
0.000000
0
VERTEX
5
196d
8
0
10
13.592329
20
41.198818
30
0.000000
0
VERTEX
5
197d
8
0
10
13.627697
20
41.222336
30
0.000000
0
VERTEX
5
198d
8
0
10
13.664803
20
41.240571
30
0.000000
0
VERTEX
5
199d
8
0
10
13.703504
20
41.253986
30
0.000000
0
VERTEX
5
19ad
8
0
10
13.743659
20
41.263048
30
0.000000
0
VERTEX
5
19bd
8
0
10
13.785123
20
41.268220
30
0.000000
0
VERTEX
5
19cd
8
0
10
13.827756
20
41.269967
30
0.000000
0
VERTEX
5
19dd
8
0
10
13.871415
20
41.268755
30
0.000000
0
VERTEX
5
19ed
8
0
10
13.915956
20
41.265049
30
0.000000
0
VERTEX
5
19fd
8
0
10
13.961239
20
41.259312
30
0.000000
0
VERTEX
5
1a0d
8
0
10
14.053457
20
41.243607
30
0.000000
0
VERTEX
5
1a1d
8
0
10
14.146929
20
41.225360
30
0.000000
0
VERTEX
5
1a2d
8
0
10
14.240517
20
41.208290
30
0.000000
0
VERTEX
5
1a3d
8
0
10
14.286998
20
41.201358
30
0.000000
0
VERTEX
5
1a4d
8
0
10
14.333080
20
41.196115
30
0.000000
0
VERTEX
5
1a5d
8
0
10
14.378622
20
41.193025
30
0.000000
0
VERTEX
5
1a6d
8
0
10
14.423480
20
41.192554
30
0.000000
0
VERTEX
5
1a7d
8
0
10
14.467512
20
41.195165
30
0.000000
0
VERTEX
5
1a8d
8
0
10
14.510577
20
41.201325
30
0.000000
0
VERTEX
5
1a9d
8
0
10
14.552531
20
41.211497
30
0.000000
0
VERTEX
5
1aad
8
0
10
14.593232
20
41.226147
30
0.000000
0
VERTEX
5
1abd
8
0
10
14.632537
20
41.245739
30
0.000000
0
VERTEX
5
1acd
8
0
10
14.670305
20
41.270738
30
0.000000
0
VERTEX
5
1add
8
0
10
13.433280
20
42.804631
30
0.000000
0
VERTEX
5
1aed
8
0
10
13.433280
20
43.023158
30
0.000000
0
VERTEX
5
1afd
8
0
10
14.035768
20
42.794249
30
0.000000
0
VERTEX
5
1b0d
8
0
10
14.035768
20
44.646328
30
0.000000
0
VERTEX
5
1b1d
8
0
10
14.437426
20
44.445166
30
0.000000
0
SEQEND
5
1b2d
8
0
0
POLYLINE
5
1b3d
8
0
66
1
10
0
20
0
30
0
0
VERTEX
5
1b4d
8
0
10
22.060959
20
44.676304
30
0.000000
0
VERTEX
5
1b5d
8
0
10
22.068939
20
44.204621
30
0.000000
0
VERTEX
5
1b6d
8
0
10
21.316199
20
43.227765
30
0.000000
0
VERTEX
5
1b7d
8
0
10
20.976930
20
43.567596
30
0.000000
0
VERTEX
5
1b8d
8
0
10
21.594164
20
43.938550
30
0.000000
0
VERTEX
5
1b9d
8
0
10
19.394103
20
44.208801
30
0.000000
0
VERTEX
5
1bad
8
0
10
20.071127
20
43.056480
30
0.000000
0
VERTEX
5
1bbd
8
0
10
20.071127
20
43.056480
30
0.000000
0
VERTEX
5
1bcd
8
0
10
20.138614
20
43.038855
30
0.000000
0
VERTEX
5
1bdd
8
0
10
20.206845
20
43.025113
30
0.000000
0
VERTEX
5
1bed
8
0
10
20.275756
20
43.014912
30
0.000000
0
VERTEX
5
1bfd
8
0
10
20.345286
20
43.007911
30
0.000000
0
VERTEX
5
1c0d
8
0
10
20.415370
20
43.003769
30
0.000000
0
VERTEX
5
1c1d
8
0
10
20.485945
20
43.002144
30
0.000000
0
VERTEX
5
1c2d
8
0
10
20.556949
20
43.002695
30
0.000000
0
VERTEX
5
1c3d
8
0
10
20.628317
20
43.005079
30
0.000000
0
VERTEX
5
1c4d
8
0
10
20.771894
20
43.013984
30
0.000000
0
VERTEX
5
1c5d
8
0
10
20.916171
20
43.026127
30
0.000000
0
VERTEX
5
1c6d
8
0
10
21.060642
20
43.038777
30
0.000000
0
VERTEX
5
1c7d
8
0
10
21.204800
20
43.049200
30
0.000000
0
VERTEX
5
1c8d
8
0
10
21.276604
20
43.052723
30
0.000000
0
VERTEX
5
1c9d
8
0
10
21.348140
20
43.054666
30
0.000000
0
VERTEX
5
1cad
8
0
10
21.419344
20
43.054686
30
0.000000
0
VERTEX
5
1cbd
8
0
10
21.490155
20
43.052442
30
0.000000
0
VERTEX
5
1ccd
8
0
10
21.560507
20
43.047592
30
0.000000
0
VERTEX
5
1cdd
8
0
10
21.630339
20
43.039796
30
0.000000
0
VERTEX
5
1ced
8
0
10
21.699587
20
43.028711
30
0.000000
0
VERTEX
5
1cfd
8
0
10
21.768187
20
43.013996
30
0.000000
0
VERTEX
5
1d0d
8
0
10
21.836077
20
42.995309
30
0.000000
0
VERTEX
5
1d1d
8
0
10
21.903192
20
42.972310
30
0.000000
0
VERTEX
5
1d2d
8
0
10
21.969470
20
42.944656
30
0.000000
0
VERTEX
5
1d3d
8
0
10
22.034848
20
42.912007
30
0.000000
0
VERTEX
5
1d4d
8
0
10
22.099262
20
42.874020
30
0.000000
0
VERTEX
5
1d5d
8
0
10
22.162649
20
42.830354
30
0.000000
0
VERTEX
5
1d6d
8
0
10
22.224946
20
42.780667
30
0.000000
0
VERTEX
5
1d7d
8
0
10
22.286089
20
42.724619
30
0.000000
0
VERTEX
5
1d8d
8
0
10
18.540552
20
42.676399
30
0.000000
0
VERTEX
5
1d9d
8
0
10
18.540552
20
42.676399
30
0.000000
0
VERTEX
5
1dad
8
0
10
18.549370
20
42.748216
30
0.000000
0
VERTEX
5
1dbd
8
0
10
18.561567
20
42.811597
30
0.000000
0
VERTEX
5
1dcd
8
0
10
18.576974
20
42.866998
30
0.000000
0
VERTEX
5
1ddd
8
0
10
18.595423
20
42.914878
30
0.000000
0
VERTEX
5
1ded
8
0
10
18.616746
20
42.955692
30
0.000000
0
VERTEX
5
1dfd
8
0
10
18.640773
20
42.989897
30
0.000000
0
VERTEX
5
1e0d
8
0
10
18.667336
20
43.017950
30
0.000000
0
VERTEX
5
1e1d
8
0
10
18.696267
20
43.040308
30
0.000000
0
VERTEX
5
1e2d
8
0
10
18.727397
20
43.057427
30
0.000000
0
VERTEX
5
1e3d
8
0
10
18.760558
20
43.069764
30
0.000000
0
VERTEX
5
1e4d
8
0
10
18.795580
20
43.077777
30
0.000000
0
VERTEX
5
1e5d
8
0
10
18.832296
20
43.081921
30
0.000000
0
VERTEX
5
1e6d
8
0
10
18.870536
20
43.082654
30
0.000000
0
VERTEX
5
1e7d
8
0
10
18.910132
20
43.080432
30
0.000000
0
VERTEX
5
1e8d
8
0
10
18.950916
20
43.075712
30
0.000000
0
VERTEX
5
1e9d
8
0
10
18.992718
20
43.068952
30
0.000000
0
VERTEX
5
1ead
8
0
10
19.078706
20
43.051133
30
0.000000
0
VERTEX
5
1ebd
8
0
10
19.166746
20
43.030631
30
0.000000
0
VERTEX
5
1ecd
8
0
10
19.255490
20
43.011100
30
0.000000
0
VERTEX
5
1edd
8
0
10
19.299704
20
43.002841
30
0.000000
0
VERTEX
5
1eed
8
0
10
19.343589
20
42.996194
30
0.000000
0
VERTEX
5
1efd
8
0
10
19.386975
20
42.991617
30
0.000000
0
VERTEX
5
1f0d
8
0
10
19.429695
20
42.989566
30
0.000000
0
VERTEX
5
1f1d
8
0
10
19.471579
20
42.990499
30
0.000000
0
VERTEX
5
1f2d
8
0
10
19.512459
20
42.994872
30
0.000000
0
VERTEX
5
1f3d
8
0
10
19.552166
20
43.003141
30
0.000000
0
VERTEX
5
1f4d
8
0
10
19.590532
20
43.015764
30
0.000000
0
VERTEX
5
1f5d
8
0
10
19.627388
20
43.033197
30
0.000000
0
VERTEX
5
1f6d
8
0
10
19.662565
20
43.055897
30
0.000000
0
VERTEX
5
1f7d
8
0
10
19.030146
20
44.032675
30
0.000000
0
VERTEX
5
1f8d
8
0
10
19.030146
20
44.032675
30
0.000000
0
VERTEX
5
1f9d
8
0
10
19.067226
20
44.078526
30
0.000000
0
VERTEX
5
1fad
8
0
10
19.105250
20
44.120959
30
0.000000
0
VERTEX
5
1fbd
8
0
10
19.144191
20
44.160083
30
0.000000
0
VERTEX
5
1fcd
8
0
10
19.184017
20
44.196010
30
0.000000
0
VERTEX
5
1fdd
8
0
10
19.224698
20
44.228849
30
0.000000
0
VERTEX
5
1fed
8
0
10
19.266205
20
44.258711
30
0.000000
0
VERTEX
5
1ffd
8
0
10
19.308508
20
44.285706
30
0.000000
0
VERTEX
5
200d
8
0
10
19.351577
20
44.309945
30
0.000000
0
VERTEX
5
201d
8
0
10
19.395381
20
44.331539
30
0.000000
0
VERTEX
5
202d
8
0
10
19.439891
20
44.350597
30
0.000000
0
VERTEX
5
203d
8
0
10
19.485077
20
44.367230
30
0.000000
0
VERTEX
5
204d
8
0
10
19.530909
20
44.381549
30
0.000000
0
VERTEX
5
205d
8
0
10
19.577357
20
44.393664
30
0.000000
0
VERTEX
5
206d
8
0
10
19.624391
20
44.403686
30
0.000000
0
VERTEX
5
207d
8
0
10
19.671980
20
44.411724
30
0.000000
0
VERTEX
5
208d
8
0
10
19.720096
20
44.417890
30
0.000000
0
VERTEX
5
209d
8
0
10
19.768707
20
44.422294
30
0.000000
0
VERTEX
5
20ad
8
0
10
19.817785
20
44.425046
30
0.000000
0
VERTEX
5
20bd
8
0
10
19.917219
20
44.426036
30
0.000000
0
VERTEX
5
20cd
8
0
10
20.018158
20
44.421745
30
0.000000
0
VERTEX
5
20dd
8
0
10
20.120362
20
44.413056
30
0.000000
0
VERTEX
5
20ed
8
0
10
20.223591
20
44.400852
30
0.000000
0
VERTEX
5
20fd
8
0
10
20.327606
20
44.386016
30
0.000000
0
VERTEX
5
210d
8
0
10
20.537034
20
44.351987
30
0.000000
0
VERTEX
5
211d
8
0
10
20.746728
20
44.318036
30
0.000000
0
VERTEX
5
212d
8
0
10
20.851075
20
44.303299
30
0.000000
0
VERTEX
5
213d
8
0
10
20.954770
20
44.291232
30
0.000000
0
VERTEX
5
214d
8
0
10
21.057573
20
44.282718
30
0.000000
0
VERTEX
5
215d
8
0
10
21.159244
20
44.278642
30
0.000000
0
VERTEX
5
216d
8
0
10
21.259543
20
44.279886
30
0.000000
0
VERTEX
5
217d
8
0
10
21.309103
20
44.282780
30
0.000000
0
VERTEX
5
218d
8
0
10
21.358231
20
44.287335
30
0.000000
0
VERTEX
5
219d
8
0
10
21.406896
20
44.293662
30
0.000000
0
VERTEX
5
21ad
8
0
10
21.455068
20
44.301872
30
0.000000
0
VERTEX
5
21bd
8
0
10
21.502717
20
44.312074
30
0.000000
0
VERTEX
5
21cd
8
0
10
21.549814
20
44.324380
30
0.000000
0
VERTEX
5
21dd
8
0
10
21.596328
20
44.338899
30
0.000000
0
VERTEX
5
21ed
8
0
10
21.642229
20
44.355743
30
0.000000
0
VERTEX
5
21fd
8
0
10
21.687488
20
44.375021
30
0.000000
0
VERTEX
5
220d
8
0
10
21.732074
20
44.396844
30
0.000000
0
VERTEX
5
221d
8
0
10
21.775958
20
44.421322
30
0.000000
0
VERTEX
5
222d
8
0
10
21.819110
20
44.448567
30
0.000000
0
VERTEX
5
223d
8
0
10
21.861499
20
44.478688
30
0.000000
0
VERTEX
5
224d
8
0
10
21.903095
20
44.511796
30
0.000000
0
VERTEX
5
225d
8
0
10
21.943870
20
44.548001
30
0.000000
0
VERTEX
5
226d
8
0
10
21.983792
20
44.587413
30
0.000000
0
VERTEX
5
227d
8
0
10
22.022832
20
44.630144
30
0.000000
0
VERTEX
5
228d
8
0
10
22.060959
20
44.676304
30
0.000000
0
SEQEND
5
229d
8
0
0
POLYLINE
5
22ad
8
0
66
1
10
0
20
0
30
0
0
VERTEX
5
22bd
8
0
10
27.970158
20
44.562924
30
0.000000
0
VERTEX
5
22cd
8
0
10
27.970158
20
44.562924
30
0.000000
0
VERTEX
5
22dd
8
0
10
28.030588
20
44.526142
30
0.000000
0
VERTEX
5
22ed
8
0
10
28.084058
20
44.487236
30
0.000000
0
VERTEX
5
22fd
8
0
10
28.130945
20
44.446305
30
0.000000
0
VERTEX
5
230d
8
0
10
28.171624
20
44.403447
30
0.000000
0
VERTEX
5
231d
8
0
10
28.206472
20
44.358761
30
0.000000
0
VERTEX
5
232d
8
0
10
28.235863
20
44.312345
30
0.000000
0
VERTEX
5
233d
8
0
10
28.260174
20
44.264298
30
0.000000
0
VERTEX
5
234d
8
0
10
28.279782
20
44.214718
30
0.000000
0
VERTEX
5
235d
8
0
10
28.295061
20
44.163703
30
0.000000
0
VERTEX
5
236d
8
0
10
28.306387
20
44.111353
30
0.000000
0
VERTEX
5
237d
8
0
10
28.314137
20
44.057765
30
0.000000
0
VERTEX
5
238d
8
0
10
28.318686
20
44.003039
30
0.000000
0
VERTEX
5
239d
8
0
10
28.320410
20
43.947272
30
0.000000
0
VERTEX
5
23ad
8
0
10
28.319685
20
43.890563
30
0.000000
0
VERTEX
5
23bd
8
0
10
28.316887
20
43.833010
30
0.000000
0
VERTEX
5
23cd
8
0
10
28.312392
20
43.774713
30
0.000000
0
VERTEX
5
23dd
8
0
10
28.299813
20
43.656276
30
0.000000
0
VERTEX
5
23ed
8
0
10
28.284956
20
43.536041
30
0.000000
0
VERTEX
5
23fd
8
0
10
28.270827
20
43.414795
30
0.000000
0
VERTEX
5
240d
8
0
10
28.260433
20
43.293326
30
0.000000
0
VERTEX
5
241d
8
0
10
28.257576
20
43.232754
30
0.000000
0
VERTEX
5
242d
8
0
10
28.256781
20
43.172421
30
0.000000
0
VERTEX
5
243d
8
0
10
28.258423
20
43.112427
30
0.000000
0
VERTEX
5
244d
8
0
10
28.262878
20
43.052869
30
0.000000
0
VERTEX
5
245d
8
0
10
28.270522
20
42.993846
30
0.000000
0
VERTEX
5
246d
8
0
10
28.281732
20
42.935457
30
0.000000
0
VERTEX
5
247d
8
0
10
28.296881
20
42.877800
30
0.000000
0
VERTEX
5
248d
8
0
10
28.316348
20
42.820973
30
0.000000
0
VERTEX
5
249d
8
0
10
29.077078
20
43.085990
30
0.000000
0
VERTEX
5
24ad
8
0
10
28.325156
20
42.110195
30
0.000000
0
VERTEX
5
24bd
8
0
10
28.897135
20
41.253171
30
0.000000
0
VERTEX
5
24cd
8
0
10
28.897135
20
40.824247
30
0.000000
0
VERTEX
5
24dd
8
0
10
28.328119
20
40.824247
30
0.000000
0
VERTEX
5
24ed
8
0
10
28.200945
20
40.198902
30
0.000000
0
VERTEX
5
24fd
8
0
10
27.986692
20
40.198902
30
0.000000
0
VERTEX
5
250d
8
0
10
27.865182
20
40.796394
30
0.000000
0
VERTEX
5
251d
8
0
10
27.268679
20
40.918105
30
0.000000
0
VERTEX
5
252d
8
0
10
27.280221
20
41.160347
30
0.000000
0
VERTEX
5
253d
8
0
10
28.591905
20
41.260601
30
0.000000
0
VERTEX
5
254d
8
0
10
27.279099
20
42.813470
30
0.000000
0
VERTEX
5
255d
8
0
10
27.892989
20
43.022343
30
0.000000
0
VERTEX
5
256d
8
0
10
27.970158
20
44.562924
30
0.000000
0
SEQEND
5
257d
8
0
0
POLYLINE
5
258d
8
0
66
1
10
0
20
0
30
0
0
VERTEX
5
259d
8
0
10
35.918180
20
44.676304
30
0.000000
0
VERTEX
5
25ad
8
0
10
35.926160
20
44.204621
30
0.000000
0
VERTEX
5
25bd
8
0
10
35.173420
20
43.227765
30
0.000000
0
VERTEX
5
25cd
8
0
10
34.834151
20
43.567596
30
0.000000
0
VERTEX
5
25dd
8
0
10
35.442806
20
43.933394
30
0.000000
0
VERTEX
5
25ed
8
0
10
33.224539
20
44.254454
30
0.000000
0
VERTEX
5
25fd
8
0
10
33.928348
20
43.056480
30
0.000000
0
VERTEX
5
260d
8
0
10
33.928348
20
43.056480
30
0.000000
0
VERTEX
5
261d
8
0
10
33.995835
20
43.038855
30
0.000000
0
VERTEX
5
262d
8
0
10
34.064066
20
43.025113
30
0.000000
0
VERTEX
5
263d
8
0
10
34.132977
20
43.014912
30
0.000000
0
VERTEX
5
264d
8
0
10
34.202507
20
43.007911
30
0.000000
0
VERTEX
5
265d
8
0
10
34.272591
20
43.003769
30
0.000000
0
VERTEX
5
266d
8
0
10
34.343166
20
43.002144
30
0.000000
0
VERTEX
5
267d
8
0
10
34.414170
20
43.002695
30
0.000000
0
VERTEX
5
268d
8
0
10
34.485538
20
43.005079
30
0.000000
0
VERTEX
5
269d
8
0
10
34.629115
20
43.013984
30
0.000000
0
VERTEX
5
26ad
8
0
10
34.773392
20
43.026127
30
0.000000
0
VERTEX
5
26bd
8
0
10
34.917863
20
43.038777
30
0.000000
0
VERTEX
5
26cd
8
0
10
35.062021
20
43.049200
30
0.000000
0
VERTEX
5
26dd
8
0
10
35.133825
20
43.052723
30
0.000000
0
VERTEX
5
26ed
8
0
10
35.205361
20
43.054666
30
0.000000
0
VERTEX
5
26fd
8
0
10
35.276565
20
43.054686
30
0.000000
0
VERTEX
5
270d
8
0
10
35.347376
20
43.052442
30
0.000000
0
VERTEX
5
271d
8
0
10
35.417728
20
43.047592
30
0.000000
0
VERTEX
5
272d
8
0
10
35.487560
20
43.039796
30
0.000000
0
VERTEX
5
273d
8
0
10
35.556808
20
43.028711
30
0.000000
0
VERTEX
5
274d
8
0
10
35.625408
20
43.013996
30
0.000000
0
VERTEX
5
275d
8
0
10
35.693298
20
42.995309
30
0.000000
0
VERTEX
5
276d
8
0
10
35.760413
20
42.972310
30
0.000000
0
VERTEX
5
277d
8
0
10
35.826691
20
42.944656
30
0.000000
0
VERTEX
5
278d
8
0
10
35.892069
20
42.912007
30
0.000000
0
VERTEX
5
279d
8
0
10
35.956483
20
42.874020
30
0.000000
0
VERTEX
5
27ad
8
0
10
36.019870
20
42.830354
30
0.000000
0
VERTEX
5
27bd
8
0
10
36.082167
20
42.780667
30
0.000000
0
VERTEX
5
27cd
8
0
10
36.143310
20
42.724619
30
0.000000
0
VERTEX
5
27dd
8
0
10
32.397773
20
42.676399
30
0.000000
0
VERTEX
5
27ed
8
0
10
32.397773
20
42.676399
30
0.000000
0
VERTEX
5
27fd
8
0
10
32.406591
20
42.748216
30
0.000000
0
VERTEX
5
280d
8
0
10
32.418790
20
42.811598
30
0.000000
0
VERTEX
5
281d
8
0
10
32.434203
20
42.867004
30
0.000000
0
VERTEX
5
282d
8
0
10
32.452663
20
42.914890
30
0.000000
0
VERTEX
5
283d
8
0
10
32.474004
20
42.955715
30
0.000000
0
VERTEX
5
284d
8
0
10
32.498058
20
42.989938
30
0.000000
0
VERTEX
5
285d
8
0
10
32.524658
20
43.018015
30
0.000000
0
VERTEX
5
286d
8
0
10
32.553639
20
43.040404
30
0.000000
0
VERTEX
5
287d
8
0
10
32.584833
20
43.057564
30
0.000000
0
VERTEX
5
288d
8
0
10
32.618073
20
43.069953
30
0.000000
0
VERTEX
5
289d
8
0
10
32.653193
20
43.078028
30
0.000000
0
VERTEX
5
28ad
8
0
10
32.690026
20
43.082247
30
0.000000
0
VERTEX
5
28bd
8
0
10
32.728404
20
43.083069
30
0.000000
0
VERTEX
5
28cd
8
0
10
32.768161
20
43.080950
30
0.000000
0
VERTEX
5
28dd
8
0
10
32.809131
20
43.076350
30
0.000000
0
VERTEX
5
28ed
8
0
10
32.851146
20
43.069725
30
0.000000
0
VERTEX
5
28fd
8
0
10
32.937645
20
43.052235
30
0.000000
0
VERTEX
5
290d
8
0
10
33.026323
20
43.032142
30
0.000000
0
VERTEX
5
291d
8
0
10
33.115847
20
43.013111
30
0.000000
0
VERTEX
5
292d
8
0
10
33.160509
20
43.005138
30
0.000000
0
VERTEX
5
293d
8
0
10
33.204882
20
42.998804
30
0.000000
0
VERTEX
5
294d
8
0
10
33.248799
20
42.994568
30
0.000000
0
VERTEX
5
295d
8
0
10
33.292093
20
42.992885
30
0.000000
0
VERTEX
5
296d
8
0
10
33.334598
20
42.994216
30
0.000000
0
VERTEX
5
297d
8
0
10
33.376146
20
42.999017
30
0.000000
0
VERTEX
5
298d
8
0
10
33.416571
20
43.007747
30
0.000000
0
VERTEX
5
299d
8
0
10
33.455706
20
43.020863
30
0.000000
0
VERTEX
5
29ad
8
0
10
33.493384
20
43.038823
30
0.000000
0
VERTEX
5
29bd
8
0
10
33.529439
20
43.062086
30
0.000000
0
VERTEX
5
29cd
8
0
10
32.907000
20
44.045109
30
0.000000
0
VERTEX
5
29dd
8
0
10
32.907000
20
44.045109
30
0.000000
0
VERTEX
5
29ed
8
0
10
32.943173
20
44.090387
30
0.000000
0
VERTEX
5
29fd
8
0
10
32.980320
20
44.132263
30
0.000000
0
VERTEX
5
2a0d
8
0
10
33.018411
20
44.170850
30
0.000000
0
VERTEX
5
2a1d
8
0
10
33.057414
20
44.206255
30
0.000000
0
VERTEX
5
2a2d
8
0
10
33.097300
20
44.238590
30
0.000000
0
VERTEX
5
2a3d
8
0
10
33.138039
20
44.267965
30
0.000000
0
VERTEX
5
2a4d
8
0
10
33.179599
20
44.294490
30
0.000000
0
VERTEX
5
2a5d
8
0
10
33.221950
20
44.318275
30
0.000000
0
VERTEX
5
2a6d
8
0
10
33.265062
20
44.339430
30
0.000000
0
VERTEX
5
2a7d
8
0
10
33.308905
20
44.358066
30
0.000000
0
VERTEX
5
2a8d
8
0
10
33.353448
20
44.374292
30
0.000000
0
VERTEX
5
2a9d
8
0
10
33.398661
20
44.388219
30
0.000000
0
VERTEX
5
2aad
8
0
10
33.444512
20
44.399956
30
0.000000
0
VERTEX
5
2abd
8
0
10
33.490973
20
44.409615
30
0.000000
0
VERTEX
5
2acd
8
0
10
33.538012
20
44.417305
30
0.000000
0
VERTEX
5
2add
8
0
10
33.585599
20
44.423136
30
0.000000
0
VERTEX
5
2aed
8
0
10
33.633704
20
44.427219
30
0.000000
0
VERTEX
5
2afd
8
0
10
33.682296
20
44.429663
30
0.000000
0
VERTEX
5
2b0d
8
0
10
33.780820
20
44.430077
30
0.000000
0
VERTEX
5
2b1d
8
0
10
33.880927
20
44.425259
30
0.000000
0
VERTEX
5
2b2d
8
0
10
33.982376
20
44.416091
30
0.000000
0
VERTEX
5
2b3d
8
0
10
34.084921
20
44.403454
30
0.000000
0
VERTEX
5
2b4d
8
0
10
34.188321
20
44.388229
30
0.000000
0
VERTEX
5
2b5d
8
0
10
34.396709
20
44.353542
30
0.000000
0
VERTEX
5
2b6d
8
0
10
34.605593
20
44.319078
30
0.000000
0
VERTEX
5
2b7d
8
0
10
34.709613
20
44.304133
30
0.000000
0
VERTEX
5
2b8d
8
0
10
34.813027
20
44.291887
30
0.000000
0
VERTEX
5
2b9d
8
0
10
34.915592
20
44.283223
30
0.000000
0
VERTEX
5
2bad
8
0
10
35.017064
20
44.279021
30
0.000000
0
VERTEX
5
2bbd
8
0
10
35.117201
20
44.280163
30
0.000000
0
VERTEX
5
2bcd
8
0
10
35.166692
20
44.283013
30
0.000000
0
VERTEX
5
2bdd
8
0
10
35.215759
20
44.287530
30
0.000000
0
VERTEX
5
2bed
8
0
10
35.264369
20
44.293822
30
0.000000
0
VERTEX
5
2bfd
8
0
10
35.312494
20
44.302002
30
0.000000
0
VERTEX
5
2c0d
8
0
10
35.360102
20
44.312178
30
0.000000
0
VERTEX
5
2c1d
8
0
10
35.407164
20
44.324462
30
0.000000
0
VERTEX
5
2c2d
8
0
10
35.453648
20
44.338962
30
0.000000
0
VERTEX
5
2c3d
8
0
10
35.499525
20
44.355790
30
0.000000
0
VERTEX
5
2c4d
8
0
10
35.544763
20
44.375055
30
0.000000
0
VERTEX
5
2c5d
8
0
10
35.589334
20
44.396868
30
0.000000
0
VERTEX
5
2c6d
8
0
10
35.633205
20
44.421339
30
0.000000
0
VERTEX
5
2c7d
8
0
10
35.676347
20
44.448577
30
0.000000
0
VERTEX
5
2c8d
8
0
10
35.718729
20
44.478694
30
0.000000
0
VERTEX
5
2c9d
8
0
10
35.760321
20
44.511799
30
0.000000
0
VERTEX
5
2cad
8
0
10
35.801093
20
44.548002
30
0.000000
0
VERTEX
5
2cbd
8
0
10
35.841013
20
44.587414
30
0.000000
0
VERTEX
5
2ccd
8
0
10
35.880053
20
44.630144
30
0.000000
0
VERTEX
5
2cdd
8
0
10
35.918180
20
44.676304
30
0.000000
0
SEQEND
5
2ced
8
0
0
POLYLINE
5
2cfd
8
0
66
1
10
0
20
0
30
0
0
VERTEX
5
2d0d
8
0
10
16.244890
20
40.220760
30
0.000000
0
VERTEX
5
2d1d
8
0
10
16.244890
20
41.471268
30
0.000000
0
VERTEX
5
2d2d
8
0
10
14.890617
20
41.906569
30
0.000000
0
VERTEX
5
2d3d
8
0
10
16.244890
20
42.242341
30
0.000000
0
VERTEX
5
2d4d
8
0
10
16.244890
20
43.977496
30
0.000000
0
VERTEX
5
2d5d
8
0
10
14.457020
20
44.445166
30
0.000000
0
VERTEX
5
2d6d
8
0
10
17.650695
20
44.445166
30
0.000000
0
VERTEX
5
2d7d
8
0
10
17.647568
20
44.255999
30
0.000000
0
VERTEX
5
2d8d
8
0
10
16.445719
20
43.941620
30
0.000000
0
VERTEX
5
2d9d
8
0
10
16.445719
20
42.222080
30
0.000000
0
VERTEX
5
2dad
8
0
10
17.712542
20
41.828748
30
0.000000
0
VERTEX
5
2dbd
8
0
10
17.449866
20
41.628896
30
0.000000
0
VERTEX
5
2dcd
8
0
10
16.445719
20
41.628896
30
0.000000
0
VERTEX
5
2ddd
8
0
10
16.445719
20
40.220760
30
0.000000
0
VERTEX
5
2ded
8
0
10
16.244890
20
40.220760
30
0.000000
0
SEQEND
5
2dfd
8
0
0
POLYLINE
5
2e0d
8
0
66
1
10
0
20
0
30
0
0
VERTEX
5
2e1d
8
0
10
30.102111
20
40.220760
30
0.000000
0
VERTEX
5
2e2d
8
0
10
30.102111
20
41.628896
30
0.000000
0
VERTEX
5
2e3d
8
0
10
28.897135
20
41.628896
30
0.000000
0
VERTEX
5
2e4d
8
0
10
28.881172
20
41.945182
30
0.000000
0
VERTEX
5
2e5d
8
0
10
30.102111
20
42.115037
30
0.000000
0
VERTEX
5
2e6d
8
0
10
30.102111
20
43.949656
30
0.000000
0
VERTEX
5
2e7d
8
0
10
28.664228
20
44.320313
30
0.000000
0
VERTEX
5
2e8d
8
0
10
28.696306
20
44.445166
30
0.000000
0
VERTEX
5
2e9d
8
0
10
31.507916
20
44.445166
30
0.000000
0
VERTEX
5
2ead
8
0
10
31.517415
20
44.141278
30
0.000000
0
VERTEX
5
2ebd
8
0
10
30.302940
20
44.028600
30
0.000000
0
VERTEX
5
2ecd
8
0
10
30.302940
20
42.222080
30
0.000000
0
VERTEX
5
2edd
8
0
10
31.569762
20
41.828748
30
0.000000
0
VERTEX
5
2eed
8
0
10
31.307087
20
41.628896
30
0.000000
0
VERTEX
5
2efd
8
0
10
30.302940
20
41.628896
30
0.000000
0
VERTEX
5
2f0d
8
0
10
30.302940
20
40.220760
30
0.000000
0
VERTEX
5
2f1d
8
0
10
30.102111
20
40.220760
30
0.000000
0
SEQEND
5
2f2d
8
0
0
POLYLINE
5
2f3d
8
0
66
1
10
0
20
0
30
0
0
VERTEX
5
2f4d
8
0
10
22.683510
20
42.039610
30
0.000000
0
VERTEX
5
2f5d
8
0
10
20.479213
20
40.246500
30
0.000000
0
VERTEX
5
2f6d
8
0
10
18.293183
20
41.812241
30
0.000000
0
VERTEX
5
2f7d
8
0
10
18.293183
20
41.812241
30
0.000000
0
VERTEX
5
2f8d
8
0
10
18.314653
20
41.845278
30
0.000000
0
VERTEX
5
2f9d
8
0
10
18.336349
20
41.875426
30
0.000000
0
VERTEX
5
2fad
8
0
10
18.358264
20
41.902739
30
0.000000
0
VERTEX
5
2fbd
8
0
10
18.380390
20
41.927269
30
0.000000
0
VERTEX
5
2fcd
8
0
10
18.402719
20
41.949071
30
0.000000
0
VERTEX
5
2fdd
8
0
10
18.425244
20
41.968197
30
0.000000
0
VERTEX
5
2fed
8
0
10
18.447957
20
41.984701
30
0.000000
0
VERTEX
5
2ffd
8
0
10
18.470850
20
41.998636
30
0.000000
0
VERTEX
5
300d
8
0
10
18.493915
20
42.010056
30
0.000000
0
VERTEX
5
301d
8
0
10
18.517145
20
42.019013
30
0.000000
0
VERTEX
5
302d
8
0
10
18.540531
20
42.025560
30
0.000000
0
VERTEX
5
303d
8
0
10
18.564066
20
42.029753
30
0.000000
0
VERTEX
5
304d
8
0
10
18.587743
20
42.031642
30
0.000000
0
VERTEX
5
305d
8
0
10
18.611553
20
42.031282
30
0.000000
0
VERTEX
5
306d
8
0
10
18.635489
20
42.028727
30
0.000000
0
VERTEX
5
307d
8
0
10
18.659543
20
42.024028
30
0.000000
0
VERTEX
5
308d
8
0
10
18.683707
20
42.017241
30
0.000000
0
VERTEX
5
309d
8
0
10
18.707973
20
42.008417
30
0.000000
0
VERTEX
5
30ad
8
0
10
18.732334
20
41.997611
30
0.000000
0
VERTEX
5
30bd
8
0
10
18.756782
20
41.984874
30
0.000000
0
VERTEX
5
30cd
8
0
10
18.781309
20
41.970262
30
0.000000
0
VERTEX
5
30dd
8
0
10
18.805908
20
41.953827
30
0.000000
0
VERTEX
5
30ed
8
0
10
18.855288
20
41.915701
30
0.000000
0
VERTEX
5
30fd
8
0
10
18.904860
20
41.870923
30
0.000000
0
VERTEX
5
310d
8
0
10
18.954563
20
41.819918
30
0.000000
0
VERTEX
5
311d
8
0
10
19.004333
20
41.763114
30
0.000000
0
VERTEX
5
312d
8
0
10
19.054110
20
41.700937
30
0.000000
0
VERTEX
5
313d
8
0
10
19.054110
20
41.700937
30
0.000000
0
VERTEX
5
314d
8
0
10
19.106336
20
41.743278
30
0.000000
0
VERTEX
5
315d
8
0
10
19.158897
20
41.782662
30
0.000000
0
VERTEX
5
316d
8
0
10
19.211786
20
41.819174
30
0.000000
0
VERTEX
5
317d
8
0
10
19.264993
20
41.852902
30
0.000000
0
VERTEX
5
318d
8
0
10
19.318507
20
41.883930
30
0.000000
0
VERTEX
5
319d
8
0
10
19.372321
20
41.912346
30
0.000000
0
VERTEX
5
31ad
8
0
10
19.426424
20
41.938235
30
0.000000
0
VERTEX
5
31bd
8
0
10
19.480807
20
41.961684
30
0.000000
0
VERTEX
5
31cd
8
0
10
19.535461
20
41.982779
30
0.000000
0
VERTEX
5
31dd
8
0
10
19.590376
20
42.001606
30
0.000000
0
VERTEX
5
31ed
8
0
10
19.645543
20
42.018252
30
0.000000
0
VERTEX
5
31fd
8
0
10
19.700953
20
42.032801
30
0.000000
0
VERTEX
5
320d
8
0
10
19.756596
20
42.045342
30
0.000000
0
VERTEX
5
321d
8
0
10
19.812462
20
42.055959
30
0.000000
0
VERTEX
5
322d
8
0
10
19.868543
20
42.064739
30
0.000000
0
VERTEX
5
323d
8
0
10
19.924829
20
42.071769
30
0.000000
0
VERTEX
5
324d
8
0
10
19.981310
20
42.077134
30
0.000000
0
VERTEX
5
325d
8
0
10
20.037978
20
42.080920
30
0.000000
0
VERTEX
5
326d
8
0
10
20.151834
20
42.084103
30
0.000000
0
VERTEX
5
327d
8
0
10
20.266322
20
42.082006
30
0.000000
0
VERTEX
5
328d
8
0
10
20.381367
20
42.075320
30
0.000000
0
VERTEX
5
329d
8
0
10
20.496893
20
42.064733
30
0.000000
0
VERTEX
5
32ad
8
0
10
20.612827
20
42.050936
30
0.000000
0
VERTEX
5
32bd
8
0
10
20.729092
20
42.034617
30
0.000000
0
VERTEX
5
32cd
8
0
10
20.845613
20
42.016467
30
0.000000
0
VERTEX
5
32dd
8
0
10
21.079124
20
41.977430
30
0.000000
0
VERTEX
5
32ed
8
0
10
21.312758
20
41.939340
30
0.000000
0
VERTEX
5
32fd
8
0
10
21.429434
20
41.922374
30
0.000000
0
VERTEX
5
330d
8
0
10
21.545916
20
41.907714
30
0.000000
0
VERTEX
5
331d
8
0
10
21.662128
20
41.896049
30
0.000000
0
VERTEX
5
332d
8
0
10
21.777995
20
41.888068
30
0.000000
0
VERTEX
5
333d
8
0
10
21.893443
20
41.884462
30
0.000000
0
VERTEX
5
334d
8
0
10
22.008395
20
41.885919
30
0.000000
0
VERTEX
5
335d
8
0
10
22.065663
20
41.888761
30
0.000000
0
VERTEX
5
336d
8
0
10
22.122778
20
41.893129
30
0.000000
0
VERTEX
5
337d
8
0
10
22.179732
20
41.899107
30
0.000000
0
VERTEX
5
338d
8
0
10
22.236515
20
41.906782
30
0.000000
0
VERTEX
5
339d
8
0
10
22.293118
20
41.916239
30
0.000000
0
VERTEX
5
33ad
8
0
10
22.349532
20
41.927567
30
0.000000
0
VERTEX
5
33bd
8
0
10
22.405747
20
41.940849
30
0.000000
0
VERTEX
5
33cd
8
0
10
22.461754
20
41.956173
30
0.000000
0
VERTEX
5
33dd
8
0
10
22.517543
20
41.973625
30
0.000000
0
VERTEX
5
33ed
8
0
10
22.573105
20
41.993291
30
0.000000
0
VERTEX
5
33fd
8
0
10
22.628430
20
42.015257
30
0.000000
0
VERTEX
5
340d
8
0
10
22.683510
20
42.039610
30
0.000000
0
SEQEND
5
341d
8
0
0
POLYLINE
5
342d
8
0
66
1
10
0
20
0
30
0
0
VERTEX
5
343d
8
0
10
36.678302
20
42.086239
30
0.000000
0
VERTEX
5
344d
8
0
10
34.336434
20
40.246500
30
0.000000
0
VERTEX
5
345d
8
0
10
32.150404
20
41.812757
30
0.000000
0
VERTEX
5
346d
8
0
10
32.150404
20
41.812757
30
0.000000
0
VERTEX
5
347d
8
0
10
32.171874
20
41.850258
30
0.000000
0
VERTEX
5
348d
8
0
10
32.193570
20
41.882574
30
0.000000
0
VERTEX
5
349d
8
0
10
32.215485
20
41.909959
30
0.000000
0
VERTEX
5
34ad
8
0
10
32.237612
20
41.932663
30
0.000000
0
VERTEX
5
34bd
8
0
10
32.259943
20
41.950939
30
0.000000
0
VERTEX
5
34cd
8
0
10
32.282471
20
41.965039
30
0.000000
0
VERTEX
5
34dd
8
0
10
32.305187
20
41.975214
30
0.000000
0
VERTEX
5
34ed
8
0
10
32.328084
20
41.981716
30
0.000000
0
VERTEX
5
34fd
8
0
10
32.351155
20
41.984797
30
0.000000
0
VERTEX
5
350d
8
0
10
32.374391
20
41.984709
30
0.000000
0
VERTEX
5
351d
8
0
10
32.397786
20
41.981702
30
0.000000
0
VERTEX
5
352d
8
0
10
32.421332
20
41.976031
30
0.000000
0
VERTEX
5
353d
8
0
10
32.445020
20
41.967945
30
0.000000
0
VERTEX
5
354d
8
0
10
32.468844
20
41.957697
30
0.000000
0
VERTEX
5
355d
8
0
10
32.516869
20
41.931721
30
0.000000
0
VERTEX
5
356d
8
0
10
32.565343
20
41.900118
30
0.000000
0
VERTEX
5
357d
8
0
10
32.614208
20
41.864901
30
0.000000
0
VERTEX
5
358d
8
0
10
32.712862
20
41.791686
30
0.000000
0
VERTEX
5
359d
8
0
10
32.762531
20
41.757716
30
0.000000
0
VERTEX
5
35ad
8
0
10
32.812345
20
41.728189
30
0.000000
0
VERTEX
5
35bd
8
0
10
32.837288
20
41.715722
30
0.000000
0
VERTEX
5
35cd
8
0
10
32.862245
20
41.705122
30
0.000000
0
VERTEX
5
35dd
8
0
10
32.887208
20
41.696639
30
0.000000
0
VERTEX
5
35ed
8
0
10
32.912170
20
41.690526
30
0.000000
0
VERTEX
5
35fd
8
0
10
32.912170
20
41.690526
30
0.000000
0
VERTEX
5
360d
8
0
10
32.948177
20
41.725598
30
0.000000
0
VERTEX
5
361d
8
0
10
32.984508
20
41.758632
30
0.000000
0
VERTEX
5
362d
8
0
10
33.021157
20
41.789680
30
0.000000
0
VERTEX
5
363d
8
0
10
33.058115
20
41.818790
30
0.000000
0
VERTEX
5
364d
8
0
10
33.095375
20
41.846015
30
0.000000
0
VERTEX
5
365d
8
0
10
33.132929
20
41.871405
30
0.000000
0
VERTEX
5
366d
8
0
10
33.170770
20
41.895010
30
0.000000
0
VERTEX
5
367d
8
0
10
33.208889
20
41.916882
30
0.000000
0
VERTEX
5
368d
8
0
10
33.247280
20
41.937070
30
0.000000
0
VERTEX
5
369d
8
0
10
33.285934
20
41.955626
30
0.000000
0
VERTEX
5
36ad
8
0
10
33.324843
20
41.972599
30
0.000000
0
VERTEX
5
36bd
8
0
10
33.364002
20
41.988041
30
0.000000
0
VERTEX
5
36cd
8
0
10
33.443032
20
42.014533
30
0.000000
0
VERTEX
5
36dd
8
0
10
33.522963
20
42.035508
30
0.000000
0
VERTEX
5
36ed
8
0
10
33.603735
20
42.051369
30
0.000000
0
VERTEX
5
36fd
8
0
10
33.685285
20
42.062522
30
0.000000
0
VERTEX
5
370d
8
0
10
33.767553
20
42.069373
30
0.000000
0
VERTEX
5
371d
8
0
10
33.850477
20
42.072325
30
0.000000
0
VERTEX
5
372d
8
0
10
33.933996
20
42.071784
30
0.000000
0
VERTEX
5
373d
8
0
10
34.018050
20
42.068155
30
0.000000
0
VERTEX
5
374d
8
0
10
34.102577
20
42.061843
30
0.000000
0
VERTEX
5
375d
8
0
10
34.187515
20
42.053253
30
0.000000
0
VERTEX
5
376d
8
0
10
34.272804
20
42.042791
30
0.000000
0
VERTEX
5
377d
8
0
10
34.358382
20
42.030860
30
0.000000
0
VERTEX
5
378d
8
0
10
34.530162
20
42.004215
30
0.000000
0
VERTEX
5
379d
8
0
10
34.702366
20
41.976558
30
0.000000
0
VERTEX
5
37ad
8
0
10
34.874504
20
41.951130
30
0.000000
0
VERTEX
5
37bd
8
0
10
34.960395
20
41.940264
30
0.000000
0
VERTEX
5
37cd
8
0
10
35.046087
20
41.931171
30
0.000000
0
VERTEX
5
37dd
8
0
10
35.131517
20
41.924254
30
0.000000
0
VERTEX
5
37ed
8
0
10
35.216625
20
41.919920
30
0.000000
0
VERTEX
5
37fd
8
0
10
35.301350
20
41.918573
30
0.000000
0
VERTEX
5
380d
8
0
10
35.385629
20
41.920618
30
0.000000
0
VERTEX
5
381d
8
0
10
35.469403
20
41.926461
30
0.000000
0
VERTEX
5
382d
8
0
10
35.552610
20
41.936505
30
0.000000
0
VERTEX
5
383d
8
0
10
36.678302
20
42.086239
30
0.000000
0
SEQEND
5
384d
8
0
0
POLYLINE
5
385d
8
0
66
1
10
0
20
0
30
0
0
VERTEX
5
386d
8
0
10
19.558573
20
41.606809
30
0.000000
0
VERTEX
5
387d
8
0
10
19.558573
20
41.606809
30
0.000000
0
VERTEX
5
388d
8
0
10
19.612210
20
41.504193
30
0.000000
0
VERTEX
5
389d
8
0
10
19.666416
20
41.408198
30
0.000000
0
VERTEX
5
38ad
8
0
10
19.721174
20
41.318823
30
0.000000
0
VERTEX
5
38bd
8
0
10
19.776465
20
41.236068
30
0.000000
0
VERTEX
5
38cd
8
0
10
19.832271
20
41.159934
30
0.000000
0
VERTEX
5
38dd
8
0
10
19.888574
20
41.090420
30
0.000000
0
VERTEX
5
38ed
8
0
10
19.945354
20
41.027526
30
0.000000
0
VERTEX
5
38fd
8
0
10
20.002594
20
40.971253
30
0.000000
0
VERTEX
5
390d
8
0
10
20.060276
20
40.921600
30
0.000000
0
VERTEX
5
391d
8
0
10
20.118380
20
40.878568
30
0.000000
0
VERTEX
5
392d
8
0
10
20.176889
20
40.842156
30
0.000000
0
VERTEX
5
393d
8
0
10
20.206289
20
40.826432
30
0.000000
0
VERTEX
5
394d
8
0
10
20.235784
20
40.812364
30
0.000000
0
VERTEX
5
395d
8
0
10
20.265370
20
40.799951
30
0.000000
0
VERTEX
5
396d
8
0
10
20.295046
20
40.789193
30
0.000000
0
VERTEX
5
397d
8
0
10
20.324810
20
40.780090
30
0.000000
0
VERTEX
5
398d
8
0
10
20.354658
20
40.772642
30
0.000000
0
VERTEX
5
399d
8
0
10
20.384590
20
40.766849
30
0.000000
0
VERTEX
5
39ad
8
0
10
20.414601
20
40.762711
30
0.000000
0
VERTEX
5
39bd
8
0
10
20.444691
20
40.760228
30
0.000000
0
VERTEX
5
39cd
8
0
10
20.474857
20
40.759401
30
0.000000
0
VERTEX
5
39dd
8
0
10
20.505096
20
40.760228
30
0.000000
0
VERTEX
5
39ed
8
0
10
20.535407
20
40.762711
30
0.000000
0
VERTEX
5
39fd
8
0
10
20.565786
20
40.766849
30
0.000000
0
VERTEX
5
3a0d
8
0
10
20.596232
20
40.772642
30
0.000000
0
VERTEX
5
3a1d
8
0
10
20.626743
20
40.780090
30
0.000000
0
VERTEX
5
3a2d
8
0
10
20.657315
20
40.789193
30
0.000000
0
VERTEX
5
3a3d
8
0
10
20.687947
20
40.799951
30
0.000000
0
VERTEX
5
3a4d
8
0
10
20.718637
20
40.812364
30
0.000000
0
VERTEX
5
3a5d
8
0
10
20.780180
20
40.842156
30
0.000000
0
VERTEX
5
3a6d
8
0
10
20.841924
20
40.878568
30
0.000000
0
VERTEX
5
3a7d
8
0
10
20.903853
20
40.921600
30
0.000000
0
VERTEX
5
3a8d
8
0
10
20.965947
20
40.971253
30
0.000000
0
VERTEX
5
3a9d
8
0
10
21.028189
20
41.027526
30
0.000000
0
VERTEX
5
3aad
8
0
10
21.090559
20
41.090420
30
0.000000
0
VERTEX
5
3abd
8
0
10
21.153039
20
41.159934
30
0.000000
0
VERTEX
5
3acd
8
0
10
21.215611
20
41.236068
30
0.000000
0
VERTEX
5
3add
8
0
10
21.278257
20
41.318823
30
0.000000
0
VERTEX
5
3aed
8
0
10
21.340958
20
41.408198
30
0.000000
0
VERTEX
5
3afd
8
0
10
21.403695
20
41.504193
30
0.000000
0
VERTEX
5
3b0d
8
0
10
21.466452
20
41.606809
30
0.000000
0
VERTEX
5
3b1d
8
0
10
19.558573
20
41.606809
30
0.000000
0
SEQEND
5
3b2d
8
0
0
POLYLINE
5
3b3d
8
0
66
1
10
0
20
0
30
0
0
VERTEX
5
3b4d
8
0
10
33.415794
20
41.606809
30
0.000000
0
VERTEX
5
3b5d
8
0
10
33.415794
20
41.606809
30
0.000000
0
VERTEX
5
3b6d
8
0
10
33.469431
20
41.504193
30
0.000000
0
VERTEX
5
3b7d
8
0
10
33.523637
20
41.408198
30
0.000000
0
VERTEX
5
3b8d
8
0
10
33.578395
20
41.318823
30
0.000000
0
VERTEX
5
3b9d
8
0
10
33.633686
20
41.236068
30
0.000000
0
VERTEX
5
3bad
8
0
10
33.689492
20
41.159934
30
0.000000
0
VERTEX
5
3bbd
8
0
10
33.745795
20
41.090420
30
0.000000
0
VERTEX
5
3bcd
8
0
10
33.802575
20
41.027526
30
0.000000
0
VERTEX
5
3bdd
8
0
10
33.859815
20
40.971253
30
0.000000
0
VERTEX
5
3bed
8
0
10
33.917497
20
40.921600
30
0.000000
0
VERTEX
5
3bfd
8
0
10
33.975601
20
40.878568
30
0.000000
0
VERTEX
5
3c0d
8
0
10
34.034110
20
40.842156
30
0.000000
0
VERTEX
5
3c1d
8
0
10
34.063510
20
40.826432
30
0.000000
0
VERTEX
5
3c2d
8
0
10
34.093005
20
40.812364
30
0.000000
0
VERTEX
5
3c3d
8
0
10
34.122591
20
40.799951
30
0.000000
0
VERTEX
5
3c4d
8
0
10
34.152267
20
40.789193
30
0.000000
0
VERTEX
5
3c5d
8
0
10
34.182031
20
40.780090
30
0.000000
0
VERTEX
5
3c6d
8
0
10
34.211879
20
40.772642
30
0.000000
0
VERTEX
5
3c7d
8
0
10
34.241811
20
40.766849
30
0.000000
0
VERTEX
5
3c8d
8
0
10
34.271822
20
40.762711
30
0.000000
0
VERTEX
5
3c9d
8
0
10
34.301912
20
40.760228
30
0.000000
0
VERTEX
5
3cad
8
0
10
34.332078
20
40.759401
30
0.000000
0
VERTEX
5
3cbd
8
0
10
34.362317
20
40.760228
30
0.000000
0
VERTEX
5
3ccd
8
0
10
34.392628
20
40.762711
30
0.000000
0
VERTEX
5
3cdd
8
0
10
34.423007
20
40.766849
30
0.000000
0
VERTEX
5
3ced
8
0
10
34.453453
20
40.772642
30
0.000000
0
VERTEX
5
3cfd
8
0
10
34.483964
20
40.780090
30
0.000000
0
VERTEX
5
3d0d
8
0
10
34.514536
20
40.789193
30
0.000000
0
VERTEX
5
3d1d
8
0
10
34.545168
20
40.799951
30
0.000000
0
VERTEX
5
3d2d
8
0
10
34.575858
20
40.812364
30
0.000000
0
VERTEX
5
3d3d
8
0
10
34.637401
20
40.842156
30
0.000000
0
VERTEX
5
3d4d
8
0
10
34.699145
20
40.878568
30
0.000000
0
VERTEX
5
3d5d
8
0
10
34.761074
20
40.921600
30
0.000000
0
VERTEX
5
3d6d
8
0
10
34.823168
20
40.971253
30
0.000000
0
VERTEX
5
3d7d
8
0
10
34.885410
20
41.027526
30
0.000000
0
VERTEX
5
3d8d
8
0
10
34.947780
20
41.090420
30
0.000000
0
VERTEX
5
3d9d
8
0
10
35.010260
20
41.159934
30
0.000000
0
VERTEX
5
3dad
8
0
10
35.072832
20
41.236068
30
0.000000
0
VERTEX
5
3dbd
8
0
10
35.135478
20
41.318823
30
0.000000
0
VERTEX
5
3dcd
8
0
10
35.198179
20
41.408198
30
0.000000
0
VERTEX
5
3ddd
8
0
10
35.260916
20
41.504193
30
0.000000
0
VERTEX
5
3ded
8
0
10
35.323673
20
41.606809
30
0.000000
0
VERTEX
5
3dfd
8
0
10
33.415794
20
41.606809
30
0.000000
0
SEQEND
5
3e0d
8
0
0
POLYLINE
5
3e1d
8
0
66
1
10
0
20
0
30
0
0
VERTEX
5
3e2d
8
0
10
40.614368
20
15.387765
30
0.000000
0
VERTEX
5
3e3d
8
0
10
40.614368
20
15.387765
30
0.000000
0
VERTEX
5
3e4d
8
0
10
40.723661
20
15.650108
30
0.000000
0
VERTEX
5
3e5d
8
0
10
40.829461
20
15.910975
30
0.000000
0
VERTEX
5
3e6d
8
0
10
40.931659
20
16.170320
30
0.000000
0
VERTEX
5
3e7d
8
0
10
41.030140
20
16.428099
30
0.000000
0
VERTEX
5
3e8d
8
0
10
41.124794
20
16.684265
30
0.000000
0
VERTEX
5
3e9d
8
0
10
41.215509
20
16.938773
30
0.000000
0
VERTEX
5
3ead
8
0
10
41.302172
20
17.191577
30
0.000000
0
VERTEX
5
3ebd
8
0
10
41.384672
20
17.442633
30
0.000000
0
VERTEX
5
3ecd
8
0
10
41.462897
20
17.691894
30
0.000000
0
VERTEX
5
3edd
8
0
10
41.536735
20
17.939315
30
0.000000
0
VERTEX
5
3eed
8
0
10
41.606074
20
18.184850
30
0.000000
0
VERTEX
5
3efd
8
0
10
41.670801
20
18.428454
30
0.000000
0
VERTEX
5
3f0d
8
0
10
41.730806
20
18.670082
30
0.000000
0
VERTEX
5
3f1d
8
0
10
41.785976
20
18.909688
30
0.000000
0
VERTEX
5
3f2d
8
0
10
41.836200
20
19.147226
30
0.000000
0
VERTEX
5
3f3d
8
0
10
41.881365
20
19.382651
30
0.000000
0
VERTEX
5
3f4d
8
0
10
41.921359
20
19.615917
30
0.000000
0
VERTEX
5
3f5d
8
0
10
41.956071
20
19.846980
30
0.000000
0
VERTEX
5
3f6d
8
0
10
41.985388
20
20.075792
30
0.000000
0
VERTEX
5
3f7d
8
0
10
42.009199
20
20.302309
30
0.000000
0
VERTEX
5
3f8d
8
0
10
42.027392
20
20.526486
30
0.000000
0
VERTEX
5
3f9d
8
0
10
42.039855
20
20.748277
30
0.000000
0
VERTEX
5
3fad
8
0
10
42.046475
20
20.967635
30
0.000000
0
VERTEX
5
3fbd
8
0
10
42.047560
20
21.076389
30
0.000000
0
VERTEX
5
3fcd
8
0
10
42.047142
20
21.184517
30
0.000000
0
VERTEX
5
3fdd
8
0
10
42.045207
20
21.292015
30
0.000000
0
VERTEX
5
3fed
8
0
10
42.041742
20
21.398876
30
0.000000
0
VERTEX
5
3ffd
8
0
10
42.036733
20
21.505095
30
0.000000
0
VERTEX
5
400d
8
0
10
42.030165
20
21.610666
30
0.000000
0
VERTEX
5
401d
8
0
10
42.022025
20
21.715584
30
0.000000
0
VERTEX
5
402d
8
0
10
42.012298
20
21.819843
30
0.000000
0
VERTEX
5
403d
8
0
10
42.000971
20
21.923437
30
0.000000
0
VERTEX
5
404d
8
0
10
41.988029
20
22.026361
30
0.000000
0
VERTEX
5
405d
8
0
10
41.973459
20
22.128608
30
0.000000
0
VERTEX
5
406d
8
0
10
41.957247
20
22.230173
30
0.000000
0
VERTEX
5
407d
8
0
10
41.939378
20
22.331051
30
0.000000
0
VERTEX
5
408d
8
0
10
41.919839
20
22.431236
30
0.000000
0
VERTEX
5
409d
8
0
10
41.898616
20
22.530721
30
0.000000
0
VERTEX
5
40ad
8
0
10
41.875694
20
22.629502
30
0.000000
0
VERTEX
5
40bd
8
0
10
41.851060
20
22.727573
30
0.000000
0
VERTEX
5
40cd
8
0
10
41.824699
20
22.824928
30
0.000000
0
VERTEX
5
40dd
8
0
10
41.796598
20
22.921561
30
0.000000
0
VERTEX
5
40ed
8
0
10
41.766743
20
23.017466
30
0.000000
0
VERTEX
5
40fd
8
0
10
41.735120
20
23.112639
30
0.000000
0
VERTEX
5
410d
8
0
10
41.701714
20
23.207072
30
0.000000
0
VERTEX
5
411d
8
0
10
41.666512
20
23.300761
30
0.000000
0
VERTEX
5
412d
8
0
10
41.629499
20
23.393700
30
0.000000
0
VERTEX
5
413d
8
0
10
41.590663
20
23.485884
30
0.000000
0
VERTEX
5
414d
8
0
10
41.549988
20
23.577305
30
0.000000
0
VERTEX
5
415d
8
0
10
41.507461
20
23.667960
30
0.000000
0
VERTEX
5
416d
8
0
10
41.463067
20
23.757841
30
0.000000
0
VERTEX
5
417d
8
0
10
41.416794
20
23.846944
30
0.000000
0
VERTEX
5
418d
8
0
10
41.368626
20
23.935263
30
0.000000
0
VERTEX
5
419d
8
0
10
41.318550
20
24.022791
30
0.000000
0
VERTEX
5
41ad
8
0
10
41.266552
20
24.109524
30
0.000000
0
VERTEX
5
41bd
8
0
10
41.212617
20
24.195456
30
0.000000
0
VERTEX
5
41cd
8
0
10
41.156733
20
24.280580
30
0.000000
0
VERTEX
5
41dd
8
0
10
41.098884
20
24.364892
30
0.000000
0
VERTEX
5
41ed
8
0
10
41.039057
20
24.448386
30
0.000000
0
VERTEX
5
41fd
8
0
10
40.977238
20
24.531055
30
0.000000
0
VERTEX
5
420d
8
0
10
40.913413
20
24.612894
30
0.000000
0
VERTEX
5
421d
8
0
10
40.847567
20
24.693898
30
0.000000
0
VERTEX
5
422d
8
0
10
40.779688
20
24.774061
30
0.000000
0
VERTEX
5
423d
8
0
10
40.709760
20
24.853377
30
0.000000
0
VERTEX
5
424d
8
0
10
40.637770
20
24.931840
30
0.000000
0
VERTEX
5
425d
8
0
10
40.563705
20
25.009445
30
0.000000
0
VERTEX
5
426d
8
0
10
40.487549
20
25.086186
30
0.000000
0
VERTEX
5
427d
8
0
10
40.409289
20
25.162058
30
0.000000
0
VERTEX
5
428d
8
0
10
40.328911
20
25.237054
30
0.000000
0
VERTEX
5
429d
8
0
10
40.246401
20
25.311169
30
0.000000
0
VERTEX
5
42ad
8
0
10
40.161745
20
25.384398
30
0.000000
0
VERTEX
5
42bd
8
0
10
40.074928
20
25.456734
30
0.000000
0
VERTEX
5
42cd
8
0
10
39.985938
20
25.528172
30
0.000000
0
VERTEX
5
42dd
8
0
10
39.894760
20
25.598706
30
0.000000
0
VERTEX
5
42ed
8
0
10
39.801380
20
25.668331
30
0.000000
0
VERTEX
5
42fd
8
0
10
39.705784
20
25.737041
30
0.000000
0
VERTEX
5
430d
8
0
10
39.607957
20
25.804830
30
0.000000
0
VERTEX
5
431d
8
0
10
39.507887
20
25.871692
30
0.000000
0
VERTEX
5
432d
8
0
10
39.405559
20
25.937622
30
0.000000
0
VERTEX
5
433d
8
0
10
39.300959
20
26.002614
30
0.000000
0
VERTEX
5
434d
8
0
10
39.194073
20
26.066663
30
0.000000
0
VERTEX
5
435d
8
0
10
39.084887
20
26.129762
30
0.000000
0
VERTEX
5
436d
8
0
10
38.973387
20
26.191906
30
0.000000
0
VERTEX
5
437d
8
0
10
38.859559
20
26.253090
30
0.000000
0
VERTEX
5
438d
8
0
10
38.743389
20
26.313307
30
0.000000
0
VERTEX
5
439d
8
0
10
38.624864
20
26.372553
30
0.000000
0
VERTEX
5
43ad
8
0
10
38.503968
20
26.430820
30
0.000000
0
VERTEX
5
43bd
8
0
10
38.380689
20
26.488105
30
0.000000
0
VERTEX
5
43cd
8
0
10
38.255012
20
26.544400
30
0.000000
0
VERTEX
5
43dd
8
0
10
38.126922
20
26.599700
30
0.000000
0
VERTEX
5
43ed
8
0
10
37.996407
20
26.654000
30
0.000000
0
VERTEX
5
43fd
8
0
10
37.863453
20
26.707293
30
0.000000
0
VERTEX
5
440d
8
0
10
37.728044
20
26.759575
30
0.000000
0
VERTEX
5
441d
8
0
10
37.590167
20
26.810839
30
0.000000
0
VERTEX
5
442d
8
0
10
37.449809
20
26.861080
30
0.000000
0
VERTEX
5
443d
8
0
10
37.306955
20
26.910292
30
0.000000
0
VERTEX
5
444d
8
0
10
37.161591
20
26.958470
30
0.000000
0
VERTEX
5
445d
8
0
10
37.013704
20
27.005607
30
0.000000
0
VERTEX
5
446d
8
0
10
36.863278
20
27.051698
30
0.000000
0
VERTEX
5
447d
8
0
10
36.710301
20
27.096738
30
0.000000
0
VERTEX
5
448d
8
0
10
36.554758
20
27.140720
30
0.000000
0
VERTEX
5
449d
8
0
10
36.396635
20
27.183639
30
0.000000
0
VERTEX
5
44ad
8
0
10
36.235919
20
27.225489
30
0.000000
0
VERTEX
5
44bd
8
0
10
36.072595
20
27.266265
30
0.000000
0
VERTEX
5
44cd
8
0
10
35.906649
20
27.305960
30
0.000000
0
VERTEX
5
44dd
8
0
10
30.442550
20
26.104280
30
0.000000
0
VERTEX
5
44ed
8
0
10
30.442550
20
26.104280
30
0.000000
0
VERTEX
5
44fd
8
0
10
30.441152
20
26.063438
30
0.000000
0
VERTEX
5
450d
8
0
10
30.442133
20
26.024401
30
0.000000
0
VERTEX
5
451d
8
0
10
30.445411
20
25.987104
30
0.000000
0
VERTEX
5
452d
8
0
10
30.450903
20
25.951485
30
0.000000
0
VERTEX
5
453d
8
0
10
30.458526
20
25.917482
30
0.000000
0
VERTEX
5
454d
8
0
10
30.468195
20
25.885031
30
0.000000
0
VERTEX
5
455d
8
0
10
30.479829
20
25.854070
30
0.000000
0
VERTEX
5
456d
8
0
10
30.493343
20
25.824536
30
0.000000
0
VERTEX
5
457d
8
0
10
30.508656
20
25.796368
30
0.000000
0
VERTEX
5
458d
8
0
10
30.525684
20
25.769501
30
0.000000
0
VERTEX
5
459d
8
0
10
30.544343
20
25.743873
30
0.000000
0
VERTEX
5
45ad
8
0
10
30.564551
20
25.719422
30
0.000000
0
VERTEX
5
45bd
8
0
10
30.586224
20
25.696085
30
0.000000
0
VERTEX
5
45cd
8
0
10
30.609280
20
25.673798
30
0.000000
0
VERTEX
5
45dd
8
0
10
30.633635
20
25.652501
30
0.000000
0
VERTEX
5
45ed
8
0
10
30.659206
20
25.632129
30
0.000000
0
VERTEX
5
45fd
8
0
10
30.713664
20
25.593912
30
0.000000
0
VERTEX
5
460d
8
0
10
30.771990
20
25.558646
30
0.000000
0
VERTEX
5
461d
8
0
10
30.833517
20
25.525830
30
0.000000
0
VERTEX
5
462d
8
0
10
30.897583
20
25.494961
30
0.000000
0
VERTEX
5
463d
8
0
10
30.963520
20
25.465539
30
0.000000
0
VERTEX
5
464d
8
0
10
31.030665
20
25.437062
30
0.000000
0
VERTEX
5
465d
8
0
10
31.165919
20
25.380937
30
0.000000
0
VERTEX
5
466d
8
0
10
31.232697
20
25.352286
30
0.000000
0
VERTEX
5
467d
8
0
10
31.298023
20
25.322573
30
0.000000
0
VERTEX
5
468d
8
0
10
31.361232
20
25.291298
30
0.000000
0
VERTEX
5
469d
8
0
10
31.421659
20
25.257959
30
0.000000
0
VERTEX
5
46ad
8
0
10
31.478640
20
25.222055
30
0.000000
0
VERTEX
5
46bd
8
0
10
31.531508
20
25.183083
30
0.000000
0
VERTEX
5
46cd
8
0
10
31.556193
20
25.162291
30
0.000000
0
VERTEX
5
46dd
8
0
10
31.579600
20
25.140543
30
0.000000
0
VERTEX
5
46ed
8
0
10
31.601647
20
25.117778
30
0.000000
0
VERTEX
5
46fd
8
0
10
31.622250
20
25.093933
30
0.000000
0
VERTEX
5
470d
8
0
10
31.641327
20
25.068945
30
0.000000
0
VERTEX
5
471d
8
0
10
31.658794
20
25.042751
30
0.000000
0
VERTEX
5
472d
8
0
10
31.674568
20
25.015289
30
0.000000
0
VERTEX
5
473d
8
0
10
31.688566
20
24.986496
30
0.000000
0
VERTEX
5
474d
8
0
10
31.700705
20
24.956310
30
0.000000
0
VERTEX
5
475d
8
0
10
31.710902
20
24.924667
30
0.000000
0
VERTEX
5
476d
8
0
10
31.719074
20
24.891505
30
0.000000
0
VERTEX
5
477d
8
0
10
31.725137
20
24.856761
30
0.000000
0
VERTEX
5
478d
8
0
10
31.729008
20
24.820373
30
0.000000
0
VERTEX
5
479d
8
0
10
31.730605
20
24.782278
30
0.000000
0
VERTEX
5
47ad
8
0
10
31.729844
20
24.742413
30
0.000000
0
VERTEX
5
47bd
8
0
10
31.726642
20
24.700716
30
0.000000
0
VERTEX
5
47cd
8
0
10
31.720916
20
24.657123
30
0.000000
0
VERTEX
5
47dd
8
0
10
31.712583
20
24.611573
30
0.000000
0
VERTEX
5
47ed
8
0
10
31.701560
20
24.564002
30
0.000000
0
VERTEX
5
47fd
8
0
10
31.687764
20
24.514348
30
0.000000
0
VERTEX
5
480d
8
0
10
27.391940
20
24.785879
30
0.000000
0
VERTEX
5
481d
8
0
10
27.391940
20
24.785879
30
0.000000
0
VERTEX
5
482d
8
0
10
27.188689
20
24.741331
30
0.000000
0
VERTEX
5
483d
8
0
10
26.987110
20
24.694020
30
0.000000
0
VERTEX
5
484d
8
0
10
26.787180
20
24.643982
30
0.000000
0
VERTEX
5
485d
8
0
10
26.588875
20
24.591252
30
0.000000
0
VERTEX
5
486d
8
0
10
26.392169
20
24.535866
30
0.000000
0
VERTEX
5
487d
8
0
10
26.197040
20
24.477859
30
0.000000
0
VERTEX
5
488d
8
0
10
26.003461
20
24.417266
30
0.000000
0
VERTEX
5
489d
8
0
10
25.811410
20
24.354123
30
0.000000
0
VERTEX
5
48ad
8
0
10
25.620862
20
24.288465
30
0.000000
0
VERTEX
5
48bd
8
0
10
25.431792
20
24.220326
30
0.000000
0
VERTEX
5
48cd
8
0
10
25.244176
20
24.149743
30
0.000000
0
VERTEX
5
48dd
8
0
10
25.057990
20
24.076751
30
0.000000
0
VERTEX
5
48ed
8
0
10
24.873209
20
24.001385
30
0.000000
0
VERTEX
5
48fd
8
0
10
24.689809
20
23.923680
30
0.000000
0
VERTEX
5
490d
8
0
10
24.507767
20
23.843672
30
0.000000
0
VERTEX
5
491d
8
0
10
24.327056
20
23.761395
30
0.000000
0
VERTEX
5
492d
8
0
10
24.147654
20
23.676886
30
0.000000
0
VERTEX
5
493d
8
0
10
23.969536
20
23.590180
30
0.000000
0
VERTEX
5
494d
8
0
10
23.792677
20
23.501311
30
0.000000
0
VERTEX
5
495d
8
0
10
23.617054
20
23.410316
30
0.000000
0
VERTEX
5
496d
8
0
10
23.442641
20
23.317229
30
0.000000
0
VERTEX
5
497d
8
0
10
23.269415
20
23.222086
30
0.000000
0
VERTEX
5
498d
8
0
10
23.097351
20
23.124922
30
0.000000
0
VERTEX
5
499d
8
0
10
22.926425
20
23.025772
30
0.000000
0
VERTEX
5
49ad
8
0
10
22.756612
20
22.924672
30
0.000000
0
VERTEX
5
49bd
8
0
10
22.587889
20
22.821657
30
0.000000
0
VERTEX
5
49cd
8
0
10
22.420230
20
22.716762
30
0.000000
0
VERTEX
5
49dd
8
0
10
22.253612
20
22.610023
30
0.000000
0
VERTEX
5
49ed
8
0
10
22.088010
20
22.501475
30
0.000000
0
VERTEX
5
49fd
8
0
10
21.923401
20
22.391153
30
0.000000
0
VERTEX
5
4a0d
8
0
10
21.759758
20
22.279093
30
0.000000
0
VERTEX
5
4a1d
8
0
10
21.597060
20
22.165329
30
0.000000
0
VERTEX
5
4a2d
8
0
10
21.435279
20
22.049898
30
0.000000
0
VERTEX
5
4a3d
8
0
10
21.274394
20
21.932834
30
0.000000
0
VERTEX
5
4a4d
8
0
10
21.114379
20
21.814172
30
0.000000
0
VERTEX
5
4a5d
8
0
10
20.955210
20
21.693949
30
0.000000
0
VERTEX
5
4a6d
8
0
10
20.796862
20
21.572199
30
0.000000
0
VERTEX
5
4a7d
8
0
10
20.639312
20
21.448958
30
0.000000
0
VERTEX
5
4a8d
8
0
10
20.482535
20
21.324261
30
0.000000
0
VERTEX
5
4a9d
8
0
10
20.326506
20
21.198143
30
0.000000
0
VERTEX
5
4aad
8
0
10
20.171202
20
21.070639
30
0.000000
0
VERTEX
5
4abd
8
0
10
20.016598
20
20.941786
30
0.000000
0
VERTEX
5
4acd
8
0
10
19.709392
20
20.680170
30
0.000000
0
VERTEX
5
4add
8
0
10
19.404694
20
20.413576
30
0.000000
0
VERTEX
5
4aed
8
0
10
19.102310
20
20.142289
30
0.000000
0
VERTEX
5
4afd
8
0
10
18.802044
20
19.866590
30
0.000000
0
VERTEX
5
4b0d
8
0
10
18.503703
20
19.586761
30
0.000000
0
VERTEX
5
4b1d
8
0
10
18.207092
20
19.303085
30
0.000000
0
VERTEX
5
4b2d
8
0
10
17.912015
20
19.015844
30
0.000000
0
VERTEX
5
4b3d
8
0
10
17.618279
20
18.725321
30
0.000000
0
VERTEX
5
4b4d
8
0
10
17.325689
20
18.431799
30
0.000000
0
VERTEX
5
4b5d
8
0
10
17.034050
20
18.135559
30
0.000000
0
VERTEX
5
4b6d
8
0
10
16.743168
20
17.836884
30
0.000000
0
VERTEX
5
4b7d
8
0
10
16.743168
20
17.836884
30
0.000000
0
VERTEX
5
4b8d
8
0
10
16.867109
20
17.330753
30
0.000000
0
VERTEX
5
4b9d
8
0
10
16.992010
20
16.825543
30
0.000000
0
VERTEX
5
4bad
8
0
10
17.118885
20
16.322043
30
0.000000
0
VERTEX
5
4bbd
8
0
10
17.248745
20
15.821041
30
0.000000
0
VERTEX
5
4bcd
8
0
10
17.382606
20
15.323329
30
0.000000
0
VERTEX
5
4bdd
8
0
10
17.451352
20
15.075953
30
0.000000
0
VERTEX
5
4bed
8
0
10
17.521479
20
14.829695
30
0.000000
0
VERTEX
5
4bfd
8
0
10
17.593111
20
14.584654
30
0.000000
0
VERTEX
5
4c0d
8
0
10
17.666377
20
14.340928
30
0.000000
0
VERTEX
5
4c1d
8
0
10
17.741403
20
14.098617
30
0.000000
0
VERTEX
5
4c2d
8
0
10
17.818314
20
13.857819
30
0.000000
0
VERTEX
5
4c3d
8
0
10
17.897239
20
13.618632
30
0.000000
0
VERTEX
5
4c4d
8
0
10
17.978304
20
13.381156
30
0.000000
0
VERTEX
5
4c5d
8
0
10
18.061634
20
13.145488
30
0.000000
0
VERTEX
5
4c6d
8
0
10
18.147358
20
12.911729
30
0.000000
0
VERTEX
5
4c7d
8
0
10
18.235601
20
12.679975
30
0.000000
0
VERTEX
5
4c8d
8
0
10
18.326490
20
12.450327
30
0.000000
0
VERTEX
5
4c9d
8
0
10
18.420152
20
12.222882
30
0.000000
0
VERTEX
5
4cad
8
0
10
18.516714
20
11.997739
30
0.000000
0
VERTEX
5
4cbd
8
0
10
18.616302
20
11.774998
30
0.000000
0
VERTEX
5
4ccd
8
0
10
18.719042
20
11.554756
30
0.000000
0
VERTEX
5
4cdd
8
0
10
18.825062
20
11.337113
30
0.000000
0
VERTEX
5
4ced
8
0
10
18.934487
20
11.122167
30
0.000000
0
VERTEX
5
4cfd
8
0
10
19.047446
20
10.910017
30
0.000000
0
VERTEX
5
4d0d
8
0
10
19.164063
20
10.700760
30
0.000000
0
VERTEX
5
4d1d
8
0
10
19.284467
20
10.494498
30
0.000000
0
VERTEX
5
4d2d
8
0
10
19.408783
20
10.291326
30
0.000000
0
VERTEX
5
4d3d
8
0
10
19.537139
20
10.091346
30
0.000000
0
VERTEX
5
4d4d
8
0
10
19.669660
20
9.894654
30
0.000000
0
VERTEX
5
4d5d
8
0
10
19.806473
20
9.701350
30
0.000000
0
VERTEX
5
4d6d
8
0
10
19.947706
20
9.511533
30
0.000000
0
VERTEX
5
4d7d
8
0
10
20.093485
20
9.325301
30
0.000000
0
VERTEX
5
4d8d
8
0
10
20.168118
20
9.233560
30
0.000000
0
VERTEX
5
4d9d
8
0
10
20.243936
20
9.142753
30
0.000000
0
VERTEX
5
4dad
8
0
10
20.320953
20
9.052891
30
0.000000
0
VERTEX
5
4dbd
8
0
10
20.399186
20
8.963987
30
0.000000
0
VERTEX
5
4dcd
8
0
10
20.478650
20
8.876054
30
0.000000
0
VERTEX
5
4ddd
8
0
10
20.559361
20
8.789103
30
0.000000
0
VERTEX
5
4ded
8
0
10
20.641336
20
8.703147
30
0.000000
0
VERTEX
5
4dfd
8
0
10
20.724589
20
8.618198
30
0.000000
0
VERTEX
5
4e0d
8
0
10
20.809137
20
8.534269
30
0.000000
0
VERTEX
5
4e1d
8
0
10
20.894996
20
8.451372
30
0.000000
0
VERTEX
5
4e2d
8
0
10
20.982181
20
8.369519
30
0.000000
0
VERTEX
5
4e3d
8
0
10
21.070709
20
8.288723
30
0.000000
0
VERTEX
5
4e4d
8
0
10
21.160594
20
8.208996
30
0.000000
0
VERTEX
5
4e5d
8
0
10
21.251853
20
8.130350
30
0.000000
0
VERTEX
5
4e6d
8
0
10
21.344503
20
8.052798
30
0.000000
0
VERTEX
5
4e7d
8
0
10
21.438557
20
7.976352
30
0.000000
0
VERTEX
5
4e8d
8
0
10
21.534033
20
7.901024
30
0.000000
0
VERTEX
5
4e9d
8
0
10
21.630946
20
7.826827
30
0.000000
0
VERTEX
5
4ead
8
0
10
21.729312
20
7.753772
30
0.000000
0
VERTEX
5
4ebd
8
0
10
21.829147
20
7.681873
30
0.000000
0
VERTEX
5
4ecd
8
0
10
21.930467
20
7.611142
30
0.000000
0
VERTEX
5
4edd
8
0
10
22.033288
20
7.541591
30
0.000000
0
VERTEX
5
4eed
8
0
10
22.137624
20
7.473232
30
0.000000
0
VERTEX
5
4efd
8
0
10
22.243493
20
7.406078
30
0.000000
0
VERTEX
5
4f0d
8
0
10
22.350910
20
7.340140
30
0.000000
0
VERTEX
5
4f1d
8
0
10
22.459891
20
7.275433
30
0.000000
0
VERTEX
5
4f2d
8
0
10
22.570451
20
7.211966
30
0.000000
0
VERTEX
5
4f3d
8
0
10
22.682607
20
7.149754
30
0.000000
0
VERTEX
5
4f4d
8
0
10
22.796374
20
7.088808
30
0.000000
0
VERTEX
5
4f5d
8
0
10
22.911768
20
7.029141
30
0.000000
0
VERTEX
5
4f6d
8
0
10
23.028806
20
6.970764
30
0.000000
0
VERTEX
5
4f7d
8
0
10
23.147502
20
6.913691
30
0.000000
0
VERTEX
5
4f8d
8
0
10
23.267873
20
6.857934
30
0.000000
0
VERTEX
5
4f9d
8
0
10
23.389934
20
6.803505
30
0.000000
0
VERTEX
5
4fad
8
0
10
23.513702
20
6.750416
30
0.000000
0
VERTEX
5
4fbd
8
0
10
23.639192
20
6.698680
30
0.000000
0
VERTEX
5
4fcd
8
0
10
23.766419
20
6.648308
30
0.000000
0
VERTEX
5
4fdd
8
0
10
23.895401
20
6.599315
30
0.000000
0
VERTEX
5
4fed
8
0
10
24.026152
20
6.551710
30
0.000000
0
VERTEX
5
4ffd
8
0
10
24.158689
20
6.505508
30
0.000000
0
VERTEX
5
500d
8
0
10
24.293027
20
6.460720
30
0.000000
0
VERTEX
5
501d
8
0
10
24.429182
20
6.417359
30
0.000000
0
VERTEX
5
502d
8
0
10
24.567170
20
6.375437
30
0.000000
0
VERTEX
5
503d
8
0
10
24.707007
20
6.334966
30
0.000000
0
VERTEX
5
504d
8
0
10
24.848708
20
6.295959
30
0.000000
0
VERTEX
5
505d
8
0
10
24.992290
20
6.258428
30
0.000000
0
VERTEX
5
506d
8
0
10
25.137768
20
6.222385
30
0.000000
0
VERTEX
5
507d
8
0
10
25.285159
20
6.187843
30
0.000000
0
VERTEX
5
508d
8
0
10
25.434477
20
6.154814
30
0.000000
0
VERTEX
5
509d
8
0
10
25.585739
20
6.123311
30
0.000000
0
VERTEX
5
50ad
8
0
10
25.738960
20
6.093345
30
0.000000
0
VERTEX
5
50bd
8
0
10
25.894157
20
6.064929
30
0.000000
0
VERTEX
5
50cd
8
0
10
26.051346
20
6.038075
30
0.000000
0
VERTEX
5
50dd
8
0
10
26.210541
20
6.012796
30
0.000000
0
VERTEX
5
50ed
8
0
10
26.210541
20
6.012796
30
0.000000
0
VERTEX
5
50fd
8
0
10
26.120612
20
5.996115
30
0.000000
0
VERTEX
5
510d
8
0
10
26.030942
20
5.981710
30
0.000000
0
VERTEX
5
511d
8
0
10
25.941525
20
5.969522
30
0.000000
0
VERTEX
5
512d
8
0
10
25.852352
20
5.959490
30
0.000000
0
VERTEX
5
513d
8
0
10
25.763416
20
5.951552
30
0.000000
0
VERTEX
5
514d
8
0
10
25.674709
20
5.945648
30
0.000000
0
VERTEX
5
515d
8
0
10
25.586226
20
5.941718
30
0.000000
0
VERTEX
5
516d
8
0
10
25.497957
20
5.939700
30
0.000000
0
VERTEX
5
517d
8
0
10
25.409897
20
5.939533
30
0.000000
0
VERTEX
5
518d
8
0
10
25.322036
20
5.941158
30
0.000000
0
VERTEX
5
519d
8
0
10
25.234369
20
5.944512
30
0.000000
0
VERTEX
5
51ad
8
0
10
25.146888
20
5.949535
30
0.000000
0
VERTEX
5
51bd
8
0
10
25.059585
20
5.956167
30
0.000000
0
VERTEX
5
51cd
8
0
10
24.972453
20
5.964347
30
0.000000
0
VERTEX
5
51dd
8
0
10
24.798673
20
5.985105
30
0.000000
0
VERTEX
5
51ed
8
0
10
24.625489
20
6.011324
30
0.000000
0
VERTEX
5
51fd
8
0
10
24.452842
20
6.042518
30
0.000000
0
VERTEX
5
520d
8
0
10
24.280673
20
6.078199
30
0.000000
0
VERTEX
5
521d
8
0
10
24.108924
20
6.117881
30
0.000000
0
VERTEX
5
522d
8
0
10
23.937536
20
6.161079
30
0.000000
0
VERTEX
5
523d
8
0
10
23.766450
20
6.207305
30
0.000000
0
VERTEX
5
524d
8
0
10
23.595608
20
6.256074
30
0.000000
0
VERTEX
5
525d
8
0
10
23.424949
20
6.306898
30
0.000000
0
VERTEX
5
526d
8
0
10
23.083951
20
6.412767
30
0.000000
0
VERTEX
5
527d
8
0
10
22.742985
20
6.521023
30
0.000000
0
VERTEX
5
528d
8
0
10
22.401580
20
6.627773
30
0.000000
0
VERTEX
5
529d
8
0
10
22.230567
20
6.679368
30
0.000000
0
VERTEX
5
52ad
8
0
10
22.059268
20
6.729127
30
0.000000
0
VERTEX
5
52bd
8
0
10
21.887624
20
6.776564
30
0.000000
0
VERTEX
5
52cd
8
0
10
21.715576
20
6.821192
30
0.000000
0
VERTEX
5
52dd
8
0
10
21.543067
20
6.862526
30
0.000000
0
VERTEX
5
52ed
8
0
10
21.370036
20
6.900078
30
0.000000
0
VERTEX
5
52fd
8
0
10
21.196425
20
6.933363
30
0.000000
0
VERTEX
5
530d
8
0
10
21.022176
20
6.961893
30
0.000000
0
VERTEX
5
531d
8
0
10
20.847229
20
6.985183
30
0.000000
0
VERTEX
5
532d
8
0
10
20.759476
20
6.994711
30
0.000000
0
VERTEX
5
533d
8
0
10
20.671526
20
7.002746
30
0.000000
0
VERTEX
5
534d
8
0
10
20.671526
20
7.002746
30
0.000000
0
VERTEX
5
535d
8
0
10
20.585210
20
6.946579
30
0.000000
0
VERTEX
5
536d
8
0
10
20.498828
20
6.892517
30
0.000000
0
VERTEX
5
537d
8
0
10
20.412382
20
6.840540
30
0.000000
0
VERTEX
5
538d
8
0
10
20.325872
20
6.790628
30
0.000000
0
VERTEX
5
539d
8
0
10
20.239296
20
6.742762
30
0.000000
0
VERTEX
5
53ad
8
0
10
20.152656
20
6.696921
30
0.000000
0
VERTEX
5
53bd
8
0
10
20.065951
20
6.653086
30
0.000000
0
VERTEX
5
53cd
8
0
10
19.979182
20
6.611237
30
0.000000
0
VERTEX
5
53dd
8
0
10
19.892348
20
6.571354
30
0.000000
0
VERTEX
5
53ed
8
0
10
19.805449
20
6.533416
30
0.000000
0
VERTEX
5
53fd
8
0
10
19.718486
20
6.497405
30
0.000000
0
VERTEX
5
540d
8
0
10
19.631458
20
6.463301
30
0.000000
0
VERTEX
5
541d
8
0
10
19.544366
20
6.431082
30
0.000000
0
VERTEX
5
542d
8
0
10
19.457210
20
6.400731
30
0.000000
0
VERTEX
5
543d
8
0
10
19.369989
20
6.372226
30
0.000000
0
VERTEX
5
544d
8
0
10
19.282703
20
6.345548
30
0.000000
0
VERTEX
5
545d
8
0
10
19.195353
20
6.320676
30
0.000000
0
VERTEX
5
546d
8
0
10
19.107939
20
6.297592
30
0.000000
0
VERTEX
5
547d
8
0
10
19.020461
20
6.276276
30
0.000000
0
VERTEX
5
548d
8
0
10
18.932918
20
6.256706
30
0.000000
0
VERTEX
5
549d
8
0
10
18.845311
20
6.238865
30
0.000000
0
VERTEX
5
54ad
8
0
10
18.757640
20
6.222730
30
0.000000
0
VERTEX
5
54bd
8
0
10
18.669904
20
6.208284
30
0.000000
0
VERTEX
5
54cd
8
0
10
18.582105
20
6.195506
30
0.000000
0
VERTEX
5
54dd
8
0
10
18.494241
20
6.184375
30
0.000000
0
VERTEX
5
54ed
8
0
10
18.406313
20
6.174873
30
0.000000
0
VERTEX
5
54fd
8
0
10
18.318321
20
6.166979
30
0.000000
0
VERTEX
5
550d
8
0
10
18.230265
20
6.160674
30
0.000000
0
VERTEX
5
551d
8
0
10
18.142145
20
6.155937
30
0.000000
0
VERTEX
5
552d
8
0
10
18.053961
20
6.152749
30
0.000000
0
VERTEX
5
553d
8
0
10
17.965713
20
6.151089
30
0.000000
0
VERTEX
5
554d
8
0
10
17.877402
20
6.150939
30
0.000000
0
VERTEX
5
555d
8
0
10
17.700586
20
6.155086
30
0.000000
0
VERTEX
5
556d
8
0
10
17.523516
20
6.165031
30
0.000000
0
VERTEX
5
557d
8
0
10
17.346190
20
6.180614
30
0.000000
0
VERTEX
5
558d
8
0
10
17.168609
20
6.201676
30
0.000000
0
VERTEX
5
559d
8
0
10
16.990774
20
6.228060
30
0.000000
0
VERTEX
5
55ad
8
0
10
16.812684
20
6.259605
30
0.000000
0
VERTEX
5
55bd
8
0
10
16.634340
20
6.296153
30
0.000000
0
VERTEX
5
55cd
8
0
10
16.455742
20
6.337545
30
0.000000
0
VERTEX
5
55dd
8
0
10
16.276890
20
6.383622
30
0.000000
0
VERTEX
5
55ed
8
0
10
16.097785
20
6.434226
30
0.000000
0
VERTEX
5
55fd
8
0
10
15.918427
20
6.489196
30
0.000000
0
VERTEX
5
560d
8
0
10
15.738816
20
6.548374
30
0.000000
0
VERTEX
5
561d
8
0
10
15.558951
20
6.611602
30
0.000000
0
VERTEX
5
562d
8
0
10
15.378835
20
6.678720
30
0.000000
0
VERTEX
5
563d
8
0
10
15.198466
20
6.749569
30
0.000000
0
VERTEX
5
564d
8
0
10
15.017845
20
6.823991
30
0.000000
0
VERTEX
5
565d
8
0
10
15.017845
20
6.823991
30
0.000000
0
VERTEX
5
566d
8
0
10
14.924115
20
6.966959
30
0.000000
0
VERTEX
5
567d
8
0
10
14.832724
20
7.109566
30
0.000000
0
VERTEX
5
568d
8
0
10
14.743730
20
7.251803
30
0.000000
0
VERTEX
5
569d
8
0
10
14.657191
20
7.393661
30
0.000000
0
VERTEX
5
56ad
8
0
10
14.573166
20
7.535131
30
0.000000
0
VERTEX
5
56bd
8
0
10
14.491713
20
7.676205
30
0.000000
0
VERTEX
5
56cd
8
0
10
14.412891
20
7.816875
30
0.000000
0
VERTEX
5
56dd
8
0
10
14.336757
20
7.957132
30
0.000000
0
VERTEX
5
56ed
8
0
10
14.263369
20
8.096967
30
0.000000
0
VERTEX
5
56fd
8
0
10
14.192787
20
8.236372
30
0.000000
0
VERTEX
5
570d
8
0
10
14.125068
20
8.375338
30
0.000000
0
VERTEX
5
571d
8
0
10
14.060271
20
8.513857
30
0.000000
0
VERTEX
5
572d
8
0
10
13.998453
20
8.651920
30
0.000000
0
VERTEX
5
573d
8
0
10
13.939674
20
8.789518
30
0.000000
0
VERTEX
5
574d
8
0
10
13.883991
20
8.926644
30
0.000000
0
VERTEX
5
575d
8
0
10
13.831463
20
9.063288
30
0.000000
0
VERTEX
5
576d
8
0
10
13.782147
20
9.199442
30
0.000000
0
VERTEX
5
577d
8
0
10
13.736103
20
9.335097
30
0.000000
0
VERTEX
5
578d
8
0
10
13.693389
20
9.470245
30
0.000000
0
VERTEX
5
579d
8
0
10
13.654062
20
9.604877
30
0.000000
0
VERTEX
5
57ad
8
0
10
13.618181
20
9.738984
30
0.000000
0
VERTEX
5
57bd
8
0
10
13.585804
20
9.872559
30
0.000000
0
VERTEX
5
57cd
8
0
10
13.556990
20
10.005592
30
0.000000
0
VERTEX
5
57dd
8
0
10
13.531797
20
10.138075
30
0.000000
0
VERTEX
5
57ed
8
0
10
13.510283
20
10.270000
30
0.000000
0
VERTEX
5
57fd
8
0
10
13.492506
20
10.401357
30
0.000000
0
VERTEX
5
580d
8
0
10
13.478525
20
10.532139
30
0.000000
0
VERTEX
5
581d
8
0
10
13.468397
20
10.662336
30
0.000000
0
VERTEX
5
582d
8
0
10
13.462182
20
10.791940
30
0.000000
0
VERTEX
5
583d
8
0
10
13.459938
20
10.920943
30
0.000000
0
VERTEX
5
584d
8
0
10
13.461722
20
11.049336
30
0.000000
0
VERTEX
5
585d
8
0
10
13.467593
20
11.177111
30
0.000000
0
VERTEX
5
586d
8
0
10
13.477609
20
11.304258
30
0.000000
0
VERTEX
5
587d
8
0
10
13.491829
20
11.430770
30
0.000000
0
VERTEX
5
588d
8
0
10
13.510310
20
11.556637
30
0.000000
0
VERTEX
5
589d
8
0
10
13.533112
20
11.681852
30
0.000000
0
VERTEX
5
58ad
8
0
10
13.560292
20
11.806405
30
0.000000
0
VERTEX
5
58bd
8
0
10
13.591908
20
11.930289
30
0.000000
0
VERTEX
5
58cd
8
0
10
13.628020
20
12.053494
30
0.000000
0
VERTEX
5
58dd
8
0
10
13.668684
20
12.176011
30
0.000000
0
VERTEX
5
58ed
8
0
10
13.713960
20
12.297834
30
0.000000
0
VERTEX
5
58fd
8
0
10
13.763905
20
12.418952
30
0.000000
0
VERTEX
5
590d
8
0
10
13.818579
20
12.539357
30
0.000000
0
VERTEX
5
591d
8
0
10
13.878038
20
12.659041
30
0.000000
0
VERTEX
5
592d
8
0
10
13.942343
20
12.777996
30
0.000000
0
VERTEX
5
593d
8
0
10
14.011549
20
12.896211
30
0.000000
0
VERTEX
5
594d
8
0
10
14.085717
20
13.013680
30
0.000000
0
VERTEX
5
595d
8
0
10
14.164904
20
13.130394
30
0.000000
0
VERTEX
5
596d
8
0
10
14.249169
20
13.246343
30
0.000000
0
VERTEX
5
597d
8
0
10
14.338570
20
13.361519
30
0.000000
0
VERTEX
5
598d
8
0
10
14.433164
20
13.475915
30
0.000000
0
VERTEX
5
599d
8
0
10
14.533011
20
13.589520
30
0.000000
0
VERTEX
5
59ad
8
0
10
14.638169
20
13.702328
30
0.000000
0
VERTEX
5
59bd
8
0
10
14.748695
20
13.814328
30
0.000000
0
VERTEX
5
59cd
8
0
10
14.864649
20
13.925513
30
0.000000
0
VERTEX
5
59dd
8
0
10
14.986088
20
14.035874
30
0.000000
0
VERTEX
5
59ed
8
0
10
15.113070
20
14.145402
30
0.000000
0
VERTEX
5
59fd
8
0
10
15.245655
20
14.254090
30
0.000000
0
VERTEX
5
5a0d
8
0
10
15.383900
20
14.361927
30
0.000000
0
VERTEX
5
5a1d
8
0
10
15.527863
20
14.468906
30
0.000000
0
VERTEX
5
5a2d
8
0
10
15.677603
20
14.575019
30
0.000000
0
VERTEX
5
5a3d
8
0
10
15.833178
20
14.680256
30
0.000000
0
VERTEX
5
5a4d
8
0
10
15.994647
20
14.784609
30
0.000000
0
VERTEX
5
5a5d
8
0
10
16.162067
20
14.888069
30
0.000000
0
VERTEX
5
5a6d
8
0
10
16.398657
20
16.402034
30
0.000000
0
VERTEX
5
5a7d
8
0
10
16.398657
20
16.402034
30
0.000000
0
VERTEX
5
5a8d
8
0
10
16.307863
20
16.392503
30
0.000000
0
VERTEX
5
5a9d
8
0
10
16.218855
20
16.379857
30
0.000000
0
VERTEX
5
5aad
8
0
10
16.131574
20
16.364198
30
0.000000
0
VERTEX
5
5abd
8
0
10
16.045961
20
16.345628
30
0.000000
0
VERTEX
5
5acd
8
0
10
15.961957
20
16.324246
30
0.000000
0
VERTEX
5
5add
8
0
10
15.879504
20
16.300154
30
0.000000
0
VERTEX
5
5aed
8
0
10
15.798544
20
16.273453
30
0.000000
0
VERTEX
5
5afd
8
0
10
15.719017
20
16.244245
30
0.000000
0
VERTEX
5
5b0d
8
0
10
15.640865
20
16.212630
30
0.000000
0
VERTEX
5
5b1d
8
0
10
15.564029
20
16.178709
30
0.000000
0
VERTEX
5
5b2d
8
0
10
15.488451
20
16.142583
30
0.000000
0
VERTEX
5
5b3d
8
0
10
15.414072
20
16.104354
30
0.000000
0
VERTEX
5
5b4d
8
0
10
15.340833
20
16.064123
30
0.000000
0
VERTEX
5
5b5d
8
0
10
15.268675
20
16.021990
30
0.000000
0
VERTEX
5
5b6d
8
0
10
15.197541
20
15.978057
30
0.000000
0
VERTEX
5
5b7d
8
0
10
15.127370
20
15.932425
30
0.000000
0
VERTEX
5
5b8d
8
0
10
15.058106
20
15.885194
30
0.000000
0
VERTEX
5
5b9d
8
0
10
14.989688
20
15.836467
30
0.000000
0
VERTEX
5
5bad
8
0
10
14.922058
20
15.786343
30
0.000000
0
VERTEX
5
5bbd
8
0
10
14.855158
20
15.734924
30
0.000000
0
VERTEX
5
5bcd
8
0
10
14.723313
20
15.628607
30
0.000000
0
VERTEX
5
5bdd
8
0
10
14.593682
20
15.518322
30
0.000000
0
VERTEX
5
5bed
8
0
10
14.465796
20
15.404878
30
0.000000
0
VERTEX
5
5bfd
8
0
10
14.339185
20
15.289085
30
0.000000
0
VERTEX
5
5c0d
8
0
10
14.087915
20
15.053682
30
0.000000
0
VERTEX
5
5c1d
8
0
10
13.836116
20
14.818582
30
0.000000
0
VERTEX
5
5c2d
8
0
10
13.708845
20
14.703167
30
0.000000
0
VERTEX
5
5c3d
8
0
10
13.580034
20
14.590254
30
0.000000
0
VERTEX
5
5c4d
8
0
10
13.449213
20
14.480650
30
0.000000
0
VERTEX
5
5c5d
8
0
10
13.315914
20
14.375164
30
0.000000
0
VERTEX
5
5c6d
8
0
10
13.248188
20
14.324219
30
0.000000
0
VERTEX
5
5c7d
8
0
10
13.179667
20
14.274606
30
0.000000
0
VERTEX
5
5c8d
8
0
10
13.110291
20
14.226427
30
0.000000
0
VERTEX
5
5c9d
8
0
10
13.040002
20
14.179783
30
0.000000
0
VERTEX
5
5cad
8
0
10
12.968742
20
14.134775
30
0.000000
0
VERTEX
5
5cbd
8
0
10
12.896451
20
14.091504
30
0.000000
0
VERTEX
5
5ccd
8
0
10
12.823072
20
14.050071
30
0.000000
0
VERTEX
5
5cdd
8
0
10
12.748544
20
14.010578
30
0.000000
0
VERTEX
5
5ced
8
0
10
12.672810
20
13.973124
30
0.000000
0
VERTEX
5
5cfd
8
0
10
12.595812
20
13.937812
30
0.000000
0
VERTEX
5
5d0d
8
0
10
12.517489
20
13.904743
30
0.000000
0
VERTEX
5
5d1d
8
0
10
12.437785
20
13.874017
30
0.000000
0
VERTEX
5
5d2d
8
0
10
12.356639
20
13.845736
30
0.000000
0
VERTEX
5
5d3d
8
0
10
12.273994
20
13.820000
30
0.000000
0
VERTEX
5
5d4d
8
0
10
12.189790
20
13.796911
30
0.000000
0
VERTEX
5
5d5d
8
0
10
12.103970
20
13.776569
30
0.000000
0
VERTEX
5
5d6d
8
0
10
12.016474
20
13.759077
30
0.000000
0
VERTEX
5
5d7d
8
0
10
11.927243
20
13.744534
30
0.000000
0
VERTEX
5
5d8d
8
0
10
11.836220
20
13.733043
30
0.000000
0
VERTEX
5
5d9d
8
0
10
11.743345
20
13.724703
30
0.000000
0
VERTEX
5
5dad
8
0
10
11.743345
20
13.724703
30
0.000000
0
VERTEX
5
5dbd
8
0
10
11.784181
20
13.232618
30
0.000000
0
VERTEX
5
5dcd
8
0
10
11.802614
20
12.987745
30
0.000000
0
VERTEX
5
5ddd
8
0
10
11.818813
20
12.744144
30
0.000000
0
VERTEX
5
5ded
8
0
10
11.832097
20
12.502186
30
0.000000
0
VERTEX
5
5dfd
8
0
10
11.841783
20
12.262239
30
0.000000
0
VERTEX
5
5e0d
8
0
10
11.847188
20
12.024675
30
0.000000
0
VERTEX
5
5e1d
8
0
10
11.847629
20
11.789863
30
0.000000
0
VERTEX
5
5e2d
8
0
10
11.845775
20
11.673604
30
0.000000
0
VERTEX
5
5e3d
8
0
10
11.842425
20
11.558172
30
0.000000
0
VERTEX
5
5e4d
8
0
10
11.837492
20
11.443613
30
0.000000
0
VERTEX
5
5e5d
8
0
10
11.830892
20
11.329973
30
0.000000
0
VERTEX
5
5e6d
8
0
10
11.822540
20
11.217298
30
0.000000
0
VERTEX
5
5e7d
8
0
10
11.812349
20
11.105635
30
0.000000
0
VERTEX
5
5e8d
8
0
10
11.800235
20
10.995030
30
0.000000
0
VERTEX
5
5e9d
8
0
10
11.786113
20
10.885529
30
0.000000
0
VERTEX
5
5ead
8
0
10
11.769896
20
10.777177
30
0.000000
0
VERTEX
5
5ebd
8
0
10
11.751501
20
10.670023
30
0.000000
0
VERTEX
5
5ecd
8
0
10
11.730841
20
10.564111
30
0.000000
0
VERTEX
5
5edd
8
0
10
11.707831
20
10.459488
30
0.000000
0
VERTEX
5
5eed
8
0
10
11.682385
20
10.356200
30
0.000000
0
VERTEX
5
5efd
8
0
10
11.654420
20
10.254294
30
0.000000
0
VERTEX
5
5f0d
8
0
10
11.623848
20
10.153815
30
0.000000
0
VERTEX
5
5f1d
8
0
10
11.590586
20
10.054810
30
0.000000
0
VERTEX
5
5f2d
8
0
10
11.554547
20
9.957325
30
0.000000
0
VERTEX
5
5f3d
8
0
10
11.515646
20
9.861407
30
0.000000
0
VERTEX
5
5f4d
8
0
10
11.473799
20
9.767101
30
0.000000
0
VERTEX
5
5f5d
8
0
10
11.428919
20
9.674453
30
0.000000
0
VERTEX
5
5f6d
8
0
10
11.380921
20
9.583511
30
0.000000
0
VERTEX
5
5f7d
8
0
10
11.329720
20
9.494320
30
0.000000
0
VERTEX
5
5f8d
8
0
10
11.275231
20
9.406927
30
0.000000
0
VERTEX
5
5f9d
8
0
10
11.217369
20
9.321377
30
0.000000
0
VERTEX
5
5fad
8
0
10
11.156048
20
9.237717
30
0.000000
0
VERTEX
5
5fbd
8
0
10
11.091182
20
9.155993
30
0.000000
0
VERTEX
5
5fcd
8
0
10
11.022687
20
9.076251
30
0.000000
0
VERTEX
5
5fdd
8
0
10
10.950477
20
8.998538
30
0.000000
0
VERTEX
5
5fed
8
0
10
10.874467
20
8.922900
30
0.000000
0
VERTEX
5
5ffd
8
0
10
10.794572
20
8.849383
30
0.000000
0
VERTEX
5
600d
8
0
10
10.710706
20
8.778033
30
0.000000
0
VERTEX
5
601d
8
0
10
10.622783
20
8.708897
30
0.000000
0
VERTEX
5
602d
8
0
10
10.530720
20
8.642020
30
0.000000
0
VERTEX
5
603d
8
0
10
10.434429
20
8.577450
30
0.000000
0
VERTEX
5
604d
8
0
10
10.333827
20
8.515231
30
0.000000
0
VERTEX
5
605d
8
0
10
10.228827
20
8.455411
30
0.000000
0
VERTEX
5
606d
8
0
10
10.119345
20
8.398036
30
0.000000
0
VERTEX
5
607d
8
0
10
10.005295
20
8.343152
30
0.000000
0
VERTEX
5
608d
8
0
10
9.886592
20
8.290804
30
0.000000
0
VERTEX
5
609d
8
0
10
9.763150
20
8.241040
30
0.000000
0
VERTEX
5
60ad
8
0
10
9.634884
20
8.193906
30
0.000000
0
VERTEX
5
60bd
8
0
10
9.501709
20
8.149447
30
0.000000
0
VERTEX
5
60cd
8
0
10
9.363540
20
8.107710
30
0.000000
0
VERTEX
5
60dd
8
0
10
9.220290
20
8.068742
30
0.000000
0
VERTEX
5
60ed
8
0
10
9.071876
20
8.032588
30
0.000000
0
VERTEX
5
60fd
8
0
10
8.918211
20
7.999295
30
0.000000
0
VERTEX
5
610d
8
0
10
8.759211
20
7.968908
30
0.000000
0
VERTEX
5
611d
8
0
10
8.594790
20
7.941475
30
0.000000
0
VERTEX
5
612d
8
0
10
8.594790
20
7.941475
30
0.000000
0
VERTEX
5
613d
8
0
10
8.363553
20
7.912069
30
0.000000
0
VERTEX
5
614d
8
0
10
8.131783
20
7.878265
30
0.000000
0
VERTEX
5
615d
8
0
10
7.899567
20
7.840860
30
0.000000
0
VERTEX
5
616d
8
0
10
7.666997
20
7.800652
30
0.000000
0
VERTEX
5
617d
8
0
10
7.201152
20
7.715011
30
0.000000
0
VERTEX
5
618d
8
0
10
6.734967
20
7.627714
30
0.000000
0
VERTEX
5
619d
8
0
10
6.501972
20
7.585437
30
0.000000
0
VERTEX
5
61ad
8
0
10
6.269161
20
7.545135
30
0.000000
0
VERTEX
5
61bd
8
0
10
6.036624
20
7.507606
30
0.000000
0
VERTEX
5
61cd
8
0
10
5.804451
20
7.473647
30
0.000000
0
VERTEX
5
61dd
8
0
10
5.572733
20
7.444053
30
0.000000
0
VERTEX
5
61ed
8
0
10
5.341559
20
7.419622
30
0.000000
0
VERTEX
5
61fd
8
0
10
5.226204
20
7.409592
30
0.000000
0
VERTEX
5
620d
8
0
10
5.111019
20
7.401151
30
0.000000
0
VERTEX
5
621d
8
0
10
4.996014
20
7.394399
30
0.000000
0
VERTEX
5
622d
8
0
10
4.881202
20
7.389435
30
0.000000
0
VERTEX
5
623d
8
0
10
4.766593
20
7.386359
30
0.000000
0
VERTEX
5
624d
8
0
10
4.652199
20
7.385272
30
0.000000
0
VERTEX
5
625d
8
0
10
4.538031
20
7.386271
30
0.000000
0
VERTEX
5
626d
8
0
10
4.424100
20
7.389458
30
0.000000
0
VERTEX
5
627d
8
0
10
4.310417
20
7.394930
30
0.000000
0
VERTEX
5
628d
8
0
10
4.196994
20
7.402789
30
0.000000
0
VERTEX
5
629d
8
0
10
4.083841
20
7.413134
30
0.000000
0
VERTEX
5
62ad
8
0
10
3.970971
20
7.426064
30
0.000000
0
VERTEX
5
62bd
8
0
10
3.858394
20
7.441678
30
0.000000
0
VERTEX
5
62cd
8
0
10
3.746122
20
7.460077
30
0.000000
0
VERTEX
5
62dd
8
0
10
3.634165
20
7.481360
30
0.000000
0
VERTEX
5
62ed
8
0
10
3.522535
20
7.505626
30
0.000000
0
VERTEX
5
62fd
8
0
10
3.411244
20
7.532975
30
0.000000
0
VERTEX
5
630d
8
0
10
3.300302
20
7.563507
30
0.000000
0
VERTEX
5
631d
8
0
10
3.189720
20
7.597322
30
0.000000
0
VERTEX
5
632d
8
0
10
3.079511
20
7.634518
30
0.000000
0
VERTEX
5
633d
8
0
10
2.969685
20
7.675195
30
0.000000
0
VERTEX
5
634d
8
0
10
2.860253
20
7.719454
30
0.000000
0
VERTEX
5
635d
8
0
10
2.751227
20
7.767393
30
0.000000
0
VERTEX
5
636d
8
0
10
2.642617
20
7.819112
30
0.000000
0
VERTEX
5
637d
8
0
10
2.534436
20
7.874711
30
0.000000
0
VERTEX
5
638d
8
0
10
2.426694
20
7.934290
30
0.000000
0
VERTEX
5
639d
8
0
10
2.319403
20
7.997947
30
0.000000
0
VERTEX
5
63ad
8
0
10
2.212574
20
8.065783
30
0.000000
0
VERTEX
5
63bd
8
0
10
2.106217
20
8.137896
30
0.000000
0
VERTEX
5
63cd
8
0
10
2.000345
20
8.214388
30
0.000000
0
VERTEX
5
63dd
8
0
10
1.894968
20
8.295357
30
0.000000
0
VERTEX
5
63ed
8
0
10
1.790099
20
8.380902
30
0.000000
0
VERTEX
5
63fd
8
0
10
1.685747
20
8.471124
30
0.000000
0
VERTEX
5
640d
8
0
10
1.581924
20
8.566122
30
0.000000
0
VERTEX
5
641d
8
0
10
1.478642
20
8.665995
30
0.000000
0
VERTEX
5
642d
8
0
10
1.375911
20
8.770843
30
0.000000
0
VERTEX
5
643d
8
0
10
1.383632
20
22.920813
30
0.000000
0
VERTEX
5
644d
8
0
10
2.398077
20
22.906555
30
0.000000
0
VERTEX
5
645d
8
0
10
2.398077
20
22.906555
30
0.000000
0
VERTEX
5
646d
8
0
10
2.432732
20
23.165839
30
0.000000
0
VERTEX
5
647d
8
0
10
2.469291
20
23.422514
30
0.000000
0
VERTEX
5
648d
8
0
10
2.507752
20
23.676584
30
0.000000
0
VERTEX
5
649d
8
0
10
2.548110
20
23.928055
30
0.000000
0
VERTEX
5
64ad
8
0
10
2.590362
20
24.176930
30
0.000000
0
VERTEX
5
64bd
8
0
10
2.634504
20
24.423216
30
0.000000
0
VERTEX
5
64cd
8
0
10
2.680533
20
24.666915
30
0.000000
0
VERTEX
5
64dd
8
0
10
2.728445
20
24.908035
30
0.000000
0
VERTEX
5
64ed
8
0
10
2.778236
20
25.146578
30
0.000000
0
VERTEX
5
64fd
8
0
10
2.829903
20
25.382551
30
0.000000
0
VERTEX
5
650d
8
0
10
2.883443
20
25.615958
30
0.000000
0
VERTEX
5
651d
8
0
10
2.938850
20
25.846803
30
0.000000
0
VERTEX
5
652d
8
0
10
2.996123
20
26.075092
30
0.000000
0
VERTEX
5
653d
8
0
10
3.055257
20
26.300830
30
0.000000
0
VERTEX
5
654d
8
0
10
3.116249
20
26.524021
30
0.000000
0
VERTEX
5
655d
8
0
10
3.179094
20
26.744669
30
0.000000
0
VERTEX
5
656d
8
0
10
3.243790
20
26.962781
30
0.000000
0
VERTEX
5
657d
8
0
10
3.310333
20
27.178360
30
0.000000
0
VERTEX
5
658d
8
0
10
3.378719
20
27.391412
30
0.000000
0
VERTEX
5
659d
8
0
10
3.448945
20
27.601941
30
0.000000
0
VERTEX
5
65ad
8
0
10
3.521007
20
27.809953
30
0.000000
0
VERTEX
5
65bd
8
0
10
3.594901
20
28.015451
30
0.000000
0
VERTEX
5
65cd
8
0
10
3.670623
20
28.218441
30
0.000000
0
VERTEX
5
65dd
8
0
10
3.748171
20
28.418928
30
0.000000
0
VERTEX
5
65ed
8
0
10
3.827540
20
28.616916
30
0.000000
0
VERTEX
5
65fd
8
0
10
3.908727
20
28.812411
30
0.000000
0
VERTEX
5
660d
8
0
10
3.991728
20
29.005417
30
0.000000
0
VERTEX
5
661d
8
0
10
4.076539
20
29.195938
30
0.000000
0
VERTEX
5
662d
8
0
10
4.163158
20
29.383981
30
0.000000
0
VERTEX
5
663d
8
0
10
4.251580
20
29.569549
30
0.000000
0
VERTEX
5
664d
8
0
10
4.341802
20
29.752647
30
0.000000
0
VERTEX
5
665d
8
0
10
4.433820
20
29.933281
30
0.000000
0
VERTEX
5
666d
8
0
10
4.527630
20
30.111455
30
0.000000
0
VERTEX
5
667d
8
0
10
4.623229
20
30.287173
30
0.000000
0
VERTEX
5
668d
8
0
10
4.720613
20
30.460442
30
0.000000
0
VERTEX
5
669d
8
0
10
4.819779
20
30.631265
30
0.000000
0
VERTEX
5
66ad
8
0
10
4.920723
20
30.799647
30
0.000000
0
VERTEX
5
66bd
8
0
10
5.023442
20
30.965593
30
0.000000
0
VERTEX
5
66cd
8
0
10
5.127931
20
31.129109
30
0.000000
0
VERTEX
5
66dd
8
0
10
5.234187
20
31.290198
30
0.000000
0
VERTEX
5
66ed
8
0
10
5.342207
20
31.448866
30
0.000000
0
VERTEX
5
66fd
8
0
10
5.451986
20
31.605117
30
0.000000
0
VERTEX
5
670d
8
0
10
5.563522
20
31.758957
30
0.000000
0
VERTEX
5
671d
8
0
10
5.676810
20
31.910390
30
0.000000
0
VERTEX
5
672d
8
0
10
5.791848
20
32.059420
30
0.000000
0
VERTEX
5
673d
8
0
10
5.908631
20
32.206054
30
0.000000
0
VERTEX
5
674d
8
0
10
6.027155
20
32.350295
30
0.000000
0
VERTEX
5
675d
8
0
10
6.147418
20
32.492148
30
0.000000
0
VERTEX
5
676d
8
0
10
6.269415
20
32.631619
30
0.000000
0
VERTEX
5
677d
8
0
10
6.393144
20
32.768712
30
0.000000
0
VERTEX
5
678d
8
0
10
6.518599
20
32.903432
30
0.000000
0
VERTEX
5
679d
8
0
10
6.645778
20
33.035783
30
0.000000
0
VERTEX
5
67ad
8
0
10
6.774677
20
33.165771
30
0.000000
0
VERTEX
5
67bd
8
0
10
6.905293
20
33.293400
30
0.000000
0
VERTEX
5
67cd
8
0
10
7.037621
20
33.418676
30
0.000000
0
VERTEX
5
67dd
8
0
10
7.171659
20
33.541602
30
0.000000
0
VERTEX
5
67ed
8
0
10
7.307402
20
33.662184
30
0.000000
0
VERTEX
5
67fd
8
0
10
7.444847
20
33.780427
30
0.000000
0
VERTEX
5
680d
8
0
10
7.583991
20
33.896336
30
0.000000
0
VERTEX
5
681d
8
0
10
7.724829
20
34.009915
30
0.000000
0
VERTEX
5
682d
8
0
10
7.867358
20
34.121169
30
0.000000
0
VERTEX
5
683d
8
0
10
8.011574
20
34.230102
30
0.000000
0
VERTEX
5
684d
8
0
10
8.157475
20
34.336721
30
0.000000
0
VERTEX
5
685d
8
0
10
8.305055
20
34.441029
30
0.000000
0
VERTEX
5
686d
8
0
10
8.454312
20
34.543032
30
0.000000
0
VERTEX
5
687d
8
0
10
8.605243
20
34.642734
30
0.000000
0
VERTEX
5
688d
8
0
10
8.757842
20
34.740140
30
0.000000
0
VERTEX
5
689d
8
0
10
8.912107
20
34.835254
30
0.000000
0
VERTEX
5
68ad
8
0
10
9.068035
20
34.928083
30
0.000000
0
VERTEX
5
68bd
8
0
10
9.225620
20
35.018630
30
0.000000
0
VERTEX
5
68cd
8
0
10
9.384861
20
35.106901
30
0.000000
0
VERTEX
5
68dd
8
0
10
9.545753
20
35.192899
30
0.000000
0
VERTEX
5
68ed
8
0
10
9.708292
20
35.276631
30
0.000000
0
VERTEX
5
68fd
8
0
10
9.872475
20
35.358100
30
0.000000
0
VERTEX
5
690d
8
0
10
10.038299
20
35.437312
30
0.000000
0
VERTEX
5
691d
8
0
10
10.205760
20
35.514272
30
0.000000
0
VERTEX
5
692d
8
0
10
10.374853
20
35.588984
30
0.000000
0
VERTEX
5
693d
8
0
10
10.545576
20
35.661453
30
0.000000
0
VERTEX
5
694d
8
0
10
10.717925
20
35.731684
30
0.000000
0
VERTEX
5
695d
8
0
10
10.891897
20
35.799682
30
0.000000
0
VERTEX
5
696d
8
0
10
11.067487
20
35.865451
30
0.000000
0
VERTEX
5
697d
8
0
10
11.244692
20
35.928997
30
0.000000
0
VERTEX
5
698d
8
0
10
11.423508
20
35.990324
30
0.000000
0
VERTEX
5
699d
8
0
10
11.603932
20
36.049437
30
0.000000
0
VERTEX
5
69ad
8
0
10
11.785960
20
36.106341
30
0.000000
0
VERTEX
5
69bd
8
0
10
11.969589
20
36.161041
30
0.000000
0
VERTEX
5
69cd
8
0
10
12.154814
20
36.213541
30
0.000000
0
VERTEX
5
69dd
8
0
10
12.341633
20
36.263847
30
0.000000
0
VERTEX
5
69ed
8
0
10
12.530042
20
36.311963
30
0.000000
0
VERTEX
5
69fd
8
0
10
12.720036
20
36.357894
30
0.000000
0
VERTEX
5
6a0d
8
0
10
12.911613
20
36.401644
30
0.000000
0
VERTEX
5
6a1d
8
0
10
13.104769
20
36.443220
30
0.000000
0
VERTEX
5
6a2d
8
0
10
13.299500
20
36.482625
30
0.000000
0
VERTEX
5
6a3d
8
0
10
13.495803
20
36.519864
30
0.000000
0
VERTEX
5
6a4d
8
0
10
13.693673
20
36.554942
30
0.000000
0
VERTEX
5
6a5d
8
0
10
13.893108
20
36.587864
30
0.000000
0
VERTEX
5
6a6d
8
0
10
14.094103
20
36.618635
30
0.000000
0
VERTEX
5
6a7d
8
0
10
14.296656
20
36.647260
30
0.000000
0
VERTEX
5
6a8d
8
0
10
14.500762
20
36.673743
30
0.000000
0
VERTEX
5
6a9d
8
0
10
14.706418
20
36.698090
30
0.000000
0
VERTEX
5
6aad
8
0
10
14.913620
20
36.720304
30
0.000000
0
VERTEX
5
6abd
8
0
10
15.122364
20
36.740391
30
0.000000
0
VERTEX
5
6acd
8
0
10
15.332648
20
36.758356
30
0.000000
0
VERTEX
5
6add
8
0
10
15.544466
20
36.774204
30
0.000000
0
VERTEX
5
6aed
8
0
10
15.757817
20
36.787939
30
0.000000
0
VERTEX
5
6afd
8
0
10
15.972696
20
36.799566
30
0.000000
0
VERTEX
5
6b0d
8
0
10
16.189099
20
36.809090
30
0.000000
0
VERTEX
5
6b1d
8
0
10
16.407023
20
36.816516
30
0.000000
0
VERTEX
5
6b2d
8
0
10
16.626464
20
36.821849
30
0.000000
0
VERTEX
5
6b3d
8
0
10
16.847418
20
36.825093
30
0.000000
0
VERTEX
5
6b4d
8
0
10
17.069883
20
36.826253
30
0.000000
0
VERTEX
5
6b5d
8
0
10
17.293854
20
36.825335
30
0.000000
0
VERTEX
5
6b6d
8
0
10
17.519328
20
36.822343
30
0.000000
0
VERTEX
5
6b7d
8
0
10
17.746301
20
36.817281
30
0.000000
0
VERTEX
5
6b8d
8
0
10
17.974770
20
36.810155
30
0.000000
0
VERTEX
5
6b9d
8
0
10
18.204730
20
36.800969
30
0.000000
0
VERTEX
5
6bad
8
0
10
18.436178
20
36.789729
30
0.000000
0
VERTEX
5
6bbd
8
0
10
18.669112
20
36.776439
30
0.000000
0
VERTEX
5
6bcd
8
0
10
18.903526
20
36.761103
30
0.000000
0
VERTEX
5
6bdd
8
0
10
19.139417
20
36.743728
30
0.000000
0
VERTEX
5
6bed
8
0
10
19.376783
20
36.724317
30
0.000000
0
VERTEX
5
6bfd
8
0
10
19.615618
20
36.702875
30
0.000000
0
VERTEX
5
6c0d
8
0
10
19.855920
20
36.679408
30
0.000000
0
VERTEX
5
6c1d
8
0
10
20.097685
20
36.653919
30
0.000000
0
VERTEX
5
6c2d
8
0
10
20.340909
20
36.626414
30
0.000000
0
VERTEX
5
6c3d
8
0
10
20.585589
20
36.596899
30
0.000000
0
VERTEX
5
6c4d
8
0
10
20.831721
20
36.565376
30
0.000000
0
VERTEX
5
6c5d
8
0
10
21.079302
20
36.531852
30
0.000000
0
VERTEX
5
6c6d
8
0
10
21.079302
20
36.531852
30
0.000000
0
VERTEX
5
6c7d
8
0
10
21.515956
20
36.506989
30
0.000000
0
VERTEX
5
6c8d
8
0
10
21.953508
20
36.487260
30
0.000000
0
VERTEX
5
6c9d
8
0
10
22.391904
20
36.472346
30
0.000000
0
VERTEX
5
6cad
8
0
10
22.831090
20
36.461931
30
0.000000
0
VERTEX
5
6cbd
8
0
10
23.271012
20
36.455696
30
0.000000
0
VERTEX
5
6ccd
8
0
10
23.711617
20
36.453323
30
0.000000
0
VERTEX
5
6cdd
8
0
10
24.152850
20
36.454495
30
0.000000
0
VERTEX
5
6ced
8
0
10
24.594658
20
36.458894
30
0.000000
0
VERTEX
5
6cfd
8
0
10
25.036986
20
36.466202
30
0.000000
0
VERTEX
5
6d0d
8
0
10
25.479782
20
36.476101
30
0.000000
0
VERTEX
5
6d1d
8
0
10
25.922990
20
36.488274
30
0.000000
0
VERTEX
5
6d2d
8
0
10
26.366558
20
36.502402
30
0.000000
0
VERTEX
5
6d3d
8
0
10
27.254555
20
36.535253
30
0.000000
0
VERTEX
5
6d4d
8
0
10
28.143343
20
36.572113
30
0.000000
0
VERTEX
5
6d5d
8
0
10
29.032491
20
36.610439
30
0.000000
0
VERTEX
5
6d6d
8
0
10
29.921567
20
36.647689
30
0.000000
0
VERTEX
5
6d7d
8
0
10
30.810141
20
36.681319
30
0.000000
0
VERTEX
5
6d8d
8
0
10
31.254105
20
36.695983
30
0.000000
0
VERTEX
5
6d9d
8
0
10
31.697781
20
36.708788
30
0.000000
0
VERTEX
5
6dad
8
0
10
32.141117
20
36.719418
30
0.000000
0
VERTEX
5
6dbd
8
0
10
32.584058
20
36.727553
30
0.000000
0
VERTEX
5
6dcd
8
0
10
33.026550
20
36.732877
30
0.000000
0
VERTEX
5
6ddd
8
0
10
33.468540
20
36.735071
30
0.000000
0
VERTEX
5
6ded
8
0
10
33.909973
20
36.733819
30
0.000000
0
VERTEX
5
6dfd
8
0
10
34.350796
20
36.728801
30
0.000000
0
VERTEX
5
6e0d
8
0
10
34.790955
20
36.719700
30
0.000000
0
VERTEX
5
6e1d
8
0
10
35.230396
20
36.706198
30
0.000000
0
VERTEX
5
6e2d
8
0
10
35.669065
20
36.687978
30
0.000000
0
VERTEX
5
6e3d
8
0
10
36.106908
20
36.664722
30
0.000000
0
VERTEX
5
6e4d
8
0
10
36.543871
20
36.636112
30
0.000000
0
VERTEX
5
6e5d
8
0
10
36.979902
20
36.601829
30
0.000000
0
VERTEX
5
6e6d
8
0
10
37.197550
20
36.582462
30
0.000000
0
VERTEX
5
6e7d
8
0
10
37.414944
20
36.561557
30
0.000000
0
VERTEX
5
6e8d
8
0
10
37.632079
20
36.539075
30
0.000000
0
VERTEX
5
6e9d
8
0
10
37.848946
20
36.514977
30
0.000000
0
VERTEX
5
6ead
8
0
10
38.065539
20
36.489223
30
0.000000
0
VERTEX
5
6ebd
8
0
10
38.281853
20
36.461772
30
0.000000
0
VERTEX
5
6ecd
8
0
10
38.497878
20
36.432586
30
0.000000
0
VERTEX
5
6edd
8
0
10
38.713610
20
36.401624
30
0.000000
0
VERTEX
5
6eed
8
0
10
38.929041
20
36.368846
30
0.000000
0
VERTEX
5
6efd
8
0
10
39.144165
20
36.334214
30
0.000000
0
VERTEX
5
6f0d
8
0
10
39.358975
20
36.297687
30
0.000000
0
VERTEX
5
6f1d
8
0
10
39.573463
20
36.259226
30
0.000000
0
VERTEX
5
6f2d
8
0
10
39.787624
20
36.218790
30
0.000000
0
VERTEX
5
6f3d
8
0
10
40.001451
20
36.176341
30
0.000000
0
VERTEX
5
6f4d
8
0
10
40.214937
20
36.131838
30
0.000000
0
VERTEX
5
6f5d
8
0
10
40.428075
20
36.085242
30
0.000000
0
VERTEX
5
6f6d
8
0
10
40.640858
20
36.036512
30
0.000000
0
VERTEX
5
6f7d
8
0
10
40.853280
20
35.985610
30
0.000000
0
VERTEX
5
6f8d
8
0
10
41.065334
20
35.932495
30
0.000000
0
VERTEX
5
6f9d
8
0
10
41.277013
20
35.877128
30
0.000000
0
VERTEX
5
6fad
8
0
10
41.488311
20
35.819469
30
0.000000
0
VERTEX
5
6fbd
8
0
10
41.699221
20
35.759479
30
0.000000
0
VERTEX
5
6fcd
8
0
10
41.909735
20
35.697116
30
0.000000
0
VERTEX
5
6fdd
8
0
10
42.119848
20
35.632343
30
0.000000
0
VERTEX
5
6fed
8
0
10
42.329553
20
35.565119
30
0.000000
0
VERTEX
5
6ffd
8
0
10
42.538842
20
35.495404
30
0.000000
0
VERTEX
5
700d
8
0
10
42.747709
20
35.423159
30
0.000000
0
VERTEX
5
701d
8
0
10
42.956148
20
35.348344
30
0.000000
0
VERTEX
5
702d
8
0
10
43.164152
20
35.270919
30
0.000000
0
VERTEX
5
703d
8
0
10
43.371713
20
35.190845
30
0.000000
0
VERTEX
5
704d
8
0
10
43.578826
20
35.108081
30
0.000000
0
VERTEX
5
705d
8
0
10
43.785483
20
35.022588
30
0.000000
0
VERTEX
5
706d
8
0
10
43.991678
20
34.934327
30
0.000000
0
VERTEX
5
707d
8
0
10
44.197404
20
34.843257
30
0.000000
0
VERTEX
5
708d
8
0
10
44.402654
20
34.749339
30
0.000000
0
VERTEX
5
709d
8
0
10
44.607422
20
34.652533
30
0.000000
0
VERTEX
5
70ad
8
0
10
44.811700
20
34.552800
30
0.000000
0
VERTEX
5
70bd
8
0
10
45.015483
20
34.450099
30
0.000000
0
VERTEX
5
70cd
8
0
10
45.218763
20
34.344391
30
0.000000
0
VERTEX
5
70dd
8
0
10
45.421533
20
34.235636
30
0.000000
0
VERTEX
5
70ed
8
0
10
45.623787
20
34.123795
30
0.000000
0
VERTEX
5
70fd
8
0
10
45.825519
20
34.008828
30
0.000000
0
VERTEX
5
710d
8
0
10
46.026721
20
33.890695
30
0.000000
0
VERTEX
5
711d
8
0
10
46.227386
20
33.769356
30
0.000000
0
VERTEX
5
712d
8
0
10
46.427509
20
33.644771
30
0.000000
0
VERTEX
5
713d
8
0
10
46.627081
20
33.516902
30
0.000000
0
VERTEX
5
714d
8
0
10
46.826098
20
33.385707
30
0.000000
0
VERTEX
5
715d
8
0
10
47.024551
20
33.251148
30
0.000000
0
VERTEX
5
716d
8
0
10
47.222433
20
33.113185
30
0.000000
0
VERTEX
5
717d
8
0
10
47.419740
20
32.971777
30
0.000000
0
VERTEX
5
718d
8
0
10
47.616462
20
32.826886
30
0.000000
0
VERTEX
5
719d
8
0
10
47.812595
20
32.678471
30
0.000000
0
VERTEX
5
71ad
8
0
10
48.008131
20
32.526494
30
0.000000
0
VERTEX
5
71bd
8
0
10
48.203063
20
32.370913
30
0.000000
0
VERTEX
5
71cd
8
0
10
48.397384
20
32.211689
30
0.000000
0
VERTEX
5
71dd
8
0
10
48.591089
20
32.048783
30
0.000000
0
VERTEX
5
71ed
8
0
10
48.493583
20
26.731325
30
0.000000
0
VERTEX
5
71fd
8
0
10
48.493583
20
26.731325
30
0.000000
0
VERTEX
5
720d
8
0
10
48.433027
20
26.641387
30
0.000000
0
VERTEX
5
721d
8
0
10
48.373938
20
26.550469
30
0.000000
0
VERTEX
5
722d
8
0
10
48.316242
20
26.458622
30
0.000000
0
VERTEX
5
723d
8
0
10
48.259864
20
26.365903
30
0.000000
0
VERTEX
5
724d
8
0
10
48.150763
20
26.178060
30
0.000000
0
VERTEX
5
725d
8
0
10
48.046036
20
25.987374
30
0.000000
0
VERTEX
5
726d
8
0
10
47.945085
20
25.794274
30
0.000000
0
VERTEX
5
727d
8
0
10
47.847310
20
25.599196
30
0.000000
0
VERTEX
5
728d
8
0
10
47.752114
20
25.402570
30
0.000000
0
VERTEX
5
729d
8
0
10
47.658898
20
25.204828
30
0.000000
0
VERTEX
5
72ad
8
0
10
47.476010
20
24.807731
30
0.000000
0
VERTEX
5
72bd
8
0
10
47.293857
20
24.411361
30
0.000000
0
VERTEX
5
72cd
8
0
10
47.201559
20
24.214531
30
0.000000
0
VERTEX
5
72dd
8
0
10
47.107649
20
24.019179
30
0.000000
0
VERTEX
5
72ed
8
0
10
47.011528
20
23.825739
30
0.000000
0
VERTEX
5
72fd
8
0
10
46.912598
20
23.634643
30
0.000000
0
VERTEX
5
730d
8
0
10
46.810259
20
23.446324
30
0.000000
0
VERTEX
5
731d
8
0
10
46.703914
20
23.261212
30
0.000000
0
VERTEX
5
732d
8
0
10
46.649052
20
23.169995
30
0.000000
0
VERTEX
5
733d
8
0
10
46.592963
20
23.079742
30
0.000000
0
VERTEX
5
734d
8
0
10
46.535574
20
22.990508
30
0.000000
0
VERTEX
5
735d
8
0
10
46.476808
20
22.902346
30
0.000000
0
VERTEX
5
736d
8
0
10
46.416592
20
22.815310
30
0.000000
0
VERTEX
5
737d
8
0
10
46.354851
20
22.729455
30
0.000000
0
VERTEX
5
738d
8
0
10
46.291509
20
22.644834
30
0.000000
0
VERTEX
5
739d
8
0
10
46.226491
20
22.561502
30
0.000000
0
VERTEX
5
73ad
8
0
10
46.159724
20
22.479512
30
0.000000
0
VERTEX
5
73bd
8
0
10
46.091132
20
22.398920
30
0.000000
0
VERTEX
5
73cd
8
0
10
46.020641
20
22.319777
30
0.000000
0
VERTEX
5
73dd
8
0
10
45.948174
20
22.242140
30
0.000000
0
VERTEX
5
73ed
8
0
10
45.873659
20
22.166061
30
0.000000
0
VERTEX
5
73fd
8
0
10
45.797019
20
22.091596
30
0.000000
0
VERTEX
5
740d
8
0
10
45.718180
20
22.018797
30
0.000000
0
VERTEX
5
741d
8
0
10
45.637068
20
21.947719
30
0.000000
0
VERTEX
5
742d
8
0
10
45.553606
20
21.878416
30
0.000000
0
VERTEX
5
743d
8
0
10
45.467722
20
21.810942
30
0.000000
0
VERTEX
5
744d
8
0
10
45.379339
20
21.745351
30
0.000000
0
VERTEX
5
745d
8
0
10
45.288382
20
21.681698
30
0.000000
0
VERTEX
5
746d
8
0
10
45.194778
20
21.620035
30
0.000000
0
VERTEX
5
747d
8
0
10
45.098451
20
21.560418
30
0.000000
0
VERTEX
5
748d
8
0
10
44.999326
20
21.502899
30
0.000000
0
VERTEX
5
749d
8
0
10
44.897329
20
21.447535
30
0.000000
0
VERTEX
5
74ad
8
0
10
44.792385
20
21.394377
30
0.000000
0
VERTEX
5
74bd
8
0
10
44.684418
20
21.343481
30
0.000000
0
VERTEX
5
74cd
8
0
10
44.573355
20
21.294901
30
0.000000
0
VERTEX
5
74dd
8
0
10
44.459119
20
21.248689
30
0.000000
0
VERTEX
5
74ed
8
0
10
44.459119
20
21.248689
30
0.000000
0
VERTEX
5
74fd
8
0
10
44.328394
20
21.203779
30
0.000000
0
VERTEX
5
750d
8
0
10
44.203210
20
21.155416
30
0.000000
0
VERTEX
5
751d
8
0
10
44.083409
20
21.103696
30
0.000000
0
VERTEX
5
752d
8
0
10
43.968831
20
21.048715
30
0.000000
0
VERTEX
5
753d
8
0
10
43.859316
20
20.990568
30
0.000000
0
VERTEX
5
754d
8
0
10
43.754704
20
20.929350
30
0.000000
0
VERTEX
5
755d
8
0
10
43.654837
20
20.865157
30
0.000000
0
VERTEX
5
756d
8
0
10
43.559553
20
20.798084
30
0.000000
0
VERTEX
5
757d
8
0
10
43.468695
20
20.728226
30
0.000000
0
VERTEX
5
758d
8
0
10
43.382101
20
20.655679
30
0.000000
0
VERTEX
5
759d
8
0
10
43.299612
20
20.580538
30
0.000000
0
VERTEX
5
75ad
8
0
10
43.221069
20
20.502898
30
0.000000
0
VERTEX
5
75bd
8
0
10
43.146313
20
20.422855
30
0.000000
0
VERTEX
5
75cd
8
0
10
43.075182
20
20.340504
30
0.000000
0
VERTEX
5
75dd
8
0
10
43.007519
20
20.255940
30
0.000000
0
VERTEX
5
75ed
8
0
10
42.943162
20
20.169260
30
0.000000
0
VERTEX
5
75fd
8
0
10
42.881953
20
20.080557
30
0.000000
0
VERTEX
5
760d
8
0
10
42.823732
20
19.989928
30
0.000000
0
VERTEX
5
761d
8
0
10
42.768339
20
19.897468
30
0.000000
0
VERTEX
5
762d
8
0
10
42.715615
20
19.803273
30
0.000000
0
VERTEX
5
763d
8
0
10
42.665400
20
19.707436
30
0.000000
0
VERTEX
5
764d
8
0
10
42.617534
20
19.610055
30
0.000000
0
VERTEX
5
765d
8
0
10
42.571857
20
19.511224
30
0.000000
0
VERTEX
5
766d
8
0
10
42.528211
20
19.411039
30
0.000000
0
VERTEX
5
767d
8
0
10
42.486435
20
19.309595
30
0.000000
0
VERTEX
5
768d
8
0
10
42.446370
20
19.206987
30
0.000000
0
VERTEX
5
769d
8
0
10
42.407856
20
19.103311
30
0.000000
0
VERTEX
5
76ad
8
0
10
42.370734
20
18.998662
30
0.000000
0
VERTEX
5
76bd
8
0
10
42.300025
20
18.786827
30
0.000000
0
VERTEX
5
76cd
8
0
10
42.232967
20
18.572244
30
0.000000
0
VERTEX
5
76dd
8
0
10
42.168281
20
18.355677
30
0.000000
0
VERTEX
5
76ed
8
0
10
42.104692
20
18.137888
30
0.000000
0
VERTEX
5
76fd
8
0
10
42.040922
20
17.919641
30
0.000000
0
VERTEX
5
770d
8
0
10
41.975694
20
17.701697
30
0.000000
0
VERTEX
5
771d
8
0
10
41.907731
20
17.484820
30
0.000000
0
VERTEX
5
772d
8
0
10
41.835755
20
17.269773
30
0.000000
0
VERTEX
5
773d
8
0
10
41.797864
20
17.163174
30
0.000000
0
VERTEX
5
774d
8
0
10
41.758491
20
17.057319
30
0.000000
0
VERTEX
5
775d
8
0
10
41.717476
20
16.952302
30
0.000000
0
VERTEX
5
776d
8
0
10
41.674660
20
16.848220
30
0.000000
0
VERTEX
5
777d
8
0
10
41.629882
20
16.745167
30
0.000000
0
VERTEX
5
778d
8
0
10
41.582985
20
16.643239
30
0.000000
0
VERTEX
5
779d
8
0
10
41.533807
20
16.542532
30
0.000000
0
VERTEX
5
77ad
8
0
10
41.482190
20
16.443140
30
0.000000
0
VERTEX
5
77bd
8
0
10
41.427973
20
16.345159
30
0.000000
0
VERTEX
5
77cd
8
0
10
41.370997
20
16.248684
30
0.000000
0
VERTEX
5
77dd
8
0
10
41.311102
20
16.153811
30
0.000000
0
VERTEX
5
77ed
8
0
10
41.248129
20
16.060635
30
0.000000
0
VERTEX
5
77fd
8
0
10
41.181918
20
15.969252
30
0.000000
0
VERTEX
5
780d
8
0
10
41.112309
20
15.879756
30
0.000000
0
VERTEX
5
781d
8
0
10
41.039143
20
15.792244
30
0.000000
0
VERTEX
5
782d
8
0
10
40.962261
20
15.706809
30
0.000000
0
VERTEX
5
783d
8
0
10
40.881501
20
15.623549
30
0.000000
0
VERTEX
5
784d
8
0
10
40.796706
20
15.542558
30
0.000000
0
VERTEX
5
785d
8
0
10
40.707715
20
15.463932
30
0.000000
0
VERTEX
5
786d
8
0
10
40.614368
20
15.387765
30
0.000000
0
SEQEND
5
787d
8
0
0
POLYLINE
5
788d
8
0
66
1
10
0
20
0
30
0
0
VERTEX
5
789d
8
0
10
8.608639
20
21.717201
30
0.000000
0
VERTEX
5
78ad
8
0
10
8.608639
20
21.717201
30
0.000000
0
VERTEX
5
78bd
8
0
10
8.718783
20
21.752338
30
0.000000
0
VERTEX
5
78cd
8
0
10
8.826478
20
21.789212
30
0.000000
0
VERTEX
5
78dd
8
0
10
8.931754
20
21.827803
30
0.000000
0
VERTEX
5
78ed
8
0
10
9.034644
20
21.868086
30
0.000000
0
VERTEX
5
78fd
8
0
10
9.135179
20
21.910040
30
0.000000
0
VERTEX
5
790d
8
0
10
9.233392
20
21.953642
30
0.000000
0
VERTEX
5
791d
8
0
10
9.329315
20
21.998869
30
0.000000
0
VERTEX
5
792d
8
0
10
9.422978
20
22.045699
30
0.000000
0
VERTEX
5
793d
8
0
10
9.514414
20
22.094109
30
0.000000
0
VERTEX
5
794d
8
0
10
9.603655
20
22.144077
30
0.000000
0
VERTEX
5
795d
8
0
10
9.690732
20
22.195579
30
0.000000
0
VERTEX
5
796d
8
0
10
9.775678
20
22.248594
30
0.000000
0
VERTEX
5
797d
8
0
10
9.858524
20
22.303099
30
0.000000
0
VERTEX
5
798d
8
0
10
9.939303
20
22.359071
30
0.000000
0
VERTEX
5
799d
8
0
10
10.018045
20
22.416488
30
0.000000
0
VERTEX
5
79ad
8
0
10
10.094783
20
22.475326
30
0.000000
0
VERTEX
5
79bd
8
0
10
10.169548
20
22.535564
30
0.000000
0
VERTEX
5
79cd
8
0
10
10.242373
20
22.597179
30
0.000000
0
VERTEX
5
79dd
8
0
10
10.313289
20
22.660148
30
0.000000
0
VERTEX
5
79ed
8
0
10
10.382328
20
22.724449
30
0.000000
0
VERTEX
5
79fd
8
0
10
10.449522
20
22.790059
30
0.000000
0
VERTEX
5
7a0d
8
0
10
10.514903
20
22.856956
30
0.000000
0
VERTEX
5
7a1d
8
0
10
10.578503
20
22.925116
30
0.000000
0
VERTEX
5
7a2d
8
0
10
10.640353
20
22.994518
30
0.000000
0
VERTEX
5
7a3d
8
0
10
10.700485
20
23.065138
30
0.000000
0
VERTEX
5
7a4d
8
0
10
10.758931
20
23.136955
30
0.000000
0
VERTEX
5
7a5d
8
0
10
10.815723
20
23.209945
30
0.000000
0
VERTEX
5
7a6d
8
0
10
10.870893
20
23.284087
30
0.000000
0
VERTEX
5
7a7d
8
0
10
10.924472
20
23.359356
30
0.000000
0
VERTEX
5
7a8d
8
0
10
10.976493
20
23.435732
30
0.000000
0
VERTEX
5
7a9d
8
0
10
11.026988
20
23.513190
30
0.000000
0
VERTEX
5
7aad
8
0
10
11.075987
20
23.591710
30
0.000000
0
VERTEX
5
7abd
8
0
10
11.123523
20
23.671267
30
0.000000
0
VERTEX
5
7acd
8
0
10
11.169628
20
23.751840
30
0.000000
0
VERTEX
5
7add
8
0
10
11.214334
20
23.833406
30
0.000000
0
VERTEX
5
7aed
8
0
10
11.257672
20
23.915942
30
0.000000
0
VERTEX
5
7afd
8
0
10
11.299674
20
23.999426
30
0.000000
0
VERTEX
5
7b0d
8
0
10
11.340372
20
24.083834
30
0.000000
0
VERTEX
5
7b1d
8
0
10
11.379799
20
24.169146
30
0.000000
0
VERTEX
5
7b2d
8
0
10
11.417985
20
24.255337
30
0.000000
0
VERTEX
5
7b3d
8
0
10
11.490763
20
24.430269
30
0.000000
0
VERTEX
5
7b4d
8
0
10
11.558963
20
24.608451
30
0.000000
0
VERTEX
5
7b5d
8
0
10
11.622839
20
24.789700
30
0.000000
0
VERTEX
5
7b6d
8
0
10
11.682645
20
24.973836
30
0.000000
0
VERTEX
5
7b7d
8
0
10
11.738636
20
25.160679
30
0.000000
0
VERTEX
5
7b8d
8
0
10
11.791067
20
25.350048
30
0.000000
0
VERTEX
5
7b9d
8
0
10
11.840193
20
25.541763
30
0.000000
0
VERTEX
5
7bad
8
0
10
11.886268
20
25.735642
30
0.000000
0
VERTEX
5
7bbd
8
0
10
11.929546
20
25.931505
30
0.000000
0
VERTEX
5
7bcd
8
0
10
11.970283
20
26.129171
30
0.000000
0
VERTEX
5
7bdd
8
0
10
12.008733
20
26.328460
30
0.000000
0
VERTEX
5
7bed
8
0
10
12.045151
20
26.529190
30
0.000000
0
VERTEX
5
7bfd
8
0
10
12.045151
20
26.529190
30
0.000000
0
VERTEX
5
7c0d
8
0
10
11.922074
20
26.503230
30
0.000000
0
VERTEX
5
7c1d
8
0
10
11.802501
20
26.474783
30
0.000000
0
VERTEX
5
7c2d
8
0
10
11.686368
20
26.443896
30
0.000000
0
VERTEX
5
7c3d
8
0
10
11.573612
20
26.410612
30
0.000000
0
VERTEX
5
7c4d
8
0
10
11.464170
20
26.374977
30
0.000000
0
VERTEX
5
7c5d
8
0
10
11.357981
20
26.337035
30
0.000000
0
VERTEX
5
7c6d
8
0
10
11.254979
20
26.296830
30
0.000000
0
VERTEX
5
7c7d
8
0
10
11.155104
20
26.254408
30
0.000000
0
VERTEX
5
7c8d
8
0
10
11.058291
20
26.209813
30
0.000000
0
VERTEX
5
7c9d
8
0
10
10.964478
20
26.163089
30
0.000000
0
VERTEX
5
7cad
8
0
10
10.873602
20
26.114282
30
0.000000
0
VERTEX
5
7cbd
8
0
10
10.785600
20
26.063435
30
0.000000
0
VERTEX
5
7ccd
8
0
10
10.700409
20
26.010594
30
0.000000
0
VERTEX
5
7cdd
8
0
10
10.617965
20
25.955804
30
0.000000
0
VERTEX
5
7ced
8
0
10
10.538207
20
25.899108
30
0.000000
0
VERTEX
5
7cfd
8
0
10
10.461071
20
25.840552
30
0.000000
0
VERTEX
5
7d0d
8
0
10
10.386495
20
25.780180
30
0.000000
0
VERTEX
5
7d1d
8
0
10
10.314414
20
25.718037
30
0.000000
0
VERTEX
5
7d2d
8
0
10
10.244767
20
25.654167
30
0.000000
0
VERTEX
5
7d3d
8
0
10
10.177491
20
25.588616
30
0.000000
0
VERTEX
5
7d4d
8
0
10
10.112522
20
25.521427
30
0.000000
0
VERTEX
5
7d5d
8
0
10
10.049797
20
25.452646
30
0.000000
0
VERTEX
5
7d6d
8
0
10
9.989254
20
25.382317
30
0.000000
0
VERTEX
5
7d7d
8
0
10
9.930830
20
25.310485
30
0.000000
0
VERTEX
5
7d8d
8
0
10
9.874461
20
25.237194
30
0.000000
0
VERTEX
5
7d9d
8
0
10
9.820085
20
25.162489
30
0.000000
0
VERTEX
5
7dad
8
0
10
9.767639
20
25.086415
30
0.000000
0
VERTEX
5
7dbd
8
0
10
9.717060
20
25.009017
30
0.000000
0
VERTEX
5
7dcd
8
0
10
9.668285
20
24.930338
30
0.000000
0
VERTEX
5
7ddd
8
0
10
9.621251
20
24.850425
30
0.000000
0
VERTEX
5
7ded
8
0
10
9.575896
20
24.769320
30
0.000000
0
VERTEX
5
7dfd
8
0
10
9.532155
20
24.687070
30
0.000000
0
VERTEX
5
7e0d
8
0
10
9.489966
20
24.603718
30
0.000000
0
VERTEX
5
7e1d
8
0
10
9.449267
20
24.519310
30
0.000000
0
VERTEX
5
7e2d
8
0
10
9.409994
20
24.433890
30
0.000000
0
VERTEX
5
7e3d
8
0
10
9.372085
20
24.347502
30
0.000000
0
VERTEX
5
7e4d
8
0
10
9.335476
20
24.260192
30
0.000000
0
VERTEX
5
7e5d
8
0
10
9.300104
20
24.172003
30
0.000000
0
VERTEX
5
7e6d
8
0
10
9.232822
20
23.993171
30
0.000000
0
VERTEX
5
7e7d
8
0
10
9.169735
20
23.811362
30
0.000000
0
VERTEX
5
7e8d
8
0
10
9.110339
20
23.626935
30
0.000000
0
VERTEX
5
7e9d
8
0
10
9.054132
20
23.440245
30
0.000000
0
VERTEX
5
7ead
8
0
10
9.000608
20
23.251651
30
0.000000
0
VERTEX
5
7ebd
8
0
10
8.949266
20
23.061510
30
0.000000
0
VERTEX
5
7ecd
8
0
10
8.899601
20
22.870178
30
0.000000
0
VERTEX
5
7edd
8
0
10
8.803288
20
22.485373
30
0.000000
0
VERTEX
5
7eed
8
0
10
8.707644
20
22.100095
30
0.000000
0
VERTEX
5
7efd
8
0
10
8.658813
20
21.908172
30
0.000000
0
VERTEX
5
7f0d
8
0
10
8.608639
20
21.717201
30
0.000000
0
SEQEND
5
7f1d
8
0
0
POLYLINE
5
7f2d
8
0
66
1
10
0
20
0
30
0
0
VERTEX
5
7f3d
8
0
10
32.110404
20
22.375638
30
0.000000
0
VERTEX
5
7f4d
8
0
10
29.800867
20
22.370075
30
0.000000
0
VERTEX
5
7f5d
8
0
10
29.800867
20
22.370075
30
0.000000
0
VERTEX
5
7f6d
8
0
10
29.867055
20
22.439710
30
0.000000
0
VERTEX
5
7f7d
8
0
10
29.933814
20
22.507732
30
0.000000
0
VERTEX
5
7f8d
8
0
10
30.001123
20
22.573853
30
0.000000
0
VERTEX
5
7f9d
8
0
10
30.068966
20
22.637788
30
0.000000
0
VERTEX
5
7fad
8
0
10
30.137324
20
22.699249
30
0.000000
0
VERTEX
5
7fbd
8
0
10
30.206178
20
22.757949
30
0.000000
0
VERTEX
5
7fcd
8
0
10
30.275511
20
22.813601
30
0.000000
0
VERTEX
5
7fdd
8
0
10
30.345303
20
22.865920
30
0.000000
0
VERTEX
5
7fed
8
0
10
30.415536
20
22.914618
30
0.000000
0
VERTEX
5
7ffd
8
0
10
30.486192
20
22.959407
30
0.000000
0
VERTEX
5
800d
8
0
10
30.557253
20
23.000003
30
0.000000
0
VERTEX
5
801d
8
0
10
30.628700
20
23.036116
30
0.000000
0
VERTEX
5
802d
8
0
10
30.700514
20
23.067462
30
0.000000
0
VERTEX
5
803d
8
0
10
30.772678
20
23.093753
30
0.000000
0
VERTEX
5
804d
8
0
10
30.845173
20
23.114702
30
0.000000
0
VERTEX
5
805d
8
0
10
30.917980
20
23.130022
30
0.000000
0
VERTEX
5
806d
8
0
10
30.954495
20
23.135482
30
0.000000
0
VERTEX
5
807d
8
0
10
30.991082
20
23.139427
30
0.000000
0
VERTEX
5
808d
8
0
10
31.027737
20
23.141822
30
0.000000
0
VERTEX
5
809d
8
0
10
31.064459
20
23.142630
30
0.000000
0
VERTEX
5
80ad
8
0
10
31.101245
20
23.141816
30
0.000000
0
VERTEX
5
80bd
8
0
10
31.138094
20
23.139344
30
0.000000
0
VERTEX
5
80cd
8
0
10
31.175002
20
23.135178
30
0.000000
0
VERTEX
5
80dd
8
0
10
31.211967
20
23.129282
30
0.000000
0
VERTEX
5
80ed
8
0
10
31.248988
20
23.121621
30
0.000000
0
VERTEX
5
80fd
8
0
10
31.286062
20
23.112158
30
0.000000
0
VERTEX
5
810d
8
0
10
31.323186
20
23.100857
30
0.000000
0
VERTEX
5
811d
8
0
10
31.360358
20
23.087684
30
0.000000
0
VERTEX
5
812d
8
0
10
31.397577
20
23.072602
30
0.000000
0
VERTEX
5
813d
8
0
10
31.434839
20
23.055574
30
0.000000
0
VERTEX
5
814d
8
0
10
31.472142
20
23.036566
30
0.000000
0
VERTEX
5
815d
8
0
10
31.509485
20
23.015541
30
0.000000
0
VERTEX
5
816d
8
0
10
31.546864
20
22.992464
30
0.000000
0
VERTEX
5
817d
8
0
10
31.584278
20
22.967299
30
0.000000
0
VERTEX
5
818d
8
0
10
31.621724
20
22.940009
30
0.000000
0
VERTEX
5
819d
8
0
10
31.659200
20
22.910560
30
0.000000
0
VERTEX
5
81ad
8
0
10
31.696703
20
22.878914
30
0.000000
0
VERTEX
5
81bd
8
0
10
31.734232
20
22.845037
30
0.000000
0
VERTEX
5
81cd
8
0
10
31.771784
20
22.808893
30
0.000000
0
VERTEX
5
81dd
8
0
10
31.809356
20
22.770445
30
0.000000
0
VERTEX
5
81ed
8
0
10
31.846947
20
22.729658
30
0.000000
0
VERTEX
5
81fd
8
0
10
31.884554
20
22.686495
30
0.000000
0
VERTEX
5
820d
8
0
10
31.922174
20
22.640922
30
0.000000
0
VERTEX
5
821d
8
0
10
31.959806
20
22.592902
30
0.000000
0
VERTEX
5
822d
8
0
10
32.035096
20
22.489379
30
0.000000
0
VERTEX
5
823d
8
0
10
32.110404
20
22.375638
30
0.000000
0
SEQEND
5
824d
8
0
0
POLYLINE
5
825d
8
0
66
1
10
0
20
0
30
0
0
VERTEX
5
826d
8
0
10
28.695636
20
22.292133
30
0.000000
0
VERTEX
5
827d
8
0
10
25.683819
20
22.301083
30
0.000000
0
VERTEX
5
828d
8
0
10
25.679024
20
22.512861
30
0.000000
0
VERTEX
5
829d
8
0
10
28.694589
20
22.587795
30
0.000000
0
VERTEX
5
82ad
8
0
10
28.695636
20
22.292133
30
0.000000
0
SEQEND
5
82bd
8
0
0
POLYLINE
5
82cd
8
0
66
1
10
0
20
0
30
0
0
VERTEX
5
82dd
8
0
10
24.502707
20
19.340346
30
0.000000
0
VERTEX
5
82ed
8
0
10
22.470598
20
19.929069
30
0.000000
0
VERTEX
5
82fd
8
0
10
22.490636
20
20.833699
30
0.000000
0
VERTEX
5
830d
8
0
10
22.490636
20
20.833699
30
0.000000
0
VERTEX
5
831d
8
0
10
22.555498
20
20.795179
30
0.000000
0
VERTEX
5
832d
8
0
10
22.622613
20
20.758912
30
0.000000
0
VERTEX
5
833d
8
0
10
22.691744
20
20.724620
30
0.000000
0
VERTEX
5
834d
8
0
10
22.762652
20
20.692025
30
0.000000
0
VERTEX
5
835d
8
0
10
22.835100
20
20.660850
30
0.000000
0
VERTEX
5
836d
8
0
10
22.908849
20
20.630816
30
0.000000
0
VERTEX
5
837d
8
0
10
23.059297
20
20.573061
30
0.000000
0
VERTEX
5
838d
8
0
10
23.212091
20
20.516539
30
0.000000
0
VERTEX
5
839d
8
0
10
23.365326
20
20.459026
30
0.000000
0
VERTEX
5
83ad
8
0
10
23.517097
20
20.398298
30
0.000000
0
VERTEX
5
83bd
8
0
10
23.591837
20
20.366035
30
0.000000
0
VERTEX
5
83cd
8
0
10
23.665497
20
20.332134
30
0.000000
0
VERTEX
5
83dd
8
0
10
23.737837
20
20.296318
30
0.000000
0
VERTEX
5
83ed
8
0
10
23.808621
20
20.258310
30
0.000000
0
VERTEX
5
83fd
8
0
10
23.877609
20
20.217831
30
0.000000
0
VERTEX
5
840d
8
0
10
23.944564
20
20.174604
30
0.000000
0
VERTEX
5
841d
8
0
10
24.009247
20
20.128350
30
0.000000
0
VERTEX
5
842d
8
0
10
24.071420
20
20.078791
30
0.000000
0
VERTEX
5
843d
8
0
10
24.130845
20
20.025651
30
0.000000
0
VERTEX
5
844d
8
0
10
24.187284
20
19.968651
30
0.000000
0
VERTEX
5
845d
8
0
10
24.240498
20
19.907513
30
0.000000
0
VERTEX
5
846d
8
0
10
24.290250
20
19.841959
30
0.000000
0
VERTEX
5
847d
8
0
10
24.336301
20
19.771712
30
0.000000
0
VERTEX
5
848d
8
0
10
24.357864
20
19.734741
30
0.000000
0
VERTEX
5
849d
8
0
10
24.378413
20
19.696493
30
0.000000
0
VERTEX
5
84ad
8
0
10
24.397918
20
19.656932
30
0.000000
0
VERTEX
5
84bd
8
0
10
24.416348
20
19.616025
30
0.000000
0
VERTEX
5
84cd
8
0
10
24.433674
20
19.573735
30
0.000000
0
VERTEX
5
84dd
8
0
10
24.449867
20
19.530029
30
0.000000
0
VERTEX
5
84ed
8
0
10
24.464897
20
19.484872
30
0.000000
0
VERTEX
5
84fd
8
0
10
24.478733
20
19.438229
30
0.000000
0
VERTEX
5
850d
8
0
10
24.491347
20
19.390065
30
0.000000
0
VERTEX
5
851d
8
0
10
24.502707
20
19.340346
30
0.000000
0
SEQEND
5
852d
8
0
0
POLYLINE
5
853d
8
0
66
1
10
0
20
0
30
0
0
VERTEX
5
854d
8
0
10
30.937280
20
20.823893
30
0.000000
0
VERTEX
5
855d
8
0
10
31.909575
20
20.205725
30
0.000000
0
VERTEX
5
856d
8
0
10
31.909575
20
19.797076
30
0.000000
0
VERTEX
5
857d
8
0
10
26.974218
20
19.776169
30
0.000000
0
VERTEX
5
858d
8
0
10
28.760317
20
20.903670
30
0.000000
0
VERTEX
5
859d
8
0
10
30.937280
20
20.823893
30
0.000000
0
SEQEND
5
85ad
8
0
0
POLYLINE
5
85bd
8
0
66
1
10
0
20
0
30
0
0
VERTEX
5
85cd
8
0
10
29.511458
20
14.361530
30
0.000000
0
VERTEX
5
85dd
8
0
10
24.366142
20
13.168662
30
0.000000
0
VERTEX
5
85ed
8
0
10
23.805035
20
13.803220
30
0.000000
0
VERTEX
5
85fd
8
0
10
25.138109
20
14.151554
30
0.000000
0
VERTEX
5
860d
8
0
10
21.411402
20
14.814696
30
0.000000
0
VERTEX
5
861d
8
0
10
21.411402
20
14.814696
30
0.000000
0
VERTEX
5
862d
8
0
10
21.441392
20
14.855983
30
0.000000
0
VERTEX
5
863d
8
0
10
21.472159
20
14.895615
30
0.000000
0
VERTEX
5
864d
8
0
10
21.503682
20
14.933636
30
0.000000
0
VERTEX
5
865d
8
0
10
21.535941
20
14.970088
30
0.000000
0
VERTEX
5
866d
8
0
10
21.568917
20
15.005014
30
0.000000
0
VERTEX
5
867d
8
0
10
21.602589
20
15.038456
30
0.000000
0
VERTEX
5
868d
8
0
10
21.671940
20
15.101060
30
0.000000
0
VERTEX
5
869d
8
0
10
21.743833
20
15.158241
30
0.000000
0
VERTEX
5
86ad
8
0
10
21.818107
20
15.210340
30
0.000000
0
VERTEX
5
86bd
8
0
10
21.894601
20
15.257698
30
0.000000
0
VERTEX
5
86cd
8
0
10
21.973154
20
15.300656
30
0.000000
0
VERTEX
5
86dd
8
0
10
22.053605
20
15.339556
30
0.000000
0
VERTEX
5
86ed
8
0
10
22.135792
20
15.374738
30
0.000000
0
VERTEX
5
86fd
8
0
10
22.219555
20
15.406543
30
0.000000
0
VERTEX
5
870d
8
0
10
22.304731
20
15.435312
30
0.000000
0
VERTEX
5
871d
8
0
10
22.391161
20
15.461387
30
0.000000
0
VERTEX
5
872d
8
0
10
22.478683
20
15.485108
30
0.000000
0
VERTEX
5
873d
8
0
10
22.567135
20
15.506817
30
0.000000
0
VERTEX
5
874d
8
0
10
22.656357
20
15.526855
30
0.000000
0
VERTEX
5
875d
8
0
10
22.836465
20
15.563279
30
0.000000
0
VERTEX
5
876d
8
0
10
23.017717
20
15.597110
30
0.000000
0
VERTEX
5
877d
8
0
10
23.198824
20
15.631077
30
0.000000
0
VERTEX
5
878d
8
0
10
23.378497
20
15.667907
30
0.000000
0
VERTEX
5
879d
8
0
10
23.467393
20
15.688248
30
0.000000
0
VERTEX
5
87ad
8
0
10
23.555446
20
15.710329
30
0.000000
0
VERTEX
5
87bd
8
0
10
23.642497
20
15.734489
30
0.000000
0
VERTEX
5
87cd
8
0
10
23.728383
20
15.761071
30
0.000000
0
VERTEX
5
87dd
8
0
10
23.812944
20
15.790415
30
0.000000
0
VERTEX
5
87ed
8
0
10
23.896018
20
15.822862
30
0.000000
0
VERTEX
5
87fd
8
0
10
23.977444
20
15.858753
30
0.000000
0
VERTEX
5
880d
8
0
10
24.057062
20
15.898430
30
0.000000
0
VERTEX
5
881d
8
0
10
24.895420
20
14.671908
30
0.000000
0
VERTEX
5
882d
8
0
10
24.895420
20
14.671908
30
0.000000
0
VERTEX
5
883d
8
0
10
24.987249
20
14.682759
30
0.000000
0
VERTEX
5
884d
8
0
10
25.081175
20
14.691454
30
0.000000
0
VERTEX
5
885d
8
0
10
25.175920
20
14.699656
30
0.000000
0
VERTEX
5
886d
8
0
10
25.270206
20
14.709027
30
0.000000
0
VERTEX
5
887d
8
0
10
25.362754
20
14.721229
30
0.000000
0
VERTEX
5
888d
8
0
10
25.407978
20
14.728911
30
0.000000
0
VERTEX
5
889d
8
0
10
25.452288
20
14.737925
30
0.000000
0
VERTEX
5
88ad
8
0
10
25.495525
20
14.748478
30
0.000000
0
VERTEX
5
88bd
8
0
10
25.537529
20
14.760778
30
0.000000
0
VERTEX
5
88cd
8
0
10
25.578140
20
14.775033
30
0.000000
0
VERTEX
5
88dd
8
0
10
25.617199
20
14.791450
30
0.000000
0
VERTEX
5
88ed
8
0
10
25.654546
20
14.810238
30
0.000000
0
VERTEX
5
88fd
8
0
10
25.690021
20
14.831604
30
0.000000
0
VERTEX
5
890d
8
0
10
25.723464
20
14.855756
30
0.000000
0
VERTEX
5
891d
8
0
10
25.754716
20
14.882902
30
0.000000
0
VERTEX
5
892d
8
0
10
25.783616
20
14.913249
30
0.000000
0
VERTEX
5
893d
8
0
10
25.810006
20
14.947006
30
0.000000
0
VERTEX
5
894d
8
0
10
25.833725
20
14.984380
30
0.000000
0
VERTEX
5
895d
8
0
10
25.854614
20
15.025579
30
0.000000
0
VERTEX
5
896d
8
0
10
25.872513
20
15.070811
30
0.000000
0
VERTEX
5
897d
8
0
10
25.887261
20
15.120284
30
0.000000
0
VERTEX
5
898d
8
0
10
25.898701
20
15.174205
30
0.000000
0
VERTEX
5
899d
8
0
10
25.906671
20
15.232783
30
0.000000
0
VERTEX
5
89ad
8
0
10
25.911011
20
15.296225
30
0.000000
0
VERTEX
5
89bd
8
0
10
25.911563
20
15.364739
30
0.000000
0
VERTEX
5
89cd
8
0
10
25.908167
20
15.438532
30
0.000000
0
VERTEX
5
89dd
8
0
10
25.900662
20
15.517813
30
0.000000
0
VERTEX
5
89ed
8
0
10
24.531567
20
16.227567
30
0.000000
0
VERTEX
5
89fd
8
0
10
24.531567
20
16.227567
30
0.000000
0
VERTEX
5
8a0d
8
0
10
24.624800
20
16.240429
30
0.000000
0
VERTEX
5
8a1d
8
0
10
24.717264
20
16.251149
30
0.000000
0
VERTEX
5
8a2d
8
0
10
24.808970
20
16.259766
30
0.000000
0
VERTEX
5
8a3d
8
0
10
24.899934
20
16.266319
30
0.000000
0
VERTEX
5
8a4d
8
0
10
24.990169
20
16.270848
30
0.000000
0
VERTEX
5
8a5d
8
0
10
25.079687
20
16.273392
30
0.000000
0
VERTEX
5
8a6d
8
0
10
25.168504
20
16.273989
30
0.000000
0
VERTEX
5
8a7d
8
0
10
25.256632
20
16.272678
30
0.000000
0
VERTEX
5
8a8d
8
0
10
25.344084
20
16.269500
30
0.000000
0
VERTEX
5
8a9d
8
0
10
25.430875
20
16.264493
30
0.000000
0
VERTEX
5
8aad
8
0
10
25.517019
20
16.257695
30
0.000000
0
VERTEX
5
8abd
8
0
10
25.602527
20
16.249147
30
0.000000
0
VERTEX
5
8acd
8
0
10
25.687416
20
16.238887
30
0.000000
0
VERTEX
5
8add
8
0
10
25.771696
20
16.226954
30
0.000000
0
VERTEX
5
8aed
8
0
10
25.855383
20
16.213387
30
0.000000
0
VERTEX
5
8afd
8
0
10
25.938490
20
16.198226
30
0.000000
0
VERTEX
5
8b0d
8
0
10
26.021031
20
16.181510
30
0.000000
0
VERTEX
5
8b1d
8
0
10
26.103018
20
16.163277
30
0.000000
0
VERTEX
5
8b2d
8
0
10
26.184467
20
16.143567
30
0.000000
0
VERTEX
5
8b3d
8
0
10
26.265389
20
16.122418
30
0.000000
0
VERTEX
5
8b4d
8
0
10
26.425711
20
16.075964
30
0.000000
0
VERTEX
5
8b5d
8
0
10
26.584092
20
16.024225
30
0.000000
0
VERTEX
5
8b6d
8
0
10
26.740641
20
15.967516
30
0.000000
0
VERTEX
5
8b7d
8
0
10
26.895468
20
15.906149
30
0.000000
0
VERTEX
5
8b8d
8
0
10
27.048680
20
15.840437
30
0.000000
0
VERTEX
5
8b9d
8
0
10
27.200385
20
15.770692
30
0.000000
0
VERTEX
5
8bad
8
0
10
27.350694
20
15.697227
30
0.000000
0
VERTEX
5
8bbd
8
0
10
27.499713
20
15.620355
30
0.000000
0
VERTEX
5
8bcd
8
0
10
27.647552
20
15.540388
30
0.000000
0
VERTEX
5
8bdd
8
0
10
27.794319
20
15.457640
30
0.000000
0
VERTEX
5
8bed
8
0
10
27.940124
20
15.372423
30
0.000000
0
VERTEX
5
8bfd
8
0
10
28.085073
20
15.285050
30
0.000000
0
VERTEX
5
8c0d
8
0
10
28.229277
20
15.195833
30
0.000000
0
VERTEX
5
8c1d
8
0
10
28.372844
20
15.105086
30
0.000000
0
VERTEX
5
8c2d
8
0
10
28.658498
20
14.920250
30
0.000000
0
VERTEX
5
8c3d
8
0
10
28.942907
20
14.733044
30
0.000000
0
VERTEX
5
8c4d
8
0
10
29.226937
20
14.545970
30
0.000000
0
VERTEX
5
8c5d
8
0
10
29.511458
20
14.361530
30
0.000000
0
SEQEND
5
8c6d
8
0
0
POLYLINE
5
8c7d
8
0
66
1
10
0
20
0
30
0
0
VERTEX
5
8c8d
8
0
10
34.024990
20
15.866282
30
0.000000
0
VERTEX
5
8c9d
8
0
10
32.942355
20
15.405106
30
0.000000
0
VERTEX
5
8cad
8
0
10
32.942355
20
15.405106
30
0.000000
0
VERTEX
5
8cbd
8
0
10
32.943795
20
15.352337
30
0.000000
0
VERTEX
5
8ccd
8
0
10
32.946931
20
15.301076
30
0.000000
0
VERTEX
5
8cdd
8
0
10
32.951783
20
15.251368
30
0.000000
0
VERTEX
5
8ced
8
0
10
32.958368
20
15.203257
30
0.000000
0
VERTEX
5
8cfd
8
0
10
32.966707
20
15.156788
30
0.000000
0
VERTEX
5
8d0d
8
0
10
32.976818
20
15.112004
30
0.000000
0
VERTEX
5
8d1d
8
0
10
32.988719
20
15.068951
30
0.000000
0
VERTEX
5
8d2d
8
0
10
33.002430
20
15.027671
30
0.000000
0
VERTEX
5
8d3d
8
0
10
33.017970
20
14.988211
30
0.000000
0
VERTEX
5
8d4d
8
0
10
33.035357
20
14.950613
30
0.000000
0
VERTEX
5
8d5d
8
0
10
33.054610
20
14.914922
30
0.000000
0
VERTEX
5
8d6d
8
0
10
33.075748
20
14.881183
30
0.000000
0
VERTEX
5
8d7d
8
0
10
33.098791
20
14.849439
30
0.000000
0
VERTEX
5
8d8d
8
0
10
33.123756
20
14.819735
30
0.000000
0
VERTEX
5
8d9d
8
0
10
33.150663
20
14.792116
30
0.000000
0
VERTEX
5
8dad
8
0
10
33.179531
20
14.766625
30
0.000000
0
VERTEX
5
8dbd
8
0
10
33.210379
20
14.743306
30
0.000000
0
VERTEX
5
8dcd
8
0
10
33.243225
20
14.722205
30
0.000000
0
VERTEX
5
8ddd
8
0
10
33.278088
20
14.703365
30
0.000000
0
VERTEX
5
8ded
8
0
10
33.314987
20
14.686831
30
0.000000
0
VERTEX
5
8dfd
8
0
10
33.353941
20
14.672647
30
0.000000
0
VERTEX
5
8e0d
8
0
10
33.394969
20
14.660857
30
0.000000
0
VERTEX
5
8e1d
8
0
10
33.438090
20
14.651505
30
0.000000
0
VERTEX
5
8e2d
8
0
10
33.483323
20
14.644636
30
0.000000
0
VERTEX
5
8e3d
8
0
10
33.530686
20
14.640294
30
0.000000
0
VERTEX
5
8e4d
8
0
10
33.580199
20
14.638524
30
0.000000
0
VERTEX
5
8e5d
8
0
10
33.631880
20
14.639369
30
0.000000
0
VERTEX
5
8e6d
8
0
10
33.685748
20
14.642874
30
0.000000
0
VERTEX
5
8e7d
8
0
10
33.741822
20
14.649083
30
0.000000
0
VERTEX
5
8e8d
8
0
10
33.800121
20
14.658040
30
0.000000
0
VERTEX
5
8e9d
8
0
10
33.860664
20
14.669790
30
0.000000
0
VERTEX
5
8ead
8
0
10
33.923469
20
14.684378
30
0.000000
0
VERTEX
5
8ebd
8
0
10
33.923469
20
14.684378
30
0.000000
0
VERTEX
5
8ecd
8
0
10
33.937481
20
14.748566
30
0.000000
0
VERTEX
5
8edd
8
0
10
33.953758
20
14.808354
30
0.000000
0
VERTEX
5
8eed
8
0
10
33.972232
20
14.863886
30
0.000000
0
VERTEX
5
8efd
8
0
10
33.992834
20
14.915307
30
0.000000
0
VERTEX
5
8f0d
8
0
10
34.015494
20
14.962763
30
0.000000
0
VERTEX
5
8f1d
8
0
10
34.040143
20
15.006397
30
0.000000
0
VERTEX
5
8f2d
8
0
10
34.066713
20
15.046357
30
0.000000
0
VERTEX
5
8f3d
8
0
10
34.095134
20
15.082786
30
0.000000
0
VERTEX
5
8f4d
8
0
10
34.125336
20
15.115830
30
0.000000
0
VERTEX
5
8f5d
8
0
10
34.157252
20
15.145633
30
0.000000
0
VERTEX
5
8f6d
8
0
10
34.190812
20
15.172342
30
0.000000
0
VERTEX
5
8f7d
8
0
10
34.225946
20
15.196101
30
0.000000
0
VERTEX
5
8f8d
8
0
10
34.262586
20
15.217055
30
0.000000
0
VERTEX
5
8f9d
8
0
10
34.300662
20
15.235349
30
0.000000
0
VERTEX
5
8fad
8
0
10
34.340106
20
15.251129
30
0.000000
0
VERTEX
5
8fbd
8
0
10
34.380848
20
15.264539
30
0.000000
0
VERTEX
5
8fcd
8
0
10
34.422820
20
15.275725
30
0.000000
0
VERTEX
5
8fdd
8
0
10
34.465951
20
15.284832
30
0.000000
0
VERTEX
5
8fed
8
0
10
34.510173
20
15.292004
30
0.000000
0
VERTEX
5
8ffd
8
0
10
34.555417
20
15.297387
30
0.000000
0
VERTEX
5
900d
8
0
10
34.601614
20
15.301127
30
0.000000
0
VERTEX
5
901d
8
0
10
34.648694
20
15.303368
30
0.000000
0
VERTEX
5
902d
8
0
10
34.745229
20
15.303933
30
0.000000
0
VERTEX
5
903d
8
0
10
34.844470
20
15.300244
30
0.000000
0
VERTEX
5
904d
8
0
10
34.945862
20
15.293463
30
0.000000
0
VERTEX
5
905d
8
0
10
35.152892
20
15.275263
30
0.000000
0
VERTEX
5
906d
8
0
10
35.358784
20
14.326660
30
0.000000
0
VERTEX
5
907d
8
0
10
34.481254
20
14.097359
30
0.000000
0
VERTEX
5
908d
8
0
10
34.652413
20
13.396865
30
0.000000
0
VERTEX
5
909d
8
0
10
34.652413
20
13.396865
30
0.000000
0
VERTEX
5
90ad
8
0
10
34.571021
20
13.371340
30
0.000000
0
VERTEX
5
90bd
8
0
10
34.490242
20
13.348454
30
0.000000
0
VERTEX
5
90cd
8
0
10
34.410061
20
13.328147
30
0.000000
0
VERTEX
5
90dd
8
0
10
34.330463
20
13.310362
30
0.000000
0
VERTEX
5
90ed
8
0
10
34.251433
20
13.295041
30
0.000000
0
VERTEX
5
90fd
8
0
10
34.172956
20
13.282126
30
0.000000
0
VERTEX
5
910d
8
0
10
34.095018
20
13.271560
30
0.000000
0
VERTEX
5
911d
8
0
10
34.017604
20
13.263284
30
0.000000
0
VERTEX
5
912d
8
0
10
33.940698
20
13.257241
30
0.000000
0
VERTEX
5
913d
8
0
10
33.864286
20
13.253373
30
0.000000
0
VERTEX
5
914d
8
0
10
33.788353
20
13.251622
30
0.000000
0
VERTEX
5
915d
8
0
10
33.712884
20
13.251930
30
0.000000
0
VERTEX
5
916d
8
0
10
33.637864
20
13.254239
30
0.000000
0
VERTEX
5
917d
8
0
10
33.563278
20
13.258492
30
0.000000
0
VERTEX
5
918d
8
0
10
33.489112
20
13.264631
30
0.000000
0
VERTEX
5
919d
8
0
10
33.415350
20
13.272597
30
0.000000
0
VERTEX
5
91ad
8
0
10
33.341978
20
13.282334
30
0.000000
0
VERTEX
5
91bd
8
0
10
33.268981
20
13.293782
30
0.000000
0
VERTEX
5
91cd
8
0
10
33.196344
20
13.306885
30
0.000000
0
VERTEX
5
91dd
8
0
10
33.124051
20
13.321584
30
0.000000
0
VERTEX
5
91ed
8
0
10
33.052089
20
13.337821
30
0.000000
0
VERTEX
5
91fd
8
0
10
32.980442
20
13.355540
30
0.000000
0
VERTEX
5
920d
8
0
10
32.838034
20
13.395187
30
0.000000
0
VERTEX
5
921d
8
0
10
32.696709
20
13.440063
30
0.000000
0
VERTEX
5
922d
8
0
10
32.556347
20
13.489705
30
0.000000
0
VERTEX
5
923d
8
0
10
32.416829
20
13.543650
30
0.000000
0
VERTEX
5
924d
8
0
10
32.278037
20
13.601435
30
0.000000
0
VERTEX
5
925d
8
0
10
32.139851
20
13.662597
30
0.000000
0
VERTEX
5
926d
8
0
10
32.002152
20
13.726675
30
0.000000
0
VERTEX
5
927d
8
0
10
31.864821
20
13.793204
30
0.000000
0
VERTEX
5
928d
8
0
10
31.727739
20
13.861722
30
0.000000
0
VERTEX
5
929d
8
0
10
31.453848
20
14.002875
30
0.000000
0
VERTEX
5
92ad
8
0
10
31.179524
20
14.146432
30
0.000000
0
VERTEX
5
92bd
8
0
10
30.903816
20
14.288689
30
0.000000
0
VERTEX
5
92cd
8
0
10
30.765146
20
14.358173
30
0.000000
0
VERTEX
5
92dd
8
0
10
30.625772
20
14.425945
30
0.000000
0
VERTEX
5
92ed
8
0
10
30.485577
20
14.491540
30
0.000000
0
VERTEX
5
92fd
8
0
10
30.344439
20
14.554497
30
0.000000
0
VERTEX
5
930d
8
0
10
30.202242
20
14.614352
30
0.000000
0
VERTEX
5
931d
8
0
10
30.058866
20
14.670643
30
0.000000
0
VERTEX
5
932d
8
0
10
30.969052
20
16.105010
30
0.000000
0
VERTEX
5
933d
8
0
10
33.911987
20
16.225457
30
0.000000
0
VERTEX
5
934d
8
0
10
34.024990
20
15.866282
30
0.000000
0
SEQEND
5
935d
8
0
0
POLYLINE
5
936d
8
0
66
1
10
0
20
0
30
0
0
VERTEX
5
937d
8
0
10
40.515658
20
14.681599
30
0.000000
0
VERTEX
5
938d
8
0
10
40.515658
20
14.681599
30
0.000000
0
VERTEX
5
939d
8
0
10
40.690702
20
14.577415
30
0.000000
0
VERTEX
5
93ad
8
0
10
40.860801
20
14.472060
30
0.000000
0
VERTEX
5
93bd
8
0
10
41.025973
20
14.365539
30
0.000000
0
VERTEX
5
93cd
8
0
10
41.186233
20
14.257855
30
0.000000
0
VERTEX
5
93dd
8
0
10
41.341599
20
14.149013
30
0.000000
0
VERTEX
5
93ed
8
0
10
41.492088
20
14.039015
30
0.000000
0
VERTEX
5
93fd
8
0
10
41.637717
20
13.927866
30
0.000000
0
VERTEX
5
940d
8
0
10
41.778503
20
13.815570
30
0.000000
0
VERTEX
5
941d
8
0
10
41.914463
20
13.702131
30
0.000000
0
VERTEX
5
942d
8
0
10
42.045613
20
13.587552
30
0.000000
0
VERTEX
5
943d
8
0
10
42.171971
20
13.471838
30
0.000000
0
VERTEX
5
944d
8
0
10
42.293553
20
13.354992
30
0.000000
0
VERTEX
5
945d
8
0
10
42.410377
20
13.237018
30
0.000000
0
VERTEX
5
946d
8
0
10
42.522459
20
13.117920
30
0.000000
0
VERTEX
5
947d
8
0
10
42.629817
20
12.997702
30
0.000000
0
VERTEX
5
948d
8
0
10
42.732467
20
12.876367
30
0.000000
0
VERTEX
5
949d
8
0
10
42.830426
20
12.753921
30
0.000000
0
VERTEX
5
94ad
8
0
10
42.923712
20
12.630365
30
0.000000
0
VERTEX
5
94bd
8
0
10
43.012340
20
12.505705
30
0.000000
0
VERTEX
5
94cd
8
0
10
43.096329
20
12.379945
30
0.000000
0
VERTEX
5
94dd
8
0
10
43.175695
20
12.253087
30
0.000000
0
VERTEX
5
94ed
8
0
10
43.250454
20
12.125137
30
0.000000
0
VERTEX
5
94fd
8
0
10
43.320625
20
11.996097
30
0.000000
0
VERTEX
5
950d
8
0
10
43.386224
20
11.865972
30
0.000000
0
VERTEX
5
951d
8
0
10
43.447267
20
11.734766
30
0.000000
0
VERTEX
5
952d
8
0
10
43.503772
20
11.602482
30
0.000000
0
VERTEX
5
953d
8
0
10
43.555756
20
11.469124
30
0.000000
0
VERTEX
5
954d
8
0
10
43.603235
20
11.334697
30
0.000000
0
VERTEX
5
955d
8
0
10
43.646228
20
11.199204
30
0.000000
0
VERTEX
5
956d
8
0
10
43.684749
20
11.062648
30
0.000000
0
VERTEX
5
957d
8
0
10
43.718817
20
10.925035
30
0.000000
0
VERTEX
5
958d
8
0
10
43.748449
20
10.786367
30
0.000000
0
VERTEX
5
959d
8
0
10
43.773660
20
10.646648
30
0.000000
0
VERTEX
5
95ad
8
0
10
43.794470
20
10.505883
30
0.000000
0
VERTEX
5
95bd
8
0
10
43.810893
20
10.364076
30
0.000000
0
VERTEX
5
95cd
8
0
10
43.822948
20
10.221229
30
0.000000
0
VERTEX
5
95dd
8
0
10
43.830650
20
10.077348
30
0.000000
0
VERTEX
5
95ed
8
0
10
43.834018
20
9.932435
30
0.000000
0
VERTEX
5
95fd
8
0
10
43.833068
20
9.786495
30
0.000000
0
VERTEX
5
960d
8
0
10
43.827816
20
9.639532
30
0.000000
0
VERTEX
5
961d
8
0
10
43.818281
20
9.491550
30
0.000000
0
VERTEX
5
962d
8
0
10
43.804479
20
9.342552
30
0.000000
0
VERTEX
5
963d
8
0
10
43.786426
20
9.192542
30
0.000000
0
VERTEX
5
964d
8
0
10
43.764140
20
9.041524
30
0.000000
0
VERTEX
5
965d
8
0
10
43.737638
20
8.889502
30
0.000000
0
VERTEX
5
966d
8
0
10
43.706936
20
8.736480
30
0.000000
0
VERTEX
5
967d
8
0
10
43.672052
20
8.582462
30
0.000000
0
VERTEX
5
968d
8
0
10
43.633002
20
8.427451
30
0.000000
0
VERTEX
5
969d
8
0
10
43.589804
20
8.271452
30
0.000000
0
VERTEX
5
96ad
8
0
10
43.542474
20
8.114468
30
0.000000
0
VERTEX
5
96bd
8
0
10
43.491029
20
7.956504
30
0.000000
0
VERTEX
5
96cd
8
0
10
43.435487
20
7.797562
30
0.000000
0
VERTEX
5
96dd
8
0
10
43.375864
20
7.637648
30
0.000000
0
VERTEX
5
96ed
8
0
10
43.312177
20
7.476764
30
0.000000
0
VERTEX
5
96fd
8
0
10
43.244444
20
7.314915
30
0.000000
0
VERTEX
5
970d
8
0
10
43.172680
20
7.152105
30
0.000000
0
VERTEX
5
971d
8
0
10
43.096903
20
6.988337
30
0.000000
0
VERTEX
5
972d
8
0
10
43.017131
20
6.823615
30
0.000000
0
VERTEX
5
973d
8
0
10
42.933379
20
6.657943
30
0.000000
0
VERTEX
5
974d
8
0
10
42.845665
20
6.491326
30
0.000000
0
VERTEX
5
975d
8
0
10
42.754005
20
6.323767
30
0.000000
0
VERTEX
5
976d
8
0
10
42.658418
20
6.155269
30
0.000000
0
VERTEX
5
977d
8
0
10
42.558919
20
5.985837
30
0.000000
0
VERTEX
5
978d
8
0
10
42.455525
20
5.815474
30
0.000000
0
VERTEX
5
979d
8
0
10
42.455525
20
5.815474
30
0.000000
0
VERTEX
5
97ad
8
0
10
42.357071
20
5.829507
30
0.000000
0
VERTEX
5
97bd
8
0
10
42.258601
20
5.841895
30
0.000000
0
VERTEX
5
97cd
8
0
10
42.160121
20
5.852708
30
0.000000
0
VERTEX
5
97dd
8
0
10
42.061635
20
5.862019
30
0.000000
0
VERTEX
5
97ed
8
0
10
41.864663
20
5.876418
30
0.000000
0
VERTEX
5
97fd
8
0
10
41.667722
20
5.885667
30
0.000000
0
VERTEX
5
980d
8
0
10
41.470850
20
5.890336
30
0.000000
0
VERTEX
5
981d
8
0
10
41.274084
20
5.890998
30
0.000000
0
VERTEX
5
982d
8
0
10
41.077461
20
5.888226
30
0.000000
0
VERTEX
5
983d
8
0
10
40.881017
20
5.882592
30
0.000000
0
VERTEX
5
984d
8
0
10
40.684790
20
5.874668
30
0.000000
0
VERTEX
5
985d
8
0
10
40.488816
20
5.865028
30
0.000000
0
VERTEX
5
986d
8
0
10
40.097778
20
5.842885
30
0.000000
0
VERTEX
5
987d
8
0
10
39.708198
20
5.820743
30
0.000000
0
VERTEX
5
988d
8
0
10
39.514048
20
5.811104
30
0.000000
0
VERTEX
5
989d
8
0
10
39.320373
20
5.803182
30
0.000000
0
VERTEX
5
98ad
8
0
10
39.127211
20
5.797550
30
0.000000
0
VERTEX
5
98bd
8
0
10
38.934599
20
5.794780
30
0.000000
0
VERTEX
5
98cd
8
0
10
38.742574
20
5.795446
30
0.000000
0
VERTEX
5
98dd
8
0
10
38.551172
20
5.800118
30
0.000000
0
VERTEX
5
98ed
8
0
10
38.360431
20
5.809370
30
0.000000
0
VERTEX
5
98fd
8
0
10
38.170388
20
5.823774
30
0.000000
0
VERTEX
5
990d
8
0
10
38.075639
20
5.833087
30
0.000000
0
VERTEX
5
991d
8
0
10
37.981079
20
5.843903
30
0.000000
0
VERTEX
5
992d
8
0
10
37.886712
20
5.856292
30
0.000000
0
VERTEX
5
993d
8
0
10
37.792543
20
5.870328
30
0.000000
0
VERTEX
5
994d
8
0
10
37.698575
20
5.886081
30
0.000000
0
VERTEX
5
995d
8
0
10
37.604814
20
5.903623
30
0.000000
0
VERTEX
5
996d
8
0
10
37.511265
20
5.923025
30
0.000000
0
VERTEX
5
997d
8
0
10
37.417932
20
5.944360
30
0.000000
0
VERTEX
5
998d
8
0
10
37.324820
20
5.967698
30
0.000000
0
VERTEX
5
999d
8
0
10
37.231933
20
5.993111
30
0.000000
0
VERTEX
5
99ad
8
0
10
37.139276
20
6.020670
30
0.000000
0
VERTEX
5
99bd
8
0
10
37.046853
20
6.050448
30
0.000000
0
VERTEX
5
99cd
8
0
10
36.954670
20
6.082516
30
0.000000
0
VERTEX
5
99dd
8
0
10
36.862730
20
6.116945
30
0.000000
0
VERTEX
5
99ed
8
0
10
36.771039
20
6.153806
30
0.000000
0
VERTEX
5
99fd
8
0
10
36.679601
20
6.193173
30
0.000000
0
VERTEX
5
9a0d
8
0
10
36.588420
20
6.235115
30
0.000000
0
VERTEX
5
9a1d
8
0
10
36.497502
20
6.279705
30
0.000000
0
VERTEX
5
9a2d
8
0
10
36.406851
20
6.327013
30
0.000000
0
VERTEX
5
9a3d
8
0
10
36.316472
20
6.377113
30
0.000000
0
VERTEX
5
9a4d
8
0
10
30.429716
20
5.838582
30
0.000000
0
VERTEX
5
9a5d
8
0
10
30.429716
20
5.838582
30
0.000000
0
VERTEX
5
9a6d
8
0
10
30.684417
20
5.867332
30
0.000000
0
VERTEX
5
9a7d
8
0
10
30.935035
20
5.900545
30
0.000000
0
VERTEX
5
9a8d
8
0
10
31.181619
20
5.938173
30
0.000000
0
VERTEX
5
9a9d
8
0
10
31.424218
20
5.980169
30
0.000000
0
VERTEX
5
9aad
8
0
10
31.662879
20
6.026485
30
0.000000
0
VERTEX
5
9abd
8
0
10
31.897652
20
6.077072
30
0.000000
0
VERTEX
5
9acd
8
0
10
32.128584
20
6.131883
30
0.000000
0
VERTEX
5
9add
8
0
10
32.355723
20
6.190870
30
0.000000
0
VERTEX
5
9aed
8
0
10
32.579119
20
6.253985
30
0.000000
0
VERTEX
5
9afd
8
0
10
32.798820
20
6.321179
30
0.000000
0
VERTEX
5
9b0d
8
0
10
33.014873
20
6.392407
30
0.000000
0
VERTEX
5
9b1d
8
0
10
33.227328
20
6.467618
30
0.000000
0
VERTEX
5
9b2d
8
0
10
33.436232
20
6.546766
30
0.000000
0
VERTEX
5
9b3d
8
0
10
33.641634
20
6.629803
30
0.000000
0
VERTEX
5
9b4d
8
0
10
33.843583
20
6.716681
30
0.000000
0
VERTEX
5
9b5d
8
0
10
34.042127
20
6.807351
30
0.000000
0
VERTEX
5
9b6d
8
0
10
34.237313
20
6.901767
30
0.000000
0
VERTEX
5
9b7d
8
0
10
34.429192
20
6.999879
30
0.000000
0
VERTEX
5
9b8d
8
0
10
34.617810
20
7.101641
30
0.000000
0
VERTEX
5
9b9d
8
0
10
34.803216
20
7.207004
30
0.000000
0
VERTEX
5
9bad
8
0
10
34.985459
20
7.315921
30
0.000000
0
VERTEX
5
9bbd
8
0
10
35.164586
20
7.428343
30
0.000000
0
VERTEX
5
9bcd
8
0
10
35.340648
20
7.544223
30
0.000000
0
VERTEX
5
9bdd
8
0
10
35.513690
20
7.663513
30
0.000000
0
VERTEX
5
9bed
8
0
10
35.683763
20
7.786165
30
0.000000
0
VERTEX
5
9bfd
8
0
10
35.850915
20
7.912132
30
0.000000
0
VERTEX
5
9c0d
8
0
10
36.015193
20
8.041364
30
0.000000
0
VERTEX
5
9c1d
8
0
10
36.176646
20
8.173815
30
0.000000
0
VERTEX
5
9c2d
8
0
10
36.335323
20
8.309436
30
0.000000
0
VERTEX
5
9c3d
8
0
10
36.491272
20
8.448180
30
0.000000
0
VERTEX
5
9c4d
8
0
10
36.644541
20
8.589999
30
0.000000
0
VERTEX
5
9c5d
8
0
10
36.795178
20
8.734844
30
0.000000
0
VERTEX
5
9c6d
8
0
10
36.943233
20
8.882669
30
0.000000
0
VERTEX
5
9c7d
8
0
10
37.088753
20
9.033424
30
0.000000
0
VERTEX
5
9c8d
8
0
10
37.231787
20
9.187063
30
0.000000
0
VERTEX
5
9c9d
8
0
10
37.372383
20
9.343537
30
0.000000
0
VERTEX
5
9cad
8
0
10
37.510589
20
9.502799
30
0.000000
0
VERTEX
5
9cbd
8
0
10
37.646454
20
9.664800
30
0.000000
0
VERTEX
5
9ccd
8
0
10
37.780027
20
9.829493
30
0.000000
0
VERTEX
5
9cdd
8
0
10
37.911355
20
9.996830
30
0.000000
0
VERTEX
5
9ced
8
0
10
38.040487
20
10.166763
30
0.000000
0
VERTEX
5
9cfd
8
0
10
38.167471
20
10.339244
30
0.000000
0
VERTEX
5
9d0d
8
0
10
38.292356
20
10.514226
30
0.000000
0
VERTEX
5
9d1d
8
0
10
38.415190
20
10.691659
30
0.000000
0
VERTEX
5
9d2d
8
0
10
38.536022
20
10.871497
30
0.000000
0
VERTEX
5
9d3d
8
0
10
38.654899
20
11.053692
30
0.000000
0
VERTEX
5
9d4d
8
0
10
38.771870
20
11.238196
30
0.000000
0
VERTEX
5
9d5d
8
0
10
38.886984
20
11.424960
30
0.000000
0
VERTEX
5
9d6d
8
0
10
39.000289
20
11.613937
30
0.000000
0
VERTEX
5
9d7d
8
0
10
39.111833
20
11.805080
30
0.000000
0
VERTEX
5
9d8d
8
0
10
39.221665
20
11.998339
30
0.000000
0
VERTEX
5
9d9d
8
0
10
39.329833
20
12.193668
30
0.000000
0
VERTEX
5
9dad
8
0
10
39.436385
20
12.391019
30
0.000000
0
VERTEX
5
9dbd
8
0
10
39.541369
20
12.590343
30
0.000000
0
VERTEX
5
9dcd
8
0
10
39.644835
20
12.791593
30
0.000000
0
VERTEX
5
9ddd
8
0
10
39.746831
20
12.994721
30
0.000000
0
VERTEX
5
9ded
8
0
10
39.847404
20
13.199678
30
0.000000
0
VERTEX
5
9dfd
8
0
10
39.946603
20
13.406418
30
0.000000
0
VERTEX
5
9e0d
8
0
10
40.044477
20
13.614892
30
0.000000
0
VERTEX
5
9e1d
8
0
10
40.141074
20
13.825052
30
0.000000
0
VERTEX
5
9e2d
8
0
10
40.236442
20
14.036851
30
0.000000
0
VERTEX
5
9e3d
8
0
10
40.330630
20
14.250240
30
0.000000
0
VERTEX
5
9e4d
8
0
10
40.423686
20
14.465172
30
0.000000
0
VERTEX
5
9e5d
8
0
10
40.515658
20
14.681599
30
0.000000
0
SEQEND
5
9e6d
8
0
0
ENDSEC
0
EOF
